<?xml version="1.0" encoding="UTF-8" standalone="no"?>
<!DOCTYPE svg PUBLIC "-//W3C//DTD SVG 1.1//EN"
 "http://www.w3.org/Graphics/SVG/1.1/DTD/svg11.dtd">
<!-- Generated by graphviz version 2.40.1 (20161225.0304)
 -->
<!-- Title: my&#45;home Pages: 1 -->
<svg width="1732pt" height="369pt"
 viewBox="0.00 0.00 1731.50 369.00" xmlns="http://www.w3.org/2000/svg" xmlns:xlink="http://www.w3.org/1999/xlink">
<g id="graph0" class="graph" transform="scale(1 1) rotate(0) translate(4 365)">
<title>my&#45;home</title>
<polygon fill="#ffffff" stroke="transparent" points="-4,4 -4,-365 1727.5,-365 1727.5,4 -4,4"/>
<!-- electricity_daily_usages -->
<g id="node1" class="node">
<title>electricity_daily_usages</title>
<polygon fill="#efefef" stroke="transparent" points="43.5,-252.5 43.5,-287.5 374.5,-287.5 374.5,-252.5 43.5,-252.5"/>
<polygon fill="none" stroke="#000000" points="43.5,-252.5 43.5,-287.5 374.5,-287.5 374.5,-252.5 43.5,-252.5"/>
<text text-anchor="start" x="50.2012" y="-265.3" font-family="Arial Bold" font-size="18.00" fill="#000000">electricity_daily_usages</text>
<text text-anchor="start" x="240.2308" y="-265.3" font-family="Arial" font-size="14.00" fill="#000000">    </text>
<text text-anchor="start" x="274.4356" y="-265.3" font-family="Arial" font-size="14.00" fill="#666666">[BASE TABLE]</text>
<polygon fill="none" stroke="#000000" points="43.5,-222.5 43.5,-252.5 374.5,-252.5 374.5,-222.5 43.5,-222.5"/>
<text text-anchor="start" x="50.5" y="-233.9" font-family="Arial" font-size="14.00" fill="#000000">usage_year    </text>
<text text-anchor="start" x="157.8436" y="-233.9" font-family="Arial" font-size="14.00" fill="#666666">[int(10) unsigned]</text>
<polygon fill="none" stroke="#000000" points="43.5,-192.5 43.5,-222.5 374.5,-222.5 374.5,-192.5 43.5,-192.5"/>
<text text-anchor="start" x="50.5" y="-203.9" font-family="Arial" font-size="14.00" fill="#000000">usage_month    </text>
<text text-anchor="start" x="169.5168" y="-203.9" font-family="Arial" font-size="14.00" fill="#666666">[int(10) unsigned]</text>
<polygon fill="none" stroke="#000000" points="43.5,-162.5 43.5,-192.5 374.5,-192.5 374.5,-162.5 43.5,-162.5"/>
<text text-anchor="start" x="50.5" y="-173.9" font-family="Arial" font-size="14.00" fill="#000000">usage_date    </text>
<text text-anchor="start" x="157.8562" y="-173.9" font-family="Arial" font-size="14.00" fill="#666666">[int(10) unsigned]</text>
<polygon fill="none" stroke="#000000" points="43.5,-132.5 43.5,-162.5 374.5,-162.5 374.5,-132.5 43.5,-132.5"/>
<text text-anchor="start" x="50.5" y="-143.9" font-family="Arial" font-size="14.00" fill="#000000">usage_amount    </text>
<text text-anchor="start" x="177.2994" y="-143.9" font-family="Arial" font-size="14.00" fill="#666666">[decimal(15,5) unsigned]</text>
<polygon fill="none" stroke="#000000" points="43.5,-102.5 43.5,-132.5 374.5,-132.5 374.5,-102.5 43.5,-102.5"/>
<text text-anchor="start" x="50.5" y="-113.9" font-family="Arial" font-size="14.00" fill="#000000">created_at    </text>
<text text-anchor="start" x="150.8422" y="-113.9" font-family="Arial" font-size="14.00" fill="#666666">[datetime]</text>
<polygon fill="none" stroke="#000000" points="43.5,-72.5 43.5,-102.5 374.5,-102.5 374.5,-72.5 43.5,-72.5"/>
<text text-anchor="start" x="50.5" y="-83.9" font-family="Arial" font-size="14.00" fill="#000000">updated_at    </text>
<text text-anchor="start" x="154.7468" y="-83.9" font-family="Arial" font-size="14.00" fill="#666666">[datetime]</text>
</g>
<!-- electricity_monthly_usages -->
<g id="node2" class="node">
<title>electricity_monthly_usages</title>
<polygon fill="#efefef" stroke="transparent" points="478.5,-267.5 478.5,-302.5 835.5,-302.5 835.5,-267.5 478.5,-267.5"/>
<polygon fill="none" stroke="#000000" points="478.5,-267.5 478.5,-302.5 835.5,-302.5 835.5,-267.5 478.5,-267.5"/>
<text text-anchor="start" x="485.198" y="-280.3" font-family="Arial Bold" font-size="18.00" fill="#000000">electricity_monthly_usages</text>
<text text-anchor="start" x="701.234" y="-280.3" font-family="Arial" font-size="14.00" fill="#000000">    </text>
<text text-anchor="start" x="735.4388" y="-280.3" font-family="Arial" font-size="14.00" fill="#666666">[BASE TABLE]</text>
<polygon fill="none" stroke="#000000" points="478.5,-237.5 478.5,-267.5 835.5,-267.5 835.5,-237.5 478.5,-237.5"/>
<text text-anchor="start" x="485.5" y="-248.9" font-family="Arial" font-size="14.00" fill="#000000">usage_year    </text>
<text text-anchor="start" x="592.8436" y="-248.9" font-family="Arial" font-size="14.00" fill="#666666">[int(10) unsigned]</text>
<polygon fill="none" stroke="#000000" points="478.5,-207.5 478.5,-237.5 835.5,-237.5 835.5,-207.5 478.5,-207.5"/>
<text text-anchor="start" x="485.5" y="-218.9" font-family="Arial" font-size="14.00" fill="#000000">usage_month    </text>
<text text-anchor="start" x="604.5168" y="-218.9" font-family="Arial" font-size="14.00" fill="#666666">[int(10) unsigned]</text>
<polygon fill="none" stroke="#000000" points="478.5,-177.5 478.5,-207.5 835.5,-207.5 835.5,-177.5 478.5,-177.5"/>
<text text-anchor="start" x="485.5" y="-188.9" font-family="Arial" font-size="14.00" fill="#000000">usage_day_count    </text>
<text text-anchor="start" x="630.204" y="-188.9" font-family="Arial" font-size="14.00" fill="#666666">[int(10) unsigned]</text>
<polygon fill="none" stroke="#000000" points="478.5,-147.5 478.5,-177.5 835.5,-177.5 835.5,-147.5 478.5,-147.5"/>
<text text-anchor="start" x="485.5" y="-158.9" font-family="Arial" font-size="14.00" fill="#000000">usage_kwh    </text>
<text text-anchor="start" x="590.507" y="-158.9" font-family="Arial" font-size="14.00" fill="#666666">[int(10) unsigned]</text>
<polygon fill="none" stroke="#000000" points="478.5,-117.5 478.5,-147.5 835.5,-147.5 835.5,-117.5 478.5,-117.5"/>
<text text-anchor="start" x="485.5" y="-128.9" font-family="Arial" font-size="14.00" fill="#000000">usage_yen    </text>
<text text-anchor="start" x="588.183" y="-128.9" font-family="Arial" font-size="14.00" fill="#666666">[int(10) unsigned]</text>
<polygon fill="none" stroke="#000000" points="478.5,-87.5 478.5,-117.5 835.5,-117.5 835.5,-87.5 478.5,-87.5"/>
<text text-anchor="start" x="485.5" y="-98.9" font-family="Arial" font-size="14.00" fill="#000000">created_at    </text>
<text text-anchor="start" x="585.8422" y="-98.9" font-family="Arial" font-size="14.00" fill="#666666">[datetime]</text>
<polygon fill="none" stroke="#000000" points="478.5,-57.5 478.5,-87.5 835.5,-87.5 835.5,-57.5 478.5,-57.5"/>
<text text-anchor="start" x="485.5" y="-68.9" font-family="Arial" font-size="14.00" fill="#000000">updated_at    </text>
<text text-anchor="start" x="589.7468" y="-68.9" font-family="Arial" font-size="14.00" fill="#666666">[datetime]</text>
</g>
<!-- gas_monthly_usages -->
<g id="node3" class="node">
<title>gas_monthly_usages</title>
<polygon fill="#efefef" stroke="transparent" points="939.5,-282.5 939.5,-317.5 1250.5,-317.5 1250.5,-282.5 939.5,-282.5"/>
<polygon fill="none" stroke="#000000" points="939.5,-282.5 939.5,-317.5 1250.5,-317.5 1250.5,-282.5 939.5,-282.5"/>
<text text-anchor="start" x="946.1876" y="-295.3" font-family="Arial Bold" font-size="18.00" fill="#000000">gas_monthly_usages</text>
<text text-anchor="start" x="1116.2444" y="-295.3" font-family="Arial" font-size="14.00" fill="#000000">    </text>
<text text-anchor="start" x="1150.4492" y="-295.3" font-family="Arial" font-size="14.00" fill="#666666">[BASE TABLE]</text>
<polygon fill="none" stroke="#000000" points="939.5,-252.5 939.5,-282.5 1250.5,-282.5 1250.5,-252.5 939.5,-252.5"/>
<text text-anchor="start" x="946.5" y="-263.9" font-family="Arial" font-size="14.00" fill="#000000">usage_year    </text>
<text text-anchor="start" x="1053.8436" y="-263.9" font-family="Arial" font-size="14.00" fill="#666666">[int(10) unsigned]</text>
<polygon fill="none" stroke="#000000" points="939.5,-222.5 939.5,-252.5 1250.5,-252.5 1250.5,-222.5 939.5,-222.5"/>
<text text-anchor="start" x="946.5" y="-233.9" font-family="Arial" font-size="14.00" fill="#000000">usage_month    </text>
<text text-anchor="start" x="1065.5168" y="-233.9" font-family="Arial" font-size="14.00" fill="#666666">[int(10) unsigned]</text>
<polygon fill="none" stroke="#000000" points="939.5,-192.5 939.5,-222.5 1250.5,-222.5 1250.5,-192.5 939.5,-192.5"/>
<text text-anchor="start" x="946.5" y="-203.9" font-family="Arial" font-size="14.00" fill="#000000">usage_begin_at    </text>
<text text-anchor="start" x="1080.3106" y="-203.9" font-family="Arial" font-size="14.00" fill="#666666">[date]</text>
<polygon fill="none" stroke="#000000" points="939.5,-162.5 939.5,-192.5 1250.5,-192.5 1250.5,-162.5 939.5,-162.5"/>
<text text-anchor="start" x="946.5" y="-173.9" font-family="Arial" font-size="14.00" fill="#000000">usage_end_at    </text>
<text text-anchor="start" x="1069.4214" y="-173.9" font-family="Arial" font-size="14.00" fill="#666666">[date]</text>
<polygon fill="none" stroke="#000000" points="939.5,-132.5 939.5,-162.5 1250.5,-162.5 1250.5,-132.5 939.5,-132.5"/>
<text text-anchor="start" x="946.5" y="-143.9" font-family="Arial" font-size="14.00" fill="#000000">usage_amount    </text>
<text text-anchor="start" x="1073.2994" y="-143.9" font-family="Arial" font-size="14.00" fill="#666666">[decimal(15,5) unsigned]</text>
<polygon fill="none" stroke="#000000" points="939.5,-102.5 939.5,-132.5 1250.5,-132.5 1250.5,-102.5 939.5,-102.5"/>
<text text-anchor="start" x="946.5" y="-113.9" font-family="Arial" font-size="14.00" fill="#000000">usage_yen    </text>
<text text-anchor="start" x="1049.183" y="-113.9" font-family="Arial" font-size="14.00" fill="#666666">[int(10) unsigned]</text>
<polygon fill="none" stroke="#000000" points="939.5,-72.5 939.5,-102.5 1250.5,-102.5 1250.5,-72.5 939.5,-72.5"/>
<text text-anchor="start" x="946.5" y="-83.9" font-family="Arial" font-size="14.00" fill="#000000">created_at    </text>
<text text-anchor="start" x="1046.8422" y="-83.9" font-family="Arial" font-size="14.00" fill="#666666">[datetime]</text>
<polygon fill="none" stroke="#000000" points="939.5,-42.5 939.5,-72.5 1250.5,-72.5 1250.5,-42.5 939.5,-42.5"/>
<text text-anchor="start" x="946.5" y="-53.9" font-family="Arial" font-size="14.00" fill="#000000">updated_at    </text>
<text text-anchor="start" x="1050.7468" y="-53.9" font-family="Arial" font-size="14.00" fill="#666666">[datetime]</text>
</g>
<!-- water_monthly_usages -->
<g id="node4" class="node">
<title>water_monthly_usages</title>
<polygon fill="#efefef" stroke="transparent" points="1354.5,-282.5 1354.5,-317.5 1680.5,-317.5 1680.5,-282.5 1354.5,-282.5"/>
<polygon fill="none" stroke="#000000" points="1354.5,-282.5 1354.5,-317.5 1680.5,-317.5 1680.5,-282.5 1354.5,-282.5"/>
<text text-anchor="start" x="1361.1933" y="-295.3" font-family="Arial Bold" font-size="18.00" fill="#000000">water_monthly_usages</text>
<text text-anchor="start" x="1546.2387" y="-295.3" font-family="Arial" font-size="14.00" fill="#000000">    </text>
<text text-anchor="start" x="1580.4435" y="-295.3" font-family="Arial" font-size="14.00" fill="#666666">[BASE TABLE]</text>
<polygon fill="none" stroke="#000000" points="1354.5,-252.5 1354.5,-282.5 1680.5,-282.5 1680.5,-252.5 1354.5,-252.5"/>
<text text-anchor="start" x="1361.5" y="-263.9" font-family="Arial" font-size="14.00" fill="#000000">usage_year    </text>
<text text-anchor="start" x="1468.8436" y="-263.9" font-family="Arial" font-size="14.00" fill="#666666">[int(10) unsigned]</text>
<polygon fill="none" stroke="#000000" points="1354.5,-222.5 1354.5,-252.5 1680.5,-252.5 1680.5,-222.5 1354.5,-222.5"/>
<text text-anchor="start" x="1361.5" y="-233.9" font-family="Arial" font-size="14.00" fill="#000000">usage_month    </text>
<text text-anchor="start" x="1480.5168" y="-233.9" font-family="Arial" font-size="14.00" fill="#666666">[int(10) unsigned]</text>
<polygon fill="none" stroke="#000000" points="1354.5,-192.5 1354.5,-222.5 1680.5,-222.5 1680.5,-192.5 1354.5,-192.5"/>
<text text-anchor="start" x="1361.5" y="-203.9" font-family="Arial" font-size="14.00" fill="#000000">usage_begin_at    </text>
<text text-anchor="start" x="1495.3106" y="-203.9" font-family="Arial" font-size="14.00" fill="#666666">[date]</text>
<polygon fill="none" stroke="#000000" points="1354.5,-162.5 1354.5,-192.5 1680.5,-192.5 1680.5,-162.5 1354.5,-162.5"/>
<text text-anchor="start" x="1361.5" y="-173.9" font-family="Arial" font-size="14.00" fill="#000000">usage_end_at    </text>
<text text-anchor="start" x="1484.4214" y="-173.9" font-family="Arial" font-size="14.00" fill="#666666">[date]</text>
<polygon fill="none" stroke="#000000" points="1354.5,-132.5 1354.5,-162.5 1680.5,-162.5 1680.5,-132.5 1354.5,-132.5"/>
<text text-anchor="start" x="1361.5" y="-143.9" font-family="Arial" font-size="14.00" fill="#000000">usage_amount    </text>
<text text-anchor="start" x="1488.2994" y="-143.9" font-family="Arial" font-size="14.00" fill="#666666">[decimal(15,5) unsigned]</text>
<polygon fill="none" stroke="#000000" points="1354.5,-102.5 1354.5,-132.5 1680.5,-132.5 1680.5,-102.5 1354.5,-102.5"/>
<text text-anchor="start" x="1361.5" y="-113.9" font-family="Arial" font-size="14.00" fill="#000000">usage_yen    </text>
<text text-anchor="start" x="1464.183" y="-113.9" font-family="Arial" font-size="14.00" fill="#666666">[int(10) unsigned]</text>
<polygon fill="none" stroke="#000000" points="1354.5,-72.5 1354.5,-102.5 1680.5,-102.5 1680.5,-72.5 1354.5,-72.5"/>
<text text-anchor="start" x="1361.5" y="-83.9" font-family="Arial" font-size="14.00" fill="#000000">created_at    </text>
<text text-anchor="start" x="1461.8422" y="-83.9" font-family="Arial" font-size="14.00" fill="#666666">[datetime]</text>
<polygon fill="none" stroke="#000000" points="1354.5,-42.5 1354.5,-72.5 1680.5,-72.5 1680.5,-42.5 1354.5,-42.5"/>
<text text-anchor="start" x="1361.5" y="-53.9" font-family="Arial" font-size="14.00" fill="#000000">updated_at    </text>
<text text-anchor="start" x="1465.7468" y="-53.9" font-family="Arial" font-size="14.00" fill="#666666">[datetime]</text>
</g>
</g>
</svg>
