<?xml version="1.0" encoding="UTF-8" standalone="no"?>
<!DOCTYPE svg PUBLIC "-//W3C//DTD SVG 1.1//EN"
 "http://www.w3.org/Graphics/SVG/1.1/DTD/svg11.dtd">
<!-- Generated by graphviz version 12.1.2 (20240928.0832)
 -->
<!-- Title: advisor_types Pages: 1 -->
<svg width="608pt" height="602pt"
 viewBox="0.00 0.00 608.15 602.00" xmlns="http://www.w3.org/2000/svg" xmlns:xlink="http://www.w3.org/1999/xlink">
<g id="graph0" class="graph" transform="scale(1 1) rotate(0) translate(4 598)">
<title>advisor_types</title>
<polygon fill="white" stroke="none" points="-4,4 -4,-598 604.15,-598 604.15,4 -4,4"/>
<!-- advisor_types -->
<g id="node1" class="node">
<title>advisor_types</title>
<polygon fill="#efefef" stroke="none" points="46.2,-169.4 46.2,-205 284.67,-205 284.67,-169.4 46.2,-169.4"/>
<polygon fill="none" stroke="black" points="46.2,-169.4 46.2,-205 284.67,-205 284.67,-169.4 46.2,-169.4"/>
<text text-anchor="start" x="53.2" y="-182.8" font-family="Arial Bold" font-size="18.00">advisor_types</text>
<text text-anchor="start" x="153.18" y="-182.8" font-family="Arial" font-size="14.00">    </text>
<text text-anchor="start" x="184.3" y="-182.8" font-family="Arial" font-size="14.00" fill="#666666">[BASE TABLE]</text>
<polygon fill="none" stroke="black" points="46.2,-138.6 46.2,-169.4 284.67,-169.4 284.67,-138.6 46.2,-138.6"/>
<text text-anchor="start" x="53.2" y="-150.8" font-family="Arial" font-size="14.00">id </text>
<text text-anchor="start" x="67.99" y="-150.8" font-family="Arial" font-size="14.00" fill="#666666">[tinyint(3) unsigned]</text>
<polygon fill="none" stroke="black" points="46.2,-107.8 46.2,-138.6 284.67,-138.6 284.67,-107.8 46.2,-107.8"/>
<text text-anchor="start" x="53.2" y="-120" font-family="Arial" font-size="14.00">type_name </text>
<text text-anchor="start" x="126.36" y="-120" font-family="Arial" font-size="14.00" fill="#666666">[varchar(255)]</text>
<polygon fill="none" stroke="black" points="46.2,-77 46.2,-107.8 284.67,-107.8 284.67,-77 46.2,-77"/>
<text text-anchor="start" x="53.2" y="-89.2" font-family="Arial" font-size="14.00">created_at </text>
<text text-anchor="start" x="123.25" y="-89.2" font-family="Arial" font-size="14.00" fill="#666666">[datetime]</text>
<polygon fill="none" stroke="black" points="46.2,-46.2 46.2,-77 284.67,-77 284.67,-46.2 46.2,-46.2"/>
<text text-anchor="start" x="53.2" y="-58.4" font-family="Arial" font-size="14.00">updated_at </text>
<text text-anchor="start" x="127.16" y="-58.4" font-family="Arial" font-size="14.00" fill="#666666">[datetime]</text>
<polygon fill="none" stroke="black" stroke-width="3" points="44.7,-44.7 44.7,-206.5 286.17,-206.5 286.17,-44.7 44.7,-44.7"/>
</g>
<!-- advisors -->
<g id="node2" class="node">
<title>advisors</title>
<polygon fill="#efefef" stroke="none" points="46.37,-515.2 46.37,-550.8 284.5,-550.8 284.5,-515.2 46.37,-515.2"/>
<polygon fill="none" stroke="black" points="46.37,-515.2 46.37,-550.8 284.5,-550.8 284.5,-515.2 46.37,-515.2"/>
<text text-anchor="start" x="73.2" y="-528.6" font-family="Arial Bold" font-size="18.00">advisors</text>
<text text-anchor="start" x="133.19" y="-528.6" font-family="Arial" font-size="14.00">    </text>
<text text-anchor="start" x="164.31" y="-528.6" font-family="Arial" font-size="14.00" fill="#666666">[BASE TABLE]</text>
<polygon fill="none" stroke="black" points="46.37,-484.4 46.37,-515.2 284.5,-515.2 284.5,-484.4 46.37,-484.4"/>
<text text-anchor="start" x="53.37" y="-496.6" font-family="Arial" font-size="14.00">id </text>
<text text-anchor="start" x="68.16" y="-496.6" font-family="Arial" font-size="14.00" fill="#666666">[bigint(20) unsigned]</text>
<polygon fill="none" stroke="black" points="46.37,-453.6 46.37,-484.4 284.5,-484.4 284.5,-453.6 46.37,-453.6"/>
<text text-anchor="start" x="53.37" y="-465.8" font-family="Arial" font-size="14.00">advisor_type_id </text>
<text text-anchor="start" x="155.32" y="-465.8" font-family="Arial" font-size="14.00" fill="#666666">[tinyint(3) unsigned]</text>
<polygon fill="none" stroke="black" points="46.37,-422.8 46.37,-453.6 284.5,-453.6 284.5,-422.8 46.37,-422.8"/>
<text text-anchor="start" x="53.37" y="-435" font-family="Arial" font-size="14.00">encrypted_apikey </text>
<text text-anchor="start" x="167" y="-435" font-family="Arial" font-size="14.00" fill="#666666">[varchar(512)]</text>
<polygon fill="none" stroke="black" points="46.37,-392 46.37,-422.8 284.5,-422.8 284.5,-392 46.37,-392"/>
<text text-anchor="start" x="53.37" y="-404.2" font-family="Arial" font-size="14.00">memo </text>
<text text-anchor="start" x="96.16" y="-404.2" font-family="Arial" font-size="14.00" fill="#666666">[text]</text>
<polygon fill="none" stroke="black" points="46.37,-361.2 46.37,-392 284.5,-392 284.5,-361.2 46.37,-361.2"/>
<text text-anchor="start" x="53.37" y="-373.4" font-family="Arial" font-size="14.00">created_at </text>
<text text-anchor="start" x="123.42" y="-373.4" font-family="Arial" font-size="14.00" fill="#666666">[datetime]</text>
<polygon fill="none" stroke="black" points="46.37,-330.4 46.37,-361.2 284.5,-361.2 284.5,-330.4 46.37,-330.4"/>
<text text-anchor="start" x="53.37" y="-342.6" font-family="Arial" font-size="14.00">updated_at </text>
<text text-anchor="start" x="127.33" y="-342.6" font-family="Arial" font-size="14.00" fill="#666666">[datetime]</text>
</g>
<!-- advisors&#45;&gt;advisor_types -->
<g id="edge1" class="edge">
<title>advisors:advisor_type_id&#45;&gt;advisor_types:id</title>
<path fill="none" stroke="black" d="M295.63,-466.65C355.34,-437.82 352.12,-154 285.67,-154"/>
<polygon fill="black" stroke="black" points="295.57,-466.66 284.81,-464.54 290.37,-467.87 286.15,-468.85 286.15,-468.85 286.15,-468.85 290.37,-467.87 286.85,-473.31 295.57,-466.66"/>
<text text-anchor="start" x="292.5" y="-479" font-family="Arial" font-size="10.00">FOREIGN KEY (advisor_type_id) REFERENCES advisor_types (id)</text>
</g>
</g>
</svg>
