<?xml version="1.0" encoding="UTF-8" standalone="no"?>
<!DOCTYPE svg PUBLIC "-//W3C//DTD SVG 1.1//EN"
 "http://www.w3.org/Graphics/SVG/1.1/DTD/svg11.dtd">
<!-- Generated by graphviz version 2.40.1 (20161225.0304)
 -->
<!-- Title: advisor_types Pages: 1 -->
<svg width="633pt" height="592pt"
 viewBox="0.00 0.00 633.00 592.00" xmlns="http://www.w3.org/2000/svg" xmlns:xlink="http://www.w3.org/1999/xlink">
<g id="graph0" class="graph" transform="scale(1 1) rotate(0) translate(4 588)">
<title>advisor_types</title>
<polygon fill="#ffffff" stroke="transparent" points="-4,4 -4,-588 629,-588 629,4 -4,4"/>
<!-- advisor_types -->
<g id="node1" class="node">
<title>advisor_types</title>
<polygon fill="#efefef" stroke="transparent" points="51,-165.5 51,-200.5 303,-200.5 303,-165.5 51,-165.5"/>
<polygon fill="none" stroke="#000000" points="51,-165.5 51,-200.5 303,-200.5 303,-165.5 51,-165.5"/>
<text text-anchor="start" x="57.7031" y="-178.3" font-family="Arial Bold" font-size="18.00" fill="#000000">advisor_types</text>
<text text-anchor="start" x="168.7289" y="-178.3" font-family="Arial" font-size="14.00" fill="#000000">    </text>
<text text-anchor="start" x="202.9337" y="-178.3" font-family="Arial" font-size="14.00" fill="#666666">[BASE TABLE]</text>
<polygon fill="none" stroke="#000000" points="51,-135.5 51,-165.5 303,-165.5 303,-135.5 51,-135.5"/>
<text text-anchor="start" x="58" y="-146.9" font-family="Arial" font-size="14.00" fill="#000000">id </text>
<text text-anchor="start" x="72.7798" y="-146.9" font-family="Arial" font-size="14.00" fill="#666666">[tinyint(3) unsigned]</text>
<polygon fill="none" stroke="#000000" points="51,-105.5 51,-135.5 303,-135.5 303,-105.5 51,-105.5"/>
<text text-anchor="start" x="58" y="-116.9" font-family="Arial" font-size="14.00" fill="#000000">type_name </text>
<text text-anchor="start" x="131.1374" y="-116.9" font-family="Arial" font-size="14.00" fill="#666666">[varchar(255)]</text>
<polygon fill="none" stroke="#000000" points="51,-75.5 51,-105.5 303,-105.5 303,-75.5 51,-75.5"/>
<text text-anchor="start" x="58" y="-86.9" font-family="Arial" font-size="14.00" fill="#000000">created_at </text>
<text text-anchor="start" x="128.028" y="-86.9" font-family="Arial" font-size="14.00" fill="#666666">[datetime]</text>
<polygon fill="none" stroke="#000000" points="51,-45.5 51,-75.5 303,-75.5 303,-45.5 51,-45.5"/>
<text text-anchor="start" x="58" y="-56.9" font-family="Arial" font-size="14.00" fill="#000000">updated_at </text>
<text text-anchor="start" x="131.9326" y="-56.9" font-family="Arial" font-size="14.00" fill="#666666">[datetime]</text>
<polygon fill="none" stroke="#000000" stroke-width="3" points="49.5,-44.5 49.5,-202.5 304.5,-202.5 304.5,-44.5 49.5,-44.5"/>
</g>
<!-- advisors -->
<g id="node2" class="node">
<title>advisors</title>
<polygon fill="#efefef" stroke="transparent" points="43,-505.5 43,-540.5 311,-540.5 311,-505.5 43,-505.5"/>
<polygon fill="none" stroke="#000000" points="43,-505.5 43,-540.5 311,-540.5 311,-505.5 43,-505.5"/>
<text text-anchor="start" x="79.7135" y="-518.3" font-family="Arial Bold" font-size="18.00" fill="#000000">advisors</text>
<text text-anchor="start" x="146.7185" y="-518.3" font-family="Arial" font-size="14.00" fill="#000000">    </text>
<text text-anchor="start" x="180.9233" y="-518.3" font-family="Arial" font-size="14.00" fill="#666666">[BASE TABLE]</text>
<polygon fill="none" stroke="#000000" points="43,-475.5 43,-505.5 311,-505.5 311,-475.5 43,-475.5"/>
<text text-anchor="start" x="50" y="-486.9" font-family="Arial" font-size="14.00" fill="#000000">id    </text>
<text text-anchor="start" x="95.094" y="-486.9" font-family="Arial" font-size="14.00" fill="#666666">[bigint(20) unsigned]</text>
<polygon fill="none" stroke="#000000" points="43,-445.5 43,-475.5 311,-475.5 311,-445.5 43,-445.5"/>
<text text-anchor="start" x="49.8163" y="-456.9" font-family="Arial" font-size="14.00" fill="#000000">advisor_type_id    </text>
<text text-anchor="start" x="182.0463" y="-456.9" font-family="Arial" font-size="14.00" fill="#666666">[tinyint(3) unsigned]</text>
<polygon fill="none" stroke="#000000" points="43,-415.5 43,-445.5 311,-445.5 311,-415.5 43,-415.5"/>
<text text-anchor="start" x="50" y="-426.9" font-family="Arial" font-size="14.00" fill="#000000">encrypted_apikey    </text>
<text text-anchor="start" x="193.906" y="-426.9" font-family="Arial" font-size="14.00" fill="#666666">[varchar(512)]</text>
<polygon fill="none" stroke="#000000" points="43,-385.5 43,-415.5 311,-415.5 311,-385.5 43,-385.5"/>
<text text-anchor="start" x="50" y="-396.9" font-family="Arial" font-size="14.00" fill="#000000">memo    </text>
<text text-anchor="start" x="123.0912" y="-396.9" font-family="Arial" font-size="14.00" fill="#666666">[text]</text>
<polygon fill="none" stroke="#000000" points="43,-355.5 43,-385.5 311,-385.5 311,-355.5 43,-355.5"/>
<text text-anchor="start" x="50" y="-366.9" font-family="Arial" font-size="14.00" fill="#000000">created_at    </text>
<text text-anchor="start" x="150.3422" y="-366.9" font-family="Arial" font-size="14.00" fill="#666666">[datetime]</text>
<polygon fill="none" stroke="#000000" points="43,-325.5 43,-355.5 311,-355.5 311,-325.5 43,-325.5"/>
<text text-anchor="start" x="50" y="-336.9" font-family="Arial" font-size="14.00" fill="#000000">updated_at    </text>
<text text-anchor="start" x="154.2468" y="-336.9" font-family="Arial" font-size="14.00" fill="#666666">[datetime]</text>
</g>
<!-- advisors&#45;&gt;advisor_types -->
<g id="edge1" class="edge">
<title>advisors:advisor_type_id&#45;&gt;advisor_types:id</title>
<path fill="none" stroke="#000000" d="M320.9054,-458.183C378.9422,-429.815 368.4124,-150.5 303,-150.5"/>
<polygon fill="#000000" stroke="#000000" points="320.7372,-458.2222 309.975,-456.1183 315.8686,-459.3611 311,-460.5 311,-460.5 311,-460.5 315.8686,-459.3611 312.025,-464.8817 320.7372,-458.2222 320.7372,-458.2222"/>
<text text-anchor="start" x="317.711" y="-470.5" font-family="Arial" font-size="10.00" fill="#000000">FOREIGN KEY (advisor_type_id) REFERENCES advisor_types (id)</text>
</g>
</g>
</svg>
