<?xml version="1.0" encoding="UTF-8" standalone="no"?>
<!DOCTYPE svg PUBLIC "-//W3C//DTD SVG 1.1//EN"
 "http://www.w3.org/Graphics/SVG/1.1/DTD/svg11.dtd">
<!-- Generated by graphviz version 12.1.2 (20240928.0832)
 -->
<!-- Title: advisors Pages: 1 -->
<svg width="649pt" height="1037pt"
 viewBox="0.00 0.00 649.14 1037.20" xmlns="http://www.w3.org/2000/svg" xmlns:xlink="http://www.w3.org/1999/xlink">
<g id="graph0" class="graph" transform="scale(1 1) rotate(0) translate(4 1033.2)">
<title>advisors</title>
<polygon fill="white" stroke="none" points="-4,4 -4,-1033.2 645.14,-1033.2 645.14,4 -4,4"/>
<!-- advisors -->
<g id="node1" class="node">
<title>advisors</title>
<polygon fill="#efefef" stroke="none" points="87.36,-512.2 87.36,-547.8 325.49,-547.8 325.49,-512.2 87.36,-512.2"/>
<polygon fill="none" stroke="black" points="87.36,-512.2 87.36,-547.8 325.49,-547.8 325.49,-512.2 87.36,-512.2"/>
<text text-anchor="start" x="114.18" y="-525.6" font-family="Arial Bold" font-size="18.00">advisors</text>
<text text-anchor="start" x="174.17" y="-525.6" font-family="Arial" font-size="14.00">    </text>
<text text-anchor="start" x="205.29" y="-525.6" font-family="Arial" font-size="14.00" fill="#666666">[BASE TABLE]</text>
<polygon fill="none" stroke="black" points="87.36,-481.4 87.36,-512.2 325.49,-512.2 325.49,-481.4 87.36,-481.4"/>
<text text-anchor="start" x="94.36" y="-493.6" font-family="Arial" font-size="14.00">id </text>
<text text-anchor="start" x="109.14" y="-493.6" font-family="Arial" font-size="14.00" fill="#666666">[bigint(20) unsigned]</text>
<polygon fill="none" stroke="black" points="87.36,-450.6 87.36,-481.4 325.49,-481.4 325.49,-450.6 87.36,-450.6"/>
<text text-anchor="start" x="94.36" y="-462.8" font-family="Arial" font-size="14.00">advisor_type_id </text>
<text text-anchor="start" x="196.31" y="-462.8" font-family="Arial" font-size="14.00" fill="#666666">[tinyint(3) unsigned]</text>
<polygon fill="none" stroke="black" points="87.36,-419.8 87.36,-450.6 325.49,-450.6 325.49,-419.8 87.36,-419.8"/>
<text text-anchor="start" x="94.36" y="-432" font-family="Arial" font-size="14.00">encrypted_apikey </text>
<text text-anchor="start" x="207.98" y="-432" font-family="Arial" font-size="14.00" fill="#666666">[varchar(512)]</text>
<polygon fill="none" stroke="black" points="87.36,-389 87.36,-419.8 325.49,-419.8 325.49,-389 87.36,-389"/>
<text text-anchor="start" x="94.36" y="-401.2" font-family="Arial" font-size="14.00">memo </text>
<text text-anchor="start" x="137.14" y="-401.2" font-family="Arial" font-size="14.00" fill="#666666">[text]</text>
<polygon fill="none" stroke="black" points="87.36,-358.2 87.36,-389 325.49,-389 325.49,-358.2 87.36,-358.2"/>
<text text-anchor="start" x="94.36" y="-370.4" font-family="Arial" font-size="14.00">created_at </text>
<text text-anchor="start" x="164.4" y="-370.4" font-family="Arial" font-size="14.00" fill="#666666">[datetime]</text>
<polygon fill="none" stroke="black" points="87.36,-327.4 87.36,-358.2 325.49,-358.2 325.49,-327.4 87.36,-327.4"/>
<text text-anchor="start" x="94.36" y="-339.6" font-family="Arial" font-size="14.00">updated_at </text>
<text text-anchor="start" x="168.31" y="-339.6" font-family="Arial" font-size="14.00" fill="#666666">[datetime]</text>
<polygon fill="none" stroke="black" stroke-width="3" points="85.86,-325.9 85.86,-549.3 326.99,-549.3 326.99,-325.9 85.86,-325.9"/>
</g>
<!-- advisor_types -->
<g id="node3" class="node">
<title>advisor_types</title>
<polygon fill="#efefef" stroke="none" points="87.18,-166.4 87.18,-202 325.66,-202 325.66,-166.4 87.18,-166.4"/>
<polygon fill="none" stroke="black" points="87.18,-166.4 87.18,-202 325.66,-202 325.66,-166.4 87.18,-166.4"/>
<text text-anchor="start" x="94.18" y="-179.8" font-family="Arial Bold" font-size="18.00">advisor_types</text>
<text text-anchor="start" x="194.17" y="-179.8" font-family="Arial" font-size="14.00">    </text>
<text text-anchor="start" x="225.29" y="-179.8" font-family="Arial" font-size="14.00" fill="#666666">[BASE TABLE]</text>
<polygon fill="none" stroke="black" points="87.18,-135.6 87.18,-166.4 325.66,-166.4 325.66,-135.6 87.18,-135.6"/>
<text text-anchor="start" x="94.18" y="-147.8" font-family="Arial" font-size="14.00">id </text>
<text text-anchor="start" x="108.97" y="-147.8" font-family="Arial" font-size="14.00" fill="#666666">[tinyint(3) unsigned]</text>
<polygon fill="none" stroke="black" points="87.18,-104.8 87.18,-135.6 325.66,-135.6 325.66,-104.8 87.18,-104.8"/>
<text text-anchor="start" x="94.18" y="-117" font-family="Arial" font-size="14.00">type_name </text>
<text text-anchor="start" x="167.34" y="-117" font-family="Arial" font-size="14.00" fill="#666666">[varchar(255)]</text>
<polygon fill="none" stroke="black" points="87.18,-74 87.18,-104.8 325.66,-104.8 325.66,-74 87.18,-74"/>
<text text-anchor="start" x="94.18" y="-86.2" font-family="Arial" font-size="14.00">created_at </text>
<text text-anchor="start" x="164.23" y="-86.2" font-family="Arial" font-size="14.00" fill="#666666">[datetime]</text>
<polygon fill="none" stroke="black" points="87.18,-43.2 87.18,-74 325.66,-74 325.66,-43.2 87.18,-43.2"/>
<text text-anchor="start" x="94.18" y="-55.4" font-family="Arial" font-size="14.00">updated_at </text>
<text text-anchor="start" x="168.14" y="-55.4" font-family="Arial" font-size="14.00" fill="#666666">[datetime]</text>
</g>
<!-- advisors&#45;&gt;advisor_types -->
<g id="edge2" class="edge">
<title>advisors:advisor_type_id&#45;&gt;advisor_types:id</title>
<path fill="none" stroke="black" d="M336.88,-465.4C466.41,-450.21 463.1,-151 326.66,-151"/>
<polygon fill="black" stroke="black" points="336.8,-465.41 326.56,-461.49 331.48,-465.71 327.15,-465.96 327.15,-465.96 327.15,-465.96 331.48,-465.71 327.08,-470.47 336.8,-465.41"/>
<text text-anchor="start" x="333.49" y="-476" font-family="Arial" font-size="10.00">FOREIGN KEY (advisor_type_id) REFERENCES advisor_types (id)</text>
</g>
<!-- electricity_notify_settings -->
<g id="node2" class="node">
<title>electricity_notify_settings</title>
<polygon fill="#efefef" stroke="none" points="43.2,-950.4 43.2,-986 369.64,-986 369.64,-950.4 43.2,-950.4"/>
<polygon fill="none" stroke="black" points="43.2,-950.4 43.2,-986 369.64,-986 369.64,-950.4 43.2,-950.4"/>
<text text-anchor="start" x="50.2" y="-963.8" font-family="Arial Bold" font-size="18.00">electricity_notify_settings</text>
<text text-anchor="start" x="238.15" y="-963.8" font-family="Arial" font-size="14.00">    </text>
<text text-anchor="start" x="269.27" y="-963.8" font-family="Arial" font-size="14.00" fill="#666666">[BASE TABLE]</text>
<polygon fill="none" stroke="black" points="43.2,-919.6 43.2,-950.4 369.64,-950.4 369.64,-919.6 43.2,-919.6"/>
<text text-anchor="start" x="50.2" y="-931.8" font-family="Arial" font-size="14.00">id </text>
<text text-anchor="start" x="64.99" y="-931.8" font-family="Arial" font-size="14.00" fill="#666666">[bigint(20) unsigned]</text>
<polygon fill="none" stroke="black" points="43.2,-888.8 43.2,-919.6 369.64,-919.6 369.64,-888.8 43.2,-888.8"/>
<text text-anchor="start" x="50.2" y="-901" font-family="Arial" font-size="14.00">electricity_fetch_setting_id </text>
<text text-anchor="start" x="218.29" y="-901" font-family="Arial" font-size="14.00" fill="#666666">[bigint(20) unsigned]</text>
<polygon fill="none" stroke="black" points="43.2,-858 43.2,-888.8 369.64,-888.8 369.64,-858 43.2,-858"/>
<text text-anchor="start" x="50.2" y="-870.2" font-family="Arial" font-size="14.00">line_channel_id </text>
<text text-anchor="start" x="151.39" y="-870.2" font-family="Arial" font-size="14.00" fill="#666666">[varchar(256)]</text>
<polygon fill="none" stroke="black" points="43.2,-827.2 43.2,-858 369.64,-858 369.64,-827.2 43.2,-827.2"/>
<text text-anchor="start" x="50.2" y="-839.4" font-family="Arial" font-size="14.00">advisor_id </text>
<text text-anchor="start" x="117.9" y="-839.4" font-family="Arial" font-size="14.00" fill="#666666">[bigint(20) unsigned]</text>
<polygon fill="none" stroke="black" points="43.2,-796.4 43.2,-827.2 369.64,-827.2 369.64,-796.4 43.2,-796.4"/>
<text text-anchor="start" x="50.2" y="-808.6" font-family="Arial" font-size="14.00">notify_date </text>
<text text-anchor="start" x="122.59" y="-808.6" font-family="Arial" font-size="14.00" fill="#666666">[tinyint(3) unsigned]</text>
<polygon fill="none" stroke="black" points="43.2,-765.6 43.2,-796.4 369.64,-796.4 369.64,-765.6 43.2,-765.6"/>
<text text-anchor="start" x="50.2" y="-777.8" font-family="Arial" font-size="14.00">notify_enable </text>
<text text-anchor="start" x="137.38" y="-777.8" font-family="Arial" font-size="14.00" fill="#666666">[tinyint(1)]</text>
<polygon fill="none" stroke="black" points="43.2,-734.8 43.2,-765.6 369.64,-765.6 369.64,-734.8 43.2,-734.8"/>
<text text-anchor="start" x="50.2" y="-747" font-family="Arial" font-size="14.00">template </text>
<text text-anchor="start" x="107.79" y="-747" font-family="Arial" font-size="14.00" fill="#666666">[text]</text>
<polygon fill="none" stroke="black" points="43.2,-704 43.2,-734.8 369.64,-734.8 369.64,-704 43.2,-704"/>
<text text-anchor="start" x="50.2" y="-716.2" font-family="Arial" font-size="14.00">created_at </text>
<text text-anchor="start" x="120.25" y="-716.2" font-family="Arial" font-size="14.00" fill="#666666">[datetime]</text>
<polygon fill="none" stroke="black" points="43.2,-673.2 43.2,-704 369.64,-704 369.64,-673.2 43.2,-673.2"/>
<text text-anchor="start" x="50.2" y="-685.4" font-family="Arial" font-size="14.00">updated_at </text>
<text text-anchor="start" x="124.16" y="-685.4" font-family="Arial" font-size="14.00" fill="#666666">[datetime]</text>
</g>
<!-- electricity_notify_settings&#45;&gt;advisors -->
<g id="edge1" class="edge">
<title>electricity_notify_settings:advisor_id&#45;&gt;advisors:id</title>
<path fill="none" stroke="black" d="M380.74,-840.39C443.9,-810.94 400.32,-496.8 326.49,-496.8"/>
<polygon fill="black" stroke="black" points="380.74,-840.39 370.01,-838.13 375.53,-841.53 371.3,-842.46 371.3,-842.46 371.3,-842.46 375.53,-841.53 371.93,-846.92 380.74,-840.39"/>
<text text-anchor="start" x="377.64" y="-852.6" font-family="Arial" font-size="10.00">FOREIGN KEY (advisor_id) REFERENCES advisors (id)</text>
</g>
</g>
</svg>
