<?xml version="1.0" encoding="UTF-8" standalone="no"?>
<!DOCTYPE svg PUBLIC "-//W3C//DTD SVG 1.1//EN"
 "http://www.w3.org/Graphics/SVG/1.1/DTD/svg11.dtd">
<!-- Generated by graphviz version 2.40.1 (20161225.0304)
 -->
<!-- Title: advisors Pages: 1 -->
<svg width="658pt" height="1019pt"
 viewBox="0.00 0.00 657.50 1019.00" xmlns="http://www.w3.org/2000/svg" xmlns:xlink="http://www.w3.org/1999/xlink">
<g id="graph0" class="graph" transform="scale(1 1) rotate(0) translate(4 1015)">
<title>advisors</title>
<polygon fill="#ffffff" stroke="transparent" points="-4,4 -4,-1015 653.5,-1015 653.5,4 -4,4"/>
<!-- advisors -->
<g id="node1" class="node">
<title>advisors</title>
<polygon fill="#efefef" stroke="transparent" points="95.5,-502.5 95.5,-537.5 333.5,-537.5 333.5,-502.5 95.5,-502.5"/>
<polygon fill="none" stroke="#000000" points="95.5,-502.5 95.5,-537.5 333.5,-537.5 333.5,-502.5 95.5,-502.5"/>
<text text-anchor="start" x="117.2135" y="-515.3" font-family="Arial Bold" font-size="18.00" fill="#000000">advisors</text>
<text text-anchor="start" x="184.2185" y="-515.3" font-family="Arial" font-size="14.00" fill="#000000">    </text>
<text text-anchor="start" x="218.4233" y="-515.3" font-family="Arial" font-size="14.00" fill="#666666">[BASE TABLE]</text>
<polygon fill="none" stroke="#000000" points="95.5,-472.5 95.5,-502.5 333.5,-502.5 333.5,-472.5 95.5,-472.5"/>
<text text-anchor="start" x="102.5" y="-483.9" font-family="Arial" font-size="14.00" fill="#000000">id </text>
<text text-anchor="start" x="117.2798" y="-483.9" font-family="Arial" font-size="14.00" fill="#666666">[bigint(20) unsigned]</text>
<polygon fill="none" stroke="#000000" points="95.5,-442.5 95.5,-472.5 333.5,-472.5 333.5,-442.5 95.5,-442.5"/>
<text text-anchor="start" x="102.4734" y="-453.9" font-family="Arial" font-size="14.00" fill="#000000">advisor_type_id </text>
<text text-anchor="start" x="204.3892" y="-453.9" font-family="Arial" font-size="14.00" fill="#666666">[tinyint(3) unsigned]</text>
<polygon fill="none" stroke="#000000" points="95.5,-412.5 95.5,-442.5 333.5,-442.5 333.5,-412.5 95.5,-412.5"/>
<text text-anchor="start" x="102.5" y="-423.9" font-family="Arial" font-size="14.00" fill="#000000">encrypted_apikey </text>
<text text-anchor="start" x="216.0918" y="-423.9" font-family="Arial" font-size="14.00" fill="#666666">[varchar(512)]</text>
<polygon fill="none" stroke="#000000" points="95.5,-382.5 95.5,-412.5 333.5,-412.5 333.5,-382.5 95.5,-382.5"/>
<text text-anchor="start" x="102.5" y="-393.9" font-family="Arial" font-size="14.00" fill="#000000">memo </text>
<text text-anchor="start" x="145.277" y="-393.9" font-family="Arial" font-size="14.00" fill="#666666">[text]</text>
<polygon fill="none" stroke="#000000" points="95.5,-352.5 95.5,-382.5 333.5,-382.5 333.5,-352.5 95.5,-352.5"/>
<text text-anchor="start" x="102.5" y="-363.9" font-family="Arial" font-size="14.00" fill="#000000">created_at </text>
<text text-anchor="start" x="172.528" y="-363.9" font-family="Arial" font-size="14.00" fill="#666666">[datetime]</text>
<polygon fill="none" stroke="#000000" points="95.5,-322.5 95.5,-352.5 333.5,-352.5 333.5,-322.5 95.5,-322.5"/>
<text text-anchor="start" x="102.5" y="-333.9" font-family="Arial" font-size="14.00" fill="#000000">updated_at </text>
<text text-anchor="start" x="176.4326" y="-333.9" font-family="Arial" font-size="14.00" fill="#666666">[datetime]</text>
<polygon fill="none" stroke="#000000" stroke-width="3" points="94,-321.5 94,-539.5 335,-539.5 335,-321.5 94,-321.5"/>
</g>
<!-- advisor_types -->
<g id="node3" class="node">
<title>advisor_types</title>
<polygon fill="#efefef" stroke="transparent" points="88.5,-162.5 88.5,-197.5 340.5,-197.5 340.5,-162.5 88.5,-162.5"/>
<polygon fill="none" stroke="#000000" points="88.5,-162.5 88.5,-197.5 340.5,-197.5 340.5,-162.5 88.5,-162.5"/>
<text text-anchor="start" x="95.2031" y="-175.3" font-family="Arial Bold" font-size="18.00" fill="#000000">advisor_types</text>
<text text-anchor="start" x="206.2289" y="-175.3" font-family="Arial" font-size="14.00" fill="#000000">    </text>
<text text-anchor="start" x="240.4337" y="-175.3" font-family="Arial" font-size="14.00" fill="#666666">[BASE TABLE]</text>
<polygon fill="none" stroke="#000000" points="88.5,-132.5 88.5,-162.5 340.5,-162.5 340.5,-132.5 88.5,-132.5"/>
<text text-anchor="start" x="95.5" y="-143.9" font-family="Arial" font-size="14.00" fill="#000000">id    </text>
<text text-anchor="start" x="140.594" y="-143.9" font-family="Arial" font-size="14.00" fill="#666666">[tinyint(3) unsigned]</text>
<polygon fill="none" stroke="#000000" points="88.5,-102.5 88.5,-132.5 340.5,-132.5 340.5,-102.5 88.5,-102.5"/>
<text text-anchor="start" x="95.5" y="-113.9" font-family="Arial" font-size="14.00" fill="#000000">type_name    </text>
<text text-anchor="start" x="198.9516" y="-113.9" font-family="Arial" font-size="14.00" fill="#666666">[varchar(255)]</text>
<polygon fill="none" stroke="#000000" points="88.5,-72.5 88.5,-102.5 340.5,-102.5 340.5,-72.5 88.5,-72.5"/>
<text text-anchor="start" x="95.5" y="-83.9" font-family="Arial" font-size="14.00" fill="#000000">created_at    </text>
<text text-anchor="start" x="195.8422" y="-83.9" font-family="Arial" font-size="14.00" fill="#666666">[datetime]</text>
<polygon fill="none" stroke="#000000" points="88.5,-42.5 88.5,-72.5 340.5,-72.5 340.5,-42.5 88.5,-42.5"/>
<text text-anchor="start" x="95.5" y="-53.9" font-family="Arial" font-size="14.00" fill="#000000">updated_at    </text>
<text text-anchor="start" x="199.7468" y="-53.9" font-family="Arial" font-size="14.00" fill="#666666">[datetime]</text>
</g>
<!-- advisors&#45;&gt;advisor_types -->
<g id="edge2" class="edge">
<title>advisors:advisor_type_id&#45;&gt;advisor_types:id</title>
<path fill="none" stroke="#000000" d="M343.7442,-456.9106C471.575,-441.9577 474.8137,-147.5 340.5,-147.5"/>
<polygon fill="#000000" stroke="#000000" points="343.4835,-456.9255 333.2415,-453.0074 338.4917,-457.2128 333.5,-457.5 333.5,-457.5 333.5,-457.5 338.4917,-457.2128 333.7585,-461.9926 343.4835,-456.9255 343.4835,-456.9255"/>
<text text-anchor="start" x="340.211" y="-467.5" font-family="Arial" font-size="10.00" fill="#000000">FOREIGN KEY (advisor_type_id) REFERENCES advisor_types (id)</text>
</g>
<!-- electricity_notify_settings -->
<g id="node2" class="node">
<title>electricity_notify_settings</title>
<polygon fill="#efefef" stroke="transparent" points="43.5,-932.5 43.5,-967.5 384.5,-967.5 384.5,-932.5 43.5,-932.5"/>
<polygon fill="none" stroke="#000000" points="43.5,-932.5 43.5,-967.5 384.5,-967.5 384.5,-932.5 43.5,-932.5"/>
<text text-anchor="start" x="50.1999" y="-945.3" font-family="Arial Bold" font-size="18.00" fill="#000000">electricity_notify_settings</text>
<text text-anchor="start" x="250.2321" y="-945.3" font-family="Arial" font-size="14.00" fill="#000000">    </text>
<text text-anchor="start" x="284.4369" y="-945.3" font-family="Arial" font-size="14.00" fill="#666666">[BASE TABLE]</text>
<polygon fill="none" stroke="#000000" points="43.5,-902.5 43.5,-932.5 384.5,-932.5 384.5,-902.5 43.5,-902.5"/>
<text text-anchor="start" x="50.5" y="-913.9" font-family="Arial" font-size="14.00" fill="#000000">id    </text>
<text text-anchor="start" x="95.594" y="-913.9" font-family="Arial" font-size="14.00" fill="#666666">[bigint(20) unsigned]</text>
<polygon fill="none" stroke="#000000" points="43.5,-872.5 43.5,-902.5 384.5,-902.5 384.5,-872.5 43.5,-872.5"/>
<text text-anchor="start" x="50.5" y="-883.9" font-family="Arial" font-size="14.00" fill="#000000">electricity_fetch_setting_id    </text>
<text text-anchor="start" x="248.8506" y="-883.9" font-family="Arial" font-size="14.00" fill="#666666">[bigint(20) unsigned]</text>
<polygon fill="none" stroke="#000000" points="43.5,-842.5 43.5,-872.5 384.5,-872.5 384.5,-842.5 43.5,-842.5"/>
<text text-anchor="start" x="50.5" y="-853.9" font-family="Arial" font-size="14.00" fill="#000000">line_channel_id    </text>
<text text-anchor="start" x="181.9572" y="-853.9" font-family="Arial" font-size="14.00" fill="#666666">[varchar(256)]</text>
<polygon fill="none" stroke="#000000" points="43.5,-812.5 43.5,-842.5 384.5,-842.5 384.5,-812.5 43.5,-812.5"/>
<text text-anchor="start" x="50.5" y="-823.9" font-family="Arial" font-size="14.00" fill="#000000">advisor_id    </text>
<text text-anchor="start" x="148.4916" y="-823.9" font-family="Arial" font-size="14.00" fill="#666666">[bigint(20) unsigned]</text>
<polygon fill="none" stroke="#000000" points="43.5,-782.5 43.5,-812.5 384.5,-812.5 384.5,-782.5 43.5,-782.5"/>
<text text-anchor="start" x="50.5" y="-793.9" font-family="Arial" font-size="14.00" fill="#000000">notify_date    </text>
<text text-anchor="start" x="153.1788" y="-793.9" font-family="Arial" font-size="14.00" fill="#666666">[tinyint(3) unsigned]</text>
<polygon fill="none" stroke="#000000" points="43.5,-752.5 43.5,-782.5 384.5,-782.5 384.5,-752.5 43.5,-752.5"/>
<text text-anchor="start" x="50.5" y="-763.9" font-family="Arial" font-size="14.00" fill="#000000">notify_enable    </text>
<text text-anchor="start" x="167.96" y="-763.9" font-family="Arial" font-size="14.00" fill="#666666">[tinyint(1)]</text>
<polygon fill="none" stroke="#000000" points="43.5,-722.5 43.5,-752.5 384.5,-752.5 384.5,-722.5 43.5,-722.5"/>
<text text-anchor="start" x="50.5" y="-733.9" font-family="Arial" font-size="14.00" fill="#000000">template    </text>
<text text-anchor="start" x="138.3836" y="-733.9" font-family="Arial" font-size="14.00" fill="#666666">[text]</text>
<polygon fill="none" stroke="#000000" points="43.5,-692.5 43.5,-722.5 384.5,-722.5 384.5,-692.5 43.5,-692.5"/>
<text text-anchor="start" x="50.5" y="-703.9" font-family="Arial" font-size="14.00" fill="#000000">created_at    </text>
<text text-anchor="start" x="150.8422" y="-703.9" font-family="Arial" font-size="14.00" fill="#666666">[datetime]</text>
<polygon fill="none" stroke="#000000" points="43.5,-662.5 43.5,-692.5 384.5,-692.5 384.5,-662.5 43.5,-662.5"/>
<text text-anchor="start" x="50.5" y="-673.9" font-family="Arial" font-size="14.00" fill="#000000">updated_at    </text>
<text text-anchor="start" x="154.7468" y="-673.9" font-family="Arial" font-size="14.00" fill="#666666">[datetime]</text>
</g>
<!-- electricity_notify_settings&#45;&gt;advisors -->
<g id="edge1" class="edge">
<title>electricity_notify_settings:advisor_id&#45;&gt;advisors:id</title>
<path fill="none" stroke="#000000" d="M394.748,-826.8789C474.2411,-816.795 443.163,-686.4238 384.5,-620 298.8175,-522.982 181.1825,-681.018 95.5,-584 67.1092,-551.8532 52.6111,-487.5 95.5,-487.5"/>
<polygon fill="#000000" stroke="#000000" points="394.4817,-826.895 384.2277,-823.0082 389.4908,-827.1975 384.5,-827.5 384.5,-827.5 384.5,-827.5 389.4908,-827.1975 384.7723,-831.9918 394.4817,-826.895 394.4817,-826.895"/>
<text text-anchor="start" x="391.667" y="-837.5" font-family="Arial" font-size="10.00" fill="#000000">FOREIGN KEY (advisor_id) REFERENCES advisors (id)</text>
</g>
</g>
</svg>
