<?xml version="1.0" encoding="UTF-8" standalone="no"?>
<!DOCTYPE svg PUBLIC "-//W3C//DTD SVG 1.1//EN"
 "http://www.w3.org/Graphics/SVG/1.1/DTD/svg11.dtd">
<!-- Generated by graphviz version 12.1.2 (20240928.0832)
 -->
<!-- Title: app_status_types Pages: 1 -->
<svg width="627pt" height="633pt"
 viewBox="0.00 0.00 626.89 632.80" xmlns="http://www.w3.org/2000/svg" xmlns:xlink="http://www.w3.org/1999/xlink">
<g id="graph0" class="graph" transform="scale(1 1) rotate(0) translate(4 628.8)">
<title>app_status_types</title>
<polygon fill="white" stroke="none" points="-4,4 -4,-628.8 622.89,-628.8 622.89,4 -4,4"/>
<!-- app_status_types -->
<g id="node1" class="node">
<title>app_status_types</title>
<polygon fill="#efefef" stroke="none" points="46.2,-169.4 46.2,-205 307.67,-205 307.67,-169.4 46.2,-169.4"/>
<polygon fill="none" stroke="black" points="46.2,-169.4 46.2,-205 307.67,-205 307.67,-169.4 46.2,-169.4"/>
<text text-anchor="start" x="53.2" y="-182.8" font-family="Arial Bold" font-size="18.00">app_status_types</text>
<text text-anchor="start" x="176.19" y="-182.8" font-family="Arial" font-size="14.00">    </text>
<text text-anchor="start" x="207.3" y="-182.8" font-family="Arial" font-size="14.00" fill="#666666">[BASE TABLE]</text>
<polygon fill="none" stroke="black" points="46.2,-138.6 46.2,-169.4 307.67,-169.4 307.67,-138.6 46.2,-138.6"/>
<text text-anchor="start" x="53.2" y="-150.8" font-family="Arial" font-size="14.00">id </text>
<text text-anchor="start" x="67.99" y="-150.8" font-family="Arial" font-size="14.00" fill="#666666">[tinyint(3) unsigned]</text>
<polygon fill="none" stroke="black" points="46.2,-107.8 46.2,-138.6 307.67,-138.6 307.67,-107.8 46.2,-107.8"/>
<text text-anchor="start" x="53.2" y="-120" font-family="Arial" font-size="14.00">type_name </text>
<text text-anchor="start" x="126.36" y="-120" font-family="Arial" font-size="14.00" fill="#666666">[varchar(255)]</text>
<polygon fill="none" stroke="black" points="46.2,-77 46.2,-107.8 307.67,-107.8 307.67,-77 46.2,-77"/>
<text text-anchor="start" x="53.2" y="-89.2" font-family="Arial" font-size="14.00">created_at </text>
<text text-anchor="start" x="123.25" y="-89.2" font-family="Arial" font-size="14.00" fill="#666666">[datetime]</text>
<polygon fill="none" stroke="black" points="46.2,-46.2 46.2,-77 307.67,-77 307.67,-46.2 46.2,-46.2"/>
<text text-anchor="start" x="53.2" y="-58.4" font-family="Arial" font-size="14.00">updated_at </text>
<text text-anchor="start" x="127.16" y="-58.4" font-family="Arial" font-size="14.00" fill="#666666">[datetime]</text>
<polygon fill="none" stroke="black" stroke-width="3" points="44.7,-44.7 44.7,-206.5 309.17,-206.5 309.17,-44.7 44.7,-44.7"/>
</g>
<!-- app_statuses -->
<g id="node2" class="node">
<title>app_statuses</title>
<polygon fill="#efefef" stroke="none" points="61.76,-546 61.76,-581.6 292.11,-581.6 292.11,-546 61.76,-546"/>
<polygon fill="none" stroke="black" points="61.76,-546 61.76,-581.6 292.11,-581.6 292.11,-546 61.76,-546"/>
<text text-anchor="start" x="69.2" y="-559.4" font-family="Arial Bold" font-size="18.00">app_statuses</text>
<text text-anchor="start" x="160.18" y="-559.4" font-family="Arial" font-size="14.00">    </text>
<text text-anchor="start" x="191.3" y="-559.4" font-family="Arial" font-size="14.00" fill="#666666">[BASE TABLE]</text>
<polygon fill="none" stroke="black" points="61.76,-515.2 61.76,-546 292.11,-546 292.11,-515.2 61.76,-515.2"/>
<text text-anchor="start" x="68.76" y="-527.4" font-family="Arial" font-size="14.00">id </text>
<text text-anchor="start" x="83.55" y="-527.4" font-family="Arial" font-size="14.00" fill="#666666">[bigint(20) unsigned]</text>
<polygon fill="none" stroke="black" points="61.76,-484.4 61.76,-515.2 292.11,-515.2 292.11,-484.4 61.76,-484.4"/>
<text text-anchor="start" x="68.76" y="-496.6" font-family="Arial" font-size="14.00">app_name </text>
<text text-anchor="start" x="138.82" y="-496.6" font-family="Arial" font-size="14.00" fill="#666666">[varchar(255)]</text>
<polygon fill="none" stroke="black" points="61.76,-453.6 61.76,-484.4 292.11,-484.4 292.11,-453.6 61.76,-453.6"/>
<text text-anchor="start" x="68.76" y="-465.8" font-family="Arial" font-size="14.00">status_type_id </text>
<text text-anchor="start" x="162.93" y="-465.8" font-family="Arial" font-size="14.00" fill="#666666">[tinyint(3) unsigned]</text>
<polygon fill="none" stroke="black" points="61.76,-422.8 61.76,-453.6 292.11,-453.6 292.11,-422.8 61.76,-422.8"/>
<text text-anchor="start" x="68.76" y="-435" font-family="Arial" font-size="14.00">last_successful_at </text>
<text text-anchor="start" x="187.04" y="-435" font-family="Arial" font-size="14.00" fill="#666666">[datetime]</text>
<polygon fill="none" stroke="black" points="61.76,-392 61.76,-422.8 292.11,-422.8 292.11,-392 61.76,-392"/>
<text text-anchor="start" x="68.76" y="-404.2" font-family="Arial" font-size="14.00">last_failure_at </text>
<text text-anchor="start" x="159.82" y="-404.2" font-family="Arial" font-size="14.00" fill="#666666">[datetime]</text>
<polygon fill="none" stroke="black" points="61.76,-361.2 61.76,-392 292.11,-392 292.11,-361.2 61.76,-361.2"/>
<text text-anchor="start" x="68.76" y="-373.4" font-family="Arial" font-size="14.00">created_at </text>
<text text-anchor="start" x="138.81" y="-373.4" font-family="Arial" font-size="14.00" fill="#666666">[datetime]</text>
<polygon fill="none" stroke="black" points="61.76,-330.4 61.76,-361.2 292.11,-361.2 292.11,-330.4 61.76,-330.4"/>
<text text-anchor="start" x="68.76" y="-342.6" font-family="Arial" font-size="14.00">updated_at </text>
<text text-anchor="start" x="142.72" y="-342.6" font-family="Arial" font-size="14.00" fill="#666666">[datetime]</text>
</g>
<!-- app_statuses&#45;&gt;app_status_types -->
<g id="edge1" class="edge">
<title>app_statuses:status_type_id&#45;&gt;app_status_types:id</title>
<path fill="none" stroke="black" d="M302.99,-466.82C364.51,-438.99 375.34,-154 308.67,-154"/>
<polygon fill="black" stroke="black" points="303.2,-466.77 292.47,-464.53 298,-467.92 293.77,-468.86 293.77,-468.86 293.77,-468.86 298,-467.92 294.41,-473.32 303.2,-466.77"/>
<text text-anchor="start" x="300.11" y="-479" font-family="Arial" font-size="10.00">FOREIGN KEY (status_type_id) REFERENCES app_status_types (id)</text>
</g>
</g>
</svg>
