<?xml version="1.0" encoding="UTF-8" standalone="no"?>
<!DOCTYPE svg PUBLIC "-//W3C//DTD SVG 1.1//EN"
 "http://www.w3.org/Graphics/SVG/1.1/DTD/svg11.dtd">
<!-- Generated by graphviz version 12.1.2 (20240928.0832)
 -->
<!-- Title: app_statuses Pages: 1 -->
<svg width="624pt" height="633pt"
 viewBox="0.00 0.00 623.89 632.80" xmlns="http://www.w3.org/2000/svg" xmlns:xlink="http://www.w3.org/1999/xlink">
<g id="graph0" class="graph" transform="scale(1 1) rotate(0) translate(4 628.8)">
<title>app_statuses</title>
<polygon fill="white" stroke="none" points="-4,4 -4,-628.8 619.89,-628.8 619.89,4 -4,4"/>
<!-- app_statuses -->
<g id="node1" class="node">
<title>app_statuses</title>
<polygon fill="#efefef" stroke="none" points="58.76,-543 58.76,-578.6 289.11,-578.6 289.11,-543 58.76,-543"/>
<polygon fill="none" stroke="black" points="58.76,-543 58.76,-578.6 289.11,-578.6 289.11,-543 58.76,-543"/>
<text text-anchor="start" x="66.2" y="-556.4" font-family="Arial Bold" font-size="18.00">app_statuses</text>
<text text-anchor="start" x="157.18" y="-556.4" font-family="Arial" font-size="14.00">    </text>
<text text-anchor="start" x="188.3" y="-556.4" font-family="Arial" font-size="14.00" fill="#666666">[BASE TABLE]</text>
<polygon fill="none" stroke="black" points="58.76,-512.2 58.76,-543 289.11,-543 289.11,-512.2 58.76,-512.2"/>
<text text-anchor="start" x="65.76" y="-524.4" font-family="Arial" font-size="14.00">id </text>
<text text-anchor="start" x="80.55" y="-524.4" font-family="Arial" font-size="14.00" fill="#666666">[bigint(20) unsigned]</text>
<polygon fill="none" stroke="black" points="58.76,-481.4 58.76,-512.2 289.11,-512.2 289.11,-481.4 58.76,-481.4"/>
<text text-anchor="start" x="65.76" y="-493.6" font-family="Arial" font-size="14.00">app_name </text>
<text text-anchor="start" x="135.82" y="-493.6" font-family="Arial" font-size="14.00" fill="#666666">[varchar(255)]</text>
<polygon fill="none" stroke="black" points="58.76,-450.6 58.76,-481.4 289.11,-481.4 289.11,-450.6 58.76,-450.6"/>
<text text-anchor="start" x="65.76" y="-462.8" font-family="Arial" font-size="14.00">status_type_id </text>
<text text-anchor="start" x="159.93" y="-462.8" font-family="Arial" font-size="14.00" fill="#666666">[tinyint(3) unsigned]</text>
<polygon fill="none" stroke="black" points="58.76,-419.8 58.76,-450.6 289.11,-450.6 289.11,-419.8 58.76,-419.8"/>
<text text-anchor="start" x="65.76" y="-432" font-family="Arial" font-size="14.00">last_successful_at </text>
<text text-anchor="start" x="184.04" y="-432" font-family="Arial" font-size="14.00" fill="#666666">[datetime]</text>
<polygon fill="none" stroke="black" points="58.76,-389 58.76,-419.8 289.11,-419.8 289.11,-389 58.76,-389"/>
<text text-anchor="start" x="65.76" y="-401.2" font-family="Arial" font-size="14.00">last_failure_at </text>
<text text-anchor="start" x="156.82" y="-401.2" font-family="Arial" font-size="14.00" fill="#666666">[datetime]</text>
<polygon fill="none" stroke="black" points="58.76,-358.2 58.76,-389 289.11,-389 289.11,-358.2 58.76,-358.2"/>
<text text-anchor="start" x="65.76" y="-370.4" font-family="Arial" font-size="14.00">created_at </text>
<text text-anchor="start" x="135.81" y="-370.4" font-family="Arial" font-size="14.00" fill="#666666">[datetime]</text>
<polygon fill="none" stroke="black" points="58.76,-327.4 58.76,-358.2 289.11,-358.2 289.11,-327.4 58.76,-327.4"/>
<text text-anchor="start" x="65.76" y="-339.6" font-family="Arial" font-size="14.00">updated_at </text>
<text text-anchor="start" x="139.72" y="-339.6" font-family="Arial" font-size="14.00" fill="#666666">[datetime]</text>
<polygon fill="none" stroke="black" stroke-width="3" points="57.26,-325.9 57.26,-580.1 290.61,-580.1 290.61,-325.9 57.26,-325.9"/>
</g>
<!-- app_status_types -->
<g id="node2" class="node">
<title>app_status_types</title>
<polygon fill="#efefef" stroke="none" points="43.2,-166.4 43.2,-202 304.67,-202 304.67,-166.4 43.2,-166.4"/>
<polygon fill="none" stroke="black" points="43.2,-166.4 43.2,-202 304.67,-202 304.67,-166.4 43.2,-166.4"/>
<text text-anchor="start" x="50.2" y="-179.8" font-family="Arial Bold" font-size="18.00">app_status_types</text>
<text text-anchor="start" x="173.19" y="-179.8" font-family="Arial" font-size="14.00">    </text>
<text text-anchor="start" x="204.3" y="-179.8" font-family="Arial" font-size="14.00" fill="#666666">[BASE TABLE]</text>
<polygon fill="none" stroke="black" points="43.2,-135.6 43.2,-166.4 304.67,-166.4 304.67,-135.6 43.2,-135.6"/>
<text text-anchor="start" x="50.2" y="-147.8" font-family="Arial" font-size="14.00">id </text>
<text text-anchor="start" x="64.99" y="-147.8" font-family="Arial" font-size="14.00" fill="#666666">[tinyint(3) unsigned]</text>
<polygon fill="none" stroke="black" points="43.2,-104.8 43.2,-135.6 304.67,-135.6 304.67,-104.8 43.2,-104.8"/>
<text text-anchor="start" x="50.2" y="-117" font-family="Arial" font-size="14.00">type_name </text>
<text text-anchor="start" x="123.36" y="-117" font-family="Arial" font-size="14.00" fill="#666666">[varchar(255)]</text>
<polygon fill="none" stroke="black" points="43.2,-74 43.2,-104.8 304.67,-104.8 304.67,-74 43.2,-74"/>
<text text-anchor="start" x="50.2" y="-86.2" font-family="Arial" font-size="14.00">created_at </text>
<text text-anchor="start" x="120.25" y="-86.2" font-family="Arial" font-size="14.00" fill="#666666">[datetime]</text>
<polygon fill="none" stroke="black" points="43.2,-43.2 43.2,-74 304.67,-74 304.67,-43.2 43.2,-43.2"/>
<text text-anchor="start" x="50.2" y="-55.4" font-family="Arial" font-size="14.00">updated_at </text>
<text text-anchor="start" x="124.16" y="-55.4" font-family="Arial" font-size="14.00" fill="#666666">[datetime]</text>
</g>
<!-- app_statuses&#45;&gt;app_status_types -->
<g id="edge1" class="edge">
<title>app_statuses:status_type_id&#45;&gt;app_status_types:id</title>
<path fill="none" stroke="black" d="M299.99,-463.82C361.51,-435.99 372.34,-151 305.67,-151"/>
<polygon fill="black" stroke="black" points="300.2,-463.77 289.47,-461.53 295,-464.92 290.77,-465.86 290.77,-465.86 290.77,-465.86 295,-464.92 291.41,-470.32 300.2,-463.77"/>
<text text-anchor="start" x="297.11" y="-476" font-family="Arial" font-size="10.00">FOREIGN KEY (status_type_id) REFERENCES app_status_types (id)</text>
</g>
</g>
</svg>
