<?xml version="1.0" encoding="UTF-8" standalone="no"?>
<!DOCTYPE svg PUBLIC "-//W3C//DTD SVG 1.1//EN"
 "http://www.w3.org/Graphics/SVG/1.1/DTD/svg11.dtd">
<!-- Generated by graphviz version 2.40.1 (20161225.0304)
 -->
<!-- Title: app_status_types Pages: 1 -->
<svg width="650pt" height="622pt"
 viewBox="0.00 0.00 650.00 622.00" xmlns="http://www.w3.org/2000/svg" xmlns:xlink="http://www.w3.org/1999/xlink">
<g id="graph0" class="graph" transform="scale(1 1) rotate(0) translate(4 618)">
<title>app_status_types</title>
<polygon fill="#ffffff" stroke="transparent" points="-4,4 -4,-618 646,-618 646,4 -4,4"/>
<!-- app_status_types -->
<g id="node1" class="node">
<title>app_status_types</title>
<polygon fill="#efefef" stroke="transparent" points="46,-165.5 46,-200.5 328,-200.5 328,-165.5 46,-165.5"/>
<polygon fill="none" stroke="#000000" points="46,-165.5 46,-200.5 328,-200.5 328,-165.5 46,-165.5"/>
<text text-anchor="start" x="52.6848" y="-178.3" font-family="Arial Bold" font-size="18.00" fill="#000000">app_status_types</text>
<text text-anchor="start" x="193.7472" y="-178.3" font-family="Arial" font-size="14.00" fill="#000000">    </text>
<text text-anchor="start" x="227.952" y="-178.3" font-family="Arial" font-size="14.00" fill="#666666">[BASE TABLE]</text>
<polygon fill="none" stroke="#000000" points="46,-135.5 46,-165.5 328,-165.5 328,-135.5 46,-135.5"/>
<text text-anchor="start" x="53" y="-146.9" font-family="Arial" font-size="14.00" fill="#000000">id </text>
<text text-anchor="start" x="67.7798" y="-146.9" font-family="Arial" font-size="14.00" fill="#666666">[tinyint(3) unsigned]</text>
<polygon fill="none" stroke="#000000" points="46,-105.5 46,-135.5 328,-135.5 328,-105.5 46,-105.5"/>
<text text-anchor="start" x="53" y="-116.9" font-family="Arial" font-size="14.00" fill="#000000">type_name </text>
<text text-anchor="start" x="126.1374" y="-116.9" font-family="Arial" font-size="14.00" fill="#666666">[varchar(255)]</text>
<polygon fill="none" stroke="#000000" points="46,-75.5 46,-105.5 328,-105.5 328,-75.5 46,-75.5"/>
<text text-anchor="start" x="53" y="-86.9" font-family="Arial" font-size="14.00" fill="#000000">created_at </text>
<text text-anchor="start" x="123.028" y="-86.9" font-family="Arial" font-size="14.00" fill="#666666">[datetime]</text>
<polygon fill="none" stroke="#000000" points="46,-45.5 46,-75.5 328,-75.5 328,-45.5 46,-45.5"/>
<text text-anchor="start" x="53" y="-56.9" font-family="Arial" font-size="14.00" fill="#000000">updated_at </text>
<text text-anchor="start" x="126.9326" y="-56.9" font-family="Arial" font-size="14.00" fill="#666666">[datetime]</text>
<polygon fill="none" stroke="#000000" stroke-width="3" points="44.5,-44.5 44.5,-202.5 329.5,-202.5 329.5,-44.5 44.5,-44.5"/>
</g>
<!-- app_statuses -->
<g id="node2" class="node">
<title>app_statuses</title>
<polygon fill="#efefef" stroke="transparent" points="57,-535.5 57,-570.5 317,-570.5 317,-535.5 57,-535.5"/>
<polygon fill="none" stroke="#000000" points="57,-535.5 57,-570.5 317,-570.5 317,-535.5 57,-535.5"/>
<text text-anchor="start" x="69.6921" y="-548.3" font-family="Arial Bold" font-size="18.00" fill="#000000">app_statuses</text>
<text text-anchor="start" x="176.7399" y="-548.3" font-family="Arial" font-size="14.00" fill="#000000">    </text>
<text text-anchor="start" x="210.9447" y="-548.3" font-family="Arial" font-size="14.00" fill="#666666">[BASE TABLE]</text>
<polygon fill="none" stroke="#000000" points="57,-505.5 57,-535.5 317,-535.5 317,-505.5 57,-505.5"/>
<text text-anchor="start" x="64" y="-516.9" font-family="Arial" font-size="14.00" fill="#000000">id    </text>
<text text-anchor="start" x="109.094" y="-516.9" font-family="Arial" font-size="14.00" fill="#666666">[bigint(20) unsigned]</text>
<polygon fill="none" stroke="#000000" points="57,-475.5 57,-505.5 317,-505.5 317,-475.5 57,-475.5"/>
<text text-anchor="start" x="64" y="-486.9" font-family="Arial" font-size="14.00" fill="#000000">app_name    </text>
<text text-anchor="start" x="164.3436" y="-486.9" font-family="Arial" font-size="14.00" fill="#666666">[varchar(255)]</text>
<polygon fill="none" stroke="#000000" points="57,-445.5 57,-475.5 317,-475.5 317,-445.5 57,-445.5"/>
<text text-anchor="start" x="63.7006" y="-456.9" font-family="Arial" font-size="14.00" fill="#000000">status_type_id    </text>
<text text-anchor="start" x="188.162" y="-456.9" font-family="Arial" font-size="14.00" fill="#666666">[tinyint(3) unsigned]</text>
<polygon fill="none" stroke="#000000" points="57,-415.5 57,-445.5 317,-445.5 317,-415.5 57,-415.5"/>
<text text-anchor="start" x="64" y="-426.9" font-family="Arial" font-size="14.00" fill="#000000">last_successful_at    </text>
<text text-anchor="start" x="212.568" y="-426.9" font-family="Arial" font-size="14.00" fill="#666666">[datetime]</text>
<polygon fill="none" stroke="#000000" points="57,-385.5 57,-415.5 317,-415.5 317,-385.5 57,-385.5"/>
<text text-anchor="start" x="64" y="-396.9" font-family="Arial" font-size="14.00" fill="#000000">last_failure_at    </text>
<text text-anchor="start" x="185.3352" y="-396.9" font-family="Arial" font-size="14.00" fill="#666666">[datetime]</text>
<polygon fill="none" stroke="#000000" points="57,-355.5 57,-385.5 317,-385.5 317,-355.5 57,-355.5"/>
<text text-anchor="start" x="64" y="-366.9" font-family="Arial" font-size="14.00" fill="#000000">created_at    </text>
<text text-anchor="start" x="164.3422" y="-366.9" font-family="Arial" font-size="14.00" fill="#666666">[datetime]</text>
<polygon fill="none" stroke="#000000" points="57,-325.5 57,-355.5 317,-355.5 317,-325.5 57,-325.5"/>
<text text-anchor="start" x="64" y="-336.9" font-family="Arial" font-size="14.00" fill="#000000">updated_at    </text>
<text text-anchor="start" x="168.2468" y="-336.9" font-family="Arial" font-size="14.00" fill="#666666">[datetime]</text>
</g>
<!-- app_statuses&#45;&gt;app_status_types -->
<g id="edge1" class="edge">
<title>app_statuses:status_type_id&#45;&gt;app_status_types:id</title>
<path fill="none" stroke="#000000" d="M327.0503,-458.183C386.8433,-429.815 393.4318,-150.5 328,-150.5"/>
<polygon fill="#000000" stroke="#000000" points="326.7444,-458.2534 315.989,-456.115 321.8722,-459.3767 317,-460.5 317,-460.5 317,-460.5 321.8722,-459.3767 318.011,-464.885 326.7444,-458.2534 326.7444,-458.2534"/>
<text text-anchor="start" x="324.142" y="-470.5" font-family="Arial" font-size="10.00" fill="#000000">FOREIGN KEY (status_type_id) REFERENCES app_status_types (id)</text>
</g>
</g>
</svg>
