<?xml version="1.0" encoding="UTF-8" standalone="no"?>
<!DOCTYPE svg PUBLIC "-//W3C//DTD SVG 1.1//EN"
 "http://www.w3.org/Graphics/SVG/1.1/DTD/svg11.dtd">
<!-- Generated by graphviz version 2.40.1 (20161225.0304)
 -->
<!-- Title: app_statuses Pages: 1 -->
<svg width="641pt" height="622pt"
 viewBox="0.00 0.00 641.00 622.00" xmlns="http://www.w3.org/2000/svg" xmlns:xlink="http://www.w3.org/1999/xlink">
<g id="graph0" class="graph" transform="scale(1 1) rotate(0) translate(4 618)">
<title>app_statuses</title>
<polygon fill="#ffffff" stroke="transparent" points="-4,4 -4,-618 637,-618 637,4 -4,4"/>
<!-- app_statuses -->
<g id="node1" class="node">
<title>app_statuses</title>
<polygon fill="#efefef" stroke="transparent" points="60,-532.5 60,-567.5 308,-567.5 308,-532.5 60,-532.5"/>
<polygon fill="none" stroke="#000000" points="60,-532.5 60,-567.5 308,-567.5 308,-532.5 60,-532.5"/>
<text text-anchor="start" x="66.6921" y="-545.3" font-family="Arial Bold" font-size="18.00" fill="#000000">app_statuses</text>
<text text-anchor="start" x="173.7399" y="-545.3" font-family="Arial" font-size="14.00" fill="#000000">    </text>
<text text-anchor="start" x="207.9447" y="-545.3" font-family="Arial" font-size="14.00" fill="#666666">[BASE TABLE]</text>
<polygon fill="none" stroke="#000000" points="60,-502.5 60,-532.5 308,-532.5 308,-502.5 60,-502.5"/>
<text text-anchor="start" x="67" y="-513.9" font-family="Arial" font-size="14.00" fill="#000000">id </text>
<text text-anchor="start" x="81.7798" y="-513.9" font-family="Arial" font-size="14.00" fill="#666666">[bigint(20) unsigned]</text>
<polygon fill="none" stroke="#000000" points="60,-472.5 60,-502.5 308,-502.5 308,-472.5 60,-472.5"/>
<text text-anchor="start" x="67" y="-483.9" font-family="Arial" font-size="14.00" fill="#000000">app_name </text>
<text text-anchor="start" x="137.0294" y="-483.9" font-family="Arial" font-size="14.00" fill="#666666">[varchar(255)]</text>
<polygon fill="none" stroke="#000000" points="60,-442.5 60,-472.5 308,-472.5 308,-442.5 60,-442.5"/>
<text text-anchor="start" x="67" y="-453.9" font-family="Arial" font-size="14.00" fill="#000000">status_type_id </text>
<text text-anchor="start" x="161.1472" y="-453.9" font-family="Arial" font-size="14.00" fill="#666666">[tinyint(3) unsigned]</text>
<polygon fill="none" stroke="#000000" points="60,-412.5 60,-442.5 308,-442.5 308,-412.5 60,-412.5"/>
<text text-anchor="start" x="67" y="-423.9" font-family="Arial" font-size="14.00" fill="#000000">last_successful_at </text>
<text text-anchor="start" x="185.2538" y="-423.9" font-family="Arial" font-size="14.00" fill="#666666">[datetime]</text>
<polygon fill="none" stroke="#000000" points="60,-382.5 60,-412.5 308,-412.5 308,-382.5 60,-382.5"/>
<text text-anchor="start" x="67" y="-393.9" font-family="Arial" font-size="14.00" fill="#000000">last_failure_at </text>
<text text-anchor="start" x="158.021" y="-393.9" font-family="Arial" font-size="14.00" fill="#666666">[datetime]</text>
<polygon fill="none" stroke="#000000" points="60,-352.5 60,-382.5 308,-382.5 308,-352.5 60,-352.5"/>
<text text-anchor="start" x="67" y="-363.9" font-family="Arial" font-size="14.00" fill="#000000">created_at </text>
<text text-anchor="start" x="137.028" y="-363.9" font-family="Arial" font-size="14.00" fill="#666666">[datetime]</text>
<polygon fill="none" stroke="#000000" points="60,-322.5 60,-352.5 308,-352.5 308,-322.5 60,-322.5"/>
<text text-anchor="start" x="67" y="-333.9" font-family="Arial" font-size="14.00" fill="#000000">updated_at </text>
<text text-anchor="start" x="140.9326" y="-333.9" font-family="Arial" font-size="14.00" fill="#666666">[datetime]</text>
<polygon fill="none" stroke="#000000" stroke-width="3" points="58.5,-321.5 58.5,-569.5 309.5,-569.5 309.5,-321.5 58.5,-321.5"/>
</g>
<!-- app_status_types -->
<g id="node2" class="node">
<title>app_status_types</title>
<polygon fill="#efefef" stroke="transparent" points="43,-162.5 43,-197.5 325,-197.5 325,-162.5 43,-162.5"/>
<polygon fill="none" stroke="#000000" points="43,-162.5 43,-197.5 325,-197.5 325,-162.5 43,-162.5"/>
<text text-anchor="start" x="49.6848" y="-175.3" font-family="Arial Bold" font-size="18.00" fill="#000000">app_status_types</text>
<text text-anchor="start" x="190.7472" y="-175.3" font-family="Arial" font-size="14.00" fill="#000000">    </text>
<text text-anchor="start" x="224.952" y="-175.3" font-family="Arial" font-size="14.00" fill="#666666">[BASE TABLE]</text>
<polygon fill="none" stroke="#000000" points="43,-132.5 43,-162.5 325,-162.5 325,-132.5 43,-132.5"/>
<text text-anchor="start" x="50" y="-143.9" font-family="Arial" font-size="14.00" fill="#000000">id    </text>
<text text-anchor="start" x="95.094" y="-143.9" font-family="Arial" font-size="14.00" fill="#666666">[tinyint(3) unsigned]</text>
<polygon fill="none" stroke="#000000" points="43,-102.5 43,-132.5 325,-132.5 325,-102.5 43,-102.5"/>
<text text-anchor="start" x="50" y="-113.9" font-family="Arial" font-size="14.00" fill="#000000">type_name    </text>
<text text-anchor="start" x="153.4516" y="-113.9" font-family="Arial" font-size="14.00" fill="#666666">[varchar(255)]</text>
<polygon fill="none" stroke="#000000" points="43,-72.5 43,-102.5 325,-102.5 325,-72.5 43,-72.5"/>
<text text-anchor="start" x="50" y="-83.9" font-family="Arial" font-size="14.00" fill="#000000">created_at    </text>
<text text-anchor="start" x="150.3422" y="-83.9" font-family="Arial" font-size="14.00" fill="#666666">[datetime]</text>
<polygon fill="none" stroke="#000000" points="43,-42.5 43,-72.5 325,-72.5 325,-42.5 43,-42.5"/>
<text text-anchor="start" x="50" y="-53.9" font-family="Arial" font-size="14.00" fill="#000000">updated_at    </text>
<text text-anchor="start" x="154.2468" y="-53.9" font-family="Arial" font-size="14.00" fill="#666666">[datetime]</text>
</g>
<!-- app_statuses&#45;&gt;app_status_types -->
<g id="edge1" class="edge">
<title>app_statuses:status_type_id&#45;&gt;app_status_types:id</title>
<path fill="none" stroke="#000000" d="M318.1039,-455.183C378.4972,-426.815 390.4889,-147.5 325,-147.5"/>
<polygon fill="#000000" stroke="#000000" points="317.747,-455.2647 306.9941,-453.1139 312.8735,-456.3824 308,-457.5 308,-457.5 308,-457.5 312.8735,-456.3824 309.0059,-461.8861 317.747,-455.2647 317.747,-455.2647"/>
<text text-anchor="start" x="315.142" y="-467.5" font-family="Arial" font-size="10.00" fill="#000000">FOREIGN KEY (status_type_id) REFERENCES app_status_types (id)</text>
</g>
</g>
</svg>
