<?xml version="1.0" encoding="UTF-8" standalone="no"?>
<!DOCTYPE svg PUBLIC "-//W3C//DTD SVG 1.1//EN"
 "http://www.w3.org/Graphics/SVG/1.1/DTD/svg11.dtd">
<!-- Generated by graphviz version 12.1.2 (20240928.0832)
 -->
<!-- Title: cost_types Pages: 1 -->
<svg width="583pt" height="602pt"
 viewBox="0.00 0.00 582.55 602.00" xmlns="http://www.w3.org/2000/svg" xmlns:xlink="http://www.w3.org/1999/xlink">
<g id="graph0" class="graph" transform="scale(1 1) rotate(0) translate(4 598)">
<title>cost_types</title>
<polygon fill="white" stroke="none" points="-4,4 -4,-598 578.55,-598 578.55,4 -4,4"/>
<!-- cost_types -->
<g id="node1" class="node">
<title>cost_types</title>
<polygon fill="#efefef" stroke="none" points="57.71,-169.4 57.71,-205 272.19,-205 272.19,-169.4 57.71,-169.4"/>
<polygon fill="none" stroke="black" points="57.71,-169.4 57.71,-205 272.19,-205 272.19,-169.4 57.71,-169.4"/>
<text text-anchor="start" x="64.71" y="-182.8" font-family="Arial Bold" font-size="18.00">cost_types</text>
<text text-anchor="start" x="140.7" y="-182.8" font-family="Arial" font-size="14.00">    </text>
<text text-anchor="start" x="171.81" y="-182.8" font-family="Arial" font-size="14.00" fill="#666666">[BASE TABLE]</text>
<polygon fill="none" stroke="black" points="57.71,-138.6 57.71,-169.4 272.19,-169.4 272.19,-138.6 57.71,-138.6"/>
<text text-anchor="start" x="64.71" y="-150.8" font-family="Arial" font-size="14.00">id </text>
<text text-anchor="start" x="79.49" y="-150.8" font-family="Arial" font-size="14.00" fill="#666666">[bigint(20) unsigned]</text>
<polygon fill="none" stroke="black" points="57.71,-107.8 57.71,-138.6 272.19,-138.6 272.19,-107.8 57.71,-107.8"/>
<text text-anchor="start" x="64.71" y="-120" font-family="Arial" font-size="14.00">type_name </text>
<text text-anchor="start" x="137.86" y="-120" font-family="Arial" font-size="14.00" fill="#666666">[varchar(255)]</text>
<polygon fill="none" stroke="black" points="57.71,-77 57.71,-107.8 272.19,-107.8 272.19,-77 57.71,-77"/>
<text text-anchor="start" x="64.71" y="-89.2" font-family="Arial" font-size="14.00">created_at </text>
<text text-anchor="start" x="134.75" y="-89.2" font-family="Arial" font-size="14.00" fill="#666666">[datetime]</text>
<polygon fill="none" stroke="black" points="57.71,-46.2 57.71,-77 272.19,-77 272.19,-46.2 57.71,-46.2"/>
<text text-anchor="start" x="64.71" y="-58.4" font-family="Arial" font-size="14.00">updated_at </text>
<text text-anchor="start" x="138.66" y="-58.4" font-family="Arial" font-size="14.00" fill="#666666">[datetime]</text>
<polygon fill="none" stroke="black" stroke-width="3" points="56.21,-44.7 56.21,-206.5 273.69,-206.5 273.69,-44.7 56.21,-44.7"/>
</g>
<!-- monthly_costs -->
<g id="node2" class="node">
<title>monthly_costs</title>
<polygon fill="#efefef" stroke="none" points="43.2,-515.2 43.2,-550.8 286.69,-550.8 286.69,-515.2 43.2,-515.2"/>
<polygon fill="none" stroke="black" points="43.2,-515.2 43.2,-550.8 286.69,-550.8 286.69,-515.2 43.2,-515.2"/>
<text text-anchor="start" x="50.2" y="-528.6" font-family="Arial Bold" font-size="18.00">monthly_costs</text>
<text text-anchor="start" x="155.2" y="-528.6" font-family="Arial" font-size="14.00">    </text>
<text text-anchor="start" x="186.32" y="-528.6" font-family="Arial" font-size="14.00" fill="#666666">[BASE TABLE]</text>
<polygon fill="none" stroke="black" points="43.2,-484.4 43.2,-515.2 286.69,-515.2 286.69,-484.4 43.2,-484.4"/>
<text text-anchor="start" x="50.2" y="-496.6" font-family="Arial" font-size="14.00">cost_type_id </text>
<text text-anchor="start" x="132.7" y="-496.6" font-family="Arial" font-size="14.00" fill="#666666">[bigint(20) unsigned]</text>
<polygon fill="none" stroke="black" points="43.2,-453.6 43.2,-484.4 286.69,-484.4 286.69,-453.6 43.2,-453.6"/>
<text text-anchor="start" x="50.2" y="-465.8" font-family="Arial" font-size="14.00">cost_year </text>
<text text-anchor="start" x="114.79" y="-465.8" font-family="Arial" font-size="14.00" fill="#666666">[int(10) unsigned]</text>
<polygon fill="none" stroke="black" points="43.2,-422.8 43.2,-453.6 286.69,-453.6 286.69,-422.8 43.2,-422.8"/>
<text text-anchor="start" x="50.2" y="-435" font-family="Arial" font-size="14.00">cost_month </text>
<text text-anchor="start" x="126.46" y="-435" font-family="Arial" font-size="14.00" fill="#666666">[int(10) unsigned]</text>
<polygon fill="none" stroke="black" points="43.2,-392 43.2,-422.8 286.69,-422.8 286.69,-392 43.2,-392"/>
<text text-anchor="start" x="50.2" y="-404.2" font-family="Arial" font-size="14.00">cost_yen </text>
<text text-anchor="start" x="110.12" y="-404.2" font-family="Arial" font-size="14.00" fill="#666666">[int(10) unsigned]</text>
<polygon fill="none" stroke="black" points="43.2,-361.2 43.2,-392 286.69,-392 286.69,-361.2 43.2,-361.2"/>
<text text-anchor="start" x="50.2" y="-373.4" font-family="Arial" font-size="14.00">created_at </text>
<text text-anchor="start" x="120.25" y="-373.4" font-family="Arial" font-size="14.00" fill="#666666">[datetime]</text>
<polygon fill="none" stroke="black" points="43.2,-330.4 43.2,-361.2 286.69,-361.2 286.69,-330.4 43.2,-330.4"/>
<text text-anchor="start" x="50.2" y="-342.6" font-family="Arial" font-size="14.00">updated_at </text>
<text text-anchor="start" x="124.16" y="-342.6" font-family="Arial" font-size="14.00" fill="#666666">[datetime]</text>
</g>
<!-- monthly_costs&#45;&gt;cost_types -->
<g id="edge1" class="edge">
<title>monthly_costs:cost_type_id&#45;&gt;cost_types:id</title>
<path fill="none" stroke="black" d="M297.51,-497.77C363.17,-469.43 346.64,-154 273.19,-154"/>
<polygon fill="black" stroke="black" points="297.81,-497.71 287.11,-495.33 292.59,-498.79 288.35,-499.66 288.35,-499.66 288.35,-499.66 292.59,-498.79 288.93,-504.14 297.81,-497.71"/>
<text text-anchor="start" x="294.69" y="-509.8" font-family="Arial" font-size="10.00">FOREIGN KEY (cost_type_id) REFERENCES cost_types (id)</text>
</g>
</g>
</svg>
