<?xml version="1.0" encoding="UTF-8" standalone="no"?>
<!DOCTYPE svg PUBLIC "-//W3C//DTD SVG 1.1//EN"
 "http://www.w3.org/Graphics/SVG/1.1/DTD/svg11.dtd">
<!-- Generated by graphviz version 2.40.1 (20161225.0304)
 -->
<!-- Title: cost_types Pages: 1 -->
<svg width="593pt" height="592pt"
 viewBox="0.00 0.00 593.00 592.00" xmlns="http://www.w3.org/2000/svg" xmlns:xlink="http://www.w3.org/1999/xlink">
<g id="graph0" class="graph" transform="scale(1 1) rotate(0) translate(4 588)">
<title>cost_types</title>
<polygon fill="#ffffff" stroke="transparent" points="-4,4 -4,-588 589,-588 589,4 -4,4"/>
<!-- cost_types -->
<g id="node1" class="node">
<title>cost_types</title>
<polygon fill="#efefef" stroke="transparent" points="300,-165.5 300,-200.5 527,-200.5 527,-165.5 300,-165.5"/>
<polygon fill="none" stroke="#000000" points="300,-165.5 300,-200.5 527,-200.5 527,-165.5 300,-165.5"/>
<text text-anchor="start" x="306.7014" y="-178.3" font-family="Arial Bold" font-size="18.00" fill="#000000">cost_types</text>
<text text-anchor="start" x="392.7306" y="-178.3" font-family="Arial" font-size="14.00" fill="#000000">    </text>
<text text-anchor="start" x="426.9354" y="-178.3" font-family="Arial" font-size="14.00" fill="#666666">[BASE TABLE]</text>
<polygon fill="none" stroke="#000000" points="300,-135.5 300,-165.5 527,-165.5 527,-135.5 300,-135.5"/>
<text text-anchor="start" x="307" y="-146.9" font-family="Arial" font-size="14.00" fill="#000000">id </text>
<text text-anchor="start" x="321.7798" y="-146.9" font-family="Arial" font-size="14.00" fill="#666666">[bigint(20) unsigned]</text>
<polygon fill="none" stroke="#000000" points="300,-105.5 300,-135.5 527,-135.5 527,-105.5 300,-105.5"/>
<text text-anchor="start" x="307" y="-116.9" font-family="Arial" font-size="14.00" fill="#000000">type_name </text>
<text text-anchor="start" x="380.1374" y="-116.9" font-family="Arial" font-size="14.00" fill="#666666">[varchar(255)]</text>
<polygon fill="none" stroke="#000000" points="300,-75.5 300,-105.5 527,-105.5 527,-75.5 300,-75.5"/>
<text text-anchor="start" x="307" y="-86.9" font-family="Arial" font-size="14.00" fill="#000000">created_at </text>
<text text-anchor="start" x="377.028" y="-86.9" font-family="Arial" font-size="14.00" fill="#666666">[datetime]</text>
<polygon fill="none" stroke="#000000" points="300,-45.5 300,-75.5 527,-75.5 527,-45.5 300,-45.5"/>
<text text-anchor="start" x="307" y="-56.9" font-family="Arial" font-size="14.00" fill="#000000">updated_at </text>
<text text-anchor="start" x="380.9326" y="-56.9" font-family="Arial" font-size="14.00" fill="#666666">[datetime]</text>
<polygon fill="none" stroke="#000000" stroke-width="3" points="298,-44.5 298,-202.5 528,-202.5 528,-44.5 298,-44.5"/>
</g>
<!-- monthly_costs -->
<g id="node2" class="node">
<title>monthly_costs</title>
<polygon fill="#efefef" stroke="transparent" points="286,-505.5 286,-540.5 542,-540.5 542,-505.5 286,-505.5"/>
<polygon fill="none" stroke="#000000" points="286,-505.5 286,-540.5 542,-540.5 542,-505.5 286,-505.5"/>
<text text-anchor="start" x="292.7051" y="-518.3" font-family="Arial Bold" font-size="18.00" fill="#000000">monthly_costs</text>
<text text-anchor="start" x="407.7269" y="-518.3" font-family="Arial" font-size="14.00" fill="#000000">    </text>
<text text-anchor="start" x="441.9317" y="-518.3" font-family="Arial" font-size="14.00" fill="#666666">[BASE TABLE]</text>
<polygon fill="none" stroke="#000000" points="286,-475.5 286,-505.5 542,-505.5 542,-475.5 286,-475.5"/>
<text text-anchor="start" x="293" y="-486.9" font-family="Arial" font-size="14.00" fill="#000000">cost_type_id    </text>
<text text-anchor="start" x="405.7882" y="-486.9" font-family="Arial" font-size="14.00" fill="#666666">[bigint(20) unsigned]</text>
<polygon fill="none" stroke="#000000" points="286,-445.5 286,-475.5 542,-475.5 542,-445.5 286,-445.5"/>
<text text-anchor="start" x="293" y="-456.9" font-family="Arial" font-size="14.00" fill="#000000">cost_year    </text>
<text text-anchor="start" x="387.8864" y="-456.9" font-family="Arial" font-size="14.00" fill="#666666">[int(10) unsigned]</text>
<polygon fill="none" stroke="#000000" points="286,-415.5 286,-445.5 542,-445.5 542,-415.5 286,-415.5"/>
<text text-anchor="start" x="293" y="-426.9" font-family="Arial" font-size="14.00" fill="#000000">cost_month    </text>
<text text-anchor="start" x="399.5596" y="-426.9" font-family="Arial" font-size="14.00" fill="#666666">[int(10) unsigned]</text>
<polygon fill="none" stroke="#000000" points="286,-385.5 286,-415.5 542,-415.5 542,-385.5 286,-385.5"/>
<text text-anchor="start" x="293" y="-396.9" font-family="Arial" font-size="14.00" fill="#000000">cost_yen    </text>
<text text-anchor="start" x="383.2258" y="-396.9" font-family="Arial" font-size="14.00" fill="#666666">[int(10) unsigned]</text>
<polygon fill="none" stroke="#000000" points="286,-355.5 286,-385.5 542,-385.5 542,-355.5 286,-355.5"/>
<text text-anchor="start" x="293" y="-366.9" font-family="Arial" font-size="14.00" fill="#000000">created_at    </text>
<text text-anchor="start" x="393.3422" y="-366.9" font-family="Arial" font-size="14.00" fill="#666666">[datetime]</text>
<polygon fill="none" stroke="#000000" points="286,-325.5 286,-355.5 542,-355.5 542,-325.5 286,-325.5"/>
<text text-anchor="start" x="293" y="-336.9" font-family="Arial" font-size="14.00" fill="#000000">updated_at    </text>
<text text-anchor="start" x="397.2468" y="-336.9" font-family="Arial" font-size="14.00" fill="#666666">[datetime]</text>
</g>
<!-- monthly_costs&#45;&gt;cost_types -->
<g id="edge1" class="edge">
<title>monthly_costs:cost_type_id&#45;&gt;cost_types:id</title>
<path fill="none" stroke="#000000" d="M275.7557,-489.8822C196.3224,-479.8505 228.1502,-350.1332 286,-283 356.6965,-200.9586 456.3035,-329.0414 527,-247 554.9973,-214.5099 569.8889,-150.5 527,-150.5"/>
<polygon fill="#000000" stroke="#000000" points="276.0181,-489.8979 285.7291,-494.9918 281.0091,-490.199 286,-490.5 286,-490.5 286,-490.5 281.0091,-490.199 286.2709,-486.0082 276.0181,-489.8979 276.0181,-489.8979"/>
<text text-anchor="start" x="6.598" y="-500.5" font-family="Arial" font-size="10.00" fill="#000000">FOREIGN KEY (cost_type_id) REFERENCES cost_types (id)</text>
</g>
</g>
</svg>
