<?xml version="1.0" encoding="UTF-8" standalone="no"?>
<!DOCTYPE svg PUBLIC "-//W3C//DTD SVG 1.1//EN"
 "http://www.w3.org/Graphics/SVG/1.1/DTD/svg11.dtd">
<!-- Generated by graphviz version 2.40.1 (20161225.0304)
 -->
<!-- Title: electricity_fetch_settings Pages: 1 -->
<svg width="1838pt" height="772pt"
 viewBox="0.00 0.00 1838.00 772.00" xmlns="http://www.w3.org/2000/svg" xmlns:xlink="http://www.w3.org/1999/xlink">
<g id="graph0" class="graph" transform="scale(1 1) rotate(0) translate(4 768)">
<title>electricity_fetch_settings</title>
<polygon fill="#ffffff" stroke="transparent" points="-4,4 -4,-768 1834,-768 1834,4 -4,4"/>
<!-- electricity_fetch_settings -->
<g id="node1" class="node">
<title>electricity_fetch_settings</title>
<polygon fill="#efefef" stroke="transparent" points="742,-285.5 742,-320.5 1079,-320.5 1079,-285.5 742,-285.5"/>
<polygon fill="none" stroke="#000000" points="742,-285.5 742,-320.5 1079,-320.5 1079,-285.5 742,-285.5"/>
<text text-anchor="start" x="748.697" y="-298.3" font-family="Arial Bold" font-size="18.00" fill="#000000">electricity_fetch_settings</text>
<text text-anchor="start" x="944.735" y="-298.3" font-family="Arial" font-size="14.00" fill="#000000">    </text>
<text text-anchor="start" x="978.9398" y="-298.3" font-family="Arial" font-size="14.00" fill="#666666">[BASE TABLE]</text>
<polygon fill="none" stroke="#000000" points="742,-255.5 742,-285.5 1079,-285.5 1079,-255.5 742,-255.5"/>
<text text-anchor="start" x="749" y="-266.9" font-family="Arial" font-size="14.00" fill="#000000">id </text>
<text text-anchor="start" x="763.7798" y="-266.9" font-family="Arial" font-size="14.00" fill="#666666">[bigint(20) unsigned]</text>
<polygon fill="none" stroke="#000000" points="742,-225.5 742,-255.5 1079,-255.5 1079,-225.5 742,-225.5"/>
<text text-anchor="start" x="749" y="-236.9" font-family="Arial" font-size="14.00" fill="#000000">setting_name </text>
<text text-anchor="start" x="836.9172" y="-236.9" font-family="Arial" font-size="14.00" fill="#666666">[varchar(255)]</text>
<polygon fill="none" stroke="#000000" points="742,-195.5 742,-225.5 1079,-225.5 1079,-195.5 742,-195.5"/>
<text text-anchor="start" x="749" y="-206.9" font-family="Arial" font-size="14.00" fill="#000000">electricity_site_id </text>
<text text-anchor="start" x="859.4516" y="-206.9" font-family="Arial" font-size="14.00" fill="#666666">[bigint(20) unsigned]</text>
<polygon fill="none" stroke="#000000" points="742,-165.5 742,-195.5 1079,-195.5 1079,-165.5 742,-165.5"/>
<text text-anchor="start" x="749" y="-176.9" font-family="Arial" font-size="14.00" fill="#000000">user_name </text>
<text text-anchor="start" x="822.9074" y="-176.9" font-family="Arial" font-size="14.00" fill="#666666">[varchar(255)]</text>
<polygon fill="none" stroke="#000000" points="742,-135.5 742,-165.5 1079,-165.5 1079,-135.5 742,-135.5"/>
<text text-anchor="start" x="749" y="-146.9" font-family="Arial" font-size="14.00" fill="#000000">encrypted_password </text>
<text text-anchor="start" x="882.035" y="-146.9" font-family="Arial" font-size="14.00" fill="#666666">[varchar(512)]</text>
<polygon fill="none" stroke="#000000" points="742,-105.5 742,-135.5 1079,-135.5 1079,-105.5 742,-105.5"/>
<text text-anchor="start" x="749" y="-116.9" font-family="Arial" font-size="14.00" fill="#000000">fetch_enable </text>
<text text-anchor="start" x="833.0392" y="-116.9" font-family="Arial" font-size="14.00" fill="#666666">[tinyint(1)]</text>
<polygon fill="none" stroke="#000000" points="742,-75.5 742,-105.5 1079,-105.5 1079,-75.5 742,-75.5"/>
<text text-anchor="start" x="749" y="-86.9" font-family="Arial" font-size="14.00" fill="#000000">created_at </text>
<text text-anchor="start" x="819.028" y="-86.9" font-family="Arial" font-size="14.00" fill="#666666">[datetime]</text>
<polygon fill="none" stroke="#000000" points="742,-45.5 742,-75.5 1079,-75.5 1079,-45.5 742,-45.5"/>
<text text-anchor="start" x="749" y="-56.9" font-family="Arial" font-size="14.00" fill="#000000">updated_at </text>
<text text-anchor="start" x="822.9326" y="-56.9" font-family="Arial" font-size="14.00" fill="#666666">[datetime]</text>
<polygon fill="none" stroke="#000000" stroke-width="3" points="740,-44.5 740,-322.5 1080,-322.5 1080,-44.5 740,-44.5"/>
</g>
<!-- electricity_daily_usages -->
<g id="node2" class="node">
<title>electricity_daily_usages</title>
<polygon fill="#efefef" stroke="transparent" points="70,-670.5 70,-705.5 409,-705.5 409,-670.5 70,-670.5"/>
<polygon fill="none" stroke="#000000" points="70,-670.5 70,-705.5 409,-705.5 409,-670.5 70,-670.5"/>
<text text-anchor="start" x="80.7012" y="-683.3" font-family="Arial Bold" font-size="18.00" fill="#000000">electricity_daily_usages</text>
<text text-anchor="start" x="270.7308" y="-683.3" font-family="Arial" font-size="14.00" fill="#000000">    </text>
<text text-anchor="start" x="304.9356" y="-683.3" font-family="Arial" font-size="14.00" fill="#666666">[BASE TABLE]</text>
<polygon fill="none" stroke="#000000" points="70,-640.5 70,-670.5 409,-670.5 409,-640.5 70,-640.5"/>
<text text-anchor="start" x="76.9187" y="-651.9" font-family="Arial" font-size="14.00" fill="#000000">electricity_fetch_setting_id    </text>
<text text-anchor="start" x="275.2693" y="-651.9" font-family="Arial" font-size="14.00" fill="#666666">[bigint(20) unsigned]</text>
<polygon fill="none" stroke="#000000" points="70,-610.5 70,-640.5 409,-640.5 409,-610.5 70,-610.5"/>
<text text-anchor="start" x="77" y="-621.9" font-family="Arial" font-size="14.00" fill="#000000">usage_year    </text>
<text text-anchor="start" x="184.3436" y="-621.9" font-family="Arial" font-size="14.00" fill="#666666">[int(10) unsigned]</text>
<polygon fill="none" stroke="#000000" points="70,-580.5 70,-610.5 409,-610.5 409,-580.5 70,-580.5"/>
<text text-anchor="start" x="77" y="-591.9" font-family="Arial" font-size="14.00" fill="#000000">usage_month    </text>
<text text-anchor="start" x="196.0168" y="-591.9" font-family="Arial" font-size="14.00" fill="#666666">[int(10) unsigned]</text>
<polygon fill="none" stroke="#000000" points="70,-550.5 70,-580.5 409,-580.5 409,-550.5 70,-550.5"/>
<text text-anchor="start" x="77" y="-561.9" font-family="Arial" font-size="14.00" fill="#000000">usage_date    </text>
<text text-anchor="start" x="184.3562" y="-561.9" font-family="Arial" font-size="14.00" fill="#666666">[int(10) unsigned]</text>
<polygon fill="none" stroke="#000000" points="70,-520.5 70,-550.5 409,-550.5 409,-520.5 70,-520.5"/>
<text text-anchor="start" x="77" y="-531.9" font-family="Arial" font-size="14.00" fill="#000000">usage_amount    </text>
<text text-anchor="start" x="203.7994" y="-531.9" font-family="Arial" font-size="14.00" fill="#666666">[decimal(15,5) unsigned]</text>
<polygon fill="none" stroke="#000000" points="70,-490.5 70,-520.5 409,-520.5 409,-490.5 70,-490.5"/>
<text text-anchor="start" x="77" y="-501.9" font-family="Arial" font-size="14.00" fill="#000000">created_at    </text>
<text text-anchor="start" x="177.3422" y="-501.9" font-family="Arial" font-size="14.00" fill="#666666">[datetime]</text>
<polygon fill="none" stroke="#000000" points="70,-460.5 70,-490.5 409,-490.5 409,-460.5 70,-460.5"/>
<text text-anchor="start" x="77" y="-471.9" font-family="Arial" font-size="14.00" fill="#000000">updated_at    </text>
<text text-anchor="start" x="181.2468" y="-471.9" font-family="Arial" font-size="14.00" fill="#666666">[datetime]</text>
</g>
<!-- electricity_daily_usages&#45;&gt;electricity_fetch_settings -->
<g id="edge1" class="edge">
<title>electricity_daily_usages:electricity_fetch_setting_id&#45;&gt;electricity_fetch_settings:id</title>
<path fill="none" stroke="#000000" d="M419.0288,-655.0312C515.4376,-645.4174 392.3651,-490.2326 461,-403 546.3797,-294.4853 603.9234,-270.5 742,-270.5"/>
<polygon fill="#000000" stroke="#000000" points="418.9891,-655.033 408.7898,-651.0049 413.9945,-655.2665 409,-655.5 409,-655.5 409,-655.5 413.9945,-655.2665 409.2102,-659.9951 418.9891,-655.033 418.9891,-655.033"/>
<text text-anchor="start" x="7.482" y="-665.5" font-family="Arial" font-size="10.00" fill="#000000">FOREIGN KEY (electricity_fetch_setting_id) REFERENCES electricity_fetch_settings (id)</text>
</g>
<!-- electricity_fetch_statuses -->
<g id="node3" class="node">
<title>electricity_fetch_statuses</title>
<polygon fill="#efefef" stroke="transparent" points="513,-670.5 513,-705.5 855,-705.5 855,-670.5 513,-670.5"/>
<polygon fill="none" stroke="#000000" points="513,-670.5 513,-705.5 855,-705.5 855,-670.5 513,-670.5"/>
<text text-anchor="start" x="519.6941" y="-683.3" font-family="Arial Bold" font-size="18.00" fill="#000000">electricity_fetch_statuses</text>
<text text-anchor="start" x="720.7379" y="-683.3" font-family="Arial" font-size="14.00" fill="#000000">    </text>
<text text-anchor="start" x="754.9427" y="-683.3" font-family="Arial" font-size="14.00" fill="#666666">[BASE TABLE]</text>
<polygon fill="none" stroke="#000000" points="513,-640.5 513,-670.5 855,-670.5 855,-640.5 513,-640.5"/>
<text text-anchor="start" x="520" y="-651.9" font-family="Arial" font-size="14.00" fill="#000000">id    </text>
<text text-anchor="start" x="565.094" y="-651.9" font-family="Arial" font-size="14.00" fill="#666666">[bigint(20) unsigned]</text>
<polygon fill="none" stroke="#000000" points="513,-610.5 513,-640.5 855,-640.5 855,-610.5 513,-610.5"/>
<text text-anchor="start" x="520" y="-621.9" font-family="Arial" font-size="14.00" fill="#000000">electricity_fetch_setting_id    </text>
<text text-anchor="start" x="718.3506" y="-621.9" font-family="Arial" font-size="14.00" fill="#666666">[bigint(20) unsigned]</text>
<polygon fill="none" stroke="#000000" points="513,-580.5 513,-610.5 855,-610.5 855,-580.5 513,-580.5"/>
<text text-anchor="start" x="520" y="-591.9" font-family="Arial" font-size="14.00" fill="#000000">status_type_id    </text>
<text text-anchor="start" x="644.4614" y="-591.9" font-family="Arial" font-size="14.00" fill="#666666">[tinyint(3) unsigned]</text>
<polygon fill="none" stroke="#000000" points="513,-550.5 513,-580.5 855,-580.5 855,-550.5 513,-550.5"/>
<text text-anchor="start" x="520" y="-561.9" font-family="Arial" font-size="14.00" fill="#000000">last_successful_at    </text>
<text text-anchor="start" x="668.568" y="-561.9" font-family="Arial" font-size="14.00" fill="#666666">[datetime]</text>
<polygon fill="none" stroke="#000000" points="513,-520.5 513,-550.5 855,-550.5 855,-520.5 513,-520.5"/>
<text text-anchor="start" x="520" y="-531.9" font-family="Arial" font-size="14.00" fill="#000000">last_failure_at    </text>
<text text-anchor="start" x="641.3352" y="-531.9" font-family="Arial" font-size="14.00" fill="#666666">[datetime]</text>
<polygon fill="none" stroke="#000000" points="513,-490.5 513,-520.5 855,-520.5 855,-490.5 513,-490.5"/>
<text text-anchor="start" x="520" y="-501.9" font-family="Arial" font-size="14.00" fill="#000000">created_at    </text>
<text text-anchor="start" x="620.3422" y="-501.9" font-family="Arial" font-size="14.00" fill="#666666">[datetime]</text>
<polygon fill="none" stroke="#000000" points="513,-460.5 513,-490.5 855,-490.5 855,-460.5 513,-460.5"/>
<text text-anchor="start" x="520" y="-471.9" font-family="Arial" font-size="14.00" fill="#000000">updated_at    </text>
<text text-anchor="start" x="624.2468" y="-471.9" font-family="Arial" font-size="14.00" fill="#666666">[datetime]</text>
</g>
<!-- electricity_fetch_statuses&#45;&gt;electricity_fetch_settings -->
<g id="edge2" class="edge">
<title>electricity_fetch_statuses:electricity_fetch_setting_id&#45;&gt;electricity_fetch_settings:id</title>
<path fill="none" stroke="#000000" d="M864.6069,-622.5523C897.791,-599.9242 878.0613,-453.7094 855,-418 825.1076,-371.7129 771.8924,-413.2871 742,-367 718.7324,-330.9712 699.1111,-270.5 742,-270.5"/>
<polygon fill="#000000" stroke="#000000" points="864.5601,-622.5666 853.68,-621.198 859.7801,-624.0333 855,-625.5 855,-625.5 855,-625.5 859.7801,-624.0333 856.32,-629.802 864.5601,-622.5666 864.5601,-622.5666"/>
<text text-anchor="start" x="862.482" y="-635.5" font-family="Arial" font-size="10.00" fill="#000000">FOREIGN KEY (electricity_fetch_setting_id) REFERENCES electricity_fetch_settings (id)</text>
</g>
<!-- electricity_monthly_usages -->
<g id="node4" class="node">
<title>electricity_monthly_usages</title>
<polygon fill="#efefef" stroke="transparent" points="960,-685.5 960,-720.5 1317,-720.5 1317,-685.5 960,-685.5"/>
<polygon fill="none" stroke="#000000" points="960,-685.5 960,-720.5 1317,-720.5 1317,-685.5 960,-685.5"/>
<text text-anchor="start" x="966.698" y="-698.3" font-family="Arial Bold" font-size="18.00" fill="#000000">electricity_monthly_usages</text>
<text text-anchor="start" x="1182.734" y="-698.3" font-family="Arial" font-size="14.00" fill="#000000">    </text>
<text text-anchor="start" x="1216.9388" y="-698.3" font-family="Arial" font-size="14.00" fill="#666666">[BASE TABLE]</text>
<polygon fill="none" stroke="#000000" points="960,-655.5 960,-685.5 1317,-685.5 1317,-655.5 960,-655.5"/>
<text text-anchor="start" x="967" y="-666.9" font-family="Arial" font-size="14.00" fill="#000000">electricity_fetch_setting_id    </text>
<text text-anchor="start" x="1165.3506" y="-666.9" font-family="Arial" font-size="14.00" fill="#666666">[bigint(20) unsigned]</text>
<polygon fill="none" stroke="#000000" points="960,-625.5 960,-655.5 1317,-655.5 1317,-625.5 960,-625.5"/>
<text text-anchor="start" x="967" y="-636.9" font-family="Arial" font-size="14.00" fill="#000000">usage_year    </text>
<text text-anchor="start" x="1074.3436" y="-636.9" font-family="Arial" font-size="14.00" fill="#666666">[int(10) unsigned]</text>
<polygon fill="none" stroke="#000000" points="960,-595.5 960,-625.5 1317,-625.5 1317,-595.5 960,-595.5"/>
<text text-anchor="start" x="967" y="-606.9" font-family="Arial" font-size="14.00" fill="#000000">usage_month    </text>
<text text-anchor="start" x="1086.0168" y="-606.9" font-family="Arial" font-size="14.00" fill="#666666">[int(10) unsigned]</text>
<polygon fill="none" stroke="#000000" points="960,-565.5 960,-595.5 1317,-595.5 1317,-565.5 960,-565.5"/>
<text text-anchor="start" x="967" y="-576.9" font-family="Arial" font-size="14.00" fill="#000000">usage_day_count    </text>
<text text-anchor="start" x="1111.704" y="-576.9" font-family="Arial" font-size="14.00" fill="#666666">[int(10) unsigned]</text>
<polygon fill="none" stroke="#000000" points="960,-535.5 960,-565.5 1317,-565.5 1317,-535.5 960,-535.5"/>
<text text-anchor="start" x="967" y="-546.9" font-family="Arial" font-size="14.00" fill="#000000">usage_kwh    </text>
<text text-anchor="start" x="1072.007" y="-546.9" font-family="Arial" font-size="14.00" fill="#666666">[int(10) unsigned]</text>
<polygon fill="none" stroke="#000000" points="960,-505.5 960,-535.5 1317,-535.5 1317,-505.5 960,-505.5"/>
<text text-anchor="start" x="967" y="-516.9" font-family="Arial" font-size="14.00" fill="#000000">usage_yen    </text>
<text text-anchor="start" x="1069.683" y="-516.9" font-family="Arial" font-size="14.00" fill="#666666">[int(10) unsigned]</text>
<polygon fill="none" stroke="#000000" points="960,-475.5 960,-505.5 1317,-505.5 1317,-475.5 960,-475.5"/>
<text text-anchor="start" x="967" y="-486.9" font-family="Arial" font-size="14.00" fill="#000000">created_at    </text>
<text text-anchor="start" x="1067.3422" y="-486.9" font-family="Arial" font-size="14.00" fill="#666666">[datetime]</text>
<polygon fill="none" stroke="#000000" points="960,-445.5 960,-475.5 1317,-475.5 1317,-445.5 960,-445.5"/>
<text text-anchor="start" x="967" y="-456.9" font-family="Arial" font-size="14.00" fill="#000000">updated_at    </text>
<text text-anchor="start" x="1071.2468" y="-456.9" font-family="Arial" font-size="14.00" fill="#666666">[datetime]</text>
</g>
<!-- electricity_monthly_usages&#45;&gt;electricity_fetch_settings -->
<g id="edge3" class="edge">
<title>electricity_monthly_usages:electricity_fetch_setting_id&#45;&gt;electricity_fetch_settings:id</title>
<path fill="none" stroke="#000000" d="M950.1044,-668.17C903.5055,-644.5182 926.7161,-447.8428 960,-403 992.9328,-358.6303 1046.0672,-411.3697 1079,-367 1104.5619,-332.561 1121.8889,-270.5 1079,-270.5"/>
<polygon fill="#000000" stroke="#000000" points="950.2662,-668.208 958.9686,-674.8802 955.1331,-669.354 960,-670.5 960,-670.5 960,-670.5 955.1331,-669.354 961.0314,-666.1198 950.2662,-668.208 950.2662,-668.208"/>
<text text-anchor="start" x="967.482" y="-680.5" font-family="Arial" font-size="10.00" fill="#000000">FOREIGN KEY (electricity_fetch_setting_id) REFERENCES electricity_fetch_settings (id)</text>
</g>
<!-- electricity_notify_settings -->
<g id="node5" class="node">
<title>electricity_notify_settings</title>
<polygon fill="#efefef" stroke="transparent" points="1421,-685.5 1421,-720.5 1762,-720.5 1762,-685.5 1421,-685.5"/>
<polygon fill="none" stroke="#000000" points="1421,-685.5 1421,-720.5 1762,-720.5 1762,-685.5 1421,-685.5"/>
<text text-anchor="start" x="1427.6999" y="-698.3" font-family="Arial Bold" font-size="18.00" fill="#000000">electricity_notify_settings</text>
<text text-anchor="start" x="1627.7321" y="-698.3" font-family="Arial" font-size="14.00" fill="#000000">    </text>
<text text-anchor="start" x="1661.9369" y="-698.3" font-family="Arial" font-size="14.00" fill="#666666">[BASE TABLE]</text>
<polygon fill="none" stroke="#000000" points="1421,-655.5 1421,-685.5 1762,-685.5 1762,-655.5 1421,-655.5"/>
<text text-anchor="start" x="1428" y="-666.9" font-family="Arial" font-size="14.00" fill="#000000">id    </text>
<text text-anchor="start" x="1473.094" y="-666.9" font-family="Arial" font-size="14.00" fill="#666666">[bigint(20) unsigned]</text>
<polygon fill="none" stroke="#000000" points="1421,-625.5 1421,-655.5 1762,-655.5 1762,-625.5 1421,-625.5"/>
<text text-anchor="start" x="1428" y="-636.9" font-family="Arial" font-size="14.00" fill="#000000">electricity_fetch_setting_id    </text>
<text text-anchor="start" x="1626.3506" y="-636.9" font-family="Arial" font-size="14.00" fill="#666666">[bigint(20) unsigned]</text>
<polygon fill="none" stroke="#000000" points="1421,-595.5 1421,-625.5 1762,-625.5 1762,-595.5 1421,-595.5"/>
<text text-anchor="start" x="1428" y="-606.9" font-family="Arial" font-size="14.00" fill="#000000">line_channel_id    </text>
<text text-anchor="start" x="1559.4572" y="-606.9" font-family="Arial" font-size="14.00" fill="#666666">[varchar(256)]</text>
<polygon fill="none" stroke="#000000" points="1421,-565.5 1421,-595.5 1762,-595.5 1762,-565.5 1421,-565.5"/>
<text text-anchor="start" x="1428" y="-576.9" font-family="Arial" font-size="14.00" fill="#000000">notify_date    </text>
<text text-anchor="start" x="1530.6788" y="-576.9" font-family="Arial" font-size="14.00" fill="#666666">[tinyint(3) unsigned]</text>
<polygon fill="none" stroke="#000000" points="1421,-535.5 1421,-565.5 1762,-565.5 1762,-535.5 1421,-535.5"/>
<text text-anchor="start" x="1428" y="-546.9" font-family="Arial" font-size="14.00" fill="#000000">notify_enable    </text>
<text text-anchor="start" x="1545.46" y="-546.9" font-family="Arial" font-size="14.00" fill="#666666">[tinyint(1)]</text>
<polygon fill="none" stroke="#000000" points="1421,-505.5 1421,-535.5 1762,-535.5 1762,-505.5 1421,-505.5"/>
<text text-anchor="start" x="1428" y="-516.9" font-family="Arial" font-size="14.00" fill="#000000">template    </text>
<text text-anchor="start" x="1515.8836" y="-516.9" font-family="Arial" font-size="14.00" fill="#666666">[text]</text>
<polygon fill="none" stroke="#000000" points="1421,-475.5 1421,-505.5 1762,-505.5 1762,-475.5 1421,-475.5"/>
<text text-anchor="start" x="1428" y="-486.9" font-family="Arial" font-size="14.00" fill="#000000">created_at    </text>
<text text-anchor="start" x="1528.3422" y="-486.9" font-family="Arial" font-size="14.00" fill="#666666">[datetime]</text>
<polygon fill="none" stroke="#000000" points="1421,-445.5 1421,-475.5 1762,-475.5 1762,-445.5 1421,-445.5"/>
<text text-anchor="start" x="1428" y="-456.9" font-family="Arial" font-size="14.00" fill="#000000">updated_at    </text>
<text text-anchor="start" x="1532.2468" y="-456.9" font-family="Arial" font-size="14.00" fill="#666666">[datetime]</text>
</g>
<!-- electricity_notify_settings&#45;&gt;electricity_fetch_settings -->
<g id="edge4" class="edge">
<title>electricity_notify_settings:electricity_fetch_setting_id&#45;&gt;electricity_fetch_settings:id</title>
<path fill="none" stroke="#000000" d="M1410.9883,-640.0008C1320.9608,-630.3895 1434.5982,-484.3049 1369,-403 1280.02,-292.7149 1220.7048,-270.5 1079,-270.5"/>
<polygon fill="#000000" stroke="#000000" points="1411.0124,-640.0019 1420.7759,-644.9944 1416.0062,-640.251 1421,-640.5 1421,-640.5 1421,-640.5 1416.0062,-640.251 1421.2241,-636.0056 1411.0124,-640.0019 1411.0124,-640.0019"/>
<text text-anchor="start" x="1428.482" y="-650.5" font-family="Arial" font-size="10.00" fill="#000000">FOREIGN KEY (electricity_fetch_setting_id) REFERENCES electricity_fetch_settings (id)</text>
</g>
</g>
</svg>
