<?xml version="1.0" encoding="UTF-8" standalone="no"?>
<!DOCTYPE svg PUBLIC "-//W3C//DTD SVG 1.1//EN"
 "http://www.w3.org/Graphics/SVG/1.1/DTD/svg11.dtd">
<!-- Generated by graphviz version 12.1.2 (20240928.0832)
 -->
<!-- Title: electricity_fetch_statuses Pages: 1 -->
<svg width="1070pt" height="756pt"
 viewBox="0.00 0.00 1070.32 756.00" xmlns="http://www.w3.org/2000/svg" xmlns:xlink="http://www.w3.org/1999/xlink">
<g id="graph0" class="graph" transform="scale(1 1) rotate(0) translate(4 752)">
<title>electricity_fetch_statuses</title>
<polygon fill="white" stroke="none" points="-4,4 -4,-752 1066.32,-752 1066.32,4 -4,4"/>
<!-- electricity_fetch_statuses -->
<g id="node1" class="node">
<title>electricity_fetch_statuses</title>
<polygon fill="#efefef" stroke="none" points="410.13,-666.2 410.13,-701.8 730.55,-701.8 730.55,-666.2 410.13,-666.2"/>
<polygon fill="none" stroke="black" points="410.13,-666.2 410.13,-701.8 730.55,-701.8 730.55,-666.2 410.13,-666.2"/>
<text text-anchor="start" x="417.13" y="-679.6" font-family="Arial Bold" font-size="18.00">electricity_fetch_statuses</text>
<text text-anchor="start" x="599.06" y="-679.6" font-family="Arial" font-size="14.00">    </text>
<text text-anchor="start" x="630.17" y="-679.6" font-family="Arial" font-size="14.00" fill="#666666">[BASE TABLE]</text>
<polygon fill="none" stroke="black" points="410.13,-635.4 410.13,-666.2 730.55,-666.2 730.55,-635.4 410.13,-635.4"/>
<text text-anchor="start" x="417.13" y="-647.6" font-family="Arial" font-size="14.00">id </text>
<text text-anchor="start" x="431.92" y="-647.6" font-family="Arial" font-size="14.00" fill="#666666">[bigint(20) unsigned]</text>
<polygon fill="none" stroke="black" points="410.13,-604.6 410.13,-635.4 730.55,-635.4 730.55,-604.6 410.13,-604.6"/>
<text text-anchor="start" x="417.13" y="-616.8" font-family="Arial" font-size="14.00">electricity_fetch_setting_id </text>
<text text-anchor="start" x="585.22" y="-616.8" font-family="Arial" font-size="14.00" fill="#666666">[bigint(20) unsigned]</text>
<polygon fill="none" stroke="black" points="410.13,-573.8 410.13,-604.6 730.55,-604.6 730.55,-573.8 410.13,-573.8"/>
<text text-anchor="start" x="417.13" y="-586" font-family="Arial" font-size="14.00">status_type_id </text>
<text text-anchor="start" x="511.3" y="-586" font-family="Arial" font-size="14.00" fill="#666666">[tinyint(3) unsigned]</text>
<polygon fill="none" stroke="black" points="410.13,-543 410.13,-573.8 730.55,-573.8 730.55,-543 410.13,-543"/>
<text text-anchor="start" x="417.13" y="-555.2" font-family="Arial" font-size="14.00">last_successful_at </text>
<text text-anchor="start" x="535.41" y="-555.2" font-family="Arial" font-size="14.00" fill="#666666">[datetime]</text>
<polygon fill="none" stroke="black" points="410.13,-512.2 410.13,-543 730.55,-543 730.55,-512.2 410.13,-512.2"/>
<text text-anchor="start" x="417.13" y="-524.4" font-family="Arial" font-size="14.00">last_failure_at </text>
<text text-anchor="start" x="508.19" y="-524.4" font-family="Arial" font-size="14.00" fill="#666666">[datetime]</text>
<polygon fill="none" stroke="black" points="410.13,-481.4 410.13,-512.2 730.55,-512.2 730.55,-481.4 410.13,-481.4"/>
<text text-anchor="start" x="417.13" y="-493.6" font-family="Arial" font-size="14.00">created_at </text>
<text text-anchor="start" x="487.18" y="-493.6" font-family="Arial" font-size="14.00" fill="#666666">[datetime]</text>
<polygon fill="none" stroke="black" points="410.13,-450.6 410.13,-481.4 730.55,-481.4 730.55,-450.6 410.13,-450.6"/>
<text text-anchor="start" x="417.13" y="-462.8" font-family="Arial" font-size="14.00">updated_at </text>
<text text-anchor="start" x="491.09" y="-462.8" font-family="Arial" font-size="14.00" fill="#666666">[datetime]</text>
<polygon fill="none" stroke="black" stroke-width="3" points="408.63,-449.1 408.63,-703.3 732.05,-703.3 732.05,-449.1 408.63,-449.1"/>
</g>
<!-- electricity_fetch_settings -->
<g id="node2" class="node">
<title>electricity_fetch_settings</title>
<polygon fill="#efefef" stroke="none" points="210.63,-289.6 210.63,-325.2 530.05,-325.2 530.05,-289.6 210.63,-289.6"/>
<polygon fill="none" stroke="black" points="210.63,-289.6 210.63,-325.2 530.05,-325.2 530.05,-289.6 210.63,-289.6"/>
<text text-anchor="start" x="217.63" y="-303" font-family="Arial Bold" font-size="18.00">electricity_fetch_settings</text>
<text text-anchor="start" x="398.56" y="-303" font-family="Arial" font-size="14.00">    </text>
<text text-anchor="start" x="429.68" y="-303" font-family="Arial" font-size="14.00" fill="#666666">[BASE TABLE]</text>
<polygon fill="none" stroke="black" points="210.63,-258.8 210.63,-289.6 530.05,-289.6 530.05,-258.8 210.63,-258.8"/>
<text text-anchor="start" x="217.63" y="-271" font-family="Arial" font-size="14.00">id </text>
<text text-anchor="start" x="232.41" y="-271" font-family="Arial" font-size="14.00" fill="#666666">[bigint(20) unsigned]</text>
<polygon fill="none" stroke="black" points="210.63,-228 210.63,-258.8 530.05,-258.8 530.05,-228 210.63,-228"/>
<text text-anchor="start" x="217.63" y="-240.2" font-family="Arial" font-size="14.00">setting_name </text>
<text text-anchor="start" x="305.57" y="-240.2" font-family="Arial" font-size="14.00" fill="#666666">[varchar(255)]</text>
<polygon fill="none" stroke="black" points="210.63,-197.2 210.63,-228 530.05,-228 530.05,-197.2 210.63,-197.2"/>
<text text-anchor="start" x="217.63" y="-209.4" font-family="Arial" font-size="14.00">electricity_site_id </text>
<text text-anchor="start" x="328.12" y="-209.4" font-family="Arial" font-size="14.00" fill="#666666">[bigint(20) unsigned]</text>
<polygon fill="none" stroke="black" points="210.63,-166.4 210.63,-197.2 530.05,-197.2 530.05,-166.4 210.63,-166.4"/>
<text text-anchor="start" x="217.63" y="-178.6" font-family="Arial" font-size="14.00">user_name </text>
<text text-anchor="start" x="291.56" y="-178.6" font-family="Arial" font-size="14.00" fill="#666666">[varchar(255)]</text>
<polygon fill="none" stroke="black" points="210.63,-135.6 210.63,-166.4 530.05,-166.4 530.05,-135.6 210.63,-135.6"/>
<text text-anchor="start" x="217.63" y="-147.8" font-family="Arial" font-size="14.00">encrypted_password </text>
<text text-anchor="start" x="350.7" y="-147.8" font-family="Arial" font-size="14.00" fill="#666666">[varchar(512)]</text>
<polygon fill="none" stroke="black" points="210.63,-104.8 210.63,-135.6 530.05,-135.6 530.05,-104.8 210.63,-104.8"/>
<text text-anchor="start" x="217.63" y="-117" font-family="Arial" font-size="14.00">fetch_enable </text>
<text text-anchor="start" x="301.7" y="-117" font-family="Arial" font-size="14.00" fill="#666666">[tinyint(1)]</text>
<polygon fill="none" stroke="black" points="210.63,-74 210.63,-104.8 530.05,-104.8 530.05,-74 210.63,-74"/>
<text text-anchor="start" x="217.63" y="-86.2" font-family="Arial" font-size="14.00">created_at </text>
<text text-anchor="start" x="287.68" y="-86.2" font-family="Arial" font-size="14.00" fill="#666666">[datetime]</text>
<polygon fill="none" stroke="black" points="210.63,-43.2 210.63,-74 530.05,-74 530.05,-43.2 210.63,-43.2"/>
<text text-anchor="start" x="217.63" y="-55.4" font-family="Arial" font-size="14.00">updated_at </text>
<text text-anchor="start" x="291.59" y="-55.4" font-family="Arial" font-size="14.00" fill="#666666">[datetime]</text>
</g>
<!-- electricity_fetch_statuses&#45;&gt;electricity_fetch_settings -->
<g id="edge1" class="edge">
<title>electricity_fetch_statuses:electricity_fetch_setting_id&#45;&gt;electricity_fetch_settings:id</title>
<path fill="none" stroke="black" d="M398.77,-619.41C316.34,-609.51 354.95,-478.23 410.13,-404.4 443.45,-359.83 496.6,-412.87 530.05,-368.4 555.22,-334.94 572.92,-274.2 531.05,-274.2"/>
<polygon fill="black" stroke="black" points="398.81,-619.41 408.54,-624.47 404.14,-619.71 408.46,-619.96 408.46,-619.96 408.46,-619.96 404.14,-619.71 409.05,-615.49 398.81,-619.41"/>
<text text-anchor="start" x="7" y="-630" font-family="Arial" font-size="10.00">FOREIGN KEY (electricity_fetch_setting_id) REFERENCES electricity_fetch_settings (id)</text>
</g>
<!-- fetch_status_types -->
<g id="node3" class="node">
<title>fetch_status_types</title>
<polygon fill="#efefef" stroke="none" points="634.61,-228 634.61,-263.6 906.07,-263.6 906.07,-228 634.61,-228"/>
<polygon fill="none" stroke="black" points="634.61,-228 634.61,-263.6 906.07,-263.6 906.07,-228 634.61,-228"/>
<text text-anchor="start" x="641.61" y="-241.4" font-family="Arial Bold" font-size="18.00">fetch_status_types</text>
<text text-anchor="start" x="774.58" y="-241.4" font-family="Arial" font-size="14.00">    </text>
<text text-anchor="start" x="805.7" y="-241.4" font-family="Arial" font-size="14.00" fill="#666666">[BASE TABLE]</text>
<polygon fill="none" stroke="black" points="634.61,-197.2 634.61,-228 906.07,-228 906.07,-197.2 634.61,-197.2"/>
<text text-anchor="start" x="641.61" y="-209.4" font-family="Arial" font-size="14.00">id </text>
<text text-anchor="start" x="656.4" y="-209.4" font-family="Arial" font-size="14.00" fill="#666666">[tinyint(3) unsigned]</text>
<polygon fill="none" stroke="black" points="634.61,-166.4 634.61,-197.2 906.07,-197.2 906.07,-166.4 634.61,-166.4"/>
<text text-anchor="start" x="641.61" y="-178.6" font-family="Arial" font-size="14.00">type_name </text>
<text text-anchor="start" x="714.77" y="-178.6" font-family="Arial" font-size="14.00" fill="#666666">[varchar(255)]</text>
<polygon fill="none" stroke="black" points="634.61,-135.6 634.61,-166.4 906.07,-166.4 906.07,-135.6 634.61,-135.6"/>
<text text-anchor="start" x="641.61" y="-147.8" font-family="Arial" font-size="14.00">created_at </text>
<text text-anchor="start" x="711.66" y="-147.8" font-family="Arial" font-size="14.00" fill="#666666">[datetime]</text>
<polygon fill="none" stroke="black" points="634.61,-104.8 634.61,-135.6 906.07,-135.6 906.07,-104.8 634.61,-104.8"/>
<text text-anchor="start" x="641.61" y="-117" font-family="Arial" font-size="14.00">updated_at </text>
<text text-anchor="start" x="715.57" y="-117" font-family="Arial" font-size="14.00" fill="#666666">[datetime]</text>
</g>
<!-- electricity_fetch_statuses&#45;&gt;fetch_status_types -->
<g id="edge2" class="edge">
<title>electricity_fetch_statuses:status_type_id&#45;&gt;fetch_status_types:id</title>
<path fill="none" stroke="black" d="M741.82,-588.55C809.07,-579.49 760.45,-476.92 730.55,-404.4 707.36,-348.17 657.94,-362.97 634.61,-306.8 618.55,-268.13 591.74,-212.6 633.61,-212.6"/>
<polygon fill="black" stroke="black" points="741.86,-588.55 731.6,-584.69 736.54,-588.89 732.21,-589.16 732.21,-589.16 732.21,-589.16 736.54,-588.89 732.16,-593.67 741.86,-588.55"/>
<text text-anchor="start" x="738.55" y="-599.2" font-family="Arial" font-size="10.00">FOREIGN KEY (status_type_id) REFERENCES fetch_status_types (id)</text>
</g>
</g>
</svg>
