<?xml version="1.0" encoding="UTF-8" standalone="no"?>
<!DOCTYPE svg PUBLIC "-//W3C//DTD SVG 1.1//EN"
 "http://www.w3.org/Graphics/SVG/1.1/DTD/svg11.dtd">
<!-- Generated by graphviz version 2.40.1 (20161225.0304)
 -->
<!-- Title: electricity_notify_settings Pages: 1 -->
<svg width="1159pt" height="1169pt"
 viewBox="0.00 0.00 1158.50 1169.00" xmlns="http://www.w3.org/2000/svg" xmlns:xlink="http://www.w3.org/1999/xlink">
<g id="graph0" class="graph" transform="scale(1 1) rotate(0) translate(4 1165)">
<title>electricity_notify_settings</title>
<polygon fill="#ffffff" stroke="transparent" points="-4,4 -4,-1165 1154.5,-1165 1154.5,4 -4,4"/>
<!-- electricity_notify_settings -->
<g id="node1" class="node">
<title>electricity_notify_settings</title>
<polygon fill="#efefef" stroke="transparent" points="439.5,-712.5 439.5,-747.5 780.5,-747.5 780.5,-712.5 439.5,-712.5"/>
<polygon fill="none" stroke="#000000" points="439.5,-712.5 439.5,-747.5 780.5,-747.5 780.5,-712.5 439.5,-712.5"/>
<text text-anchor="start" x="446.1999" y="-725.3" font-family="Arial Bold" font-size="18.00" fill="#000000">electricity_notify_settings</text>
<text text-anchor="start" x="646.2321" y="-725.3" font-family="Arial" font-size="14.00" fill="#000000">    </text>
<text text-anchor="start" x="680.4369" y="-725.3" font-family="Arial" font-size="14.00" fill="#666666">[BASE TABLE]</text>
<polygon fill="none" stroke="#000000" points="439.5,-682.5 439.5,-712.5 780.5,-712.5 780.5,-682.5 439.5,-682.5"/>
<text text-anchor="start" x="446.5" y="-693.9" font-family="Arial" font-size="14.00" fill="#000000">id </text>
<text text-anchor="start" x="461.2798" y="-693.9" font-family="Arial" font-size="14.00" fill="#666666">[bigint(20) unsigned]</text>
<polygon fill="none" stroke="#000000" points="439.5,-652.5 439.5,-682.5 780.5,-682.5 780.5,-652.5 439.5,-652.5"/>
<text text-anchor="start" x="446.5" y="-663.9" font-family="Arial" font-size="14.00" fill="#000000">electricity_fetch_setting_id </text>
<text text-anchor="start" x="614.5364" y="-663.9" font-family="Arial" font-size="14.00" fill="#666666">[bigint(20) unsigned]</text>
<polygon fill="none" stroke="#000000" points="439.5,-622.5 439.5,-652.5 780.5,-652.5 780.5,-622.5 439.5,-622.5"/>
<text text-anchor="start" x="446.5" y="-633.9" font-family="Arial" font-size="14.00" fill="#000000">line_channel_id </text>
<text text-anchor="start" x="547.643" y="-633.9" font-family="Arial" font-size="14.00" fill="#666666">[varchar(256)]</text>
<polygon fill="none" stroke="#000000" points="439.5,-592.5 439.5,-622.5 780.5,-622.5 780.5,-592.5 439.5,-592.5"/>
<text text-anchor="start" x="446.5" y="-603.9" font-family="Arial" font-size="14.00" fill="#000000">advisor_id </text>
<text text-anchor="start" x="514.1774" y="-603.9" font-family="Arial" font-size="14.00" fill="#666666">[bigint(20) unsigned]</text>
<polygon fill="none" stroke="#000000" points="439.5,-562.5 439.5,-592.5 780.5,-592.5 780.5,-562.5 439.5,-562.5"/>
<text text-anchor="start" x="446.5" y="-573.9" font-family="Arial" font-size="14.00" fill="#000000">notify_date </text>
<text text-anchor="start" x="518.8646" y="-573.9" font-family="Arial" font-size="14.00" fill="#666666">[tinyint(3) unsigned]</text>
<polygon fill="none" stroke="#000000" points="439.5,-532.5 439.5,-562.5 780.5,-562.5 780.5,-532.5 439.5,-532.5"/>
<text text-anchor="start" x="446.5" y="-543.9" font-family="Arial" font-size="14.00" fill="#000000">notify_enable </text>
<text text-anchor="start" x="533.6458" y="-543.9" font-family="Arial" font-size="14.00" fill="#666666">[tinyint(1)]</text>
<polygon fill="none" stroke="#000000" points="439.5,-502.5 439.5,-532.5 780.5,-532.5 780.5,-502.5 439.5,-502.5"/>
<text text-anchor="start" x="446.5" y="-513.9" font-family="Arial" font-size="14.00" fill="#000000">template </text>
<text text-anchor="start" x="504.0694" y="-513.9" font-family="Arial" font-size="14.00" fill="#666666">[text]</text>
<polygon fill="none" stroke="#000000" points="439.5,-472.5 439.5,-502.5 780.5,-502.5 780.5,-472.5 439.5,-472.5"/>
<text text-anchor="start" x="446.5" y="-483.9" font-family="Arial" font-size="14.00" fill="#000000">created_at </text>
<text text-anchor="start" x="516.528" y="-483.9" font-family="Arial" font-size="14.00" fill="#666666">[datetime]</text>
<polygon fill="none" stroke="#000000" points="439.5,-442.5 439.5,-472.5 780.5,-472.5 780.5,-442.5 439.5,-442.5"/>
<text text-anchor="start" x="446.5" y="-453.9" font-family="Arial" font-size="14.00" fill="#000000">updated_at </text>
<text text-anchor="start" x="520.4326" y="-453.9" font-family="Arial" font-size="14.00" fill="#666666">[datetime]</text>
<polygon fill="none" stroke="#000000" stroke-width="3" points="437.5,-441.5 437.5,-749.5 781.5,-749.5 781.5,-441.5 437.5,-441.5"/>
</g>
<!-- electricity_fetch_settings -->
<g id="node4" class="node">
<title>electricity_fetch_settings</title>
<polygon fill="#efefef" stroke="transparent" points="43.5,-282.5 43.5,-317.5 380.5,-317.5 380.5,-282.5 43.5,-282.5"/>
<polygon fill="none" stroke="#000000" points="43.5,-282.5 43.5,-317.5 380.5,-317.5 380.5,-282.5 43.5,-282.5"/>
<text text-anchor="start" x="50.197" y="-295.3" font-family="Arial Bold" font-size="18.00" fill="#000000">electricity_fetch_settings</text>
<text text-anchor="start" x="246.235" y="-295.3" font-family="Arial" font-size="14.00" fill="#000000">    </text>
<text text-anchor="start" x="280.4398" y="-295.3" font-family="Arial" font-size="14.00" fill="#666666">[BASE TABLE]</text>
<polygon fill="none" stroke="#000000" points="43.5,-252.5 43.5,-282.5 380.5,-282.5 380.5,-252.5 43.5,-252.5"/>
<text text-anchor="start" x="50.5" y="-263.9" font-family="Arial" font-size="14.00" fill="#000000">id    </text>
<text text-anchor="start" x="95.594" y="-263.9" font-family="Arial" font-size="14.00" fill="#666666">[bigint(20) unsigned]</text>
<polygon fill="none" stroke="#000000" points="43.5,-222.5 43.5,-252.5 380.5,-252.5 380.5,-222.5 43.5,-222.5"/>
<text text-anchor="start" x="50.5" y="-233.9" font-family="Arial" font-size="14.00" fill="#000000">setting_name    </text>
<text text-anchor="start" x="168.7314" y="-233.9" font-family="Arial" font-size="14.00" fill="#666666">[varchar(255)]</text>
<polygon fill="none" stroke="#000000" points="43.5,-192.5 43.5,-222.5 380.5,-222.5 380.5,-192.5 43.5,-192.5"/>
<text text-anchor="start" x="50.5" y="-203.9" font-family="Arial" font-size="14.00" fill="#000000">electricity_site_id    </text>
<text text-anchor="start" x="191.2658" y="-203.9" font-family="Arial" font-size="14.00" fill="#666666">[bigint(20) unsigned]</text>
<polygon fill="none" stroke="#000000" points="43.5,-162.5 43.5,-192.5 380.5,-192.5 380.5,-162.5 43.5,-162.5"/>
<text text-anchor="start" x="50.5" y="-173.9" font-family="Arial" font-size="14.00" fill="#000000">user_name    </text>
<text text-anchor="start" x="154.7216" y="-173.9" font-family="Arial" font-size="14.00" fill="#666666">[varchar(255)]</text>
<polygon fill="none" stroke="#000000" points="43.5,-132.5 43.5,-162.5 380.5,-162.5 380.5,-132.5 43.5,-132.5"/>
<text text-anchor="start" x="50.5" y="-143.9" font-family="Arial" font-size="14.00" fill="#000000">encrypted_password    </text>
<text text-anchor="start" x="213.8492" y="-143.9" font-family="Arial" font-size="14.00" fill="#666666">[varchar(512)]</text>
<polygon fill="none" stroke="#000000" points="43.5,-102.5 43.5,-132.5 380.5,-132.5 380.5,-102.5 43.5,-102.5"/>
<text text-anchor="start" x="50.5" y="-113.9" font-family="Arial" font-size="14.00" fill="#000000">fetch_enable    </text>
<text text-anchor="start" x="164.8534" y="-113.9" font-family="Arial" font-size="14.00" fill="#666666">[tinyint(1)]</text>
<polygon fill="none" stroke="#000000" points="43.5,-72.5 43.5,-102.5 380.5,-102.5 380.5,-72.5 43.5,-72.5"/>
<text text-anchor="start" x="50.5" y="-83.9" font-family="Arial" font-size="14.00" fill="#000000">created_at    </text>
<text text-anchor="start" x="150.8422" y="-83.9" font-family="Arial" font-size="14.00" fill="#666666">[datetime]</text>
<polygon fill="none" stroke="#000000" points="43.5,-42.5 43.5,-72.5 380.5,-72.5 380.5,-42.5 43.5,-42.5"/>
<text text-anchor="start" x="50.5" y="-53.9" font-family="Arial" font-size="14.00" fill="#000000">updated_at    </text>
<text text-anchor="start" x="154.7468" y="-53.9" font-family="Arial" font-size="14.00" fill="#666666">[datetime]</text>
</g>
<!-- electricity_notify_settings&#45;&gt;electricity_fetch_settings -->
<g id="edge3" class="edge">
<title>electricity_notify_settings:electricity_fetch_setting_id&#45;&gt;electricity_fetch_settings:id</title>
<path fill="none" stroke="#000000" d="M429.4777,-665.5365C359.1964,-635.3604 466.6654,-267.5 380.5,-267.5"/>
<polygon fill="#000000" stroke="#000000" points="429.6866,-665.5773 438.6348,-671.916 434.5933,-666.5386 439.5,-667.5 439.5,-667.5 439.5,-667.5 434.5933,-666.5386 440.3652,-663.084 429.6866,-665.5773 429.6866,-665.5773"/>
<text text-anchor="start" x="37.982" y="-677.5" font-family="Arial" font-size="10.00" fill="#000000">FOREIGN KEY (electricity_fetch_setting_id) REFERENCES electricity_fetch_settings (id)</text>
</g>
<!-- line_channels -->
<g id="node5" class="node">
<title>line_channels</title>
<polygon fill="#efefef" stroke="transparent" points="484.5,-222.5 484.5,-257.5 735.5,-257.5 735.5,-222.5 484.5,-222.5"/>
<polygon fill="none" stroke="#000000" points="484.5,-222.5 484.5,-257.5 735.5,-257.5 735.5,-222.5 484.5,-222.5"/>
<text text-anchor="start" x="491.1999" y="-235.3" font-family="Arial Bold" font-size="18.00" fill="#000000">line_channels</text>
<text text-anchor="start" x="601.2321" y="-235.3" font-family="Arial" font-size="14.00" fill="#000000">    </text>
<text text-anchor="start" x="635.4369" y="-235.3" font-family="Arial" font-size="14.00" fill="#666666">[BASE TABLE]</text>
<polygon fill="none" stroke="#000000" points="484.5,-192.5 484.5,-222.5 735.5,-222.5 735.5,-192.5 484.5,-192.5"/>
<text text-anchor="start" x="491.5" y="-203.9" font-family="Arial" font-size="14.00" fill="#000000">id    </text>
<text text-anchor="start" x="536.594" y="-203.9" font-family="Arial" font-size="14.00" fill="#666666">[varchar(256)]</text>
<polygon fill="none" stroke="#000000" points="484.5,-162.5 484.5,-192.5 735.5,-192.5 735.5,-162.5 484.5,-162.5"/>
<text text-anchor="start" x="491.5" y="-173.9" font-family="Arial" font-size="14.00" fill="#000000">memo    </text>
<text text-anchor="start" x="564.5912" y="-173.9" font-family="Arial" font-size="14.00" fill="#666666">[text]</text>
<polygon fill="none" stroke="#000000" points="484.5,-132.5 484.5,-162.5 735.5,-162.5 735.5,-132.5 484.5,-132.5"/>
<text text-anchor="start" x="491.5" y="-143.9" font-family="Arial" font-size="14.00" fill="#000000">created_at    </text>
<text text-anchor="start" x="591.8422" y="-143.9" font-family="Arial" font-size="14.00" fill="#666666">[datetime]</text>
<polygon fill="none" stroke="#000000" points="484.5,-102.5 484.5,-132.5 735.5,-132.5 735.5,-102.5 484.5,-102.5"/>
<text text-anchor="start" x="491.5" y="-113.9" font-family="Arial" font-size="14.00" fill="#000000">updated_at    </text>
<text text-anchor="start" x="595.7468" y="-113.9" font-family="Arial" font-size="14.00" fill="#666666">[datetime]</text>
</g>
<!-- electricity_notify_settings&#45;&gt;line_channels -->
<g id="edge4" class="edge">
<title>electricity_notify_settings:line_channel_id&#45;&gt;line_channels:id</title>
<path fill="none" stroke="#000000" d="M430.9239,-631.7465C397.6279,-580.7203 439.7452,-207.5 484.5,-207.5"/>
<polygon fill="#000000" stroke="#000000" points="431.1956,-631.9288 436.993,-641.237 435.3478,-634.7144 439.5,-637.5 439.5,-637.5 439.5,-637.5 435.3478,-634.7144 442.007,-633.763 431.1956,-631.9288 431.1956,-631.9288"/>
<text text-anchor="start" x="133.763" y="-647.5" font-family="Arial" font-size="10.00" fill="#000000">FOREIGN KEY (line_channel_id) REFERENCES line_channels (id)</text>
</g>
<!-- advisors -->
<g id="node6" class="node">
<title>advisors</title>
<polygon fill="#efefef" stroke="transparent" points="839.5,-252.5 839.5,-287.5 1107.5,-287.5 1107.5,-252.5 839.5,-252.5"/>
<polygon fill="none" stroke="#000000" points="839.5,-252.5 839.5,-287.5 1107.5,-287.5 1107.5,-252.5 839.5,-252.5"/>
<text text-anchor="start" x="876.2135" y="-265.3" font-family="Arial Bold" font-size="18.00" fill="#000000">advisors</text>
<text text-anchor="start" x="943.2185" y="-265.3" font-family="Arial" font-size="14.00" fill="#000000">    </text>
<text text-anchor="start" x="977.4233" y="-265.3" font-family="Arial" font-size="14.00" fill="#666666">[BASE TABLE]</text>
<polygon fill="none" stroke="#000000" points="839.5,-222.5 839.5,-252.5 1107.5,-252.5 1107.5,-222.5 839.5,-222.5"/>
<text text-anchor="start" x="846.5" y="-233.9" font-family="Arial" font-size="14.00" fill="#000000">id    </text>
<text text-anchor="start" x="891.594" y="-233.9" font-family="Arial" font-size="14.00" fill="#666666">[bigint(20) unsigned]</text>
<polygon fill="none" stroke="#000000" points="839.5,-192.5 839.5,-222.5 1107.5,-222.5 1107.5,-192.5 839.5,-192.5"/>
<text text-anchor="start" x="846.3163" y="-203.9" font-family="Arial" font-size="14.00" fill="#000000">advisor_type_id    </text>
<text text-anchor="start" x="978.5463" y="-203.9" font-family="Arial" font-size="14.00" fill="#666666">[tinyint(3) unsigned]</text>
<polygon fill="none" stroke="#000000" points="839.5,-162.5 839.5,-192.5 1107.5,-192.5 1107.5,-162.5 839.5,-162.5"/>
<text text-anchor="start" x="846.5" y="-173.9" font-family="Arial" font-size="14.00" fill="#000000">encrypted_apikey    </text>
<text text-anchor="start" x="990.406" y="-173.9" font-family="Arial" font-size="14.00" fill="#666666">[varchar(512)]</text>
<polygon fill="none" stroke="#000000" points="839.5,-132.5 839.5,-162.5 1107.5,-162.5 1107.5,-132.5 839.5,-132.5"/>
<text text-anchor="start" x="846.5" y="-143.9" font-family="Arial" font-size="14.00" fill="#000000">memo    </text>
<text text-anchor="start" x="919.5912" y="-143.9" font-family="Arial" font-size="14.00" fill="#666666">[text]</text>
<polygon fill="none" stroke="#000000" points="839.5,-102.5 839.5,-132.5 1107.5,-132.5 1107.5,-102.5 839.5,-102.5"/>
<text text-anchor="start" x="846.5" y="-113.9" font-family="Arial" font-size="14.00" fill="#000000">created_at    </text>
<text text-anchor="start" x="946.8422" y="-113.9" font-family="Arial" font-size="14.00" fill="#666666">[datetime]</text>
<polygon fill="none" stroke="#000000" points="839.5,-72.5 839.5,-102.5 1107.5,-102.5 1107.5,-72.5 839.5,-72.5"/>
<text text-anchor="start" x="846.5" y="-83.9" font-family="Arial" font-size="14.00" fill="#000000">updated_at    </text>
<text text-anchor="start" x="950.7468" y="-83.9" font-family="Arial" font-size="14.00" fill="#666666">[datetime]</text>
</g>
<!-- electricity_notify_settings&#45;&gt;advisors -->
<g id="edge5" class="edge">
<title>electricity_notify_settings:advisor_id&#45;&gt;advisors:id</title>
<path fill="none" stroke="#000000" d="M790.6003,-605.3271C854.4858,-575.0045 759.9792,-237.5 839.5,-237.5"/>
<polygon fill="#000000" stroke="#000000" points="790.2763,-605.3968 779.5535,-603.1006 785.3882,-606.4484 780.5,-607.5 780.5,-607.5 780.5,-607.5 785.3882,-606.4484 781.4465,-611.8994 790.2763,-605.3968 790.2763,-605.3968"/>
<text text-anchor="start" x="787.667" y="-617.5" font-family="Arial" font-size="10.00" fill="#000000">FOREIGN KEY (advisor_id) REFERENCES advisors (id)</text>
</g>
<!-- electricity_notify_dest_line_users -->
<g id="node2" class="node">
<title>electricity_notify_dest_line_users</title>
<polygon fill="#efefef" stroke="transparent" points="168.5,-1067.5 168.5,-1102.5 573.5,-1102.5 573.5,-1067.5 168.5,-1067.5"/>
<polygon fill="none" stroke="#000000" points="168.5,-1067.5 168.5,-1102.5 573.5,-1102.5 573.5,-1067.5 168.5,-1067.5"/>
<text text-anchor="start" x="175.1923" y="-1080.3" font-family="Arial Bold" font-size="18.00" fill="#000000">electricity_notify_dest_line_users</text>
<text text-anchor="start" x="439.2397" y="-1080.3" font-family="Arial" font-size="14.00" fill="#000000">    </text>
<text text-anchor="start" x="473.4445" y="-1080.3" font-family="Arial" font-size="14.00" fill="#666666">[BASE TABLE]</text>
<polygon fill="none" stroke="#000000" points="168.5,-1037.5 168.5,-1067.5 573.5,-1067.5 573.5,-1037.5 168.5,-1037.5"/>
<text text-anchor="start" x="175.5" y="-1048.9" font-family="Arial" font-size="14.00" fill="#000000">electricity_notify_setting_id    </text>
<text text-anchor="start" x="376.9572" y="-1048.9" font-family="Arial" font-size="14.00" fill="#666666">[bigint(20) unsigned]</text>
<polygon fill="none" stroke="#000000" points="168.5,-1007.5 168.5,-1037.5 573.5,-1037.5 573.5,-1007.5 168.5,-1007.5"/>
<text text-anchor="start" x="175.5" y="-1018.9" font-family="Arial" font-size="14.00" fill="#000000">line_user_id    </text>
<text text-anchor="start" x="285.1634" y="-1018.9" font-family="Arial" font-size="14.00" fill="#666666">[varchar(256)]</text>
<polygon fill="none" stroke="#000000" points="168.5,-977.5 168.5,-1007.5 573.5,-1007.5 573.5,-977.5 168.5,-977.5"/>
<text text-anchor="start" x="175.5" y="-988.9" font-family="Arial" font-size="14.00" fill="#000000">notify_enable    </text>
<text text-anchor="start" x="292.96" y="-988.9" font-family="Arial" font-size="14.00" fill="#666666">[tinyint(1)]</text>
<polygon fill="none" stroke="#000000" points="168.5,-947.5 168.5,-977.5 573.5,-977.5 573.5,-947.5 168.5,-947.5"/>
<text text-anchor="start" x="175.5" y="-958.9" font-family="Arial" font-size="14.00" fill="#000000">last_notified_at    </text>
<text text-anchor="start" x="303.8478" y="-958.9" font-family="Arial" font-size="14.00" fill="#666666">[datetime]</text>
<polygon fill="none" stroke="#000000" points="168.5,-917.5 168.5,-947.5 573.5,-947.5 573.5,-917.5 168.5,-917.5"/>
<text text-anchor="start" x="175.5" y="-928.9" font-family="Arial" font-size="14.00" fill="#000000">created_at    </text>
<text text-anchor="start" x="275.8422" y="-928.9" font-family="Arial" font-size="14.00" fill="#666666">[datetime]</text>
<polygon fill="none" stroke="#000000" points="168.5,-887.5 168.5,-917.5 573.5,-917.5 573.5,-887.5 168.5,-887.5"/>
<text text-anchor="start" x="175.5" y="-898.9" font-family="Arial" font-size="14.00" fill="#000000">updated_at    </text>
<text text-anchor="start" x="279.7468" y="-898.9" font-family="Arial" font-size="14.00" fill="#666666">[datetime]</text>
</g>
<!-- electricity_notify_dest_line_users&#45;&gt;electricity_notify_settings -->
<g id="edge1" class="edge">
<title>electricity_notify_dest_line_users:electricity_notify_setting_id&#45;&gt;electricity_notify_settings:id</title>
<path fill="none" stroke="#000000" d="M583.1264,-1049.5393C616.4575,-1026.8131 597.6271,-879.9982 573.5,-845 537.332,-792.5356 475.668,-846.4644 439.5,-794 415.1571,-758.6888 396.6111,-697.5 439.5,-697.5"/>
<polygon fill="#000000" stroke="#000000" points="583.0581,-1049.5602 572.1771,-1048.1988 578.2791,-1051.0301 573.5,-1052.5 573.5,-1052.5 573.5,-1052.5 578.2791,-1051.0301 574.8229,-1056.8012 583.0581,-1049.5602 583.0581,-1049.5602"/>
<text text-anchor="start" x="580.763" y="-1062.5" font-family="Arial" font-size="10.00" fill="#000000">FOREIGN KEY (electricity_notify_setting_id) REFERENCES electricity_notify_settings (id)</text>
</g>
<!-- electricity_notify_statuses -->
<g id="node3" class="node">
<title>electricity_notify_statuses</title>
<polygon fill="#efefef" stroke="transparent" points="677.5,-1082.5 677.5,-1117.5 1023.5,-1117.5 1023.5,-1082.5 677.5,-1082.5"/>
<polygon fill="none" stroke="#000000" points="677.5,-1082.5 677.5,-1117.5 1023.5,-1117.5 1023.5,-1082.5 677.5,-1082.5"/>
<text text-anchor="start" x="684.197" y="-1095.3" font-family="Arial Bold" font-size="18.00" fill="#000000">electricity_notify_statuses</text>
<text text-anchor="start" x="889.235" y="-1095.3" font-family="Arial" font-size="14.00" fill="#000000">    </text>
<text text-anchor="start" x="923.4398" y="-1095.3" font-family="Arial" font-size="14.00" fill="#666666">[BASE TABLE]</text>
<polygon fill="none" stroke="#000000" points="677.5,-1052.5 677.5,-1082.5 1023.5,-1082.5 1023.5,-1052.5 677.5,-1052.5"/>
<text text-anchor="start" x="684.5" y="-1063.9" font-family="Arial" font-size="14.00" fill="#000000">id    </text>
<text text-anchor="start" x="729.594" y="-1063.9" font-family="Arial" font-size="14.00" fill="#666666">[bigint(20) unsigned]</text>
<polygon fill="none" stroke="#000000" points="677.5,-1022.5 677.5,-1052.5 1023.5,-1052.5 1023.5,-1022.5 677.5,-1022.5"/>
<text text-anchor="start" x="684.5" y="-1033.9" font-family="Arial" font-size="14.00" fill="#000000">electricity_notify_setting_id    </text>
<text text-anchor="start" x="885.9572" y="-1033.9" font-family="Arial" font-size="14.00" fill="#666666">[bigint(20) unsigned]</text>
<polygon fill="none" stroke="#000000" points="677.5,-992.5 677.5,-1022.5 1023.5,-1022.5 1023.5,-992.5 677.5,-992.5"/>
<text text-anchor="start" x="684.5" y="-1003.9" font-family="Arial" font-size="14.00" fill="#000000">status_type_id    </text>
<text text-anchor="start" x="808.9614" y="-1003.9" font-family="Arial" font-size="14.00" fill="#666666">[tinyint(3) unsigned]</text>
<polygon fill="none" stroke="#000000" points="677.5,-962.5 677.5,-992.5 1023.5,-992.5 1023.5,-962.5 677.5,-962.5"/>
<text text-anchor="start" x="684.5" y="-973.9" font-family="Arial" font-size="14.00" fill="#000000">last_successful_at    </text>
<text text-anchor="start" x="833.068" y="-973.9" font-family="Arial" font-size="14.00" fill="#666666">[datetime]</text>
<polygon fill="none" stroke="#000000" points="677.5,-932.5 677.5,-962.5 1023.5,-962.5 1023.5,-932.5 677.5,-932.5"/>
<text text-anchor="start" x="684.5" y="-943.9" font-family="Arial" font-size="14.00" fill="#000000">last_failure_at    </text>
<text text-anchor="start" x="805.8352" y="-943.9" font-family="Arial" font-size="14.00" fill="#666666">[datetime]</text>
<polygon fill="none" stroke="#000000" points="677.5,-902.5 677.5,-932.5 1023.5,-932.5 1023.5,-902.5 677.5,-902.5"/>
<text text-anchor="start" x="684.5" y="-913.9" font-family="Arial" font-size="14.00" fill="#000000">created_at    </text>
<text text-anchor="start" x="784.8422" y="-913.9" font-family="Arial" font-size="14.00" fill="#666666">[datetime]</text>
<polygon fill="none" stroke="#000000" points="677.5,-872.5 677.5,-902.5 1023.5,-902.5 1023.5,-872.5 677.5,-872.5"/>
<text text-anchor="start" x="684.5" y="-883.9" font-family="Arial" font-size="14.00" fill="#000000">updated_at    </text>
<text text-anchor="start" x="788.7468" y="-883.9" font-family="Arial" font-size="14.00" fill="#666666">[datetime]</text>
</g>
<!-- electricity_notify_statuses&#45;&gt;electricity_notify_settings -->
<g id="edge2" class="edge">
<title>electricity_notify_statuses:electricity_notify_setting_id&#45;&gt;electricity_notify_settings:id</title>
<path fill="none" stroke="#000000" d="M667.8649,-1034.5332C634.4678,-1011.7609 652.8953,-864.664 677.5,-830 705.5688,-790.4557 752.4312,-833.5443 780.5,-794 805.3248,-759.0259 823.3889,-697.5 780.5,-697.5"/>
<polygon fill="#000000" stroke="#000000" points="667.9428,-1034.5571 676.1757,-1041.8007 672.7214,-1036.0286 677.5,-1037.5 677.5,-1037.5 677.5,-1037.5 672.7214,-1036.0286 678.8243,-1033.1993 667.9428,-1034.5571 667.9428,-1034.5571"/>
<text text-anchor="start" x="684.763" y="-1021.5" font-family="Arial" font-size="10.00" fill="#000000">FOREIGN KEY (electricity_notify_setting_id) REFERENCES electricity_notify_settings (id)</text>
</g>
</g>
</svg>
