<?xml version="1.0" encoding="UTF-8" standalone="no"?>
<!DOCTYPE svg PUBLIC "-//W3C//DTD SVG 1.1//EN"
 "http://www.w3.org/Graphics/SVG/1.1/DTD/svg11.dtd">
<!-- Generated by graphviz version 2.40.1 (20161225.0304)
 -->
<!-- Title: electricity_fetch_settings Pages: 1 -->
<svg width="1368pt" height="772pt"
 viewBox="0.00 0.00 1367.50 772.00" xmlns="http://www.w3.org/2000/svg" xmlns:xlink="http://www.w3.org/1999/xlink">
<g id="graph0" class="graph" transform="scale(1 1) rotate(0) translate(4 768)">
<title>electricity_fetch_settings</title>
<polygon fill="#ffffff" stroke="transparent" points="-4,4 -4,-768 1363.5,-768 1363.5,4 -4,4"/>
<!-- electricity_fetch_settings -->
<g id="node1" class="node">
<title>electricity_fetch_settings</title>
<polygon fill="#efefef" stroke="transparent" points="515,-285.5 515,-320.5 852,-320.5 852,-285.5 515,-285.5"/>
<polygon fill="none" stroke="#000000" points="515,-285.5 515,-320.5 852,-320.5 852,-285.5 515,-285.5"/>
<text text-anchor="start" x="521.697" y="-298.3" font-family="Arial Bold" font-size="18.00" fill="#000000">electricity_fetch_settings</text>
<text text-anchor="start" x="717.735" y="-298.3" font-family="Arial" font-size="14.00" fill="#000000">    </text>
<text text-anchor="start" x="751.9398" y="-298.3" font-family="Arial" font-size="14.00" fill="#666666">[BASE TABLE]</text>
<polygon fill="none" stroke="#000000" points="515,-255.5 515,-285.5 852,-285.5 852,-255.5 515,-255.5"/>
<text text-anchor="start" x="522" y="-266.9" font-family="Arial" font-size="14.00" fill="#000000">id </text>
<text text-anchor="start" x="536.7798" y="-266.9" font-family="Arial" font-size="14.00" fill="#666666">[bigint(20) unsigned]</text>
<polygon fill="none" stroke="#000000" points="515,-225.5 515,-255.5 852,-255.5 852,-225.5 515,-225.5"/>
<text text-anchor="start" x="522" y="-236.9" font-family="Arial" font-size="14.00" fill="#000000">setting_name </text>
<text text-anchor="start" x="609.9172" y="-236.9" font-family="Arial" font-size="14.00" fill="#666666">[varchar(255)]</text>
<polygon fill="none" stroke="#000000" points="515,-195.5 515,-225.5 852,-225.5 852,-195.5 515,-195.5"/>
<text text-anchor="start" x="522" y="-206.9" font-family="Arial" font-size="14.00" fill="#000000">electricity_site_id </text>
<text text-anchor="start" x="632.4516" y="-206.9" font-family="Arial" font-size="14.00" fill="#666666">[bigint(20) unsigned]</text>
<polygon fill="none" stroke="#000000" points="515,-165.5 515,-195.5 852,-195.5 852,-165.5 515,-165.5"/>
<text text-anchor="start" x="522" y="-176.9" font-family="Arial" font-size="14.00" fill="#000000">user_name </text>
<text text-anchor="start" x="595.9074" y="-176.9" font-family="Arial" font-size="14.00" fill="#666666">[varchar(255)]</text>
<polygon fill="none" stroke="#000000" points="515,-135.5 515,-165.5 852,-165.5 852,-135.5 515,-135.5"/>
<text text-anchor="start" x="522" y="-146.9" font-family="Arial" font-size="14.00" fill="#000000">encrypted_password </text>
<text text-anchor="start" x="655.035" y="-146.9" font-family="Arial" font-size="14.00" fill="#666666">[varchar(512)]</text>
<polygon fill="none" stroke="#000000" points="515,-105.5 515,-135.5 852,-135.5 852,-105.5 515,-105.5"/>
<text text-anchor="start" x="522" y="-116.9" font-family="Arial" font-size="14.00" fill="#000000">fetch_enable </text>
<text text-anchor="start" x="606.0392" y="-116.9" font-family="Arial" font-size="14.00" fill="#666666">[tinyint(1)]</text>
<polygon fill="none" stroke="#000000" points="515,-75.5 515,-105.5 852,-105.5 852,-75.5 515,-75.5"/>
<text text-anchor="start" x="522" y="-86.9" font-family="Arial" font-size="14.00" fill="#000000">created_at </text>
<text text-anchor="start" x="592.028" y="-86.9" font-family="Arial" font-size="14.00" fill="#666666">[datetime]</text>
<polygon fill="none" stroke="#000000" points="515,-45.5 515,-75.5 852,-75.5 852,-45.5 515,-45.5"/>
<text text-anchor="start" x="522" y="-56.9" font-family="Arial" font-size="14.00" fill="#000000">updated_at </text>
<text text-anchor="start" x="595.9326" y="-56.9" font-family="Arial" font-size="14.00" fill="#666666">[datetime]</text>
<polygon fill="none" stroke="#000000" stroke-width="3" points="513,-44.5 513,-322.5 853,-322.5 853,-44.5 513,-44.5"/>
</g>
<!-- electricity_daily_usages -->
<g id="node2" class="node">
<title>electricity_daily_usages</title>
<polygon fill="#efefef" stroke="transparent" points="70,-670.5 70,-705.5 409,-705.5 409,-670.5 70,-670.5"/>
<polygon fill="none" stroke="#000000" points="70,-670.5 70,-705.5 409,-705.5 409,-670.5 70,-670.5"/>
<text text-anchor="start" x="80.7012" y="-683.3" font-family="Arial Bold" font-size="18.00" fill="#000000">electricity_daily_usages</text>
<text text-anchor="start" x="270.7308" y="-683.3" font-family="Arial" font-size="14.00" fill="#000000">    </text>
<text text-anchor="start" x="304.9356" y="-683.3" font-family="Arial" font-size="14.00" fill="#666666">[BASE TABLE]</text>
<polygon fill="none" stroke="#000000" points="70,-640.5 70,-670.5 409,-670.5 409,-640.5 70,-640.5"/>
<text text-anchor="start" x="76.9187" y="-651.9" font-family="Arial" font-size="14.00" fill="#000000">electricity_fetch_setting_id    </text>
<text text-anchor="start" x="275.2693" y="-651.9" font-family="Arial" font-size="14.00" fill="#666666">[bigint(20) unsigned]</text>
<polygon fill="none" stroke="#000000" points="70,-610.5 70,-640.5 409,-640.5 409,-610.5 70,-610.5"/>
<text text-anchor="start" x="77" y="-621.9" font-family="Arial" font-size="14.00" fill="#000000">usage_year    </text>
<text text-anchor="start" x="184.3436" y="-621.9" font-family="Arial" font-size="14.00" fill="#666666">[int(10) unsigned]</text>
<polygon fill="none" stroke="#000000" points="70,-580.5 70,-610.5 409,-610.5 409,-580.5 70,-580.5"/>
<text text-anchor="start" x="77" y="-591.9" font-family="Arial" font-size="14.00" fill="#000000">usage_month    </text>
<text text-anchor="start" x="196.0168" y="-591.9" font-family="Arial" font-size="14.00" fill="#666666">[int(10) unsigned]</text>
<polygon fill="none" stroke="#000000" points="70,-550.5 70,-580.5 409,-580.5 409,-550.5 70,-550.5"/>
<text text-anchor="start" x="77" y="-561.9" font-family="Arial" font-size="14.00" fill="#000000">usage_date    </text>
<text text-anchor="start" x="184.3562" y="-561.9" font-family="Arial" font-size="14.00" fill="#666666">[int(10) unsigned]</text>
<polygon fill="none" stroke="#000000" points="70,-520.5 70,-550.5 409,-550.5 409,-520.5 70,-520.5"/>
<text text-anchor="start" x="77" y="-531.9" font-family="Arial" font-size="14.00" fill="#000000">usage_amount    </text>
<text text-anchor="start" x="203.7994" y="-531.9" font-family="Arial" font-size="14.00" fill="#666666">[decimal(15,5) unsigned]</text>
<polygon fill="none" stroke="#000000" points="70,-490.5 70,-520.5 409,-520.5 409,-490.5 70,-490.5"/>
<text text-anchor="start" x="77" y="-501.9" font-family="Arial" font-size="14.00" fill="#000000">created_at    </text>
<text text-anchor="start" x="177.3422" y="-501.9" font-family="Arial" font-size="14.00" fill="#666666">[datetime]</text>
<polygon fill="none" stroke="#000000" points="70,-460.5 70,-490.5 409,-490.5 409,-460.5 70,-460.5"/>
<text text-anchor="start" x="77" y="-471.9" font-family="Arial" font-size="14.00" fill="#000000">updated_at    </text>
<text text-anchor="start" x="181.2468" y="-471.9" font-family="Arial" font-size="14.00" fill="#666666">[datetime]</text>
</g>
<!-- electricity_daily_usages&#45;&gt;electricity_fetch_settings -->
<g id="edge1" class="edge">
<title>electricity_daily_usages:electricity_fetch_setting_id&#45;&gt;electricity_fetch_settings:id</title>
<path fill="none" stroke="#000000" d="M418.8418,-653.2665C463.696,-631.3472 445.3824,-454.3873 461,-403 479.4916,-342.1562 451.4083,-270.5 515,-270.5"/>
<polygon fill="#000000" stroke="#000000" points="418.752,-653.2868 408.0041,-651.1116 413.876,-654.3934 409,-655.5 409,-655.5 409,-655.5 413.876,-654.3934 409.9959,-659.8884 418.752,-653.2868 418.752,-653.2868"/>
<text text-anchor="start" x="7.482" y="-665.5" font-family="Arial" font-size="10.00" fill="#000000">FOREIGN KEY (electricity_fetch_setting_id) REFERENCES electricity_fetch_settings (id)</text>
</g>
<!-- electricity_fetch_statuses -->
<g id="node3" class="node">
<title>electricity_fetch_statuses</title>
<polygon fill="#efefef" stroke="transparent" points="513,-670.5 513,-705.5 855,-705.5 855,-670.5 513,-670.5"/>
<polygon fill="none" stroke="#000000" points="513,-670.5 513,-705.5 855,-705.5 855,-670.5 513,-670.5"/>
<text text-anchor="start" x="519.6941" y="-683.3" font-family="Arial Bold" font-size="18.00" fill="#000000">electricity_fetch_statuses</text>
<text text-anchor="start" x="720.7379" y="-683.3" font-family="Arial" font-size="14.00" fill="#000000">    </text>
<text text-anchor="start" x="754.9427" y="-683.3" font-family="Arial" font-size="14.00" fill="#666666">[BASE TABLE]</text>
<polygon fill="none" stroke="#000000" points="513,-640.5 513,-670.5 855,-670.5 855,-640.5 513,-640.5"/>
<text text-anchor="start" x="520" y="-651.9" font-family="Arial" font-size="14.00" fill="#000000">id    </text>
<text text-anchor="start" x="565.094" y="-651.9" font-family="Arial" font-size="14.00" fill="#666666">[bigint(20) unsigned]</text>
<polygon fill="none" stroke="#000000" points="513,-610.5 513,-640.5 855,-640.5 855,-610.5 513,-610.5"/>
<text text-anchor="start" x="520" y="-621.9" font-family="Arial" font-size="14.00" fill="#000000">electricity_fetch_setting_id    </text>
<text text-anchor="start" x="718.3506" y="-621.9" font-family="Arial" font-size="14.00" fill="#666666">[bigint(20) unsigned]</text>
<polygon fill="none" stroke="#000000" points="513,-580.5 513,-610.5 855,-610.5 855,-580.5 513,-580.5"/>
<text text-anchor="start" x="520" y="-591.9" font-family="Arial" font-size="14.00" fill="#000000">status_type_id    </text>
<text text-anchor="start" x="644.4614" y="-591.9" font-family="Arial" font-size="14.00" fill="#666666">[tinyint(3) unsigned]</text>
<polygon fill="none" stroke="#000000" points="513,-550.5 513,-580.5 855,-580.5 855,-550.5 513,-550.5"/>
<text text-anchor="start" x="520" y="-561.9" font-family="Arial" font-size="14.00" fill="#000000">last_successful_at    </text>
<text text-anchor="start" x="668.568" y="-561.9" font-family="Arial" font-size="14.00" fill="#666666">[datetime]</text>
<polygon fill="none" stroke="#000000" points="513,-520.5 513,-550.5 855,-550.5 855,-520.5 513,-520.5"/>
<text text-anchor="start" x="520" y="-531.9" font-family="Arial" font-size="14.00" fill="#000000">last_failure_at    </text>
<text text-anchor="start" x="641.3352" y="-531.9" font-family="Arial" font-size="14.00" fill="#666666">[datetime]</text>
<polygon fill="none" stroke="#000000" points="513,-490.5 513,-520.5 855,-520.5 855,-490.5 513,-490.5"/>
<text text-anchor="start" x="520" y="-501.9" font-family="Arial" font-size="14.00" fill="#000000">created_at    </text>
<text text-anchor="start" x="620.3422" y="-501.9" font-family="Arial" font-size="14.00" fill="#666666">[datetime]</text>
<polygon fill="none" stroke="#000000" points="513,-460.5 513,-490.5 855,-490.5 855,-460.5 513,-460.5"/>
<text text-anchor="start" x="520" y="-471.9" font-family="Arial" font-size="14.00" fill="#000000">updated_at    </text>
<text text-anchor="start" x="624.2468" y="-471.9" font-family="Arial" font-size="14.00" fill="#666666">[datetime]</text>
</g>
<!-- electricity_fetch_statuses&#45;&gt;electricity_fetch_settings -->
<g id="edge2" class="edge">
<title>electricity_fetch_statuses:electricity_fetch_setting_id&#45;&gt;electricity_fetch_settings:id</title>
<path fill="none" stroke="#000000" d="M503.3076,-622.4884C469.4791,-599.3784 485.2677,-450.2165 513,-418 612.3999,-302.5276 752.6001,-482.4724 852,-367 879.9804,-334.4953 894.8889,-270.5 852,-270.5"/>
<polygon fill="#000000" stroke="#000000" points="503.4504,-622.5326 511.6647,-629.7973 508.2252,-624.0163 513,-625.5 513,-625.5 513,-625.5 508.2252,-624.0163 514.3353,-621.2027 503.4504,-622.5326 503.4504,-622.5326"/>
<text text-anchor="start" x="520.482" y="-635.5" font-family="Arial" font-size="10.00" fill="#000000">FOREIGN KEY (electricity_fetch_setting_id) REFERENCES electricity_fetch_settings (id)</text>
</g>
<!-- electricity_monthly_usages -->
<g id="node4" class="node">
<title>electricity_monthly_usages</title>
<polygon fill="#efefef" stroke="transparent" points="960,-685.5 960,-720.5 1317,-720.5 1317,-685.5 960,-685.5"/>
<polygon fill="none" stroke="#000000" points="960,-685.5 960,-720.5 1317,-720.5 1317,-685.5 960,-685.5"/>
<text text-anchor="start" x="966.698" y="-698.3" font-family="Arial Bold" font-size="18.00" fill="#000000">electricity_monthly_usages</text>
<text text-anchor="start" x="1182.734" y="-698.3" font-family="Arial" font-size="14.00" fill="#000000">    </text>
<text text-anchor="start" x="1216.9388" y="-698.3" font-family="Arial" font-size="14.00" fill="#666666">[BASE TABLE]</text>
<polygon fill="none" stroke="#000000" points="960,-655.5 960,-685.5 1317,-685.5 1317,-655.5 960,-655.5"/>
<text text-anchor="start" x="967" y="-666.9" font-family="Arial" font-size="14.00" fill="#000000">electricity_fetch_setting_id    </text>
<text text-anchor="start" x="1165.3506" y="-666.9" font-family="Arial" font-size="14.00" fill="#666666">[bigint(20) unsigned]</text>
<polygon fill="none" stroke="#000000" points="960,-625.5 960,-655.5 1317,-655.5 1317,-625.5 960,-625.5"/>
<text text-anchor="start" x="967" y="-636.9" font-family="Arial" font-size="14.00" fill="#000000">usage_year    </text>
<text text-anchor="start" x="1074.3436" y="-636.9" font-family="Arial" font-size="14.00" fill="#666666">[int(10) unsigned]</text>
<polygon fill="none" stroke="#000000" points="960,-595.5 960,-625.5 1317,-625.5 1317,-595.5 960,-595.5"/>
<text text-anchor="start" x="967" y="-606.9" font-family="Arial" font-size="14.00" fill="#000000">usage_month    </text>
<text text-anchor="start" x="1086.0168" y="-606.9" font-family="Arial" font-size="14.00" fill="#666666">[int(10) unsigned]</text>
<polygon fill="none" stroke="#000000" points="960,-565.5 960,-595.5 1317,-595.5 1317,-565.5 960,-565.5"/>
<text text-anchor="start" x="967" y="-576.9" font-family="Arial" font-size="14.00" fill="#000000">usage_day_count    </text>
<text text-anchor="start" x="1111.704" y="-576.9" font-family="Arial" font-size="14.00" fill="#666666">[int(10) unsigned]</text>
<polygon fill="none" stroke="#000000" points="960,-535.5 960,-565.5 1317,-565.5 1317,-535.5 960,-535.5"/>
<text text-anchor="start" x="967" y="-546.9" font-family="Arial" font-size="14.00" fill="#000000">usage_kwh    </text>
<text text-anchor="start" x="1072.007" y="-546.9" font-family="Arial" font-size="14.00" fill="#666666">[int(10) unsigned]</text>
<polygon fill="none" stroke="#000000" points="960,-505.5 960,-535.5 1317,-535.5 1317,-505.5 960,-505.5"/>
<text text-anchor="start" x="967" y="-516.9" font-family="Arial" font-size="14.00" fill="#000000">usage_yen    </text>
<text text-anchor="start" x="1069.683" y="-516.9" font-family="Arial" font-size="14.00" fill="#666666">[int(10) unsigned]</text>
<polygon fill="none" stroke="#000000" points="960,-475.5 960,-505.5 1317,-505.5 1317,-475.5 960,-475.5"/>
<text text-anchor="start" x="967" y="-486.9" font-family="Arial" font-size="14.00" fill="#000000">created_at    </text>
<text text-anchor="start" x="1067.3422" y="-486.9" font-family="Arial" font-size="14.00" fill="#666666">[datetime]</text>
<polygon fill="none" stroke="#000000" points="960,-445.5 960,-475.5 1317,-475.5 1317,-445.5 960,-445.5"/>
<text text-anchor="start" x="967" y="-456.9" font-family="Arial" font-size="14.00" fill="#000000">updated_at    </text>
<text text-anchor="start" x="1071.2468" y="-456.9" font-family="Arial" font-size="14.00" fill="#666666">[datetime]</text>
</g>
<!-- electricity_monthly_usages&#45;&gt;electricity_fetch_settings -->
<g id="edge3" class="edge">
<title>electricity_monthly_usages:electricity_fetch_setting_id&#45;&gt;electricity_fetch_settings:id</title>
<path fill="none" stroke="#000000" d="M950.2054,-668.4147C902.2052,-646.4683 923.5605,-457.5927 907,-403 888.4912,-341.9848 915.7607,-270.5 852,-270.5"/>
<polygon fill="#000000" stroke="#000000" points="950.2192,-668.4176 959.0629,-674.9014 955.1096,-669.4588 960,-670.5 960,-670.5 960,-670.5 955.1096,-669.4588 960.9371,-666.0986 950.2192,-668.4176 950.2192,-668.4176"/>
<text text-anchor="start" x="558.482" y="-680.5" font-family="Arial" font-size="10.00" fill="#000000">FOREIGN KEY (electricity_fetch_setting_id) REFERENCES electricity_fetch_settings (id)</text>
</g>
</g>
</svg>
