<?xml version="1.0" encoding="UTF-8" standalone="no"?>
<!DOCTYPE svg PUBLIC "-//W3C//DTD SVG 1.1//EN"
 "http://www.w3.org/Graphics/SVG/1.1/DTD/svg11.dtd">
<!-- Generated by graphviz version 2.40.1 (20161225.0304)
 -->
<!-- Title: electricity_fetch_statuses Pages: 1 -->
<svg width="1089pt" height="712pt"
 viewBox="0.00 0.00 1089.00 712.00" xmlns="http://www.w3.org/2000/svg" xmlns:xlink="http://www.w3.org/1999/xlink">
<g id="graph0" class="graph" transform="scale(1 1) rotate(0) translate(4 708)">
<title>electricity_fetch_statuses</title>
<polygon fill="#ffffff" stroke="transparent" points="-4,4 -4,-708 1085,-708 1085,4 -4,4"/>
<!-- electricity_fetch_statuses -->
<g id="node1" class="node">
<title>electricity_fetch_statuses</title>
<polygon fill="#efefef" stroke="transparent" points="409,-622.5 409,-657.5 751,-657.5 751,-622.5 409,-622.5"/>
<polygon fill="none" stroke="#000000" points="409,-622.5 409,-657.5 751,-657.5 751,-622.5 409,-622.5"/>
<text text-anchor="start" x="415.6941" y="-635.3" font-family="Arial Bold" font-size="18.00" fill="#000000">electricity_fetch_statuses</text>
<text text-anchor="start" x="616.7379" y="-635.3" font-family="Arial" font-size="14.00" fill="#000000">    </text>
<text text-anchor="start" x="650.9427" y="-635.3" font-family="Arial" font-size="14.00" fill="#666666">[BASE TABLE]</text>
<polygon fill="none" stroke="#000000" points="409,-592.5 409,-622.5 751,-622.5 751,-592.5 409,-592.5"/>
<text text-anchor="start" x="416" y="-603.9" font-family="Arial" font-size="14.00" fill="#000000">id </text>
<text text-anchor="start" x="430.7798" y="-603.9" font-family="Arial" font-size="14.00" fill="#666666">[bigint(20) unsigned]</text>
<polygon fill="none" stroke="#000000" points="409,-562.5 409,-592.5 751,-592.5 751,-562.5 409,-562.5"/>
<text text-anchor="start" x="416" y="-573.9" font-family="Arial" font-size="14.00" fill="#000000">electricity_fetch_setting_id </text>
<text text-anchor="start" x="584.0364" y="-573.9" font-family="Arial" font-size="14.00" fill="#666666">[bigint(20) unsigned]</text>
<polygon fill="none" stroke="#000000" points="409,-532.5 409,-562.5 751,-562.5 751,-532.5 409,-532.5"/>
<text text-anchor="start" x="416" y="-543.9" font-family="Arial" font-size="14.00" fill="#000000">status_type_id </text>
<text text-anchor="start" x="510.1472" y="-543.9" font-family="Arial" font-size="14.00" fill="#666666">[tinyint(3) unsigned]</text>
<polygon fill="none" stroke="#000000" points="409,-502.5 409,-532.5 751,-532.5 751,-502.5 409,-502.5"/>
<text text-anchor="start" x="416" y="-513.9" font-family="Arial" font-size="14.00" fill="#000000">last_successful_at </text>
<text text-anchor="start" x="534.2538" y="-513.9" font-family="Arial" font-size="14.00" fill="#666666">[datetime]</text>
<polygon fill="none" stroke="#000000" points="409,-472.5 409,-502.5 751,-502.5 751,-472.5 409,-472.5"/>
<text text-anchor="start" x="416" y="-483.9" font-family="Arial" font-size="14.00" fill="#000000">last_failure_at </text>
<text text-anchor="start" x="507.021" y="-483.9" font-family="Arial" font-size="14.00" fill="#666666">[datetime]</text>
<polygon fill="none" stroke="#000000" points="409,-442.5 409,-472.5 751,-472.5 751,-442.5 409,-442.5"/>
<text text-anchor="start" x="416" y="-453.9" font-family="Arial" font-size="14.00" fill="#000000">created_at </text>
<text text-anchor="start" x="486.028" y="-453.9" font-family="Arial" font-size="14.00" fill="#666666">[datetime]</text>
<polygon fill="none" stroke="#000000" points="409,-412.5 409,-442.5 751,-442.5 751,-412.5 409,-412.5"/>
<text text-anchor="start" x="416" y="-423.9" font-family="Arial" font-size="14.00" fill="#000000">updated_at </text>
<text text-anchor="start" x="489.9326" y="-423.9" font-family="Arial" font-size="14.00" fill="#666666">[datetime]</text>
<polygon fill="none" stroke="#000000" stroke-width="3" points="407.5,-411.5 407.5,-659.5 752.5,-659.5 752.5,-411.5 407.5,-411.5"/>
</g>
<!-- electricity_fetch_settings -->
<g id="node2" class="node">
<title>electricity_fetch_settings</title>
<polygon fill="#efefef" stroke="transparent" points="202,-252.5 202,-287.5 539,-287.5 539,-252.5 202,-252.5"/>
<polygon fill="none" stroke="#000000" points="202,-252.5 202,-287.5 539,-287.5 539,-252.5 202,-252.5"/>
<text text-anchor="start" x="208.697" y="-265.3" font-family="Arial Bold" font-size="18.00" fill="#000000">electricity_fetch_settings</text>
<text text-anchor="start" x="404.735" y="-265.3" font-family="Arial" font-size="14.00" fill="#000000">    </text>
<text text-anchor="start" x="438.9398" y="-265.3" font-family="Arial" font-size="14.00" fill="#666666">[BASE TABLE]</text>
<polygon fill="none" stroke="#000000" points="202,-222.5 202,-252.5 539,-252.5 539,-222.5 202,-222.5"/>
<text text-anchor="start" x="209" y="-233.9" font-family="Arial" font-size="14.00" fill="#000000">id    </text>
<text text-anchor="start" x="254.094" y="-233.9" font-family="Arial" font-size="14.00" fill="#666666">[bigint(20) unsigned]</text>
<polygon fill="none" stroke="#000000" points="202,-192.5 202,-222.5 539,-222.5 539,-192.5 202,-192.5"/>
<text text-anchor="start" x="209" y="-203.9" font-family="Arial" font-size="14.00" fill="#000000">electricity_site_id    </text>
<text text-anchor="start" x="349.7658" y="-203.9" font-family="Arial" font-size="14.00" fill="#666666">[bigint(20) unsigned]</text>
<polygon fill="none" stroke="#000000" points="202,-162.5 202,-192.5 539,-192.5 539,-162.5 202,-162.5"/>
<text text-anchor="start" x="209" y="-173.9" font-family="Arial" font-size="14.00" fill="#000000">user_name    </text>
<text text-anchor="start" x="313.2216" y="-173.9" font-family="Arial" font-size="14.00" fill="#666666">[varchar(255)]</text>
<polygon fill="none" stroke="#000000" points="202,-132.5 202,-162.5 539,-162.5 539,-132.5 202,-132.5"/>
<text text-anchor="start" x="209" y="-143.9" font-family="Arial" font-size="14.00" fill="#000000">encrypted_password    </text>
<text text-anchor="start" x="372.3492" y="-143.9" font-family="Arial" font-size="14.00" fill="#666666">[varchar(512)]</text>
<polygon fill="none" stroke="#000000" points="202,-102.5 202,-132.5 539,-132.5 539,-102.5 202,-102.5"/>
<text text-anchor="start" x="209" y="-113.9" font-family="Arial" font-size="14.00" fill="#000000">fetch_enable    </text>
<text text-anchor="start" x="323.3534" y="-113.9" font-family="Arial" font-size="14.00" fill="#666666">[tinyint(1)]</text>
<polygon fill="none" stroke="#000000" points="202,-72.5 202,-102.5 539,-102.5 539,-72.5 202,-72.5"/>
<text text-anchor="start" x="209" y="-83.9" font-family="Arial" font-size="14.00" fill="#000000">created_at    </text>
<text text-anchor="start" x="309.3422" y="-83.9" font-family="Arial" font-size="14.00" fill="#666666">[datetime]</text>
<polygon fill="none" stroke="#000000" points="202,-42.5 202,-72.5 539,-72.5 539,-42.5 202,-42.5"/>
<text text-anchor="start" x="209" y="-53.9" font-family="Arial" font-size="14.00" fill="#000000">updated_at    </text>
<text text-anchor="start" x="313.2468" y="-53.9" font-family="Arial" font-size="14.00" fill="#666666">[datetime]</text>
</g>
<!-- electricity_fetch_statuses&#45;&gt;electricity_fetch_settings -->
<g id="edge1" class="edge">
<title>electricity_fetch_statuses:electricity_fetch_setting_id&#45;&gt;electricity_fetch_settings:id</title>
<path fill="none" stroke="#000000" d="M398.6271,-576.889C318.3584,-566.9658 354.5701,-438.5513 409,-367 445.2976,-319.2847 502.7024,-378.7153 539,-331 564.1595,-297.9264 580.5556,-237.5 539,-237.5"/>
<polygon fill="#000000" stroke="#000000" points="399.0173,-576.9119 408.7354,-581.9922 404.0087,-577.206 409,-577.5 409,-577.5 409,-577.5 404.0087,-577.206 409.2646,-573.0078 399.0173,-576.9119 399.0173,-576.9119"/>
<text text-anchor="start" x="7.482" y="-587.5" font-family="Arial" font-size="10.00" fill="#000000">FOREIGN KEY (electricity_fetch_setting_id) REFERENCES electricity_fetch_settings (id)</text>
</g>
<!-- fetch_status_types -->
<g id="node3" class="node">
<title>fetch_status_types</title>
<polygon fill="#efefef" stroke="transparent" points="643,-207.5 643,-242.5 934,-242.5 934,-207.5 643,-207.5"/>
<polygon fill="none" stroke="#000000" points="643,-207.5 643,-242.5 934,-242.5 934,-207.5 643,-207.5"/>
<text text-anchor="start" x="649.6857" y="-220.3" font-family="Arial Bold" font-size="18.00" fill="#000000">fetch_status_types</text>
<text text-anchor="start" x="799.7463" y="-220.3" font-family="Arial" font-size="14.00" fill="#000000">    </text>
<text text-anchor="start" x="833.9511" y="-220.3" font-family="Arial" font-size="14.00" fill="#666666">[BASE TABLE]</text>
<polygon fill="none" stroke="#000000" points="643,-177.5 643,-207.5 934,-207.5 934,-177.5 643,-177.5"/>
<text text-anchor="start" x="650" y="-188.9" font-family="Arial" font-size="14.00" fill="#000000">id    </text>
<text text-anchor="start" x="695.094" y="-188.9" font-family="Arial" font-size="14.00" fill="#666666">[tinyint(3) unsigned]</text>
<polygon fill="none" stroke="#000000" points="643,-147.5 643,-177.5 934,-177.5 934,-147.5 643,-147.5"/>
<text text-anchor="start" x="650" y="-158.9" font-family="Arial" font-size="14.00" fill="#000000">type_name    </text>
<text text-anchor="start" x="753.4516" y="-158.9" font-family="Arial" font-size="14.00" fill="#666666">[varchar(255)]</text>
<polygon fill="none" stroke="#000000" points="643,-117.5 643,-147.5 934,-147.5 934,-117.5 643,-117.5"/>
<text text-anchor="start" x="650" y="-128.9" font-family="Arial" font-size="14.00" fill="#000000">created_at    </text>
<text text-anchor="start" x="750.3422" y="-128.9" font-family="Arial" font-size="14.00" fill="#666666">[datetime]</text>
<polygon fill="none" stroke="#000000" points="643,-87.5 643,-117.5 934,-117.5 934,-87.5 643,-87.5"/>
<text text-anchor="start" x="650" y="-98.9" font-family="Arial" font-size="14.00" fill="#000000">updated_at    </text>
<text text-anchor="start" x="754.2468" y="-98.9" font-family="Arial" font-size="14.00" fill="#666666">[datetime]</text>
</g>
<!-- electricity_fetch_statuses&#45;&gt;fetch_status_types -->
<g id="edge2" class="edge">
<title>electricity_fetch_statuses:status_type_id&#45;&gt;fetch_status_types:id</title>
<path fill="none" stroke="#000000" d="M761.0691,-546.8549C827.2551,-537.8044 785.2648,-435.5297 751,-367 724.1672,-313.3344 669.8328,-339.6656 643,-286 624.4158,-248.8316 601.4444,-192.5 643,-192.5"/>
<polygon fill="#000000" stroke="#000000" points="760.9795,-546.8605 750.7122,-543.0092 755.9898,-547.1803 751,-547.5 751,-547.5 751,-547.5 755.9898,-547.1803 751.2878,-551.9908 760.9795,-546.8605 760.9795,-546.8605"/>
<text text-anchor="start" x="757.6425" y="-557.5" font-family="Arial" font-size="10.00" fill="#000000">FOREIGN KEY (status_type_id) REFERENCES fetch_status_types (id)</text>
</g>
</g>
</svg>
