<?xml version="1.0" encoding="UTF-8" standalone="no"?>
<!DOCTYPE svg PUBLIC "-//W3C//DTD SVG 1.1//EN"
 "http://www.w3.org/Graphics/SVG/1.1/DTD/svg11.dtd">
<!-- Generated by graphviz version 12.1.2 (20240928.0832)
 -->
<!-- Title: electricity_notify_dest_line_users Pages: 1 -->
<svg width="1088pt" height="756pt"
 viewBox="0.00 0.00 1088.41 756.00" xmlns="http://www.w3.org/2000/svg" xmlns:xlink="http://www.w3.org/1999/xlink">
<g id="graph0" class="graph" transform="scale(1 1) rotate(0) translate(4 752)">
<title>electricity_notify_dest_line_users</title>
<polygon fill="white" stroke="none" points="-4,4 -4,-752 1084.41,-752 1084.41,4 -4,4"/>
<!-- electricity_notify_dest_line_users -->
<g id="node1" class="node">
<title>electricity_notify_dest_line_users</title>
<polygon fill="#efefef" stroke="none" points="414.58,-666.2 414.58,-701.8 797,-701.8 797,-666.2 414.58,-666.2"/>
<polygon fill="none" stroke="black" points="414.58,-666.2 414.58,-701.8 797,-701.8 797,-666.2 414.58,-666.2"/>
<text text-anchor="start" x="421.58" y="-679.6" font-family="Arial Bold" font-size="18.00">electricity_notify_dest_line_users</text>
<text text-anchor="start" x="665.51" y="-679.6" font-family="Arial" font-size="14.00">    </text>
<text text-anchor="start" x="696.62" y="-679.6" font-family="Arial" font-size="14.00" fill="#666666">[BASE TABLE]</text>
<polygon fill="none" stroke="black" points="414.58,-635.4 414.58,-666.2 797,-666.2 797,-635.4 414.58,-635.4"/>
<text text-anchor="start" x="421.58" y="-647.6" font-family="Arial" font-size="14.00">electricity_notify_setting_id </text>
<text text-anchor="start" x="592.77" y="-647.6" font-family="Arial" font-size="14.00" fill="#666666">[bigint(20) unsigned]</text>
<polygon fill="none" stroke="black" points="414.58,-604.6 414.58,-635.4 797,-635.4 797,-604.6 414.58,-604.6"/>
<text text-anchor="start" x="421.58" y="-616.8" font-family="Arial" font-size="14.00">line_user_id </text>
<text text-anchor="start" x="500.96" y="-616.8" font-family="Arial" font-size="14.00" fill="#666666">[varchar(256)]</text>
<polygon fill="none" stroke="black" points="414.58,-573.8 414.58,-604.6 797,-604.6 797,-573.8 414.58,-573.8"/>
<text text-anchor="start" x="421.58" y="-586" font-family="Arial" font-size="14.00">notify_enable </text>
<text text-anchor="start" x="508.75" y="-586" font-family="Arial" font-size="14.00" fill="#666666">[tinyint(1)]</text>
<polygon fill="none" stroke="black" points="414.58,-543 414.58,-573.8 797,-573.8 797,-543 414.58,-543"/>
<text text-anchor="start" x="421.58" y="-555.2" font-family="Arial" font-size="14.00">last_notified_at </text>
<text text-anchor="start" x="519.64" y="-555.2" font-family="Arial" font-size="14.00" fill="#666666">[datetime]</text>
<polygon fill="none" stroke="black" points="414.58,-512.2 414.58,-543 797,-543 797,-512.2 414.58,-512.2"/>
<text text-anchor="start" x="421.58" y="-524.4" font-family="Arial" font-size="14.00">created_at </text>
<text text-anchor="start" x="491.62" y="-524.4" font-family="Arial" font-size="14.00" fill="#666666">[datetime]</text>
<polygon fill="none" stroke="black" points="414.58,-481.4 414.58,-512.2 797,-512.2 797,-481.4 414.58,-481.4"/>
<text text-anchor="start" x="421.58" y="-493.6" font-family="Arial" font-size="14.00">updated_at </text>
<text text-anchor="start" x="495.53" y="-493.6" font-family="Arial" font-size="14.00" fill="#666666">[datetime]</text>
<polygon fill="none" stroke="black" stroke-width="3" points="413.08,-479.9 413.08,-703.3 798.5,-703.3 798.5,-479.9 413.08,-479.9"/>
</g>
<!-- electricity_notify_settings -->
<g id="node2" class="node">
<title>electricity_notify_settings</title>
<polygon fill="#efefef" stroke="none" points="256.56,-320.4 256.56,-356 583.01,-356 583.01,-320.4 256.56,-320.4"/>
<polygon fill="none" stroke="black" points="256.56,-320.4 256.56,-356 583.01,-356 583.01,-320.4 256.56,-320.4"/>
<text text-anchor="start" x="263.56" y="-333.8" font-family="Arial Bold" font-size="18.00">electricity_notify_settings</text>
<text text-anchor="start" x="451.52" y="-333.8" font-family="Arial" font-size="14.00">    </text>
<text text-anchor="start" x="482.64" y="-333.8" font-family="Arial" font-size="14.00" fill="#666666">[BASE TABLE]</text>
<polygon fill="none" stroke="black" points="256.56,-289.6 256.56,-320.4 583.01,-320.4 583.01,-289.6 256.56,-289.6"/>
<text text-anchor="start" x="263.56" y="-301.8" font-family="Arial" font-size="14.00">id </text>
<text text-anchor="start" x="278.35" y="-301.8" font-family="Arial" font-size="14.00" fill="#666666">[bigint(20) unsigned]</text>
<polygon fill="none" stroke="black" points="256.56,-258.8 256.56,-289.6 583.01,-289.6 583.01,-258.8 256.56,-258.8"/>
<text text-anchor="start" x="263.56" y="-271" font-family="Arial" font-size="14.00">electricity_fetch_setting_id </text>
<text text-anchor="start" x="431.65" y="-271" font-family="Arial" font-size="14.00" fill="#666666">[bigint(20) unsigned]</text>
<polygon fill="none" stroke="black" points="256.56,-228 256.56,-258.8 583.01,-258.8 583.01,-228 256.56,-228"/>
<text text-anchor="start" x="263.56" y="-240.2" font-family="Arial" font-size="14.00">line_channel_id </text>
<text text-anchor="start" x="364.76" y="-240.2" font-family="Arial" font-size="14.00" fill="#666666">[varchar(256)]</text>
<polygon fill="none" stroke="black" points="256.56,-197.2 256.56,-228 583.01,-228 583.01,-197.2 256.56,-197.2"/>
<text text-anchor="start" x="263.56" y="-209.4" font-family="Arial" font-size="14.00">advisor_id </text>
<text text-anchor="start" x="331.27" y="-209.4" font-family="Arial" font-size="14.00" fill="#666666">[bigint(20) unsigned]</text>
<polygon fill="none" stroke="black" points="256.56,-166.4 256.56,-197.2 583.01,-197.2 583.01,-166.4 256.56,-166.4"/>
<text text-anchor="start" x="263.56" y="-178.6" font-family="Arial" font-size="14.00">notify_date </text>
<text text-anchor="start" x="335.95" y="-178.6" font-family="Arial" font-size="14.00" fill="#666666">[tinyint(3) unsigned]</text>
<polygon fill="none" stroke="black" points="256.56,-135.6 256.56,-166.4 583.01,-166.4 583.01,-135.6 256.56,-135.6"/>
<text text-anchor="start" x="263.56" y="-147.8" font-family="Arial" font-size="14.00">notify_enable </text>
<text text-anchor="start" x="350.74" y="-147.8" font-family="Arial" font-size="14.00" fill="#666666">[tinyint(1)]</text>
<polygon fill="none" stroke="black" points="256.56,-104.8 256.56,-135.6 583.01,-135.6 583.01,-104.8 256.56,-104.8"/>
<text text-anchor="start" x="263.56" y="-117" font-family="Arial" font-size="14.00">template </text>
<text text-anchor="start" x="321.15" y="-117" font-family="Arial" font-size="14.00" fill="#666666">[text]</text>
<polygon fill="none" stroke="black" points="256.56,-74 256.56,-104.8 583.01,-104.8 583.01,-74 256.56,-74"/>
<text text-anchor="start" x="263.56" y="-86.2" font-family="Arial" font-size="14.00">created_at </text>
<text text-anchor="start" x="333.61" y="-86.2" font-family="Arial" font-size="14.00" fill="#666666">[datetime]</text>
<polygon fill="none" stroke="black" points="256.56,-43.2 256.56,-74 583.01,-74 583.01,-43.2 256.56,-43.2"/>
<text text-anchor="start" x="263.56" y="-55.4" font-family="Arial" font-size="14.00">updated_at </text>
<text text-anchor="start" x="337.52" y="-55.4" font-family="Arial" font-size="14.00" fill="#666666">[datetime]</text>
</g>
<!-- electricity_notify_dest_line_users&#45;&gt;electricity_notify_settings -->
<g id="edge1" class="edge">
<title>electricity_notify_dest_line_users:electricity_notify_setting_id&#45;&gt;electricity_notify_settings:id</title>
<path fill="none" stroke="black" d="M403.2,-650.2C320.56,-640.14 356.44,-506.73 414.58,-435.2 462.85,-375.79 534.55,-458.46 583.01,-399.2 609.51,-366.79 625.88,-305 584.01,-305"/>
<polygon fill="black" stroke="black" points="403.26,-650.2 412.98,-655.27 408.58,-650.51 412.91,-650.76 412.91,-650.76 412.91,-650.76 408.58,-650.51 413.5,-646.29 403.26,-650.2"/>
<text text-anchor="start" x="7" y="-660.8" font-family="Arial" font-size="10.00">FOREIGN KEY (electricity_notify_setting_id) REFERENCES electricity_notify_settings (id)</text>
</g>
<!-- line_users -->
<g id="node3" class="node">
<title>line_users</title>
<polygon fill="#efefef" stroke="none" points="687.05,-243.4 687.05,-279 898.52,-279 898.52,-243.4 687.05,-243.4"/>
<polygon fill="none" stroke="black" points="687.05,-243.4 687.05,-279 898.52,-279 898.52,-243.4 687.05,-243.4"/>
<text text-anchor="start" x="694.05" y="-256.8" font-family="Arial Bold" font-size="18.00">line_users</text>
<text text-anchor="start" x="767.03" y="-256.8" font-family="Arial" font-size="14.00">    </text>
<text text-anchor="start" x="798.15" y="-256.8" font-family="Arial" font-size="14.00" fill="#666666">[BASE TABLE]</text>
<polygon fill="none" stroke="black" points="687.05,-212.6 687.05,-243.4 898.52,-243.4 898.52,-212.6 687.05,-212.6"/>
<text text-anchor="start" x="694.05" y="-224.8" font-family="Arial" font-size="14.00">id </text>
<text text-anchor="start" x="708.83" y="-224.8" font-family="Arial" font-size="14.00" fill="#666666">[varchar(256)]</text>
<polygon fill="none" stroke="black" points="687.05,-181.8 687.05,-212.6 898.52,-212.6 898.52,-181.8 687.05,-181.8"/>
<text text-anchor="start" x="694.05" y="-194" font-family="Arial" font-size="14.00">memo </text>
<text text-anchor="start" x="736.83" y="-194" font-family="Arial" font-size="14.00" fill="#666666">[text]</text>
<polygon fill="none" stroke="black" points="687.05,-151 687.05,-181.8 898.52,-181.8 898.52,-151 687.05,-151"/>
<text text-anchor="start" x="694.05" y="-163.2" font-family="Arial" font-size="14.00">created_at </text>
<text text-anchor="start" x="764.1" y="-163.2" font-family="Arial" font-size="14.00" fill="#666666">[datetime]</text>
<polygon fill="none" stroke="black" points="687.05,-120.2 687.05,-151 898.52,-151 898.52,-120.2 687.05,-120.2"/>
<text text-anchor="start" x="694.05" y="-132.4" font-family="Arial" font-size="14.00">updated_at </text>
<text text-anchor="start" x="768.01" y="-132.4" font-family="Arial" font-size="14.00" fill="#666666">[datetime]</text>
</g>
<!-- electricity_notify_dest_line_users&#45;&gt;line_users -->
<g id="edge2" class="edge">
<title>electricity_notify_dest_line_users:line_user_id&#45;&gt;line_users:id</title>
<path fill="none" stroke="black" d="M808.27,-619.35C875.5,-610.29 826.72,-507.8 797,-435.2 770.45,-370.35 713.76,-386.98 687.05,-322.2 671.09,-283.49 644.18,-228 686.05,-228"/>
<polygon fill="black" stroke="black" points="808.31,-619.35 798.05,-615.49 802.99,-619.69 798.66,-619.96 798.66,-619.96 798.66,-619.96 802.99,-619.69 798.61,-624.47 808.31,-619.35"/>
<text text-anchor="start" x="805" y="-630" font-family="Arial" font-size="10.00">FOREIGN KEY (line_user_id) REFERENCES line_users (id)</text>
</g>
</g>
</svg>
