<?xml version="1.0" encoding="UTF-8" standalone="no"?>
<!DOCTYPE svg PUBLIC "-//W3C//DTD SVG 1.1//EN"
 "http://www.w3.org/Graphics/SVG/1.1/DTD/svg11.dtd">
<!-- Generated by graphviz version 12.1.2 (20240928.0832)
 -->
<!-- Title: electricity_daily_usages Pages: 1 -->
<svg width="777pt" height="756pt"
 viewBox="0.00 0.00 777.25 756.00" xmlns="http://www.w3.org/2000/svg" xmlns:xlink="http://www.w3.org/1999/xlink">
<g id="graph0" class="graph" transform="scale(1 1) rotate(0) translate(4 752)">
<title>electricity_daily_usages</title>
<polygon fill="white" stroke="none" points="-4,4 -4,-752 773.25,-752 773.25,4 -4,4"/>
<!-- electricity_daily_usages -->
<g id="node1" class="node">
<title>electricity_daily_usages</title>
<polygon fill="#efefef" stroke="none" points="46.7,-666.2 46.7,-701.8 359.12,-701.8 359.12,-666.2 46.7,-666.2"/>
<polygon fill="none" stroke="black" points="46.7,-666.2 46.7,-701.8 359.12,-701.8 359.12,-666.2 46.7,-666.2"/>
<text text-anchor="start" x="53.7" y="-679.6" font-family="Arial Bold" font-size="18.00">electricity_daily_usages</text>
<text text-anchor="start" x="227.63" y="-679.6" font-family="Arial" font-size="14.00">    </text>
<text text-anchor="start" x="258.75" y="-679.6" font-family="Arial" font-size="14.00" fill="#666666">[BASE TABLE]</text>
<polygon fill="none" stroke="black" points="46.7,-635.4 46.7,-666.2 359.12,-666.2 359.12,-635.4 46.7,-635.4"/>
<text text-anchor="start" x="53.7" y="-647.6" font-family="Arial" font-size="14.00">electricity_fetch_setting_id </text>
<text text-anchor="start" x="221.79" y="-647.6" font-family="Arial" font-size="14.00" fill="#666666">[bigint(20) unsigned]</text>
<polygon fill="none" stroke="black" points="46.7,-604.6 46.7,-635.4 359.12,-635.4 359.12,-604.6 46.7,-604.6"/>
<text text-anchor="start" x="53.7" y="-616.8" font-family="Arial" font-size="14.00">usage_year </text>
<text text-anchor="start" x="130.75" y="-616.8" font-family="Arial" font-size="14.00" fill="#666666">[int(10) unsigned]</text>
<polygon fill="none" stroke="black" points="46.7,-573.8 46.7,-604.6 359.12,-604.6 359.12,-573.8 46.7,-573.8"/>
<text text-anchor="start" x="53.7" y="-586" font-family="Arial" font-size="14.00">usage_month </text>
<text text-anchor="start" x="142.43" y="-586" font-family="Arial" font-size="14.00" fill="#666666">[int(10) unsigned]</text>
<polygon fill="none" stroke="black" points="46.7,-543 46.7,-573.8 359.12,-573.8 359.12,-543 46.7,-543"/>
<text text-anchor="start" x="53.7" y="-555.2" font-family="Arial" font-size="14.00">usage_date </text>
<text text-anchor="start" x="130.77" y="-555.2" font-family="Arial" font-size="14.00" fill="#666666">[int(10) unsigned]</text>
<polygon fill="none" stroke="black" points="46.7,-512.2 46.7,-543 359.12,-543 359.12,-512.2 46.7,-512.2"/>
<text text-anchor="start" x="53.7" y="-524.4" font-family="Arial" font-size="14.00">usage_amount </text>
<text text-anchor="start" x="150.21" y="-524.4" font-family="Arial" font-size="14.00" fill="#666666">[decimal(15,5) unsigned]</text>
<polygon fill="none" stroke="black" points="46.7,-481.4 46.7,-512.2 359.12,-512.2 359.12,-481.4 46.7,-481.4"/>
<text text-anchor="start" x="53.7" y="-493.6" font-family="Arial" font-size="14.00">created_at </text>
<text text-anchor="start" x="123.75" y="-493.6" font-family="Arial" font-size="14.00" fill="#666666">[datetime]</text>
<polygon fill="none" stroke="black" points="46.7,-450.6 46.7,-481.4 359.12,-481.4 359.12,-450.6 46.7,-450.6"/>
<text text-anchor="start" x="53.7" y="-462.8" font-family="Arial" font-size="14.00">updated_at </text>
<text text-anchor="start" x="127.66" y="-462.8" font-family="Arial" font-size="14.00" fill="#666666">[datetime]</text>
<polygon fill="none" stroke="black" stroke-width="3" points="45.2,-449.1 45.2,-703.3 360.62,-703.3 360.62,-449.1 45.2,-449.1"/>
</g>
<!-- electricity_fetch_settings -->
<g id="node2" class="node">
<title>electricity_fetch_settings</title>
<polygon fill="#efefef" stroke="none" points="43.2,-289.6 43.2,-325.2 362.62,-325.2 362.62,-289.6 43.2,-289.6"/>
<polygon fill="none" stroke="black" points="43.2,-289.6 43.2,-325.2 362.62,-325.2 362.62,-289.6 43.2,-289.6"/>
<text text-anchor="start" x="50.2" y="-303" font-family="Arial Bold" font-size="18.00">electricity_fetch_settings</text>
<text text-anchor="start" x="231.13" y="-303" font-family="Arial" font-size="14.00">    </text>
<text text-anchor="start" x="262.25" y="-303" font-family="Arial" font-size="14.00" fill="#666666">[BASE TABLE]</text>
<polygon fill="none" stroke="black" points="43.2,-258.8 43.2,-289.6 362.62,-289.6 362.62,-258.8 43.2,-258.8"/>
<text text-anchor="start" x="50.2" y="-271" font-family="Arial" font-size="14.00">id </text>
<text text-anchor="start" x="64.99" y="-271" font-family="Arial" font-size="14.00" fill="#666666">[bigint(20) unsigned]</text>
<polygon fill="none" stroke="black" points="43.2,-228 43.2,-258.8 362.62,-258.8 362.62,-228 43.2,-228"/>
<text text-anchor="start" x="50.2" y="-240.2" font-family="Arial" font-size="14.00">setting_name </text>
<text text-anchor="start" x="138.14" y="-240.2" font-family="Arial" font-size="14.00" fill="#666666">[varchar(255)]</text>
<polygon fill="none" stroke="black" points="43.2,-197.2 43.2,-228 362.62,-228 362.62,-197.2 43.2,-197.2"/>
<text text-anchor="start" x="50.2" y="-209.4" font-family="Arial" font-size="14.00">electricity_site_id </text>
<text text-anchor="start" x="160.69" y="-209.4" font-family="Arial" font-size="14.00" fill="#666666">[bigint(20) unsigned]</text>
<polygon fill="none" stroke="black" points="43.2,-166.4 43.2,-197.2 362.62,-197.2 362.62,-166.4 43.2,-166.4"/>
<text text-anchor="start" x="50.2" y="-178.6" font-family="Arial" font-size="14.00">user_name </text>
<text text-anchor="start" x="124.13" y="-178.6" font-family="Arial" font-size="14.00" fill="#666666">[varchar(255)]</text>
<polygon fill="none" stroke="black" points="43.2,-135.6 43.2,-166.4 362.62,-166.4 362.62,-135.6 43.2,-135.6"/>
<text text-anchor="start" x="50.2" y="-147.8" font-family="Arial" font-size="14.00">encrypted_password </text>
<text text-anchor="start" x="183.28" y="-147.8" font-family="Arial" font-size="14.00" fill="#666666">[varchar(512)]</text>
<polygon fill="none" stroke="black" points="43.2,-104.8 43.2,-135.6 362.62,-135.6 362.62,-104.8 43.2,-104.8"/>
<text text-anchor="start" x="50.2" y="-117" font-family="Arial" font-size="14.00">fetch_enable </text>
<text text-anchor="start" x="134.27" y="-117" font-family="Arial" font-size="14.00" fill="#666666">[tinyint(1)]</text>
<polygon fill="none" stroke="black" points="43.2,-74 43.2,-104.8 362.62,-104.8 362.62,-74 43.2,-74"/>
<text text-anchor="start" x="50.2" y="-86.2" font-family="Arial" font-size="14.00">created_at </text>
<text text-anchor="start" x="120.25" y="-86.2" font-family="Arial" font-size="14.00" fill="#666666">[datetime]</text>
<polygon fill="none" stroke="black" points="43.2,-43.2 43.2,-74 362.62,-74 362.62,-43.2 43.2,-43.2"/>
<text text-anchor="start" x="50.2" y="-55.4" font-family="Arial" font-size="14.00">updated_at </text>
<text text-anchor="start" x="124.16" y="-55.4" font-family="Arial" font-size="14.00" fill="#666666">[datetime]</text>
</g>
<!-- electricity_daily_usages&#45;&gt;electricity_fetch_settings -->
<g id="edge1" class="edge">
<title>electricity_daily_usages:electricity_fetch_setting_id&#45;&gt;electricity_fetch_settings:id</title>
<path fill="none" stroke="black" d="M370.02,-648.95C443.96,-620.54 443.88,-274.2 363.62,-274.2"/>
<polygon fill="black" stroke="black" points="370.28,-648.9 359.63,-646.32 365.04,-649.88 360.78,-650.68 360.78,-650.68 360.78,-650.68 365.04,-649.88 361.28,-655.16 370.28,-648.9"/>
<text text-anchor="start" x="367.12" y="-660.8" font-family="Arial" font-size="10.00">FOREIGN KEY (electricity_fetch_setting_id) REFERENCES electricity_fetch_settings (id)</text>
</g>
</g>
</svg>
