<?xml version="1.0" encoding="UTF-8" standalone="no"?>
<!DOCTYPE svg PUBLIC "-//W3C//DTD SVG 1.1//EN"
 "http://www.w3.org/Graphics/SVG/1.1/DTD/svg11.dtd">
<!-- Generated by graphviz version 2.40.1 (20161225.0304)
 -->
<!-- Title: electricity_fetch_settings Pages: 1 -->
<svg width="1368pt" height="712pt"
 viewBox="0.00 0.00 1367.50 712.00" xmlns="http://www.w3.org/2000/svg" xmlns:xlink="http://www.w3.org/1999/xlink">
<g id="graph0" class="graph" transform="scale(1 1) rotate(0) translate(4 708)">
<title>electricity_fetch_settings</title>
<polygon fill="#ffffff" stroke="transparent" points="-4,4 -4,-708 1363.5,-708 1363.5,4 -4,4"/>
<!-- electricity_fetch_settings -->
<g id="node1" class="node">
<title>electricity_fetch_settings</title>
<polygon fill="#efefef" stroke="transparent" points="515,-225.5 515,-260.5 852,-260.5 852,-225.5 515,-225.5"/>
<polygon fill="none" stroke="#000000" points="515,-225.5 515,-260.5 852,-260.5 852,-225.5 515,-225.5"/>
<text text-anchor="start" x="521.697" y="-238.3" font-family="Arial Bold" font-size="18.00" fill="#000000">electricity_fetch_settings</text>
<text text-anchor="start" x="717.735" y="-238.3" font-family="Arial" font-size="14.00" fill="#000000">    </text>
<text text-anchor="start" x="751.9398" y="-238.3" font-family="Arial" font-size="14.00" fill="#666666">[BASE TABLE]</text>
<polygon fill="none" stroke="#000000" points="515,-195.5 515,-225.5 852,-225.5 852,-195.5 515,-195.5"/>
<text text-anchor="start" x="522" y="-206.9" font-family="Arial" font-size="14.00" fill="#000000">id </text>
<text text-anchor="start" x="536.7798" y="-206.9" font-family="Arial" font-size="14.00" fill="#666666">[bigint(20) unsigned]</text>
<polygon fill="none" stroke="#000000" points="515,-165.5 515,-195.5 852,-195.5 852,-165.5 515,-165.5"/>
<text text-anchor="start" x="522" y="-176.9" font-family="Arial" font-size="14.00" fill="#000000">electricity_site_id </text>
<text text-anchor="start" x="632.4516" y="-176.9" font-family="Arial" font-size="14.00" fill="#666666">[bigint(20) unsigned]</text>
<polygon fill="none" stroke="#000000" points="515,-135.5 515,-165.5 852,-165.5 852,-135.5 515,-135.5"/>
<text text-anchor="start" x="522" y="-146.9" font-family="Arial" font-size="14.00" fill="#000000">user_name </text>
<text text-anchor="start" x="595.9074" y="-146.9" font-family="Arial" font-size="14.00" fill="#666666">[varchar(255)]</text>
<polygon fill="none" stroke="#000000" points="515,-105.5 515,-135.5 852,-135.5 852,-105.5 515,-105.5"/>
<text text-anchor="start" x="522" y="-116.9" font-family="Arial" font-size="14.00" fill="#000000">encrypted_password </text>
<text text-anchor="start" x="655.035" y="-116.9" font-family="Arial" font-size="14.00" fill="#666666">[varchar(512)]</text>
<polygon fill="none" stroke="#000000" points="515,-75.5 515,-105.5 852,-105.5 852,-75.5 515,-75.5"/>
<text text-anchor="start" x="522" y="-86.9" font-family="Arial" font-size="14.00" fill="#000000">created_at </text>
<text text-anchor="start" x="592.028" y="-86.9" font-family="Arial" font-size="14.00" fill="#666666">[datetime]</text>
<polygon fill="none" stroke="#000000" points="515,-45.5 515,-75.5 852,-75.5 852,-45.5 515,-45.5"/>
<text text-anchor="start" x="522" y="-56.9" font-family="Arial" font-size="14.00" fill="#000000">updated_at </text>
<text text-anchor="start" x="595.9326" y="-56.9" font-family="Arial" font-size="14.00" fill="#666666">[datetime]</text>
<polygon fill="none" stroke="#000000" stroke-width="3" points="513,-44.5 513,-262.5 853,-262.5 853,-44.5 513,-44.5"/>
</g>
<!-- electricity_daily_usages -->
<g id="node2" class="node">
<title>electricity_daily_usages</title>
<polygon fill="#efefef" stroke="transparent" points="70,-610.5 70,-645.5 409,-645.5 409,-610.5 70,-610.5"/>
<polygon fill="none" stroke="#000000" points="70,-610.5 70,-645.5 409,-645.5 409,-610.5 70,-610.5"/>
<text text-anchor="start" x="80.7012" y="-623.3" font-family="Arial Bold" font-size="18.00" fill="#000000">electricity_daily_usages</text>
<text text-anchor="start" x="270.7308" y="-623.3" font-family="Arial" font-size="14.00" fill="#000000">    </text>
<text text-anchor="start" x="304.9356" y="-623.3" font-family="Arial" font-size="14.00" fill="#666666">[BASE TABLE]</text>
<polygon fill="none" stroke="#000000" points="70,-580.5 70,-610.5 409,-610.5 409,-580.5 70,-580.5"/>
<text text-anchor="start" x="76.9187" y="-591.9" font-family="Arial" font-size="14.00" fill="#000000">electricity_fetch_setting_id    </text>
<text text-anchor="start" x="275.2693" y="-591.9" font-family="Arial" font-size="14.00" fill="#666666">[bigint(20) unsigned]</text>
<polygon fill="none" stroke="#000000" points="70,-550.5 70,-580.5 409,-580.5 409,-550.5 70,-550.5"/>
<text text-anchor="start" x="77" y="-561.9" font-family="Arial" font-size="14.00" fill="#000000">usage_year    </text>
<text text-anchor="start" x="184.3436" y="-561.9" font-family="Arial" font-size="14.00" fill="#666666">[int(10) unsigned]</text>
<polygon fill="none" stroke="#000000" points="70,-520.5 70,-550.5 409,-550.5 409,-520.5 70,-520.5"/>
<text text-anchor="start" x="77" y="-531.9" font-family="Arial" font-size="14.00" fill="#000000">usage_month    </text>
<text text-anchor="start" x="196.0168" y="-531.9" font-family="Arial" font-size="14.00" fill="#666666">[int(10) unsigned]</text>
<polygon fill="none" stroke="#000000" points="70,-490.5 70,-520.5 409,-520.5 409,-490.5 70,-490.5"/>
<text text-anchor="start" x="77" y="-501.9" font-family="Arial" font-size="14.00" fill="#000000">usage_date    </text>
<text text-anchor="start" x="184.3562" y="-501.9" font-family="Arial" font-size="14.00" fill="#666666">[int(10) unsigned]</text>
<polygon fill="none" stroke="#000000" points="70,-460.5 70,-490.5 409,-490.5 409,-460.5 70,-460.5"/>
<text text-anchor="start" x="77" y="-471.9" font-family="Arial" font-size="14.00" fill="#000000">usage_amount    </text>
<text text-anchor="start" x="203.7994" y="-471.9" font-family="Arial" font-size="14.00" fill="#666666">[decimal(15,5) unsigned]</text>
<polygon fill="none" stroke="#000000" points="70,-430.5 70,-460.5 409,-460.5 409,-430.5 70,-430.5"/>
<text text-anchor="start" x="77" y="-441.9" font-family="Arial" font-size="14.00" fill="#000000">created_at    </text>
<text text-anchor="start" x="177.3422" y="-441.9" font-family="Arial" font-size="14.00" fill="#666666">[datetime]</text>
<polygon fill="none" stroke="#000000" points="70,-400.5 70,-430.5 409,-430.5 409,-400.5 70,-400.5"/>
<text text-anchor="start" x="77" y="-411.9" font-family="Arial" font-size="14.00" fill="#000000">updated_at    </text>
<text text-anchor="start" x="181.2468" y="-411.9" font-family="Arial" font-size="14.00" fill="#666666">[datetime]</text>
</g>
<!-- electricity_daily_usages&#45;&gt;electricity_fetch_settings -->
<g id="edge1" class="edge">
<title>electricity_daily_usages:electricity_fetch_setting_id&#45;&gt;electricity_fetch_settings:id</title>
<path fill="none" stroke="#000000" d="M418.8418,-593.2665C463.696,-571.3472 445.3824,-394.3873 461,-343 479.4916,-282.1562 451.4083,-210.5 515,-210.5"/>
<polygon fill="#000000" stroke="#000000" points="418.752,-593.2868 408.0041,-591.1116 413.876,-594.3934 409,-595.5 409,-595.5 409,-595.5 413.876,-594.3934 409.9959,-599.8884 418.752,-593.2868 418.752,-593.2868"/>
<text text-anchor="start" x="7.482" y="-605.5" font-family="Arial" font-size="10.00" fill="#000000">FOREIGN KEY (electricity_fetch_setting_id) REFERENCES electricity_fetch_settings (id)</text>
</g>
<!-- electricity_fetch_statuses -->
<g id="node3" class="node">
<title>electricity_fetch_statuses</title>
<polygon fill="#efefef" stroke="transparent" points="513,-610.5 513,-645.5 855,-645.5 855,-610.5 513,-610.5"/>
<polygon fill="none" stroke="#000000" points="513,-610.5 513,-645.5 855,-645.5 855,-610.5 513,-610.5"/>
<text text-anchor="start" x="519.6941" y="-623.3" font-family="Arial Bold" font-size="18.00" fill="#000000">electricity_fetch_statuses</text>
<text text-anchor="start" x="720.7379" y="-623.3" font-family="Arial" font-size="14.00" fill="#000000">    </text>
<text text-anchor="start" x="754.9427" y="-623.3" font-family="Arial" font-size="14.00" fill="#666666">[BASE TABLE]</text>
<polygon fill="none" stroke="#000000" points="513,-580.5 513,-610.5 855,-610.5 855,-580.5 513,-580.5"/>
<text text-anchor="start" x="520" y="-591.9" font-family="Arial" font-size="14.00" fill="#000000">id    </text>
<text text-anchor="start" x="565.094" y="-591.9" font-family="Arial" font-size="14.00" fill="#666666">[bigint(20) unsigned]</text>
<polygon fill="none" stroke="#000000" points="513,-550.5 513,-580.5 855,-580.5 855,-550.5 513,-550.5"/>
<text text-anchor="start" x="520" y="-561.9" font-family="Arial" font-size="14.00" fill="#000000">electricity_fetch_setting_id    </text>
<text text-anchor="start" x="718.3506" y="-561.9" font-family="Arial" font-size="14.00" fill="#666666">[bigint(20) unsigned]</text>
<polygon fill="none" stroke="#000000" points="513,-520.5 513,-550.5 855,-550.5 855,-520.5 513,-520.5"/>
<text text-anchor="start" x="520" y="-531.9" font-family="Arial" font-size="14.00" fill="#000000">status_type_id    </text>
<text text-anchor="start" x="644.4614" y="-531.9" font-family="Arial" font-size="14.00" fill="#666666">[tinyint(3) unsigned]</text>
<polygon fill="none" stroke="#000000" points="513,-490.5 513,-520.5 855,-520.5 855,-490.5 513,-490.5"/>
<text text-anchor="start" x="520" y="-501.9" font-family="Arial" font-size="14.00" fill="#000000">last_successful_at    </text>
<text text-anchor="start" x="668.568" y="-501.9" font-family="Arial" font-size="14.00" fill="#666666">[datetime]</text>
<polygon fill="none" stroke="#000000" points="513,-460.5 513,-490.5 855,-490.5 855,-460.5 513,-460.5"/>
<text text-anchor="start" x="520" y="-471.9" font-family="Arial" font-size="14.00" fill="#000000">last_failure_at    </text>
<text text-anchor="start" x="641.3352" y="-471.9" font-family="Arial" font-size="14.00" fill="#666666">[datetime]</text>
<polygon fill="none" stroke="#000000" points="513,-430.5 513,-460.5 855,-460.5 855,-430.5 513,-430.5"/>
<text text-anchor="start" x="520" y="-441.9" font-family="Arial" font-size="14.00" fill="#000000">created_at    </text>
<text text-anchor="start" x="620.3422" y="-441.9" font-family="Arial" font-size="14.00" fill="#666666">[datetime]</text>
<polygon fill="none" stroke="#000000" points="513,-400.5 513,-430.5 855,-430.5 855,-400.5 513,-400.5"/>
<text text-anchor="start" x="520" y="-411.9" font-family="Arial" font-size="14.00" fill="#000000">updated_at    </text>
<text text-anchor="start" x="624.2468" y="-411.9" font-family="Arial" font-size="14.00" fill="#666666">[datetime]</text>
</g>
<!-- electricity_fetch_statuses&#45;&gt;electricity_fetch_settings -->
<g id="edge2" class="edge">
<title>electricity_fetch_statuses:electricity_fetch_setting_id&#45;&gt;electricity_fetch_settings:id</title>
<path fill="none" stroke="#000000" d="M503.3076,-562.4884C469.4791,-539.3784 485.2677,-390.2165 513,-358 612.3999,-242.5276 752.6001,-422.4724 852,-307 879.9804,-274.4953 894.8889,-210.5 852,-210.5"/>
<polygon fill="#000000" stroke="#000000" points="503.4504,-562.5326 511.6647,-569.7973 508.2252,-564.0163 513,-565.5 513,-565.5 513,-565.5 508.2252,-564.0163 514.3353,-561.2027 503.4504,-562.5326 503.4504,-562.5326"/>
<text text-anchor="start" x="520.482" y="-575.5" font-family="Arial" font-size="10.00" fill="#000000">FOREIGN KEY (electricity_fetch_setting_id) REFERENCES electricity_fetch_settings (id)</text>
</g>
<!-- electricity_monthly_usages -->
<g id="node4" class="node">
<title>electricity_monthly_usages</title>
<polygon fill="#efefef" stroke="transparent" points="960,-625.5 960,-660.5 1317,-660.5 1317,-625.5 960,-625.5"/>
<polygon fill="none" stroke="#000000" points="960,-625.5 960,-660.5 1317,-660.5 1317,-625.5 960,-625.5"/>
<text text-anchor="start" x="966.698" y="-638.3" font-family="Arial Bold" font-size="18.00" fill="#000000">electricity_monthly_usages</text>
<text text-anchor="start" x="1182.734" y="-638.3" font-family="Arial" font-size="14.00" fill="#000000">    </text>
<text text-anchor="start" x="1216.9388" y="-638.3" font-family="Arial" font-size="14.00" fill="#666666">[BASE TABLE]</text>
<polygon fill="none" stroke="#000000" points="960,-595.5 960,-625.5 1317,-625.5 1317,-595.5 960,-595.5"/>
<text text-anchor="start" x="967" y="-606.9" font-family="Arial" font-size="14.00" fill="#000000">electricity_fetch_setting_id    </text>
<text text-anchor="start" x="1165.3506" y="-606.9" font-family="Arial" font-size="14.00" fill="#666666">[bigint(20) unsigned]</text>
<polygon fill="none" stroke="#000000" points="960,-565.5 960,-595.5 1317,-595.5 1317,-565.5 960,-565.5"/>
<text text-anchor="start" x="967" y="-576.9" font-family="Arial" font-size="14.00" fill="#000000">usage_year    </text>
<text text-anchor="start" x="1074.3436" y="-576.9" font-family="Arial" font-size="14.00" fill="#666666">[int(10) unsigned]</text>
<polygon fill="none" stroke="#000000" points="960,-535.5 960,-565.5 1317,-565.5 1317,-535.5 960,-535.5"/>
<text text-anchor="start" x="967" y="-546.9" font-family="Arial" font-size="14.00" fill="#000000">usage_month    </text>
<text text-anchor="start" x="1086.0168" y="-546.9" font-family="Arial" font-size="14.00" fill="#666666">[int(10) unsigned]</text>
<polygon fill="none" stroke="#000000" points="960,-505.5 960,-535.5 1317,-535.5 1317,-505.5 960,-505.5"/>
<text text-anchor="start" x="967" y="-516.9" font-family="Arial" font-size="14.00" fill="#000000">usage_day_count    </text>
<text text-anchor="start" x="1111.704" y="-516.9" font-family="Arial" font-size="14.00" fill="#666666">[int(10) unsigned]</text>
<polygon fill="none" stroke="#000000" points="960,-475.5 960,-505.5 1317,-505.5 1317,-475.5 960,-475.5"/>
<text text-anchor="start" x="967" y="-486.9" font-family="Arial" font-size="14.00" fill="#000000">usage_kwh    </text>
<text text-anchor="start" x="1072.007" y="-486.9" font-family="Arial" font-size="14.00" fill="#666666">[int(10) unsigned]</text>
<polygon fill="none" stroke="#000000" points="960,-445.5 960,-475.5 1317,-475.5 1317,-445.5 960,-445.5"/>
<text text-anchor="start" x="967" y="-456.9" font-family="Arial" font-size="14.00" fill="#000000">usage_yen    </text>
<text text-anchor="start" x="1069.683" y="-456.9" font-family="Arial" font-size="14.00" fill="#666666">[int(10) unsigned]</text>
<polygon fill="none" stroke="#000000" points="960,-415.5 960,-445.5 1317,-445.5 1317,-415.5 960,-415.5"/>
<text text-anchor="start" x="967" y="-426.9" font-family="Arial" font-size="14.00" fill="#000000">created_at    </text>
<text text-anchor="start" x="1067.3422" y="-426.9" font-family="Arial" font-size="14.00" fill="#666666">[datetime]</text>
<polygon fill="none" stroke="#000000" points="960,-385.5 960,-415.5 1317,-415.5 1317,-385.5 960,-385.5"/>
<text text-anchor="start" x="967" y="-396.9" font-family="Arial" font-size="14.00" fill="#000000">updated_at    </text>
<text text-anchor="start" x="1071.2468" y="-396.9" font-family="Arial" font-size="14.00" fill="#666666">[datetime]</text>
</g>
<!-- electricity_monthly_usages&#45;&gt;electricity_fetch_settings -->
<g id="edge3" class="edge">
<title>electricity_monthly_usages:electricity_fetch_setting_id&#45;&gt;electricity_fetch_settings:id</title>
<path fill="none" stroke="#000000" d="M950.2054,-608.4147C902.2052,-586.4683 923.5605,-397.5927 907,-343 888.4912,-281.9848 915.7607,-210.5 852,-210.5"/>
<polygon fill="#000000" stroke="#000000" points="950.2192,-608.4176 959.0629,-614.9014 955.1096,-609.4588 960,-610.5 960,-610.5 960,-610.5 955.1096,-609.4588 960.9371,-606.0986 950.2192,-608.4176 950.2192,-608.4176"/>
<text text-anchor="start" x="558.482" y="-620.5" font-family="Arial" font-size="10.00" fill="#000000">FOREIGN KEY (electricity_fetch_setting_id) REFERENCES electricity_fetch_settings (id)</text>
</g>
</g>
</svg>
