<?xml version="1.0" encoding="UTF-8" standalone="no"?>
<!DOCTYPE svg PUBLIC "-//W3C//DTD SVG 1.1//EN"
 "http://www.w3.org/Graphics/SVG/1.1/DTD/svg11.dtd">
<!-- Generated by graphviz version 2.40.1 (20161225.0304)
 -->
<!-- Title: electricity_notify_dest_line_users Pages: 1 -->
<svg width="1108pt" height="712pt"
 viewBox="0.00 0.00 1108.00 712.00" xmlns="http://www.w3.org/2000/svg" xmlns:xlink="http://www.w3.org/1999/xlink">
<g id="graph0" class="graph" transform="scale(1 1) rotate(0) translate(4 708)">
<title>electricity_notify_dest_line_users</title>
<polygon fill="#ffffff" stroke="transparent" points="-4,4 -4,-708 1104,-708 1104,4 -4,4"/>
<!-- electricity_notify_dest_line_users -->
<g id="node1" class="node">
<title>electricity_notify_dest_line_users</title>
<polygon fill="#efefef" stroke="transparent" points="413,-622.5 413,-657.5 818,-657.5 818,-622.5 413,-622.5"/>
<polygon fill="none" stroke="#000000" points="413,-622.5 413,-657.5 818,-657.5 818,-622.5 413,-622.5"/>
<text text-anchor="start" x="419.6923" y="-635.3" font-family="Arial Bold" font-size="18.00" fill="#000000">electricity_notify_dest_line_users</text>
<text text-anchor="start" x="683.7397" y="-635.3" font-family="Arial" font-size="14.00" fill="#000000">    </text>
<text text-anchor="start" x="717.9445" y="-635.3" font-family="Arial" font-size="14.00" fill="#666666">[BASE TABLE]</text>
<polygon fill="none" stroke="#000000" points="413,-592.5 413,-622.5 818,-622.5 818,-592.5 413,-592.5"/>
<text text-anchor="start" x="420" y="-603.9" font-family="Arial" font-size="14.00" fill="#000000">electricity_notify_setting_id </text>
<text text-anchor="start" x="591.143" y="-603.9" font-family="Arial" font-size="14.00" fill="#666666">[bigint(20) unsigned]</text>
<polygon fill="none" stroke="#000000" points="413,-562.5 413,-592.5 818,-592.5 818,-562.5 413,-562.5"/>
<text text-anchor="start" x="420" y="-573.9" font-family="Arial" font-size="14.00" fill="#000000">line_user_id </text>
<text text-anchor="start" x="499.3492" y="-573.9" font-family="Arial" font-size="14.00" fill="#666666">[varchar(256)]</text>
<polygon fill="none" stroke="#000000" points="413,-532.5 413,-562.5 818,-562.5 818,-532.5 413,-532.5"/>
<text text-anchor="start" x="420" y="-543.9" font-family="Arial" font-size="14.00" fill="#000000">notify_enable </text>
<text text-anchor="start" x="507.1458" y="-543.9" font-family="Arial" font-size="14.00" fill="#666666">[tinyint(1)]</text>
<polygon fill="none" stroke="#000000" points="413,-502.5 413,-532.5 818,-532.5 818,-502.5 413,-502.5"/>
<text text-anchor="start" x="420" y="-513.9" font-family="Arial" font-size="14.00" fill="#000000">last_notified_at </text>
<text text-anchor="start" x="518.0336" y="-513.9" font-family="Arial" font-size="14.00" fill="#666666">[datetime]</text>
<polygon fill="none" stroke="#000000" points="413,-472.5 413,-502.5 818,-502.5 818,-472.5 413,-472.5"/>
<text text-anchor="start" x="420" y="-483.9" font-family="Arial" font-size="14.00" fill="#000000">created_at </text>
<text text-anchor="start" x="490.028" y="-483.9" font-family="Arial" font-size="14.00" fill="#666666">[datetime]</text>
<polygon fill="none" stroke="#000000" points="413,-442.5 413,-472.5 818,-472.5 818,-442.5 413,-442.5"/>
<text text-anchor="start" x="420" y="-453.9" font-family="Arial" font-size="14.00" fill="#000000">updated_at </text>
<text text-anchor="start" x="493.9326" y="-453.9" font-family="Arial" font-size="14.00" fill="#666666">[datetime]</text>
<polygon fill="none" stroke="#000000" stroke-width="3" points="411,-441.5 411,-659.5 819,-659.5 819,-441.5 411,-441.5"/>
</g>
<!-- electricity_notify_settings -->
<g id="node2" class="node">
<title>electricity_notify_settings</title>
<polygon fill="#efefef" stroke="transparent" points="252,-282.5 252,-317.5 593,-317.5 593,-282.5 252,-282.5"/>
<polygon fill="none" stroke="#000000" points="252,-282.5 252,-317.5 593,-317.5 593,-282.5 252,-282.5"/>
<text text-anchor="start" x="258.6999" y="-295.3" font-family="Arial Bold" font-size="18.00" fill="#000000">electricity_notify_settings</text>
<text text-anchor="start" x="458.7321" y="-295.3" font-family="Arial" font-size="14.00" fill="#000000">    </text>
<text text-anchor="start" x="492.9369" y="-295.3" font-family="Arial" font-size="14.00" fill="#666666">[BASE TABLE]</text>
<polygon fill="none" stroke="#000000" points="252,-252.5 252,-282.5 593,-282.5 593,-252.5 252,-252.5"/>
<text text-anchor="start" x="259" y="-263.9" font-family="Arial" font-size="14.00" fill="#000000">id    </text>
<text text-anchor="start" x="304.094" y="-263.9" font-family="Arial" font-size="14.00" fill="#666666">[bigint(20) unsigned]</text>
<polygon fill="none" stroke="#000000" points="252,-222.5 252,-252.5 593,-252.5 593,-222.5 252,-222.5"/>
<text text-anchor="start" x="259" y="-233.9" font-family="Arial" font-size="14.00" fill="#000000">electricity_fetch_setting_id    </text>
<text text-anchor="start" x="457.3506" y="-233.9" font-family="Arial" font-size="14.00" fill="#666666">[bigint(20) unsigned]</text>
<polygon fill="none" stroke="#000000" points="252,-192.5 252,-222.5 593,-222.5 593,-192.5 252,-192.5"/>
<text text-anchor="start" x="259" y="-203.9" font-family="Arial" font-size="14.00" fill="#000000">line_channel_id    </text>
<text text-anchor="start" x="390.4572" y="-203.9" font-family="Arial" font-size="14.00" fill="#666666">[varchar(256)]</text>
<polygon fill="none" stroke="#000000" points="252,-162.5 252,-192.5 593,-192.5 593,-162.5 252,-162.5"/>
<text text-anchor="start" x="259" y="-173.9" font-family="Arial" font-size="14.00" fill="#000000">notify_date    </text>
<text text-anchor="start" x="361.6788" y="-173.9" font-family="Arial" font-size="14.00" fill="#666666">[tinyint(3) unsigned]</text>
<polygon fill="none" stroke="#000000" points="252,-132.5 252,-162.5 593,-162.5 593,-132.5 252,-132.5"/>
<text text-anchor="start" x="259" y="-143.9" font-family="Arial" font-size="14.00" fill="#000000">notify_enable    </text>
<text text-anchor="start" x="376.46" y="-143.9" font-family="Arial" font-size="14.00" fill="#666666">[tinyint(1)]</text>
<polygon fill="none" stroke="#000000" points="252,-102.5 252,-132.5 593,-132.5 593,-102.5 252,-102.5"/>
<text text-anchor="start" x="259" y="-113.9" font-family="Arial" font-size="14.00" fill="#000000">template    </text>
<text text-anchor="start" x="346.8836" y="-113.9" font-family="Arial" font-size="14.00" fill="#666666">[text]</text>
<polygon fill="none" stroke="#000000" points="252,-72.5 252,-102.5 593,-102.5 593,-72.5 252,-72.5"/>
<text text-anchor="start" x="259" y="-83.9" font-family="Arial" font-size="14.00" fill="#000000">created_at    </text>
<text text-anchor="start" x="359.3422" y="-83.9" font-family="Arial" font-size="14.00" fill="#666666">[datetime]</text>
<polygon fill="none" stroke="#000000" points="252,-42.5 252,-72.5 593,-72.5 593,-42.5 252,-42.5"/>
<text text-anchor="start" x="259" y="-53.9" font-family="Arial" font-size="14.00" fill="#000000">updated_at    </text>
<text text-anchor="start" x="363.2468" y="-53.9" font-family="Arial" font-size="14.00" fill="#666666">[datetime]</text>
</g>
<!-- electricity_notify_dest_line_users&#45;&gt;electricity_notify_settings -->
<g id="edge1" class="edge">
<title>electricity_notify_dest_line_users:electricity_notify_setting_id&#45;&gt;electricity_notify_settings:id</title>
<path fill="none" stroke="#000000" d="M402.6153,-606.8798C322.1579,-596.8075 356.0037,-466.5243 413,-397 464.7235,-333.9074 541.2765,-424.0926 593,-361 619.3458,-328.8633 634.5556,-267.5 593,-267.5"/>
<polygon fill="#000000" stroke="#000000" points="403.0178,-606.9037 412.7317,-611.992 408.0089,-607.2019 413,-607.5 413,-607.5 413,-607.5 408.0089,-607.2019 413.2683,-603.008 403.0178,-606.9037 403.0178,-606.9037"/>
<text text-anchor="start" x="7.263" y="-617.5" font-family="Arial" font-size="10.00" fill="#000000">FOREIGN KEY (electricity_notify_setting_id) REFERENCES electricity_notify_settings (id)</text>
</g>
<!-- line_users -->
<g id="node3" class="node">
<title>line_users</title>
<polygon fill="#efefef" stroke="transparent" points="697,-222.5 697,-257.5 920,-257.5 920,-222.5 697,-222.5"/>
<polygon fill="none" stroke="#000000" points="697,-222.5 697,-257.5 920,-257.5 920,-222.5 697,-222.5"/>
<text text-anchor="start" x="703.7102" y="-235.3" font-family="Arial Bold" font-size="18.00" fill="#000000">line_users</text>
<text text-anchor="start" x="785.7218" y="-235.3" font-family="Arial" font-size="14.00" fill="#000000">    </text>
<text text-anchor="start" x="819.9266" y="-235.3" font-family="Arial" font-size="14.00" fill="#666666">[BASE TABLE]</text>
<polygon fill="none" stroke="#000000" points="697,-192.5 697,-222.5 920,-222.5 920,-192.5 697,-192.5"/>
<text text-anchor="start" x="704" y="-203.9" font-family="Arial" font-size="14.00" fill="#000000">id    </text>
<text text-anchor="start" x="749.094" y="-203.9" font-family="Arial" font-size="14.00" fill="#666666">[varchar(256)]</text>
<polygon fill="none" stroke="#000000" points="697,-162.5 697,-192.5 920,-192.5 920,-162.5 697,-162.5"/>
<text text-anchor="start" x="704" y="-173.9" font-family="Arial" font-size="14.00" fill="#000000">memo    </text>
<text text-anchor="start" x="777.0912" y="-173.9" font-family="Arial" font-size="14.00" fill="#666666">[text]</text>
<polygon fill="none" stroke="#000000" points="697,-132.5 697,-162.5 920,-162.5 920,-132.5 697,-132.5"/>
<text text-anchor="start" x="704" y="-143.9" font-family="Arial" font-size="14.00" fill="#000000">created_at    </text>
<text text-anchor="start" x="804.3422" y="-143.9" font-family="Arial" font-size="14.00" fill="#666666">[datetime]</text>
<polygon fill="none" stroke="#000000" points="697,-102.5 697,-132.5 920,-132.5 920,-102.5 697,-102.5"/>
<text text-anchor="start" x="704" y="-113.9" font-family="Arial" font-size="14.00" fill="#000000">updated_at    </text>
<text text-anchor="start" x="808.2468" y="-113.9" font-family="Arial" font-size="14.00" fill="#666666">[datetime]</text>
</g>
<!-- electricity_notify_dest_line_users&#45;&gt;line_users -->
<g id="edge2" class="edge">
<title>electricity_notify_dest_line_users:line_user_id&#45;&gt;line_users:id</title>
<path fill="none" stroke="#000000" d="M828.0635,-576.8576C894.1711,-567.8457 851.3298,-465.9892 818,-397 788.1376,-335.188 726.8624,-362.812 697,-301 678.9229,-263.5823 655.4444,-207.5 697,-207.5"/>
<polygon fill="#000000" stroke="#000000" points="827.9797,-576.8629 817.7133,-573.0091 822.9898,-577.1815 818,-577.5 818,-577.5 818,-577.5 822.9898,-577.1815 818.2867,-581.9909 827.9797,-576.8629 827.9797,-576.8629"/>
<text text-anchor="start" x="824.83" y="-587.5" font-family="Arial" font-size="10.00" fill="#000000">FOREIGN KEY (line_user_id) REFERENCES line_users (id)</text>
</g>
</g>
</svg>
