<?xml version="1.0" encoding="UTF-8" standalone="no"?>
<!DOCTYPE svg PUBLIC "-//W3C//DTD SVG 1.1//EN"
 "http://www.w3.org/Graphics/SVG/1.1/DTD/svg11.dtd">
<!-- Generated by graphviz version 2.40.1 (20161225.0304)
 -->
<!-- Title: electricity_fetch_settings Pages: 1 -->
<svg width="1838pt" height="802pt"
 viewBox="0.00 0.00 1838.00 802.00" xmlns="http://www.w3.org/2000/svg" xmlns:xlink="http://www.w3.org/1999/xlink">
<g id="graph0" class="graph" transform="scale(1 1) rotate(0) translate(4 798)">
<title>electricity_fetch_settings</title>
<polygon fill="#ffffff" stroke="transparent" points="-4,4 -4,-798 1834,-798 1834,4 -4,4"/>
<!-- electricity_fetch_settings -->
<g id="node1" class="node">
<title>electricity_fetch_settings</title>
<polygon fill="#efefef" stroke="transparent" points="742,-285.5 742,-320.5 1079,-320.5 1079,-285.5 742,-285.5"/>
<polygon fill="none" stroke="#000000" points="742,-285.5 742,-320.5 1079,-320.5 1079,-285.5 742,-285.5"/>
<text text-anchor="start" x="748.697" y="-298.3" font-family="Arial Bold" font-size="18.00" fill="#000000">electricity_fetch_settings</text>
<text text-anchor="start" x="944.735" y="-298.3" font-family="Arial" font-size="14.00" fill="#000000">    </text>
<text text-anchor="start" x="978.9398" y="-298.3" font-family="Arial" font-size="14.00" fill="#666666">[BASE TABLE]</text>
<polygon fill="none" stroke="#000000" points="742,-255.5 742,-285.5 1079,-285.5 1079,-255.5 742,-255.5"/>
<text text-anchor="start" x="749" y="-266.9" font-family="Arial" font-size="14.00" fill="#000000">id </text>
<text text-anchor="start" x="763.7798" y="-266.9" font-family="Arial" font-size="14.00" fill="#666666">[bigint(20) unsigned]</text>
<polygon fill="none" stroke="#000000" points="742,-225.5 742,-255.5 1079,-255.5 1079,-225.5 742,-225.5"/>
<text text-anchor="start" x="749" y="-236.9" font-family="Arial" font-size="14.00" fill="#000000">setting_name </text>
<text text-anchor="start" x="836.9172" y="-236.9" font-family="Arial" font-size="14.00" fill="#666666">[varchar(255)]</text>
<polygon fill="none" stroke="#000000" points="742,-195.5 742,-225.5 1079,-225.5 1079,-195.5 742,-195.5"/>
<text text-anchor="start" x="749" y="-206.9" font-family="Arial" font-size="14.00" fill="#000000">electricity_site_id </text>
<text text-anchor="start" x="859.4516" y="-206.9" font-family="Arial" font-size="14.00" fill="#666666">[bigint(20) unsigned]</text>
<polygon fill="none" stroke="#000000" points="742,-165.5 742,-195.5 1079,-195.5 1079,-165.5 742,-165.5"/>
<text text-anchor="start" x="749" y="-176.9" font-family="Arial" font-size="14.00" fill="#000000">user_name </text>
<text text-anchor="start" x="822.9074" y="-176.9" font-family="Arial" font-size="14.00" fill="#666666">[varchar(255)]</text>
<polygon fill="none" stroke="#000000" points="742,-135.5 742,-165.5 1079,-165.5 1079,-135.5 742,-135.5"/>
<text text-anchor="start" x="749" y="-146.9" font-family="Arial" font-size="14.00" fill="#000000">encrypted_password </text>
<text text-anchor="start" x="882.035" y="-146.9" font-family="Arial" font-size="14.00" fill="#666666">[varchar(512)]</text>
<polygon fill="none" stroke="#000000" points="742,-105.5 742,-135.5 1079,-135.5 1079,-105.5 742,-105.5"/>
<text text-anchor="start" x="749" y="-116.9" font-family="Arial" font-size="14.00" fill="#000000">fetch_enable </text>
<text text-anchor="start" x="833.0392" y="-116.9" font-family="Arial" font-size="14.00" fill="#666666">[tinyint(1)]</text>
<polygon fill="none" stroke="#000000" points="742,-75.5 742,-105.5 1079,-105.5 1079,-75.5 742,-75.5"/>
<text text-anchor="start" x="749" y="-86.9" font-family="Arial" font-size="14.00" fill="#000000">created_at </text>
<text text-anchor="start" x="819.028" y="-86.9" font-family="Arial" font-size="14.00" fill="#666666">[datetime]</text>
<polygon fill="none" stroke="#000000" points="742,-45.5 742,-75.5 1079,-75.5 1079,-45.5 742,-45.5"/>
<text text-anchor="start" x="749" y="-56.9" font-family="Arial" font-size="14.00" fill="#000000">updated_at </text>
<text text-anchor="start" x="822.9326" y="-56.9" font-family="Arial" font-size="14.00" fill="#666666">[datetime]</text>
<polygon fill="none" stroke="#000000" stroke-width="3" points="740,-44.5 740,-322.5 1080,-322.5 1080,-44.5 740,-44.5"/>
</g>
<!-- electricity_daily_usages -->
<g id="node2" class="node">
<title>electricity_daily_usages</title>
<polygon fill="#efefef" stroke="transparent" points="70,-685.5 70,-720.5 409,-720.5 409,-685.5 70,-685.5"/>
<polygon fill="none" stroke="#000000" points="70,-685.5 70,-720.5 409,-720.5 409,-685.5 70,-685.5"/>
<text text-anchor="start" x="80.7012" y="-698.3" font-family="Arial Bold" font-size="18.00" fill="#000000">electricity_daily_usages</text>
<text text-anchor="start" x="270.7308" y="-698.3" font-family="Arial" font-size="14.00" fill="#000000">    </text>
<text text-anchor="start" x="304.9356" y="-698.3" font-family="Arial" font-size="14.00" fill="#666666">[BASE TABLE]</text>
<polygon fill="none" stroke="#000000" points="70,-655.5 70,-685.5 409,-685.5 409,-655.5 70,-655.5"/>
<text text-anchor="start" x="76.9187" y="-666.9" font-family="Arial" font-size="14.00" fill="#000000">electricity_fetch_setting_id    </text>
<text text-anchor="start" x="275.2693" y="-666.9" font-family="Arial" font-size="14.00" fill="#666666">[bigint(20) unsigned]</text>
<polygon fill="none" stroke="#000000" points="70,-625.5 70,-655.5 409,-655.5 409,-625.5 70,-625.5"/>
<text text-anchor="start" x="77" y="-636.9" font-family="Arial" font-size="14.00" fill="#000000">usage_year    </text>
<text text-anchor="start" x="184.3436" y="-636.9" font-family="Arial" font-size="14.00" fill="#666666">[int(10) unsigned]</text>
<polygon fill="none" stroke="#000000" points="70,-595.5 70,-625.5 409,-625.5 409,-595.5 70,-595.5"/>
<text text-anchor="start" x="77" y="-606.9" font-family="Arial" font-size="14.00" fill="#000000">usage_month    </text>
<text text-anchor="start" x="196.0168" y="-606.9" font-family="Arial" font-size="14.00" fill="#666666">[int(10) unsigned]</text>
<polygon fill="none" stroke="#000000" points="70,-565.5 70,-595.5 409,-595.5 409,-565.5 70,-565.5"/>
<text text-anchor="start" x="77" y="-576.9" font-family="Arial" font-size="14.00" fill="#000000">usage_date    </text>
<text text-anchor="start" x="184.3562" y="-576.9" font-family="Arial" font-size="14.00" fill="#666666">[int(10) unsigned]</text>
<polygon fill="none" stroke="#000000" points="70,-535.5 70,-565.5 409,-565.5 409,-535.5 70,-535.5"/>
<text text-anchor="start" x="77" y="-546.9" font-family="Arial" font-size="14.00" fill="#000000">usage_amount    </text>
<text text-anchor="start" x="203.7994" y="-546.9" font-family="Arial" font-size="14.00" fill="#666666">[decimal(15,5) unsigned]</text>
<polygon fill="none" stroke="#000000" points="70,-505.5 70,-535.5 409,-535.5 409,-505.5 70,-505.5"/>
<text text-anchor="start" x="77" y="-516.9" font-family="Arial" font-size="14.00" fill="#000000">created_at    </text>
<text text-anchor="start" x="177.3422" y="-516.9" font-family="Arial" font-size="14.00" fill="#666666">[datetime]</text>
<polygon fill="none" stroke="#000000" points="70,-475.5 70,-505.5 409,-505.5 409,-475.5 70,-475.5"/>
<text text-anchor="start" x="77" y="-486.9" font-family="Arial" font-size="14.00" fill="#000000">updated_at    </text>
<text text-anchor="start" x="181.2468" y="-486.9" font-family="Arial" font-size="14.00" fill="#666666">[datetime]</text>
</g>
<!-- electricity_daily_usages&#45;&gt;electricity_fetch_settings -->
<g id="edge1" class="edge">
<title>electricity_daily_usages:electricity_fetch_setting_id&#45;&gt;electricity_fetch_settings:id</title>
<path fill="none" stroke="#000000" d="M419.2856,-670.0343C521.627,-660.1618 388.8896,-495.7043 461,-403 545.776,-294.013 603.9234,-270.5 742,-270.5"/>
<polygon fill="#000000" stroke="#000000" points="418.9898,-670.0476 408.7964,-666.0046 413.9949,-670.2738 409,-670.5 409,-670.5 409,-670.5 413.9949,-670.2738 409.2036,-674.9954 418.9898,-670.0476 418.9898,-670.0476"/>
<text text-anchor="start" x="7.482" y="-680.5" font-family="Arial" font-size="10.00" fill="#000000">FOREIGN KEY (electricity_fetch_setting_id) REFERENCES electricity_fetch_settings (id)</text>
</g>
<!-- electricity_fetch_statuses -->
<g id="node3" class="node">
<title>electricity_fetch_statuses</title>
<polygon fill="#efefef" stroke="transparent" points="513,-685.5 513,-720.5 855,-720.5 855,-685.5 513,-685.5"/>
<polygon fill="none" stroke="#000000" points="513,-685.5 513,-720.5 855,-720.5 855,-685.5 513,-685.5"/>
<text text-anchor="start" x="519.6941" y="-698.3" font-family="Arial Bold" font-size="18.00" fill="#000000">electricity_fetch_statuses</text>
<text text-anchor="start" x="720.7379" y="-698.3" font-family="Arial" font-size="14.00" fill="#000000">    </text>
<text text-anchor="start" x="754.9427" y="-698.3" font-family="Arial" font-size="14.00" fill="#666666">[BASE TABLE]</text>
<polygon fill="none" stroke="#000000" points="513,-655.5 513,-685.5 855,-685.5 855,-655.5 513,-655.5"/>
<text text-anchor="start" x="520" y="-666.9" font-family="Arial" font-size="14.00" fill="#000000">id    </text>
<text text-anchor="start" x="565.094" y="-666.9" font-family="Arial" font-size="14.00" fill="#666666">[bigint(20) unsigned]</text>
<polygon fill="none" stroke="#000000" points="513,-625.5 513,-655.5 855,-655.5 855,-625.5 513,-625.5"/>
<text text-anchor="start" x="520" y="-636.9" font-family="Arial" font-size="14.00" fill="#000000">electricity_fetch_setting_id    </text>
<text text-anchor="start" x="718.3506" y="-636.9" font-family="Arial" font-size="14.00" fill="#666666">[bigint(20) unsigned]</text>
<polygon fill="none" stroke="#000000" points="513,-595.5 513,-625.5 855,-625.5 855,-595.5 513,-595.5"/>
<text text-anchor="start" x="520" y="-606.9" font-family="Arial" font-size="14.00" fill="#000000">status_type_id    </text>
<text text-anchor="start" x="644.4614" y="-606.9" font-family="Arial" font-size="14.00" fill="#666666">[tinyint(3) unsigned]</text>
<polygon fill="none" stroke="#000000" points="513,-565.5 513,-595.5 855,-595.5 855,-565.5 513,-565.5"/>
<text text-anchor="start" x="520" y="-576.9" font-family="Arial" font-size="14.00" fill="#000000">last_successful_at    </text>
<text text-anchor="start" x="668.568" y="-576.9" font-family="Arial" font-size="14.00" fill="#666666">[datetime]</text>
<polygon fill="none" stroke="#000000" points="513,-535.5 513,-565.5 855,-565.5 855,-535.5 513,-535.5"/>
<text text-anchor="start" x="520" y="-546.9" font-family="Arial" font-size="14.00" fill="#000000">last_failure_at    </text>
<text text-anchor="start" x="641.3352" y="-546.9" font-family="Arial" font-size="14.00" fill="#666666">[datetime]</text>
<polygon fill="none" stroke="#000000" points="513,-505.5 513,-535.5 855,-535.5 855,-505.5 513,-505.5"/>
<text text-anchor="start" x="520" y="-516.9" font-family="Arial" font-size="14.00" fill="#000000">created_at    </text>
<text text-anchor="start" x="620.3422" y="-516.9" font-family="Arial" font-size="14.00" fill="#666666">[datetime]</text>
<polygon fill="none" stroke="#000000" points="513,-475.5 513,-505.5 855,-505.5 855,-475.5 513,-475.5"/>
<text text-anchor="start" x="520" y="-486.9" font-family="Arial" font-size="14.00" fill="#000000">updated_at    </text>
<text text-anchor="start" x="624.2468" y="-486.9" font-family="Arial" font-size="14.00" fill="#666666">[datetime]</text>
</g>
<!-- electricity_fetch_statuses&#45;&gt;electricity_fetch_settings -->
<g id="edge2" class="edge">
<title>electricity_fetch_statuses:electricity_fetch_setting_id&#45;&gt;electricity_fetch_settings:id</title>
<path fill="none" stroke="#000000" d="M864.5721,-637.5735C897.4942,-615.1051 876.1618,-469.8669 855,-433 826.0461,-382.5581 770.9539,-417.4419 742,-367 720.649,-329.8034 699.1111,-270.5 742,-270.5"/>
<polygon fill="#000000" stroke="#000000" points="864.563,-637.5762 853.6843,-636.1966 859.7815,-639.0381 855,-640.5 855,-640.5 855,-640.5 859.7815,-639.0381 856.3157,-644.8034 864.563,-637.5762 864.563,-637.5762"/>
<text text-anchor="start" x="862.482" y="-650.5" font-family="Arial" font-size="10.00" fill="#000000">FOREIGN KEY (electricity_fetch_setting_id) REFERENCES electricity_fetch_settings (id)</text>
</g>
<!-- electricity_monthly_usages -->
<g id="node4" class="node">
<title>electricity_monthly_usages</title>
<polygon fill="#efefef" stroke="transparent" points="960,-700.5 960,-735.5 1317,-735.5 1317,-700.5 960,-700.5"/>
<polygon fill="none" stroke="#000000" points="960,-700.5 960,-735.5 1317,-735.5 1317,-700.5 960,-700.5"/>
<text text-anchor="start" x="966.698" y="-713.3" font-family="Arial Bold" font-size="18.00" fill="#000000">electricity_monthly_usages</text>
<text text-anchor="start" x="1182.734" y="-713.3" font-family="Arial" font-size="14.00" fill="#000000">    </text>
<text text-anchor="start" x="1216.9388" y="-713.3" font-family="Arial" font-size="14.00" fill="#666666">[BASE TABLE]</text>
<polygon fill="none" stroke="#000000" points="960,-670.5 960,-700.5 1317,-700.5 1317,-670.5 960,-670.5"/>
<text text-anchor="start" x="967" y="-681.9" font-family="Arial" font-size="14.00" fill="#000000">electricity_fetch_setting_id    </text>
<text text-anchor="start" x="1165.3506" y="-681.9" font-family="Arial" font-size="14.00" fill="#666666">[bigint(20) unsigned]</text>
<polygon fill="none" stroke="#000000" points="960,-640.5 960,-670.5 1317,-670.5 1317,-640.5 960,-640.5"/>
<text text-anchor="start" x="967" y="-651.9" font-family="Arial" font-size="14.00" fill="#000000">usage_year    </text>
<text text-anchor="start" x="1074.3436" y="-651.9" font-family="Arial" font-size="14.00" fill="#666666">[int(10) unsigned]</text>
<polygon fill="none" stroke="#000000" points="960,-610.5 960,-640.5 1317,-640.5 1317,-610.5 960,-610.5"/>
<text text-anchor="start" x="967" y="-621.9" font-family="Arial" font-size="14.00" fill="#000000">usage_month    </text>
<text text-anchor="start" x="1086.0168" y="-621.9" font-family="Arial" font-size="14.00" fill="#666666">[int(10) unsigned]</text>
<polygon fill="none" stroke="#000000" points="960,-580.5 960,-610.5 1317,-610.5 1317,-580.5 960,-580.5"/>
<text text-anchor="start" x="967" y="-591.9" font-family="Arial" font-size="14.00" fill="#000000">usage_day_count    </text>
<text text-anchor="start" x="1111.704" y="-591.9" font-family="Arial" font-size="14.00" fill="#666666">[int(10) unsigned]</text>
<polygon fill="none" stroke="#000000" points="960,-550.5 960,-580.5 1317,-580.5 1317,-550.5 960,-550.5"/>
<text text-anchor="start" x="967" y="-561.9" font-family="Arial" font-size="14.00" fill="#000000">usage_kwh    </text>
<text text-anchor="start" x="1072.007" y="-561.9" font-family="Arial" font-size="14.00" fill="#666666">[int(10) unsigned]</text>
<polygon fill="none" stroke="#000000" points="960,-520.5 960,-550.5 1317,-550.5 1317,-520.5 960,-520.5"/>
<text text-anchor="start" x="967" y="-531.9" font-family="Arial" font-size="14.00" fill="#000000">usage_yen    </text>
<text text-anchor="start" x="1069.683" y="-531.9" font-family="Arial" font-size="14.00" fill="#666666">[int(10) unsigned]</text>
<polygon fill="none" stroke="#000000" points="960,-490.5 960,-520.5 1317,-520.5 1317,-490.5 960,-490.5"/>
<text text-anchor="start" x="967" y="-501.9" font-family="Arial" font-size="14.00" fill="#000000">created_at    </text>
<text text-anchor="start" x="1067.3422" y="-501.9" font-family="Arial" font-size="14.00" fill="#666666">[datetime]</text>
<polygon fill="none" stroke="#000000" points="960,-460.5 960,-490.5 1317,-490.5 1317,-460.5 960,-460.5"/>
<text text-anchor="start" x="967" y="-471.9" font-family="Arial" font-size="14.00" fill="#000000">updated_at    </text>
<text text-anchor="start" x="1071.2468" y="-471.9" font-family="Arial" font-size="14.00" fill="#666666">[datetime]</text>
</g>
<!-- electricity_monthly_usages&#45;&gt;electricity_fetch_settings -->
<g id="edge3" class="edge">
<title>electricity_monthly_usages:electricity_fetch_setting_id&#45;&gt;electricity_fetch_settings:id</title>
<path fill="none" stroke="#000000" d="M950.1323,-683.1896C903.8133,-659.7337 929.2577,-464.6219 960,-418 991.676,-369.9621 1047.324,-415.0379 1079,-367 1102.6099,-331.1946 1121.8889,-270.5 1079,-270.5"/>
<polygon fill="#000000" stroke="#000000" points="950.2633,-683.2202 958.9741,-689.8815 955.1317,-684.3601 960,-685.5 960,-685.5 960,-685.5 955.1317,-684.3601 961.0259,-681.1185 950.2633,-683.2202 950.2633,-683.2202"/>
<text text-anchor="start" x="967.482" y="-695.5" font-family="Arial" font-size="10.00" fill="#000000">FOREIGN KEY (electricity_fetch_setting_id) REFERENCES electricity_fetch_settings (id)</text>
</g>
<!-- electricity_notify_settings -->
<g id="node5" class="node">
<title>electricity_notify_settings</title>
<polygon fill="#efefef" stroke="transparent" points="1421,-715.5 1421,-750.5 1762,-750.5 1762,-715.5 1421,-715.5"/>
<polygon fill="none" stroke="#000000" points="1421,-715.5 1421,-750.5 1762,-750.5 1762,-715.5 1421,-715.5"/>
<text text-anchor="start" x="1427.6999" y="-728.3" font-family="Arial Bold" font-size="18.00" fill="#000000">electricity_notify_settings</text>
<text text-anchor="start" x="1627.7321" y="-728.3" font-family="Arial" font-size="14.00" fill="#000000">    </text>
<text text-anchor="start" x="1661.9369" y="-728.3" font-family="Arial" font-size="14.00" fill="#666666">[BASE TABLE]</text>
<polygon fill="none" stroke="#000000" points="1421,-685.5 1421,-715.5 1762,-715.5 1762,-685.5 1421,-685.5"/>
<text text-anchor="start" x="1428" y="-696.9" font-family="Arial" font-size="14.00" fill="#000000">id    </text>
<text text-anchor="start" x="1473.094" y="-696.9" font-family="Arial" font-size="14.00" fill="#666666">[bigint(20) unsigned]</text>
<polygon fill="none" stroke="#000000" points="1421,-655.5 1421,-685.5 1762,-685.5 1762,-655.5 1421,-655.5"/>
<text text-anchor="start" x="1428" y="-666.9" font-family="Arial" font-size="14.00" fill="#000000">electricity_fetch_setting_id    </text>
<text text-anchor="start" x="1626.3506" y="-666.9" font-family="Arial" font-size="14.00" fill="#666666">[bigint(20) unsigned]</text>
<polygon fill="none" stroke="#000000" points="1421,-625.5 1421,-655.5 1762,-655.5 1762,-625.5 1421,-625.5"/>
<text text-anchor="start" x="1428" y="-636.9" font-family="Arial" font-size="14.00" fill="#000000">line_channel_id    </text>
<text text-anchor="start" x="1559.4572" y="-636.9" font-family="Arial" font-size="14.00" fill="#666666">[varchar(256)]</text>
<polygon fill="none" stroke="#000000" points="1421,-595.5 1421,-625.5 1762,-625.5 1762,-595.5 1421,-595.5"/>
<text text-anchor="start" x="1428" y="-606.9" font-family="Arial" font-size="14.00" fill="#000000">advisor_id    </text>
<text text-anchor="start" x="1525.9916" y="-606.9" font-family="Arial" font-size="14.00" fill="#666666">[bigint(20) unsigned]</text>
<polygon fill="none" stroke="#000000" points="1421,-565.5 1421,-595.5 1762,-595.5 1762,-565.5 1421,-565.5"/>
<text text-anchor="start" x="1428" y="-576.9" font-family="Arial" font-size="14.00" fill="#000000">notify_date    </text>
<text text-anchor="start" x="1530.6788" y="-576.9" font-family="Arial" font-size="14.00" fill="#666666">[tinyint(3) unsigned]</text>
<polygon fill="none" stroke="#000000" points="1421,-535.5 1421,-565.5 1762,-565.5 1762,-535.5 1421,-535.5"/>
<text text-anchor="start" x="1428" y="-546.9" font-family="Arial" font-size="14.00" fill="#000000">notify_enable    </text>
<text text-anchor="start" x="1545.46" y="-546.9" font-family="Arial" font-size="14.00" fill="#666666">[tinyint(1)]</text>
<polygon fill="none" stroke="#000000" points="1421,-505.5 1421,-535.5 1762,-535.5 1762,-505.5 1421,-505.5"/>
<text text-anchor="start" x="1428" y="-516.9" font-family="Arial" font-size="14.00" fill="#000000">template    </text>
<text text-anchor="start" x="1515.8836" y="-516.9" font-family="Arial" font-size="14.00" fill="#666666">[text]</text>
<polygon fill="none" stroke="#000000" points="1421,-475.5 1421,-505.5 1762,-505.5 1762,-475.5 1421,-475.5"/>
<text text-anchor="start" x="1428" y="-486.9" font-family="Arial" font-size="14.00" fill="#000000">created_at    </text>
<text text-anchor="start" x="1528.3422" y="-486.9" font-family="Arial" font-size="14.00" fill="#666666">[datetime]</text>
<polygon fill="none" stroke="#000000" points="1421,-445.5 1421,-475.5 1762,-475.5 1762,-445.5 1421,-445.5"/>
<text text-anchor="start" x="1428" y="-456.9" font-family="Arial" font-size="14.00" fill="#000000">updated_at    </text>
<text text-anchor="start" x="1532.2468" y="-456.9" font-family="Arial" font-size="14.00" fill="#666666">[datetime]</text>
</g>
<!-- electricity_notify_settings&#45;&gt;electricity_fetch_settings -->
<g id="edge4" class="edge">
<title>electricity_notify_settings:electricity_fetch_setting_id&#45;&gt;electricity_fetch_settings:id</title>
<path fill="none" stroke="#000000" d="M1410.716,-670.0331C1308.4067,-660.1354 1441.6671,-495.2685 1369,-403 1281.3247,-291.6749 1220.7048,-270.5 1079,-270.5"/>
<polygon fill="#000000" stroke="#000000" points="1411.0103,-670.0463 1420.7958,-674.9954 1416.0051,-670.2732 1421,-670.5 1421,-670.5 1421,-670.5 1416.0051,-670.2732 1421.2042,-666.0046 1411.0103,-670.0463 1411.0103,-670.0463"/>
<text text-anchor="start" x="1428.482" y="-680.5" font-family="Arial" font-size="10.00" fill="#000000">FOREIGN KEY (electricity_fetch_setting_id) REFERENCES electricity_fetch_settings (id)</text>
</g>
</g>
</svg>
