<?xml version="1.0" encoding="UTF-8" standalone="no"?>
<!DOCTYPE svg PUBLIC "-//W3C//DTD SVG 1.1//EN"
 "http://www.w3.org/Graphics/SVG/1.1/DTD/svg11.dtd">
<!-- Generated by graphviz version 2.40.1 (20161225.0304)
 -->
<!-- Title: electricity_notify_dest_line_users Pages: 1 -->
<svg width="1108pt" height="742pt"
 viewBox="0.00 0.00 1108.00 742.00" xmlns="http://www.w3.org/2000/svg" xmlns:xlink="http://www.w3.org/1999/xlink">
<g id="graph0" class="graph" transform="scale(1 1) rotate(0) translate(4 738)">
<title>electricity_notify_dest_line_users</title>
<polygon fill="#ffffff" stroke="transparent" points="-4,4 -4,-738 1104,-738 1104,4 -4,4"/>
<!-- electricity_notify_dest_line_users -->
<g id="node1" class="node">
<title>electricity_notify_dest_line_users</title>
<polygon fill="#efefef" stroke="transparent" points="413,-652.5 413,-687.5 818,-687.5 818,-652.5 413,-652.5"/>
<polygon fill="none" stroke="#000000" points="413,-652.5 413,-687.5 818,-687.5 818,-652.5 413,-652.5"/>
<text text-anchor="start" x="419.6923" y="-665.3" font-family="Arial Bold" font-size="18.00" fill="#000000">electricity_notify_dest_line_users</text>
<text text-anchor="start" x="683.7397" y="-665.3" font-family="Arial" font-size="14.00" fill="#000000">    </text>
<text text-anchor="start" x="717.9445" y="-665.3" font-family="Arial" font-size="14.00" fill="#666666">[BASE TABLE]</text>
<polygon fill="none" stroke="#000000" points="413,-622.5 413,-652.5 818,-652.5 818,-622.5 413,-622.5"/>
<text text-anchor="start" x="420" y="-633.9" font-family="Arial" font-size="14.00" fill="#000000">electricity_notify_setting_id </text>
<text text-anchor="start" x="591.143" y="-633.9" font-family="Arial" font-size="14.00" fill="#666666">[bigint(20) unsigned]</text>
<polygon fill="none" stroke="#000000" points="413,-592.5 413,-622.5 818,-622.5 818,-592.5 413,-592.5"/>
<text text-anchor="start" x="420" y="-603.9" font-family="Arial" font-size="14.00" fill="#000000">line_user_id </text>
<text text-anchor="start" x="499.3492" y="-603.9" font-family="Arial" font-size="14.00" fill="#666666">[varchar(256)]</text>
<polygon fill="none" stroke="#000000" points="413,-562.5 413,-592.5 818,-592.5 818,-562.5 413,-562.5"/>
<text text-anchor="start" x="420" y="-573.9" font-family="Arial" font-size="14.00" fill="#000000">notify_enable </text>
<text text-anchor="start" x="507.1458" y="-573.9" font-family="Arial" font-size="14.00" fill="#666666">[tinyint(1)]</text>
<polygon fill="none" stroke="#000000" points="413,-532.5 413,-562.5 818,-562.5 818,-532.5 413,-532.5"/>
<text text-anchor="start" x="420" y="-543.9" font-family="Arial" font-size="14.00" fill="#000000">last_notified_at </text>
<text text-anchor="start" x="518.0336" y="-543.9" font-family="Arial" font-size="14.00" fill="#666666">[datetime]</text>
<polygon fill="none" stroke="#000000" points="413,-502.5 413,-532.5 818,-532.5 818,-502.5 413,-502.5"/>
<text text-anchor="start" x="420" y="-513.9" font-family="Arial" font-size="14.00" fill="#000000">created_at </text>
<text text-anchor="start" x="490.028" y="-513.9" font-family="Arial" font-size="14.00" fill="#666666">[datetime]</text>
<polygon fill="none" stroke="#000000" points="413,-472.5 413,-502.5 818,-502.5 818,-472.5 413,-472.5"/>
<text text-anchor="start" x="420" y="-483.9" font-family="Arial" font-size="14.00" fill="#000000">updated_at </text>
<text text-anchor="start" x="493.9326" y="-483.9" font-family="Arial" font-size="14.00" fill="#666666">[datetime]</text>
<polygon fill="none" stroke="#000000" stroke-width="3" points="411,-471.5 411,-689.5 819,-689.5 819,-471.5 411,-471.5"/>
</g>
<!-- electricity_notify_settings -->
<g id="node2" class="node">
<title>electricity_notify_settings</title>
<polygon fill="#efefef" stroke="transparent" points="252,-312.5 252,-347.5 593,-347.5 593,-312.5 252,-312.5"/>
<polygon fill="none" stroke="#000000" points="252,-312.5 252,-347.5 593,-347.5 593,-312.5 252,-312.5"/>
<text text-anchor="start" x="258.6999" y="-325.3" font-family="Arial Bold" font-size="18.00" fill="#000000">electricity_notify_settings</text>
<text text-anchor="start" x="458.7321" y="-325.3" font-family="Arial" font-size="14.00" fill="#000000">    </text>
<text text-anchor="start" x="492.9369" y="-325.3" font-family="Arial" font-size="14.00" fill="#666666">[BASE TABLE]</text>
<polygon fill="none" stroke="#000000" points="252,-282.5 252,-312.5 593,-312.5 593,-282.5 252,-282.5"/>
<text text-anchor="start" x="259" y="-293.9" font-family="Arial" font-size="14.00" fill="#000000">id    </text>
<text text-anchor="start" x="304.094" y="-293.9" font-family="Arial" font-size="14.00" fill="#666666">[bigint(20) unsigned]</text>
<polygon fill="none" stroke="#000000" points="252,-252.5 252,-282.5 593,-282.5 593,-252.5 252,-252.5"/>
<text text-anchor="start" x="259" y="-263.9" font-family="Arial" font-size="14.00" fill="#000000">electricity_fetch_setting_id    </text>
<text text-anchor="start" x="457.3506" y="-263.9" font-family="Arial" font-size="14.00" fill="#666666">[bigint(20) unsigned]</text>
<polygon fill="none" stroke="#000000" points="252,-222.5 252,-252.5 593,-252.5 593,-222.5 252,-222.5"/>
<text text-anchor="start" x="259" y="-233.9" font-family="Arial" font-size="14.00" fill="#000000">line_channel_id    </text>
<text text-anchor="start" x="390.4572" y="-233.9" font-family="Arial" font-size="14.00" fill="#666666">[varchar(256)]</text>
<polygon fill="none" stroke="#000000" points="252,-192.5 252,-222.5 593,-222.5 593,-192.5 252,-192.5"/>
<text text-anchor="start" x="259" y="-203.9" font-family="Arial" font-size="14.00" fill="#000000">advisor_id    </text>
<text text-anchor="start" x="356.9916" y="-203.9" font-family="Arial" font-size="14.00" fill="#666666">[bigint(20) unsigned]</text>
<polygon fill="none" stroke="#000000" points="252,-162.5 252,-192.5 593,-192.5 593,-162.5 252,-162.5"/>
<text text-anchor="start" x="259" y="-173.9" font-family="Arial" font-size="14.00" fill="#000000">notify_date    </text>
<text text-anchor="start" x="361.6788" y="-173.9" font-family="Arial" font-size="14.00" fill="#666666">[tinyint(3) unsigned]</text>
<polygon fill="none" stroke="#000000" points="252,-132.5 252,-162.5 593,-162.5 593,-132.5 252,-132.5"/>
<text text-anchor="start" x="259" y="-143.9" font-family="Arial" font-size="14.00" fill="#000000">notify_enable    </text>
<text text-anchor="start" x="376.46" y="-143.9" font-family="Arial" font-size="14.00" fill="#666666">[tinyint(1)]</text>
<polygon fill="none" stroke="#000000" points="252,-102.5 252,-132.5 593,-132.5 593,-102.5 252,-102.5"/>
<text text-anchor="start" x="259" y="-113.9" font-family="Arial" font-size="14.00" fill="#000000">template    </text>
<text text-anchor="start" x="346.8836" y="-113.9" font-family="Arial" font-size="14.00" fill="#666666">[text]</text>
<polygon fill="none" stroke="#000000" points="252,-72.5 252,-102.5 593,-102.5 593,-72.5 252,-72.5"/>
<text text-anchor="start" x="259" y="-83.9" font-family="Arial" font-size="14.00" fill="#000000">created_at    </text>
<text text-anchor="start" x="359.3422" y="-83.9" font-family="Arial" font-size="14.00" fill="#666666">[datetime]</text>
<polygon fill="none" stroke="#000000" points="252,-42.5 252,-72.5 593,-72.5 593,-42.5 252,-42.5"/>
<text text-anchor="start" x="259" y="-53.9" font-family="Arial" font-size="14.00" fill="#000000">updated_at    </text>
<text text-anchor="start" x="363.2468" y="-53.9" font-family="Arial" font-size="14.00" fill="#666666">[datetime]</text>
</g>
<!-- electricity_notify_dest_line_users&#45;&gt;electricity_notify_settings -->
<g id="edge1" class="edge">
<title>electricity_notify_dest_line_users:electricity_notify_setting_id&#45;&gt;electricity_notify_settings:id</title>
<path fill="none" stroke="#000000" d="M402.6153,-636.8798C322.1579,-626.8075 356.0037,-496.5243 413,-427 464.7235,-363.9074 541.2765,-454.0926 593,-391 619.3458,-358.8633 634.5556,-297.5 593,-297.5"/>
<polygon fill="#000000" stroke="#000000" points="403.0178,-636.9037 412.7317,-641.992 408.0089,-637.2019 413,-637.5 413,-637.5 413,-637.5 408.0089,-637.2019 413.2683,-633.008 403.0178,-636.9037 403.0178,-636.9037"/>
<text text-anchor="start" x="7.263" y="-647.5" font-family="Arial" font-size="10.00" fill="#000000">FOREIGN KEY (electricity_notify_setting_id) REFERENCES electricity_notify_settings (id)</text>
</g>
<!-- line_users -->
<g id="node3" class="node">
<title>line_users</title>
<polygon fill="#efefef" stroke="transparent" points="697,-237.5 697,-272.5 920,-272.5 920,-237.5 697,-237.5"/>
<polygon fill="none" stroke="#000000" points="697,-237.5 697,-272.5 920,-272.5 920,-237.5 697,-237.5"/>
<text text-anchor="start" x="703.7102" y="-250.3" font-family="Arial Bold" font-size="18.00" fill="#000000">line_users</text>
<text text-anchor="start" x="785.7218" y="-250.3" font-family="Arial" font-size="14.00" fill="#000000">    </text>
<text text-anchor="start" x="819.9266" y="-250.3" font-family="Arial" font-size="14.00" fill="#666666">[BASE TABLE]</text>
<polygon fill="none" stroke="#000000" points="697,-207.5 697,-237.5 920,-237.5 920,-207.5 697,-207.5"/>
<text text-anchor="start" x="704" y="-218.9" font-family="Arial" font-size="14.00" fill="#000000">id    </text>
<text text-anchor="start" x="749.094" y="-218.9" font-family="Arial" font-size="14.00" fill="#666666">[varchar(256)]</text>
<polygon fill="none" stroke="#000000" points="697,-177.5 697,-207.5 920,-207.5 920,-177.5 697,-177.5"/>
<text text-anchor="start" x="704" y="-188.9" font-family="Arial" font-size="14.00" fill="#000000">memo    </text>
<text text-anchor="start" x="777.0912" y="-188.9" font-family="Arial" font-size="14.00" fill="#666666">[text]</text>
<polygon fill="none" stroke="#000000" points="697,-147.5 697,-177.5 920,-177.5 920,-147.5 697,-147.5"/>
<text text-anchor="start" x="704" y="-158.9" font-family="Arial" font-size="14.00" fill="#000000">created_at    </text>
<text text-anchor="start" x="804.3422" y="-158.9" font-family="Arial" font-size="14.00" fill="#666666">[datetime]</text>
<polygon fill="none" stroke="#000000" points="697,-117.5 697,-147.5 920,-147.5 920,-117.5 697,-117.5"/>
<text text-anchor="start" x="704" y="-128.9" font-family="Arial" font-size="14.00" fill="#000000">updated_at    </text>
<text text-anchor="start" x="808.2468" y="-128.9" font-family="Arial" font-size="14.00" fill="#666666">[datetime]</text>
</g>
<!-- electricity_notify_dest_line_users&#45;&gt;line_users -->
<g id="edge2" class="edge">
<title>electricity_notify_dest_line_users:line_user_id&#45;&gt;line_users:id</title>
<path fill="none" stroke="#000000" d="M828.0484,-606.8646C893.9473,-597.9489 848.8383,-497.1384 818,-427 788.6268,-360.194 726.3732,-382.806 697,-316 680.2742,-277.9591 655.4444,-222.5 697,-222.5"/>
<polygon fill="#000000" stroke="#000000" points="827.9801,-606.8688 817.716,-603.009 822.99,-607.1844 818,-607.5 818,-607.5 818,-607.5 822.99,-607.1844 818.284,-611.991 827.9801,-606.8688 827.9801,-606.8688"/>
<text text-anchor="start" x="824.83" y="-617.5" font-family="Arial" font-size="10.00" fill="#000000">FOREIGN KEY (line_user_id) REFERENCES line_users (id)</text>
</g>
</g>
</svg>
