<?xml version="1.0" encoding="UTF-8" standalone="no"?>
<!DOCTYPE svg PUBLIC "-//W3C//DTD SVG 1.1//EN"
 "http://www.w3.org/Graphics/SVG/1.1/DTD/svg11.dtd">
<!-- Generated by graphviz version 2.40.1 (20161225.0304)
 -->
<!-- Title: electricity_notify_settings Pages: 1 -->
<svg width="1071pt" height="1139pt"
 viewBox="0.00 0.00 1071.00 1139.00" xmlns="http://www.w3.org/2000/svg" xmlns:xlink="http://www.w3.org/1999/xlink">
<g id="graph0" class="graph" transform="scale(1 1) rotate(0) translate(4 1135)">
<title>electricity_notify_settings</title>
<polygon fill="#ffffff" stroke="transparent" points="-4,4 -4,-1135 1067,-1135 1067,4 -4,4"/>
<!-- electricity_notify_settings -->
<g id="node1" class="node">
<title>electricity_notify_settings</title>
<polygon fill="#efefef" stroke="transparent" points="409,-682.5 409,-717.5 750,-717.5 750,-682.5 409,-682.5"/>
<polygon fill="none" stroke="#000000" points="409,-682.5 409,-717.5 750,-717.5 750,-682.5 409,-682.5"/>
<text text-anchor="start" x="415.6999" y="-695.3" font-family="Arial Bold" font-size="18.00" fill="#000000">electricity_notify_settings</text>
<text text-anchor="start" x="615.7321" y="-695.3" font-family="Arial" font-size="14.00" fill="#000000">    </text>
<text text-anchor="start" x="649.9369" y="-695.3" font-family="Arial" font-size="14.00" fill="#666666">[BASE TABLE]</text>
<polygon fill="none" stroke="#000000" points="409,-652.5 409,-682.5 750,-682.5 750,-652.5 409,-652.5"/>
<text text-anchor="start" x="416" y="-663.9" font-family="Arial" font-size="14.00" fill="#000000">id </text>
<text text-anchor="start" x="430.7798" y="-663.9" font-family="Arial" font-size="14.00" fill="#666666">[bigint(20) unsigned]</text>
<polygon fill="none" stroke="#000000" points="409,-622.5 409,-652.5 750,-652.5 750,-622.5 409,-622.5"/>
<text text-anchor="start" x="416" y="-633.9" font-family="Arial" font-size="14.00" fill="#000000">electricity_fetch_setting_id </text>
<text text-anchor="start" x="584.0364" y="-633.9" font-family="Arial" font-size="14.00" fill="#666666">[bigint(20) unsigned]</text>
<polygon fill="none" stroke="#000000" points="409,-592.5 409,-622.5 750,-622.5 750,-592.5 409,-592.5"/>
<text text-anchor="start" x="416" y="-603.9" font-family="Arial" font-size="14.00" fill="#000000">line_channel_id </text>
<text text-anchor="start" x="517.143" y="-603.9" font-family="Arial" font-size="14.00" fill="#666666">[varchar(256)]</text>
<polygon fill="none" stroke="#000000" points="409,-562.5 409,-592.5 750,-592.5 750,-562.5 409,-562.5"/>
<text text-anchor="start" x="416" y="-573.9" font-family="Arial" font-size="14.00" fill="#000000">notify_date </text>
<text text-anchor="start" x="488.3646" y="-573.9" font-family="Arial" font-size="14.00" fill="#666666">[tinyint(3) unsigned]</text>
<polygon fill="none" stroke="#000000" points="409,-532.5 409,-562.5 750,-562.5 750,-532.5 409,-532.5"/>
<text text-anchor="start" x="416" y="-543.9" font-family="Arial" font-size="14.00" fill="#000000">notify_enable </text>
<text text-anchor="start" x="503.1458" y="-543.9" font-family="Arial" font-size="14.00" fill="#666666">[tinyint(1)]</text>
<polygon fill="none" stroke="#000000" points="409,-502.5 409,-532.5 750,-532.5 750,-502.5 409,-502.5"/>
<text text-anchor="start" x="416" y="-513.9" font-family="Arial" font-size="14.00" fill="#000000">template </text>
<text text-anchor="start" x="473.5694" y="-513.9" font-family="Arial" font-size="14.00" fill="#666666">[text]</text>
<polygon fill="none" stroke="#000000" points="409,-472.5 409,-502.5 750,-502.5 750,-472.5 409,-472.5"/>
<text text-anchor="start" x="416" y="-483.9" font-family="Arial" font-size="14.00" fill="#000000">created_at </text>
<text text-anchor="start" x="486.028" y="-483.9" font-family="Arial" font-size="14.00" fill="#666666">[datetime]</text>
<polygon fill="none" stroke="#000000" points="409,-442.5 409,-472.5 750,-472.5 750,-442.5 409,-442.5"/>
<text text-anchor="start" x="416" y="-453.9" font-family="Arial" font-size="14.00" fill="#000000">updated_at </text>
<text text-anchor="start" x="489.9326" y="-453.9" font-family="Arial" font-size="14.00" fill="#666666">[datetime]</text>
<polygon fill="none" stroke="#000000" stroke-width="3" points="407,-441.5 407,-719.5 751,-719.5 751,-441.5 407,-441.5"/>
</g>
<!-- electricity_fetch_settings -->
<g id="node4" class="node">
<title>electricity_fetch_settings</title>
<polygon fill="#efefef" stroke="transparent" points="212,-282.5 212,-317.5 549,-317.5 549,-282.5 212,-282.5"/>
<polygon fill="none" stroke="#000000" points="212,-282.5 212,-317.5 549,-317.5 549,-282.5 212,-282.5"/>
<text text-anchor="start" x="218.697" y="-295.3" font-family="Arial Bold" font-size="18.00" fill="#000000">electricity_fetch_settings</text>
<text text-anchor="start" x="414.735" y="-295.3" font-family="Arial" font-size="14.00" fill="#000000">    </text>
<text text-anchor="start" x="448.9398" y="-295.3" font-family="Arial" font-size="14.00" fill="#666666">[BASE TABLE]</text>
<polygon fill="none" stroke="#000000" points="212,-252.5 212,-282.5 549,-282.5 549,-252.5 212,-252.5"/>
<text text-anchor="start" x="219" y="-263.9" font-family="Arial" font-size="14.00" fill="#000000">id    </text>
<text text-anchor="start" x="264.094" y="-263.9" font-family="Arial" font-size="14.00" fill="#666666">[bigint(20) unsigned]</text>
<polygon fill="none" stroke="#000000" points="212,-222.5 212,-252.5 549,-252.5 549,-222.5 212,-222.5"/>
<text text-anchor="start" x="219" y="-233.9" font-family="Arial" font-size="14.00" fill="#000000">setting_name    </text>
<text text-anchor="start" x="337.2314" y="-233.9" font-family="Arial" font-size="14.00" fill="#666666">[varchar(255)]</text>
<polygon fill="none" stroke="#000000" points="212,-192.5 212,-222.5 549,-222.5 549,-192.5 212,-192.5"/>
<text text-anchor="start" x="219" y="-203.9" font-family="Arial" font-size="14.00" fill="#000000">electricity_site_id    </text>
<text text-anchor="start" x="359.7658" y="-203.9" font-family="Arial" font-size="14.00" fill="#666666">[bigint(20) unsigned]</text>
<polygon fill="none" stroke="#000000" points="212,-162.5 212,-192.5 549,-192.5 549,-162.5 212,-162.5"/>
<text text-anchor="start" x="219" y="-173.9" font-family="Arial" font-size="14.00" fill="#000000">user_name    </text>
<text text-anchor="start" x="323.2216" y="-173.9" font-family="Arial" font-size="14.00" fill="#666666">[varchar(255)]</text>
<polygon fill="none" stroke="#000000" points="212,-132.5 212,-162.5 549,-162.5 549,-132.5 212,-132.5"/>
<text text-anchor="start" x="219" y="-143.9" font-family="Arial" font-size="14.00" fill="#000000">encrypted_password    </text>
<text text-anchor="start" x="382.3492" y="-143.9" font-family="Arial" font-size="14.00" fill="#666666">[varchar(512)]</text>
<polygon fill="none" stroke="#000000" points="212,-102.5 212,-132.5 549,-132.5 549,-102.5 212,-102.5"/>
<text text-anchor="start" x="219" y="-113.9" font-family="Arial" font-size="14.00" fill="#000000">fetch_enable    </text>
<text text-anchor="start" x="333.3534" y="-113.9" font-family="Arial" font-size="14.00" fill="#666666">[tinyint(1)]</text>
<polygon fill="none" stroke="#000000" points="212,-72.5 212,-102.5 549,-102.5 549,-72.5 212,-72.5"/>
<text text-anchor="start" x="219" y="-83.9" font-family="Arial" font-size="14.00" fill="#000000">created_at    </text>
<text text-anchor="start" x="319.3422" y="-83.9" font-family="Arial" font-size="14.00" fill="#666666">[datetime]</text>
<polygon fill="none" stroke="#000000" points="212,-42.5 212,-72.5 549,-72.5 549,-42.5 212,-42.5"/>
<text text-anchor="start" x="219" y="-53.9" font-family="Arial" font-size="14.00" fill="#000000">updated_at    </text>
<text text-anchor="start" x="323.2468" y="-53.9" font-family="Arial" font-size="14.00" fill="#666666">[datetime]</text>
</g>
<!-- electricity_notify_settings&#45;&gt;electricity_fetch_settings -->
<g id="edge3" class="edge">
<title>electricity_notify_settings:electricity_fetch_setting_id&#45;&gt;electricity_fetch_settings:id</title>
<path fill="none" stroke="#000000" d="M398.8387,-636.9923C304.8863,-627.2176 345.6771,-478.666 409,-397 448.3679,-346.2282 509.6321,-411.7718 549,-361 574.4637,-328.1601 590.5556,-267.5 549,-267.5"/>
<polygon fill="#000000" stroke="#000000" points="399.0125,-637.0009 408.7754,-641.9944 404.0062,-637.2504 409,-637.5 409,-637.5 409,-637.5 404.0062,-637.2504 409.2246,-633.0056 399.0125,-637.0009 399.0125,-637.0009"/>
<text text-anchor="start" x="7.482" y="-647.5" font-family="Arial" font-size="10.00" fill="#000000">FOREIGN KEY (electricity_fetch_setting_id) REFERENCES electricity_fetch_settings (id)</text>
</g>
<!-- line_channels -->
<g id="node5" class="node">
<title>line_channels</title>
<polygon fill="#efefef" stroke="transparent" points="653,-222.5 653,-257.5 904,-257.5 904,-222.5 653,-222.5"/>
<polygon fill="none" stroke="#000000" points="653,-222.5 653,-257.5 904,-257.5 904,-222.5 653,-222.5"/>
<text text-anchor="start" x="659.6999" y="-235.3" font-family="Arial Bold" font-size="18.00" fill="#000000">line_channels</text>
<text text-anchor="start" x="769.7321" y="-235.3" font-family="Arial" font-size="14.00" fill="#000000">    </text>
<text text-anchor="start" x="803.9369" y="-235.3" font-family="Arial" font-size="14.00" fill="#666666">[BASE TABLE]</text>
<polygon fill="none" stroke="#000000" points="653,-192.5 653,-222.5 904,-222.5 904,-192.5 653,-192.5"/>
<text text-anchor="start" x="660" y="-203.9" font-family="Arial" font-size="14.00" fill="#000000">id    </text>
<text text-anchor="start" x="705.094" y="-203.9" font-family="Arial" font-size="14.00" fill="#666666">[varchar(256)]</text>
<polygon fill="none" stroke="#000000" points="653,-162.5 653,-192.5 904,-192.5 904,-162.5 653,-162.5"/>
<text text-anchor="start" x="660" y="-173.9" font-family="Arial" font-size="14.00" fill="#000000">memo    </text>
<text text-anchor="start" x="733.0912" y="-173.9" font-family="Arial" font-size="14.00" fill="#666666">[text]</text>
<polygon fill="none" stroke="#000000" points="653,-132.5 653,-162.5 904,-162.5 904,-132.5 653,-132.5"/>
<text text-anchor="start" x="660" y="-143.9" font-family="Arial" font-size="14.00" fill="#000000">created_at    </text>
<text text-anchor="start" x="760.3422" y="-143.9" font-family="Arial" font-size="14.00" fill="#666666">[datetime]</text>
<polygon fill="none" stroke="#000000" points="653,-102.5 653,-132.5 904,-132.5 904,-102.5 653,-102.5"/>
<text text-anchor="start" x="660" y="-113.9" font-family="Arial" font-size="14.00" fill="#000000">updated_at    </text>
<text text-anchor="start" x="764.2468" y="-113.9" font-family="Arial" font-size="14.00" fill="#666666">[datetime]</text>
</g>
<!-- electricity_notify_settings&#45;&gt;line_channels -->
<g id="edge4" class="edge">
<title>electricity_notify_settings:line_channel_id&#45;&gt;line_channels:id</title>
<path fill="none" stroke="#000000" d="M760.2822,-606.9413C839.0939,-597.8578 784.6187,-479.9683 750,-397 726.6433,-341.0225 676.3567,-356.9775 653,-301 636.998,-262.649 611.4444,-207.5 653,-207.5"/>
<polygon fill="#000000" stroke="#000000" points="759.9853,-606.9573 749.7558,-603.0066 754.9926,-607.2287 750,-607.5 750,-607.5 750,-607.5 754.9926,-607.2287 750.2442,-611.9934 759.9853,-606.9573 759.9853,-606.9573"/>
<text text-anchor="start" x="757.263" y="-617.5" font-family="Arial" font-size="10.00" fill="#000000">FOREIGN KEY (line_channel_id) REFERENCES line_channels (id)</text>
</g>
<!-- electricity_notify_dest_line_users -->
<g id="node2" class="node">
<title>electricity_notify_dest_line_users</title>
<polygon fill="#efefef" stroke="transparent" points="138,-1007.5 138,-1042.5 543,-1042.5 543,-1007.5 138,-1007.5"/>
<polygon fill="none" stroke="#000000" points="138,-1007.5 138,-1042.5 543,-1042.5 543,-1007.5 138,-1007.5"/>
<text text-anchor="start" x="144.6923" y="-1020.3" font-family="Arial Bold" font-size="18.00" fill="#000000">electricity_notify_dest_line_users</text>
<text text-anchor="start" x="408.7397" y="-1020.3" font-family="Arial" font-size="14.00" fill="#000000">    </text>
<text text-anchor="start" x="442.9445" y="-1020.3" font-family="Arial" font-size="14.00" fill="#666666">[BASE TABLE]</text>
<polygon fill="none" stroke="#000000" points="138,-977.5 138,-1007.5 543,-1007.5 543,-977.5 138,-977.5"/>
<text text-anchor="start" x="145" y="-988.9" font-family="Arial" font-size="14.00" fill="#000000">electricity_notify_setting_id    </text>
<text text-anchor="start" x="346.4572" y="-988.9" font-family="Arial" font-size="14.00" fill="#666666">[bigint(20) unsigned]</text>
<polygon fill="none" stroke="#000000" points="138,-947.5 138,-977.5 543,-977.5 543,-947.5 138,-947.5"/>
<text text-anchor="start" x="145" y="-958.9" font-family="Arial" font-size="14.00" fill="#000000">line_user_id    </text>
<text text-anchor="start" x="254.6634" y="-958.9" font-family="Arial" font-size="14.00" fill="#666666">[varchar(256)]</text>
<polygon fill="none" stroke="#000000" points="138,-917.5 138,-947.5 543,-947.5 543,-917.5 138,-917.5"/>
<text text-anchor="start" x="145" y="-928.9" font-family="Arial" font-size="14.00" fill="#000000">created_at    </text>
<text text-anchor="start" x="245.3422" y="-928.9" font-family="Arial" font-size="14.00" fill="#666666">[datetime]</text>
<polygon fill="none" stroke="#000000" points="138,-887.5 138,-917.5 543,-917.5 543,-887.5 138,-887.5"/>
<text text-anchor="start" x="145" y="-898.9" font-family="Arial" font-size="14.00" fill="#000000">updated_at    </text>
<text text-anchor="start" x="249.2468" y="-898.9" font-family="Arial" font-size="14.00" fill="#666666">[datetime]</text>
</g>
<!-- electricity_notify_dest_line_users&#45;&gt;electricity_notify_settings -->
<g id="edge1" class="edge">
<title>electricity_notify_dest_line_users:electricity_notify_setting_id&#45;&gt;electricity_notify_settings:id</title>
<path fill="none" stroke="#000000" d="M553.2056,-991.6524C604.7813,-982.3661 573.3812,-898.8653 543,-845 508.8123,-784.3859 443.1877,-824.6141 409,-764 387.93,-726.6434 366.1111,-667.5 409,-667.5"/>
<polygon fill="#000000" stroke="#000000" points="552.9657,-991.6723 542.6275,-988.0154 547.9828,-992.0861 543,-992.5 543,-992.5 543,-992.5 547.9828,-992.0861 543.3725,-996.9846 552.9657,-991.6723 552.9657,-991.6723"/>
<text text-anchor="start" x="550.263" y="-1002.5" font-family="Arial" font-size="10.00" fill="#000000">FOREIGN KEY (electricity_notify_setting_id) REFERENCES electricity_notify_settings (id)</text>
</g>
<!-- electricity_notify_statuses -->
<g id="node3" class="node">
<title>electricity_notify_statuses</title>
<polygon fill="#efefef" stroke="transparent" points="647,-1052.5 647,-1087.5 993,-1087.5 993,-1052.5 647,-1052.5"/>
<polygon fill="none" stroke="#000000" points="647,-1052.5 647,-1087.5 993,-1087.5 993,-1052.5 647,-1052.5"/>
<text text-anchor="start" x="653.697" y="-1065.3" font-family="Arial Bold" font-size="18.00" fill="#000000">electricity_notify_statuses</text>
<text text-anchor="start" x="858.735" y="-1065.3" font-family="Arial" font-size="14.00" fill="#000000">    </text>
<text text-anchor="start" x="892.9398" y="-1065.3" font-family="Arial" font-size="14.00" fill="#666666">[BASE TABLE]</text>
<polygon fill="none" stroke="#000000" points="647,-1022.5 647,-1052.5 993,-1052.5 993,-1022.5 647,-1022.5"/>
<text text-anchor="start" x="654" y="-1033.9" font-family="Arial" font-size="14.00" fill="#000000">id    </text>
<text text-anchor="start" x="699.094" y="-1033.9" font-family="Arial" font-size="14.00" fill="#666666">[bigint(20) unsigned]</text>
<polygon fill="none" stroke="#000000" points="647,-992.5 647,-1022.5 993,-1022.5 993,-992.5 647,-992.5"/>
<text text-anchor="start" x="654" y="-1003.9" font-family="Arial" font-size="14.00" fill="#000000">electricity_notify_setting_id    </text>
<text text-anchor="start" x="855.4572" y="-1003.9" font-family="Arial" font-size="14.00" fill="#666666">[bigint(20) unsigned]</text>
<polygon fill="none" stroke="#000000" points="647,-962.5 647,-992.5 993,-992.5 993,-962.5 647,-962.5"/>
<text text-anchor="start" x="654" y="-973.9" font-family="Arial" font-size="14.00" fill="#000000">status_type_id    </text>
<text text-anchor="start" x="778.4614" y="-973.9" font-family="Arial" font-size="14.00" fill="#666666">[tinyint(3) unsigned]</text>
<polygon fill="none" stroke="#000000" points="647,-932.5 647,-962.5 993,-962.5 993,-932.5 647,-932.5"/>
<text text-anchor="start" x="654" y="-943.9" font-family="Arial" font-size="14.00" fill="#000000">last_successful_at    </text>
<text text-anchor="start" x="802.568" y="-943.9" font-family="Arial" font-size="14.00" fill="#666666">[datetime]</text>
<polygon fill="none" stroke="#000000" points="647,-902.5 647,-932.5 993,-932.5 993,-902.5 647,-902.5"/>
<text text-anchor="start" x="654" y="-913.9" font-family="Arial" font-size="14.00" fill="#000000">last_failure_at    </text>
<text text-anchor="start" x="775.3352" y="-913.9" font-family="Arial" font-size="14.00" fill="#666666">[datetime]</text>
<polygon fill="none" stroke="#000000" points="647,-872.5 647,-902.5 993,-902.5 993,-872.5 647,-872.5"/>
<text text-anchor="start" x="654" y="-883.9" font-family="Arial" font-size="14.00" fill="#000000">created_at    </text>
<text text-anchor="start" x="754.3422" y="-883.9" font-family="Arial" font-size="14.00" fill="#666666">[datetime]</text>
<polygon fill="none" stroke="#000000" points="647,-842.5 647,-872.5 993,-872.5 993,-842.5 647,-842.5"/>
<text text-anchor="start" x="654" y="-853.9" font-family="Arial" font-size="14.00" fill="#000000">updated_at    </text>
<text text-anchor="start" x="758.2468" y="-853.9" font-family="Arial" font-size="14.00" fill="#666666">[datetime]</text>
</g>
<!-- electricity_notify_statuses&#45;&gt;electricity_notify_settings -->
<g id="edge2" class="edge">
<title>electricity_notify_statuses:electricity_notify_setting_id&#45;&gt;electricity_notify_settings:id</title>
<path fill="none" stroke="#000000" d="M637.3649,-1004.5332C603.9678,-981.7609 622.3953,-834.664 647,-800 675.0688,-760.4557 721.9312,-803.5443 750,-764 774.8248,-729.0259 792.8889,-667.5 750,-667.5"/>
<polygon fill="#000000" stroke="#000000" points="637.4428,-1004.5571 645.6757,-1011.8007 642.2214,-1006.0286 647,-1007.5 647,-1007.5 647,-1007.5 642.2214,-1006.0286 648.3243,-1003.1993 637.4428,-1004.5571 637.4428,-1004.5571"/>
<text text-anchor="start" x="654.263" y="-1017.5" font-family="Arial" font-size="10.00" fill="#000000">FOREIGN KEY (electricity_notify_setting_id) REFERENCES electricity_notify_settings (id)</text>
</g>
</g>
</svg>
