<?xml version="1.0" encoding="UTF-8" standalone="no"?>
<!DOCTYPE svg PUBLIC "-//W3C//DTD SVG 1.1//EN"
 "http://www.w3.org/Graphics/SVG/1.1/DTD/svg11.dtd">
<!-- Generated by graphviz version 12.1.2 (20240928.0832)
 -->
<!-- Title: electricity_fetch_settings Pages: 1 -->
<svg width="1795pt" height="818pt"
 viewBox="0.00 0.00 1794.83 817.60" xmlns="http://www.w3.org/2000/svg" xmlns:xlink="http://www.w3.org/1999/xlink">
<g id="graph0" class="graph" transform="scale(1 1) rotate(0) translate(4 813.6)">
<title>electricity_fetch_settings</title>
<polygon fill="white" stroke="none" points="-4,4 -4,-813.6 1790.83,-813.6 1790.83,4 -4,4"/>
<!-- electricity_fetch_settings -->
<g id="node1" class="node">
<title>electricity_fetch_settings</title>
<polygon fill="#efefef" stroke="none" points="729.21,-292.6 729.21,-328.2 1048.63,-328.2 1048.63,-292.6 729.21,-292.6"/>
<polygon fill="none" stroke="black" points="729.21,-292.6 729.21,-328.2 1048.63,-328.2 1048.63,-292.6 729.21,-292.6"/>
<text text-anchor="start" x="736.21" y="-306" font-family="Arial Bold" font-size="18.00">electricity_fetch_settings</text>
<text text-anchor="start" x="917.14" y="-306" font-family="Arial" font-size="14.00">    </text>
<text text-anchor="start" x="948.26" y="-306" font-family="Arial" font-size="14.00" fill="#666666">[BASE TABLE]</text>
<polygon fill="none" stroke="black" points="729.21,-261.8 729.21,-292.6 1048.63,-292.6 1048.63,-261.8 729.21,-261.8"/>
<text text-anchor="start" x="736.21" y="-274" font-family="Arial" font-size="14.00">id </text>
<text text-anchor="start" x="751" y="-274" font-family="Arial" font-size="14.00" fill="#666666">[bigint(20) unsigned]</text>
<polygon fill="none" stroke="black" points="729.21,-231 729.21,-261.8 1048.63,-261.8 1048.63,-231 729.21,-231"/>
<text text-anchor="start" x="736.21" y="-243.2" font-family="Arial" font-size="14.00">setting_name </text>
<text text-anchor="start" x="824.15" y="-243.2" font-family="Arial" font-size="14.00" fill="#666666">[varchar(255)]</text>
<polygon fill="none" stroke="black" points="729.21,-200.2 729.21,-231 1048.63,-231 1048.63,-200.2 729.21,-200.2"/>
<text text-anchor="start" x="736.21" y="-212.4" font-family="Arial" font-size="14.00">electricity_site_id </text>
<text text-anchor="start" x="846.7" y="-212.4" font-family="Arial" font-size="14.00" fill="#666666">[bigint(20) unsigned]</text>
<polygon fill="none" stroke="black" points="729.21,-169.4 729.21,-200.2 1048.63,-200.2 1048.63,-169.4 729.21,-169.4"/>
<text text-anchor="start" x="736.21" y="-181.6" font-family="Arial" font-size="14.00">user_name </text>
<text text-anchor="start" x="810.14" y="-181.6" font-family="Arial" font-size="14.00" fill="#666666">[varchar(255)]</text>
<polygon fill="none" stroke="black" points="729.21,-138.6 729.21,-169.4 1048.63,-169.4 1048.63,-138.6 729.21,-138.6"/>
<text text-anchor="start" x="736.21" y="-150.8" font-family="Arial" font-size="14.00">encrypted_password </text>
<text text-anchor="start" x="869.28" y="-150.8" font-family="Arial" font-size="14.00" fill="#666666">[varchar(512)]</text>
<polygon fill="none" stroke="black" points="729.21,-107.8 729.21,-138.6 1048.63,-138.6 1048.63,-107.8 729.21,-107.8"/>
<text text-anchor="start" x="736.21" y="-120" font-family="Arial" font-size="14.00">fetch_enable </text>
<text text-anchor="start" x="820.28" y="-120" font-family="Arial" font-size="14.00" fill="#666666">[tinyint(1)]</text>
<polygon fill="none" stroke="black" points="729.21,-77 729.21,-107.8 1048.63,-107.8 1048.63,-77 729.21,-77"/>
<text text-anchor="start" x="736.21" y="-89.2" font-family="Arial" font-size="14.00">created_at </text>
<text text-anchor="start" x="806.26" y="-89.2" font-family="Arial" font-size="14.00" fill="#666666">[datetime]</text>
<polygon fill="none" stroke="black" points="729.21,-46.2 729.21,-77 1048.63,-77 1048.63,-46.2 729.21,-46.2"/>
<text text-anchor="start" x="736.21" y="-58.4" font-family="Arial" font-size="14.00">updated_at </text>
<text text-anchor="start" x="810.17" y="-58.4" font-family="Arial" font-size="14.00" fill="#666666">[datetime]</text>
<polygon fill="none" stroke="black" stroke-width="3" points="727.71,-44.7 727.71,-329.7 1050.13,-329.7 1050.13,-44.7 727.71,-44.7"/>
</g>
<!-- electricity_daily_usages -->
<g id="node2" class="node">
<title>electricity_daily_usages</title>
<polygon fill="#efefef" stroke="none" points="95.71,-700 95.71,-735.6 408.13,-735.6 408.13,-700 95.71,-700"/>
<polygon fill="none" stroke="black" points="95.71,-700 95.71,-735.6 408.13,-735.6 408.13,-700 95.71,-700"/>
<text text-anchor="start" x="102.71" y="-713.4" font-family="Arial Bold" font-size="18.00">electricity_daily_usages</text>
<text text-anchor="start" x="276.64" y="-713.4" font-family="Arial" font-size="14.00">    </text>
<text text-anchor="start" x="307.76" y="-713.4" font-family="Arial" font-size="14.00" fill="#666666">[BASE TABLE]</text>
<polygon fill="none" stroke="black" points="95.71,-669.2 95.71,-700 408.13,-700 408.13,-669.2 95.71,-669.2"/>
<text text-anchor="start" x="102.71" y="-681.4" font-family="Arial" font-size="14.00">electricity_fetch_setting_id </text>
<text text-anchor="start" x="270.8" y="-681.4" font-family="Arial" font-size="14.00" fill="#666666">[bigint(20) unsigned]</text>
<polygon fill="none" stroke="black" points="95.71,-638.4 95.71,-669.2 408.13,-669.2 408.13,-638.4 95.71,-638.4"/>
<text text-anchor="start" x="102.71" y="-650.6" font-family="Arial" font-size="14.00">usage_year </text>
<text text-anchor="start" x="179.76" y="-650.6" font-family="Arial" font-size="14.00" fill="#666666">[int(10) unsigned]</text>
<polygon fill="none" stroke="black" points="95.71,-607.6 95.71,-638.4 408.13,-638.4 408.13,-607.6 95.71,-607.6"/>
<text text-anchor="start" x="102.71" y="-619.8" font-family="Arial" font-size="14.00">usage_month </text>
<text text-anchor="start" x="191.44" y="-619.8" font-family="Arial" font-size="14.00" fill="#666666">[int(10) unsigned]</text>
<polygon fill="none" stroke="black" points="95.71,-576.8 95.71,-607.6 408.13,-607.6 408.13,-576.8 95.71,-576.8"/>
<text text-anchor="start" x="102.71" y="-589" font-family="Arial" font-size="14.00">usage_date </text>
<text text-anchor="start" x="179.78" y="-589" font-family="Arial" font-size="14.00" fill="#666666">[int(10) unsigned]</text>
<polygon fill="none" stroke="black" points="95.71,-546 95.71,-576.8 408.13,-576.8 408.13,-546 95.71,-546"/>
<text text-anchor="start" x="102.71" y="-558.2" font-family="Arial" font-size="14.00">usage_amount </text>
<text text-anchor="start" x="199.22" y="-558.2" font-family="Arial" font-size="14.00" fill="#666666">[decimal(15,5) unsigned]</text>
<polygon fill="none" stroke="black" points="95.71,-515.2 95.71,-546 408.13,-546 408.13,-515.2 95.71,-515.2"/>
<text text-anchor="start" x="102.71" y="-527.4" font-family="Arial" font-size="14.00">created_at </text>
<text text-anchor="start" x="172.75" y="-527.4" font-family="Arial" font-size="14.00" fill="#666666">[datetime]</text>
<polygon fill="none" stroke="black" points="95.71,-484.4 95.71,-515.2 408.13,-515.2 408.13,-484.4 95.71,-484.4"/>
<text text-anchor="start" x="102.71" y="-496.6" font-family="Arial" font-size="14.00">updated_at </text>
<text text-anchor="start" x="176.67" y="-496.6" font-family="Arial" font-size="14.00" fill="#666666">[datetime]</text>
</g>
<!-- electricity_daily_usages&#45;&gt;electricity_fetch_settings -->
<g id="edge1" class="edge">
<title>electricity_daily_usages:electricity_fetch_setting_id&#45;&gt;electricity_fetch_settings:id</title>
<path fill="none" stroke="black" d="M419.23,-682.22C465.69,-658.03 425.78,-456.86 460.92,-410.4 540.99,-304.54 595.48,-277.2 728.21,-277.2"/>
<polygon fill="black" stroke="black" points="419.19,-682.23 408.42,-680.14 414,-683.45 409.78,-684.45 409.78,-684.45 409.78,-684.45 414,-683.45 410.49,-688.9 419.19,-682.23"/>
<text text-anchor="start" x="7" y="-694.6" font-family="Arial" font-size="10.00">FOREIGN KEY (electricity_fetch_setting_id) REFERENCES electricity_fetch_settings (id)</text>
</g>
<!-- electricity_fetch_statuses -->
<g id="node3" class="node">
<title>electricity_fetch_statuses</title>
<polygon fill="#efefef" stroke="none" points="512.71,-700 512.71,-735.6 833.13,-735.6 833.13,-700 512.71,-700"/>
<polygon fill="none" stroke="black" points="512.71,-700 512.71,-735.6 833.13,-735.6 833.13,-700 512.71,-700"/>
<text text-anchor="start" x="519.71" y="-713.4" font-family="Arial Bold" font-size="18.00">electricity_fetch_statuses</text>
<text text-anchor="start" x="701.64" y="-713.4" font-family="Arial" font-size="14.00">    </text>
<text text-anchor="start" x="732.75" y="-713.4" font-family="Arial" font-size="14.00" fill="#666666">[BASE TABLE]</text>
<polygon fill="none" stroke="black" points="512.71,-669.2 512.71,-700 833.13,-700 833.13,-669.2 512.71,-669.2"/>
<text text-anchor="start" x="519.71" y="-681.4" font-family="Arial" font-size="14.00">id </text>
<text text-anchor="start" x="534.5" y="-681.4" font-family="Arial" font-size="14.00" fill="#666666">[bigint(20) unsigned]</text>
<polygon fill="none" stroke="black" points="512.71,-638.4 512.71,-669.2 833.13,-669.2 833.13,-638.4 512.71,-638.4"/>
<text text-anchor="start" x="519.71" y="-650.6" font-family="Arial" font-size="14.00">electricity_fetch_setting_id </text>
<text text-anchor="start" x="687.8" y="-650.6" font-family="Arial" font-size="14.00" fill="#666666">[bigint(20) unsigned]</text>
<polygon fill="none" stroke="black" points="512.71,-607.6 512.71,-638.4 833.13,-638.4 833.13,-607.6 512.71,-607.6"/>
<text text-anchor="start" x="519.71" y="-619.8" font-family="Arial" font-size="14.00">status_type_id </text>
<text text-anchor="start" x="613.88" y="-619.8" font-family="Arial" font-size="14.00" fill="#666666">[tinyint(3) unsigned]</text>
<polygon fill="none" stroke="black" points="512.71,-576.8 512.71,-607.6 833.13,-607.6 833.13,-576.8 512.71,-576.8"/>
<text text-anchor="start" x="519.71" y="-589" font-family="Arial" font-size="14.00">last_successful_at </text>
<text text-anchor="start" x="637.99" y="-589" font-family="Arial" font-size="14.00" fill="#666666">[datetime]</text>
<polygon fill="none" stroke="black" points="512.71,-546 512.71,-576.8 833.13,-576.8 833.13,-546 512.71,-546"/>
<text text-anchor="start" x="519.71" y="-558.2" font-family="Arial" font-size="14.00">last_failure_at </text>
<text text-anchor="start" x="610.77" y="-558.2" font-family="Arial" font-size="14.00" fill="#666666">[datetime]</text>
<polygon fill="none" stroke="black" points="512.71,-515.2 512.71,-546 833.13,-546 833.13,-515.2 512.71,-515.2"/>
<text text-anchor="start" x="519.71" y="-527.4" font-family="Arial" font-size="14.00">created_at </text>
<text text-anchor="start" x="589.76" y="-527.4" font-family="Arial" font-size="14.00" fill="#666666">[datetime]</text>
<polygon fill="none" stroke="black" points="512.71,-484.4 512.71,-515.2 833.13,-515.2 833.13,-484.4 512.71,-484.4"/>
<text text-anchor="start" x="519.71" y="-496.6" font-family="Arial" font-size="14.00">updated_at </text>
<text text-anchor="start" x="593.67" y="-496.6" font-family="Arial" font-size="14.00" fill="#666666">[datetime]</text>
</g>
<!-- electricity_fetch_statuses&#45;&gt;electricity_fetch_settings -->
<g id="edge2" class="edge">
<title>electricity_fetch_statuses:electricity_fetch_setting_id&#45;&gt;electricity_fetch_settings:id</title>
<path fill="none" stroke="black" d="M843.9,-650.81C877.4,-627.84 854.09,-479.38 833.13,-441.2 806.7,-393.07 755.77,-422.45 729.21,-374.4 708.31,-336.59 685.01,-277.2 728.21,-277.2"/>
<polygon fill="black" stroke="black" points="844.01,-650.78 833.13,-649.4 838.91,-652.34 834.77,-653.6 834.77,-653.6 834.77,-653.6 838.91,-652.34 835.76,-658.01 844.01,-650.78"/>
<text text-anchor="start" x="841.13" y="-663.8" font-family="Arial" font-size="10.00">FOREIGN KEY (electricity_fetch_setting_id) REFERENCES electricity_fetch_settings (id)</text>
</g>
<!-- electricity_monthly_usages -->
<g id="node4" class="node">
<title>electricity_monthly_usages</title>
<polygon fill="#efefef" stroke="none" points="937.7,-715.4 937.7,-751 1274.14,-751 1274.14,-715.4 937.7,-715.4"/>
<polygon fill="none" stroke="black" points="937.7,-715.4 937.7,-751 1274.14,-751 1274.14,-715.4 937.7,-715.4"/>
<text text-anchor="start" x="944.7" y="-728.8" font-family="Arial Bold" font-size="18.00">electricity_monthly_usages</text>
<text text-anchor="start" x="1142.65" y="-728.8" font-family="Arial" font-size="14.00">    </text>
<text text-anchor="start" x="1173.77" y="-728.8" font-family="Arial" font-size="14.00" fill="#666666">[BASE TABLE]</text>
<polygon fill="none" stroke="black" points="937.7,-684.6 937.7,-715.4 1274.14,-715.4 1274.14,-684.6 937.7,-684.6"/>
<text text-anchor="start" x="944.7" y="-696.8" font-family="Arial" font-size="14.00">electricity_fetch_setting_id </text>
<text text-anchor="start" x="1112.79" y="-696.8" font-family="Arial" font-size="14.00" fill="#666666">[bigint(20) unsigned]</text>
<polygon fill="none" stroke="black" points="937.7,-653.8 937.7,-684.6 1274.14,-684.6 1274.14,-653.8 937.7,-653.8"/>
<text text-anchor="start" x="944.7" y="-666" font-family="Arial" font-size="14.00">usage_year </text>
<text text-anchor="start" x="1021.76" y="-666" font-family="Arial" font-size="14.00" fill="#666666">[int(10) unsigned]</text>
<polygon fill="none" stroke="black" points="937.7,-623 937.7,-653.8 1274.14,-653.8 1274.14,-623 937.7,-623"/>
<text text-anchor="start" x="944.7" y="-635.2" font-family="Arial" font-size="14.00">usage_month </text>
<text text-anchor="start" x="1033.43" y="-635.2" font-family="Arial" font-size="14.00" fill="#666666">[int(10) unsigned]</text>
<polygon fill="none" stroke="black" points="937.7,-592.2 937.7,-623 1274.14,-623 1274.14,-592.2 937.7,-592.2"/>
<text text-anchor="start" x="944.7" y="-604.4" font-family="Arial" font-size="14.00">usage_day_count </text>
<text text-anchor="start" x="1059.13" y="-604.4" font-family="Arial" font-size="14.00" fill="#666666">[int(10) unsigned]</text>
<polygon fill="none" stroke="black" points="937.7,-561.4 937.7,-592.2 1274.14,-592.2 1274.14,-561.4 937.7,-561.4"/>
<text text-anchor="start" x="944.7" y="-573.6" font-family="Arial" font-size="14.00">usage_kwh </text>
<text text-anchor="start" x="1019.42" y="-573.6" font-family="Arial" font-size="14.00" fill="#666666">[int(10) unsigned]</text>
<polygon fill="none" stroke="black" points="937.7,-530.6 937.7,-561.4 1274.14,-561.4 1274.14,-530.6 937.7,-530.6"/>
<text text-anchor="start" x="944.7" y="-542.8" font-family="Arial" font-size="14.00">usage_yen </text>
<text text-anchor="start" x="1017.09" y="-542.8" font-family="Arial" font-size="14.00" fill="#666666">[int(10) unsigned]</text>
<polygon fill="none" stroke="black" points="937.7,-499.8 937.7,-530.6 1274.14,-530.6 1274.14,-499.8 937.7,-499.8"/>
<text text-anchor="start" x="944.7" y="-512" font-family="Arial" font-size="14.00">created_at </text>
<text text-anchor="start" x="1014.75" y="-512" font-family="Arial" font-size="14.00" fill="#666666">[datetime]</text>
<polygon fill="none" stroke="black" points="937.7,-469 937.7,-499.8 1274.14,-499.8 1274.14,-469 937.7,-469"/>
<text text-anchor="start" x="944.7" y="-481.2" font-family="Arial" font-size="14.00">updated_at </text>
<text text-anchor="start" x="1018.66" y="-481.2" font-family="Arial" font-size="14.00" fill="#666666">[datetime]</text>
</g>
<!-- electricity_monthly_usages&#45;&gt;electricity_fetch_settings -->
<g id="edge3" class="edge">
<title>electricity_monthly_usages:electricity_fetch_setting_id&#45;&gt;electricity_fetch_settings:id</title>
<path fill="none" stroke="black" d="M926.6,-697.64C879.3,-673.64 906.8,-473.99 937.7,-425.8 967.04,-380.06 1019.14,-420.04 1048.63,-374.4 1072.07,-338.11 1092.83,-277.2 1049.63,-277.2"/>
<polygon fill="black" stroke="black" points="926.64,-697.64 935.35,-704.31 931.83,-698.86 936.05,-699.85 936.05,-699.85 936.05,-699.85 931.83,-698.86 937.4,-695.54 926.64,-697.64"/>
<text text-anchor="start" x="943.7" y="-710" font-family="Arial" font-size="10.00">FOREIGN KEY (electricity_fetch_setting_id) REFERENCES electricity_fetch_settings (id)</text>
</g>
<!-- electricity_notify_settings -->
<g id="node5" class="node">
<title>electricity_notify_settings</title>
<polygon fill="#efefef" stroke="none" points="1378.7,-730.8 1378.7,-766.4 1705.14,-766.4 1705.14,-730.8 1378.7,-730.8"/>
<polygon fill="none" stroke="black" points="1378.7,-730.8 1378.7,-766.4 1705.14,-766.4 1705.14,-730.8 1378.7,-730.8"/>
<text text-anchor="start" x="1385.7" y="-744.2" font-family="Arial Bold" font-size="18.00">electricity_notify_settings</text>
<text text-anchor="start" x="1573.65" y="-744.2" font-family="Arial" font-size="14.00">    </text>
<text text-anchor="start" x="1604.77" y="-744.2" font-family="Arial" font-size="14.00" fill="#666666">[BASE TABLE]</text>
<polygon fill="none" stroke="black" points="1378.7,-700 1378.7,-730.8 1705.14,-730.8 1705.14,-700 1378.7,-700"/>
<text text-anchor="start" x="1385.7" y="-712.2" font-family="Arial" font-size="14.00">id </text>
<text text-anchor="start" x="1400.48" y="-712.2" font-family="Arial" font-size="14.00" fill="#666666">[bigint(20) unsigned]</text>
<polygon fill="none" stroke="black" points="1378.7,-669.2 1378.7,-700 1705.14,-700 1705.14,-669.2 1378.7,-669.2"/>
<text text-anchor="start" x="1385.7" y="-681.4" font-family="Arial" font-size="14.00">electricity_fetch_setting_id </text>
<text text-anchor="start" x="1553.79" y="-681.4" font-family="Arial" font-size="14.00" fill="#666666">[bigint(20) unsigned]</text>
<polygon fill="none" stroke="black" points="1378.7,-638.4 1378.7,-669.2 1705.14,-669.2 1705.14,-638.4 1378.7,-638.4"/>
<text text-anchor="start" x="1385.7" y="-650.6" font-family="Arial" font-size="14.00">line_channel_id </text>
<text text-anchor="start" x="1486.89" y="-650.6" font-family="Arial" font-size="14.00" fill="#666666">[varchar(256)]</text>
<polygon fill="none" stroke="black" points="1378.7,-607.6 1378.7,-638.4 1705.14,-638.4 1705.14,-607.6 1378.7,-607.6"/>
<text text-anchor="start" x="1385.7" y="-619.8" font-family="Arial" font-size="14.00">advisor_id </text>
<text text-anchor="start" x="1453.4" y="-619.8" font-family="Arial" font-size="14.00" fill="#666666">[bigint(20) unsigned]</text>
<polygon fill="none" stroke="black" points="1378.7,-576.8 1378.7,-607.6 1705.14,-607.6 1705.14,-576.8 1378.7,-576.8"/>
<text text-anchor="start" x="1385.7" y="-589" font-family="Arial" font-size="14.00">notify_date </text>
<text text-anchor="start" x="1458.08" y="-589" font-family="Arial" font-size="14.00" fill="#666666">[tinyint(3) unsigned]</text>
<polygon fill="none" stroke="black" points="1378.7,-546 1378.7,-576.8 1705.14,-576.8 1705.14,-546 1378.7,-546"/>
<text text-anchor="start" x="1385.7" y="-558.2" font-family="Arial" font-size="14.00">notify_enable </text>
<text text-anchor="start" x="1472.88" y="-558.2" font-family="Arial" font-size="14.00" fill="#666666">[tinyint(1)]</text>
<polygon fill="none" stroke="black" points="1378.7,-515.2 1378.7,-546 1705.14,-546 1705.14,-515.2 1378.7,-515.2"/>
<text text-anchor="start" x="1385.7" y="-527.4" font-family="Arial" font-size="14.00">template </text>
<text text-anchor="start" x="1443.28" y="-527.4" font-family="Arial" font-size="14.00" fill="#666666">[text]</text>
<polygon fill="none" stroke="black" points="1378.7,-484.4 1378.7,-515.2 1705.14,-515.2 1705.14,-484.4 1378.7,-484.4"/>
<text text-anchor="start" x="1385.7" y="-496.6" font-family="Arial" font-size="14.00">created_at </text>
<text text-anchor="start" x="1455.75" y="-496.6" font-family="Arial" font-size="14.00" fill="#666666">[datetime]</text>
<polygon fill="none" stroke="black" points="1378.7,-453.6 1378.7,-484.4 1705.14,-484.4 1705.14,-453.6 1378.7,-453.6"/>
<text text-anchor="start" x="1385.7" y="-465.8" font-family="Arial" font-size="14.00">updated_at </text>
<text text-anchor="start" x="1459.66" y="-465.8" font-family="Arial" font-size="14.00" fill="#666666">[datetime]</text>
</g>
<!-- electricity_notify_settings&#45;&gt;electricity_fetch_settings -->
<g id="edge4" class="edge">
<title>electricity_notify_settings:electricity_fetch_setting_id&#45;&gt;electricity_fetch_settings:id</title>
<path fill="none" stroke="black" d="M1367.6,-682.21C1321.18,-658 1361.36,-456.63 1325.92,-410.4 1242.98,-302.22 1185.95,-277.2 1049.63,-277.2"/>
<polygon fill="black" stroke="black" points="1367.64,-682.22 1376.34,-688.9 1372.83,-683.45 1377.05,-684.45 1377.05,-684.45 1377.05,-684.45 1372.83,-683.45 1378.41,-680.14 1367.64,-682.22"/>
<text text-anchor="start" x="1384.7" y="-694.6" font-family="Arial" font-size="10.00">FOREIGN KEY (electricity_fetch_setting_id) REFERENCES electricity_fetch_settings (id)</text>
</g>
</g>
</svg>
