<?xml version="1.0" encoding="UTF-8" standalone="no"?>
<!DOCTYPE svg PUBLIC "-//W3C//DTD SVG 1.1//EN"
 "http://www.w3.org/Graphics/SVG/1.1/DTD/svg11.dtd">
<!-- Generated by graphviz version 12.1.2 (20240928.0832)
 -->
<!-- Title: electricity_notify_settings Pages: 1 -->
<svg width="1098pt" height="1191pt"
 viewBox="0.00 0.00 1098.18 1191.20" xmlns="http://www.w3.org/2000/svg" xmlns:xlink="http://www.w3.org/1999/xlink">
<g id="graph0" class="graph" transform="scale(1 1) rotate(0) translate(4 1187.2)">
<title>electricity_notify_settings</title>
<polygon fill="white" stroke="none" points="-4,4 -4,-1187.2 1094.18,-1187.2 1094.18,4 -4,4"/>
<!-- electricity_notify_settings -->
<g id="node1" class="node">
<title>electricity_notify_settings</title>
<polygon fill="#efefef" stroke="none" points="422.69,-727.8 422.69,-763.4 749.13,-763.4 749.13,-727.8 422.69,-727.8"/>
<polygon fill="none" stroke="black" points="422.69,-727.8 422.69,-763.4 749.13,-763.4 749.13,-727.8 422.69,-727.8"/>
<text text-anchor="start" x="429.69" y="-741.2" font-family="Arial Bold" font-size="18.00">electricity_notify_settings</text>
<text text-anchor="start" x="617.64" y="-741.2" font-family="Arial" font-size="14.00">    </text>
<text text-anchor="start" x="648.76" y="-741.2" font-family="Arial" font-size="14.00" fill="#666666">[BASE TABLE]</text>
<polygon fill="none" stroke="black" points="422.69,-697 422.69,-727.8 749.13,-727.8 749.13,-697 422.69,-697"/>
<text text-anchor="start" x="429.69" y="-709.2" font-family="Arial" font-size="14.00">id </text>
<text text-anchor="start" x="444.47" y="-709.2" font-family="Arial" font-size="14.00" fill="#666666">[bigint(20) unsigned]</text>
<polygon fill="none" stroke="black" points="422.69,-666.2 422.69,-697 749.13,-697 749.13,-666.2 422.69,-666.2"/>
<text text-anchor="start" x="429.69" y="-678.4" font-family="Arial" font-size="14.00">electricity_fetch_setting_id </text>
<text text-anchor="start" x="597.78" y="-678.4" font-family="Arial" font-size="14.00" fill="#666666">[bigint(20) unsigned]</text>
<polygon fill="none" stroke="black" points="422.69,-635.4 422.69,-666.2 749.13,-666.2 749.13,-635.4 422.69,-635.4"/>
<text text-anchor="start" x="429.69" y="-647.6" font-family="Arial" font-size="14.00">line_channel_id </text>
<text text-anchor="start" x="530.88" y="-647.6" font-family="Arial" font-size="14.00" fill="#666666">[varchar(256)]</text>
<polygon fill="none" stroke="black" points="422.69,-604.6 422.69,-635.4 749.13,-635.4 749.13,-604.6 422.69,-604.6"/>
<text text-anchor="start" x="429.69" y="-616.8" font-family="Arial" font-size="14.00">advisor_id </text>
<text text-anchor="start" x="497.39" y="-616.8" font-family="Arial" font-size="14.00" fill="#666666">[bigint(20) unsigned]</text>
<polygon fill="none" stroke="black" points="422.69,-573.8 422.69,-604.6 749.13,-604.6 749.13,-573.8 422.69,-573.8"/>
<text text-anchor="start" x="429.69" y="-586" font-family="Arial" font-size="14.00">notify_date </text>
<text text-anchor="start" x="502.07" y="-586" font-family="Arial" font-size="14.00" fill="#666666">[tinyint(3) unsigned]</text>
<polygon fill="none" stroke="black" points="422.69,-543 422.69,-573.8 749.13,-573.8 749.13,-543 422.69,-543"/>
<text text-anchor="start" x="429.69" y="-555.2" font-family="Arial" font-size="14.00">notify_enable </text>
<text text-anchor="start" x="516.87" y="-555.2" font-family="Arial" font-size="14.00" fill="#666666">[tinyint(1)]</text>
<polygon fill="none" stroke="black" points="422.69,-512.2 422.69,-543 749.13,-543 749.13,-512.2 422.69,-512.2"/>
<text text-anchor="start" x="429.69" y="-524.4" font-family="Arial" font-size="14.00">template </text>
<text text-anchor="start" x="487.27" y="-524.4" font-family="Arial" font-size="14.00" fill="#666666">[text]</text>
<polygon fill="none" stroke="black" points="422.69,-481.4 422.69,-512.2 749.13,-512.2 749.13,-481.4 422.69,-481.4"/>
<text text-anchor="start" x="429.69" y="-493.6" font-family="Arial" font-size="14.00">created_at </text>
<text text-anchor="start" x="499.74" y="-493.6" font-family="Arial" font-size="14.00" fill="#666666">[datetime]</text>
<polygon fill="none" stroke="black" points="422.69,-450.6 422.69,-481.4 749.13,-481.4 749.13,-450.6 422.69,-450.6"/>
<text text-anchor="start" x="429.69" y="-462.8" font-family="Arial" font-size="14.00">updated_at </text>
<text text-anchor="start" x="503.65" y="-462.8" font-family="Arial" font-size="14.00" fill="#666666">[datetime]</text>
<polygon fill="none" stroke="black" stroke-width="3" points="421.19,-449.1 421.19,-764.9 750.63,-764.9 750.63,-449.1 421.19,-449.1"/>
</g>
<!-- electricity_fetch_settings -->
<g id="node4" class="node">
<title>electricity_fetch_settings</title>
<polygon fill="#efefef" stroke="none" points="43.2,-289.6 43.2,-325.2 362.62,-325.2 362.62,-289.6 43.2,-289.6"/>
<polygon fill="none" stroke="black" points="43.2,-289.6 43.2,-325.2 362.62,-325.2 362.62,-289.6 43.2,-289.6"/>
<text text-anchor="start" x="50.2" y="-303" font-family="Arial Bold" font-size="18.00">electricity_fetch_settings</text>
<text text-anchor="start" x="231.13" y="-303" font-family="Arial" font-size="14.00">    </text>
<text text-anchor="start" x="262.25" y="-303" font-family="Arial" font-size="14.00" fill="#666666">[BASE TABLE]</text>
<polygon fill="none" stroke="black" points="43.2,-258.8 43.2,-289.6 362.62,-289.6 362.62,-258.8 43.2,-258.8"/>
<text text-anchor="start" x="50.2" y="-271" font-family="Arial" font-size="14.00">id </text>
<text text-anchor="start" x="64.99" y="-271" font-family="Arial" font-size="14.00" fill="#666666">[bigint(20) unsigned]</text>
<polygon fill="none" stroke="black" points="43.2,-228 43.2,-258.8 362.62,-258.8 362.62,-228 43.2,-228"/>
<text text-anchor="start" x="50.2" y="-240.2" font-family="Arial" font-size="14.00">setting_name </text>
<text text-anchor="start" x="138.14" y="-240.2" font-family="Arial" font-size="14.00" fill="#666666">[varchar(255)]</text>
<polygon fill="none" stroke="black" points="43.2,-197.2 43.2,-228 362.62,-228 362.62,-197.2 43.2,-197.2"/>
<text text-anchor="start" x="50.2" y="-209.4" font-family="Arial" font-size="14.00">electricity_site_id </text>
<text text-anchor="start" x="160.69" y="-209.4" font-family="Arial" font-size="14.00" fill="#666666">[bigint(20) unsigned]</text>
<polygon fill="none" stroke="black" points="43.2,-166.4 43.2,-197.2 362.62,-197.2 362.62,-166.4 43.2,-166.4"/>
<text text-anchor="start" x="50.2" y="-178.6" font-family="Arial" font-size="14.00">user_name </text>
<text text-anchor="start" x="124.13" y="-178.6" font-family="Arial" font-size="14.00" fill="#666666">[varchar(255)]</text>
<polygon fill="none" stroke="black" points="43.2,-135.6 43.2,-166.4 362.62,-166.4 362.62,-135.6 43.2,-135.6"/>
<text text-anchor="start" x="50.2" y="-147.8" font-family="Arial" font-size="14.00">encrypted_password </text>
<text text-anchor="start" x="183.28" y="-147.8" font-family="Arial" font-size="14.00" fill="#666666">[varchar(512)]</text>
<polygon fill="none" stroke="black" points="43.2,-104.8 43.2,-135.6 362.62,-135.6 362.62,-104.8 43.2,-104.8"/>
<text text-anchor="start" x="50.2" y="-117" font-family="Arial" font-size="14.00">fetch_enable </text>
<text text-anchor="start" x="134.27" y="-117" font-family="Arial" font-size="14.00" fill="#666666">[tinyint(1)]</text>
<polygon fill="none" stroke="black" points="43.2,-74 43.2,-104.8 362.62,-104.8 362.62,-74 43.2,-74"/>
<text text-anchor="start" x="50.2" y="-86.2" font-family="Arial" font-size="14.00">created_at </text>
<text text-anchor="start" x="120.25" y="-86.2" font-family="Arial" font-size="14.00" fill="#666666">[datetime]</text>
<polygon fill="none" stroke="black" points="43.2,-43.2 43.2,-74 362.62,-74 362.62,-43.2 43.2,-43.2"/>
<text text-anchor="start" x="50.2" y="-55.4" font-family="Arial" font-size="14.00">updated_at </text>
<text text-anchor="start" x="124.16" y="-55.4" font-family="Arial" font-size="14.00" fill="#666666">[datetime]</text>
</g>
<!-- electricity_notify_settings&#45;&gt;electricity_fetch_settings -->
<g id="edge3" class="edge">
<title>electricity_notify_settings:electricity_fetch_setting_id&#45;&gt;electricity_fetch_settings:id</title>
<path fill="none" stroke="black" d="M411.5,-679.6C340.12,-648.87 451.32,-274.2 363.62,-274.2"/>
<polygon fill="black" stroke="black" points="411.55,-679.61 420.49,-685.95 416.78,-680.64 421.03,-681.47 421.03,-681.47 421.03,-681.47 416.78,-680.64 422.23,-677.12 411.55,-679.61"/>
<text text-anchor="start" x="19.56" y="-691.6" font-family="Arial" font-size="10.00">FOREIGN KEY (electricity_fetch_setting_id) REFERENCES electricity_fetch_settings (id)</text>
</g>
<!-- line_channels -->
<g id="node5" class="node">
<title>line_channels</title>
<polygon fill="#efefef" stroke="none" points="467.18,-228 467.18,-263.6 704.64,-263.6 704.64,-228 467.18,-228"/>
<polygon fill="none" stroke="black" points="467.18,-228 467.18,-263.6 704.64,-263.6 704.64,-228 467.18,-228"/>
<text text-anchor="start" x="474.18" y="-241.4" font-family="Arial Bold" font-size="18.00">line_channels</text>
<text text-anchor="start" x="573.15" y="-241.4" font-family="Arial" font-size="14.00">    </text>
<text text-anchor="start" x="604.27" y="-241.4" font-family="Arial" font-size="14.00" fill="#666666">[BASE TABLE]</text>
<polygon fill="none" stroke="black" points="467.18,-197.2 467.18,-228 704.64,-228 704.64,-197.2 467.18,-197.2"/>
<text text-anchor="start" x="474.18" y="-209.4" font-family="Arial" font-size="14.00">id </text>
<text text-anchor="start" x="488.97" y="-209.4" font-family="Arial" font-size="14.00" fill="#666666">[varchar(256)]</text>
<polygon fill="none" stroke="black" points="467.18,-166.4 467.18,-197.2 704.64,-197.2 704.64,-166.4 467.18,-166.4"/>
<text text-anchor="start" x="474.18" y="-178.6" font-family="Arial" font-size="14.00">memo </text>
<text text-anchor="start" x="516.97" y="-178.6" font-family="Arial" font-size="14.00" fill="#666666">[text]</text>
<polygon fill="none" stroke="black" points="467.18,-135.6 467.18,-166.4 704.64,-166.4 704.64,-135.6 467.18,-135.6"/>
<text text-anchor="start" x="474.18" y="-147.8" font-family="Arial" font-size="14.00">created_at </text>
<text text-anchor="start" x="544.23" y="-147.8" font-family="Arial" font-size="14.00" fill="#666666">[datetime]</text>
<polygon fill="none" stroke="black" points="467.18,-104.8 467.18,-135.6 704.64,-135.6 704.64,-104.8 467.18,-104.8"/>
<text text-anchor="start" x="474.18" y="-117" font-family="Arial" font-size="14.00">updated_at </text>
<text text-anchor="start" x="548.14" y="-117" font-family="Arial" font-size="14.00" fill="#666666">[datetime]</text>
</g>
<!-- electricity_notify_settings&#45;&gt;line_channels -->
<g id="edge4" class="edge">
<title>electricity_notify_settings:line_channel_id&#45;&gt;line_channels:id</title>
<path fill="none" stroke="black" d="M758.67,-645.26C793.14,-594.53 751.33,-212.6 705.64,-212.6"/>
<polygon fill="black" stroke="black" points="758.8,-645.18 747.96,-646.84 754.33,-648.08 750.69,-650.44 750.69,-650.44 750.69,-650.44 754.33,-648.08 752.86,-654.39 758.8,-645.18"/>
<text text-anchor="start" x="757.13" y="-660.8" font-family="Arial" font-size="10.00">FOREIGN KEY (line_channel_id) REFERENCES line_channels (id)</text>
</g>
<!-- advisors -->
<g id="node6" class="node">
<title>advisors</title>
<polygon fill="#efefef" stroke="none" points="808.85,-258.8 808.85,-294.4 1046.98,-294.4 1046.98,-258.8 808.85,-258.8"/>
<polygon fill="none" stroke="black" points="808.85,-258.8 808.85,-294.4 1046.98,-294.4 1046.98,-258.8 808.85,-258.8"/>
<text text-anchor="start" x="835.67" y="-272.2" font-family="Arial Bold" font-size="18.00">advisors</text>
<text text-anchor="start" x="895.66" y="-272.2" font-family="Arial" font-size="14.00">    </text>
<text text-anchor="start" x="926.78" y="-272.2" font-family="Arial" font-size="14.00" fill="#666666">[BASE TABLE]</text>
<polygon fill="none" stroke="black" points="808.85,-228 808.85,-258.8 1046.98,-258.8 1046.98,-228 808.85,-228"/>
<text text-anchor="start" x="815.85" y="-240.2" font-family="Arial" font-size="14.00">id </text>
<text text-anchor="start" x="830.63" y="-240.2" font-family="Arial" font-size="14.00" fill="#666666">[bigint(20) unsigned]</text>
<polygon fill="none" stroke="black" points="808.85,-197.2 808.85,-228 1046.98,-228 1046.98,-197.2 808.85,-197.2"/>
<text text-anchor="start" x="815.85" y="-209.4" font-family="Arial" font-size="14.00">advisor_type_id </text>
<text text-anchor="start" x="917.8" y="-209.4" font-family="Arial" font-size="14.00" fill="#666666">[tinyint(3) unsigned]</text>
<polygon fill="none" stroke="black" points="808.85,-166.4 808.85,-197.2 1046.98,-197.2 1046.98,-166.4 808.85,-166.4"/>
<text text-anchor="start" x="815.85" y="-178.6" font-family="Arial" font-size="14.00">encrypted_apikey </text>
<text text-anchor="start" x="929.47" y="-178.6" font-family="Arial" font-size="14.00" fill="#666666">[varchar(512)]</text>
<polygon fill="none" stroke="black" points="808.85,-135.6 808.85,-166.4 1046.98,-166.4 1046.98,-135.6 808.85,-135.6"/>
<text text-anchor="start" x="815.85" y="-147.8" font-family="Arial" font-size="14.00">memo </text>
<text text-anchor="start" x="858.63" y="-147.8" font-family="Arial" font-size="14.00" fill="#666666">[text]</text>
<polygon fill="none" stroke="black" points="808.85,-104.8 808.85,-135.6 1046.98,-135.6 1046.98,-104.8 808.85,-104.8"/>
<text text-anchor="start" x="815.85" y="-117" font-family="Arial" font-size="14.00">created_at </text>
<text text-anchor="start" x="885.89" y="-117" font-family="Arial" font-size="14.00" fill="#666666">[datetime]</text>
<polygon fill="none" stroke="black" points="808.85,-74 808.85,-104.8 1046.98,-104.8 1046.98,-74 808.85,-74"/>
<text text-anchor="start" x="815.85" y="-86.2" font-family="Arial" font-size="14.00">updated_at </text>
<text text-anchor="start" x="889.8" y="-86.2" font-family="Arial" font-size="14.00" fill="#666666">[datetime]</text>
</g>
<!-- electricity_notify_settings&#45;&gt;advisors -->
<g id="edge5" class="edge">
<title>electricity_notify_settings:advisor_id&#45;&gt;advisors:id</title>
<path fill="none" stroke="black" d="M759.99,-617.97C825.57,-588.33 726.82,-243.4 807.85,-243.4"/>
<polygon fill="black" stroke="black" points="760.25,-617.92 749.55,-615.52 755.03,-618.99 750.79,-619.87 750.79,-619.87 750.79,-619.87 755.03,-618.99 751.37,-624.34 760.25,-617.92"/>
<text text-anchor="start" x="757.13" y="-630" font-family="Arial" font-size="10.00">FOREIGN KEY (advisor_id) REFERENCES advisors (id)</text>
</g>
<!-- electricity_notify_dest_line_users -->
<g id="node2" class="node">
<title>electricity_notify_dest_line_users</title>
<polygon fill="#efefef" stroke="none" points="165.7,-1089 165.7,-1124.6 548.12,-1124.6 548.12,-1089 165.7,-1089"/>
<polygon fill="none" stroke="black" points="165.7,-1089 165.7,-1124.6 548.12,-1124.6 548.12,-1089 165.7,-1089"/>
<text text-anchor="start" x="172.7" y="-1102.4" font-family="Arial Bold" font-size="18.00">electricity_notify_dest_line_users</text>
<text text-anchor="start" x="416.63" y="-1102.4" font-family="Arial" font-size="14.00">    </text>
<text text-anchor="start" x="447.75" y="-1102.4" font-family="Arial" font-size="14.00" fill="#666666">[BASE TABLE]</text>
<polygon fill="none" stroke="black" points="165.7,-1058.2 165.7,-1089 548.12,-1089 548.12,-1058.2 165.7,-1058.2"/>
<text text-anchor="start" x="172.7" y="-1070.4" font-family="Arial" font-size="14.00">electricity_notify_setting_id </text>
<text text-anchor="start" x="343.9" y="-1070.4" font-family="Arial" font-size="14.00" fill="#666666">[bigint(20) unsigned]</text>
<polygon fill="none" stroke="black" points="165.7,-1027.4 165.7,-1058.2 548.12,-1058.2 548.12,-1027.4 165.7,-1027.4"/>
<text text-anchor="start" x="172.7" y="-1039.6" font-family="Arial" font-size="14.00">line_user_id </text>
<text text-anchor="start" x="252.09" y="-1039.6" font-family="Arial" font-size="14.00" fill="#666666">[varchar(256)]</text>
<polygon fill="none" stroke="black" points="165.7,-996.6 165.7,-1027.4 548.12,-1027.4 548.12,-996.6 165.7,-996.6"/>
<text text-anchor="start" x="172.7" y="-1008.8" font-family="Arial" font-size="14.00">notify_enable </text>
<text text-anchor="start" x="259.88" y="-1008.8" font-family="Arial" font-size="14.00" fill="#666666">[tinyint(1)]</text>
<polygon fill="none" stroke="black" points="165.7,-965.8 165.7,-996.6 548.12,-996.6 548.12,-965.8 165.7,-965.8"/>
<text text-anchor="start" x="172.7" y="-978" font-family="Arial" font-size="14.00">last_notified_at </text>
<text text-anchor="start" x="270.77" y="-978" font-family="Arial" font-size="14.00" fill="#666666">[datetime]</text>
<polygon fill="none" stroke="black" points="165.7,-935 165.7,-965.8 548.12,-965.8 548.12,-935 165.7,-935"/>
<text text-anchor="start" x="172.7" y="-947.2" font-family="Arial" font-size="14.00">created_at </text>
<text text-anchor="start" x="242.75" y="-947.2" font-family="Arial" font-size="14.00" fill="#666666">[datetime]</text>
<polygon fill="none" stroke="black" points="165.7,-904.2 165.7,-935 548.12,-935 548.12,-904.2 165.7,-904.2"/>
<text text-anchor="start" x="172.7" y="-916.4" font-family="Arial" font-size="14.00">updated_at </text>
<text text-anchor="start" x="246.66" y="-916.4" font-family="Arial" font-size="14.00" fill="#666666">[datetime]</text>
</g>
<!-- electricity_notify_dest_line_users&#45;&gt;electricity_notify_settings -->
<g id="edge1" class="edge">
<title>electricity_notify_dest_line_users:electricity_notify_setting_id&#45;&gt;electricity_notify_settings:id</title>
<path fill="none" stroke="black" d="M558.96,-1070.57C592.93,-1047.32 572.47,-897.11 548.12,-861 514.44,-811.05 456.51,-859.46 422.69,-809.6 398.43,-773.85 378.49,-712.4 421.69,-712.4"/>
<polygon fill="black" stroke="black" points="559,-1070.56 548.12,-1069.2 553.9,-1072.13 549.76,-1073.4 549.76,-1073.4 549.76,-1073.4 553.9,-1072.13 550.76,-1077.8 559,-1070.56"/>
<text text-anchor="start" x="556.12" y="-1083.6" font-family="Arial" font-size="10.00">FOREIGN KEY (electricity_notify_setting_id) REFERENCES electricity_notify_settings (id)</text>
</g>
<!-- electricity_notify_statuses -->
<g id="node3" class="node">
<title>electricity_notify_statuses</title>
<polygon fill="#efefef" stroke="none" points="652.19,-1104.4 652.19,-1140 979.63,-1140 979.63,-1104.4 652.19,-1104.4"/>
<polygon fill="none" stroke="black" points="652.19,-1104.4 652.19,-1140 979.63,-1140 979.63,-1104.4 652.19,-1104.4"/>
<text text-anchor="start" x="659.19" y="-1117.8" font-family="Arial Bold" font-size="18.00">electricity_notify_statuses</text>
<text text-anchor="start" x="848.14" y="-1117.8" font-family="Arial" font-size="14.00">    </text>
<text text-anchor="start" x="879.26" y="-1117.8" font-family="Arial" font-size="14.00" fill="#666666">[BASE TABLE]</text>
<polygon fill="none" stroke="black" points="652.19,-1073.6 652.19,-1104.4 979.63,-1104.4 979.63,-1073.6 652.19,-1073.6"/>
<text text-anchor="start" x="659.19" y="-1085.8" font-family="Arial" font-size="14.00">id </text>
<text text-anchor="start" x="673.98" y="-1085.8" font-family="Arial" font-size="14.00" fill="#666666">[bigint(20) unsigned]</text>
<polygon fill="none" stroke="black" points="652.19,-1042.8 652.19,-1073.6 979.63,-1073.6 979.63,-1042.8 652.19,-1042.8"/>
<text text-anchor="start" x="659.19" y="-1055" font-family="Arial" font-size="14.00">electricity_notify_setting_id </text>
<text text-anchor="start" x="830.39" y="-1055" font-family="Arial" font-size="14.00" fill="#666666">[bigint(20) unsigned]</text>
<polygon fill="none" stroke="black" points="652.19,-1012 652.19,-1042.8 979.63,-1042.8 979.63,-1012 652.19,-1012"/>
<text text-anchor="start" x="659.19" y="-1024.2" font-family="Arial" font-size="14.00">status_type_id </text>
<text text-anchor="start" x="753.36" y="-1024.2" font-family="Arial" font-size="14.00" fill="#666666">[tinyint(3) unsigned]</text>
<polygon fill="none" stroke="black" points="652.19,-981.2 652.19,-1012 979.63,-1012 979.63,-981.2 652.19,-981.2"/>
<text text-anchor="start" x="659.19" y="-993.4" font-family="Arial" font-size="14.00">last_successful_at </text>
<text text-anchor="start" x="777.47" y="-993.4" font-family="Arial" font-size="14.00" fill="#666666">[datetime]</text>
<polygon fill="none" stroke="black" points="652.19,-950.4 652.19,-981.2 979.63,-981.2 979.63,-950.4 652.19,-950.4"/>
<text text-anchor="start" x="659.19" y="-962.6" font-family="Arial" font-size="14.00">last_failure_at </text>
<text text-anchor="start" x="750.25" y="-962.6" font-family="Arial" font-size="14.00" fill="#666666">[datetime]</text>
<polygon fill="none" stroke="black" points="652.19,-919.6 652.19,-950.4 979.63,-950.4 979.63,-919.6 652.19,-919.6"/>
<text text-anchor="start" x="659.19" y="-931.8" font-family="Arial" font-size="14.00">created_at </text>
<text text-anchor="start" x="729.24" y="-931.8" font-family="Arial" font-size="14.00" fill="#666666">[datetime]</text>
<polygon fill="none" stroke="black" points="652.19,-888.8 652.19,-919.6 979.63,-919.6 979.63,-888.8 652.19,-888.8"/>
<text text-anchor="start" x="659.19" y="-901" font-family="Arial" font-size="14.00">updated_at </text>
<text text-anchor="start" x="733.15" y="-901" font-family="Arial" font-size="14.00" fill="#666666">[datetime]</text>
</g>
<!-- electricity_notify_statuses&#45;&gt;electricity_notify_settings -->
<g id="edge2" class="edge">
<title>electricity_notify_statuses:electricity_notify_setting_id&#45;&gt;electricity_notify_settings:id</title>
<path fill="none" stroke="black" d="M641.34,-1055.16C607.29,-1031.86 627.24,-881.3 652.19,-845.6 678.52,-807.93 722.7,-847.2 749.13,-809.6 773.98,-774.26 793.33,-712.4 750.13,-712.4"/>
<polygon fill="black" stroke="black" points="641.32,-1055.16 649.55,-1062.4 646.41,-1056.73 650.55,-1058 650.55,-1058 650.55,-1058 646.41,-1056.73 652.2,-1053.8 641.32,-1055.16"/>
<text text-anchor="start" x="658.19" y="-1042.2" font-family="Arial" font-size="10.00">FOREIGN KEY (electricity_notify_setting_id) REFERENCES electricity_notify_settings (id)</text>
</g>
</g>
</svg>
