<?xml version="1.0" encoding="UTF-8" standalone="no"?>
<!DOCTYPE svg PUBLIC "-//W3C//DTD SVG 1.1//EN"
 "http://www.w3.org/Graphics/SVG/1.1/DTD/svg11.dtd">
<!-- Generated by graphviz version 2.40.1 (20161225.0304)
 -->
<!-- Title: electricity_notify_statuses Pages: 1 -->
<svg width="1099pt" height="742pt"
 viewBox="0.00 0.00 1099.00 742.00" xmlns="http://www.w3.org/2000/svg" xmlns:xlink="http://www.w3.org/1999/xlink">
<g id="graph0" class="graph" transform="scale(1 1) rotate(0) translate(4 738)">
<title>electricity_notify_statuses</title>
<polygon fill="#ffffff" stroke="transparent" points="-4,4 -4,-738 1095,-738 1095,4 -4,4"/>
<!-- electricity_notify_statuses -->
<g id="node1" class="node">
<title>electricity_notify_statuses</title>
<polygon fill="#efefef" stroke="transparent" points="413,-652.5 413,-687.5 759,-687.5 759,-652.5 413,-652.5"/>
<polygon fill="none" stroke="#000000" points="413,-652.5 413,-687.5 759,-687.5 759,-652.5 413,-652.5"/>
<text text-anchor="start" x="419.697" y="-665.3" font-family="Arial Bold" font-size="18.00" fill="#000000">electricity_notify_statuses</text>
<text text-anchor="start" x="624.735" y="-665.3" font-family="Arial" font-size="14.00" fill="#000000">    </text>
<text text-anchor="start" x="658.9398" y="-665.3" font-family="Arial" font-size="14.00" fill="#666666">[BASE TABLE]</text>
<polygon fill="none" stroke="#000000" points="413,-622.5 413,-652.5 759,-652.5 759,-622.5 413,-622.5"/>
<text text-anchor="start" x="420" y="-633.9" font-family="Arial" font-size="14.00" fill="#000000">id </text>
<text text-anchor="start" x="434.7798" y="-633.9" font-family="Arial" font-size="14.00" fill="#666666">[bigint(20) unsigned]</text>
<polygon fill="none" stroke="#000000" points="413,-592.5 413,-622.5 759,-622.5 759,-592.5 413,-592.5"/>
<text text-anchor="start" x="420" y="-603.9" font-family="Arial" font-size="14.00" fill="#000000">electricity_notify_setting_id </text>
<text text-anchor="start" x="591.143" y="-603.9" font-family="Arial" font-size="14.00" fill="#666666">[bigint(20) unsigned]</text>
<polygon fill="none" stroke="#000000" points="413,-562.5 413,-592.5 759,-592.5 759,-562.5 413,-562.5"/>
<text text-anchor="start" x="420" y="-573.9" font-family="Arial" font-size="14.00" fill="#000000">status_type_id </text>
<text text-anchor="start" x="514.1472" y="-573.9" font-family="Arial" font-size="14.00" fill="#666666">[tinyint(3) unsigned]</text>
<polygon fill="none" stroke="#000000" points="413,-532.5 413,-562.5 759,-562.5 759,-532.5 413,-532.5"/>
<text text-anchor="start" x="420" y="-543.9" font-family="Arial" font-size="14.00" fill="#000000">last_successful_at </text>
<text text-anchor="start" x="538.2538" y="-543.9" font-family="Arial" font-size="14.00" fill="#666666">[datetime]</text>
<polygon fill="none" stroke="#000000" points="413,-502.5 413,-532.5 759,-532.5 759,-502.5 413,-502.5"/>
<text text-anchor="start" x="420" y="-513.9" font-family="Arial" font-size="14.00" fill="#000000">last_failure_at </text>
<text text-anchor="start" x="511.021" y="-513.9" font-family="Arial" font-size="14.00" fill="#666666">[datetime]</text>
<polygon fill="none" stroke="#000000" points="413,-472.5 413,-502.5 759,-502.5 759,-472.5 413,-472.5"/>
<text text-anchor="start" x="420" y="-483.9" font-family="Arial" font-size="14.00" fill="#000000">created_at </text>
<text text-anchor="start" x="490.028" y="-483.9" font-family="Arial" font-size="14.00" fill="#666666">[datetime]</text>
<polygon fill="none" stroke="#000000" points="413,-442.5 413,-472.5 759,-472.5 759,-442.5 413,-442.5"/>
<text text-anchor="start" x="420" y="-453.9" font-family="Arial" font-size="14.00" fill="#000000">updated_at </text>
<text text-anchor="start" x="493.9326" y="-453.9" font-family="Arial" font-size="14.00" fill="#666666">[datetime]</text>
<polygon fill="none" stroke="#000000" stroke-width="3" points="411.5,-441.5 411.5,-689.5 760.5,-689.5 760.5,-441.5 411.5,-441.5"/>
</g>
<!-- electricity_notify_settings -->
<g id="node2" class="node">
<title>electricity_notify_settings</title>
<polygon fill="#efefef" stroke="transparent" points="204,-282.5 204,-317.5 545,-317.5 545,-282.5 204,-282.5"/>
<polygon fill="none" stroke="#000000" points="204,-282.5 204,-317.5 545,-317.5 545,-282.5 204,-282.5"/>
<text text-anchor="start" x="210.6999" y="-295.3" font-family="Arial Bold" font-size="18.00" fill="#000000">electricity_notify_settings</text>
<text text-anchor="start" x="410.7321" y="-295.3" font-family="Arial" font-size="14.00" fill="#000000">    </text>
<text text-anchor="start" x="444.9369" y="-295.3" font-family="Arial" font-size="14.00" fill="#666666">[BASE TABLE]</text>
<polygon fill="none" stroke="#000000" points="204,-252.5 204,-282.5 545,-282.5 545,-252.5 204,-252.5"/>
<text text-anchor="start" x="211" y="-263.9" font-family="Arial" font-size="14.00" fill="#000000">id    </text>
<text text-anchor="start" x="256.094" y="-263.9" font-family="Arial" font-size="14.00" fill="#666666">[bigint(20) unsigned]</text>
<polygon fill="none" stroke="#000000" points="204,-222.5 204,-252.5 545,-252.5 545,-222.5 204,-222.5"/>
<text text-anchor="start" x="211" y="-233.9" font-family="Arial" font-size="14.00" fill="#000000">electricity_fetch_setting_id    </text>
<text text-anchor="start" x="409.3506" y="-233.9" font-family="Arial" font-size="14.00" fill="#666666">[bigint(20) unsigned]</text>
<polygon fill="none" stroke="#000000" points="204,-192.5 204,-222.5 545,-222.5 545,-192.5 204,-192.5"/>
<text text-anchor="start" x="211" y="-203.9" font-family="Arial" font-size="14.00" fill="#000000">line_channel_id    </text>
<text text-anchor="start" x="342.4572" y="-203.9" font-family="Arial" font-size="14.00" fill="#666666">[varchar(256)]</text>
<polygon fill="none" stroke="#000000" points="204,-162.5 204,-192.5 545,-192.5 545,-162.5 204,-162.5"/>
<text text-anchor="start" x="211" y="-173.9" font-family="Arial" font-size="14.00" fill="#000000">notify_date    </text>
<text text-anchor="start" x="313.6788" y="-173.9" font-family="Arial" font-size="14.00" fill="#666666">[tinyint(3) unsigned]</text>
<polygon fill="none" stroke="#000000" points="204,-132.5 204,-162.5 545,-162.5 545,-132.5 204,-132.5"/>
<text text-anchor="start" x="211" y="-143.9" font-family="Arial" font-size="14.00" fill="#000000">notify_enable    </text>
<text text-anchor="start" x="328.46" y="-143.9" font-family="Arial" font-size="14.00" fill="#666666">[tinyint(1)]</text>
<polygon fill="none" stroke="#000000" points="204,-102.5 204,-132.5 545,-132.5 545,-102.5 204,-102.5"/>
<text text-anchor="start" x="211" y="-113.9" font-family="Arial" font-size="14.00" fill="#000000">template    </text>
<text text-anchor="start" x="298.8836" y="-113.9" font-family="Arial" font-size="14.00" fill="#666666">[text]</text>
<polygon fill="none" stroke="#000000" points="204,-72.5 204,-102.5 545,-102.5 545,-72.5 204,-72.5"/>
<text text-anchor="start" x="211" y="-83.9" font-family="Arial" font-size="14.00" fill="#000000">created_at    </text>
<text text-anchor="start" x="311.3422" y="-83.9" font-family="Arial" font-size="14.00" fill="#666666">[datetime]</text>
<polygon fill="none" stroke="#000000" points="204,-42.5 204,-72.5 545,-72.5 545,-42.5 204,-42.5"/>
<text text-anchor="start" x="211" y="-53.9" font-family="Arial" font-size="14.00" fill="#000000">updated_at    </text>
<text text-anchor="start" x="315.2468" y="-53.9" font-family="Arial" font-size="14.00" fill="#666666">[datetime]</text>
</g>
<!-- electricity_notify_statuses&#45;&gt;electricity_notify_settings -->
<g id="edge1" class="edge">
<title>electricity_notify_statuses:electricity_notify_setting_id&#45;&gt;electricity_notify_settings:id</title>
<path fill="none" stroke="#000000" d="M402.6265,-606.8886C322.3475,-596.9575 358.4306,-468.445 413,-397 449.9109,-348.6744 508.0891,-409.3256 545,-361 570.224,-327.9755 586.5556,-267.5 545,-267.5"/>
<polygon fill="#000000" stroke="#000000" points="403.0173,-606.9115 412.7352,-611.9922 408.0087,-607.2057 413,-607.5 413,-607.5 413,-607.5 408.0087,-607.2057 413.2648,-603.0078 403.0173,-606.9115 403.0173,-606.9115"/>
<text text-anchor="start" x="7.263" y="-617.5" font-family="Arial" font-size="10.00" fill="#000000">FOREIGN KEY (electricity_notify_setting_id) REFERENCES electricity_notify_settings (id)</text>
</g>
<!-- notify_status_types -->
<g id="node3" class="node">
<title>notify_status_types</title>
<polygon fill="#efefef" stroke="transparent" points="649,-222.5 649,-257.5 944,-257.5 944,-222.5 649,-222.5"/>
<polygon fill="none" stroke="#000000" points="649,-222.5 649,-257.5 944,-257.5 944,-222.5 649,-222.5"/>
<text text-anchor="start" x="655.6886" y="-235.3" font-family="Arial Bold" font-size="18.00" fill="#000000">notify_status_types</text>
<text text-anchor="start" x="809.7434" y="-235.3" font-family="Arial" font-size="14.00" fill="#000000">    </text>
<text text-anchor="start" x="843.9482" y="-235.3" font-family="Arial" font-size="14.00" fill="#666666">[BASE TABLE]</text>
<polygon fill="none" stroke="#000000" points="649,-192.5 649,-222.5 944,-222.5 944,-192.5 649,-192.5"/>
<text text-anchor="start" x="656" y="-203.9" font-family="Arial" font-size="14.00" fill="#000000">id    </text>
<text text-anchor="start" x="701.094" y="-203.9" font-family="Arial" font-size="14.00" fill="#666666">[tinyint(3) unsigned]</text>
<polygon fill="none" stroke="#000000" points="649,-162.5 649,-192.5 944,-192.5 944,-162.5 649,-162.5"/>
<text text-anchor="start" x="656" y="-173.9" font-family="Arial" font-size="14.00" fill="#000000">type_name    </text>
<text text-anchor="start" x="759.4516" y="-173.9" font-family="Arial" font-size="14.00" fill="#666666">[varchar(255)]</text>
<polygon fill="none" stroke="#000000" points="649,-132.5 649,-162.5 944,-162.5 944,-132.5 649,-132.5"/>
<text text-anchor="start" x="656" y="-143.9" font-family="Arial" font-size="14.00" fill="#000000">created_at    </text>
<text text-anchor="start" x="756.3422" y="-143.9" font-family="Arial" font-size="14.00" fill="#666666">[datetime]</text>
<polygon fill="none" stroke="#000000" points="649,-102.5 649,-132.5 944,-132.5 944,-102.5 649,-102.5"/>
<text text-anchor="start" x="656" y="-113.9" font-family="Arial" font-size="14.00" fill="#000000">updated_at    </text>
<text text-anchor="start" x="760.2468" y="-113.9" font-family="Arial" font-size="14.00" fill="#666666">[datetime]</text>
</g>
<!-- electricity_notify_statuses&#45;&gt;notify_status_types -->
<g id="edge2" class="edge">
<title>electricity_notify_statuses:status_type_id&#45;&gt;notify_status_types:id</title>
<path fill="none" stroke="#000000" d="M769.0536,-576.8623C835.0251,-567.9141 790.705,-466.7509 759,-397 732.1488,-337.9273 675.8512,-360.0727 649,-301 631.8042,-263.1692 607.4444,-207.5 649,-207.5"/>
<polygon fill="#000000" stroke="#000000" points="768.9799,-576.8668 758.7151,-573.009 763.99,-577.1834 759,-577.5 759,-577.5 759,-577.5 763.99,-577.1834 759.2849,-581.991 768.9799,-576.8668 768.9799,-576.8668"/>
<text text-anchor="start" x="765.533" y="-587.5" font-family="Arial" font-size="10.00" fill="#000000">FOREIGN KEY (status_type_id) REFERENCES notify_status_types (id)</text>
</g>
</g>
</svg>
