<?xml version="1.0" encoding="UTF-8" standalone="no"?>
<!DOCTYPE svg PUBLIC "-//W3C//DTD SVG 1.1//EN"
 "http://www.w3.org/Graphics/SVG/1.1/DTD/svg11.dtd">
<!-- Generated by graphviz version 12.1.2 (20240928.0832)
 -->
<!-- Title: electricity_monthly_usages Pages: 1 -->
<svg width="801pt" height="787pt"
 viewBox="0.00 0.00 800.77 786.80" xmlns="http://www.w3.org/2000/svg" xmlns:xlink="http://www.w3.org/1999/xlink">
<g id="graph0" class="graph" transform="scale(1 1) rotate(0) translate(4 782.8)">
<title>electricity_monthly_usages</title>
<polygon fill="white" stroke="none" points="-4,4 -4,-782.8 796.77,-782.8 796.77,4 -4,4"/>
<!-- electricity_monthly_usages -->
<g id="node1" class="node">
<title>electricity_monthly_usages</title>
<polygon fill="#efefef" stroke="none" points="46.2,-697 46.2,-732.6 382.64,-732.6 382.64,-697 46.2,-697"/>
<polygon fill="none" stroke="black" points="46.2,-697 46.2,-732.6 382.64,-732.6 382.64,-697 46.2,-697"/>
<text text-anchor="start" x="53.2" y="-710.4" font-family="Arial Bold" font-size="18.00">electricity_monthly_usages</text>
<text text-anchor="start" x="251.15" y="-710.4" font-family="Arial" font-size="14.00">    </text>
<text text-anchor="start" x="282.26" y="-710.4" font-family="Arial" font-size="14.00" fill="#666666">[BASE TABLE]</text>
<polygon fill="none" stroke="black" points="46.2,-666.2 46.2,-697 382.64,-697 382.64,-666.2 46.2,-666.2"/>
<text text-anchor="start" x="53.2" y="-678.4" font-family="Arial" font-size="14.00">electricity_fetch_setting_id </text>
<text text-anchor="start" x="221.29" y="-678.4" font-family="Arial" font-size="14.00" fill="#666666">[bigint(20) unsigned]</text>
<polygon fill="none" stroke="black" points="46.2,-635.4 46.2,-666.2 382.64,-666.2 382.64,-635.4 46.2,-635.4"/>
<text text-anchor="start" x="53.2" y="-647.6" font-family="Arial" font-size="14.00">usage_year </text>
<text text-anchor="start" x="130.25" y="-647.6" font-family="Arial" font-size="14.00" fill="#666666">[int(10) unsigned]</text>
<polygon fill="none" stroke="black" points="46.2,-604.6 46.2,-635.4 382.64,-635.4 382.64,-604.6 46.2,-604.6"/>
<text text-anchor="start" x="53.2" y="-616.8" font-family="Arial" font-size="14.00">usage_month </text>
<text text-anchor="start" x="141.93" y="-616.8" font-family="Arial" font-size="14.00" fill="#666666">[int(10) unsigned]</text>
<polygon fill="none" stroke="black" points="46.2,-573.8 46.2,-604.6 382.64,-604.6 382.64,-573.8 46.2,-573.8"/>
<text text-anchor="start" x="53.2" y="-586" font-family="Arial" font-size="14.00">usage_day_count </text>
<text text-anchor="start" x="167.63" y="-586" font-family="Arial" font-size="14.00" fill="#666666">[int(10) unsigned]</text>
<polygon fill="none" stroke="black" points="46.2,-543 46.2,-573.8 382.64,-573.8 382.64,-543 46.2,-543"/>
<text text-anchor="start" x="53.2" y="-555.2" font-family="Arial" font-size="14.00">usage_kwh </text>
<text text-anchor="start" x="127.92" y="-555.2" font-family="Arial" font-size="14.00" fill="#666666">[int(10) unsigned]</text>
<polygon fill="none" stroke="black" points="46.2,-512.2 46.2,-543 382.64,-543 382.64,-512.2 46.2,-512.2"/>
<text text-anchor="start" x="53.2" y="-524.4" font-family="Arial" font-size="14.00">usage_yen </text>
<text text-anchor="start" x="125.59" y="-524.4" font-family="Arial" font-size="14.00" fill="#666666">[int(10) unsigned]</text>
<polygon fill="none" stroke="black" points="46.2,-481.4 46.2,-512.2 382.64,-512.2 382.64,-481.4 46.2,-481.4"/>
<text text-anchor="start" x="53.2" y="-493.6" font-family="Arial" font-size="14.00">created_at </text>
<text text-anchor="start" x="123.25" y="-493.6" font-family="Arial" font-size="14.00" fill="#666666">[datetime]</text>
<polygon fill="none" stroke="black" points="46.2,-450.6 46.2,-481.4 382.64,-481.4 382.64,-450.6 46.2,-450.6"/>
<text text-anchor="start" x="53.2" y="-462.8" font-family="Arial" font-size="14.00">updated_at </text>
<text text-anchor="start" x="127.16" y="-462.8" font-family="Arial" font-size="14.00" fill="#666666">[datetime]</text>
<polygon fill="none" stroke="black" stroke-width="3" points="44.7,-449.1 44.7,-734.1 384.14,-734.1 384.14,-449.1 44.7,-449.1"/>
</g>
<!-- electricity_fetch_settings -->
<g id="node2" class="node">
<title>electricity_fetch_settings</title>
<polygon fill="#efefef" stroke="none" points="54.71,-289.6 54.71,-325.2 374.13,-325.2 374.13,-289.6 54.71,-289.6"/>
<polygon fill="none" stroke="black" points="54.71,-289.6 54.71,-325.2 374.13,-325.2 374.13,-289.6 54.71,-289.6"/>
<text text-anchor="start" x="61.71" y="-303" font-family="Arial Bold" font-size="18.00">electricity_fetch_settings</text>
<text text-anchor="start" x="242.64" y="-303" font-family="Arial" font-size="14.00">    </text>
<text text-anchor="start" x="273.76" y="-303" font-family="Arial" font-size="14.00" fill="#666666">[BASE TABLE]</text>
<polygon fill="none" stroke="black" points="54.71,-258.8 54.71,-289.6 374.13,-289.6 374.13,-258.8 54.71,-258.8"/>
<text text-anchor="start" x="61.71" y="-271" font-family="Arial" font-size="14.00">id </text>
<text text-anchor="start" x="76.49" y="-271" font-family="Arial" font-size="14.00" fill="#666666">[bigint(20) unsigned]</text>
<polygon fill="none" stroke="black" points="54.71,-228 54.71,-258.8 374.13,-258.8 374.13,-228 54.71,-228"/>
<text text-anchor="start" x="61.71" y="-240.2" font-family="Arial" font-size="14.00">setting_name </text>
<text text-anchor="start" x="149.65" y="-240.2" font-family="Arial" font-size="14.00" fill="#666666">[varchar(255)]</text>
<polygon fill="none" stroke="black" points="54.71,-197.2 54.71,-228 374.13,-228 374.13,-197.2 54.71,-197.2"/>
<text text-anchor="start" x="61.71" y="-209.4" font-family="Arial" font-size="14.00">electricity_site_id </text>
<text text-anchor="start" x="172.2" y="-209.4" font-family="Arial" font-size="14.00" fill="#666666">[bigint(20) unsigned]</text>
<polygon fill="none" stroke="black" points="54.71,-166.4 54.71,-197.2 374.13,-197.2 374.13,-166.4 54.71,-166.4"/>
<text text-anchor="start" x="61.71" y="-178.6" font-family="Arial" font-size="14.00">user_name </text>
<text text-anchor="start" x="135.64" y="-178.6" font-family="Arial" font-size="14.00" fill="#666666">[varchar(255)]</text>
<polygon fill="none" stroke="black" points="54.71,-135.6 54.71,-166.4 374.13,-166.4 374.13,-135.6 54.71,-135.6"/>
<text text-anchor="start" x="61.71" y="-147.8" font-family="Arial" font-size="14.00">encrypted_password </text>
<text text-anchor="start" x="194.78" y="-147.8" font-family="Arial" font-size="14.00" fill="#666666">[varchar(512)]</text>
<polygon fill="none" stroke="black" points="54.71,-104.8 54.71,-135.6 374.13,-135.6 374.13,-104.8 54.71,-104.8"/>
<text text-anchor="start" x="61.71" y="-117" font-family="Arial" font-size="14.00">fetch_enable </text>
<text text-anchor="start" x="145.78" y="-117" font-family="Arial" font-size="14.00" fill="#666666">[tinyint(1)]</text>
<polygon fill="none" stroke="black" points="54.71,-74 54.71,-104.8 374.13,-104.8 374.13,-74 54.71,-74"/>
<text text-anchor="start" x="61.71" y="-86.2" font-family="Arial" font-size="14.00">created_at </text>
<text text-anchor="start" x="131.76" y="-86.2" font-family="Arial" font-size="14.00" fill="#666666">[datetime]</text>
<polygon fill="none" stroke="black" points="54.71,-43.2 54.71,-74 374.13,-74 374.13,-43.2 54.71,-43.2"/>
<text text-anchor="start" x="61.71" y="-55.4" font-family="Arial" font-size="14.00">updated_at </text>
<text text-anchor="start" x="135.67" y="-55.4" font-family="Arial" font-size="14.00" fill="#666666">[datetime]</text>
</g>
<!-- electricity_monthly_usages&#45;&gt;electricity_fetch_settings -->
<g id="edge1" class="edge">
<title>electricity_monthly_usages:electricity_fetch_setting_id&#45;&gt;electricity_fetch_settings:id</title>
<path fill="none" stroke="black" d="M393.8,-679.78C473.4,-650.39 462.14,-274.2 375.13,-274.2"/>
<polygon fill="black" stroke="black" points="393.81,-679.78 383.17,-677.11 388.56,-680.72 384.3,-681.48 384.3,-681.48 384.3,-681.48 388.56,-680.72 384.76,-685.97 393.81,-679.78"/>
<text text-anchor="start" x="390.64" y="-691.6" font-family="Arial" font-size="10.00">FOREIGN KEY (electricity_fetch_setting_id) REFERENCES electricity_fetch_settings (id)</text>
</g>
</g>
</svg>
