<?xml version="1.0" encoding="UTF-8" standalone="no"?>
<!DOCTYPE svg PUBLIC "-//W3C//DTD SVG 1.1//EN"
 "http://www.w3.org/Graphics/SVG/1.1/DTD/svg11.dtd">
<!-- Generated by graphviz version 12.1.2 (20240928.0832)
 -->
<!-- Title: electricity_notify_statuses Pages: 1 -->
<svg width="1084pt" height="787pt"
 viewBox="0.00 0.00 1084.01 786.80" xmlns="http://www.w3.org/2000/svg" xmlns:xlink="http://www.w3.org/1999/xlink">
<g id="graph0" class="graph" transform="scale(1 1) rotate(0) translate(4 782.8)">
<title>electricity_notify_statuses</title>
<polygon fill="white" stroke="none" points="-4,4 -4,-782.8 1080.01,-782.8 1080.01,4 -4,4"/>
<!-- electricity_notify_statuses -->
<g id="node1" class="node">
<title>electricity_notify_statuses</title>
<polygon fill="#efefef" stroke="none" points="414.58,-697 414.58,-732.6 742.01,-732.6 742.01,-697 414.58,-697"/>
<polygon fill="none" stroke="black" points="414.58,-697 414.58,-732.6 742.01,-732.6 742.01,-697 414.58,-697"/>
<text text-anchor="start" x="421.58" y="-710.4" font-family="Arial Bold" font-size="18.00">electricity_notify_statuses</text>
<text text-anchor="start" x="610.52" y="-710.4" font-family="Arial" font-size="14.00">    </text>
<text text-anchor="start" x="641.64" y="-710.4" font-family="Arial" font-size="14.00" fill="#666666">[BASE TABLE]</text>
<polygon fill="none" stroke="black" points="414.58,-666.2 414.58,-697 742.01,-697 742.01,-666.2 414.58,-666.2"/>
<text text-anchor="start" x="421.58" y="-678.4" font-family="Arial" font-size="14.00">id </text>
<text text-anchor="start" x="436.36" y="-678.4" font-family="Arial" font-size="14.00" fill="#666666">[bigint(20) unsigned]</text>
<polygon fill="none" stroke="black" points="414.58,-635.4 414.58,-666.2 742.01,-666.2 742.01,-635.4 414.58,-635.4"/>
<text text-anchor="start" x="421.58" y="-647.6" font-family="Arial" font-size="14.00">electricity_notify_setting_id </text>
<text text-anchor="start" x="592.77" y="-647.6" font-family="Arial" font-size="14.00" fill="#666666">[bigint(20) unsigned]</text>
<polygon fill="none" stroke="black" points="414.58,-604.6 414.58,-635.4 742.01,-635.4 742.01,-604.6 414.58,-604.6"/>
<text text-anchor="start" x="421.58" y="-616.8" font-family="Arial" font-size="14.00">status_type_id </text>
<text text-anchor="start" x="515.75" y="-616.8" font-family="Arial" font-size="14.00" fill="#666666">[tinyint(3) unsigned]</text>
<polygon fill="none" stroke="black" points="414.58,-573.8 414.58,-604.6 742.01,-604.6 742.01,-573.8 414.58,-573.8"/>
<text text-anchor="start" x="421.58" y="-586" font-family="Arial" font-size="14.00">last_successful_at </text>
<text text-anchor="start" x="539.86" y="-586" font-family="Arial" font-size="14.00" fill="#666666">[datetime]</text>
<polygon fill="none" stroke="black" points="414.58,-543 414.58,-573.8 742.01,-573.8 742.01,-543 414.58,-543"/>
<text text-anchor="start" x="421.58" y="-555.2" font-family="Arial" font-size="14.00">last_failure_at </text>
<text text-anchor="start" x="512.63" y="-555.2" font-family="Arial" font-size="14.00" fill="#666666">[datetime]</text>
<polygon fill="none" stroke="black" points="414.58,-512.2 414.58,-543 742.01,-543 742.01,-512.2 414.58,-512.2"/>
<text text-anchor="start" x="421.58" y="-524.4" font-family="Arial" font-size="14.00">created_at </text>
<text text-anchor="start" x="491.62" y="-524.4" font-family="Arial" font-size="14.00" fill="#666666">[datetime]</text>
<polygon fill="none" stroke="black" points="414.58,-481.4 414.58,-512.2 742.01,-512.2 742.01,-481.4 414.58,-481.4"/>
<text text-anchor="start" x="421.58" y="-493.6" font-family="Arial" font-size="14.00">updated_at </text>
<text text-anchor="start" x="495.53" y="-493.6" font-family="Arial" font-size="14.00" fill="#666666">[datetime]</text>
<polygon fill="none" stroke="black" stroke-width="3" points="413.08,-479.9 413.08,-734.1 743.51,-734.1 743.51,-479.9 413.08,-479.9"/>
</g>
<!-- electricity_notify_settings -->
<g id="node2" class="node">
<title>electricity_notify_settings</title>
<polygon fill="#efefef" stroke="none" points="212.07,-320.4 212.07,-356 538.52,-356 538.52,-320.4 212.07,-320.4"/>
<polygon fill="none" stroke="black" points="212.07,-320.4 212.07,-356 538.52,-356 538.52,-320.4 212.07,-320.4"/>
<text text-anchor="start" x="219.07" y="-333.8" font-family="Arial Bold" font-size="18.00">electricity_notify_settings</text>
<text text-anchor="start" x="407.03" y="-333.8" font-family="Arial" font-size="14.00">    </text>
<text text-anchor="start" x="438.14" y="-333.8" font-family="Arial" font-size="14.00" fill="#666666">[BASE TABLE]</text>
<polygon fill="none" stroke="black" points="212.07,-289.6 212.07,-320.4 538.52,-320.4 538.52,-289.6 212.07,-289.6"/>
<text text-anchor="start" x="219.07" y="-301.8" font-family="Arial" font-size="14.00">id </text>
<text text-anchor="start" x="233.86" y="-301.8" font-family="Arial" font-size="14.00" fill="#666666">[bigint(20) unsigned]</text>
<polygon fill="none" stroke="black" points="212.07,-258.8 212.07,-289.6 538.52,-289.6 538.52,-258.8 212.07,-258.8"/>
<text text-anchor="start" x="219.07" y="-271" font-family="Arial" font-size="14.00">electricity_fetch_setting_id </text>
<text text-anchor="start" x="387.16" y="-271" font-family="Arial" font-size="14.00" fill="#666666">[bigint(20) unsigned]</text>
<polygon fill="none" stroke="black" points="212.07,-228 212.07,-258.8 538.52,-258.8 538.52,-228 212.07,-228"/>
<text text-anchor="start" x="219.07" y="-240.2" font-family="Arial" font-size="14.00">line_channel_id </text>
<text text-anchor="start" x="320.26" y="-240.2" font-family="Arial" font-size="14.00" fill="#666666">[varchar(256)]</text>
<polygon fill="none" stroke="black" points="212.07,-197.2 212.07,-228 538.52,-228 538.52,-197.2 212.07,-197.2"/>
<text text-anchor="start" x="219.07" y="-209.4" font-family="Arial" font-size="14.00">advisor_id </text>
<text text-anchor="start" x="286.77" y="-209.4" font-family="Arial" font-size="14.00" fill="#666666">[bigint(20) unsigned]</text>
<polygon fill="none" stroke="black" points="212.07,-166.4 212.07,-197.2 538.52,-197.2 538.52,-166.4 212.07,-166.4"/>
<text text-anchor="start" x="219.07" y="-178.6" font-family="Arial" font-size="14.00">notify_date </text>
<text text-anchor="start" x="291.46" y="-178.6" font-family="Arial" font-size="14.00" fill="#666666">[tinyint(3) unsigned]</text>
<polygon fill="none" stroke="black" points="212.07,-135.6 212.07,-166.4 538.52,-166.4 538.52,-135.6 212.07,-135.6"/>
<text text-anchor="start" x="219.07" y="-147.8" font-family="Arial" font-size="14.00">notify_enable </text>
<text text-anchor="start" x="306.25" y="-147.8" font-family="Arial" font-size="14.00" fill="#666666">[tinyint(1)]</text>
<polygon fill="none" stroke="black" points="212.07,-104.8 212.07,-135.6 538.52,-135.6 538.52,-104.8 212.07,-104.8"/>
<text text-anchor="start" x="219.07" y="-117" font-family="Arial" font-size="14.00">template </text>
<text text-anchor="start" x="276.66" y="-117" font-family="Arial" font-size="14.00" fill="#666666">[text]</text>
<polygon fill="none" stroke="black" points="212.07,-74 212.07,-104.8 538.52,-104.8 538.52,-74 212.07,-74"/>
<text text-anchor="start" x="219.07" y="-86.2" font-family="Arial" font-size="14.00">created_at </text>
<text text-anchor="start" x="289.12" y="-86.2" font-family="Arial" font-size="14.00" fill="#666666">[datetime]</text>
<polygon fill="none" stroke="black" points="212.07,-43.2 212.07,-74 538.52,-74 538.52,-43.2 212.07,-43.2"/>
<text text-anchor="start" x="219.07" y="-55.4" font-family="Arial" font-size="14.00">updated_at </text>
<text text-anchor="start" x="293.03" y="-55.4" font-family="Arial" font-size="14.00" fill="#666666">[datetime]</text>
</g>
<!-- electricity_notify_statuses&#45;&gt;electricity_notify_settings -->
<g id="edge1" class="edge">
<title>electricity_notify_statuses:electricity_notify_setting_id&#45;&gt;electricity_notify_settings:id</title>
<path fill="none" stroke="black" d="M403.21,-650.21C320.76,-640.29 359.06,-508.78 414.58,-435.2 449.12,-389.41 503.83,-444.89 538.52,-399.2 563.83,-365.85 581.38,-305 539.52,-305"/>
<polygon fill="black" stroke="black" points="403.26,-650.21 412.98,-655.27 408.58,-650.51 412.91,-650.76 412.91,-650.76 412.91,-650.76 408.58,-650.51 413.5,-646.29 403.26,-650.21"/>
<text text-anchor="start" x="7" y="-660.8" font-family="Arial" font-size="10.00">FOREIGN KEY (electricity_notify_setting_id) REFERENCES electricity_notify_settings (id)</text>
</g>
<!-- notify_status_types -->
<g id="node3" class="node">
<title>notify_status_types</title>
<polygon fill="#efefef" stroke="none" points="643.05,-243.4 643.05,-279 921.53,-279 921.53,-243.4 643.05,-243.4"/>
<polygon fill="none" stroke="black" points="643.05,-243.4 643.05,-279 921.53,-279 921.53,-243.4 643.05,-243.4"/>
<text text-anchor="start" x="650.05" y="-256.8" font-family="Arial Bold" font-size="18.00">notify_status_types</text>
<text text-anchor="start" x="790.04" y="-256.8" font-family="Arial" font-size="14.00">    </text>
<text text-anchor="start" x="821.16" y="-256.8" font-family="Arial" font-size="14.00" fill="#666666">[BASE TABLE]</text>
<polygon fill="none" stroke="black" points="643.05,-212.6 643.05,-243.4 921.53,-243.4 921.53,-212.6 643.05,-212.6"/>
<text text-anchor="start" x="650.05" y="-224.8" font-family="Arial" font-size="14.00">id </text>
<text text-anchor="start" x="664.84" y="-224.8" font-family="Arial" font-size="14.00" fill="#666666">[tinyint(3) unsigned]</text>
<polygon fill="none" stroke="black" points="643.05,-181.8 643.05,-212.6 921.53,-212.6 921.53,-181.8 643.05,-181.8"/>
<text text-anchor="start" x="650.05" y="-194" font-family="Arial" font-size="14.00">type_name </text>
<text text-anchor="start" x="723.21" y="-194" font-family="Arial" font-size="14.00" fill="#666666">[varchar(255)]</text>
<polygon fill="none" stroke="black" points="643.05,-151 643.05,-181.8 921.53,-181.8 921.53,-151 643.05,-151"/>
<text text-anchor="start" x="650.05" y="-163.2" font-family="Arial" font-size="14.00">created_at </text>
<text text-anchor="start" x="720.1" y="-163.2" font-family="Arial" font-size="14.00" fill="#666666">[datetime]</text>
<polygon fill="none" stroke="black" points="643.05,-120.2 643.05,-151 921.53,-151 921.53,-120.2 643.05,-120.2"/>
<text text-anchor="start" x="650.05" y="-132.4" font-family="Arial" font-size="14.00">updated_at </text>
<text text-anchor="start" x="724.01" y="-132.4" font-family="Arial" font-size="14.00" fill="#666666">[datetime]</text>
</g>
<!-- electricity_notify_statuses&#45;&gt;notify_status_types -->
<g id="edge2" class="edge">
<title>electricity_notify_statuses:status_type_id&#45;&gt;notify_status_types:id</title>
<path fill="none" stroke="black" d="M753.16,-619.85C980.7,-612.8 658.9,-363.68 643.05,-322.2 628.11,-283.09 600.18,-228 642.05,-228"/>
<polygon fill="black" stroke="black" points="753.35,-619.84 743.28,-615.5 748.01,-619.92 743.68,-619.99 743.68,-619.99 743.68,-619.99 748.01,-619.92 743.41,-624.49 753.35,-619.84"/>
<text text-anchor="start" x="750.01" y="-630" font-family="Arial" font-size="10.00">FOREIGN KEY (status_type_id) REFERENCES notify_status_types (id)</text>
</g>
</g>
</svg>
