<?xml version="1.0" encoding="UTF-8" standalone="no"?>
<!DOCTYPE svg PUBLIC "-//W3C//DTD SVG 1.1//EN"
 "http://www.w3.org/Graphics/SVG/1.1/DTD/svg11.dtd">
<!-- Generated by graphviz version 2.40.1 (20161225.0304)
 -->
<!-- Title: electricity_fetch_statuses Pages: 1 -->
<svg width="1089pt" height="742pt"
 viewBox="0.00 0.00 1089.00 742.00" xmlns="http://www.w3.org/2000/svg" xmlns:xlink="http://www.w3.org/1999/xlink">
<g id="graph0" class="graph" transform="scale(1 1) rotate(0) translate(4 738)">
<title>electricity_fetch_statuses</title>
<polygon fill="#ffffff" stroke="transparent" points="-4,4 -4,-738 1085,-738 1085,4 -4,4"/>
<!-- electricity_fetch_statuses -->
<g id="node1" class="node">
<title>electricity_fetch_statuses</title>
<polygon fill="#efefef" stroke="transparent" points="409,-652.5 409,-687.5 751,-687.5 751,-652.5 409,-652.5"/>
<polygon fill="none" stroke="#000000" points="409,-652.5 409,-687.5 751,-687.5 751,-652.5 409,-652.5"/>
<text text-anchor="start" x="415.6941" y="-665.3" font-family="Arial Bold" font-size="18.00" fill="#000000">electricity_fetch_statuses</text>
<text text-anchor="start" x="616.7379" y="-665.3" font-family="Arial" font-size="14.00" fill="#000000">    </text>
<text text-anchor="start" x="650.9427" y="-665.3" font-family="Arial" font-size="14.00" fill="#666666">[BASE TABLE]</text>
<polygon fill="none" stroke="#000000" points="409,-622.5 409,-652.5 751,-652.5 751,-622.5 409,-622.5"/>
<text text-anchor="start" x="416" y="-633.9" font-family="Arial" font-size="14.00" fill="#000000">id </text>
<text text-anchor="start" x="430.7798" y="-633.9" font-family="Arial" font-size="14.00" fill="#666666">[bigint(20) unsigned]</text>
<polygon fill="none" stroke="#000000" points="409,-592.5 409,-622.5 751,-622.5 751,-592.5 409,-592.5"/>
<text text-anchor="start" x="416" y="-603.9" font-family="Arial" font-size="14.00" fill="#000000">electricity_fetch_setting_id </text>
<text text-anchor="start" x="584.0364" y="-603.9" font-family="Arial" font-size="14.00" fill="#666666">[bigint(20) unsigned]</text>
<polygon fill="none" stroke="#000000" points="409,-562.5 409,-592.5 751,-592.5 751,-562.5 409,-562.5"/>
<text text-anchor="start" x="416" y="-573.9" font-family="Arial" font-size="14.00" fill="#000000">status_type_id </text>
<text text-anchor="start" x="510.1472" y="-573.9" font-family="Arial" font-size="14.00" fill="#666666">[tinyint(3) unsigned]</text>
<polygon fill="none" stroke="#000000" points="409,-532.5 409,-562.5 751,-562.5 751,-532.5 409,-532.5"/>
<text text-anchor="start" x="416" y="-543.9" font-family="Arial" font-size="14.00" fill="#000000">last_successful_at </text>
<text text-anchor="start" x="534.2538" y="-543.9" font-family="Arial" font-size="14.00" fill="#666666">[datetime]</text>
<polygon fill="none" stroke="#000000" points="409,-502.5 409,-532.5 751,-532.5 751,-502.5 409,-502.5"/>
<text text-anchor="start" x="416" y="-513.9" font-family="Arial" font-size="14.00" fill="#000000">last_failure_at </text>
<text text-anchor="start" x="507.021" y="-513.9" font-family="Arial" font-size="14.00" fill="#666666">[datetime]</text>
<polygon fill="none" stroke="#000000" points="409,-472.5 409,-502.5 751,-502.5 751,-472.5 409,-472.5"/>
<text text-anchor="start" x="416" y="-483.9" font-family="Arial" font-size="14.00" fill="#000000">created_at </text>
<text text-anchor="start" x="486.028" y="-483.9" font-family="Arial" font-size="14.00" fill="#666666">[datetime]</text>
<polygon fill="none" stroke="#000000" points="409,-442.5 409,-472.5 751,-472.5 751,-442.5 409,-442.5"/>
<text text-anchor="start" x="416" y="-453.9" font-family="Arial" font-size="14.00" fill="#000000">updated_at </text>
<text text-anchor="start" x="489.9326" y="-453.9" font-family="Arial" font-size="14.00" fill="#666666">[datetime]</text>
<polygon fill="none" stroke="#000000" stroke-width="3" points="407.5,-441.5 407.5,-689.5 752.5,-689.5 752.5,-441.5 407.5,-441.5"/>
</g>
<!-- electricity_fetch_settings -->
<g id="node2" class="node">
<title>electricity_fetch_settings</title>
<polygon fill="#efefef" stroke="transparent" points="202,-282.5 202,-317.5 539,-317.5 539,-282.5 202,-282.5"/>
<polygon fill="none" stroke="#000000" points="202,-282.5 202,-317.5 539,-317.5 539,-282.5 202,-282.5"/>
<text text-anchor="start" x="208.697" y="-295.3" font-family="Arial Bold" font-size="18.00" fill="#000000">electricity_fetch_settings</text>
<text text-anchor="start" x="404.735" y="-295.3" font-family="Arial" font-size="14.00" fill="#000000">    </text>
<text text-anchor="start" x="438.9398" y="-295.3" font-family="Arial" font-size="14.00" fill="#666666">[BASE TABLE]</text>
<polygon fill="none" stroke="#000000" points="202,-252.5 202,-282.5 539,-282.5 539,-252.5 202,-252.5"/>
<text text-anchor="start" x="209" y="-263.9" font-family="Arial" font-size="14.00" fill="#000000">id    </text>
<text text-anchor="start" x="254.094" y="-263.9" font-family="Arial" font-size="14.00" fill="#666666">[bigint(20) unsigned]</text>
<polygon fill="none" stroke="#000000" points="202,-222.5 202,-252.5 539,-252.5 539,-222.5 202,-222.5"/>
<text text-anchor="start" x="209" y="-233.9" font-family="Arial" font-size="14.00" fill="#000000">setting_name    </text>
<text text-anchor="start" x="327.2314" y="-233.9" font-family="Arial" font-size="14.00" fill="#666666">[varchar(255)]</text>
<polygon fill="none" stroke="#000000" points="202,-192.5 202,-222.5 539,-222.5 539,-192.5 202,-192.5"/>
<text text-anchor="start" x="209" y="-203.9" font-family="Arial" font-size="14.00" fill="#000000">electricity_site_id    </text>
<text text-anchor="start" x="349.7658" y="-203.9" font-family="Arial" font-size="14.00" fill="#666666">[bigint(20) unsigned]</text>
<polygon fill="none" stroke="#000000" points="202,-162.5 202,-192.5 539,-192.5 539,-162.5 202,-162.5"/>
<text text-anchor="start" x="209" y="-173.9" font-family="Arial" font-size="14.00" fill="#000000">user_name    </text>
<text text-anchor="start" x="313.2216" y="-173.9" font-family="Arial" font-size="14.00" fill="#666666">[varchar(255)]</text>
<polygon fill="none" stroke="#000000" points="202,-132.5 202,-162.5 539,-162.5 539,-132.5 202,-132.5"/>
<text text-anchor="start" x="209" y="-143.9" font-family="Arial" font-size="14.00" fill="#000000">encrypted_password    </text>
<text text-anchor="start" x="372.3492" y="-143.9" font-family="Arial" font-size="14.00" fill="#666666">[varchar(512)]</text>
<polygon fill="none" stroke="#000000" points="202,-102.5 202,-132.5 539,-132.5 539,-102.5 202,-102.5"/>
<text text-anchor="start" x="209" y="-113.9" font-family="Arial" font-size="14.00" fill="#000000">fetch_enable    </text>
<text text-anchor="start" x="323.3534" y="-113.9" font-family="Arial" font-size="14.00" fill="#666666">[tinyint(1)]</text>
<polygon fill="none" stroke="#000000" points="202,-72.5 202,-102.5 539,-102.5 539,-72.5 202,-72.5"/>
<text text-anchor="start" x="209" y="-83.9" font-family="Arial" font-size="14.00" fill="#000000">created_at    </text>
<text text-anchor="start" x="309.3422" y="-83.9" font-family="Arial" font-size="14.00" fill="#666666">[datetime]</text>
<polygon fill="none" stroke="#000000" points="202,-42.5 202,-72.5 539,-72.5 539,-42.5 202,-42.5"/>
<text text-anchor="start" x="209" y="-53.9" font-family="Arial" font-size="14.00" fill="#000000">updated_at    </text>
<text text-anchor="start" x="313.2468" y="-53.9" font-family="Arial" font-size="14.00" fill="#666666">[datetime]</text>
</g>
<!-- electricity_fetch_statuses&#45;&gt;electricity_fetch_settings -->
<g id="edge1" class="edge">
<title>electricity_fetch_statuses:electricity_fetch_setting_id&#45;&gt;electricity_fetch_settings:id</title>
<path fill="none" stroke="#000000" d="M398.6271,-606.889C318.3584,-596.9658 354.5701,-468.5513 409,-397 445.2976,-349.2847 502.7024,-408.7153 539,-361 564.1595,-327.9264 580.5556,-267.5 539,-267.5"/>
<polygon fill="#000000" stroke="#000000" points="399.0173,-606.9119 408.7354,-611.9922 404.0087,-607.206 409,-607.5 409,-607.5 409,-607.5 404.0087,-607.206 409.2646,-603.0078 399.0173,-606.9119 399.0173,-606.9119"/>
<text text-anchor="start" x="7.482" y="-617.5" font-family="Arial" font-size="10.00" fill="#000000">FOREIGN KEY (electricity_fetch_setting_id) REFERENCES electricity_fetch_settings (id)</text>
</g>
<!-- fetch_status_types -->
<g id="node3" class="node">
<title>fetch_status_types</title>
<polygon fill="#efefef" stroke="transparent" points="643,-222.5 643,-257.5 934,-257.5 934,-222.5 643,-222.5"/>
<polygon fill="none" stroke="#000000" points="643,-222.5 643,-257.5 934,-257.5 934,-222.5 643,-222.5"/>
<text text-anchor="start" x="649.6857" y="-235.3" font-family="Arial Bold" font-size="18.00" fill="#000000">fetch_status_types</text>
<text text-anchor="start" x="799.7463" y="-235.3" font-family="Arial" font-size="14.00" fill="#000000">    </text>
<text text-anchor="start" x="833.9511" y="-235.3" font-family="Arial" font-size="14.00" fill="#666666">[BASE TABLE]</text>
<polygon fill="none" stroke="#000000" points="643,-192.5 643,-222.5 934,-222.5 934,-192.5 643,-192.5"/>
<text text-anchor="start" x="650" y="-203.9" font-family="Arial" font-size="14.00" fill="#000000">id    </text>
<text text-anchor="start" x="695.094" y="-203.9" font-family="Arial" font-size="14.00" fill="#666666">[tinyint(3) unsigned]</text>
<polygon fill="none" stroke="#000000" points="643,-162.5 643,-192.5 934,-192.5 934,-162.5 643,-162.5"/>
<text text-anchor="start" x="650" y="-173.9" font-family="Arial" font-size="14.00" fill="#000000">type_name    </text>
<text text-anchor="start" x="753.4516" y="-173.9" font-family="Arial" font-size="14.00" fill="#666666">[varchar(255)]</text>
<polygon fill="none" stroke="#000000" points="643,-132.5 643,-162.5 934,-162.5 934,-132.5 643,-132.5"/>
<text text-anchor="start" x="650" y="-143.9" font-family="Arial" font-size="14.00" fill="#000000">created_at    </text>
<text text-anchor="start" x="750.3422" y="-143.9" font-family="Arial" font-size="14.00" fill="#666666">[datetime]</text>
<polygon fill="none" stroke="#000000" points="643,-102.5 643,-132.5 934,-132.5 934,-102.5 643,-102.5"/>
<text text-anchor="start" x="650" y="-113.9" font-family="Arial" font-size="14.00" fill="#000000">updated_at    </text>
<text text-anchor="start" x="754.2468" y="-113.9" font-family="Arial" font-size="14.00" fill="#666666">[datetime]</text>
</g>
<!-- electricity_fetch_statuses&#45;&gt;fetch_status_types -->
<g id="edge2" class="edge">
<title>electricity_fetch_statuses:status_type_id&#45;&gt;fetch_status_types:id</title>
<path fill="none" stroke="#000000" d="M761.0517,-576.8631C826.9966,-567.927 782.3872,-466.8945 751,-397 724.6911,-338.4143 669.3089,-359.5857 643,-301 625.9765,-263.0914 601.4444,-207.5 643,-207.5"/>
<polygon fill="#000000" stroke="#000000" points="760.98,-576.8676 750.7154,-573.009 755.99,-577.1838 751,-577.5 751,-577.5 751,-577.5 755.99,-577.1838 751.2846,-581.991 760.98,-576.8676 760.98,-576.8676"/>
<text text-anchor="start" x="757.6425" y="-587.5" font-family="Arial" font-size="10.00" fill="#000000">FOREIGN KEY (status_type_id) REFERENCES fetch_status_types (id)</text>
</g>
</g>
</svg>
