<?xml version="1.0" encoding="UTF-8" standalone="no"?>
<!DOCTYPE svg PUBLIC "-//W3C//DTD SVG 1.1//EN"
 "http://www.w3.org/Graphics/SVG/1.1/DTD/svg11.dtd">
<!-- Generated by graphviz version 2.40.1 (20161225.0304)
 -->
<!-- Title: electricity_fetch_statuses Pages: 1 -->
<svg width="1089pt" height="682pt"
 viewBox="0.00 0.00 1089.00 682.00" xmlns="http://www.w3.org/2000/svg" xmlns:xlink="http://www.w3.org/1999/xlink">
<g id="graph0" class="graph" transform="scale(1 1) rotate(0) translate(4 678)">
<title>electricity_fetch_statuses</title>
<polygon fill="#ffffff" stroke="transparent" points="-4,4 -4,-678 1085,-678 1085,4 -4,4"/>
<!-- electricity_fetch_statuses -->
<g id="node1" class="node">
<title>electricity_fetch_statuses</title>
<polygon fill="#efefef" stroke="transparent" points="409,-592.5 409,-627.5 751,-627.5 751,-592.5 409,-592.5"/>
<polygon fill="none" stroke="#000000" points="409,-592.5 409,-627.5 751,-627.5 751,-592.5 409,-592.5"/>
<text text-anchor="start" x="415.6941" y="-605.3" font-family="Arial Bold" font-size="18.00" fill="#000000">electricity_fetch_statuses</text>
<text text-anchor="start" x="616.7379" y="-605.3" font-family="Arial" font-size="14.00" fill="#000000">    </text>
<text text-anchor="start" x="650.9427" y="-605.3" font-family="Arial" font-size="14.00" fill="#666666">[BASE TABLE]</text>
<polygon fill="none" stroke="#000000" points="409,-562.5 409,-592.5 751,-592.5 751,-562.5 409,-562.5"/>
<text text-anchor="start" x="416" y="-573.9" font-family="Arial" font-size="14.00" fill="#000000">id </text>
<text text-anchor="start" x="430.7798" y="-573.9" font-family="Arial" font-size="14.00" fill="#666666">[bigint(20) unsigned]</text>
<polygon fill="none" stroke="#000000" points="409,-532.5 409,-562.5 751,-562.5 751,-532.5 409,-532.5"/>
<text text-anchor="start" x="416" y="-543.9" font-family="Arial" font-size="14.00" fill="#000000">electricity_fetch_setting_id </text>
<text text-anchor="start" x="584.0364" y="-543.9" font-family="Arial" font-size="14.00" fill="#666666">[bigint(20) unsigned]</text>
<polygon fill="none" stroke="#000000" points="409,-502.5 409,-532.5 751,-532.5 751,-502.5 409,-502.5"/>
<text text-anchor="start" x="416" y="-513.9" font-family="Arial" font-size="14.00" fill="#000000">status_type_id </text>
<text text-anchor="start" x="510.1472" y="-513.9" font-family="Arial" font-size="14.00" fill="#666666">[tinyint(3) unsigned]</text>
<polygon fill="none" stroke="#000000" points="409,-472.5 409,-502.5 751,-502.5 751,-472.5 409,-472.5"/>
<text text-anchor="start" x="416" y="-483.9" font-family="Arial" font-size="14.00" fill="#000000">last_successful_at </text>
<text text-anchor="start" x="534.2538" y="-483.9" font-family="Arial" font-size="14.00" fill="#666666">[datetime]</text>
<polygon fill="none" stroke="#000000" points="409,-442.5 409,-472.5 751,-472.5 751,-442.5 409,-442.5"/>
<text text-anchor="start" x="416" y="-453.9" font-family="Arial" font-size="14.00" fill="#000000">last_failure_at </text>
<text text-anchor="start" x="507.021" y="-453.9" font-family="Arial" font-size="14.00" fill="#666666">[datetime]</text>
<polygon fill="none" stroke="#000000" points="409,-412.5 409,-442.5 751,-442.5 751,-412.5 409,-412.5"/>
<text text-anchor="start" x="416" y="-423.9" font-family="Arial" font-size="14.00" fill="#000000">created_at </text>
<text text-anchor="start" x="486.028" y="-423.9" font-family="Arial" font-size="14.00" fill="#666666">[datetime]</text>
<polygon fill="none" stroke="#000000" points="409,-382.5 409,-412.5 751,-412.5 751,-382.5 409,-382.5"/>
<text text-anchor="start" x="416" y="-393.9" font-family="Arial" font-size="14.00" fill="#000000">updated_at </text>
<text text-anchor="start" x="489.9326" y="-393.9" font-family="Arial" font-size="14.00" fill="#666666">[datetime]</text>
<polygon fill="none" stroke="#000000" stroke-width="3" points="407.5,-381.5 407.5,-629.5 752.5,-629.5 752.5,-381.5 407.5,-381.5"/>
</g>
<!-- electricity_fetch_settings -->
<g id="node2" class="node">
<title>electricity_fetch_settings</title>
<polygon fill="#efefef" stroke="transparent" points="202,-222.5 202,-257.5 539,-257.5 539,-222.5 202,-222.5"/>
<polygon fill="none" stroke="#000000" points="202,-222.5 202,-257.5 539,-257.5 539,-222.5 202,-222.5"/>
<text text-anchor="start" x="208.697" y="-235.3" font-family="Arial Bold" font-size="18.00" fill="#000000">electricity_fetch_settings</text>
<text text-anchor="start" x="404.735" y="-235.3" font-family="Arial" font-size="14.00" fill="#000000">    </text>
<text text-anchor="start" x="438.9398" y="-235.3" font-family="Arial" font-size="14.00" fill="#666666">[BASE TABLE]</text>
<polygon fill="none" stroke="#000000" points="202,-192.5 202,-222.5 539,-222.5 539,-192.5 202,-192.5"/>
<text text-anchor="start" x="209" y="-203.9" font-family="Arial" font-size="14.00" fill="#000000">id    </text>
<text text-anchor="start" x="254.094" y="-203.9" font-family="Arial" font-size="14.00" fill="#666666">[bigint(20) unsigned]</text>
<polygon fill="none" stroke="#000000" points="202,-162.5 202,-192.5 539,-192.5 539,-162.5 202,-162.5"/>
<text text-anchor="start" x="209" y="-173.9" font-family="Arial" font-size="14.00" fill="#000000">electricity_site_id    </text>
<text text-anchor="start" x="349.7658" y="-173.9" font-family="Arial" font-size="14.00" fill="#666666">[bigint(20) unsigned]</text>
<polygon fill="none" stroke="#000000" points="202,-132.5 202,-162.5 539,-162.5 539,-132.5 202,-132.5"/>
<text text-anchor="start" x="209" y="-143.9" font-family="Arial" font-size="14.00" fill="#000000">user_name    </text>
<text text-anchor="start" x="313.2216" y="-143.9" font-family="Arial" font-size="14.00" fill="#666666">[varchar(255)]</text>
<polygon fill="none" stroke="#000000" points="202,-102.5 202,-132.5 539,-132.5 539,-102.5 202,-102.5"/>
<text text-anchor="start" x="209" y="-113.9" font-family="Arial" font-size="14.00" fill="#000000">encrypted_password    </text>
<text text-anchor="start" x="372.3492" y="-113.9" font-family="Arial" font-size="14.00" fill="#666666">[varchar(512)]</text>
<polygon fill="none" stroke="#000000" points="202,-72.5 202,-102.5 539,-102.5 539,-72.5 202,-72.5"/>
<text text-anchor="start" x="209" y="-83.9" font-family="Arial" font-size="14.00" fill="#000000">created_at    </text>
<text text-anchor="start" x="309.3422" y="-83.9" font-family="Arial" font-size="14.00" fill="#666666">[datetime]</text>
<polygon fill="none" stroke="#000000" points="202,-42.5 202,-72.5 539,-72.5 539,-42.5 202,-42.5"/>
<text text-anchor="start" x="209" y="-53.9" font-family="Arial" font-size="14.00" fill="#000000">updated_at    </text>
<text text-anchor="start" x="313.2468" y="-53.9" font-family="Arial" font-size="14.00" fill="#666666">[datetime]</text>
</g>
<!-- electricity_fetch_statuses&#45;&gt;electricity_fetch_settings -->
<g id="edge1" class="edge">
<title>electricity_fetch_statuses:electricity_fetch_setting_id&#45;&gt;electricity_fetch_settings:id</title>
<path fill="none" stroke="#000000" d="M398.6271,-546.889C318.3584,-536.9658 354.5701,-408.5513 409,-337 445.2976,-289.2847 502.7024,-348.7153 539,-301 564.1595,-267.9264 580.5556,-207.5 539,-207.5"/>
<polygon fill="#000000" stroke="#000000" points="399.0173,-546.9119 408.7354,-551.9922 404.0087,-547.206 409,-547.5 409,-547.5 409,-547.5 404.0087,-547.206 409.2646,-543.0078 399.0173,-546.9119 399.0173,-546.9119"/>
<text text-anchor="start" x="7.482" y="-557.5" font-family="Arial" font-size="10.00" fill="#000000">FOREIGN KEY (electricity_fetch_setting_id) REFERENCES electricity_fetch_settings (id)</text>
</g>
<!-- fetch_status_types -->
<g id="node3" class="node">
<title>fetch_status_types</title>
<polygon fill="#efefef" stroke="transparent" points="643,-192.5 643,-227.5 934,-227.5 934,-192.5 643,-192.5"/>
<polygon fill="none" stroke="#000000" points="643,-192.5 643,-227.5 934,-227.5 934,-192.5 643,-192.5"/>
<text text-anchor="start" x="649.6857" y="-205.3" font-family="Arial Bold" font-size="18.00" fill="#000000">fetch_status_types</text>
<text text-anchor="start" x="799.7463" y="-205.3" font-family="Arial" font-size="14.00" fill="#000000">    </text>
<text text-anchor="start" x="833.9511" y="-205.3" font-family="Arial" font-size="14.00" fill="#666666">[BASE TABLE]</text>
<polygon fill="none" stroke="#000000" points="643,-162.5 643,-192.5 934,-192.5 934,-162.5 643,-162.5"/>
<text text-anchor="start" x="650" y="-173.9" font-family="Arial" font-size="14.00" fill="#000000">id    </text>
<text text-anchor="start" x="695.094" y="-173.9" font-family="Arial" font-size="14.00" fill="#666666">[tinyint(3) unsigned]</text>
<polygon fill="none" stroke="#000000" points="643,-132.5 643,-162.5 934,-162.5 934,-132.5 643,-132.5"/>
<text text-anchor="start" x="650" y="-143.9" font-family="Arial" font-size="14.00" fill="#000000">type_name    </text>
<text text-anchor="start" x="753.4516" y="-143.9" font-family="Arial" font-size="14.00" fill="#666666">[varchar(255)]</text>
<polygon fill="none" stroke="#000000" points="643,-102.5 643,-132.5 934,-132.5 934,-102.5 643,-102.5"/>
<text text-anchor="start" x="650" y="-113.9" font-family="Arial" font-size="14.00" fill="#000000">created_at    </text>
<text text-anchor="start" x="750.3422" y="-113.9" font-family="Arial" font-size="14.00" fill="#666666">[datetime]</text>
<polygon fill="none" stroke="#000000" points="643,-72.5 643,-102.5 934,-102.5 934,-72.5 643,-72.5"/>
<text text-anchor="start" x="650" y="-83.9" font-family="Arial" font-size="14.00" fill="#000000">updated_at    </text>
<text text-anchor="start" x="754.2468" y="-83.9" font-family="Arial" font-size="14.00" fill="#666666">[datetime]</text>
</g>
<!-- electricity_fetch_statuses&#45;&gt;fetch_status_types -->
<g id="edge2" class="edge">
<title>electricity_fetch_statuses:status_type_id&#45;&gt;fetch_status_types:id</title>
<path fill="none" stroke="#000000" d="M761.0886,-516.8446C827.5439,-507.6514 788.4785,-403.8263 751,-337 723.4832,-287.936 670.5168,-320.064 643,-271 622.6728,-234.7554 601.4444,-177.5 643,-177.5"/>
<polygon fill="#000000" stroke="#000000" points="760.979,-516.8516 750.7082,-513.0095 755.9895,-517.1758 751,-517.5 751,-517.5 751,-517.5 755.9895,-517.1758 751.2918,-521.9905 760.979,-516.8516 760.979,-516.8516"/>
<text text-anchor="start" x="757.6425" y="-527.5" font-family="Arial" font-size="10.00" fill="#000000">FOREIGN KEY (status_type_id) REFERENCES fetch_status_types (id)</text>
</g>
</g>
</svg>
