<?xml version="1.0" encoding="UTF-8" standalone="no"?>
<!DOCTYPE svg PUBLIC "-//W3C//DTD SVG 1.1//EN"
 "http://www.w3.org/Graphics/SVG/1.1/DTD/svg11.dtd">
<!-- Generated by graphviz version 2.40.1 (20161225.0304)
 -->
<!-- Title: electricity_monthly_usages Pages: 1 -->
<svg width="820pt" height="742pt"
 viewBox="0.00 0.00 819.50 742.00" xmlns="http://www.w3.org/2000/svg" xmlns:xlink="http://www.w3.org/1999/xlink">
<g id="graph0" class="graph" transform="scale(1 1) rotate(0) translate(4 738)">
<title>electricity_monthly_usages</title>
<polygon fill="#ffffff" stroke="transparent" points="-4,4 -4,-738 815.5,-738 815.5,4 -4,4"/>
<!-- electricity_monthly_usages -->
<g id="node1" class="node">
<title>electricity_monthly_usages</title>
<polygon fill="#efefef" stroke="transparent" points="409,-652.5 409,-687.5 766,-687.5 766,-652.5 409,-652.5"/>
<polygon fill="none" stroke="#000000" points="409,-652.5 409,-687.5 766,-687.5 766,-652.5 409,-652.5"/>
<text text-anchor="start" x="415.698" y="-665.3" font-family="Arial Bold" font-size="18.00" fill="#000000">electricity_monthly_usages</text>
<text text-anchor="start" x="631.734" y="-665.3" font-family="Arial" font-size="14.00" fill="#000000">    </text>
<text text-anchor="start" x="665.9388" y="-665.3" font-family="Arial" font-size="14.00" fill="#666666">[BASE TABLE]</text>
<polygon fill="none" stroke="#000000" points="409,-622.5 409,-652.5 766,-652.5 766,-622.5 409,-622.5"/>
<text text-anchor="start" x="416" y="-633.9" font-family="Arial" font-size="14.00" fill="#000000">electricity_fetch_setting_id </text>
<text text-anchor="start" x="584.0364" y="-633.9" font-family="Arial" font-size="14.00" fill="#666666">[bigint(20) unsigned]</text>
<polygon fill="none" stroke="#000000" points="409,-592.5 409,-622.5 766,-622.5 766,-592.5 409,-592.5"/>
<text text-anchor="start" x="416" y="-603.9" font-family="Arial" font-size="14.00" fill="#000000">usage_year </text>
<text text-anchor="start" x="493.0294" y="-603.9" font-family="Arial" font-size="14.00" fill="#666666">[int(10) unsigned]</text>
<polygon fill="none" stroke="#000000" points="409,-562.5 409,-592.5 766,-592.5 766,-562.5 409,-562.5"/>
<text text-anchor="start" x="416" y="-573.9" font-family="Arial" font-size="14.00" fill="#000000">usage_month </text>
<text text-anchor="start" x="504.7026" y="-573.9" font-family="Arial" font-size="14.00" fill="#666666">[int(10) unsigned]</text>
<polygon fill="none" stroke="#000000" points="409,-532.5 409,-562.5 766,-562.5 766,-532.5 409,-532.5"/>
<text text-anchor="start" x="416" y="-543.9" font-family="Arial" font-size="14.00" fill="#000000">usage_day_count </text>
<text text-anchor="start" x="530.3898" y="-543.9" font-family="Arial" font-size="14.00" fill="#666666">[int(10) unsigned]</text>
<polygon fill="none" stroke="#000000" points="409,-502.5 409,-532.5 766,-532.5 766,-502.5 409,-502.5"/>
<text text-anchor="start" x="416" y="-513.9" font-family="Arial" font-size="14.00" fill="#000000">usage_kwh </text>
<text text-anchor="start" x="490.6928" y="-513.9" font-family="Arial" font-size="14.00" fill="#666666">[int(10) unsigned]</text>
<polygon fill="none" stroke="#000000" points="409,-472.5 409,-502.5 766,-502.5 766,-472.5 409,-472.5"/>
<text text-anchor="start" x="416" y="-483.9" font-family="Arial" font-size="14.00" fill="#000000">usage_yen </text>
<text text-anchor="start" x="488.3688" y="-483.9" font-family="Arial" font-size="14.00" fill="#666666">[int(10) unsigned]</text>
<polygon fill="none" stroke="#000000" points="409,-442.5 409,-472.5 766,-472.5 766,-442.5 409,-442.5"/>
<text text-anchor="start" x="416" y="-453.9" font-family="Arial" font-size="14.00" fill="#000000">created_at </text>
<text text-anchor="start" x="486.028" y="-453.9" font-family="Arial" font-size="14.00" fill="#666666">[datetime]</text>
<polygon fill="none" stroke="#000000" points="409,-412.5 409,-442.5 766,-442.5 766,-412.5 409,-412.5"/>
<text text-anchor="start" x="416" y="-423.9" font-family="Arial" font-size="14.00" fill="#000000">updated_at </text>
<text text-anchor="start" x="489.9326" y="-423.9" font-family="Arial" font-size="14.00" fill="#666666">[datetime]</text>
<polygon fill="none" stroke="#000000" stroke-width="3" points="407,-411.5 407,-689.5 767,-689.5 767,-411.5 407,-411.5"/>
</g>
<!-- electricity_fetch_settings -->
<g id="node2" class="node">
<title>electricity_fetch_settings</title>
<polygon fill="#efefef" stroke="transparent" points="419,-252.5 419,-287.5 756,-287.5 756,-252.5 419,-252.5"/>
<polygon fill="none" stroke="#000000" points="419,-252.5 419,-287.5 756,-287.5 756,-252.5 419,-252.5"/>
<text text-anchor="start" x="425.697" y="-265.3" font-family="Arial Bold" font-size="18.00" fill="#000000">electricity_fetch_settings</text>
<text text-anchor="start" x="621.735" y="-265.3" font-family="Arial" font-size="14.00" fill="#000000">    </text>
<text text-anchor="start" x="655.9398" y="-265.3" font-family="Arial" font-size="14.00" fill="#666666">[BASE TABLE]</text>
<polygon fill="none" stroke="#000000" points="419,-222.5 419,-252.5 756,-252.5 756,-222.5 419,-222.5"/>
<text text-anchor="start" x="426" y="-233.9" font-family="Arial" font-size="14.00" fill="#000000">id    </text>
<text text-anchor="start" x="471.094" y="-233.9" font-family="Arial" font-size="14.00" fill="#666666">[bigint(20) unsigned]</text>
<polygon fill="none" stroke="#000000" points="419,-192.5 419,-222.5 756,-222.5 756,-192.5 419,-192.5"/>
<text text-anchor="start" x="426" y="-203.9" font-family="Arial" font-size="14.00" fill="#000000">electricity_site_id    </text>
<text text-anchor="start" x="566.7658" y="-203.9" font-family="Arial" font-size="14.00" fill="#666666">[bigint(20) unsigned]</text>
<polygon fill="none" stroke="#000000" points="419,-162.5 419,-192.5 756,-192.5 756,-162.5 419,-162.5"/>
<text text-anchor="start" x="426" y="-173.9" font-family="Arial" font-size="14.00" fill="#000000">user_name    </text>
<text text-anchor="start" x="530.2216" y="-173.9" font-family="Arial" font-size="14.00" fill="#666666">[varchar(255)]</text>
<polygon fill="none" stroke="#000000" points="419,-132.5 419,-162.5 756,-162.5 756,-132.5 419,-132.5"/>
<text text-anchor="start" x="426" y="-143.9" font-family="Arial" font-size="14.00" fill="#000000">encrypted_password    </text>
<text text-anchor="start" x="589.3492" y="-143.9" font-family="Arial" font-size="14.00" fill="#666666">[varchar(512)]</text>
<polygon fill="none" stroke="#000000" points="419,-102.5 419,-132.5 756,-132.5 756,-102.5 419,-102.5"/>
<text text-anchor="start" x="426" y="-113.9" font-family="Arial" font-size="14.00" fill="#000000">fetch_enable    </text>
<text text-anchor="start" x="540.3534" y="-113.9" font-family="Arial" font-size="14.00" fill="#666666">[tinyint(1)]</text>
<polygon fill="none" stroke="#000000" points="419,-72.5 419,-102.5 756,-102.5 756,-72.5 419,-72.5"/>
<text text-anchor="start" x="426" y="-83.9" font-family="Arial" font-size="14.00" fill="#000000">created_at    </text>
<text text-anchor="start" x="526.3422" y="-83.9" font-family="Arial" font-size="14.00" fill="#666666">[datetime]</text>
<polygon fill="none" stroke="#000000" points="419,-42.5 419,-72.5 756,-72.5 756,-42.5 419,-42.5"/>
<text text-anchor="start" x="426" y="-53.9" font-family="Arial" font-size="14.00" fill="#000000">updated_at    </text>
<text text-anchor="start" x="530.2468" y="-53.9" font-family="Arial" font-size="14.00" fill="#666666">[datetime]</text>
</g>
<!-- electricity_monthly_usages&#45;&gt;electricity_fetch_settings -->
<g id="edge1" class="edge">
<title>electricity_monthly_usages:electricity_fetch_setting_id&#45;&gt;electricity_fetch_settings:id</title>
<path fill="none" stroke="#000000" d="M399.0317,-635.7166C320.985,-606.8604 333.5566,-237.5 419,-237.5"/>
<polygon fill="#000000" stroke="#000000" points="399.1563,-635.7388 408.2075,-641.9297 404.0781,-636.6194 409,-637.5 409,-637.5 409,-637.5 404.0781,-636.6194 409.7925,-633.0703 399.1563,-635.7388 399.1563,-635.7388"/>
<text text-anchor="start" x="7.482" y="-647.5" font-family="Arial" font-size="10.00" fill="#000000">FOREIGN KEY (electricity_fetch_setting_id) REFERENCES electricity_fetch_settings (id)</text>
</g>
</g>
</svg>
