<?xml version="1.0" encoding="UTF-8" standalone="no"?>
<!DOCTYPE svg PUBLIC "-//W3C//DTD SVG 1.1//EN"
 "http://www.w3.org/Graphics/SVG/1.1/DTD/svg11.dtd">
<!-- Generated by graphviz version 2.40.1 (20161225.0304)
 -->
<!-- Title: electricity_fetch_settings Pages: 1 -->
<svg width="930pt" height="712pt"
 viewBox="0.00 0.00 930.00 712.00" xmlns="http://www.w3.org/2000/svg" xmlns:xlink="http://www.w3.org/1999/xlink">
<g id="graph0" class="graph" transform="scale(1 1) rotate(0) translate(4 708)">
<title>electricity_fetch_settings</title>
<polygon fill="#ffffff" stroke="transparent" points="-4,4 -4,-708 926,-708 926,4 -4,4"/>
<!-- electricity_fetch_settings -->
<g id="node1" class="node">
<title>electricity_fetch_settings</title>
<polygon fill="#efefef" stroke="transparent" points="297,-225.5 297,-260.5 634,-260.5 634,-225.5 297,-225.5"/>
<polygon fill="none" stroke="#000000" points="297,-225.5 297,-260.5 634,-260.5 634,-225.5 297,-225.5"/>
<text text-anchor="start" x="303.697" y="-238.3" font-family="Arial Bold" font-size="18.00" fill="#000000">electricity_fetch_settings</text>
<text text-anchor="start" x="499.735" y="-238.3" font-family="Arial" font-size="14.00" fill="#000000">    </text>
<text text-anchor="start" x="533.9398" y="-238.3" font-family="Arial" font-size="14.00" fill="#666666">[BASE TABLE]</text>
<polygon fill="none" stroke="#000000" points="297,-195.5 297,-225.5 634,-225.5 634,-195.5 297,-195.5"/>
<text text-anchor="start" x="304" y="-206.9" font-family="Arial" font-size="14.00" fill="#000000">id </text>
<text text-anchor="start" x="318.7798" y="-206.9" font-family="Arial" font-size="14.00" fill="#666666">[bigint(20) unsigned]</text>
<polygon fill="none" stroke="#000000" points="297,-165.5 297,-195.5 634,-195.5 634,-165.5 297,-165.5"/>
<text text-anchor="start" x="304" y="-176.9" font-family="Arial" font-size="14.00" fill="#000000">electricity_site_id </text>
<text text-anchor="start" x="414.4516" y="-176.9" font-family="Arial" font-size="14.00" fill="#666666">[bigint(20) unsigned]</text>
<polygon fill="none" stroke="#000000" points="297,-135.5 297,-165.5 634,-165.5 634,-135.5 297,-135.5"/>
<text text-anchor="start" x="304" y="-146.9" font-family="Arial" font-size="14.00" fill="#000000">user_name </text>
<text text-anchor="start" x="377.9074" y="-146.9" font-family="Arial" font-size="14.00" fill="#666666">[varchar(255)]</text>
<polygon fill="none" stroke="#000000" points="297,-105.5 297,-135.5 634,-135.5 634,-105.5 297,-105.5"/>
<text text-anchor="start" x="304" y="-116.9" font-family="Arial" font-size="14.00" fill="#000000">encrypted_password </text>
<text text-anchor="start" x="437.035" y="-116.9" font-family="Arial" font-size="14.00" fill="#666666">[varchar(512)]</text>
<polygon fill="none" stroke="#000000" points="297,-75.5 297,-105.5 634,-105.5 634,-75.5 297,-75.5"/>
<text text-anchor="start" x="304" y="-86.9" font-family="Arial" font-size="14.00" fill="#000000">created_at </text>
<text text-anchor="start" x="374.028" y="-86.9" font-family="Arial" font-size="14.00" fill="#666666">[datetime]</text>
<polygon fill="none" stroke="#000000" points="297,-45.5 297,-75.5 634,-75.5 634,-45.5 297,-45.5"/>
<text text-anchor="start" x="304" y="-56.9" font-family="Arial" font-size="14.00" fill="#000000">updated_at </text>
<text text-anchor="start" x="377.9326" y="-56.9" font-family="Arial" font-size="14.00" fill="#666666">[datetime]</text>
<polygon fill="none" stroke="#000000" stroke-width="3" points="295,-44.5 295,-262.5 635,-262.5 635,-44.5 295,-44.5"/>
</g>
<!-- electricity_daily_usages -->
<g id="node2" class="node">
<title>electricity_daily_usages</title>
<polygon fill="#efefef" stroke="transparent" points="70,-610.5 70,-645.5 409,-645.5 409,-610.5 70,-610.5"/>
<polygon fill="none" stroke="#000000" points="70,-610.5 70,-645.5 409,-645.5 409,-610.5 70,-610.5"/>
<text text-anchor="start" x="80.7012" y="-623.3" font-family="Arial Bold" font-size="18.00" fill="#000000">electricity_daily_usages</text>
<text text-anchor="start" x="270.7308" y="-623.3" font-family="Arial" font-size="14.00" fill="#000000">    </text>
<text text-anchor="start" x="304.9356" y="-623.3" font-family="Arial" font-size="14.00" fill="#666666">[BASE TABLE]</text>
<polygon fill="none" stroke="#000000" points="70,-580.5 70,-610.5 409,-610.5 409,-580.5 70,-580.5"/>
<text text-anchor="start" x="76.9187" y="-591.9" font-family="Arial" font-size="14.00" fill="#000000">electricity_fetch_setting_id    </text>
<text text-anchor="start" x="275.2693" y="-591.9" font-family="Arial" font-size="14.00" fill="#666666">[bigint(20) unsigned]</text>
<polygon fill="none" stroke="#000000" points="70,-550.5 70,-580.5 409,-580.5 409,-550.5 70,-550.5"/>
<text text-anchor="start" x="77" y="-561.9" font-family="Arial" font-size="14.00" fill="#000000">usage_year    </text>
<text text-anchor="start" x="184.3436" y="-561.9" font-family="Arial" font-size="14.00" fill="#666666">[int(10) unsigned]</text>
<polygon fill="none" stroke="#000000" points="70,-520.5 70,-550.5 409,-550.5 409,-520.5 70,-520.5"/>
<text text-anchor="start" x="77" y="-531.9" font-family="Arial" font-size="14.00" fill="#000000">usage_month    </text>
<text text-anchor="start" x="196.0168" y="-531.9" font-family="Arial" font-size="14.00" fill="#666666">[int(10) unsigned]</text>
<polygon fill="none" stroke="#000000" points="70,-490.5 70,-520.5 409,-520.5 409,-490.5 70,-490.5"/>
<text text-anchor="start" x="77" y="-501.9" font-family="Arial" font-size="14.00" fill="#000000">usage_date    </text>
<text text-anchor="start" x="184.3562" y="-501.9" font-family="Arial" font-size="14.00" fill="#666666">[int(10) unsigned]</text>
<polygon fill="none" stroke="#000000" points="70,-460.5 70,-490.5 409,-490.5 409,-460.5 70,-460.5"/>
<text text-anchor="start" x="77" y="-471.9" font-family="Arial" font-size="14.00" fill="#000000">usage_amount    </text>
<text text-anchor="start" x="203.7994" y="-471.9" font-family="Arial" font-size="14.00" fill="#666666">[decimal(15,5) unsigned]</text>
<polygon fill="none" stroke="#000000" points="70,-430.5 70,-460.5 409,-460.5 409,-430.5 70,-430.5"/>
<text text-anchor="start" x="77" y="-441.9" font-family="Arial" font-size="14.00" fill="#000000">created_at    </text>
<text text-anchor="start" x="177.3422" y="-441.9" font-family="Arial" font-size="14.00" fill="#666666">[datetime]</text>
<polygon fill="none" stroke="#000000" points="70,-400.5 70,-430.5 409,-430.5 409,-400.5 70,-400.5"/>
<text text-anchor="start" x="77" y="-411.9" font-family="Arial" font-size="14.00" fill="#000000">updated_at    </text>
<text text-anchor="start" x="181.2468" y="-411.9" font-family="Arial" font-size="14.00" fill="#666666">[datetime]</text>
</g>
<!-- electricity_daily_usages&#45;&gt;electricity_fetch_settings -->
<g id="edge1" class="edge">
<title>electricity_daily_usages:electricity_fetch_setting_id&#45;&gt;electricity_fetch_settings:id</title>
<path fill="none" stroke="#000000" d="M419.0161,-592.7546C458.3505,-569.0783 435.5502,-399.2631 409,-358 379.4041,-312.0034 326.5959,-352.9966 297,-307 273.7927,-270.9323 254.1111,-210.5 297,-210.5"/>
<polygon fill="#000000" stroke="#000000" points="418.6443,-592.8565 407.8104,-591.1601 413.8221,-594.1782 409,-595.5 409,-595.5 409,-595.5 413.8221,-594.1782 410.1896,-599.8399 418.6443,-592.8565 418.6443,-592.8565"/>
<text text-anchor="start" x="7.482" y="-605.5" font-family="Arial" font-size="10.00" fill="#000000">FOREIGN KEY (electricity_fetch_setting_id) REFERENCES electricity_fetch_settings (id)</text>
</g>
<!-- electricity_monthly_usages -->
<g id="node3" class="node">
<title>electricity_monthly_usages</title>
<polygon fill="#efefef" stroke="transparent" points="513,-625.5 513,-660.5 870,-660.5 870,-625.5 513,-625.5"/>
<polygon fill="none" stroke="#000000" points="513,-625.5 513,-660.5 870,-660.5 870,-625.5 513,-625.5"/>
<text text-anchor="start" x="519.698" y="-638.3" font-family="Arial Bold" font-size="18.00" fill="#000000">electricity_monthly_usages</text>
<text text-anchor="start" x="735.734" y="-638.3" font-family="Arial" font-size="14.00" fill="#000000">    </text>
<text text-anchor="start" x="769.9388" y="-638.3" font-family="Arial" font-size="14.00" fill="#666666">[BASE TABLE]</text>
<polygon fill="none" stroke="#000000" points="513,-595.5 513,-625.5 870,-625.5 870,-595.5 513,-595.5"/>
<text text-anchor="start" x="520" y="-606.9" font-family="Arial" font-size="14.00" fill="#000000">electricity_fetch_setting_id    </text>
<text text-anchor="start" x="718.3506" y="-606.9" font-family="Arial" font-size="14.00" fill="#666666">[bigint(20) unsigned]</text>
<polygon fill="none" stroke="#000000" points="513,-565.5 513,-595.5 870,-595.5 870,-565.5 513,-565.5"/>
<text text-anchor="start" x="520" y="-576.9" font-family="Arial" font-size="14.00" fill="#000000">usage_year    </text>
<text text-anchor="start" x="627.3436" y="-576.9" font-family="Arial" font-size="14.00" fill="#666666">[int(10) unsigned]</text>
<polygon fill="none" stroke="#000000" points="513,-535.5 513,-565.5 870,-565.5 870,-535.5 513,-535.5"/>
<text text-anchor="start" x="520" y="-546.9" font-family="Arial" font-size="14.00" fill="#000000">usage_month    </text>
<text text-anchor="start" x="639.0168" y="-546.9" font-family="Arial" font-size="14.00" fill="#666666">[int(10) unsigned]</text>
<polygon fill="none" stroke="#000000" points="513,-505.5 513,-535.5 870,-535.5 870,-505.5 513,-505.5"/>
<text text-anchor="start" x="520" y="-516.9" font-family="Arial" font-size="14.00" fill="#000000">usage_day_count    </text>
<text text-anchor="start" x="664.704" y="-516.9" font-family="Arial" font-size="14.00" fill="#666666">[int(10) unsigned]</text>
<polygon fill="none" stroke="#000000" points="513,-475.5 513,-505.5 870,-505.5 870,-475.5 513,-475.5"/>
<text text-anchor="start" x="520" y="-486.9" font-family="Arial" font-size="14.00" fill="#000000">usage_kwh    </text>
<text text-anchor="start" x="625.007" y="-486.9" font-family="Arial" font-size="14.00" fill="#666666">[int(10) unsigned]</text>
<polygon fill="none" stroke="#000000" points="513,-445.5 513,-475.5 870,-475.5 870,-445.5 513,-445.5"/>
<text text-anchor="start" x="520" y="-456.9" font-family="Arial" font-size="14.00" fill="#000000">usage_yen    </text>
<text text-anchor="start" x="622.683" y="-456.9" font-family="Arial" font-size="14.00" fill="#666666">[int(10) unsigned]</text>
<polygon fill="none" stroke="#000000" points="513,-415.5 513,-445.5 870,-445.5 870,-415.5 513,-415.5"/>
<text text-anchor="start" x="520" y="-426.9" font-family="Arial" font-size="14.00" fill="#000000">created_at    </text>
<text text-anchor="start" x="620.3422" y="-426.9" font-family="Arial" font-size="14.00" fill="#666666">[datetime]</text>
<polygon fill="none" stroke="#000000" points="513,-385.5 513,-415.5 870,-415.5 870,-385.5 513,-385.5"/>
<text text-anchor="start" x="520" y="-396.9" font-family="Arial" font-size="14.00" fill="#000000">updated_at    </text>
<text text-anchor="start" x="624.2468" y="-396.9" font-family="Arial" font-size="14.00" fill="#666666">[datetime]</text>
</g>
<!-- electricity_monthly_usages&#45;&gt;electricity_fetch_settings -->
<g id="edge2" class="edge">
<title>electricity_monthly_usages:electricity_fetch_setting_id&#45;&gt;electricity_fetch_settings:id</title>
<path fill="none" stroke="#000000" d="M503.1032,-608.1692C456.4931,-584.509 479.6133,-387.7663 513,-343 546.5435,-298.0235 600.4565,-351.9765 634,-307 659.6408,-272.6197 676.8889,-210.5 634,-210.5"/>
<polygon fill="#000000" stroke="#000000" points="503.2663,-608.2075 511.9684,-614.8802 508.1332,-609.3538 513,-610.5 513,-610.5 513,-610.5 508.1332,-609.3538 514.0316,-606.1198 503.2663,-608.2075 503.2663,-608.2075"/>
<text text-anchor="start" x="520.482" y="-620.5" font-family="Arial" font-size="10.00" fill="#000000">FOREIGN KEY (electricity_fetch_setting_id) REFERENCES electricity_fetch_settings (id)</text>
</g>
</g>
</svg>
