<?xml version="1.0" encoding="UTF-8" standalone="no"?>
<!DOCTYPE svg PUBLIC "-//W3C//DTD SVG 1.1//EN"
 "http://www.w3.org/Graphics/SVG/1.1/DTD/svg11.dtd">
<!-- Generated by graphviz version 12.1.2 (20240928.0832)
 -->
<!-- Title: fetch_status_types Pages: 1 -->
<svg width="1185pt" height="633pt"
 viewBox="0.00 0.00 1184.82 632.80" xmlns="http://www.w3.org/2000/svg" xmlns:xlink="http://www.w3.org/1999/xlink">
<g id="graph0" class="graph" transform="scale(1 1) rotate(0) translate(4 628.8)">
<title>fetch_status_types</title>
<polygon fill="white" stroke="none" points="-4,4 -4,-628.8 1180.82,-628.8 1180.82,4 -4,4"/>
<!-- fetch_status_types -->
<g id="node1" class="node">
<title>fetch_status_types</title>
<polygon fill="#efefef" stroke="none" points="468.68,-169.4 468.68,-205 740.14,-205 740.14,-169.4 468.68,-169.4"/>
<polygon fill="none" stroke="black" points="468.68,-169.4 468.68,-205 740.14,-205 740.14,-169.4 468.68,-169.4"/>
<text text-anchor="start" x="475.68" y="-182.8" font-family="Arial Bold" font-size="18.00">fetch_status_types</text>
<text text-anchor="start" x="608.65" y="-182.8" font-family="Arial" font-size="14.00">    </text>
<text text-anchor="start" x="639.76" y="-182.8" font-family="Arial" font-size="14.00" fill="#666666">[BASE TABLE]</text>
<polygon fill="none" stroke="black" points="468.68,-138.6 468.68,-169.4 740.14,-169.4 740.14,-138.6 468.68,-138.6"/>
<text text-anchor="start" x="475.68" y="-150.8" font-family="Arial" font-size="14.00">id </text>
<text text-anchor="start" x="490.46" y="-150.8" font-family="Arial" font-size="14.00" fill="#666666">[tinyint(3) unsigned]</text>
<polygon fill="none" stroke="black" points="468.68,-107.8 468.68,-138.6 740.14,-138.6 740.14,-107.8 468.68,-107.8"/>
<text text-anchor="start" x="475.68" y="-120" font-family="Arial" font-size="14.00">type_name </text>
<text text-anchor="start" x="548.84" y="-120" font-family="Arial" font-size="14.00" fill="#666666">[varchar(255)]</text>
<polygon fill="none" stroke="black" points="468.68,-77 468.68,-107.8 740.14,-107.8 740.14,-77 468.68,-77"/>
<text text-anchor="start" x="475.68" y="-89.2" font-family="Arial" font-size="14.00">created_at </text>
<text text-anchor="start" x="545.73" y="-89.2" font-family="Arial" font-size="14.00" fill="#666666">[datetime]</text>
<polygon fill="none" stroke="black" points="468.68,-46.2 468.68,-77 740.14,-77 740.14,-46.2 468.68,-46.2"/>
<text text-anchor="start" x="475.68" y="-58.4" font-family="Arial" font-size="14.00">updated_at </text>
<text text-anchor="start" x="549.64" y="-58.4" font-family="Arial" font-size="14.00" fill="#666666">[datetime]</text>
<polygon fill="none" stroke="black" stroke-width="3" points="467.18,-44.7 467.18,-206.5 741.64,-206.5 741.64,-44.7 467.18,-44.7"/>
</g>
<!-- electricity_fetch_statuses -->
<g id="node2" class="node">
<title>electricity_fetch_statuses</title>
<polygon fill="#efefef" stroke="none" points="43.2,-546 43.2,-581.6 363.61,-581.6 363.61,-546 43.2,-546"/>
<polygon fill="none" stroke="black" points="43.2,-546 43.2,-581.6 363.61,-581.6 363.61,-546 43.2,-546"/>
<text text-anchor="start" x="50.2" y="-559.4" font-family="Arial Bold" font-size="18.00">electricity_fetch_statuses</text>
<text text-anchor="start" x="232.12" y="-559.4" font-family="Arial" font-size="14.00">    </text>
<text text-anchor="start" x="263.24" y="-559.4" font-family="Arial" font-size="14.00" fill="#666666">[BASE TABLE]</text>
<polygon fill="none" stroke="black" points="43.2,-515.2 43.2,-546 363.61,-546 363.61,-515.2 43.2,-515.2"/>
<text text-anchor="start" x="50.2" y="-527.4" font-family="Arial" font-size="14.00">id </text>
<text text-anchor="start" x="64.99" y="-527.4" font-family="Arial" font-size="14.00" fill="#666666">[bigint(20) unsigned]</text>
<polygon fill="none" stroke="black" points="43.2,-484.4 43.2,-515.2 363.61,-515.2 363.61,-484.4 43.2,-484.4"/>
<text text-anchor="start" x="50.2" y="-496.6" font-family="Arial" font-size="14.00">electricity_fetch_setting_id </text>
<text text-anchor="start" x="218.29" y="-496.6" font-family="Arial" font-size="14.00" fill="#666666">[bigint(20) unsigned]</text>
<polygon fill="none" stroke="black" points="43.2,-453.6 43.2,-484.4 363.61,-484.4 363.61,-453.6 43.2,-453.6"/>
<text text-anchor="start" x="50.2" y="-465.8" font-family="Arial" font-size="14.00">status_type_id </text>
<text text-anchor="start" x="144.37" y="-465.8" font-family="Arial" font-size="14.00" fill="#666666">[tinyint(3) unsigned]</text>
<polygon fill="none" stroke="black" points="43.2,-422.8 43.2,-453.6 363.61,-453.6 363.61,-422.8 43.2,-422.8"/>
<text text-anchor="start" x="50.2" y="-435" font-family="Arial" font-size="14.00">last_successful_at </text>
<text text-anchor="start" x="168.48" y="-435" font-family="Arial" font-size="14.00" fill="#666666">[datetime]</text>
<polygon fill="none" stroke="black" points="43.2,-392 43.2,-422.8 363.61,-422.8 363.61,-392 43.2,-392"/>
<text text-anchor="start" x="50.2" y="-404.2" font-family="Arial" font-size="14.00">last_failure_at </text>
<text text-anchor="start" x="141.25" y="-404.2" font-family="Arial" font-size="14.00" fill="#666666">[datetime]</text>
<polygon fill="none" stroke="black" points="43.2,-361.2 43.2,-392 363.61,-392 363.61,-361.2 43.2,-361.2"/>
<text text-anchor="start" x="50.2" y="-373.4" font-family="Arial" font-size="14.00">created_at </text>
<text text-anchor="start" x="120.25" y="-373.4" font-family="Arial" font-size="14.00" fill="#666666">[datetime]</text>
<polygon fill="none" stroke="black" points="43.2,-330.4 43.2,-361.2 363.61,-361.2 363.61,-330.4 43.2,-330.4"/>
<text text-anchor="start" x="50.2" y="-342.6" font-family="Arial" font-size="14.00">updated_at </text>
<text text-anchor="start" x="124.16" y="-342.6" font-family="Arial" font-size="14.00" fill="#666666">[datetime]</text>
</g>
<!-- electricity_fetch_statuses&#45;&gt;fetch_status_types -->
<g id="edge1" class="edge">
<title>electricity_fetch_statuses:status_type_id&#45;&gt;fetch_status_types:id</title>
<path fill="none" stroke="black" d="M374.65,-468.44C443.53,-460.25 389.91,-363.33 415.41,-287.2 435.6,-226.9 404.08,-154 467.68,-154"/>
<polygon fill="black" stroke="black" points="374.93,-468.43 364.7,-464.49 369.61,-468.72 365.28,-468.96 365.28,-468.96 365.28,-468.96 369.61,-468.72 365.2,-473.47 374.93,-468.43"/>
<text text-anchor="start" x="371.61" y="-479" font-family="Arial" font-size="10.00">FOREIGN KEY (status_type_id) REFERENCES fetch_status_types (id)</text>
</g>
<!-- gas_fetch_statuses -->
<g id="node3" class="node">
<title>gas_fetch_statuses</title>
<polygon fill="#efefef" stroke="none" points="467.82,-546 467.82,-581.6 741,-581.6 741,-546 467.82,-546"/>
<polygon fill="none" stroke="black" points="467.82,-546 467.82,-581.6 741,-581.6 741,-546 467.82,-546"/>
<text text-anchor="start" x="475.18" y="-559.4" font-family="Arial Bold" font-size="18.00">gas_fetch_statuses</text>
<text text-anchor="start" x="609.14" y="-559.4" font-family="Arial" font-size="14.00">    </text>
<text text-anchor="start" x="640.26" y="-559.4" font-family="Arial" font-size="14.00" fill="#666666">[BASE TABLE]</text>
<polygon fill="none" stroke="black" points="467.82,-515.2 467.82,-546 741,-546 741,-515.2 467.82,-515.2"/>
<text text-anchor="start" x="474.82" y="-527.4" font-family="Arial" font-size="14.00">id </text>
<text text-anchor="start" x="489.6" y="-527.4" font-family="Arial" font-size="14.00" fill="#666666">[bigint(20) unsigned]</text>
<polygon fill="none" stroke="black" points="467.82,-484.4 467.82,-515.2 741,-515.2 741,-484.4 467.82,-484.4"/>
<text text-anchor="start" x="474.82" y="-496.6" font-family="Arial" font-size="14.00">gas_fetch_setting_id </text>
<text text-anchor="start" x="607.13" y="-496.6" font-family="Arial" font-size="14.00" fill="#666666">[bigint(20) unsigned]</text>
<polygon fill="none" stroke="black" points="467.82,-453.6 467.82,-484.4 741,-484.4 741,-453.6 467.82,-453.6"/>
<text text-anchor="start" x="474.82" y="-465.8" font-family="Arial" font-size="14.00">status_type_id </text>
<text text-anchor="start" x="568.99" y="-465.8" font-family="Arial" font-size="14.00" fill="#666666">[tinyint(3) unsigned]</text>
<polygon fill="none" stroke="black" points="467.82,-422.8 467.82,-453.6 741,-453.6 741,-422.8 467.82,-422.8"/>
<text text-anchor="start" x="474.82" y="-435" font-family="Arial" font-size="14.00">last_successful_at </text>
<text text-anchor="start" x="593.1" y="-435" font-family="Arial" font-size="14.00" fill="#666666">[datetime]</text>
<polygon fill="none" stroke="black" points="467.82,-392 467.82,-422.8 741,-422.8 741,-392 467.82,-392"/>
<text text-anchor="start" x="474.82" y="-404.2" font-family="Arial" font-size="14.00">last_failure_at </text>
<text text-anchor="start" x="565.87" y="-404.2" font-family="Arial" font-size="14.00" fill="#666666">[datetime]</text>
<polygon fill="none" stroke="black" points="467.82,-361.2 467.82,-392 741,-392 741,-361.2 467.82,-361.2"/>
<text text-anchor="start" x="474.82" y="-373.4" font-family="Arial" font-size="14.00">created_at </text>
<text text-anchor="start" x="544.87" y="-373.4" font-family="Arial" font-size="14.00" fill="#666666">[datetime]</text>
<polygon fill="none" stroke="black" points="467.82,-330.4 467.82,-361.2 741,-361.2 741,-330.4 467.82,-330.4"/>
<text text-anchor="start" x="474.82" y="-342.6" font-family="Arial" font-size="14.00">updated_at </text>
<text text-anchor="start" x="548.78" y="-342.6" font-family="Arial" font-size="14.00" fill="#666666">[datetime]</text>
</g>
<!-- gas_fetch_statuses&#45;&gt;fetch_status_types -->
<g id="edge2" class="edge">
<title>gas_fetch_statuses:status_type_id&#45;&gt;fetch_status_types:id</title>
<path fill="none" stroke="black" d="M750.06,-462.71C776.61,-418.31 773.2,-154 741.14,-154"/>
<polygon fill="black" stroke="black" points="750.14,-462.64 739.49,-465.25 745.94,-465.92 742.52,-468.59 742.52,-468.59 742.52,-468.59 745.94,-465.92 745.03,-472.34 750.14,-462.64"/>
<text text-anchor="start" x="749" y="-479" font-family="Arial" font-size="10.00">FOREIGN KEY (status_type_id) REFERENCES fetch_status_types (id)</text>
</g>
<!-- water_fetch_statuses -->
<g id="node4" class="node">
<title>water_fetch_statuses</title>
<polygon fill="#efefef" stroke="none" points="845.19,-546 845.19,-581.6 1133.62,-581.6 1133.62,-546 845.19,-546"/>
<polygon fill="none" stroke="black" points="845.19,-546 845.19,-581.6 1133.62,-581.6 1133.62,-546 845.19,-546"/>
<text text-anchor="start" x="852.19" y="-559.4" font-family="Arial Bold" font-size="18.00">water_fetch_statuses</text>
<text text-anchor="start" x="1002.13" y="-559.4" font-family="Arial" font-size="14.00">    </text>
<text text-anchor="start" x="1033.25" y="-559.4" font-family="Arial" font-size="14.00" fill="#666666">[BASE TABLE]</text>
<polygon fill="none" stroke="black" points="845.19,-515.2 845.19,-546 1133.62,-546 1133.62,-515.2 845.19,-515.2"/>
<text text-anchor="start" x="852.19" y="-527.4" font-family="Arial" font-size="14.00">id </text>
<text text-anchor="start" x="866.98" y="-527.4" font-family="Arial" font-size="14.00" fill="#666666">[bigint(20) unsigned]</text>
<polygon fill="none" stroke="black" points="845.19,-484.4 845.19,-515.2 1133.62,-515.2 1133.62,-484.4 845.19,-484.4"/>
<text text-anchor="start" x="852.19" y="-496.6" font-family="Arial" font-size="14.00">water_fetch_setting_id </text>
<text text-anchor="start" x="996.17" y="-496.6" font-family="Arial" font-size="14.00" fill="#666666">[bigint(20) unsigned]</text>
<polygon fill="none" stroke="black" points="845.19,-453.6 845.19,-484.4 1133.62,-484.4 1133.62,-453.6 845.19,-453.6"/>
<text text-anchor="start" x="852.19" y="-465.8" font-family="Arial" font-size="14.00">status_type_id </text>
<text text-anchor="start" x="946.36" y="-465.8" font-family="Arial" font-size="14.00" fill="#666666">[tinyint(3) unsigned]</text>
<polygon fill="none" stroke="black" points="845.19,-422.8 845.19,-453.6 1133.62,-453.6 1133.62,-422.8 845.19,-422.8"/>
<text text-anchor="start" x="852.19" y="-435" font-family="Arial" font-size="14.00">last_successful_at </text>
<text text-anchor="start" x="970.47" y="-435" font-family="Arial" font-size="14.00" fill="#666666">[datetime]</text>
<polygon fill="none" stroke="black" points="845.19,-392 845.19,-422.8 1133.62,-422.8 1133.62,-392 845.19,-392"/>
<text text-anchor="start" x="852.19" y="-404.2" font-family="Arial" font-size="14.00">last_failure_at </text>
<text text-anchor="start" x="943.25" y="-404.2" font-family="Arial" font-size="14.00" fill="#666666">[datetime]</text>
<polygon fill="none" stroke="black" points="845.19,-361.2 845.19,-392 1133.62,-392 1133.62,-361.2 845.19,-361.2"/>
<text text-anchor="start" x="852.19" y="-373.4" font-family="Arial" font-size="14.00">created_at </text>
<text text-anchor="start" x="922.24" y="-373.4" font-family="Arial" font-size="14.00" fill="#666666">[datetime]</text>
<polygon fill="none" stroke="black" points="845.19,-330.4 845.19,-361.2 1133.62,-361.2 1133.62,-330.4 845.19,-330.4"/>
<text text-anchor="start" x="852.19" y="-342.6" font-family="Arial" font-size="14.00">updated_at </text>
<text text-anchor="start" x="926.15" y="-342.6" font-family="Arial" font-size="14.00" fill="#666666">[datetime]</text>
</g>
<!-- water_fetch_statuses&#45;&gt;fetch_status_types -->
<g id="edge3" class="edge">
<title>water_fetch_statuses:status_type_id&#45;&gt;fetch_status_types:id</title>
<path fill="none" stroke="black" d="M834.15,-468.44C765.27,-460.25 818.91,-363.33 793.41,-287.2 773.21,-226.9 804.73,-154 741.14,-154"/>
<polygon fill="black" stroke="black" points="833.87,-468.43 843.61,-473.47 839.2,-468.72 843.52,-468.96 843.52,-468.96 843.52,-468.96 839.2,-468.72 844.11,-464.49 833.87,-468.43"/>
<text text-anchor="start" x="851.19" y="-453" font-family="Arial" font-size="10.00">FOREIGN KEY (status_type_id) REFERENCES fetch_status_types (id)</text>
</g>
</g>
</svg>
