<?xml version="1.0" encoding="UTF-8" standalone="no"?>
<!DOCTYPE svg PUBLIC "-//W3C//DTD SVG 1.1//EN"
 "http://www.w3.org/Graphics/SVG/1.1/DTD/svg11.dtd">
<!-- Generated by graphviz version 2.40.1 (20161225.0304)
 -->
<!-- Title: fetch_status_types Pages: 1 -->
<svg width="1263pt" height="622pt"
 viewBox="0.00 0.00 1262.50 622.00" xmlns="http://www.w3.org/2000/svg" xmlns:xlink="http://www.w3.org/1999/xlink">
<g id="graph0" class="graph" transform="scale(1 1) rotate(0) translate(4 618)">
<title>fetch_status_types</title>
<polygon fill="#ffffff" stroke="transparent" points="-4,4 -4,-618 1258.5,-618 1258.5,4 -4,4"/>
<!-- fetch_status_types -->
<g id="node1" class="node">
<title>fetch_status_types</title>
<polygon fill="#efefef" stroke="transparent" points="496,-165.5 496,-200.5 787,-200.5 787,-165.5 496,-165.5"/>
<polygon fill="none" stroke="#000000" points="496,-165.5 496,-200.5 787,-200.5 787,-165.5 496,-165.5"/>
<text text-anchor="start" x="502.6857" y="-178.3" font-family="Arial Bold" font-size="18.00" fill="#000000">fetch_status_types</text>
<text text-anchor="start" x="652.7463" y="-178.3" font-family="Arial" font-size="14.00" fill="#000000">    </text>
<text text-anchor="start" x="686.9511" y="-178.3" font-family="Arial" font-size="14.00" fill="#666666">[BASE TABLE]</text>
<polygon fill="none" stroke="#000000" points="496,-135.5 496,-165.5 787,-165.5 787,-135.5 496,-135.5"/>
<text text-anchor="start" x="503" y="-146.9" font-family="Arial" font-size="14.00" fill="#000000">id </text>
<text text-anchor="start" x="517.7798" y="-146.9" font-family="Arial" font-size="14.00" fill="#666666">[tinyint(3) unsigned]</text>
<polygon fill="none" stroke="#000000" points="496,-105.5 496,-135.5 787,-135.5 787,-105.5 496,-105.5"/>
<text text-anchor="start" x="503" y="-116.9" font-family="Arial" font-size="14.00" fill="#000000">type_name </text>
<text text-anchor="start" x="576.1374" y="-116.9" font-family="Arial" font-size="14.00" fill="#666666">[varchar(255)]</text>
<polygon fill="none" stroke="#000000" points="496,-75.5 496,-105.5 787,-105.5 787,-75.5 496,-75.5"/>
<text text-anchor="start" x="503" y="-86.9" font-family="Arial" font-size="14.00" fill="#000000">created_at </text>
<text text-anchor="start" x="573.028" y="-86.9" font-family="Arial" font-size="14.00" fill="#666666">[datetime]</text>
<polygon fill="none" stroke="#000000" points="496,-45.5 496,-75.5 787,-75.5 787,-45.5 496,-45.5"/>
<text text-anchor="start" x="503" y="-56.9" font-family="Arial" font-size="14.00" fill="#000000">updated_at </text>
<text text-anchor="start" x="576.9326" y="-56.9" font-family="Arial" font-size="14.00" fill="#666666">[datetime]</text>
<polygon fill="none" stroke="#000000" stroke-width="3" points="494,-44.5 494,-202.5 788,-202.5 788,-44.5 494,-44.5"/>
</g>
<!-- electricity_fetch_statuses -->
<g id="node2" class="node">
<title>electricity_fetch_statuses</title>
<polygon fill="#efefef" stroke="transparent" points="43,-535.5 43,-570.5 385,-570.5 385,-535.5 43,-535.5"/>
<polygon fill="none" stroke="#000000" points="43,-535.5 43,-570.5 385,-570.5 385,-535.5 43,-535.5"/>
<text text-anchor="start" x="49.6941" y="-548.3" font-family="Arial Bold" font-size="18.00" fill="#000000">electricity_fetch_statuses</text>
<text text-anchor="start" x="250.7379" y="-548.3" font-family="Arial" font-size="14.00" fill="#000000">    </text>
<text text-anchor="start" x="284.9427" y="-548.3" font-family="Arial" font-size="14.00" fill="#666666">[BASE TABLE]</text>
<polygon fill="none" stroke="#000000" points="43,-505.5 43,-535.5 385,-535.5 385,-505.5 43,-505.5"/>
<text text-anchor="start" x="50" y="-516.9" font-family="Arial" font-size="14.00" fill="#000000">id    </text>
<text text-anchor="start" x="95.094" y="-516.9" font-family="Arial" font-size="14.00" fill="#666666">[bigint(20) unsigned]</text>
<polygon fill="none" stroke="#000000" points="43,-475.5 43,-505.5 385,-505.5 385,-475.5 43,-475.5"/>
<text text-anchor="start" x="50" y="-486.9" font-family="Arial" font-size="14.00" fill="#000000">electricity_fetch_setting_id    </text>
<text text-anchor="start" x="248.3506" y="-486.9" font-family="Arial" font-size="14.00" fill="#666666">[bigint(20) unsigned]</text>
<polygon fill="none" stroke="#000000" points="43,-445.5 43,-475.5 385,-475.5 385,-445.5 43,-445.5"/>
<text text-anchor="start" x="50" y="-456.9" font-family="Arial" font-size="14.00" fill="#000000">status_type_id    </text>
<text text-anchor="start" x="174.4614" y="-456.9" font-family="Arial" font-size="14.00" fill="#666666">[tinyint(3) unsigned]</text>
<polygon fill="none" stroke="#000000" points="43,-415.5 43,-445.5 385,-445.5 385,-415.5 43,-415.5"/>
<text text-anchor="start" x="50" y="-426.9" font-family="Arial" font-size="14.00" fill="#000000">last_successful_at    </text>
<text text-anchor="start" x="198.568" y="-426.9" font-family="Arial" font-size="14.00" fill="#666666">[datetime]</text>
<polygon fill="none" stroke="#000000" points="43,-385.5 43,-415.5 385,-415.5 385,-385.5 43,-385.5"/>
<text text-anchor="start" x="50" y="-396.9" font-family="Arial" font-size="14.00" fill="#000000">last_failure_at    </text>
<text text-anchor="start" x="171.3352" y="-396.9" font-family="Arial" font-size="14.00" fill="#666666">[datetime]</text>
<polygon fill="none" stroke="#000000" points="43,-355.5 43,-385.5 385,-385.5 385,-355.5 43,-355.5"/>
<text text-anchor="start" x="50" y="-366.9" font-family="Arial" font-size="14.00" fill="#000000">created_at    </text>
<text text-anchor="start" x="150.3422" y="-366.9" font-family="Arial" font-size="14.00" fill="#666666">[datetime]</text>
<polygon fill="none" stroke="#000000" points="43,-325.5 43,-355.5 385,-355.5 385,-325.5 43,-325.5"/>
<text text-anchor="start" x="50" y="-336.9" font-family="Arial" font-size="14.00" fill="#000000">updated_at    </text>
<text text-anchor="start" x="154.2468" y="-336.9" font-family="Arial" font-size="14.00" fill="#666666">[datetime]</text>
</g>
<!-- electricity_fetch_statuses&#45;&gt;fetch_status_types -->
<g id="edge1" class="edge">
<title>electricity_fetch_statuses:status_type_id&#45;&gt;fetch_status_types:id</title>
<path fill="none" stroke="#000000" d="M395.2469,-459.9038C462.1201,-451.5323 409.9344,-356.699 437,-283 459.2226,-222.4883 431.5368,-150.5 496,-150.5"/>
<polygon fill="#000000" stroke="#000000" points="394.9831,-459.919 384.7386,-456.0076 389.9916,-460.2095 385,-460.5 385,-460.5 385,-460.5 389.9916,-460.2095 385.2614,-464.9924 394.9831,-459.919 394.9831,-459.919"/>
<text text-anchor="start" x="391.6425" y="-470.5" font-family="Arial" font-size="10.00" fill="#000000">FOREIGN KEY (status_type_id) REFERENCES fetch_status_types (id)</text>
</g>
<!-- gas_fetch_statuses -->
<g id="node3" class="node">
<title>gas_fetch_statuses</title>
<polygon fill="#efefef" stroke="transparent" points="490,-535.5 490,-570.5 793,-570.5 793,-535.5 490,-535.5"/>
<polygon fill="none" stroke="#000000" points="490,-535.5 490,-570.5 793,-570.5 793,-535.5 490,-535.5"/>
<text text-anchor="start" x="500.1837" y="-548.3" font-family="Arial Bold" font-size="18.00" fill="#000000">gas_fetch_statuses</text>
<text text-anchor="start" x="655.2483" y="-548.3" font-family="Arial" font-size="14.00" fill="#000000">    </text>
<text text-anchor="start" x="689.4531" y="-548.3" font-family="Arial" font-size="14.00" fill="#666666">[BASE TABLE]</text>
<polygon fill="none" stroke="#000000" points="490,-505.5 490,-535.5 793,-535.5 793,-505.5 490,-505.5"/>
<text text-anchor="start" x="497" y="-516.9" font-family="Arial" font-size="14.00" fill="#000000">id    </text>
<text text-anchor="start" x="542.094" y="-516.9" font-family="Arial" font-size="14.00" fill="#666666">[bigint(20) unsigned]</text>
<polygon fill="none" stroke="#000000" points="490,-475.5 490,-505.5 793,-505.5 793,-475.5 490,-475.5"/>
<text text-anchor="start" x="496.7995" y="-486.9" font-family="Arial" font-size="14.00" fill="#000000">gas_fetch_setting_id    </text>
<text text-anchor="start" x="659.3885" y="-486.9" font-family="Arial" font-size="14.00" fill="#666666">[bigint(20) unsigned]</text>
<polygon fill="none" stroke="#000000" points="490,-445.5 490,-475.5 793,-475.5 793,-445.5 490,-445.5"/>
<text text-anchor="start" x="497" y="-456.9" font-family="Arial" font-size="14.00" fill="#000000">status_type_id    </text>
<text text-anchor="start" x="621.4614" y="-456.9" font-family="Arial" font-size="14.00" fill="#666666">[tinyint(3) unsigned]</text>
<polygon fill="none" stroke="#000000" points="490,-415.5 490,-445.5 793,-445.5 793,-415.5 490,-415.5"/>
<text text-anchor="start" x="497" y="-426.9" font-family="Arial" font-size="14.00" fill="#000000">last_successful_at    </text>
<text text-anchor="start" x="645.568" y="-426.9" font-family="Arial" font-size="14.00" fill="#666666">[datetime]</text>
<polygon fill="none" stroke="#000000" points="490,-385.5 490,-415.5 793,-415.5 793,-385.5 490,-385.5"/>
<text text-anchor="start" x="497" y="-396.9" font-family="Arial" font-size="14.00" fill="#000000">last_failure_at    </text>
<text text-anchor="start" x="618.3352" y="-396.9" font-family="Arial" font-size="14.00" fill="#666666">[datetime]</text>
<polygon fill="none" stroke="#000000" points="490,-355.5 490,-385.5 793,-385.5 793,-355.5 490,-355.5"/>
<text text-anchor="start" x="497" y="-366.9" font-family="Arial" font-size="14.00" fill="#000000">created_at    </text>
<text text-anchor="start" x="597.3422" y="-366.9" font-family="Arial" font-size="14.00" fill="#666666">[datetime]</text>
<polygon fill="none" stroke="#000000" points="490,-325.5 490,-355.5 793,-355.5 793,-325.5 490,-325.5"/>
<text text-anchor="start" x="497" y="-336.9" font-family="Arial" font-size="14.00" fill="#000000">updated_at    </text>
<text text-anchor="start" x="601.2468" y="-336.9" font-family="Arial" font-size="14.00" fill="#666666">[datetime]</text>
</g>
<!-- gas_fetch_statuses&#45;&gt;fetch_status_types -->
<g id="edge2" class="edge">
<title>gas_fetch_statuses:status_type_id&#45;&gt;fetch_status_types:id</title>
<path fill="none" stroke="#000000" d="M480.0811,-458.183C421.8698,-429.815 430.5971,-150.5 496,-150.5"/>
<polygon fill="#000000" stroke="#000000" points="480.2622,-458.2252 488.9763,-464.882 485.1311,-459.3626 490,-460.5 490,-460.5 490,-460.5 485.1311,-459.3626 491.0237,-456.118 480.2622,-458.2252 480.2622,-458.2252"/>
<text text-anchor="start" x="496.6425" y="-444.5" font-family="Arial" font-size="10.00" fill="#000000">FOREIGN KEY (status_type_id) REFERENCES fetch_status_types (id)</text>
</g>
<!-- water_fetch_statuses -->
<g id="node4" class="node">
<title>water_fetch_statuses</title>
<polygon fill="#efefef" stroke="transparent" points="897,-535.5 897,-570.5 1212,-570.5 1212,-535.5 897,-535.5"/>
<polygon fill="none" stroke="#000000" points="897,-535.5 897,-570.5 1212,-570.5 1212,-535.5 897,-535.5"/>
<text text-anchor="start" x="905.6894" y="-548.3" font-family="Arial Bold" font-size="18.00" fill="#000000">water_fetch_statuses</text>
<text text-anchor="start" x="1075.7426" y="-548.3" font-family="Arial" font-size="14.00" fill="#000000">    </text>
<text text-anchor="start" x="1109.9474" y="-548.3" font-family="Arial" font-size="14.00" fill="#666666">[BASE TABLE]</text>
<polygon fill="none" stroke="#000000" points="897,-505.5 897,-535.5 1212,-535.5 1212,-505.5 897,-505.5"/>
<text text-anchor="start" x="904" y="-516.9" font-family="Arial" font-size="14.00" fill="#000000">id    </text>
<text text-anchor="start" x="949.094" y="-516.9" font-family="Arial" font-size="14.00" fill="#666666">[bigint(20) unsigned]</text>
<polygon fill="none" stroke="#000000" points="897,-475.5 897,-505.5 1212,-505.5 1212,-475.5 897,-475.5"/>
<text text-anchor="start" x="903.9706" y="-486.9" font-family="Arial" font-size="14.00" fill="#000000">water_fetch_setting_id    </text>
<text text-anchor="start" x="1078.2174" y="-486.9" font-family="Arial" font-size="14.00" fill="#666666">[bigint(20) unsigned]</text>
<polygon fill="none" stroke="#000000" points="897,-445.5 897,-475.5 1212,-475.5 1212,-445.5 897,-445.5"/>
<text text-anchor="start" x="904" y="-456.9" font-family="Arial" font-size="14.00" fill="#000000">status_type_id    </text>
<text text-anchor="start" x="1028.4614" y="-456.9" font-family="Arial" font-size="14.00" fill="#666666">[tinyint(3) unsigned]</text>
<polygon fill="none" stroke="#000000" points="897,-415.5 897,-445.5 1212,-445.5 1212,-415.5 897,-415.5"/>
<text text-anchor="start" x="904" y="-426.9" font-family="Arial" font-size="14.00" fill="#000000">last_successful_at    </text>
<text text-anchor="start" x="1052.568" y="-426.9" font-family="Arial" font-size="14.00" fill="#666666">[datetime]</text>
<polygon fill="none" stroke="#000000" points="897,-385.5 897,-415.5 1212,-415.5 1212,-385.5 897,-385.5"/>
<text text-anchor="start" x="904" y="-396.9" font-family="Arial" font-size="14.00" fill="#000000">last_failure_at    </text>
<text text-anchor="start" x="1025.3352" y="-396.9" font-family="Arial" font-size="14.00" fill="#666666">[datetime]</text>
<polygon fill="none" stroke="#000000" points="897,-355.5 897,-385.5 1212,-385.5 1212,-355.5 897,-355.5"/>
<text text-anchor="start" x="904" y="-366.9" font-family="Arial" font-size="14.00" fill="#000000">created_at    </text>
<text text-anchor="start" x="1004.3422" y="-366.9" font-family="Arial" font-size="14.00" fill="#666666">[datetime]</text>
<polygon fill="none" stroke="#000000" points="897,-325.5 897,-355.5 1212,-355.5 1212,-325.5 897,-325.5"/>
<text text-anchor="start" x="904" y="-336.9" font-family="Arial" font-size="14.00" fill="#000000">updated_at    </text>
<text text-anchor="start" x="1008.2468" y="-336.9" font-family="Arial" font-size="14.00" fill="#666666">[datetime]</text>
</g>
<!-- water_fetch_statuses&#45;&gt;fetch_status_types -->
<g id="edge3" class="edge">
<title>water_fetch_statuses:status_type_id&#45;&gt;fetch_status_types:id</title>
<path fill="none" stroke="#000000" d="M886.7517,-459.9043C819.859,-451.54 871.8327,-356.7841 845,-283 823.03,-222.5871 851.2837,-150.5 787,-150.5"/>
<polygon fill="#000000" stroke="#000000" points="887.0169,-459.9196 896.7388,-464.9924 892.0084,-460.2098 897,-460.5 897,-460.5 897,-460.5 892.0084,-460.2098 897.2612,-456.0076 887.0169,-459.9196 887.0169,-459.9196"/>
<text text-anchor="start" x="903.6425" y="-470.5" font-family="Arial" font-size="10.00" fill="#000000">FOREIGN KEY (status_type_id) REFERENCES fetch_status_types (id)</text>
</g>
</g>
</svg>
