<?xml version="1.0" encoding="UTF-8" standalone="no"?>
<!DOCTYPE svg PUBLIC "-//W3C//DTD SVG 1.1//EN"
 "http://www.w3.org/Graphics/SVG/1.1/DTD/svg11.dtd">
<!-- Generated by graphviz version 2.40.1 (20161225.0304)
 -->
<!-- Title: gas_fetch_settings Pages: 1 -->
<svg width="816pt" height="802pt"
 viewBox="0.00 0.00 815.50 802.00" xmlns="http://www.w3.org/2000/svg" xmlns:xlink="http://www.w3.org/1999/xlink">
<g id="graph0" class="graph" transform="scale(1 1) rotate(0) translate(4 798)">
<title>gas_fetch_settings</title>
<polygon fill="#ffffff" stroke="transparent" points="-4,4 -4,-798 811.5,-798 811.5,4 -4,4"/>
<!-- gas_fetch_settings -->
<g id="node1" class="node">
<title>gas_fetch_settings</title>
<polygon fill="#efefef" stroke="transparent" points="254.5,-285.5 254.5,-320.5 545.5,-320.5 545.5,-285.5 254.5,-285.5"/>
<polygon fill="none" stroke="#000000" points="254.5,-285.5 254.5,-320.5 545.5,-320.5 545.5,-285.5 254.5,-285.5"/>
<text text-anchor="start" x="261.1866" y="-298.3" font-family="Arial Bold" font-size="18.00" fill="#000000">gas_fetch_settings</text>
<text text-anchor="start" x="411.2454" y="-298.3" font-family="Arial" font-size="14.00" fill="#000000">    </text>
<text text-anchor="start" x="445.4502" y="-298.3" font-family="Arial" font-size="14.00" fill="#666666">[BASE TABLE]</text>
<polygon fill="none" stroke="#000000" points="254.5,-255.5 254.5,-285.5 545.5,-285.5 545.5,-255.5 254.5,-255.5"/>
<text text-anchor="start" x="261.5" y="-266.9" font-family="Arial" font-size="14.00" fill="#000000">id </text>
<text text-anchor="start" x="276.2798" y="-266.9" font-family="Arial" font-size="14.00" fill="#666666">[bigint(20) unsigned]</text>
<polygon fill="none" stroke="#000000" points="254.5,-225.5 254.5,-255.5 545.5,-255.5 545.5,-225.5 254.5,-225.5"/>
<text text-anchor="start" x="261.5" y="-236.9" font-family="Arial" font-size="14.00" fill="#000000">setting_name </text>
<text text-anchor="start" x="349.4172" y="-236.9" font-family="Arial" font-size="14.00" fill="#666666">[varchar(255)]</text>
<polygon fill="none" stroke="#000000" points="254.5,-195.5 254.5,-225.5 545.5,-225.5 545.5,-195.5 254.5,-195.5"/>
<text text-anchor="start" x="261.5" y="-206.9" font-family="Arial" font-size="14.00" fill="#000000">gas_site_id </text>
<text text-anchor="start" x="336.19" y="-206.9" font-family="Arial" font-size="14.00" fill="#666666">[bigint(20) unsigned]</text>
<polygon fill="none" stroke="#000000" points="254.5,-165.5 254.5,-195.5 545.5,-195.5 545.5,-165.5 254.5,-165.5"/>
<text text-anchor="start" x="261.5" y="-176.9" font-family="Arial" font-size="14.00" fill="#000000">user_name </text>
<text text-anchor="start" x="335.4074" y="-176.9" font-family="Arial" font-size="14.00" fill="#666666">[varchar(255)]</text>
<polygon fill="none" stroke="#000000" points="254.5,-135.5 254.5,-165.5 545.5,-165.5 545.5,-135.5 254.5,-135.5"/>
<text text-anchor="start" x="261.5" y="-146.9" font-family="Arial" font-size="14.00" fill="#000000">encrypted_password </text>
<text text-anchor="start" x="394.535" y="-146.9" font-family="Arial" font-size="14.00" fill="#666666">[varchar(512)]</text>
<polygon fill="none" stroke="#000000" points="254.5,-105.5 254.5,-135.5 545.5,-135.5 545.5,-105.5 254.5,-105.5"/>
<text text-anchor="start" x="261.5" y="-116.9" font-family="Arial" font-size="14.00" fill="#000000">fetch_enable </text>
<text text-anchor="start" x="345.5392" y="-116.9" font-family="Arial" font-size="14.00" fill="#666666">[tinyint(1)]</text>
<polygon fill="none" stroke="#000000" points="254.5,-75.5 254.5,-105.5 545.5,-105.5 545.5,-75.5 254.5,-75.5"/>
<text text-anchor="start" x="261.5" y="-86.9" font-family="Arial" font-size="14.00" fill="#000000">created_at </text>
<text text-anchor="start" x="331.528" y="-86.9" font-family="Arial" font-size="14.00" fill="#666666">[datetime]</text>
<polygon fill="none" stroke="#000000" points="254.5,-45.5 254.5,-75.5 545.5,-75.5 545.5,-45.5 254.5,-45.5"/>
<text text-anchor="start" x="261.5" y="-56.9" font-family="Arial" font-size="14.00" fill="#000000">updated_at </text>
<text text-anchor="start" x="335.4326" y="-56.9" font-family="Arial" font-size="14.00" fill="#666666">[datetime]</text>
<polygon fill="none" stroke="#000000" stroke-width="3" points="252.5,-44.5 252.5,-322.5 546.5,-322.5 546.5,-44.5 252.5,-44.5"/>
</g>
<!-- gas_fetch_statuses -->
<g id="node2" class="node">
<title>gas_fetch_statuses</title>
<polygon fill="#efefef" stroke="transparent" points="43.5,-685.5 43.5,-720.5 346.5,-720.5 346.5,-685.5 43.5,-685.5"/>
<polygon fill="none" stroke="#000000" points="43.5,-685.5 43.5,-720.5 346.5,-720.5 346.5,-685.5 43.5,-685.5"/>
<text text-anchor="start" x="53.6837" y="-698.3" font-family="Arial Bold" font-size="18.00" fill="#000000">gas_fetch_statuses</text>
<text text-anchor="start" x="208.7483" y="-698.3" font-family="Arial" font-size="14.00" fill="#000000">    </text>
<text text-anchor="start" x="242.9531" y="-698.3" font-family="Arial" font-size="14.00" fill="#666666">[BASE TABLE]</text>
<polygon fill="none" stroke="#000000" points="43.5,-655.5 43.5,-685.5 346.5,-685.5 346.5,-655.5 43.5,-655.5"/>
<text text-anchor="start" x="50.5" y="-666.9" font-family="Arial" font-size="14.00" fill="#000000">id    </text>
<text text-anchor="start" x="95.594" y="-666.9" font-family="Arial" font-size="14.00" fill="#666666">[bigint(20) unsigned]</text>
<polygon fill="none" stroke="#000000" points="43.5,-625.5 43.5,-655.5 346.5,-655.5 346.5,-625.5 43.5,-625.5"/>
<text text-anchor="start" x="50.2995" y="-636.9" font-family="Arial" font-size="14.00" fill="#000000">gas_fetch_setting_id    </text>
<text text-anchor="start" x="212.8885" y="-636.9" font-family="Arial" font-size="14.00" fill="#666666">[bigint(20) unsigned]</text>
<polygon fill="none" stroke="#000000" points="43.5,-595.5 43.5,-625.5 346.5,-625.5 346.5,-595.5 43.5,-595.5"/>
<text text-anchor="start" x="50.5" y="-606.9" font-family="Arial" font-size="14.00" fill="#000000">status_type_id    </text>
<text text-anchor="start" x="174.9614" y="-606.9" font-family="Arial" font-size="14.00" fill="#666666">[tinyint(3) unsigned]</text>
<polygon fill="none" stroke="#000000" points="43.5,-565.5 43.5,-595.5 346.5,-595.5 346.5,-565.5 43.5,-565.5"/>
<text text-anchor="start" x="50.5" y="-576.9" font-family="Arial" font-size="14.00" fill="#000000">last_successful_at    </text>
<text text-anchor="start" x="199.068" y="-576.9" font-family="Arial" font-size="14.00" fill="#666666">[datetime]</text>
<polygon fill="none" stroke="#000000" points="43.5,-535.5 43.5,-565.5 346.5,-565.5 346.5,-535.5 43.5,-535.5"/>
<text text-anchor="start" x="50.5" y="-546.9" font-family="Arial" font-size="14.00" fill="#000000">last_failure_at    </text>
<text text-anchor="start" x="171.8352" y="-546.9" font-family="Arial" font-size="14.00" fill="#666666">[datetime]</text>
<polygon fill="none" stroke="#000000" points="43.5,-505.5 43.5,-535.5 346.5,-535.5 346.5,-505.5 43.5,-505.5"/>
<text text-anchor="start" x="50.5" y="-516.9" font-family="Arial" font-size="14.00" fill="#000000">created_at    </text>
<text text-anchor="start" x="150.8422" y="-516.9" font-family="Arial" font-size="14.00" fill="#666666">[datetime]</text>
<polygon fill="none" stroke="#000000" points="43.5,-475.5 43.5,-505.5 346.5,-505.5 346.5,-475.5 43.5,-475.5"/>
<text text-anchor="start" x="50.5" y="-486.9" font-family="Arial" font-size="14.00" fill="#000000">updated_at    </text>
<text text-anchor="start" x="154.7468" y="-486.9" font-family="Arial" font-size="14.00" fill="#666666">[datetime]</text>
</g>
<!-- gas_fetch_statuses&#45;&gt;gas_fetch_settings -->
<g id="edge1" class="edge">
<title>gas_fetch_statuses:gas_fetch_setting_id&#45;&gt;gas_fetch_settings:id</title>
<path fill="none" stroke="#000000" d="M356.4525,-637.3004C388.5276,-614.0314 365.8301,-470.6571 346.5,-433 323.5193,-388.2313 277.4807,-411.7687 254.5,-367 234.914,-328.8445 211.6111,-270.5 254.5,-270.5"/>
<polygon fill="#000000" stroke="#000000" points="356.0201,-637.4393 345.1227,-636.2159 351.2601,-638.9697 346.5,-640.5 346.5,-640.5 346.5,-640.5 351.2601,-638.9697 347.8773,-644.7841 356.0201,-637.4393 356.0201,-637.4393"/>
<text text-anchor="start" x="353.526" y="-650.5" font-family="Arial" font-size="10.00" fill="#000000">FOREIGN KEY (gas_fetch_setting_id) REFERENCES gas_fetch_settings (id)</text>
</g>
<!-- gas_monthly_usages -->
<g id="node3" class="node">
<title>gas_monthly_usages</title>
<polygon fill="#efefef" stroke="transparent" points="450.5,-715.5 450.5,-750.5 761.5,-750.5 761.5,-715.5 450.5,-715.5"/>
<polygon fill="none" stroke="#000000" points="450.5,-715.5 450.5,-750.5 761.5,-750.5 761.5,-715.5 450.5,-715.5"/>
<text text-anchor="start" x="457.1876" y="-728.3" font-family="Arial Bold" font-size="18.00" fill="#000000">gas_monthly_usages</text>
<text text-anchor="start" x="627.2444" y="-728.3" font-family="Arial" font-size="14.00" fill="#000000">    </text>
<text text-anchor="start" x="661.4492" y="-728.3" font-family="Arial" font-size="14.00" fill="#666666">[BASE TABLE]</text>
<polygon fill="none" stroke="#000000" points="450.5,-685.5 450.5,-715.5 761.5,-715.5 761.5,-685.5 450.5,-685.5"/>
<text text-anchor="start" x="457.5" y="-696.9" font-family="Arial" font-size="14.00" fill="#000000">gas_fetch_setting_id    </text>
<text text-anchor="start" x="620.089" y="-696.9" font-family="Arial" font-size="14.00" fill="#666666">[bigint(20) unsigned]</text>
<polygon fill="none" stroke="#000000" points="450.5,-655.5 450.5,-685.5 761.5,-685.5 761.5,-655.5 450.5,-655.5"/>
<text text-anchor="start" x="457.5" y="-666.9" font-family="Arial" font-size="14.00" fill="#000000">usage_year    </text>
<text text-anchor="start" x="564.8436" y="-666.9" font-family="Arial" font-size="14.00" fill="#666666">[int(10) unsigned]</text>
<polygon fill="none" stroke="#000000" points="450.5,-625.5 450.5,-655.5 761.5,-655.5 761.5,-625.5 450.5,-625.5"/>
<text text-anchor="start" x="457.5" y="-636.9" font-family="Arial" font-size="14.00" fill="#000000">usage_month    </text>
<text text-anchor="start" x="576.5168" y="-636.9" font-family="Arial" font-size="14.00" fill="#666666">[int(10) unsigned]</text>
<polygon fill="none" stroke="#000000" points="450.5,-595.5 450.5,-625.5 761.5,-625.5 761.5,-595.5 450.5,-595.5"/>
<text text-anchor="start" x="457.5" y="-606.9" font-family="Arial" font-size="14.00" fill="#000000">usage_begin_at    </text>
<text text-anchor="start" x="591.3106" y="-606.9" font-family="Arial" font-size="14.00" fill="#666666">[date]</text>
<polygon fill="none" stroke="#000000" points="450.5,-565.5 450.5,-595.5 761.5,-595.5 761.5,-565.5 450.5,-565.5"/>
<text text-anchor="start" x="457.5" y="-576.9" font-family="Arial" font-size="14.00" fill="#000000">usage_end_at    </text>
<text text-anchor="start" x="580.4214" y="-576.9" font-family="Arial" font-size="14.00" fill="#666666">[date]</text>
<polygon fill="none" stroke="#000000" points="450.5,-535.5 450.5,-565.5 761.5,-565.5 761.5,-535.5 450.5,-535.5"/>
<text text-anchor="start" x="457.5" y="-546.9" font-family="Arial" font-size="14.00" fill="#000000">usage_amount    </text>
<text text-anchor="start" x="584.2994" y="-546.9" font-family="Arial" font-size="14.00" fill="#666666">[decimal(15,5) unsigned]</text>
<polygon fill="none" stroke="#000000" points="450.5,-505.5 450.5,-535.5 761.5,-535.5 761.5,-505.5 450.5,-505.5"/>
<text text-anchor="start" x="457.5" y="-516.9" font-family="Arial" font-size="14.00" fill="#000000">usage_yen    </text>
<text text-anchor="start" x="560.183" y="-516.9" font-family="Arial" font-size="14.00" fill="#666666">[int(10) unsigned]</text>
<polygon fill="none" stroke="#000000" points="450.5,-475.5 450.5,-505.5 761.5,-505.5 761.5,-475.5 450.5,-475.5"/>
<text text-anchor="start" x="457.5" y="-486.9" font-family="Arial" font-size="14.00" fill="#000000">created_at    </text>
<text text-anchor="start" x="557.8422" y="-486.9" font-family="Arial" font-size="14.00" fill="#666666">[datetime]</text>
<polygon fill="none" stroke="#000000" points="450.5,-445.5 450.5,-475.5 761.5,-475.5 761.5,-445.5 450.5,-445.5"/>
<text text-anchor="start" x="457.5" y="-456.9" font-family="Arial" font-size="14.00" fill="#000000">updated_at    </text>
<text text-anchor="start" x="561.7468" y="-456.9" font-family="Arial" font-size="14.00" fill="#666666">[datetime]</text>
</g>
<!-- gas_monthly_usages&#45;&gt;gas_fetch_settings -->
<g id="edge2" class="edge">
<title>gas_monthly_usages:gas_fetch_setting_id&#45;&gt;gas_fetch_settings:id</title>
<path fill="none" stroke="#000000" d="M440.4889,-698.3895C387.5383,-674.4756 414.9916,-454.4282 450.5,-403 476.1543,-365.8439 519.8457,-404.1561 545.5,-367 569.8683,-331.7064 588.3889,-270.5 545.5,-270.5"/>
<polygon fill="#000000" stroke="#000000" points="440.7151,-698.4371 449.5717,-704.9032 445.6075,-699.4686 450.5,-700.5 450.5,-700.5 450.5,-700.5 445.6075,-699.4686 451.4283,-696.0968 440.7151,-698.4371 440.7151,-698.4371"/>
<text text-anchor="start" x="457.526" y="-710.5" font-family="Arial" font-size="10.00" fill="#000000">FOREIGN KEY (gas_fetch_setting_id) REFERENCES gas_fetch_settings (id)</text>
</g>
</g>
</svg>
