<?xml version="1.0" encoding="UTF-8" standalone="no"?>
<!DOCTYPE svg PUBLIC "-//W3C//DTD SVG 1.1//EN"
 "http://www.w3.org/Graphics/SVG/1.1/DTD/svg11.dtd">
<!-- Generated by graphviz version 12.1.2 (20240928.0832)
 -->
<!-- Title: gas_monthly_usages Pages: 1 -->
<svg width="702pt" height="818pt"
 viewBox="0.00 0.00 701.70 817.60" xmlns="http://www.w3.org/2000/svg" xmlns:xlink="http://www.w3.org/1999/xlink">
<g id="graph0" class="graph" transform="scale(1 1) rotate(0) translate(4 813.6)">
<title>gas_monthly_usages</title>
<polygon fill="white" stroke="none" points="-4,4 -4,-813.6 697.7,-813.6 697.7,4 -4,4"/>
<!-- gas_monthly_usages -->
<g id="node1" class="node">
<title>gas_monthly_usages</title>
<polygon fill="#efefef" stroke="none" points="46.2,-727.8 46.2,-763.4 334.67,-763.4 334.67,-727.8 46.2,-727.8"/>
<polygon fill="none" stroke="black" points="46.2,-727.8 46.2,-763.4 334.67,-763.4 334.67,-727.8 46.2,-727.8"/>
<text text-anchor="start" x="53.2" y="-741.2" font-family="Arial Bold" font-size="18.00">gas_monthly_usages</text>
<text text-anchor="start" x="203.19" y="-741.2" font-family="Arial" font-size="14.00">    </text>
<text text-anchor="start" x="234.3" y="-741.2" font-family="Arial" font-size="14.00" fill="#666666">[BASE TABLE]</text>
<polygon fill="none" stroke="black" points="46.2,-697 46.2,-727.8 334.67,-727.8 334.67,-697 46.2,-697"/>
<text text-anchor="start" x="53.2" y="-709.2" font-family="Arial" font-size="14.00">gas_fetch_setting_id </text>
<text text-anchor="start" x="185.52" y="-709.2" font-family="Arial" font-size="14.00" fill="#666666">[bigint(20) unsigned]</text>
<polygon fill="none" stroke="black" points="46.2,-666.2 46.2,-697 334.67,-697 334.67,-666.2 46.2,-666.2"/>
<text text-anchor="start" x="53.2" y="-678.4" font-family="Arial" font-size="14.00">usage_year </text>
<text text-anchor="start" x="130.25" y="-678.4" font-family="Arial" font-size="14.00" fill="#666666">[int(10) unsigned]</text>
<polygon fill="none" stroke="black" points="46.2,-635.4 46.2,-666.2 334.67,-666.2 334.67,-635.4 46.2,-635.4"/>
<text text-anchor="start" x="53.2" y="-647.6" font-family="Arial" font-size="14.00">usage_month </text>
<text text-anchor="start" x="141.93" y="-647.6" font-family="Arial" font-size="14.00" fill="#666666">[int(10) unsigned]</text>
<polygon fill="none" stroke="black" points="46.2,-604.6 46.2,-635.4 334.67,-635.4 334.67,-604.6 46.2,-604.6"/>
<text text-anchor="start" x="53.2" y="-616.8" font-family="Arial" font-size="14.00">usage_begin_at </text>
<text text-anchor="start" x="156.74" y="-616.8" font-family="Arial" font-size="14.00" fill="#666666">[date]</text>
<polygon fill="none" stroke="black" points="46.2,-573.8 46.2,-604.6 334.67,-604.6 334.67,-573.8 46.2,-573.8"/>
<text text-anchor="start" x="53.2" y="-586" font-family="Arial" font-size="14.00">usage_end_at </text>
<text text-anchor="start" x="145.84" y="-586" font-family="Arial" font-size="14.00" fill="#666666">[date]</text>
<polygon fill="none" stroke="black" points="46.2,-543 46.2,-573.8 334.67,-573.8 334.67,-543 46.2,-543"/>
<text text-anchor="start" x="53.2" y="-555.2" font-family="Arial" font-size="14.00">usage_amount </text>
<text text-anchor="start" x="149.72" y="-555.2" font-family="Arial" font-size="14.00" fill="#666666">[decimal(15,5) unsigned]</text>
<polygon fill="none" stroke="black" points="46.2,-512.2 46.2,-543 334.67,-543 334.67,-512.2 46.2,-512.2"/>
<text text-anchor="start" x="53.2" y="-524.4" font-family="Arial" font-size="14.00">usage_yen </text>
<text text-anchor="start" x="125.59" y="-524.4" font-family="Arial" font-size="14.00" fill="#666666">[int(10) unsigned]</text>
<polygon fill="none" stroke="black" points="46.2,-481.4 46.2,-512.2 334.67,-512.2 334.67,-481.4 46.2,-481.4"/>
<text text-anchor="start" x="53.2" y="-493.6" font-family="Arial" font-size="14.00">created_at </text>
<text text-anchor="start" x="123.25" y="-493.6" font-family="Arial" font-size="14.00" fill="#666666">[datetime]</text>
<polygon fill="none" stroke="black" points="46.2,-450.6 46.2,-481.4 334.67,-481.4 334.67,-450.6 46.2,-450.6"/>
<text text-anchor="start" x="53.2" y="-462.8" font-family="Arial" font-size="14.00">updated_at </text>
<text text-anchor="start" x="127.16" y="-462.8" font-family="Arial" font-size="14.00" fill="#666666">[datetime]</text>
<polygon fill="none" stroke="black" stroke-width="3" points="44.7,-449.1 44.7,-764.9 336.17,-764.9 336.17,-449.1 44.7,-449.1"/>
</g>
<!-- gas_fetch_settings -->
<g id="node2" class="node">
<title>gas_fetch_settings</title>
<polygon fill="#efefef" stroke="none" points="54.71,-289.6 54.71,-325.2 326.17,-325.2 326.17,-289.6 54.71,-289.6"/>
<polygon fill="none" stroke="black" points="54.71,-289.6 54.71,-325.2 326.17,-325.2 326.17,-289.6 54.71,-289.6"/>
<text text-anchor="start" x="61.71" y="-303" font-family="Arial Bold" font-size="18.00">gas_fetch_settings</text>
<text text-anchor="start" x="194.68" y="-303" font-family="Arial" font-size="14.00">    </text>
<text text-anchor="start" x="225.79" y="-303" font-family="Arial" font-size="14.00" fill="#666666">[BASE TABLE]</text>
<polygon fill="none" stroke="black" points="54.71,-258.8 54.71,-289.6 326.17,-289.6 326.17,-258.8 54.71,-258.8"/>
<text text-anchor="start" x="61.71" y="-271" font-family="Arial" font-size="14.00">id </text>
<text text-anchor="start" x="76.49" y="-271" font-family="Arial" font-size="14.00" fill="#666666">[bigint(20) unsigned]</text>
<polygon fill="none" stroke="black" points="54.71,-228 54.71,-258.8 326.17,-258.8 326.17,-228 54.71,-228"/>
<text text-anchor="start" x="61.71" y="-240.2" font-family="Arial" font-size="14.00">setting_name </text>
<text text-anchor="start" x="149.65" y="-240.2" font-family="Arial" font-size="14.00" fill="#666666">[varchar(255)]</text>
<polygon fill="none" stroke="black" points="54.71,-197.2 54.71,-228 326.17,-228 326.17,-197.2 54.71,-197.2"/>
<text text-anchor="start" x="61.71" y="-209.4" font-family="Arial" font-size="14.00">gas_site_id </text>
<text text-anchor="start" x="136.42" y="-209.4" font-family="Arial" font-size="14.00" fill="#666666">[bigint(20) unsigned]</text>
<polygon fill="none" stroke="black" points="54.71,-166.4 54.71,-197.2 326.17,-197.2 326.17,-166.4 54.71,-166.4"/>
<text text-anchor="start" x="61.71" y="-178.6" font-family="Arial" font-size="14.00">user_name </text>
<text text-anchor="start" x="135.64" y="-178.6" font-family="Arial" font-size="14.00" fill="#666666">[varchar(255)]</text>
<polygon fill="none" stroke="black" points="54.71,-135.6 54.71,-166.4 326.17,-166.4 326.17,-135.6 54.71,-135.6"/>
<text text-anchor="start" x="61.71" y="-147.8" font-family="Arial" font-size="14.00">encrypted_password </text>
<text text-anchor="start" x="194.78" y="-147.8" font-family="Arial" font-size="14.00" fill="#666666">[varchar(512)]</text>
<polygon fill="none" stroke="black" points="54.71,-104.8 54.71,-135.6 326.17,-135.6 326.17,-104.8 54.71,-104.8"/>
<text text-anchor="start" x="61.71" y="-117" font-family="Arial" font-size="14.00">fetch_enable </text>
<text text-anchor="start" x="145.78" y="-117" font-family="Arial" font-size="14.00" fill="#666666">[tinyint(1)]</text>
<polygon fill="none" stroke="black" points="54.71,-74 54.71,-104.8 326.17,-104.8 326.17,-74 54.71,-74"/>
<text text-anchor="start" x="61.71" y="-86.2" font-family="Arial" font-size="14.00">created_at </text>
<text text-anchor="start" x="131.76" y="-86.2" font-family="Arial" font-size="14.00" fill="#666666">[datetime]</text>
<polygon fill="none" stroke="black" points="54.71,-43.2 54.71,-74 326.17,-74 326.17,-43.2 54.71,-43.2"/>
<text text-anchor="start" x="61.71" y="-55.4" font-family="Arial" font-size="14.00">updated_at </text>
<text text-anchor="start" x="135.67" y="-55.4" font-family="Arial" font-size="14.00" fill="#666666">[datetime]</text>
</g>
<!-- gas_monthly_usages&#45;&gt;gas_fetch_settings -->
<g id="edge1" class="edge">
<title>gas_monthly_usages:gas_fetch_setting_id&#45;&gt;gas_fetch_settings:id</title>
<path fill="none" stroke="black" d="M345.82,-710.73C432.34,-681.31 421.04,-274.2 327.17,-274.2"/>
<polygon fill="black" stroke="black" points="345.87,-710.72 335.27,-707.91 340.61,-711.59 336.33,-712.29 336.33,-712.29 336.33,-712.29 340.61,-711.59 336.74,-716.79 345.87,-710.72"/>
<text text-anchor="start" x="342.67" y="-722.4" font-family="Arial" font-size="10.00">FOREIGN KEY (gas_fetch_setting_id) REFERENCES gas_fetch_settings (id)</text>
</g>
</g>
</svg>
