<?xml version="1.0" encoding="UTF-8" standalone="no"?>
<!DOCTYPE svg PUBLIC "-//W3C//DTD SVG 1.1//EN"
 "http://www.w3.org/Graphics/SVG/1.1/DTD/svg11.dtd">
<!-- Generated by graphviz version 12.1.2 (20240928.0832)
 -->
<!-- Title: gas_fetch_statuses Pages: 1 -->
<svg width="972pt" height="756pt"
 viewBox="0.00 0.00 971.98 756.00" xmlns="http://www.w3.org/2000/svg" xmlns:xlink="http://www.w3.org/1999/xlink">
<g id="graph0" class="graph" transform="scale(1 1) rotate(0) translate(4 752)">
<title>gas_fetch_statuses</title>
<polygon fill="white" stroke="none" points="-4,4 -4,-752 967.98,-752 967.98,4 -4,4"/>
<!-- gas_fetch_statuses -->
<g id="node1" class="node">
<title>gas_fetch_statuses</title>
<polygon fill="#efefef" stroke="none" points="359.03,-666.2 359.03,-701.8 632.21,-701.8 632.21,-666.2 359.03,-666.2"/>
<polygon fill="none" stroke="black" points="359.03,-666.2 359.03,-701.8 632.21,-701.8 632.21,-666.2 359.03,-666.2"/>
<text text-anchor="start" x="366.39" y="-679.6" font-family="Arial Bold" font-size="18.00">gas_fetch_statuses</text>
<text text-anchor="start" x="500.35" y="-679.6" font-family="Arial" font-size="14.00">    </text>
<text text-anchor="start" x="531.47" y="-679.6" font-family="Arial" font-size="14.00" fill="#666666">[BASE TABLE]</text>
<polygon fill="none" stroke="black" points="359.03,-635.4 359.03,-666.2 632.21,-666.2 632.21,-635.4 359.03,-635.4"/>
<text text-anchor="start" x="366.03" y="-647.6" font-family="Arial" font-size="14.00">id </text>
<text text-anchor="start" x="380.81" y="-647.6" font-family="Arial" font-size="14.00" fill="#666666">[bigint(20) unsigned]</text>
<polygon fill="none" stroke="black" points="359.03,-604.6 359.03,-635.4 632.21,-635.4 632.21,-604.6 359.03,-604.6"/>
<text text-anchor="start" x="366.03" y="-616.8" font-family="Arial" font-size="14.00">gas_fetch_setting_id </text>
<text text-anchor="start" x="498.34" y="-616.8" font-family="Arial" font-size="14.00" fill="#666666">[bigint(20) unsigned]</text>
<polygon fill="none" stroke="black" points="359.03,-573.8 359.03,-604.6 632.21,-604.6 632.21,-573.8 359.03,-573.8"/>
<text text-anchor="start" x="366.03" y="-586" font-family="Arial" font-size="14.00">status_type_id </text>
<text text-anchor="start" x="460.2" y="-586" font-family="Arial" font-size="14.00" fill="#666666">[tinyint(3) unsigned]</text>
<polygon fill="none" stroke="black" points="359.03,-543 359.03,-573.8 632.21,-573.8 632.21,-543 359.03,-543"/>
<text text-anchor="start" x="366.03" y="-555.2" font-family="Arial" font-size="14.00">last_successful_at </text>
<text text-anchor="start" x="484.31" y="-555.2" font-family="Arial" font-size="14.00" fill="#666666">[datetime]</text>
<polygon fill="none" stroke="black" points="359.03,-512.2 359.03,-543 632.21,-543 632.21,-512.2 359.03,-512.2"/>
<text text-anchor="start" x="366.03" y="-524.4" font-family="Arial" font-size="14.00">last_failure_at </text>
<text text-anchor="start" x="457.08" y="-524.4" font-family="Arial" font-size="14.00" fill="#666666">[datetime]</text>
<polygon fill="none" stroke="black" points="359.03,-481.4 359.03,-512.2 632.21,-512.2 632.21,-481.4 359.03,-481.4"/>
<text text-anchor="start" x="366.03" y="-493.6" font-family="Arial" font-size="14.00">created_at </text>
<text text-anchor="start" x="436.08" y="-493.6" font-family="Arial" font-size="14.00" fill="#666666">[datetime]</text>
<polygon fill="none" stroke="black" points="359.03,-450.6 359.03,-481.4 632.21,-481.4 632.21,-450.6 359.03,-450.6"/>
<text text-anchor="start" x="366.03" y="-462.8" font-family="Arial" font-size="14.00">updated_at </text>
<text text-anchor="start" x="439.99" y="-462.8" font-family="Arial" font-size="14.00" fill="#666666">[datetime]</text>
<polygon fill="none" stroke="black" stroke-width="3" points="357.53,-449.1 357.53,-703.3 633.71,-703.3 633.71,-449.1 357.53,-449.1"/>
</g>
<!-- gas_fetch_settings -->
<g id="node2" class="node">
<title>gas_fetch_settings</title>
<polygon fill="#efefef" stroke="none" points="171.89,-289.6 171.89,-325.2 443.35,-325.2 443.35,-289.6 171.89,-289.6"/>
<polygon fill="none" stroke="black" points="171.89,-289.6 171.89,-325.2 443.35,-325.2 443.35,-289.6 171.89,-289.6"/>
<text text-anchor="start" x="178.89" y="-303" font-family="Arial Bold" font-size="18.00">gas_fetch_settings</text>
<text text-anchor="start" x="311.86" y="-303" font-family="Arial" font-size="14.00">    </text>
<text text-anchor="start" x="342.97" y="-303" font-family="Arial" font-size="14.00" fill="#666666">[BASE TABLE]</text>
<polygon fill="none" stroke="black" points="171.89,-258.8 171.89,-289.6 443.35,-289.6 443.35,-258.8 171.89,-258.8"/>
<text text-anchor="start" x="178.89" y="-271" font-family="Arial" font-size="14.00">id </text>
<text text-anchor="start" x="193.67" y="-271" font-family="Arial" font-size="14.00" fill="#666666">[bigint(20) unsigned]</text>
<polygon fill="none" stroke="black" points="171.89,-228 171.89,-258.8 443.35,-258.8 443.35,-228 171.89,-228"/>
<text text-anchor="start" x="178.89" y="-240.2" font-family="Arial" font-size="14.00">setting_name </text>
<text text-anchor="start" x="266.83" y="-240.2" font-family="Arial" font-size="14.00" fill="#666666">[varchar(255)]</text>
<polygon fill="none" stroke="black" points="171.89,-197.2 171.89,-228 443.35,-228 443.35,-197.2 171.89,-197.2"/>
<text text-anchor="start" x="178.89" y="-209.4" font-family="Arial" font-size="14.00">gas_site_id </text>
<text text-anchor="start" x="253.6" y="-209.4" font-family="Arial" font-size="14.00" fill="#666666">[bigint(20) unsigned]</text>
<polygon fill="none" stroke="black" points="171.89,-166.4 171.89,-197.2 443.35,-197.2 443.35,-166.4 171.89,-166.4"/>
<text text-anchor="start" x="178.89" y="-178.6" font-family="Arial" font-size="14.00">user_name </text>
<text text-anchor="start" x="252.82" y="-178.6" font-family="Arial" font-size="14.00" fill="#666666">[varchar(255)]</text>
<polygon fill="none" stroke="black" points="171.89,-135.6 171.89,-166.4 443.35,-166.4 443.35,-135.6 171.89,-135.6"/>
<text text-anchor="start" x="178.89" y="-147.8" font-family="Arial" font-size="14.00">encrypted_password </text>
<text text-anchor="start" x="311.96" y="-147.8" font-family="Arial" font-size="14.00" fill="#666666">[varchar(512)]</text>
<polygon fill="none" stroke="black" points="171.89,-104.8 171.89,-135.6 443.35,-135.6 443.35,-104.8 171.89,-104.8"/>
<text text-anchor="start" x="178.89" y="-117" font-family="Arial" font-size="14.00">fetch_enable </text>
<text text-anchor="start" x="262.96" y="-117" font-family="Arial" font-size="14.00" fill="#666666">[tinyint(1)]</text>
<polygon fill="none" stroke="black" points="171.89,-74 171.89,-104.8 443.35,-104.8 443.35,-74 171.89,-74"/>
<text text-anchor="start" x="178.89" y="-86.2" font-family="Arial" font-size="14.00">created_at </text>
<text text-anchor="start" x="248.94" y="-86.2" font-family="Arial" font-size="14.00" fill="#666666">[datetime]</text>
<polygon fill="none" stroke="black" points="171.89,-43.2 171.89,-74 443.35,-74 443.35,-43.2 171.89,-43.2"/>
<text text-anchor="start" x="178.89" y="-55.4" font-family="Arial" font-size="14.00">updated_at </text>
<text text-anchor="start" x="252.85" y="-55.4" font-family="Arial" font-size="14.00" fill="#666666">[datetime]</text>
</g>
<!-- gas_fetch_statuses&#45;&gt;gas_fetch_settings -->
<g id="edge1" class="edge">
<title>gas_fetch_statuses:gas_fetch_setting_id&#45;&gt;gas_fetch_settings:id</title>
<path fill="none" stroke="black" d="M347.68,-619.42C265.56,-609.74 308.06,-481.2 359.03,-404.4 381.56,-370.45 420.71,-402.28 443.35,-368.4 466.6,-333.58 486.22,-274.2 444.35,-274.2"/>
<polygon fill="black" stroke="black" points="347.71,-619.42 357.44,-624.47 353.04,-619.72 357.36,-619.96 357.36,-619.96 357.36,-619.96 353.04,-619.72 357.95,-615.49 347.71,-619.42"/>
<text text-anchor="start" x="7" y="-630" font-family="Arial" font-size="10.00">FOREIGN KEY (gas_fetch_setting_id) REFERENCES gas_fetch_settings (id)</text>
</g>
<!-- fetch_status_types -->
<g id="node3" class="node">
<title>fetch_status_types</title>
<polygon fill="#efefef" stroke="none" points="547.89,-228 547.89,-263.6 819.35,-263.6 819.35,-228 547.89,-228"/>
<polygon fill="none" stroke="black" points="547.89,-228 547.89,-263.6 819.35,-263.6 819.35,-228 547.89,-228"/>
<text text-anchor="start" x="554.89" y="-241.4" font-family="Arial Bold" font-size="18.00">fetch_status_types</text>
<text text-anchor="start" x="687.86" y="-241.4" font-family="Arial" font-size="14.00">    </text>
<text text-anchor="start" x="718.97" y="-241.4" font-family="Arial" font-size="14.00" fill="#666666">[BASE TABLE]</text>
<polygon fill="none" stroke="black" points="547.89,-197.2 547.89,-228 819.35,-228 819.35,-197.2 547.89,-197.2"/>
<text text-anchor="start" x="554.89" y="-209.4" font-family="Arial" font-size="14.00">id </text>
<text text-anchor="start" x="569.67" y="-209.4" font-family="Arial" font-size="14.00" fill="#666666">[tinyint(3) unsigned]</text>
<polygon fill="none" stroke="black" points="547.89,-166.4 547.89,-197.2 819.35,-197.2 819.35,-166.4 547.89,-166.4"/>
<text text-anchor="start" x="554.89" y="-178.6" font-family="Arial" font-size="14.00">type_name </text>
<text text-anchor="start" x="628.05" y="-178.6" font-family="Arial" font-size="14.00" fill="#666666">[varchar(255)]</text>
<polygon fill="none" stroke="black" points="547.89,-135.6 547.89,-166.4 819.35,-166.4 819.35,-135.6 547.89,-135.6"/>
<text text-anchor="start" x="554.89" y="-147.8" font-family="Arial" font-size="14.00">created_at </text>
<text text-anchor="start" x="624.94" y="-147.8" font-family="Arial" font-size="14.00" fill="#666666">[datetime]</text>
<polygon fill="none" stroke="black" points="547.89,-104.8 547.89,-135.6 819.35,-135.6 819.35,-104.8 547.89,-104.8"/>
<text text-anchor="start" x="554.89" y="-117" font-family="Arial" font-size="14.00">updated_at </text>
<text text-anchor="start" x="628.85" y="-117" font-family="Arial" font-size="14.00" fill="#666666">[datetime]</text>
</g>
<!-- gas_fetch_statuses&#45;&gt;fetch_status_types -->
<g id="edge2" class="edge">
<title>gas_fetch_statuses:status_type_id&#45;&gt;fetch_status_types:id</title>
<path fill="none" stroke="black" d="M643.36,-589.04C871.11,-581.81 555.23,-326.21 547.89,-306.8 533.08,-267.64 505.02,-212.6 546.89,-212.6"/>
<polygon fill="black" stroke="black" points="643.54,-589.04 633.47,-584.7 638.21,-589.12 633.87,-589.19 633.87,-589.19 633.87,-589.19 638.21,-589.12 633.61,-593.69 643.54,-589.04"/>
<text text-anchor="start" x="640.21" y="-599.2" font-family="Arial" font-size="10.00">FOREIGN KEY (status_type_id) REFERENCES fetch_status_types (id)</text>
</g>
</g>
</svg>
