<?xml version="1.0" encoding="UTF-8" standalone="no"?>
<!DOCTYPE svg PUBLIC "-//W3C//DTD SVG 1.1//EN"
 "http://www.w3.org/Graphics/SVG/1.1/DTD/svg11.dtd">
<!-- Generated by graphviz version 2.40.1 (20161225.0304)
 -->
<!-- Title: gas_monthly_usages Pages: 1 -->
<svg width="722pt" height="772pt"
 viewBox="0.00 0.00 721.50 772.00" xmlns="http://www.w3.org/2000/svg" xmlns:xlink="http://www.w3.org/1999/xlink">
<g id="graph0" class="graph" transform="scale(1 1) rotate(0) translate(4 768)">
<title>gas_monthly_usages</title>
<polygon fill="#ffffff" stroke="transparent" points="-4,4 -4,-768 717.5,-768 717.5,4 -4,4"/>
<!-- gas_monthly_usages -->
<g id="node1" class="node">
<title>gas_monthly_usages</title>
<polygon fill="#efefef" stroke="transparent" points="357,-682.5 357,-717.5 668,-717.5 668,-682.5 357,-682.5"/>
<polygon fill="none" stroke="#000000" points="357,-682.5 357,-717.5 668,-717.5 668,-682.5 357,-682.5"/>
<text text-anchor="start" x="363.6876" y="-695.3" font-family="Arial Bold" font-size="18.00" fill="#000000">gas_monthly_usages</text>
<text text-anchor="start" x="533.7444" y="-695.3" font-family="Arial" font-size="14.00" fill="#000000">    </text>
<text text-anchor="start" x="567.9492" y="-695.3" font-family="Arial" font-size="14.00" fill="#666666">[BASE TABLE]</text>
<polygon fill="none" stroke="#000000" points="357,-652.5 357,-682.5 668,-682.5 668,-652.5 357,-652.5"/>
<text text-anchor="start" x="364" y="-663.9" font-family="Arial" font-size="14.00" fill="#000000">gas_fetch_setting_id </text>
<text text-anchor="start" x="496.2748" y="-663.9" font-family="Arial" font-size="14.00" fill="#666666">[bigint(20) unsigned]</text>
<polygon fill="none" stroke="#000000" points="357,-622.5 357,-652.5 668,-652.5 668,-622.5 357,-622.5"/>
<text text-anchor="start" x="364" y="-633.9" font-family="Arial" font-size="14.00" fill="#000000">usage_year </text>
<text text-anchor="start" x="441.0294" y="-633.9" font-family="Arial" font-size="14.00" fill="#666666">[int(10) unsigned]</text>
<polygon fill="none" stroke="#000000" points="357,-592.5 357,-622.5 668,-622.5 668,-592.5 357,-592.5"/>
<text text-anchor="start" x="364" y="-603.9" font-family="Arial" font-size="14.00" fill="#000000">usage_month </text>
<text text-anchor="start" x="452.7026" y="-603.9" font-family="Arial" font-size="14.00" fill="#666666">[int(10) unsigned]</text>
<polygon fill="none" stroke="#000000" points="357,-562.5 357,-592.5 668,-592.5 668,-562.5 357,-562.5"/>
<text text-anchor="start" x="364" y="-573.9" font-family="Arial" font-size="14.00" fill="#000000">usage_begin_at </text>
<text text-anchor="start" x="467.4964" y="-573.9" font-family="Arial" font-size="14.00" fill="#666666">[date]</text>
<polygon fill="none" stroke="#000000" points="357,-532.5 357,-562.5 668,-562.5 668,-532.5 357,-532.5"/>
<text text-anchor="start" x="364" y="-543.9" font-family="Arial" font-size="14.00" fill="#000000">usage_end_at </text>
<text text-anchor="start" x="456.6072" y="-543.9" font-family="Arial" font-size="14.00" fill="#666666">[date]</text>
<polygon fill="none" stroke="#000000" points="357,-502.5 357,-532.5 668,-532.5 668,-502.5 357,-502.5"/>
<text text-anchor="start" x="364" y="-513.9" font-family="Arial" font-size="14.00" fill="#000000">usage_amount </text>
<text text-anchor="start" x="460.4852" y="-513.9" font-family="Arial" font-size="14.00" fill="#666666">[decimal(15,5) unsigned]</text>
<polygon fill="none" stroke="#000000" points="357,-472.5 357,-502.5 668,-502.5 668,-472.5 357,-472.5"/>
<text text-anchor="start" x="364" y="-483.9" font-family="Arial" font-size="14.00" fill="#000000">usage_yen </text>
<text text-anchor="start" x="436.3688" y="-483.9" font-family="Arial" font-size="14.00" fill="#666666">[int(10) unsigned]</text>
<polygon fill="none" stroke="#000000" points="357,-442.5 357,-472.5 668,-472.5 668,-442.5 357,-442.5"/>
<text text-anchor="start" x="364" y="-453.9" font-family="Arial" font-size="14.00" fill="#000000">created_at </text>
<text text-anchor="start" x="434.028" y="-453.9" font-family="Arial" font-size="14.00" fill="#666666">[datetime]</text>
<polygon fill="none" stroke="#000000" points="357,-412.5 357,-442.5 668,-442.5 668,-412.5 357,-412.5"/>
<text text-anchor="start" x="364" y="-423.9" font-family="Arial" font-size="14.00" fill="#000000">updated_at </text>
<text text-anchor="start" x="437.9326" y="-423.9" font-family="Arial" font-size="14.00" fill="#666666">[datetime]</text>
<polygon fill="none" stroke="#000000" stroke-width="3" points="355,-411.5 355,-719.5 669,-719.5 669,-411.5 355,-411.5"/>
</g>
<!-- gas_fetch_settings -->
<g id="node2" class="node">
<title>gas_fetch_settings</title>
<polygon fill="#efefef" stroke="transparent" points="367,-252.5 367,-287.5 658,-287.5 658,-252.5 367,-252.5"/>
<polygon fill="none" stroke="#000000" points="367,-252.5 367,-287.5 658,-287.5 658,-252.5 367,-252.5"/>
<text text-anchor="start" x="373.6866" y="-265.3" font-family="Arial Bold" font-size="18.00" fill="#000000">gas_fetch_settings</text>
<text text-anchor="start" x="523.7454" y="-265.3" font-family="Arial" font-size="14.00" fill="#000000">    </text>
<text text-anchor="start" x="557.9502" y="-265.3" font-family="Arial" font-size="14.00" fill="#666666">[BASE TABLE]</text>
<polygon fill="none" stroke="#000000" points="367,-222.5 367,-252.5 658,-252.5 658,-222.5 367,-222.5"/>
<text text-anchor="start" x="374" y="-233.9" font-family="Arial" font-size="14.00" fill="#000000">id    </text>
<text text-anchor="start" x="419.094" y="-233.9" font-family="Arial" font-size="14.00" fill="#666666">[bigint(20) unsigned]</text>
<polygon fill="none" stroke="#000000" points="367,-192.5 367,-222.5 658,-222.5 658,-192.5 367,-192.5"/>
<text text-anchor="start" x="374" y="-203.9" font-family="Arial" font-size="14.00" fill="#000000">gas_site_id    </text>
<text text-anchor="start" x="479.0042" y="-203.9" font-family="Arial" font-size="14.00" fill="#666666">[bigint(20) unsigned]</text>
<polygon fill="none" stroke="#000000" points="367,-162.5 367,-192.5 658,-192.5 658,-162.5 367,-162.5"/>
<text text-anchor="start" x="374" y="-173.9" font-family="Arial" font-size="14.00" fill="#000000">user_name    </text>
<text text-anchor="start" x="478.2216" y="-173.9" font-family="Arial" font-size="14.00" fill="#666666">[varchar(255)]</text>
<polygon fill="none" stroke="#000000" points="367,-132.5 367,-162.5 658,-162.5 658,-132.5 367,-132.5"/>
<text text-anchor="start" x="374" y="-143.9" font-family="Arial" font-size="14.00" fill="#000000">encrypted_password    </text>
<text text-anchor="start" x="537.3492" y="-143.9" font-family="Arial" font-size="14.00" fill="#666666">[varchar(512)]</text>
<polygon fill="none" stroke="#000000" points="367,-102.5 367,-132.5 658,-132.5 658,-102.5 367,-102.5"/>
<text text-anchor="start" x="374" y="-113.9" font-family="Arial" font-size="14.00" fill="#000000">fetch_enable    </text>
<text text-anchor="start" x="488.3534" y="-113.9" font-family="Arial" font-size="14.00" fill="#666666">[tinyint(1)]</text>
<polygon fill="none" stroke="#000000" points="367,-72.5 367,-102.5 658,-102.5 658,-72.5 367,-72.5"/>
<text text-anchor="start" x="374" y="-83.9" font-family="Arial" font-size="14.00" fill="#000000">created_at    </text>
<text text-anchor="start" x="474.3422" y="-83.9" font-family="Arial" font-size="14.00" fill="#666666">[datetime]</text>
<polygon fill="none" stroke="#000000" points="367,-42.5 367,-72.5 658,-72.5 658,-42.5 367,-42.5"/>
<text text-anchor="start" x="374" y="-53.9" font-family="Arial" font-size="14.00" fill="#000000">updated_at    </text>
<text text-anchor="start" x="478.2468" y="-53.9" font-family="Arial" font-size="14.00" fill="#666666">[datetime]</text>
</g>
<!-- gas_monthly_usages&#45;&gt;gas_fetch_settings -->
<g id="edge1" class="edge">
<title>gas_monthly_usages:gas_fetch_setting_id&#45;&gt;gas_fetch_settings:id</title>
<path fill="none" stroke="#000000" d="M347.0517,-665.8564C262.253,-636.9872 274.8722,-237.5 367,-237.5"/>
<polygon fill="#000000" stroke="#000000" points="347.1338,-665.8698 356.2664,-671.9398 352.0669,-666.6849 357,-667.5 357,-667.5 357,-667.5 352.0669,-666.6849 357.7336,-663.0602 347.1338,-665.8698 347.1338,-665.8698"/>
<text text-anchor="start" x="7.026" y="-677.5" font-family="Arial" font-size="10.00" fill="#000000">FOREIGN KEY (gas_fetch_setting_id) REFERENCES gas_fetch_settings (id)</text>
</g>
</g>
</svg>
