<?xml version="1.0" encoding="UTF-8" standalone="no"?>
<!DOCTYPE svg PUBLIC "-//W3C//DTD SVG 1.1//EN"
 "http://www.w3.org/Graphics/SVG/1.1/DTD/svg11.dtd">
<!-- Generated by graphviz version 2.40.1 (20161225.0304)
 -->
<!-- Title: gas_fetch_statuses Pages: 1 -->
<svg width="991pt" height="712pt"
 viewBox="0.00 0.00 991.00 712.00" xmlns="http://www.w3.org/2000/svg" xmlns:xlink="http://www.w3.org/1999/xlink">
<g id="graph0" class="graph" transform="scale(1 1) rotate(0) translate(4 708)">
<title>gas_fetch_statuses</title>
<polygon fill="#ffffff" stroke="transparent" points="-4,4 -4,-708 987,-708 987,4 -4,4"/>
<!-- gas_fetch_statuses -->
<g id="node1" class="node">
<title>gas_fetch_statuses</title>
<polygon fill="#efefef" stroke="transparent" points="357,-622.5 357,-657.5 653,-657.5 653,-622.5 357,-622.5"/>
<polygon fill="none" stroke="#000000" points="357,-622.5 357,-657.5 653,-657.5 653,-622.5 357,-622.5"/>
<text text-anchor="start" x="363.6837" y="-635.3" font-family="Arial Bold" font-size="18.00" fill="#000000">gas_fetch_statuses</text>
<text text-anchor="start" x="518.7483" y="-635.3" font-family="Arial" font-size="14.00" fill="#000000">    </text>
<text text-anchor="start" x="552.9531" y="-635.3" font-family="Arial" font-size="14.00" fill="#666666">[BASE TABLE]</text>
<polygon fill="none" stroke="#000000" points="357,-592.5 357,-622.5 653,-622.5 653,-592.5 357,-592.5"/>
<text text-anchor="start" x="364" y="-603.9" font-family="Arial" font-size="14.00" fill="#000000">id </text>
<text text-anchor="start" x="378.7798" y="-603.9" font-family="Arial" font-size="14.00" fill="#666666">[bigint(20) unsigned]</text>
<polygon fill="none" stroke="#000000" points="357,-562.5 357,-592.5 653,-592.5 653,-562.5 357,-562.5"/>
<text text-anchor="start" x="364" y="-573.9" font-family="Arial" font-size="14.00" fill="#000000">gas_fetch_setting_id </text>
<text text-anchor="start" x="496.2748" y="-573.9" font-family="Arial" font-size="14.00" fill="#666666">[bigint(20) unsigned]</text>
<polygon fill="none" stroke="#000000" points="357,-532.5 357,-562.5 653,-562.5 653,-532.5 357,-532.5"/>
<text text-anchor="start" x="364" y="-543.9" font-family="Arial" font-size="14.00" fill="#000000">status_type_id </text>
<text text-anchor="start" x="458.1472" y="-543.9" font-family="Arial" font-size="14.00" fill="#666666">[tinyint(3) unsigned]</text>
<polygon fill="none" stroke="#000000" points="357,-502.5 357,-532.5 653,-532.5 653,-502.5 357,-502.5"/>
<text text-anchor="start" x="364" y="-513.9" font-family="Arial" font-size="14.00" fill="#000000">last_successful_at </text>
<text text-anchor="start" x="482.2538" y="-513.9" font-family="Arial" font-size="14.00" fill="#666666">[datetime]</text>
<polygon fill="none" stroke="#000000" points="357,-472.5 357,-502.5 653,-502.5 653,-472.5 357,-472.5"/>
<text text-anchor="start" x="364" y="-483.9" font-family="Arial" font-size="14.00" fill="#000000">last_failure_at </text>
<text text-anchor="start" x="455.021" y="-483.9" font-family="Arial" font-size="14.00" fill="#666666">[datetime]</text>
<polygon fill="none" stroke="#000000" points="357,-442.5 357,-472.5 653,-472.5 653,-442.5 357,-442.5"/>
<text text-anchor="start" x="364" y="-453.9" font-family="Arial" font-size="14.00" fill="#000000">created_at </text>
<text text-anchor="start" x="434.028" y="-453.9" font-family="Arial" font-size="14.00" fill="#666666">[datetime]</text>
<polygon fill="none" stroke="#000000" points="357,-412.5 357,-442.5 653,-442.5 653,-412.5 357,-412.5"/>
<text text-anchor="start" x="364" y="-423.9" font-family="Arial" font-size="14.00" fill="#000000">updated_at </text>
<text text-anchor="start" x="437.9326" y="-423.9" font-family="Arial" font-size="14.00" fill="#666666">[datetime]</text>
<polygon fill="none" stroke="#000000" stroke-width="3" points="355.5,-411.5 355.5,-659.5 654.5,-659.5 654.5,-411.5 355.5,-411.5"/>
</g>
<!-- gas_fetch_settings -->
<g id="node2" class="node">
<title>gas_fetch_settings</title>
<polygon fill="#efefef" stroke="transparent" points="162,-252.5 162,-287.5 453,-287.5 453,-252.5 162,-252.5"/>
<polygon fill="none" stroke="#000000" points="162,-252.5 162,-287.5 453,-287.5 453,-252.5 162,-252.5"/>
<text text-anchor="start" x="168.6866" y="-265.3" font-family="Arial Bold" font-size="18.00" fill="#000000">gas_fetch_settings</text>
<text text-anchor="start" x="318.7454" y="-265.3" font-family="Arial" font-size="14.00" fill="#000000">    </text>
<text text-anchor="start" x="352.9502" y="-265.3" font-family="Arial" font-size="14.00" fill="#666666">[BASE TABLE]</text>
<polygon fill="none" stroke="#000000" points="162,-222.5 162,-252.5 453,-252.5 453,-222.5 162,-222.5"/>
<text text-anchor="start" x="169" y="-233.9" font-family="Arial" font-size="14.00" fill="#000000">id    </text>
<text text-anchor="start" x="214.094" y="-233.9" font-family="Arial" font-size="14.00" fill="#666666">[bigint(20) unsigned]</text>
<polygon fill="none" stroke="#000000" points="162,-192.5 162,-222.5 453,-222.5 453,-192.5 162,-192.5"/>
<text text-anchor="start" x="169" y="-203.9" font-family="Arial" font-size="14.00" fill="#000000">gas_site_id    </text>
<text text-anchor="start" x="274.0042" y="-203.9" font-family="Arial" font-size="14.00" fill="#666666">[bigint(20) unsigned]</text>
<polygon fill="none" stroke="#000000" points="162,-162.5 162,-192.5 453,-192.5 453,-162.5 162,-162.5"/>
<text text-anchor="start" x="169" y="-173.9" font-family="Arial" font-size="14.00" fill="#000000">user_name    </text>
<text text-anchor="start" x="273.2216" y="-173.9" font-family="Arial" font-size="14.00" fill="#666666">[varchar(255)]</text>
<polygon fill="none" stroke="#000000" points="162,-132.5 162,-162.5 453,-162.5 453,-132.5 162,-132.5"/>
<text text-anchor="start" x="169" y="-143.9" font-family="Arial" font-size="14.00" fill="#000000">encrypted_password    </text>
<text text-anchor="start" x="332.3492" y="-143.9" font-family="Arial" font-size="14.00" fill="#666666">[varchar(512)]</text>
<polygon fill="none" stroke="#000000" points="162,-102.5 162,-132.5 453,-132.5 453,-102.5 162,-102.5"/>
<text text-anchor="start" x="169" y="-113.9" font-family="Arial" font-size="14.00" fill="#000000">fetch_enable    </text>
<text text-anchor="start" x="283.3534" y="-113.9" font-family="Arial" font-size="14.00" fill="#666666">[tinyint(1)]</text>
<polygon fill="none" stroke="#000000" points="162,-72.5 162,-102.5 453,-102.5 453,-72.5 162,-72.5"/>
<text text-anchor="start" x="169" y="-83.9" font-family="Arial" font-size="14.00" fill="#000000">created_at    </text>
<text text-anchor="start" x="269.3422" y="-83.9" font-family="Arial" font-size="14.00" fill="#666666">[datetime]</text>
<polygon fill="none" stroke="#000000" points="162,-42.5 162,-72.5 453,-72.5 453,-42.5 162,-42.5"/>
<text text-anchor="start" x="169" y="-53.9" font-family="Arial" font-size="14.00" fill="#000000">updated_at    </text>
<text text-anchor="start" x="273.2468" y="-53.9" font-family="Arial" font-size="14.00" fill="#666666">[datetime]</text>
</g>
<!-- gas_fetch_statuses&#45;&gt;gas_fetch_settings -->
<g id="edge1" class="edge">
<title>gas_fetch_statuses:gas_fetch_setting_id&#45;&gt;gas_fetch_settings:id</title>
<path fill="none" stroke="#000000" d="M346.6418,-576.8998C266.6102,-567.1487 305.7928,-440.892 357,-367 382.9553,-329.5465 427.0447,-368.4535 453,-331 476.6698,-296.8444 494.5556,-237.5 453,-237.5"/>
<polygon fill="#000000" stroke="#000000" points="347.0167,-576.9214 356.7396,-581.9925 352.0084,-577.2107 357,-577.5 357,-577.5 357,-577.5 352.0084,-577.2107 357.2604,-573.0075 347.0167,-576.9214 347.0167,-576.9214"/>
<text text-anchor="start" x="7.026" y="-587.5" font-family="Arial" font-size="10.00" fill="#000000">FOREIGN KEY (gas_fetch_setting_id) REFERENCES gas_fetch_settings (id)</text>
</g>
<!-- fetch_status_types -->
<g id="node3" class="node">
<title>fetch_status_types</title>
<polygon fill="#efefef" stroke="transparent" points="557,-207.5 557,-242.5 848,-242.5 848,-207.5 557,-207.5"/>
<polygon fill="none" stroke="#000000" points="557,-207.5 557,-242.5 848,-242.5 848,-207.5 557,-207.5"/>
<text text-anchor="start" x="563.6857" y="-220.3" font-family="Arial Bold" font-size="18.00" fill="#000000">fetch_status_types</text>
<text text-anchor="start" x="713.7463" y="-220.3" font-family="Arial" font-size="14.00" fill="#000000">    </text>
<text text-anchor="start" x="747.9511" y="-220.3" font-family="Arial" font-size="14.00" fill="#666666">[BASE TABLE]</text>
<polygon fill="none" stroke="#000000" points="557,-177.5 557,-207.5 848,-207.5 848,-177.5 557,-177.5"/>
<text text-anchor="start" x="564" y="-188.9" font-family="Arial" font-size="14.00" fill="#000000">id    </text>
<text text-anchor="start" x="609.094" y="-188.9" font-family="Arial" font-size="14.00" fill="#666666">[tinyint(3) unsigned]</text>
<polygon fill="none" stroke="#000000" points="557,-147.5 557,-177.5 848,-177.5 848,-147.5 557,-147.5"/>
<text text-anchor="start" x="564" y="-158.9" font-family="Arial" font-size="14.00" fill="#000000">type_name    </text>
<text text-anchor="start" x="667.4516" y="-158.9" font-family="Arial" font-size="14.00" fill="#666666">[varchar(255)]</text>
<polygon fill="none" stroke="#000000" points="557,-117.5 557,-147.5 848,-147.5 848,-117.5 557,-117.5"/>
<text text-anchor="start" x="564" y="-128.9" font-family="Arial" font-size="14.00" fill="#000000">created_at    </text>
<text text-anchor="start" x="664.3422" y="-128.9" font-family="Arial" font-size="14.00" fill="#666666">[datetime]</text>
<polygon fill="none" stroke="#000000" points="557,-87.5 557,-117.5 848,-117.5 848,-87.5 557,-87.5"/>
<text text-anchor="start" x="564" y="-98.9" font-family="Arial" font-size="14.00" fill="#000000">updated_at    </text>
<text text-anchor="start" x="668.2468" y="-98.9" font-family="Arial" font-size="14.00" fill="#666666">[datetime]</text>
</g>
<!-- gas_fetch_statuses&#45;&gt;fetch_status_types -->
<g id="edge2" class="edge">
<title>gas_fetch_statuses:status_type_id&#45;&gt;fetch_status_types:id</title>
<path fill="none" stroke="#000000" d="M663.0572,-546.8606C729.0773,-537.8901 685.2858,-436.484 653,-367 629.4762,-316.3732 580.5238,-336.6268 557,-286 539.4892,-248.314 515.4444,-192.5 557,-192.5"/>
<polygon fill="#000000" stroke="#000000" points="662.9799,-546.8655 652.7145,-543.0091 657.9899,-547.1827 653,-547.5 653,-547.5 653,-547.5 657.9899,-547.1827 653.2855,-551.9909 662.9799,-546.8655 662.9799,-546.8655"/>
<text text-anchor="start" x="659.6425" y="-557.5" font-family="Arial" font-size="10.00" fill="#000000">FOREIGN KEY (status_type_id) REFERENCES fetch_status_types (id)</text>
</g>
</g>
</svg>
