<?xml version="1.0" encoding="UTF-8" standalone="no"?>
<!DOCTYPE svg PUBLIC "-//W3C//DTD SVG 1.1//EN"
 "http://www.w3.org/Graphics/SVG/1.1/DTD/svg11.dtd">
<!-- Generated by graphviz version 2.40.1 (20161225.0304)
 -->
<!-- Title: gas_fetch_settings Pages: 1 -->
<svg width="719pt" height="742pt"
 viewBox="0.00 0.00 718.50 742.00" xmlns="http://www.w3.org/2000/svg" xmlns:xlink="http://www.w3.org/1999/xlink">
<g id="graph0" class="graph" transform="scale(1 1) rotate(0) translate(4 738)">
<title>gas_fetch_settings</title>
<polygon fill="#ffffff" stroke="transparent" points="-4,4 -4,-738 714.5,-738 714.5,4 -4,4"/>
<!-- gas_fetch_settings -->
<g id="node1" class="node">
<title>gas_fetch_settings</title>
<polygon fill="#efefef" stroke="transparent" points="367,-225.5 367,-260.5 658,-260.5 658,-225.5 367,-225.5"/>
<polygon fill="none" stroke="#000000" points="367,-225.5 367,-260.5 658,-260.5 658,-225.5 367,-225.5"/>
<text text-anchor="start" x="373.6866" y="-238.3" font-family="Arial Bold" font-size="18.00" fill="#000000">gas_fetch_settings</text>
<text text-anchor="start" x="523.7454" y="-238.3" font-family="Arial" font-size="14.00" fill="#000000">    </text>
<text text-anchor="start" x="557.9502" y="-238.3" font-family="Arial" font-size="14.00" fill="#666666">[BASE TABLE]</text>
<polygon fill="none" stroke="#000000" points="367,-195.5 367,-225.5 658,-225.5 658,-195.5 367,-195.5"/>
<text text-anchor="start" x="374" y="-206.9" font-family="Arial" font-size="14.00" fill="#000000">id </text>
<text text-anchor="start" x="388.7798" y="-206.9" font-family="Arial" font-size="14.00" fill="#666666">[bigint(20) unsigned]</text>
<polygon fill="none" stroke="#000000" points="367,-165.5 367,-195.5 658,-195.5 658,-165.5 367,-165.5"/>
<text text-anchor="start" x="374" y="-176.9" font-family="Arial" font-size="14.00" fill="#000000">gas_site_id </text>
<text text-anchor="start" x="448.69" y="-176.9" font-family="Arial" font-size="14.00" fill="#666666">[bigint(20) unsigned]</text>
<polygon fill="none" stroke="#000000" points="367,-135.5 367,-165.5 658,-165.5 658,-135.5 367,-135.5"/>
<text text-anchor="start" x="374" y="-146.9" font-family="Arial" font-size="14.00" fill="#000000">user_name </text>
<text text-anchor="start" x="447.9074" y="-146.9" font-family="Arial" font-size="14.00" fill="#666666">[varchar(255)]</text>
<polygon fill="none" stroke="#000000" points="367,-105.5 367,-135.5 658,-135.5 658,-105.5 367,-105.5"/>
<text text-anchor="start" x="374" y="-116.9" font-family="Arial" font-size="14.00" fill="#000000">encrypted_password </text>
<text text-anchor="start" x="507.035" y="-116.9" font-family="Arial" font-size="14.00" fill="#666666">[varchar(512)]</text>
<polygon fill="none" stroke="#000000" points="367,-75.5 367,-105.5 658,-105.5 658,-75.5 367,-75.5"/>
<text text-anchor="start" x="374" y="-86.9" font-family="Arial" font-size="14.00" fill="#000000">created_at </text>
<text text-anchor="start" x="444.028" y="-86.9" font-family="Arial" font-size="14.00" fill="#666666">[datetime]</text>
<polygon fill="none" stroke="#000000" points="367,-45.5 367,-75.5 658,-75.5 658,-45.5 367,-45.5"/>
<text text-anchor="start" x="374" y="-56.9" font-family="Arial" font-size="14.00" fill="#000000">updated_at </text>
<text text-anchor="start" x="447.9326" y="-56.9" font-family="Arial" font-size="14.00" fill="#666666">[datetime]</text>
<polygon fill="none" stroke="#000000" stroke-width="3" points="365,-44.5 365,-262.5 659,-262.5 659,-44.5 365,-44.5"/>
</g>
<!-- gas_monthly_usages -->
<g id="node2" class="node">
<title>gas_monthly_usages</title>
<polygon fill="#efefef" stroke="transparent" points="357,-655.5 357,-690.5 668,-690.5 668,-655.5 357,-655.5"/>
<polygon fill="none" stroke="#000000" points="357,-655.5 357,-690.5 668,-690.5 668,-655.5 357,-655.5"/>
<text text-anchor="start" x="363.6876" y="-668.3" font-family="Arial Bold" font-size="18.00" fill="#000000">gas_monthly_usages</text>
<text text-anchor="start" x="533.7444" y="-668.3" font-family="Arial" font-size="14.00" fill="#000000">    </text>
<text text-anchor="start" x="567.9492" y="-668.3" font-family="Arial" font-size="14.00" fill="#666666">[BASE TABLE]</text>
<polygon fill="none" stroke="#000000" points="357,-625.5 357,-655.5 668,-655.5 668,-625.5 357,-625.5"/>
<text text-anchor="start" x="364" y="-636.9" font-family="Arial" font-size="14.00" fill="#000000">gas_fetch_setting_id    </text>
<text text-anchor="start" x="526.589" y="-636.9" font-family="Arial" font-size="14.00" fill="#666666">[bigint(20) unsigned]</text>
<polygon fill="none" stroke="#000000" points="357,-595.5 357,-625.5 668,-625.5 668,-595.5 357,-595.5"/>
<text text-anchor="start" x="364" y="-606.9" font-family="Arial" font-size="14.00" fill="#000000">usage_year    </text>
<text text-anchor="start" x="471.3436" y="-606.9" font-family="Arial" font-size="14.00" fill="#666666">[int(10) unsigned]</text>
<polygon fill="none" stroke="#000000" points="357,-565.5 357,-595.5 668,-595.5 668,-565.5 357,-565.5"/>
<text text-anchor="start" x="364" y="-576.9" font-family="Arial" font-size="14.00" fill="#000000">usage_month    </text>
<text text-anchor="start" x="483.0168" y="-576.9" font-family="Arial" font-size="14.00" fill="#666666">[int(10) unsigned]</text>
<polygon fill="none" stroke="#000000" points="357,-535.5 357,-565.5 668,-565.5 668,-535.5 357,-535.5"/>
<text text-anchor="start" x="364" y="-546.9" font-family="Arial" font-size="14.00" fill="#000000">usage_begin_at    </text>
<text text-anchor="start" x="497.8106" y="-546.9" font-family="Arial" font-size="14.00" fill="#666666">[date]</text>
<polygon fill="none" stroke="#000000" points="357,-505.5 357,-535.5 668,-535.5 668,-505.5 357,-505.5"/>
<text text-anchor="start" x="364" y="-516.9" font-family="Arial" font-size="14.00" fill="#000000">usage_end_at    </text>
<text text-anchor="start" x="486.9214" y="-516.9" font-family="Arial" font-size="14.00" fill="#666666">[date]</text>
<polygon fill="none" stroke="#000000" points="357,-475.5 357,-505.5 668,-505.5 668,-475.5 357,-475.5"/>
<text text-anchor="start" x="364" y="-486.9" font-family="Arial" font-size="14.00" fill="#000000">usage_amount    </text>
<text text-anchor="start" x="490.7994" y="-486.9" font-family="Arial" font-size="14.00" fill="#666666">[decimal(15,5) unsigned]</text>
<polygon fill="none" stroke="#000000" points="357,-445.5 357,-475.5 668,-475.5 668,-445.5 357,-445.5"/>
<text text-anchor="start" x="364" y="-456.9" font-family="Arial" font-size="14.00" fill="#000000">usage_yen    </text>
<text text-anchor="start" x="466.683" y="-456.9" font-family="Arial" font-size="14.00" fill="#666666">[int(10) unsigned]</text>
<polygon fill="none" stroke="#000000" points="357,-415.5 357,-445.5 668,-445.5 668,-415.5 357,-415.5"/>
<text text-anchor="start" x="364" y="-426.9" font-family="Arial" font-size="14.00" fill="#000000">created_at    </text>
<text text-anchor="start" x="464.3422" y="-426.9" font-family="Arial" font-size="14.00" fill="#666666">[datetime]</text>
<polygon fill="none" stroke="#000000" points="357,-385.5 357,-415.5 668,-415.5 668,-385.5 357,-385.5"/>
<text text-anchor="start" x="364" y="-396.9" font-family="Arial" font-size="14.00" fill="#000000">updated_at    </text>
<text text-anchor="start" x="468.2468" y="-396.9" font-family="Arial" font-size="14.00" fill="#666666">[datetime]</text>
</g>
<!-- gas_monthly_usages&#45;&gt;gas_fetch_settings -->
<g id="edge1" class="edge">
<title>gas_monthly_usages:gas_fetch_setting_id&#45;&gt;gas_fetch_settings:id</title>
<path fill="none" stroke="#000000" d="M347.0517,-638.8564C262.253,-609.9872 274.8722,-210.5 367,-210.5"/>
<polygon fill="#000000" stroke="#000000" points="347.1338,-638.8698 356.2664,-644.9398 352.0669,-639.6849 357,-640.5 357,-640.5 357,-640.5 352.0669,-639.6849 357.7336,-636.0602 347.1338,-638.8698 347.1338,-638.8698"/>
<text text-anchor="start" x="7.026" y="-650.5" font-family="Arial" font-size="10.00" fill="#000000">FOREIGN KEY (gas_fetch_setting_id) REFERENCES gas_fetch_settings (id)</text>
</g>
</g>
</svg>
