<?xml version="1.0" encoding="UTF-8" standalone="no"?>
<!DOCTYPE svg PUBLIC "-//W3C//DTD SVG 1.1//EN"
 "http://www.w3.org/Graphics/SVG/1.1/DTD/svg11.dtd">
<!-- Generated by graphviz version 2.40.1 (20161225.0304)
 -->
<!-- Title: gas_fetch_statuses Pages: 1 -->
<svg width="991pt" height="682pt"
 viewBox="0.00 0.00 991.00 682.00" xmlns="http://www.w3.org/2000/svg" xmlns:xlink="http://www.w3.org/1999/xlink">
<g id="graph0" class="graph" transform="scale(1 1) rotate(0) translate(4 678)">
<title>gas_fetch_statuses</title>
<polygon fill="#ffffff" stroke="transparent" points="-4,4 -4,-678 987,-678 987,4 -4,4"/>
<!-- gas_fetch_statuses -->
<g id="node1" class="node">
<title>gas_fetch_statuses</title>
<polygon fill="#efefef" stroke="transparent" points="357,-592.5 357,-627.5 653,-627.5 653,-592.5 357,-592.5"/>
<polygon fill="none" stroke="#000000" points="357,-592.5 357,-627.5 653,-627.5 653,-592.5 357,-592.5"/>
<text text-anchor="start" x="363.6837" y="-605.3" font-family="Arial Bold" font-size="18.00" fill="#000000">gas_fetch_statuses</text>
<text text-anchor="start" x="518.7483" y="-605.3" font-family="Arial" font-size="14.00" fill="#000000">    </text>
<text text-anchor="start" x="552.9531" y="-605.3" font-family="Arial" font-size="14.00" fill="#666666">[BASE TABLE]</text>
<polygon fill="none" stroke="#000000" points="357,-562.5 357,-592.5 653,-592.5 653,-562.5 357,-562.5"/>
<text text-anchor="start" x="364" y="-573.9" font-family="Arial" font-size="14.00" fill="#000000">id </text>
<text text-anchor="start" x="378.7798" y="-573.9" font-family="Arial" font-size="14.00" fill="#666666">[bigint(20) unsigned]</text>
<polygon fill="none" stroke="#000000" points="357,-532.5 357,-562.5 653,-562.5 653,-532.5 357,-532.5"/>
<text text-anchor="start" x="364" y="-543.9" font-family="Arial" font-size="14.00" fill="#000000">gas_fetch_setting_id </text>
<text text-anchor="start" x="496.2748" y="-543.9" font-family="Arial" font-size="14.00" fill="#666666">[bigint(20) unsigned]</text>
<polygon fill="none" stroke="#000000" points="357,-502.5 357,-532.5 653,-532.5 653,-502.5 357,-502.5"/>
<text text-anchor="start" x="364" y="-513.9" font-family="Arial" font-size="14.00" fill="#000000">status_type_id </text>
<text text-anchor="start" x="458.1472" y="-513.9" font-family="Arial" font-size="14.00" fill="#666666">[tinyint(3) unsigned]</text>
<polygon fill="none" stroke="#000000" points="357,-472.5 357,-502.5 653,-502.5 653,-472.5 357,-472.5"/>
<text text-anchor="start" x="364" y="-483.9" font-family="Arial" font-size="14.00" fill="#000000">last_successful_at </text>
<text text-anchor="start" x="482.2538" y="-483.9" font-family="Arial" font-size="14.00" fill="#666666">[datetime]</text>
<polygon fill="none" stroke="#000000" points="357,-442.5 357,-472.5 653,-472.5 653,-442.5 357,-442.5"/>
<text text-anchor="start" x="364" y="-453.9" font-family="Arial" font-size="14.00" fill="#000000">last_failure_at </text>
<text text-anchor="start" x="455.021" y="-453.9" font-family="Arial" font-size="14.00" fill="#666666">[datetime]</text>
<polygon fill="none" stroke="#000000" points="357,-412.5 357,-442.5 653,-442.5 653,-412.5 357,-412.5"/>
<text text-anchor="start" x="364" y="-423.9" font-family="Arial" font-size="14.00" fill="#000000">created_at </text>
<text text-anchor="start" x="434.028" y="-423.9" font-family="Arial" font-size="14.00" fill="#666666">[datetime]</text>
<polygon fill="none" stroke="#000000" points="357,-382.5 357,-412.5 653,-412.5 653,-382.5 357,-382.5"/>
<text text-anchor="start" x="364" y="-393.9" font-family="Arial" font-size="14.00" fill="#000000">updated_at </text>
<text text-anchor="start" x="437.9326" y="-393.9" font-family="Arial" font-size="14.00" fill="#666666">[datetime]</text>
<polygon fill="none" stroke="#000000" stroke-width="3" points="355.5,-381.5 355.5,-629.5 654.5,-629.5 654.5,-381.5 355.5,-381.5"/>
</g>
<!-- gas_fetch_settings -->
<g id="node2" class="node">
<title>gas_fetch_settings</title>
<polygon fill="#efefef" stroke="transparent" points="162,-222.5 162,-257.5 453,-257.5 453,-222.5 162,-222.5"/>
<polygon fill="none" stroke="#000000" points="162,-222.5 162,-257.5 453,-257.5 453,-222.5 162,-222.5"/>
<text text-anchor="start" x="168.6866" y="-235.3" font-family="Arial Bold" font-size="18.00" fill="#000000">gas_fetch_settings</text>
<text text-anchor="start" x="318.7454" y="-235.3" font-family="Arial" font-size="14.00" fill="#000000">    </text>
<text text-anchor="start" x="352.9502" y="-235.3" font-family="Arial" font-size="14.00" fill="#666666">[BASE TABLE]</text>
<polygon fill="none" stroke="#000000" points="162,-192.5 162,-222.5 453,-222.5 453,-192.5 162,-192.5"/>
<text text-anchor="start" x="169" y="-203.9" font-family="Arial" font-size="14.00" fill="#000000">id    </text>
<text text-anchor="start" x="214.094" y="-203.9" font-family="Arial" font-size="14.00" fill="#666666">[bigint(20) unsigned]</text>
<polygon fill="none" stroke="#000000" points="162,-162.5 162,-192.5 453,-192.5 453,-162.5 162,-162.5"/>
<text text-anchor="start" x="169" y="-173.9" font-family="Arial" font-size="14.00" fill="#000000">gas_site_id    </text>
<text text-anchor="start" x="274.0042" y="-173.9" font-family="Arial" font-size="14.00" fill="#666666">[bigint(20) unsigned]</text>
<polygon fill="none" stroke="#000000" points="162,-132.5 162,-162.5 453,-162.5 453,-132.5 162,-132.5"/>
<text text-anchor="start" x="169" y="-143.9" font-family="Arial" font-size="14.00" fill="#000000">user_name    </text>
<text text-anchor="start" x="273.2216" y="-143.9" font-family="Arial" font-size="14.00" fill="#666666">[varchar(255)]</text>
<polygon fill="none" stroke="#000000" points="162,-102.5 162,-132.5 453,-132.5 453,-102.5 162,-102.5"/>
<text text-anchor="start" x="169" y="-113.9" font-family="Arial" font-size="14.00" fill="#000000">encrypted_password    </text>
<text text-anchor="start" x="332.3492" y="-113.9" font-family="Arial" font-size="14.00" fill="#666666">[varchar(512)]</text>
<polygon fill="none" stroke="#000000" points="162,-72.5 162,-102.5 453,-102.5 453,-72.5 162,-72.5"/>
<text text-anchor="start" x="169" y="-83.9" font-family="Arial" font-size="14.00" fill="#000000">created_at    </text>
<text text-anchor="start" x="269.3422" y="-83.9" font-family="Arial" font-size="14.00" fill="#666666">[datetime]</text>
<polygon fill="none" stroke="#000000" points="162,-42.5 162,-72.5 453,-72.5 453,-42.5 162,-42.5"/>
<text text-anchor="start" x="169" y="-53.9" font-family="Arial" font-size="14.00" fill="#000000">updated_at    </text>
<text text-anchor="start" x="273.2468" y="-53.9" font-family="Arial" font-size="14.00" fill="#666666">[datetime]</text>
</g>
<!-- gas_fetch_statuses&#45;&gt;gas_fetch_settings -->
<g id="edge1" class="edge">
<title>gas_fetch_statuses:gas_fetch_setting_id&#45;&gt;gas_fetch_settings:id</title>
<path fill="none" stroke="#000000" d="M346.6418,-546.8998C266.6102,-537.1487 305.7928,-410.892 357,-337 382.9553,-299.5465 427.0447,-338.4535 453,-301 476.6698,-266.8444 494.5556,-207.5 453,-207.5"/>
<polygon fill="#000000" stroke="#000000" points="347.0167,-546.9214 356.7396,-551.9925 352.0084,-547.2107 357,-547.5 357,-547.5 357,-547.5 352.0084,-547.2107 357.2604,-543.0075 347.0167,-546.9214 347.0167,-546.9214"/>
<text text-anchor="start" x="7.026" y="-557.5" font-family="Arial" font-size="10.00" fill="#000000">FOREIGN KEY (gas_fetch_setting_id) REFERENCES gas_fetch_settings (id)</text>
</g>
<!-- fetch_status_types -->
<g id="node3" class="node">
<title>fetch_status_types</title>
<polygon fill="#efefef" stroke="transparent" points="557,-192.5 557,-227.5 848,-227.5 848,-192.5 557,-192.5"/>
<polygon fill="none" stroke="#000000" points="557,-192.5 557,-227.5 848,-227.5 848,-192.5 557,-192.5"/>
<text text-anchor="start" x="563.6857" y="-205.3" font-family="Arial Bold" font-size="18.00" fill="#000000">fetch_status_types</text>
<text text-anchor="start" x="713.7463" y="-205.3" font-family="Arial" font-size="14.00" fill="#000000">    </text>
<text text-anchor="start" x="747.9511" y="-205.3" font-family="Arial" font-size="14.00" fill="#666666">[BASE TABLE]</text>
<polygon fill="none" stroke="#000000" points="557,-162.5 557,-192.5 848,-192.5 848,-162.5 557,-162.5"/>
<text text-anchor="start" x="564" y="-173.9" font-family="Arial" font-size="14.00" fill="#000000">id    </text>
<text text-anchor="start" x="609.094" y="-173.9" font-family="Arial" font-size="14.00" fill="#666666">[tinyint(3) unsigned]</text>
<polygon fill="none" stroke="#000000" points="557,-132.5 557,-162.5 848,-162.5 848,-132.5 557,-132.5"/>
<text text-anchor="start" x="564" y="-143.9" font-family="Arial" font-size="14.00" fill="#000000">type_name    </text>
<text text-anchor="start" x="667.4516" y="-143.9" font-family="Arial" font-size="14.00" fill="#666666">[varchar(255)]</text>
<polygon fill="none" stroke="#000000" points="557,-102.5 557,-132.5 848,-132.5 848,-102.5 557,-102.5"/>
<text text-anchor="start" x="564" y="-113.9" font-family="Arial" font-size="14.00" fill="#000000">created_at    </text>
<text text-anchor="start" x="664.3422" y="-113.9" font-family="Arial" font-size="14.00" fill="#666666">[datetime]</text>
<polygon fill="none" stroke="#000000" points="557,-72.5 557,-102.5 848,-102.5 848,-72.5 557,-72.5"/>
<text text-anchor="start" x="564" y="-83.9" font-family="Arial" font-size="14.00" fill="#000000">updated_at    </text>
<text text-anchor="start" x="668.2468" y="-83.9" font-family="Arial" font-size="14.00" fill="#666666">[datetime]</text>
</g>
<!-- gas_fetch_statuses&#45;&gt;fetch_status_types -->
<g id="edge2" class="edge">
<title>gas_fetch_statuses:status_type_id&#45;&gt;fetch_status_types:id</title>
<path fill="none" stroke="#000000" d="M663.0776,-516.8505C729.3813,-507.7397 688.6696,-404.8091 653,-337 628.8951,-291.1759 581.1049,-316.8241 557,-271 537.6539,-234.2224 515.4444,-177.5 557,-177.5"/>
<polygon fill="#000000" stroke="#000000" points="662.9793,-516.8567 652.7105,-513.0093 657.9896,-517.1784 653,-517.5 653,-517.5 653,-517.5 657.9896,-517.1784 653.2895,-521.9907 662.9793,-516.8567 662.9793,-516.8567"/>
<text text-anchor="start" x="659.6425" y="-527.5" font-family="Arial" font-size="10.00" fill="#000000">FOREIGN KEY (status_type_id) REFERENCES fetch_status_types (id)</text>
</g>
</g>
</svg>
