<?xml version="1.0" encoding="UTF-8" standalone="no"?>
<!DOCTYPE svg PUBLIC "-//W3C//DTD SVG 1.1//EN"
 "http://www.w3.org/Graphics/SVG/1.1/DTD/svg11.dtd">
<!-- Generated by graphviz version 12.1.2 (20240928.0832)
 -->
<!-- Title: gas_fetch_settings Pages: 1 -->
<svg width="826pt" height="818pt"
 viewBox="0.00 0.00 826.23 817.60" xmlns="http://www.w3.org/2000/svg" xmlns:xlink="http://www.w3.org/1999/xlink">
<g id="graph0" class="graph" transform="scale(1 1) rotate(0) translate(4 813.6)">
<title>gas_fetch_settings</title>
<polygon fill="white" stroke="none" points="-4,4 -4,-813.6 822.23,-813.6 822.23,4 -4,4"/>
<!-- gas_fetch_settings -->
<g id="node1" class="node">
<title>gas_fetch_settings</title>
<polygon fill="#efefef" stroke="none" points="276.71,-292.6 276.71,-328.2 548.17,-328.2 548.17,-292.6 276.71,-292.6"/>
<polygon fill="none" stroke="black" points="276.71,-292.6 276.71,-328.2 548.17,-328.2 548.17,-292.6 276.71,-292.6"/>
<text text-anchor="start" x="283.71" y="-306" font-family="Arial Bold" font-size="18.00">gas_fetch_settings</text>
<text text-anchor="start" x="416.68" y="-306" font-family="Arial" font-size="14.00">    </text>
<text text-anchor="start" x="447.8" y="-306" font-family="Arial" font-size="14.00" fill="#666666">[BASE TABLE]</text>
<polygon fill="none" stroke="black" points="276.71,-261.8 276.71,-292.6 548.17,-292.6 548.17,-261.8 276.71,-261.8"/>
<text text-anchor="start" x="283.71" y="-274" font-family="Arial" font-size="14.00">id </text>
<text text-anchor="start" x="298.5" y="-274" font-family="Arial" font-size="14.00" fill="#666666">[bigint(20) unsigned]</text>
<polygon fill="none" stroke="black" points="276.71,-231 276.71,-261.8 548.17,-261.8 548.17,-231 276.71,-231"/>
<text text-anchor="start" x="283.71" y="-243.2" font-family="Arial" font-size="14.00">setting_name </text>
<text text-anchor="start" x="371.65" y="-243.2" font-family="Arial" font-size="14.00" fill="#666666">[varchar(255)]</text>
<polygon fill="none" stroke="black" points="276.71,-200.2 276.71,-231 548.17,-231 548.17,-200.2 276.71,-200.2"/>
<text text-anchor="start" x="283.71" y="-212.4" font-family="Arial" font-size="14.00">gas_site_id </text>
<text text-anchor="start" x="358.43" y="-212.4" font-family="Arial" font-size="14.00" fill="#666666">[bigint(20) unsigned]</text>
<polygon fill="none" stroke="black" points="276.71,-169.4 276.71,-200.2 548.17,-200.2 548.17,-169.4 276.71,-169.4"/>
<text text-anchor="start" x="283.71" y="-181.6" font-family="Arial" font-size="14.00">user_name </text>
<text text-anchor="start" x="357.64" y="-181.6" font-family="Arial" font-size="14.00" fill="#666666">[varchar(255)]</text>
<polygon fill="none" stroke="black" points="276.71,-138.6 276.71,-169.4 548.17,-169.4 548.17,-138.6 276.71,-138.6"/>
<text text-anchor="start" x="283.71" y="-150.8" font-family="Arial" font-size="14.00">encrypted_password </text>
<text text-anchor="start" x="416.79" y="-150.8" font-family="Arial" font-size="14.00" fill="#666666">[varchar(512)]</text>
<polygon fill="none" stroke="black" points="276.71,-107.8 276.71,-138.6 548.17,-138.6 548.17,-107.8 276.71,-107.8"/>
<text text-anchor="start" x="283.71" y="-120" font-family="Arial" font-size="14.00">fetch_enable </text>
<text text-anchor="start" x="367.78" y="-120" font-family="Arial" font-size="14.00" fill="#666666">[tinyint(1)]</text>
<polygon fill="none" stroke="black" points="276.71,-77 276.71,-107.8 548.17,-107.8 548.17,-77 276.71,-77"/>
<text text-anchor="start" x="283.71" y="-89.2" font-family="Arial" font-size="14.00">created_at </text>
<text text-anchor="start" x="353.76" y="-89.2" font-family="Arial" font-size="14.00" fill="#666666">[datetime]</text>
<polygon fill="none" stroke="black" points="276.71,-46.2 276.71,-77 548.17,-77 548.17,-46.2 276.71,-46.2"/>
<text text-anchor="start" x="283.71" y="-58.4" font-family="Arial" font-size="14.00">updated_at </text>
<text text-anchor="start" x="357.67" y="-58.4" font-family="Arial" font-size="14.00" fill="#666666">[datetime]</text>
<polygon fill="none" stroke="black" stroke-width="3" points="275.21,-44.7 275.21,-329.7 549.67,-329.7 549.67,-44.7 275.21,-44.7"/>
</g>
<!-- gas_fetch_statuses -->
<g id="node2" class="node">
<title>gas_fetch_statuses</title>
<polygon fill="#efefef" stroke="none" points="83.85,-700 83.85,-735.6 357.03,-735.6 357.03,-700 83.85,-700"/>
<polygon fill="none" stroke="black" points="83.85,-700 83.85,-735.6 357.03,-735.6 357.03,-700 83.85,-700"/>
<text text-anchor="start" x="91.21" y="-713.4" font-family="Arial Bold" font-size="18.00">gas_fetch_statuses</text>
<text text-anchor="start" x="225.18" y="-713.4" font-family="Arial" font-size="14.00">    </text>
<text text-anchor="start" x="256.29" y="-713.4" font-family="Arial" font-size="14.00" fill="#666666">[BASE TABLE]</text>
<polygon fill="none" stroke="black" points="83.85,-669.2 83.85,-700 357.03,-700 357.03,-669.2 83.85,-669.2"/>
<text text-anchor="start" x="90.85" y="-681.4" font-family="Arial" font-size="14.00">id </text>
<text text-anchor="start" x="105.64" y="-681.4" font-family="Arial" font-size="14.00" fill="#666666">[bigint(20) unsigned]</text>
<polygon fill="none" stroke="black" points="83.85,-638.4 83.85,-669.2 357.03,-669.2 357.03,-638.4 83.85,-638.4"/>
<text text-anchor="start" x="90.85" y="-650.6" font-family="Arial" font-size="14.00">gas_fetch_setting_id </text>
<text text-anchor="start" x="223.17" y="-650.6" font-family="Arial" font-size="14.00" fill="#666666">[bigint(20) unsigned]</text>
<polygon fill="none" stroke="black" points="83.85,-607.6 83.85,-638.4 357.03,-638.4 357.03,-607.6 83.85,-607.6"/>
<text text-anchor="start" x="90.85" y="-619.8" font-family="Arial" font-size="14.00">status_type_id </text>
<text text-anchor="start" x="185.02" y="-619.8" font-family="Arial" font-size="14.00" fill="#666666">[tinyint(3) unsigned]</text>
<polygon fill="none" stroke="black" points="83.85,-576.8 83.85,-607.6 357.03,-607.6 357.03,-576.8 83.85,-576.8"/>
<text text-anchor="start" x="90.85" y="-589" font-family="Arial" font-size="14.00">last_successful_at </text>
<text text-anchor="start" x="209.13" y="-589" font-family="Arial" font-size="14.00" fill="#666666">[datetime]</text>
<polygon fill="none" stroke="black" points="83.85,-546 83.85,-576.8 357.03,-576.8 357.03,-546 83.85,-546"/>
<text text-anchor="start" x="90.85" y="-558.2" font-family="Arial" font-size="14.00">last_failure_at </text>
<text text-anchor="start" x="181.91" y="-558.2" font-family="Arial" font-size="14.00" fill="#666666">[datetime]</text>
<polygon fill="none" stroke="black" points="83.85,-515.2 83.85,-546 357.03,-546 357.03,-515.2 83.85,-515.2"/>
<text text-anchor="start" x="90.85" y="-527.4" font-family="Arial" font-size="14.00">created_at </text>
<text text-anchor="start" x="160.9" y="-527.4" font-family="Arial" font-size="14.00" fill="#666666">[datetime]</text>
<polygon fill="none" stroke="black" points="83.85,-484.4 83.85,-515.2 357.03,-515.2 357.03,-484.4 83.85,-484.4"/>
<text text-anchor="start" x="90.85" y="-496.6" font-family="Arial" font-size="14.00">updated_at </text>
<text text-anchor="start" x="164.81" y="-496.6" font-family="Arial" font-size="14.00" fill="#666666">[datetime]</text>
</g>
<!-- gas_fetch_statuses&#45;&gt;gas_fetch_settings -->
<g id="edge1" class="edge">
<title>gas_fetch_statuses:gas_fetch_setting_id&#45;&gt;gas_fetch_settings:id</title>
<path fill="none" stroke="black" d="M367.76,-650.83C400.93,-628.03 375.61,-480.59 357.03,-441.2 337.22,-399.21 296.64,-416.33 276.71,-374.4 258.17,-335.38 232.51,-277.2 275.71,-277.2"/>
<polygon fill="black" stroke="black" points="367.91,-650.78 357.04,-649.4 362.81,-652.34 358.67,-653.6 358.67,-653.6 358.67,-653.6 362.81,-652.34 359.66,-658.01 367.91,-650.78"/>
<text text-anchor="start" x="7" y="-663.8" font-family="Arial" font-size="10.00">FOREIGN KEY (gas_fetch_setting_id) REFERENCES gas_fetch_settings (id)</text>
</g>
<!-- gas_monthly_usages -->
<g id="node3" class="node">
<title>gas_monthly_usages</title>
<polygon fill="#efefef" stroke="none" points="461.2,-730.8 461.2,-766.4 749.68,-766.4 749.68,-730.8 461.2,-730.8"/>
<polygon fill="none" stroke="black" points="461.2,-730.8 461.2,-766.4 749.68,-766.4 749.68,-730.8 461.2,-730.8"/>
<text text-anchor="start" x="468.2" y="-744.2" font-family="Arial Bold" font-size="18.00">gas_monthly_usages</text>
<text text-anchor="start" x="618.19" y="-744.2" font-family="Arial" font-size="14.00">    </text>
<text text-anchor="start" x="649.3" y="-744.2" font-family="Arial" font-size="14.00" fill="#666666">[BASE TABLE]</text>
<polygon fill="none" stroke="black" points="461.2,-700 461.2,-730.8 749.68,-730.8 749.68,-700 461.2,-700"/>
<text text-anchor="start" x="468.2" y="-712.2" font-family="Arial" font-size="14.00">gas_fetch_setting_id </text>
<text text-anchor="start" x="600.52" y="-712.2" font-family="Arial" font-size="14.00" fill="#666666">[bigint(20) unsigned]</text>
<polygon fill="none" stroke="black" points="461.2,-669.2 461.2,-700 749.68,-700 749.68,-669.2 461.2,-669.2"/>
<text text-anchor="start" x="468.2" y="-681.4" font-family="Arial" font-size="14.00">usage_year </text>
<text text-anchor="start" x="545.26" y="-681.4" font-family="Arial" font-size="14.00" fill="#666666">[int(10) unsigned]</text>
<polygon fill="none" stroke="black" points="461.2,-638.4 461.2,-669.2 749.68,-669.2 749.68,-638.4 461.2,-638.4"/>
<text text-anchor="start" x="468.2" y="-650.6" font-family="Arial" font-size="14.00">usage_month </text>
<text text-anchor="start" x="556.93" y="-650.6" font-family="Arial" font-size="14.00" fill="#666666">[int(10) unsigned]</text>
<polygon fill="none" stroke="black" points="461.2,-607.6 461.2,-638.4 749.68,-638.4 749.68,-607.6 461.2,-607.6"/>
<text text-anchor="start" x="468.2" y="-619.8" font-family="Arial" font-size="14.00">usage_begin_at </text>
<text text-anchor="start" x="571.74" y="-619.8" font-family="Arial" font-size="14.00" fill="#666666">[date]</text>
<polygon fill="none" stroke="black" points="461.2,-576.8 461.2,-607.6 749.68,-607.6 749.68,-576.8 461.2,-576.8"/>
<text text-anchor="start" x="468.2" y="-589" font-family="Arial" font-size="14.00">usage_end_at </text>
<text text-anchor="start" x="560.84" y="-589" font-family="Arial" font-size="14.00" fill="#666666">[date]</text>
<polygon fill="none" stroke="black" points="461.2,-546 461.2,-576.8 749.68,-576.8 749.68,-546 461.2,-546"/>
<text text-anchor="start" x="468.2" y="-558.2" font-family="Arial" font-size="14.00">usage_amount </text>
<text text-anchor="start" x="564.72" y="-558.2" font-family="Arial" font-size="14.00" fill="#666666">[decimal(15,5) unsigned]</text>
<polygon fill="none" stroke="black" points="461.2,-515.2 461.2,-546 749.68,-546 749.68,-515.2 461.2,-515.2"/>
<text text-anchor="start" x="468.2" y="-527.4" font-family="Arial" font-size="14.00">usage_yen </text>
<text text-anchor="start" x="540.59" y="-527.4" font-family="Arial" font-size="14.00" fill="#666666">[int(10) unsigned]</text>
<polygon fill="none" stroke="black" points="461.2,-484.4 461.2,-515.2 749.68,-515.2 749.68,-484.4 461.2,-484.4"/>
<text text-anchor="start" x="468.2" y="-496.6" font-family="Arial" font-size="14.00">created_at </text>
<text text-anchor="start" x="538.25" y="-496.6" font-family="Arial" font-size="14.00" fill="#666666">[datetime]</text>
<polygon fill="none" stroke="black" points="461.2,-453.6 461.2,-484.4 749.68,-484.4 749.68,-453.6 461.2,-453.6"/>
<text text-anchor="start" x="468.2" y="-465.8" font-family="Arial" font-size="14.00">updated_at </text>
<text text-anchor="start" x="542.16" y="-465.8" font-family="Arial" font-size="14.00" fill="#666666">[datetime]</text>
</g>
<!-- gas_monthly_usages&#45;&gt;gas_fetch_settings -->
<g id="edge2" class="edge">
<title>gas_monthly_usages:gas_fetch_setting_id&#45;&gt;gas_fetch_settings:id</title>
<path fill="none" stroke="black" d="M450.29,-713.39C395.71,-689.7 425.44,-463.72 461.2,-410.4 484.5,-375.66 524.75,-409.06 548.17,-374.4 572.36,-338.61 592.37,-277.2 549.17,-277.2"/>
<polygon fill="black" stroke="black" points="450.07,-713.35 458.98,-719.74 455.3,-714.41 459.55,-715.27 459.55,-715.27 459.55,-715.27 455.3,-714.41 460.77,-710.92 450.07,-713.35"/>
<text text-anchor="start" x="467.2" y="-725.4" font-family="Arial" font-size="10.00">FOREIGN KEY (gas_fetch_setting_id) REFERENCES gas_fetch_settings (id)</text>
</g>
</g>
</svg>
