<?xml version="1.0" encoding="UTF-8" standalone="no"?>
<!DOCTYPE svg PUBLIC "-//W3C//DTD SVG 1.1//EN"
 "http://www.w3.org/Graphics/SVG/1.1/DTD/svg11.dtd">
<!-- Generated by graphviz version 2.40.1 (20161225.0304)
 -->
<!-- Title: line_channels Pages: 1 -->
<svg width="705pt" height="682pt"
 viewBox="0.00 0.00 704.50 682.00" xmlns="http://www.w3.org/2000/svg" xmlns:xlink="http://www.w3.org/1999/xlink">
<g id="graph0" class="graph" transform="scale(1 1) rotate(0) translate(4 678)">
<title>line_channels</title>
<polygon fill="#ffffff" stroke="transparent" points="-4,4 -4,-678 700.5,-678 700.5,4 -4,4"/>
<!-- line_channels -->
<g id="node1" class="node">
<title>line_channels</title>
<polygon fill="#efefef" stroke="transparent" points="358,-165.5 358,-200.5 609,-200.5 609,-165.5 358,-165.5"/>
<polygon fill="none" stroke="#000000" points="358,-165.5 358,-200.5 609,-200.5 609,-165.5 358,-165.5"/>
<text text-anchor="start" x="364.6999" y="-178.3" font-family="Arial Bold" font-size="18.00" fill="#000000">line_channels</text>
<text text-anchor="start" x="474.7321" y="-178.3" font-family="Arial" font-size="14.00" fill="#000000">    </text>
<text text-anchor="start" x="508.9369" y="-178.3" font-family="Arial" font-size="14.00" fill="#666666">[BASE TABLE]</text>
<polygon fill="none" stroke="#000000" points="358,-135.5 358,-165.5 609,-165.5 609,-135.5 358,-135.5"/>
<text text-anchor="start" x="365" y="-146.9" font-family="Arial" font-size="14.00" fill="#000000">id </text>
<text text-anchor="start" x="379.7798" y="-146.9" font-family="Arial" font-size="14.00" fill="#666666">[varchar(256)]</text>
<polygon fill="none" stroke="#000000" points="358,-105.5 358,-135.5 609,-135.5 609,-105.5 358,-105.5"/>
<text text-anchor="start" x="365" y="-116.9" font-family="Arial" font-size="14.00" fill="#000000">memo </text>
<text text-anchor="start" x="407.777" y="-116.9" font-family="Arial" font-size="14.00" fill="#666666">[text]</text>
<polygon fill="none" stroke="#000000" points="358,-75.5 358,-105.5 609,-105.5 609,-75.5 358,-75.5"/>
<text text-anchor="start" x="365" y="-86.9" font-family="Arial" font-size="14.00" fill="#000000">created_at </text>
<text text-anchor="start" x="435.028" y="-86.9" font-family="Arial" font-size="14.00" fill="#666666">[datetime]</text>
<polygon fill="none" stroke="#000000" points="358,-45.5 358,-75.5 609,-75.5 609,-45.5 358,-45.5"/>
<text text-anchor="start" x="365" y="-56.9" font-family="Arial" font-size="14.00" fill="#000000">updated_at </text>
<text text-anchor="start" x="438.9326" y="-56.9" font-family="Arial" font-size="14.00" fill="#666666">[datetime]</text>
<polygon fill="none" stroke="#000000" stroke-width="3" points="356,-44.5 356,-202.5 610,-202.5 610,-44.5 356,-44.5"/>
</g>
<!-- electricity_notify_settings -->
<g id="node2" class="node">
<title>electricity_notify_settings</title>
<polygon fill="#efefef" stroke="transparent" points="313,-595.5 313,-630.5 654,-630.5 654,-595.5 313,-595.5"/>
<polygon fill="none" stroke="#000000" points="313,-595.5 313,-630.5 654,-630.5 654,-595.5 313,-595.5"/>
<text text-anchor="start" x="319.6999" y="-608.3" font-family="Arial Bold" font-size="18.00" fill="#000000">electricity_notify_settings</text>
<text text-anchor="start" x="519.7321" y="-608.3" font-family="Arial" font-size="14.00" fill="#000000">    </text>
<text text-anchor="start" x="553.9369" y="-608.3" font-family="Arial" font-size="14.00" fill="#666666">[BASE TABLE]</text>
<polygon fill="none" stroke="#000000" points="313,-565.5 313,-595.5 654,-595.5 654,-565.5 313,-565.5"/>
<text text-anchor="start" x="320" y="-576.9" font-family="Arial" font-size="14.00" fill="#000000">id    </text>
<text text-anchor="start" x="365.094" y="-576.9" font-family="Arial" font-size="14.00" fill="#666666">[bigint(20) unsigned]</text>
<polygon fill="none" stroke="#000000" points="313,-535.5 313,-565.5 654,-565.5 654,-535.5 313,-535.5"/>
<text text-anchor="start" x="320" y="-546.9" font-family="Arial" font-size="14.00" fill="#000000">electricity_fetch_setting_id    </text>
<text text-anchor="start" x="518.3506" y="-546.9" font-family="Arial" font-size="14.00" fill="#666666">[bigint(20) unsigned]</text>
<polygon fill="none" stroke="#000000" points="313,-505.5 313,-535.5 654,-535.5 654,-505.5 313,-505.5"/>
<text text-anchor="start" x="320" y="-516.9" font-family="Arial" font-size="14.00" fill="#000000">line_channel_id    </text>
<text text-anchor="start" x="451.4572" y="-516.9" font-family="Arial" font-size="14.00" fill="#666666">[varchar(256)]</text>
<polygon fill="none" stroke="#000000" points="313,-475.5 313,-505.5 654,-505.5 654,-475.5 313,-475.5"/>
<text text-anchor="start" x="320" y="-486.9" font-family="Arial" font-size="14.00" fill="#000000">advisor_id    </text>
<text text-anchor="start" x="417.9916" y="-486.9" font-family="Arial" font-size="14.00" fill="#666666">[bigint(20) unsigned]</text>
<polygon fill="none" stroke="#000000" points="313,-445.5 313,-475.5 654,-475.5 654,-445.5 313,-445.5"/>
<text text-anchor="start" x="320" y="-456.9" font-family="Arial" font-size="14.00" fill="#000000">notify_date    </text>
<text text-anchor="start" x="422.6788" y="-456.9" font-family="Arial" font-size="14.00" fill="#666666">[tinyint(3) unsigned]</text>
<polygon fill="none" stroke="#000000" points="313,-415.5 313,-445.5 654,-445.5 654,-415.5 313,-415.5"/>
<text text-anchor="start" x="320" y="-426.9" font-family="Arial" font-size="14.00" fill="#000000">notify_enable    </text>
<text text-anchor="start" x="437.46" y="-426.9" font-family="Arial" font-size="14.00" fill="#666666">[tinyint(1)]</text>
<polygon fill="none" stroke="#000000" points="313,-385.5 313,-415.5 654,-415.5 654,-385.5 313,-385.5"/>
<text text-anchor="start" x="320" y="-396.9" font-family="Arial" font-size="14.00" fill="#000000">template    </text>
<text text-anchor="start" x="407.8836" y="-396.9" font-family="Arial" font-size="14.00" fill="#666666">[text]</text>
<polygon fill="none" stroke="#000000" points="313,-355.5 313,-385.5 654,-385.5 654,-355.5 313,-355.5"/>
<text text-anchor="start" x="320" y="-366.9" font-family="Arial" font-size="14.00" fill="#000000">created_at    </text>
<text text-anchor="start" x="420.3422" y="-366.9" font-family="Arial" font-size="14.00" fill="#666666">[datetime]</text>
<polygon fill="none" stroke="#000000" points="313,-325.5 313,-355.5 654,-355.5 654,-325.5 313,-325.5"/>
<text text-anchor="start" x="320" y="-336.9" font-family="Arial" font-size="14.00" fill="#000000">updated_at    </text>
<text text-anchor="start" x="424.2468" y="-336.9" font-family="Arial" font-size="14.00" fill="#666666">[datetime]</text>
</g>
<!-- electricity_notify_settings&#45;&gt;line_channels -->
<g id="edge1" class="edge">
<title>electricity_notify_settings:line_channel_id&#45;&gt;line_channels:id</title>
<path fill="none" stroke="#000000" d="M303.0238,-518.5093C234.1089,-489.3863 278.7309,-150.5 358,-150.5"/>
<polygon fill="#000000" stroke="#000000" points="303.1933,-518.543 312.1194,-524.913 308.0967,-519.5215 313,-520.5 313,-520.5 313,-520.5 308.0967,-519.5215 313.8806,-516.087 303.1933,-518.543 303.1933,-518.543"/>
<text text-anchor="start" x="7.263" y="-530.5" font-family="Arial" font-size="10.00" fill="#000000">FOREIGN KEY (line_channel_id) REFERENCES line_channels (id)</text>
</g>
</g>
</svg>
