<?xml version="1.0" encoding="UTF-8" standalone="no"?>
<!DOCTYPE svg PUBLIC "-//W3C//DTD SVG 1.1//EN"
 "http://www.w3.org/Graphics/SVG/1.1/DTD/svg11.dtd">
<!-- Generated by graphviz version 12.1.2 (20240928.0832)
 -->
<!-- Title: line_users Pages: 1 -->
<svg width="717pt" height="602pt"
 viewBox="0.00 0.00 717.03 602.00" xmlns="http://www.w3.org/2000/svg" xmlns:xlink="http://www.w3.org/1999/xlink">
<g id="graph0" class="graph" transform="scale(1 1) rotate(0) translate(4 598)">
<title>line_users</title>
<polygon fill="white" stroke="none" points="-4,4 -4,-598 713.03,-598 713.03,4 -4,4"/>
<!-- line_users -->
<g id="node1" class="node">
<title>line_users</title>
<polygon fill="#efefef" stroke="none" points="128.67,-169.4 128.67,-205 340.15,-205 340.15,-169.4 128.67,-169.4"/>
<polygon fill="none" stroke="black" points="128.67,-169.4 128.67,-205 340.15,-205 340.15,-169.4 128.67,-169.4"/>
<text text-anchor="start" x="135.67" y="-182.8" font-family="Arial Bold" font-size="18.00">line_users</text>
<text text-anchor="start" x="208.66" y="-182.8" font-family="Arial" font-size="14.00">    </text>
<text text-anchor="start" x="239.78" y="-182.8" font-family="Arial" font-size="14.00" fill="#666666">[BASE TABLE]</text>
<polygon fill="none" stroke="black" points="128.67,-138.6 128.67,-169.4 340.15,-169.4 340.15,-138.6 128.67,-138.6"/>
<text text-anchor="start" x="135.67" y="-150.8" font-family="Arial" font-size="14.00">id </text>
<text text-anchor="start" x="150.46" y="-150.8" font-family="Arial" font-size="14.00" fill="#666666">[varchar(256)]</text>
<polygon fill="none" stroke="black" points="128.67,-107.8 128.67,-138.6 340.15,-138.6 340.15,-107.8 128.67,-107.8"/>
<text text-anchor="start" x="135.67" y="-120" font-family="Arial" font-size="14.00">memo </text>
<text text-anchor="start" x="178.46" y="-120" font-family="Arial" font-size="14.00" fill="#666666">[text]</text>
<polygon fill="none" stroke="black" points="128.67,-77 128.67,-107.8 340.15,-107.8 340.15,-77 128.67,-77"/>
<text text-anchor="start" x="135.67" y="-89.2" font-family="Arial" font-size="14.00">created_at </text>
<text text-anchor="start" x="205.72" y="-89.2" font-family="Arial" font-size="14.00" fill="#666666">[datetime]</text>
<polygon fill="none" stroke="black" points="128.67,-46.2 128.67,-77 340.15,-77 340.15,-46.2 128.67,-46.2"/>
<text text-anchor="start" x="135.67" y="-58.4" font-family="Arial" font-size="14.00">updated_at </text>
<text text-anchor="start" x="209.63" y="-58.4" font-family="Arial" font-size="14.00" fill="#666666">[datetime]</text>
<polygon fill="none" stroke="black" stroke-width="3" points="127.17,-44.7 127.17,-206.5 341.65,-206.5 341.65,-44.7 127.17,-44.7"/>
</g>
<!-- electricity_notify_dest_line_users -->
<g id="node2" class="node">
<title>electricity_notify_dest_line_users</title>
<polygon fill="#efefef" stroke="none" points="43.2,-515.2 43.2,-550.8 425.62,-550.8 425.62,-515.2 43.2,-515.2"/>
<polygon fill="none" stroke="black" points="43.2,-515.2 43.2,-550.8 425.62,-550.8 425.62,-515.2 43.2,-515.2"/>
<text text-anchor="start" x="50.2" y="-528.6" font-family="Arial Bold" font-size="18.00">electricity_notify_dest_line_users</text>
<text text-anchor="start" x="294.13" y="-528.6" font-family="Arial" font-size="14.00">    </text>
<text text-anchor="start" x="325.25" y="-528.6" font-family="Arial" font-size="14.00" fill="#666666">[BASE TABLE]</text>
<polygon fill="none" stroke="black" points="43.2,-484.4 43.2,-515.2 425.62,-515.2 425.62,-484.4 43.2,-484.4"/>
<text text-anchor="start" x="50.2" y="-496.6" font-family="Arial" font-size="14.00">electricity_notify_setting_id </text>
<text text-anchor="start" x="221.4" y="-496.6" font-family="Arial" font-size="14.00" fill="#666666">[bigint(20) unsigned]</text>
<polygon fill="none" stroke="black" points="43.2,-453.6 43.2,-484.4 425.62,-484.4 425.62,-453.6 43.2,-453.6"/>
<text text-anchor="start" x="50.2" y="-465.8" font-family="Arial" font-size="14.00">line_user_id </text>
<text text-anchor="start" x="129.59" y="-465.8" font-family="Arial" font-size="14.00" fill="#666666">[varchar(256)]</text>
<polygon fill="none" stroke="black" points="43.2,-422.8 43.2,-453.6 425.62,-453.6 425.62,-422.8 43.2,-422.8"/>
<text text-anchor="start" x="50.2" y="-435" font-family="Arial" font-size="14.00">notify_enable </text>
<text text-anchor="start" x="137.38" y="-435" font-family="Arial" font-size="14.00" fill="#666666">[tinyint(1)]</text>
<polygon fill="none" stroke="black" points="43.2,-392 43.2,-422.8 425.62,-422.8 425.62,-392 43.2,-392"/>
<text text-anchor="start" x="50.2" y="-404.2" font-family="Arial" font-size="14.00">last_notified_at </text>
<text text-anchor="start" x="148.27" y="-404.2" font-family="Arial" font-size="14.00" fill="#666666">[datetime]</text>
<polygon fill="none" stroke="black" points="43.2,-361.2 43.2,-392 425.62,-392 425.62,-361.2 43.2,-361.2"/>
<text text-anchor="start" x="50.2" y="-373.4" font-family="Arial" font-size="14.00">created_at </text>
<text text-anchor="start" x="120.25" y="-373.4" font-family="Arial" font-size="14.00" fill="#666666">[datetime]</text>
<polygon fill="none" stroke="black" points="43.2,-330.4 43.2,-361.2 425.62,-361.2 425.62,-330.4 43.2,-330.4"/>
<text text-anchor="start" x="50.2" y="-342.6" font-family="Arial" font-size="14.00">updated_at </text>
<text text-anchor="start" x="124.16" y="-342.6" font-family="Arial" font-size="14.00" fill="#666666">[datetime]</text>
</g>
<!-- electricity_notify_dest_line_users&#45;&gt;line_users -->
<g id="edge1" class="edge">
<title>electricity_notify_dest_line_users:line_user_id&#45;&gt;line_users:id</title>
<path fill="none" stroke="black" d="M436.47,-466.65C490.5,-437.82 410,-154 341.15,-154"/>
<polygon fill="black" stroke="black" points="436.67,-466.6 425.9,-464.55 431.48,-467.84 427.27,-468.84 427.27,-468.84 427.27,-468.84 431.48,-467.84 427.99,-473.3 436.67,-466.6"/>
<text text-anchor="start" x="433.62" y="-479" font-family="Arial" font-size="10.00">FOREIGN KEY (line_user_id) REFERENCES line_users (id)</text>
</g>
</g>
</svg>
