<?xml version="1.0" encoding="UTF-8" standalone="no"?>
<!DOCTYPE svg PUBLIC "-//W3C//DTD SVG 1.1//EN"
 "http://www.w3.org/Graphics/SVG/1.1/DTD/svg11.dtd">
<!-- Generated by graphviz version 2.40.1 (20161225.0304)
 -->
<!-- Title: line_users Pages: 1 -->
<svg width="738pt" height="532pt"
 viewBox="0.00 0.00 737.50 532.00" xmlns="http://www.w3.org/2000/svg" xmlns:xlink="http://www.w3.org/1999/xlink">
<g id="graph0" class="graph" transform="scale(1 1) rotate(0) translate(4 528)">
<title>line_users</title>
<polygon fill="#ffffff" stroke="transparent" points="-4,4 -4,-528 733.5,-528 733.5,4 -4,4"/>
<!-- line_users -->
<g id="node1" class="node">
<title>line_users</title>
<polygon fill="#efefef" stroke="transparent" points="373,-165.5 373,-200.5 596,-200.5 596,-165.5 373,-165.5"/>
<polygon fill="none" stroke="#000000" points="373,-165.5 373,-200.5 596,-200.5 596,-165.5 373,-165.5"/>
<text text-anchor="start" x="379.7102" y="-178.3" font-family="Arial Bold" font-size="18.00" fill="#000000">line_users</text>
<text text-anchor="start" x="461.7218" y="-178.3" font-family="Arial" font-size="14.00" fill="#000000">    </text>
<text text-anchor="start" x="495.9266" y="-178.3" font-family="Arial" font-size="14.00" fill="#666666">[BASE TABLE]</text>
<polygon fill="none" stroke="#000000" points="373,-135.5 373,-165.5 596,-165.5 596,-135.5 373,-135.5"/>
<text text-anchor="start" x="380" y="-146.9" font-family="Arial" font-size="14.00" fill="#000000">id </text>
<text text-anchor="start" x="394.7798" y="-146.9" font-family="Arial" font-size="14.00" fill="#666666">[varchar(256)]</text>
<polygon fill="none" stroke="#000000" points="373,-105.5 373,-135.5 596,-135.5 596,-105.5 373,-105.5"/>
<text text-anchor="start" x="380" y="-116.9" font-family="Arial" font-size="14.00" fill="#000000">memo </text>
<text text-anchor="start" x="422.777" y="-116.9" font-family="Arial" font-size="14.00" fill="#666666">[text]</text>
<polygon fill="none" stroke="#000000" points="373,-75.5 373,-105.5 596,-105.5 596,-75.5 373,-75.5"/>
<text text-anchor="start" x="380" y="-86.9" font-family="Arial" font-size="14.00" fill="#000000">created_at </text>
<text text-anchor="start" x="450.028" y="-86.9" font-family="Arial" font-size="14.00" fill="#666666">[datetime]</text>
<polygon fill="none" stroke="#000000" points="373,-45.5 373,-75.5 596,-75.5 596,-45.5 373,-45.5"/>
<text text-anchor="start" x="380" y="-56.9" font-family="Arial" font-size="14.00" fill="#000000">updated_at </text>
<text text-anchor="start" x="453.9326" y="-56.9" font-family="Arial" font-size="14.00" fill="#666666">[datetime]</text>
<polygon fill="none" stroke="#000000" stroke-width="3" points="371,-44.5 371,-202.5 597,-202.5 597,-44.5 371,-44.5"/>
</g>
<!-- electricity_notify_dest_line_users -->
<g id="node2" class="node">
<title>electricity_notify_dest_line_users</title>
<polygon fill="#efefef" stroke="transparent" points="282,-445.5 282,-480.5 687,-480.5 687,-445.5 282,-445.5"/>
<polygon fill="none" stroke="#000000" points="282,-445.5 282,-480.5 687,-480.5 687,-445.5 282,-445.5"/>
<text text-anchor="start" x="288.6923" y="-458.3" font-family="Arial Bold" font-size="18.00" fill="#000000">electricity_notify_dest_line_users</text>
<text text-anchor="start" x="552.7397" y="-458.3" font-family="Arial" font-size="14.00" fill="#000000">    </text>
<text text-anchor="start" x="586.9445" y="-458.3" font-family="Arial" font-size="14.00" fill="#666666">[BASE TABLE]</text>
<polygon fill="none" stroke="#000000" points="282,-415.5 282,-445.5 687,-445.5 687,-415.5 282,-415.5"/>
<text text-anchor="start" x="289" y="-426.9" font-family="Arial" font-size="14.00" fill="#000000">electricity_notify_setting_id    </text>
<text text-anchor="start" x="490.4572" y="-426.9" font-family="Arial" font-size="14.00" fill="#666666">[bigint(20) unsigned]</text>
<polygon fill="none" stroke="#000000" points="282,-385.5 282,-415.5 687,-415.5 687,-385.5 282,-385.5"/>
<text text-anchor="start" x="289" y="-396.9" font-family="Arial" font-size="14.00" fill="#000000">line_user_id    </text>
<text text-anchor="start" x="398.6634" y="-396.9" font-family="Arial" font-size="14.00" fill="#666666">[varchar(256)]</text>
<polygon fill="none" stroke="#000000" points="282,-355.5 282,-385.5 687,-385.5 687,-355.5 282,-355.5"/>
<text text-anchor="start" x="289" y="-366.9" font-family="Arial" font-size="14.00" fill="#000000">created_at    </text>
<text text-anchor="start" x="389.3422" y="-366.9" font-family="Arial" font-size="14.00" fill="#666666">[datetime]</text>
<polygon fill="none" stroke="#000000" points="282,-325.5 282,-355.5 687,-355.5 687,-325.5 282,-325.5"/>
<text text-anchor="start" x="289" y="-336.9" font-family="Arial" font-size="14.00" fill="#000000">updated_at    </text>
<text text-anchor="start" x="393.2468" y="-336.9" font-family="Arial" font-size="14.00" fill="#666666">[datetime]</text>
</g>
<!-- electricity_notify_dest_line_users&#45;&gt;line_users -->
<g id="edge1" class="edge">
<title>electricity_notify_dest_line_users:line_user_id&#45;&gt;line_users:id</title>
<path fill="none" stroke="#000000" d="M271.8314,-399.8265C169.2916,-385.5924 258.3365,-150.5 373,-150.5"/>
<polygon fill="#000000" stroke="#000000" points="272.0219,-399.839 281.7026,-404.9902 277.0109,-400.1695 282,-400.5 282,-400.5 282,-400.5 277.0109,-400.1695 282.2974,-396.0098 272.0219,-399.839 272.0219,-399.839"/>
<text text-anchor="start" x="6.83" y="-410.5" font-family="Arial" font-size="10.00" fill="#000000">FOREIGN KEY (line_user_id) REFERENCES line_users (id)</text>
</g>
</g>
</svg>
