<?xml version="1.0" encoding="UTF-8" standalone="no"?>
<!DOCTYPE svg PUBLIC "-//W3C//DTD SVG 1.1//EN"
 "http://www.w3.org/Graphics/SVG/1.1/DTD/svg11.dtd">
<!-- Generated by graphviz version 12.1.2 (20240928.0832)
 -->
<!-- Title: line_channels Pages: 1 -->
<svg width="692pt" height="694pt"
 viewBox="0.00 0.00 692.21 694.40" xmlns="http://www.w3.org/2000/svg" xmlns:xlink="http://www.w3.org/1999/xlink">
<g id="graph0" class="graph" transform="scale(1 1) rotate(0) translate(4 690.4)">
<title>line_channels</title>
<polygon fill="white" stroke="none" points="-4,4 -4,-690.4 688.21,-690.4 688.21,4 -4,4"/>
<!-- line_channels -->
<g id="node1" class="node">
<title>line_channels</title>
<polygon fill="#efefef" stroke="none" points="87.69,-169.4 87.69,-205 325.15,-205 325.15,-169.4 87.69,-169.4"/>
<polygon fill="none" stroke="black" points="87.69,-169.4 87.69,-205 325.15,-205 325.15,-169.4 87.69,-169.4"/>
<text text-anchor="start" x="94.69" y="-182.8" font-family="Arial Bold" font-size="18.00">line_channels</text>
<text text-anchor="start" x="193.66" y="-182.8" font-family="Arial" font-size="14.00">    </text>
<text text-anchor="start" x="224.78" y="-182.8" font-family="Arial" font-size="14.00" fill="#666666">[BASE TABLE]</text>
<polygon fill="none" stroke="black" points="87.69,-138.6 87.69,-169.4 325.15,-169.4 325.15,-138.6 87.69,-138.6"/>
<text text-anchor="start" x="94.69" y="-150.8" font-family="Arial" font-size="14.00">id </text>
<text text-anchor="start" x="109.48" y="-150.8" font-family="Arial" font-size="14.00" fill="#666666">[varchar(256)]</text>
<polygon fill="none" stroke="black" points="87.69,-107.8 87.69,-138.6 325.15,-138.6 325.15,-107.8 87.69,-107.8"/>
<text text-anchor="start" x="94.69" y="-120" font-family="Arial" font-size="14.00">memo </text>
<text text-anchor="start" x="137.48" y="-120" font-family="Arial" font-size="14.00" fill="#666666">[text]</text>
<polygon fill="none" stroke="black" points="87.69,-77 87.69,-107.8 325.15,-107.8 325.15,-77 87.69,-77"/>
<text text-anchor="start" x="94.69" y="-89.2" font-family="Arial" font-size="14.00">created_at </text>
<text text-anchor="start" x="164.74" y="-89.2" font-family="Arial" font-size="14.00" fill="#666666">[datetime]</text>
<polygon fill="none" stroke="black" points="87.69,-46.2 87.69,-77 325.15,-77 325.15,-46.2 87.69,-46.2"/>
<text text-anchor="start" x="94.69" y="-58.4" font-family="Arial" font-size="14.00">updated_at </text>
<text text-anchor="start" x="168.65" y="-58.4" font-family="Arial" font-size="14.00" fill="#666666">[datetime]</text>
<polygon fill="none" stroke="black" stroke-width="3" points="86.19,-44.7 86.19,-206.5 326.65,-206.5 326.65,-44.7 86.19,-44.7"/>
</g>
<!-- electricity_notify_settings -->
<g id="node2" class="node">
<title>electricity_notify_settings</title>
<polygon fill="#efefef" stroke="none" points="43.2,-607.6 43.2,-643.2 369.64,-643.2 369.64,-607.6 43.2,-607.6"/>
<polygon fill="none" stroke="black" points="43.2,-607.6 43.2,-643.2 369.64,-643.2 369.64,-607.6 43.2,-607.6"/>
<text text-anchor="start" x="50.2" y="-621" font-family="Arial Bold" font-size="18.00">electricity_notify_settings</text>
<text text-anchor="start" x="238.15" y="-621" font-family="Arial" font-size="14.00">    </text>
<text text-anchor="start" x="269.27" y="-621" font-family="Arial" font-size="14.00" fill="#666666">[BASE TABLE]</text>
<polygon fill="none" stroke="black" points="43.2,-576.8 43.2,-607.6 369.64,-607.6 369.64,-576.8 43.2,-576.8"/>
<text text-anchor="start" x="50.2" y="-589" font-family="Arial" font-size="14.00">id </text>
<text text-anchor="start" x="64.99" y="-589" font-family="Arial" font-size="14.00" fill="#666666">[bigint(20) unsigned]</text>
<polygon fill="none" stroke="black" points="43.2,-546 43.2,-576.8 369.64,-576.8 369.64,-546 43.2,-546"/>
<text text-anchor="start" x="50.2" y="-558.2" font-family="Arial" font-size="14.00">electricity_fetch_setting_id </text>
<text text-anchor="start" x="218.29" y="-558.2" font-family="Arial" font-size="14.00" fill="#666666">[bigint(20) unsigned]</text>
<polygon fill="none" stroke="black" points="43.2,-515.2 43.2,-546 369.64,-546 369.64,-515.2 43.2,-515.2"/>
<text text-anchor="start" x="50.2" y="-527.4" font-family="Arial" font-size="14.00">line_channel_id </text>
<text text-anchor="start" x="151.39" y="-527.4" font-family="Arial" font-size="14.00" fill="#666666">[varchar(256)]</text>
<polygon fill="none" stroke="black" points="43.2,-484.4 43.2,-515.2 369.64,-515.2 369.64,-484.4 43.2,-484.4"/>
<text text-anchor="start" x="50.2" y="-496.6" font-family="Arial" font-size="14.00">advisor_id </text>
<text text-anchor="start" x="117.9" y="-496.6" font-family="Arial" font-size="14.00" fill="#666666">[bigint(20) unsigned]</text>
<polygon fill="none" stroke="black" points="43.2,-453.6 43.2,-484.4 369.64,-484.4 369.64,-453.6 43.2,-453.6"/>
<text text-anchor="start" x="50.2" y="-465.8" font-family="Arial" font-size="14.00">notify_date </text>
<text text-anchor="start" x="122.59" y="-465.8" font-family="Arial" font-size="14.00" fill="#666666">[tinyint(3) unsigned]</text>
<polygon fill="none" stroke="black" points="43.2,-422.8 43.2,-453.6 369.64,-453.6 369.64,-422.8 43.2,-422.8"/>
<text text-anchor="start" x="50.2" y="-435" font-family="Arial" font-size="14.00">notify_enable </text>
<text text-anchor="start" x="137.38" y="-435" font-family="Arial" font-size="14.00" fill="#666666">[tinyint(1)]</text>
<polygon fill="none" stroke="black" points="43.2,-392 43.2,-422.8 369.64,-422.8 369.64,-392 43.2,-392"/>
<text text-anchor="start" x="50.2" y="-404.2" font-family="Arial" font-size="14.00">template </text>
<text text-anchor="start" x="107.79" y="-404.2" font-family="Arial" font-size="14.00" fill="#666666">[text]</text>
<polygon fill="none" stroke="black" points="43.2,-361.2 43.2,-392 369.64,-392 369.64,-361.2 43.2,-361.2"/>
<text text-anchor="start" x="50.2" y="-373.4" font-family="Arial" font-size="14.00">created_at </text>
<text text-anchor="start" x="120.25" y="-373.4" font-family="Arial" font-size="14.00" fill="#666666">[datetime]</text>
<polygon fill="none" stroke="black" points="43.2,-330.4 43.2,-361.2 369.64,-361.2 369.64,-330.4 43.2,-330.4"/>
<text text-anchor="start" x="50.2" y="-342.6" font-family="Arial" font-size="14.00">updated_at </text>
<text text-anchor="start" x="124.16" y="-342.6" font-family="Arial" font-size="14.00" fill="#666666">[datetime]</text>
</g>
<!-- electricity_notify_settings&#45;&gt;line_channels -->
<g id="edge1" class="edge">
<title>electricity_notify_settings:line_channel_id&#45;&gt;line_channels:id</title>
<path fill="none" stroke="black" d="M380.8,-528.57C451.02,-498.93 406.8,-154 326.15,-154"/>
<polygon fill="black" stroke="black" points="380.78,-528.58 370.09,-526.12 375.55,-529.62 371.3,-530.47 371.3,-530.47 371.3,-530.47 375.55,-529.62 371.85,-534.95 380.78,-528.58"/>
<text text-anchor="start" x="377.64" y="-540.6" font-family="Arial" font-size="10.00">FOREIGN KEY (line_channel_id) REFERENCES line_channels (id)</text>
</g>
</g>
</svg>
