<?xml version="1.0" encoding="UTF-8" standalone="no"?>
<!DOCTYPE svg PUBLIC "-//W3C//DTD SVG 1.1//EN"
 "http://www.w3.org/Graphics/SVG/1.1/DTD/svg11.dtd">
<!-- Generated by graphviz version 2.40.1 (20161225.0304)
 -->
<!-- Title: monthly_costs Pages: 1 -->
<svg width="596pt" height="592pt"
 viewBox="0.00 0.00 596.00 592.00" xmlns="http://www.w3.org/2000/svg" xmlns:xlink="http://www.w3.org/1999/xlink">
<g id="graph0" class="graph" transform="scale(1 1) rotate(0) translate(4 588)">
<title>monthly_costs</title>
<polygon fill="#ffffff" stroke="transparent" points="-4,4 -4,-588 592,-588 592,4 -4,4"/>
<!-- monthly_costs -->
<g id="node1" class="node">
<title>monthly_costs</title>
<polygon fill="#efefef" stroke="transparent" points="286,-502.5 286,-537.5 542,-537.5 542,-502.5 286,-502.5"/>
<polygon fill="none" stroke="#000000" points="286,-502.5 286,-537.5 542,-537.5 542,-502.5 286,-502.5"/>
<text text-anchor="start" x="292.7051" y="-515.3" font-family="Arial Bold" font-size="18.00" fill="#000000">monthly_costs</text>
<text text-anchor="start" x="407.7269" y="-515.3" font-family="Arial" font-size="14.00" fill="#000000">    </text>
<text text-anchor="start" x="441.9317" y="-515.3" font-family="Arial" font-size="14.00" fill="#666666">[BASE TABLE]</text>
<polygon fill="none" stroke="#000000" points="286,-472.5 286,-502.5 542,-502.5 542,-472.5 286,-472.5"/>
<text text-anchor="start" x="293" y="-483.9" font-family="Arial" font-size="14.00" fill="#000000">cost_type_id </text>
<text text-anchor="start" x="375.474" y="-483.9" font-family="Arial" font-size="14.00" fill="#666666">[bigint(20) unsigned]</text>
<polygon fill="none" stroke="#000000" points="286,-442.5 286,-472.5 542,-472.5 542,-442.5 286,-442.5"/>
<text text-anchor="start" x="293" y="-453.9" font-family="Arial" font-size="14.00" fill="#000000">cost_year </text>
<text text-anchor="start" x="357.5722" y="-453.9" font-family="Arial" font-size="14.00" fill="#666666">[int(10) unsigned]</text>
<polygon fill="none" stroke="#000000" points="286,-412.5 286,-442.5 542,-442.5 542,-412.5 286,-412.5"/>
<text text-anchor="start" x="293" y="-423.9" font-family="Arial" font-size="14.00" fill="#000000">cost_month </text>
<text text-anchor="start" x="369.2454" y="-423.9" font-family="Arial" font-size="14.00" fill="#666666">[int(10) unsigned]</text>
<polygon fill="none" stroke="#000000" points="286,-382.5 286,-412.5 542,-412.5 542,-382.5 286,-382.5"/>
<text text-anchor="start" x="293" y="-393.9" font-family="Arial" font-size="14.00" fill="#000000">cost_yen </text>
<text text-anchor="start" x="352.9116" y="-393.9" font-family="Arial" font-size="14.00" fill="#666666">[int(10) unsigned]</text>
<polygon fill="none" stroke="#000000" points="286,-352.5 286,-382.5 542,-382.5 542,-352.5 286,-352.5"/>
<text text-anchor="start" x="293" y="-363.9" font-family="Arial" font-size="14.00" fill="#000000">created_at </text>
<text text-anchor="start" x="363.028" y="-363.9" font-family="Arial" font-size="14.00" fill="#666666">[datetime]</text>
<polygon fill="none" stroke="#000000" points="286,-322.5 286,-352.5 542,-352.5 542,-322.5 286,-322.5"/>
<text text-anchor="start" x="293" y="-333.9" font-family="Arial" font-size="14.00" fill="#000000">updated_at </text>
<text text-anchor="start" x="366.9326" y="-333.9" font-family="Arial" font-size="14.00" fill="#666666">[datetime]</text>
<polygon fill="none" stroke="#000000" stroke-width="3" points="284.5,-321.5 284.5,-539.5 543.5,-539.5 543.5,-321.5 284.5,-321.5"/>
</g>
<!-- cost_types -->
<g id="node2" class="node">
<title>cost_types</title>
<polygon fill="#efefef" stroke="transparent" points="300,-162.5 300,-197.5 527,-197.5 527,-162.5 300,-162.5"/>
<polygon fill="none" stroke="#000000" points="300,-162.5 300,-197.5 527,-197.5 527,-162.5 300,-162.5"/>
<text text-anchor="start" x="306.7014" y="-175.3" font-family="Arial Bold" font-size="18.00" fill="#000000">cost_types</text>
<text text-anchor="start" x="392.7306" y="-175.3" font-family="Arial" font-size="14.00" fill="#000000">    </text>
<text text-anchor="start" x="426.9354" y="-175.3" font-family="Arial" font-size="14.00" fill="#666666">[BASE TABLE]</text>
<polygon fill="none" stroke="#000000" points="300,-132.5 300,-162.5 527,-162.5 527,-132.5 300,-132.5"/>
<text text-anchor="start" x="307" y="-143.9" font-family="Arial" font-size="14.00" fill="#000000">id    </text>
<text text-anchor="start" x="352.094" y="-143.9" font-family="Arial" font-size="14.00" fill="#666666">[bigint(20) unsigned]</text>
<polygon fill="none" stroke="#000000" points="300,-102.5 300,-132.5 527,-132.5 527,-102.5 300,-102.5"/>
<text text-anchor="start" x="307" y="-113.9" font-family="Arial" font-size="14.00" fill="#000000">type_name    </text>
<text text-anchor="start" x="410.4516" y="-113.9" font-family="Arial" font-size="14.00" fill="#666666">[varchar(255)]</text>
<polygon fill="none" stroke="#000000" points="300,-72.5 300,-102.5 527,-102.5 527,-72.5 300,-72.5"/>
<text text-anchor="start" x="307" y="-83.9" font-family="Arial" font-size="14.00" fill="#000000">created_at    </text>
<text text-anchor="start" x="407.3422" y="-83.9" font-family="Arial" font-size="14.00" fill="#666666">[datetime]</text>
<polygon fill="none" stroke="#000000" points="300,-42.5 300,-72.5 527,-72.5 527,-42.5 300,-42.5"/>
<text text-anchor="start" x="307" y="-53.9" font-family="Arial" font-size="14.00" fill="#000000">updated_at    </text>
<text text-anchor="start" x="411.2468" y="-53.9" font-family="Arial" font-size="14.00" fill="#666666">[datetime]</text>
</g>
<!-- monthly_costs&#45;&gt;cost_types -->
<g id="edge1" class="edge">
<title>monthly_costs:cost_type_id&#45;&gt;cost_types:id</title>
<path fill="none" stroke="#000000" d="M275.6076,-486.8733C195.0259,-476.6965 227.3138,-345.1038 286,-277 356.6965,-194.9586 456.3035,-323.0414 527,-241 554.1269,-209.5199 568.5556,-147.5 527,-147.5"/>
<polygon fill="#000000" stroke="#000000" points="276.0181,-486.8979 285.7291,-491.9918 281.0091,-487.199 286,-487.5 286,-487.5 286,-487.5 281.0091,-487.199 286.2709,-483.0082 276.0181,-486.8979 276.0181,-486.8979"/>
<text text-anchor="start" x="6.598" y="-497.5" font-family="Arial" font-size="10.00" fill="#000000">FOREIGN KEY (cost_type_id) REFERENCES cost_types (id)</text>
</g>
</g>
</svg>
