<?xml version="1.0" encoding="UTF-8" standalone="no"?>
<!DOCTYPE svg PUBLIC "-//W3C//DTD SVG 1.1//EN"
 "http://www.w3.org/Graphics/SVG/1.1/DTD/svg11.dtd">
<!-- Generated by graphviz version 12.1.2 (20240928.0832)
 -->
<!-- Title: monthly_costs Pages: 1 -->
<svg width="586pt" height="602pt"
 viewBox="0.00 0.00 585.55 602.00" xmlns="http://www.w3.org/2000/svg" xmlns:xlink="http://www.w3.org/1999/xlink">
<g id="graph0" class="graph" transform="scale(1 1) rotate(0) translate(4 598)">
<title>monthly_costs</title>
<polygon fill="white" stroke="none" points="-4,4 -4,-598 581.55,-598 581.55,4 -4,4"/>
<!-- monthly_costs -->
<g id="node1" class="node">
<title>monthly_costs</title>
<polygon fill="#efefef" stroke="none" points="46.2,-512.2 46.2,-547.8 289.69,-547.8 289.69,-512.2 46.2,-512.2"/>
<polygon fill="none" stroke="black" points="46.2,-512.2 46.2,-547.8 289.69,-547.8 289.69,-512.2 46.2,-512.2"/>
<text text-anchor="start" x="53.2" y="-525.6" font-family="Arial Bold" font-size="18.00">monthly_costs</text>
<text text-anchor="start" x="158.2" y="-525.6" font-family="Arial" font-size="14.00">    </text>
<text text-anchor="start" x="189.32" y="-525.6" font-family="Arial" font-size="14.00" fill="#666666">[BASE TABLE]</text>
<polygon fill="none" stroke="black" points="46.2,-481.4 46.2,-512.2 289.69,-512.2 289.69,-481.4 46.2,-481.4"/>
<text text-anchor="start" x="53.2" y="-493.6" font-family="Arial" font-size="14.00">cost_type_id </text>
<text text-anchor="start" x="135.7" y="-493.6" font-family="Arial" font-size="14.00" fill="#666666">[bigint(20) unsigned]</text>
<polygon fill="none" stroke="black" points="46.2,-450.6 46.2,-481.4 289.69,-481.4 289.69,-450.6 46.2,-450.6"/>
<text text-anchor="start" x="53.2" y="-462.8" font-family="Arial" font-size="14.00">cost_year </text>
<text text-anchor="start" x="117.79" y="-462.8" font-family="Arial" font-size="14.00" fill="#666666">[int(10) unsigned]</text>
<polygon fill="none" stroke="black" points="46.2,-419.8 46.2,-450.6 289.69,-450.6 289.69,-419.8 46.2,-419.8"/>
<text text-anchor="start" x="53.2" y="-432" font-family="Arial" font-size="14.00">cost_month </text>
<text text-anchor="start" x="129.46" y="-432" font-family="Arial" font-size="14.00" fill="#666666">[int(10) unsigned]</text>
<polygon fill="none" stroke="black" points="46.2,-389 46.2,-419.8 289.69,-419.8 289.69,-389 46.2,-389"/>
<text text-anchor="start" x="53.2" y="-401.2" font-family="Arial" font-size="14.00">cost_yen </text>
<text text-anchor="start" x="113.12" y="-401.2" font-family="Arial" font-size="14.00" fill="#666666">[int(10) unsigned]</text>
<polygon fill="none" stroke="black" points="46.2,-358.2 46.2,-389 289.69,-389 289.69,-358.2 46.2,-358.2"/>
<text text-anchor="start" x="53.2" y="-370.4" font-family="Arial" font-size="14.00">created_at </text>
<text text-anchor="start" x="123.25" y="-370.4" font-family="Arial" font-size="14.00" fill="#666666">[datetime]</text>
<polygon fill="none" stroke="black" points="46.2,-327.4 46.2,-358.2 289.69,-358.2 289.69,-327.4 46.2,-327.4"/>
<text text-anchor="start" x="53.2" y="-339.6" font-family="Arial" font-size="14.00">updated_at </text>
<text text-anchor="start" x="127.16" y="-339.6" font-family="Arial" font-size="14.00" fill="#666666">[datetime]</text>
<polygon fill="none" stroke="black" stroke-width="3" points="44.7,-325.9 44.7,-549.3 291.19,-549.3 291.19,-325.9 44.7,-325.9"/>
</g>
<!-- cost_types -->
<g id="node2" class="node">
<title>cost_types</title>
<polygon fill="#efefef" stroke="none" points="60.71,-166.4 60.71,-202 275.19,-202 275.19,-166.4 60.71,-166.4"/>
<polygon fill="none" stroke="black" points="60.71,-166.4 60.71,-202 275.19,-202 275.19,-166.4 60.71,-166.4"/>
<text text-anchor="start" x="67.71" y="-179.8" font-family="Arial Bold" font-size="18.00">cost_types</text>
<text text-anchor="start" x="143.7" y="-179.8" font-family="Arial" font-size="14.00">    </text>
<text text-anchor="start" x="174.81" y="-179.8" font-family="Arial" font-size="14.00" fill="#666666">[BASE TABLE]</text>
<polygon fill="none" stroke="black" points="60.71,-135.6 60.71,-166.4 275.19,-166.4 275.19,-135.6 60.71,-135.6"/>
<text text-anchor="start" x="67.71" y="-147.8" font-family="Arial" font-size="14.00">id </text>
<text text-anchor="start" x="82.49" y="-147.8" font-family="Arial" font-size="14.00" fill="#666666">[bigint(20) unsigned]</text>
<polygon fill="none" stroke="black" points="60.71,-104.8 60.71,-135.6 275.19,-135.6 275.19,-104.8 60.71,-104.8"/>
<text text-anchor="start" x="67.71" y="-117" font-family="Arial" font-size="14.00">type_name </text>
<text text-anchor="start" x="140.86" y="-117" font-family="Arial" font-size="14.00" fill="#666666">[varchar(255)]</text>
<polygon fill="none" stroke="black" points="60.71,-74 60.71,-104.8 275.19,-104.8 275.19,-74 60.71,-74"/>
<text text-anchor="start" x="67.71" y="-86.2" font-family="Arial" font-size="14.00">created_at </text>
<text text-anchor="start" x="137.75" y="-86.2" font-family="Arial" font-size="14.00" fill="#666666">[datetime]</text>
<polygon fill="none" stroke="black" points="60.71,-43.2 60.71,-74 275.19,-74 275.19,-43.2 60.71,-43.2"/>
<text text-anchor="start" x="67.71" y="-55.4" font-family="Arial" font-size="14.00">updated_at </text>
<text text-anchor="start" x="141.66" y="-55.4" font-family="Arial" font-size="14.00" fill="#666666">[datetime]</text>
</g>
<!-- monthly_costs&#45;&gt;cost_types -->
<g id="edge1" class="edge">
<title>monthly_costs:cost_type_id&#45;&gt;cost_types:id</title>
<path fill="none" stroke="black" d="M300.51,-494.77C366.17,-466.43 349.64,-151 276.19,-151"/>
<polygon fill="black" stroke="black" points="300.81,-494.71 290.11,-492.33 295.59,-495.79 291.35,-496.66 291.35,-496.66 291.35,-496.66 295.59,-495.79 291.93,-501.14 300.81,-494.71"/>
<text text-anchor="start" x="297.69" y="-506.8" font-family="Arial" font-size="10.00">FOREIGN KEY (cost_type_id) REFERENCES cost_types (id)</text>
</g>
</g>
</svg>
