<?xml version="1.0" encoding="UTF-8" standalone="no"?>
<!DOCTYPE svg PUBLIC "-//W3C//DTD SVG 1.1//EN"
 "http://www.w3.org/Graphics/SVG/1.1/DTD/svg11.dtd">
<!-- Generated by graphviz version 12.1.2 (20240928.0832)
 -->
<!-- Title: notify_status_types Pages: 1 -->
<svg width="713pt" height="633pt"
 viewBox="0.00 0.00 712.64 632.80" xmlns="http://www.w3.org/2000/svg" xmlns:xlink="http://www.w3.org/1999/xlink">
<g id="graph0" class="graph" transform="scale(1 1) rotate(0) translate(4 628.8)">
<title>notify_status_types</title>
<polygon fill="white" stroke="none" points="-4,4 -4,-628.8 708.64,-628.8 708.64,4 -4,4"/>
<!-- notify_status_types -->
<g id="node1" class="node">
<title>notify_status_types</title>
<polygon fill="#efefef" stroke="none" points="67.68,-169.4 67.68,-205 346.16,-205 346.16,-169.4 67.68,-169.4"/>
<polygon fill="none" stroke="black" points="67.68,-169.4 67.68,-205 346.16,-205 346.16,-169.4 67.68,-169.4"/>
<text text-anchor="start" x="74.68" y="-182.8" font-family="Arial Bold" font-size="18.00">notify_status_types</text>
<text text-anchor="start" x="214.67" y="-182.8" font-family="Arial" font-size="14.00">    </text>
<text text-anchor="start" x="245.79" y="-182.8" font-family="Arial" font-size="14.00" fill="#666666">[BASE TABLE]</text>
<polygon fill="none" stroke="black" points="67.68,-138.6 67.68,-169.4 346.16,-169.4 346.16,-138.6 67.68,-138.6"/>
<text text-anchor="start" x="74.68" y="-150.8" font-family="Arial" font-size="14.00">id </text>
<text text-anchor="start" x="89.46" y="-150.8" font-family="Arial" font-size="14.00" fill="#666666">[tinyint(3) unsigned]</text>
<polygon fill="none" stroke="black" points="67.68,-107.8 67.68,-138.6 346.16,-138.6 346.16,-107.8 67.68,-107.8"/>
<text text-anchor="start" x="74.68" y="-120" font-family="Arial" font-size="14.00">type_name </text>
<text text-anchor="start" x="147.84" y="-120" font-family="Arial" font-size="14.00" fill="#666666">[varchar(255)]</text>
<polygon fill="none" stroke="black" points="67.68,-77 67.68,-107.8 346.16,-107.8 346.16,-77 67.68,-77"/>
<text text-anchor="start" x="74.68" y="-89.2" font-family="Arial" font-size="14.00">created_at </text>
<text text-anchor="start" x="144.73" y="-89.2" font-family="Arial" font-size="14.00" fill="#666666">[datetime]</text>
<polygon fill="none" stroke="black" points="67.68,-46.2 67.68,-77 346.16,-77 346.16,-46.2 67.68,-46.2"/>
<text text-anchor="start" x="74.68" y="-58.4" font-family="Arial" font-size="14.00">updated_at </text>
<text text-anchor="start" x="148.64" y="-58.4" font-family="Arial" font-size="14.00" fill="#666666">[datetime]</text>
<polygon fill="none" stroke="black" stroke-width="3" points="66.18,-44.7 66.18,-206.5 347.66,-206.5 347.66,-44.7 66.18,-44.7"/>
</g>
<!-- electricity_notify_statuses -->
<g id="node2" class="node">
<title>electricity_notify_statuses</title>
<polygon fill="#efefef" stroke="none" points="43.2,-546 43.2,-581.6 370.64,-581.6 370.64,-546 43.2,-546"/>
<polygon fill="none" stroke="black" points="43.2,-546 43.2,-581.6 370.64,-581.6 370.64,-546 43.2,-546"/>
<text text-anchor="start" x="50.2" y="-559.4" font-family="Arial Bold" font-size="18.00">electricity_notify_statuses</text>
<text text-anchor="start" x="239.15" y="-559.4" font-family="Arial" font-size="14.00">    </text>
<text text-anchor="start" x="270.26" y="-559.4" font-family="Arial" font-size="14.00" fill="#666666">[BASE TABLE]</text>
<polygon fill="none" stroke="black" points="43.2,-515.2 43.2,-546 370.64,-546 370.64,-515.2 43.2,-515.2"/>
<text text-anchor="start" x="50.2" y="-527.4" font-family="Arial" font-size="14.00">id </text>
<text text-anchor="start" x="64.99" y="-527.4" font-family="Arial" font-size="14.00" fill="#666666">[bigint(20) unsigned]</text>
<polygon fill="none" stroke="black" points="43.2,-484.4 43.2,-515.2 370.64,-515.2 370.64,-484.4 43.2,-484.4"/>
<text text-anchor="start" x="50.2" y="-496.6" font-family="Arial" font-size="14.00">electricity_notify_setting_id </text>
<text text-anchor="start" x="221.4" y="-496.6" font-family="Arial" font-size="14.00" fill="#666666">[bigint(20) unsigned]</text>
<polygon fill="none" stroke="black" points="43.2,-453.6 43.2,-484.4 370.64,-484.4 370.64,-453.6 43.2,-453.6"/>
<text text-anchor="start" x="50.2" y="-465.8" font-family="Arial" font-size="14.00">status_type_id </text>
<text text-anchor="start" x="144.37" y="-465.8" font-family="Arial" font-size="14.00" fill="#666666">[tinyint(3) unsigned]</text>
<polygon fill="none" stroke="black" points="43.2,-422.8 43.2,-453.6 370.64,-453.6 370.64,-422.8 43.2,-422.8"/>
<text text-anchor="start" x="50.2" y="-435" font-family="Arial" font-size="14.00">last_successful_at </text>
<text text-anchor="start" x="168.48" y="-435" font-family="Arial" font-size="14.00" fill="#666666">[datetime]</text>
<polygon fill="none" stroke="black" points="43.2,-392 43.2,-422.8 370.64,-422.8 370.64,-392 43.2,-392"/>
<text text-anchor="start" x="50.2" y="-404.2" font-family="Arial" font-size="14.00">last_failure_at </text>
<text text-anchor="start" x="141.25" y="-404.2" font-family="Arial" font-size="14.00" fill="#666666">[datetime]</text>
<polygon fill="none" stroke="black" points="43.2,-361.2 43.2,-392 370.64,-392 370.64,-361.2 43.2,-361.2"/>
<text text-anchor="start" x="50.2" y="-373.4" font-family="Arial" font-size="14.00">created_at </text>
<text text-anchor="start" x="120.25" y="-373.4" font-family="Arial" font-size="14.00" fill="#666666">[datetime]</text>
<polygon fill="none" stroke="black" points="43.2,-330.4 43.2,-361.2 370.64,-361.2 370.64,-330.4 43.2,-330.4"/>
<text text-anchor="start" x="50.2" y="-342.6" font-family="Arial" font-size="14.00">updated_at </text>
<text text-anchor="start" x="124.16" y="-342.6" font-family="Arial" font-size="14.00" fill="#666666">[datetime]</text>
</g>
<!-- electricity_notify_statuses&#45;&gt;notify_status_types -->
<g id="edge1" class="edge">
<title>electricity_notify_statuses:status_type_id&#45;&gt;notify_status_types:id</title>
<path fill="none" stroke="black" d="M381.61,-466.65C439.24,-437.82 413.8,-154 347.16,-154"/>
<polygon fill="black" stroke="black" points="381.69,-466.62 370.93,-464.54 376.5,-467.85 372.29,-468.85 372.29,-468.85 372.29,-468.85 376.5,-467.85 373,-473.3 381.69,-466.62"/>
<text text-anchor="start" x="378.64" y="-479" font-family="Arial" font-size="10.00">FOREIGN KEY (status_type_id) REFERENCES notify_status_types (id)</text>
</g>
</g>
</svg>
