<?xml version="1.0" encoding="UTF-8" standalone="no"?>
<!DOCTYPE svg PUBLIC "-//W3C//DTD SVG 1.1//EN"
 "http://www.w3.org/Graphics/SVG/1.1/DTD/svg11.dtd">
<!-- Generated by graphviz version 2.40.1 (20161225.0304)
 -->
<!-- Title: notify_status_types Pages: 1 -->
<svg width="729pt" height="622pt"
 viewBox="0.00 0.00 729.00 622.00" xmlns="http://www.w3.org/2000/svg" xmlns:xlink="http://www.w3.org/1999/xlink">
<g id="graph0" class="graph" transform="scale(1 1) rotate(0) translate(4 618)">
<title>notify_status_types</title>
<polygon fill="#ffffff" stroke="transparent" points="-4,4 -4,-618 725,-618 725,4 -4,4"/>
<!-- notify_status_types -->
<g id="node1" class="node">
<title>notify_status_types</title>
<polygon fill="#efefef" stroke="transparent" points="357,-165.5 357,-200.5 652,-200.5 652,-165.5 357,-165.5"/>
<polygon fill="none" stroke="#000000" points="357,-165.5 357,-200.5 652,-200.5 652,-165.5 357,-165.5"/>
<text text-anchor="start" x="363.6886" y="-178.3" font-family="Arial Bold" font-size="18.00" fill="#000000">notify_status_types</text>
<text text-anchor="start" x="517.7434" y="-178.3" font-family="Arial" font-size="14.00" fill="#000000">    </text>
<text text-anchor="start" x="551.9482" y="-178.3" font-family="Arial" font-size="14.00" fill="#666666">[BASE TABLE]</text>
<polygon fill="none" stroke="#000000" points="357,-135.5 357,-165.5 652,-165.5 652,-135.5 357,-135.5"/>
<text text-anchor="start" x="364" y="-146.9" font-family="Arial" font-size="14.00" fill="#000000">id </text>
<text text-anchor="start" x="378.7798" y="-146.9" font-family="Arial" font-size="14.00" fill="#666666">[tinyint(3) unsigned]</text>
<polygon fill="none" stroke="#000000" points="357,-105.5 357,-135.5 652,-135.5 652,-105.5 357,-105.5"/>
<text text-anchor="start" x="364" y="-116.9" font-family="Arial" font-size="14.00" fill="#000000">type_name </text>
<text text-anchor="start" x="437.1374" y="-116.9" font-family="Arial" font-size="14.00" fill="#666666">[varchar(255)]</text>
<polygon fill="none" stroke="#000000" points="357,-75.5 357,-105.5 652,-105.5 652,-75.5 357,-75.5"/>
<text text-anchor="start" x="364" y="-86.9" font-family="Arial" font-size="14.00" fill="#000000">created_at </text>
<text text-anchor="start" x="434.028" y="-86.9" font-family="Arial" font-size="14.00" fill="#666666">[datetime]</text>
<polygon fill="none" stroke="#000000" points="357,-45.5 357,-75.5 652,-75.5 652,-45.5 357,-45.5"/>
<text text-anchor="start" x="364" y="-56.9" font-family="Arial" font-size="14.00" fill="#000000">updated_at </text>
<text text-anchor="start" x="437.9326" y="-56.9" font-family="Arial" font-size="14.00" fill="#666666">[datetime]</text>
<polygon fill="none" stroke="#000000" stroke-width="3" points="355,-44.5 355,-202.5 653,-202.5 653,-44.5 355,-44.5"/>
</g>
<!-- electricity_notify_statuses -->
<g id="node2" class="node">
<title>electricity_notify_statuses</title>
<polygon fill="#efefef" stroke="transparent" points="332,-535.5 332,-570.5 678,-570.5 678,-535.5 332,-535.5"/>
<polygon fill="none" stroke="#000000" points="332,-535.5 332,-570.5 678,-570.5 678,-535.5 332,-535.5"/>
<text text-anchor="start" x="338.697" y="-548.3" font-family="Arial Bold" font-size="18.00" fill="#000000">electricity_notify_statuses</text>
<text text-anchor="start" x="543.735" y="-548.3" font-family="Arial" font-size="14.00" fill="#000000">    </text>
<text text-anchor="start" x="577.9398" y="-548.3" font-family="Arial" font-size="14.00" fill="#666666">[BASE TABLE]</text>
<polygon fill="none" stroke="#000000" points="332,-505.5 332,-535.5 678,-535.5 678,-505.5 332,-505.5"/>
<text text-anchor="start" x="339" y="-516.9" font-family="Arial" font-size="14.00" fill="#000000">id    </text>
<text text-anchor="start" x="384.094" y="-516.9" font-family="Arial" font-size="14.00" fill="#666666">[bigint(20) unsigned]</text>
<polygon fill="none" stroke="#000000" points="332,-475.5 332,-505.5 678,-505.5 678,-475.5 332,-475.5"/>
<text text-anchor="start" x="339" y="-486.9" font-family="Arial" font-size="14.00" fill="#000000">electricity_notify_setting_id    </text>
<text text-anchor="start" x="540.4572" y="-486.9" font-family="Arial" font-size="14.00" fill="#666666">[bigint(20) unsigned]</text>
<polygon fill="none" stroke="#000000" points="332,-445.5 332,-475.5 678,-475.5 678,-445.5 332,-445.5"/>
<text text-anchor="start" x="339" y="-456.9" font-family="Arial" font-size="14.00" fill="#000000">status_type_id    </text>
<text text-anchor="start" x="463.4614" y="-456.9" font-family="Arial" font-size="14.00" fill="#666666">[tinyint(3) unsigned]</text>
<polygon fill="none" stroke="#000000" points="332,-415.5 332,-445.5 678,-445.5 678,-415.5 332,-415.5"/>
<text text-anchor="start" x="339" y="-426.9" font-family="Arial" font-size="14.00" fill="#000000">last_successful_at    </text>
<text text-anchor="start" x="487.568" y="-426.9" font-family="Arial" font-size="14.00" fill="#666666">[datetime]</text>
<polygon fill="none" stroke="#000000" points="332,-385.5 332,-415.5 678,-415.5 678,-385.5 332,-385.5"/>
<text text-anchor="start" x="339" y="-396.9" font-family="Arial" font-size="14.00" fill="#000000">last_failure_at    </text>
<text text-anchor="start" x="460.3352" y="-396.9" font-family="Arial" font-size="14.00" fill="#666666">[datetime]</text>
<polygon fill="none" stroke="#000000" points="332,-355.5 332,-385.5 678,-385.5 678,-355.5 332,-355.5"/>
<text text-anchor="start" x="339" y="-366.9" font-family="Arial" font-size="14.00" fill="#000000">created_at    </text>
<text text-anchor="start" x="439.3422" y="-366.9" font-family="Arial" font-size="14.00" fill="#666666">[datetime]</text>
<polygon fill="none" stroke="#000000" points="332,-325.5 332,-355.5 678,-355.5 678,-325.5 332,-325.5"/>
<text text-anchor="start" x="339" y="-336.9" font-family="Arial" font-size="14.00" fill="#000000">updated_at    </text>
<text text-anchor="start" x="443.2468" y="-336.9" font-family="Arial" font-size="14.00" fill="#666666">[datetime]</text>
</g>
<!-- electricity_notify_statuses&#45;&gt;notify_status_types -->
<g id="edge1" class="edge">
<title>electricity_notify_statuses:status_type_id&#45;&gt;notify_status_types:id</title>
<path fill="none" stroke="#000000" d="M321.9982,-459.7977C255.5285,-449.958 281.7893,-339.1762 332,-283 427.3762,-176.2923 556.6238,-353.7077 652,-247 680.5816,-215.0227 694.8889,-150.5 652,-150.5"/>
<polygon fill="#000000" stroke="#000000" points="322.0246,-459.7995 331.6848,-464.9889 327.0123,-460.1497 332,-460.5 332,-460.5 332,-460.5 327.0123,-460.1497 332.3152,-456.0111 322.0246,-459.7995 322.0246,-459.7995"/>
<text text-anchor="start" x="6.533" y="-470.5" font-family="Arial" font-size="10.00" fill="#000000">FOREIGN KEY (status_type_id) REFERENCES notify_status_types (id)</text>
</g>
</g>
</svg>
