<?xml version="1.0" encoding="UTF-8" standalone="no"?>
<!DOCTYPE svg PUBLIC "-//W3C//DTD SVG 1.1//EN"
 "http://www.w3.org/Graphics/SVG/1.1/DTD/svg11.dtd">
<!-- Generated by graphviz version 2.40.1 (20161225.0304)
 -->
<!-- Title: my&#45;home Pages: 1 -->
<svg width="3143pt" height="736pt"
 viewBox="0.00 0.00 3143.00 736.00" xmlns="http://www.w3.org/2000/svg" xmlns:xlink="http://www.w3.org/1999/xlink">
<g id="graph0" class="graph" transform="scale(1 1) rotate(0) translate(4 732)">
<title>my&#45;home</title>
<polygon fill="#ffffff" stroke="transparent" points="-4,4 -4,-732 3139,-732 3139,4 -4,4"/>
<!-- admin_users -->
<g id="node1" class="node">
<title>admin_users</title>
<polygon fill="#efefef" stroke="transparent" points="43,-589.5 43,-624.5 287,-624.5 287,-589.5 43,-589.5"/>
<polygon fill="none" stroke="#000000" points="43,-589.5 43,-624.5 287,-624.5 287,-589.5 43,-589.5"/>
<text text-anchor="start" x="49.7081" y="-602.3" font-family="Arial Bold" font-size="18.00" fill="#000000">admin_users</text>
<text text-anchor="start" x="152.7239" y="-602.3" font-family="Arial" font-size="14.00" fill="#000000">    </text>
<text text-anchor="start" x="186.9287" y="-602.3" font-family="Arial" font-size="14.00" fill="#666666">[BASE TABLE]</text>
<polygon fill="none" stroke="#000000" points="43,-559.5 43,-589.5 287,-589.5 287,-559.5 43,-559.5"/>
<text text-anchor="start" x="50" y="-570.9" font-family="Arial" font-size="14.00" fill="#000000">id    </text>
<text text-anchor="start" x="95.094" y="-570.9" font-family="Arial" font-size="14.00" fill="#666666">[bigint(20) unsigned]</text>
<polygon fill="none" stroke="#000000" points="43,-529.5 43,-559.5 287,-559.5 287,-529.5 43,-529.5"/>
<text text-anchor="start" x="50" y="-540.9" font-family="Arial" font-size="14.00" fill="#000000">user_name    </text>
<text text-anchor="start" x="154.2216" y="-540.9" font-family="Arial" font-size="14.00" fill="#666666">[varchar(255)]</text>
<polygon fill="none" stroke="#000000" points="43,-499.5 43,-529.5 287,-529.5 287,-499.5 43,-499.5"/>
<text text-anchor="start" x="50" y="-510.9" font-family="Arial" font-size="14.00" fill="#000000">password_hash    </text>
<text text-anchor="start" x="182.2328" y="-510.9" font-family="Arial" font-size="14.00" fill="#666666">[varchar(512)]</text>
<polygon fill="none" stroke="#000000" points="43,-469.5 43,-499.5 287,-499.5 287,-469.5 43,-469.5"/>
<text text-anchor="start" x="50" y="-480.9" font-family="Arial" font-size="14.00" fill="#000000">created_at    </text>
<text text-anchor="start" x="150.3422" y="-480.9" font-family="Arial" font-size="14.00" fill="#666666">[datetime]</text>
<polygon fill="none" stroke="#000000" points="43,-439.5 43,-469.5 287,-469.5 287,-439.5 43,-439.5"/>
<text text-anchor="start" x="50" y="-450.9" font-family="Arial" font-size="14.00" fill="#000000">updated_at    </text>
<text text-anchor="start" x="154.2468" y="-450.9" font-family="Arial" font-size="14.00" fill="#666666">[datetime]</text>
</g>
<!-- app_statuses -->
<g id="node2" class="node">
<title>app_statuses</title>
<polygon fill="#efefef" stroke="transparent" points="391,-619.5 391,-654.5 651,-654.5 651,-619.5 391,-619.5"/>
<polygon fill="none" stroke="#000000" points="391,-619.5 391,-654.5 651,-654.5 651,-619.5 391,-619.5"/>
<text text-anchor="start" x="403.6921" y="-632.3" font-family="Arial Bold" font-size="18.00" fill="#000000">app_statuses</text>
<text text-anchor="start" x="510.7399" y="-632.3" font-family="Arial" font-size="14.00" fill="#000000">    </text>
<text text-anchor="start" x="544.9447" y="-632.3" font-family="Arial" font-size="14.00" fill="#666666">[BASE TABLE]</text>
<polygon fill="none" stroke="#000000" points="391,-589.5 391,-619.5 651,-619.5 651,-589.5 391,-589.5"/>
<text text-anchor="start" x="398" y="-600.9" font-family="Arial" font-size="14.00" fill="#000000">id    </text>
<text text-anchor="start" x="443.094" y="-600.9" font-family="Arial" font-size="14.00" fill="#666666">[bigint(20) unsigned]</text>
<polygon fill="none" stroke="#000000" points="391,-559.5 391,-589.5 651,-589.5 651,-559.5 391,-559.5"/>
<text text-anchor="start" x="398" y="-570.9" font-family="Arial" font-size="14.00" fill="#000000">app_name    </text>
<text text-anchor="start" x="498.3436" y="-570.9" font-family="Arial" font-size="14.00" fill="#666666">[varchar(255)]</text>
<polygon fill="none" stroke="#000000" points="391,-529.5 391,-559.5 651,-559.5 651,-529.5 391,-529.5"/>
<text text-anchor="start" x="397.7006" y="-540.9" font-family="Arial" font-size="14.00" fill="#000000">status_type_id    </text>
<text text-anchor="start" x="522.162" y="-540.9" font-family="Arial" font-size="14.00" fill="#666666">[tinyint(3) unsigned]</text>
<polygon fill="none" stroke="#000000" points="391,-499.5 391,-529.5 651,-529.5 651,-499.5 391,-499.5"/>
<text text-anchor="start" x="398" y="-510.9" font-family="Arial" font-size="14.00" fill="#000000">last_successful_at    </text>
<text text-anchor="start" x="546.568" y="-510.9" font-family="Arial" font-size="14.00" fill="#666666">[datetime]</text>
<polygon fill="none" stroke="#000000" points="391,-469.5 391,-499.5 651,-499.5 651,-469.5 391,-469.5"/>
<text text-anchor="start" x="398" y="-480.9" font-family="Arial" font-size="14.00" fill="#000000">last_failure_at    </text>
<text text-anchor="start" x="519.3352" y="-480.9" font-family="Arial" font-size="14.00" fill="#666666">[datetime]</text>
<polygon fill="none" stroke="#000000" points="391,-439.5 391,-469.5 651,-469.5 651,-439.5 391,-439.5"/>
<text text-anchor="start" x="398" y="-450.9" font-family="Arial" font-size="14.00" fill="#000000">created_at    </text>
<text text-anchor="start" x="498.3422" y="-450.9" font-family="Arial" font-size="14.00" fill="#666666">[datetime]</text>
<polygon fill="none" stroke="#000000" points="391,-409.5 391,-439.5 651,-439.5 651,-409.5 391,-409.5"/>
<text text-anchor="start" x="398" y="-420.9" font-family="Arial" font-size="14.00" fill="#000000">updated_at    </text>
<text text-anchor="start" x="502.2468" y="-420.9" font-family="Arial" font-size="14.00" fill="#666666">[datetime]</text>
</g>
<!-- app_status_types -->
<g id="node3" class="node">
<title>app_status_types</title>
<polygon fill="#efefef" stroke="transparent" points="380,-192.5 380,-227.5 662,-227.5 662,-192.5 380,-192.5"/>
<polygon fill="none" stroke="#000000" points="380,-192.5 380,-227.5 662,-227.5 662,-192.5 380,-192.5"/>
<text text-anchor="start" x="386.6848" y="-205.3" font-family="Arial Bold" font-size="18.00" fill="#000000">app_status_types</text>
<text text-anchor="start" x="527.7472" y="-205.3" font-family="Arial" font-size="14.00" fill="#000000">    </text>
<text text-anchor="start" x="561.952" y="-205.3" font-family="Arial" font-size="14.00" fill="#666666">[BASE TABLE]</text>
<polygon fill="none" stroke="#000000" points="380,-162.5 380,-192.5 662,-192.5 662,-162.5 380,-162.5"/>
<text text-anchor="start" x="387" y="-173.9" font-family="Arial" font-size="14.00" fill="#000000">id    </text>
<text text-anchor="start" x="432.094" y="-173.9" font-family="Arial" font-size="14.00" fill="#666666">[tinyint(3) unsigned]</text>
<polygon fill="none" stroke="#000000" points="380,-132.5 380,-162.5 662,-162.5 662,-132.5 380,-132.5"/>
<text text-anchor="start" x="387" y="-143.9" font-family="Arial" font-size="14.00" fill="#000000">type_name    </text>
<text text-anchor="start" x="490.4516" y="-143.9" font-family="Arial" font-size="14.00" fill="#666666">[varchar(255)]</text>
<polygon fill="none" stroke="#000000" points="380,-102.5 380,-132.5 662,-132.5 662,-102.5 380,-102.5"/>
<text text-anchor="start" x="387" y="-113.9" font-family="Arial" font-size="14.00" fill="#000000">created_at    </text>
<text text-anchor="start" x="487.3422" y="-113.9" font-family="Arial" font-size="14.00" fill="#666666">[datetime]</text>
<polygon fill="none" stroke="#000000" points="380,-72.5 380,-102.5 662,-102.5 662,-72.5 380,-72.5"/>
<text text-anchor="start" x="387" y="-83.9" font-family="Arial" font-size="14.00" fill="#000000">updated_at    </text>
<text text-anchor="start" x="491.2468" y="-83.9" font-family="Arial" font-size="14.00" fill="#666666">[datetime]</text>
</g>
<!-- app_statuses&#45;&gt;app_status_types -->
<g id="edge1" class="edge">
<title>app_statuses:status_type_id&#45;&gt;app_status_types:id</title>
<path fill="none" stroke="#000000" d="M659.5821,-538.7353C693.1436,-492.045 699.7683,-177.5 662,-177.5"/>
<polygon fill="#000000" stroke="#000000" points="659.3011,-538.924 648.4908,-540.7645 655.1506,-541.712 651,-544.5 651,-544.5 651,-544.5 655.1506,-541.712 653.5092,-548.2355 659.3011,-538.924 659.3011,-538.924"/>
<text text-anchor="start" x="495.642" y="-528.5" font-family="Arial" font-size="10.00" fill="#000000">FOREIGN KEY (status_type_id) REFERENCES app_status_types (id)</text>
</g>
<!-- cost_types -->
<g id="node4" class="node">
<title>cost_types</title>
<polygon fill="#efefef" stroke="transparent" points="769,-192.5 769,-227.5 996,-227.5 996,-192.5 769,-192.5"/>
<polygon fill="none" stroke="#000000" points="769,-192.5 769,-227.5 996,-227.5 996,-192.5 769,-192.5"/>
<text text-anchor="start" x="775.7014" y="-205.3" font-family="Arial Bold" font-size="18.00" fill="#000000">cost_types</text>
<text text-anchor="start" x="861.7306" y="-205.3" font-family="Arial" font-size="14.00" fill="#000000">    </text>
<text text-anchor="start" x="895.9354" y="-205.3" font-family="Arial" font-size="14.00" fill="#666666">[BASE TABLE]</text>
<polygon fill="none" stroke="#000000" points="769,-162.5 769,-192.5 996,-192.5 996,-162.5 769,-162.5"/>
<text text-anchor="start" x="776" y="-173.9" font-family="Arial" font-size="14.00" fill="#000000">id    </text>
<text text-anchor="start" x="821.094" y="-173.9" font-family="Arial" font-size="14.00" fill="#666666">[bigint(20) unsigned]</text>
<polygon fill="none" stroke="#000000" points="769,-132.5 769,-162.5 996,-162.5 996,-132.5 769,-132.5"/>
<text text-anchor="start" x="776" y="-143.9" font-family="Arial" font-size="14.00" fill="#000000">type_name    </text>
<text text-anchor="start" x="879.4516" y="-143.9" font-family="Arial" font-size="14.00" fill="#666666">[varchar(255)]</text>
<polygon fill="none" stroke="#000000" points="769,-102.5 769,-132.5 996,-132.5 996,-102.5 769,-102.5"/>
<text text-anchor="start" x="776" y="-113.9" font-family="Arial" font-size="14.00" fill="#000000">created_at    </text>
<text text-anchor="start" x="876.3422" y="-113.9" font-family="Arial" font-size="14.00" fill="#666666">[datetime]</text>
<polygon fill="none" stroke="#000000" points="769,-72.5 769,-102.5 996,-102.5 996,-72.5 769,-72.5"/>
<text text-anchor="start" x="776" y="-83.9" font-family="Arial" font-size="14.00" fill="#000000">updated_at    </text>
<text text-anchor="start" x="880.2468" y="-83.9" font-family="Arial" font-size="14.00" fill="#666666">[datetime]</text>
</g>
<!-- electricity_daily_usages -->
<g id="node5" class="node">
<title>electricity_daily_usages</title>
<polygon fill="#efefef" stroke="transparent" points="1116,-619.5 1116,-654.5 1455,-654.5 1455,-619.5 1116,-619.5"/>
<polygon fill="none" stroke="#000000" points="1116,-619.5 1116,-654.5 1455,-654.5 1455,-619.5 1116,-619.5"/>
<text text-anchor="start" x="1126.7012" y="-632.3" font-family="Arial Bold" font-size="18.00" fill="#000000">electricity_daily_usages</text>
<text text-anchor="start" x="1316.7308" y="-632.3" font-family="Arial" font-size="14.00" fill="#000000">    </text>
<text text-anchor="start" x="1350.9356" y="-632.3" font-family="Arial" font-size="14.00" fill="#666666">[BASE TABLE]</text>
<polygon fill="none" stroke="#000000" points="1116,-589.5 1116,-619.5 1455,-619.5 1455,-589.5 1116,-589.5"/>
<text text-anchor="start" x="1122.9187" y="-600.9" font-family="Arial" font-size="14.00" fill="#000000">electricity_fetch_setting_id    </text>
<text text-anchor="start" x="1321.2693" y="-600.9" font-family="Arial" font-size="14.00" fill="#666666">[bigint(20) unsigned]</text>
<polygon fill="none" stroke="#000000" points="1116,-559.5 1116,-589.5 1455,-589.5 1455,-559.5 1116,-559.5"/>
<text text-anchor="start" x="1123" y="-570.9" font-family="Arial" font-size="14.00" fill="#000000">usage_year    </text>
<text text-anchor="start" x="1230.3436" y="-570.9" font-family="Arial" font-size="14.00" fill="#666666">[int(10) unsigned]</text>
<polygon fill="none" stroke="#000000" points="1116,-529.5 1116,-559.5 1455,-559.5 1455,-529.5 1116,-529.5"/>
<text text-anchor="start" x="1123" y="-540.9" font-family="Arial" font-size="14.00" fill="#000000">usage_month    </text>
<text text-anchor="start" x="1242.0168" y="-540.9" font-family="Arial" font-size="14.00" fill="#666666">[int(10) unsigned]</text>
<polygon fill="none" stroke="#000000" points="1116,-499.5 1116,-529.5 1455,-529.5 1455,-499.5 1116,-499.5"/>
<text text-anchor="start" x="1123" y="-510.9" font-family="Arial" font-size="14.00" fill="#000000">usage_date    </text>
<text text-anchor="start" x="1230.3562" y="-510.9" font-family="Arial" font-size="14.00" fill="#666666">[int(10) unsigned]</text>
<polygon fill="none" stroke="#000000" points="1116,-469.5 1116,-499.5 1455,-499.5 1455,-469.5 1116,-469.5"/>
<text text-anchor="start" x="1123" y="-480.9" font-family="Arial" font-size="14.00" fill="#000000">usage_amount    </text>
<text text-anchor="start" x="1249.7994" y="-480.9" font-family="Arial" font-size="14.00" fill="#666666">[decimal(15,5) unsigned]</text>
<polygon fill="none" stroke="#000000" points="1116,-439.5 1116,-469.5 1455,-469.5 1455,-439.5 1116,-439.5"/>
<text text-anchor="start" x="1123" y="-450.9" font-family="Arial" font-size="14.00" fill="#000000">created_at    </text>
<text text-anchor="start" x="1223.3422" y="-450.9" font-family="Arial" font-size="14.00" fill="#666666">[datetime]</text>
<polygon fill="none" stroke="#000000" points="1116,-409.5 1116,-439.5 1455,-439.5 1455,-409.5 1116,-409.5"/>
<text text-anchor="start" x="1123" y="-420.9" font-family="Arial" font-size="14.00" fill="#000000">updated_at    </text>
<text text-anchor="start" x="1227.2468" y="-420.9" font-family="Arial" font-size="14.00" fill="#666666">[datetime]</text>
</g>
<!-- electricity_fetch_settings -->
<g id="node6" class="node">
<title>electricity_fetch_settings</title>
<polygon fill="#efefef" stroke="transparent" points="1343,-222.5 1343,-257.5 1680,-257.5 1680,-222.5 1343,-222.5"/>
<polygon fill="none" stroke="#000000" points="1343,-222.5 1343,-257.5 1680,-257.5 1680,-222.5 1343,-222.5"/>
<text text-anchor="start" x="1349.697" y="-235.3" font-family="Arial Bold" font-size="18.00" fill="#000000">electricity_fetch_settings</text>
<text text-anchor="start" x="1545.735" y="-235.3" font-family="Arial" font-size="14.00" fill="#000000">    </text>
<text text-anchor="start" x="1579.9398" y="-235.3" font-family="Arial" font-size="14.00" fill="#666666">[BASE TABLE]</text>
<polygon fill="none" stroke="#000000" points="1343,-192.5 1343,-222.5 1680,-222.5 1680,-192.5 1343,-192.5"/>
<text text-anchor="start" x="1350" y="-203.9" font-family="Arial" font-size="14.00" fill="#000000">id    </text>
<text text-anchor="start" x="1395.094" y="-203.9" font-family="Arial" font-size="14.00" fill="#666666">[bigint(20) unsigned]</text>
<polygon fill="none" stroke="#000000" points="1343,-162.5 1343,-192.5 1680,-192.5 1680,-162.5 1343,-162.5"/>
<text text-anchor="start" x="1350" y="-173.9" font-family="Arial" font-size="14.00" fill="#000000">electricity_site_id    </text>
<text text-anchor="start" x="1490.7658" y="-173.9" font-family="Arial" font-size="14.00" fill="#666666">[bigint(20) unsigned]</text>
<polygon fill="none" stroke="#000000" points="1343,-132.5 1343,-162.5 1680,-162.5 1680,-132.5 1343,-132.5"/>
<text text-anchor="start" x="1350" y="-143.9" font-family="Arial" font-size="14.00" fill="#000000">user_name    </text>
<text text-anchor="start" x="1454.2216" y="-143.9" font-family="Arial" font-size="14.00" fill="#666666">[varchar(255)]</text>
<polygon fill="none" stroke="#000000" points="1343,-102.5 1343,-132.5 1680,-132.5 1680,-102.5 1343,-102.5"/>
<text text-anchor="start" x="1350" y="-113.9" font-family="Arial" font-size="14.00" fill="#000000">encrypted_password    </text>
<text text-anchor="start" x="1513.3492" y="-113.9" font-family="Arial" font-size="14.00" fill="#666666">[varchar(512)]</text>
<polygon fill="none" stroke="#000000" points="1343,-72.5 1343,-102.5 1680,-102.5 1680,-72.5 1343,-72.5"/>
<text text-anchor="start" x="1350" y="-83.9" font-family="Arial" font-size="14.00" fill="#000000">created_at    </text>
<text text-anchor="start" x="1450.3422" y="-83.9" font-family="Arial" font-size="14.00" fill="#666666">[datetime]</text>
<polygon fill="none" stroke="#000000" points="1343,-42.5 1343,-72.5 1680,-72.5 1680,-42.5 1343,-42.5"/>
<text text-anchor="start" x="1350" y="-53.9" font-family="Arial" font-size="14.00" fill="#000000">updated_at    </text>
<text text-anchor="start" x="1454.2468" y="-53.9" font-family="Arial" font-size="14.00" fill="#666666">[datetime]</text>
</g>
<!-- electricity_daily_usages&#45;&gt;electricity_fetch_settings -->
<g id="edge2" class="edge">
<title>electricity_daily_usages:electricity_fetch_setting_id&#45;&gt;electricity_fetch_settings:id</title>
<path fill="none" stroke="#000000" d="M1464.9834,-601.7745C1504.0402,-578.2666 1479.344,-409.6019 1455,-367 1426.3342,-316.8348 1371.6658,-351.1652 1343,-301 1322.3827,-264.9197 1301.4444,-207.5 1343,-207.5"/>
<polygon fill="#000000" stroke="#000000" points="1464.647,-601.8662 1453.8148,-600.1589 1459.8235,-603.1831 1455,-604.5 1455,-604.5 1455,-604.5 1459.8235,-603.1831 1456.1852,-608.8411 1464.647,-601.8662 1464.647,-601.8662"/>
<text text-anchor="start" x="1053.482" y="-614.5" font-family="Arial" font-size="10.00" fill="#000000">FOREIGN KEY (electricity_fetch_setting_id) REFERENCES electricity_fetch_settings (id)</text>
</g>
<!-- electricity_monthly_usages -->
<g id="node7" class="node">
<title>electricity_monthly_usages</title>
<polygon fill="#efefef" stroke="transparent" points="1559,-634.5 1559,-669.5 1916,-669.5 1916,-634.5 1559,-634.5"/>
<polygon fill="none" stroke="#000000" points="1559,-634.5 1559,-669.5 1916,-669.5 1916,-634.5 1559,-634.5"/>
<text text-anchor="start" x="1565.698" y="-647.3" font-family="Arial Bold" font-size="18.00" fill="#000000">electricity_monthly_usages</text>
<text text-anchor="start" x="1781.734" y="-647.3" font-family="Arial" font-size="14.00" fill="#000000">    </text>
<text text-anchor="start" x="1815.9388" y="-647.3" font-family="Arial" font-size="14.00" fill="#666666">[BASE TABLE]</text>
<polygon fill="none" stroke="#000000" points="1559,-604.5 1559,-634.5 1916,-634.5 1916,-604.5 1559,-604.5"/>
<text text-anchor="start" x="1566" y="-615.9" font-family="Arial" font-size="14.00" fill="#000000">electricity_fetch_setting_id    </text>
<text text-anchor="start" x="1764.3506" y="-615.9" font-family="Arial" font-size="14.00" fill="#666666">[bigint(20) unsigned]</text>
<polygon fill="none" stroke="#000000" points="1559,-574.5 1559,-604.5 1916,-604.5 1916,-574.5 1559,-574.5"/>
<text text-anchor="start" x="1566" y="-585.9" font-family="Arial" font-size="14.00" fill="#000000">usage_year    </text>
<text text-anchor="start" x="1673.3436" y="-585.9" font-family="Arial" font-size="14.00" fill="#666666">[int(10) unsigned]</text>
<polygon fill="none" stroke="#000000" points="1559,-544.5 1559,-574.5 1916,-574.5 1916,-544.5 1559,-544.5"/>
<text text-anchor="start" x="1566" y="-555.9" font-family="Arial" font-size="14.00" fill="#000000">usage_month    </text>
<text text-anchor="start" x="1685.0168" y="-555.9" font-family="Arial" font-size="14.00" fill="#666666">[int(10) unsigned]</text>
<polygon fill="none" stroke="#000000" points="1559,-514.5 1559,-544.5 1916,-544.5 1916,-514.5 1559,-514.5"/>
<text text-anchor="start" x="1566" y="-525.9" font-family="Arial" font-size="14.00" fill="#000000">usage_day_count    </text>
<text text-anchor="start" x="1710.704" y="-525.9" font-family="Arial" font-size="14.00" fill="#666666">[int(10) unsigned]</text>
<polygon fill="none" stroke="#000000" points="1559,-484.5 1559,-514.5 1916,-514.5 1916,-484.5 1559,-484.5"/>
<text text-anchor="start" x="1566" y="-495.9" font-family="Arial" font-size="14.00" fill="#000000">usage_kwh    </text>
<text text-anchor="start" x="1671.007" y="-495.9" font-family="Arial" font-size="14.00" fill="#666666">[int(10) unsigned]</text>
<polygon fill="none" stroke="#000000" points="1559,-454.5 1559,-484.5 1916,-484.5 1916,-454.5 1559,-454.5"/>
<text text-anchor="start" x="1566" y="-465.9" font-family="Arial" font-size="14.00" fill="#000000">usage_yen    </text>
<text text-anchor="start" x="1668.683" y="-465.9" font-family="Arial" font-size="14.00" fill="#666666">[int(10) unsigned]</text>
<polygon fill="none" stroke="#000000" points="1559,-424.5 1559,-454.5 1916,-454.5 1916,-424.5 1559,-424.5"/>
<text text-anchor="start" x="1566" y="-435.9" font-family="Arial" font-size="14.00" fill="#000000">created_at    </text>
<text text-anchor="start" x="1666.3422" y="-435.9" font-family="Arial" font-size="14.00" fill="#666666">[datetime]</text>
<polygon fill="none" stroke="#000000" points="1559,-394.5 1559,-424.5 1916,-424.5 1916,-394.5 1559,-394.5"/>
<text text-anchor="start" x="1566" y="-405.9" font-family="Arial" font-size="14.00" fill="#000000">updated_at    </text>
<text text-anchor="start" x="1670.2468" y="-405.9" font-family="Arial" font-size="14.00" fill="#666666">[datetime]</text>
</g>
<!-- electricity_monthly_usages&#45;&gt;electricity_fetch_settings -->
<g id="edge3" class="edge">
<title>electricity_monthly_usages:electricity_fetch_setting_id&#45;&gt;electricity_fetch_settings:id</title>
<path fill="none" stroke="#000000" d="M1549.1308,-617.1886C1502.7964,-593.7225 1528.118,-398.5295 1559,-352 1591.2724,-303.3757 1647.7276,-349.6243 1680,-301 1702.9799,-266.3765 1721.5556,-207.5 1680,-207.5"/>
<polygon fill="#000000" stroke="#000000" points="1549.2635,-617.2196 1557.9738,-623.8814 1554.1317,-618.3598 1559,-619.5 1559,-619.5 1559,-619.5 1554.1317,-618.3598 1560.0262,-615.1186 1549.2635,-617.2196 1549.2635,-617.2196"/>
<text text-anchor="start" x="1566.482" y="-629.5" font-family="Arial" font-size="10.00" fill="#000000">FOREIGN KEY (electricity_fetch_setting_id) REFERENCES electricity_fetch_settings (id)</text>
</g>
<!-- gas_fetch_settings -->
<g id="node8" class="node">
<title>gas_fetch_settings</title>
<polygon fill="#efefef" stroke="transparent" points="2030,-222.5 2030,-257.5 2321,-257.5 2321,-222.5 2030,-222.5"/>
<polygon fill="none" stroke="#000000" points="2030,-222.5 2030,-257.5 2321,-257.5 2321,-222.5 2030,-222.5"/>
<text text-anchor="start" x="2036.6866" y="-235.3" font-family="Arial Bold" font-size="18.00" fill="#000000">gas_fetch_settings</text>
<text text-anchor="start" x="2186.7454" y="-235.3" font-family="Arial" font-size="14.00" fill="#000000">    </text>
<text text-anchor="start" x="2220.9502" y="-235.3" font-family="Arial" font-size="14.00" fill="#666666">[BASE TABLE]</text>
<polygon fill="none" stroke="#000000" points="2030,-192.5 2030,-222.5 2321,-222.5 2321,-192.5 2030,-192.5"/>
<text text-anchor="start" x="2037" y="-203.9" font-family="Arial" font-size="14.00" fill="#000000">id    </text>
<text text-anchor="start" x="2082.094" y="-203.9" font-family="Arial" font-size="14.00" fill="#666666">[bigint(20) unsigned]</text>
<polygon fill="none" stroke="#000000" points="2030,-162.5 2030,-192.5 2321,-192.5 2321,-162.5 2030,-162.5"/>
<text text-anchor="start" x="2037" y="-173.9" font-family="Arial" font-size="14.00" fill="#000000">gas_site_id    </text>
<text text-anchor="start" x="2142.0042" y="-173.9" font-family="Arial" font-size="14.00" fill="#666666">[bigint(20) unsigned]</text>
<polygon fill="none" stroke="#000000" points="2030,-132.5 2030,-162.5 2321,-162.5 2321,-132.5 2030,-132.5"/>
<text text-anchor="start" x="2037" y="-143.9" font-family="Arial" font-size="14.00" fill="#000000">user_name    </text>
<text text-anchor="start" x="2141.2216" y="-143.9" font-family="Arial" font-size="14.00" fill="#666666">[varchar(255)]</text>
<polygon fill="none" stroke="#000000" points="2030,-102.5 2030,-132.5 2321,-132.5 2321,-102.5 2030,-102.5"/>
<text text-anchor="start" x="2037" y="-113.9" font-family="Arial" font-size="14.00" fill="#000000">encrypted_password    </text>
<text text-anchor="start" x="2200.3492" y="-113.9" font-family="Arial" font-size="14.00" fill="#666666">[varchar(512)]</text>
<polygon fill="none" stroke="#000000" points="2030,-72.5 2030,-102.5 2321,-102.5 2321,-72.5 2030,-72.5"/>
<text text-anchor="start" x="2037" y="-83.9" font-family="Arial" font-size="14.00" fill="#000000">created_at    </text>
<text text-anchor="start" x="2137.3422" y="-83.9" font-family="Arial" font-size="14.00" fill="#666666">[datetime]</text>
<polygon fill="none" stroke="#000000" points="2030,-42.5 2030,-72.5 2321,-72.5 2321,-42.5 2030,-42.5"/>
<text text-anchor="start" x="2037" y="-53.9" font-family="Arial" font-size="14.00" fill="#000000">updated_at    </text>
<text text-anchor="start" x="2141.2468" y="-53.9" font-family="Arial" font-size="14.00" fill="#666666">[datetime]</text>
</g>
<!-- gas_monthly_usages -->
<g id="node9" class="node">
<title>gas_monthly_usages</title>
<polygon fill="#efefef" stroke="transparent" points="2020,-649.5 2020,-684.5 2331,-684.5 2331,-649.5 2020,-649.5"/>
<polygon fill="none" stroke="#000000" points="2020,-649.5 2020,-684.5 2331,-684.5 2331,-649.5 2020,-649.5"/>
<text text-anchor="start" x="2026.6876" y="-662.3" font-family="Arial Bold" font-size="18.00" fill="#000000">gas_monthly_usages</text>
<text text-anchor="start" x="2196.7444" y="-662.3" font-family="Arial" font-size="14.00" fill="#000000">    </text>
<text text-anchor="start" x="2230.9492" y="-662.3" font-family="Arial" font-size="14.00" fill="#666666">[BASE TABLE]</text>
<polygon fill="none" stroke="#000000" points="2020,-619.5 2020,-649.5 2331,-649.5 2331,-619.5 2020,-619.5"/>
<text text-anchor="start" x="2027" y="-630.9" font-family="Arial" font-size="14.00" fill="#000000">gas_fetch_setting_id    </text>
<text text-anchor="start" x="2189.589" y="-630.9" font-family="Arial" font-size="14.00" fill="#666666">[bigint(20) unsigned]</text>
<polygon fill="none" stroke="#000000" points="2020,-589.5 2020,-619.5 2331,-619.5 2331,-589.5 2020,-589.5"/>
<text text-anchor="start" x="2027" y="-600.9" font-family="Arial" font-size="14.00" fill="#000000">usage_year    </text>
<text text-anchor="start" x="2134.3436" y="-600.9" font-family="Arial" font-size="14.00" fill="#666666">[int(10) unsigned]</text>
<polygon fill="none" stroke="#000000" points="2020,-559.5 2020,-589.5 2331,-589.5 2331,-559.5 2020,-559.5"/>
<text text-anchor="start" x="2027" y="-570.9" font-family="Arial" font-size="14.00" fill="#000000">usage_month    </text>
<text text-anchor="start" x="2146.0168" y="-570.9" font-family="Arial" font-size="14.00" fill="#666666">[int(10) unsigned]</text>
<polygon fill="none" stroke="#000000" points="2020,-529.5 2020,-559.5 2331,-559.5 2331,-529.5 2020,-529.5"/>
<text text-anchor="start" x="2027" y="-540.9" font-family="Arial" font-size="14.00" fill="#000000">usage_begin_at    </text>
<text text-anchor="start" x="2160.8106" y="-540.9" font-family="Arial" font-size="14.00" fill="#666666">[date]</text>
<polygon fill="none" stroke="#000000" points="2020,-499.5 2020,-529.5 2331,-529.5 2331,-499.5 2020,-499.5"/>
<text text-anchor="start" x="2027" y="-510.9" font-family="Arial" font-size="14.00" fill="#000000">usage_end_at    </text>
<text text-anchor="start" x="2149.9214" y="-510.9" font-family="Arial" font-size="14.00" fill="#666666">[date]</text>
<polygon fill="none" stroke="#000000" points="2020,-469.5 2020,-499.5 2331,-499.5 2331,-469.5 2020,-469.5"/>
<text text-anchor="start" x="2027" y="-480.9" font-family="Arial" font-size="14.00" fill="#000000">usage_amount    </text>
<text text-anchor="start" x="2153.7994" y="-480.9" font-family="Arial" font-size="14.00" fill="#666666">[decimal(15,5) unsigned]</text>
<polygon fill="none" stroke="#000000" points="2020,-439.5 2020,-469.5 2331,-469.5 2331,-439.5 2020,-439.5"/>
<text text-anchor="start" x="2027" y="-450.9" font-family="Arial" font-size="14.00" fill="#000000">usage_yen    </text>
<text text-anchor="start" x="2129.683" y="-450.9" font-family="Arial" font-size="14.00" fill="#666666">[int(10) unsigned]</text>
<polygon fill="none" stroke="#000000" points="2020,-409.5 2020,-439.5 2331,-439.5 2331,-409.5 2020,-409.5"/>
<text text-anchor="start" x="2027" y="-420.9" font-family="Arial" font-size="14.00" fill="#000000">created_at    </text>
<text text-anchor="start" x="2127.3422" y="-420.9" font-family="Arial" font-size="14.00" fill="#666666">[datetime]</text>
<polygon fill="none" stroke="#000000" points="2020,-379.5 2020,-409.5 2331,-409.5 2331,-379.5 2020,-379.5"/>
<text text-anchor="start" x="2027" y="-390.9" font-family="Arial" font-size="14.00" fill="#000000">updated_at    </text>
<text text-anchor="start" x="2131.2468" y="-390.9" font-family="Arial" font-size="14.00" fill="#666666">[datetime]</text>
</g>
<!-- gas_monthly_usages&#45;&gt;gas_fetch_settings -->
<g id="edge4" class="edge">
<title>gas_monthly_usages:gas_fetch_setting_id&#45;&gt;gas_fetch_settings:id</title>
<path fill="none" stroke="#000000" d="M2011.2999,-629.1011C1974.0359,-579.672 1985.694,-207.5 2030,-207.5"/>
<polygon fill="#000000" stroke="#000000" points="2011.503,-629.2272 2017.6272,-638.3236 2015.7515,-631.8636 2020,-634.5 2020,-634.5 2020,-634.5 2015.7515,-631.8636 2022.3728,-630.6764 2011.503,-629.2272 2011.503,-629.2272"/>
<text text-anchor="start" x="2027.026" y="-644.5" font-family="Arial" font-size="10.00" fill="#000000">FOREIGN KEY (gas_fetch_setting_id) REFERENCES gas_fetch_settings (id)</text>
</g>
<!-- monthly_costs -->
<g id="node10" class="node">
<title>monthly_costs</title>
<polygon fill="#efefef" stroke="transparent" points="755,-604.5 755,-639.5 1011,-639.5 1011,-604.5 755,-604.5"/>
<polygon fill="none" stroke="#000000" points="755,-604.5 755,-639.5 1011,-639.5 1011,-604.5 755,-604.5"/>
<text text-anchor="start" x="761.7051" y="-617.3" font-family="Arial Bold" font-size="18.00" fill="#000000">monthly_costs</text>
<text text-anchor="start" x="876.7269" y="-617.3" font-family="Arial" font-size="14.00" fill="#000000">    </text>
<text text-anchor="start" x="910.9317" y="-617.3" font-family="Arial" font-size="14.00" fill="#666666">[BASE TABLE]</text>
<polygon fill="none" stroke="#000000" points="755,-574.5 755,-604.5 1011,-604.5 1011,-574.5 755,-574.5"/>
<text text-anchor="start" x="762" y="-585.9" font-family="Arial" font-size="14.00" fill="#000000">cost_type_id    </text>
<text text-anchor="start" x="874.7882" y="-585.9" font-family="Arial" font-size="14.00" fill="#666666">[bigint(20) unsigned]</text>
<polygon fill="none" stroke="#000000" points="755,-544.5 755,-574.5 1011,-574.5 1011,-544.5 755,-544.5"/>
<text text-anchor="start" x="762" y="-555.9" font-family="Arial" font-size="14.00" fill="#000000">cost_year    </text>
<text text-anchor="start" x="856.8864" y="-555.9" font-family="Arial" font-size="14.00" fill="#666666">[int(10) unsigned]</text>
<polygon fill="none" stroke="#000000" points="755,-514.5 755,-544.5 1011,-544.5 1011,-514.5 755,-514.5"/>
<text text-anchor="start" x="762" y="-525.9" font-family="Arial" font-size="14.00" fill="#000000">cost_month    </text>
<text text-anchor="start" x="868.5596" y="-525.9" font-family="Arial" font-size="14.00" fill="#666666">[int(10) unsigned]</text>
<polygon fill="none" stroke="#000000" points="755,-484.5 755,-514.5 1011,-514.5 1011,-484.5 755,-484.5"/>
<text text-anchor="start" x="762" y="-495.9" font-family="Arial" font-size="14.00" fill="#000000">cost_yen    </text>
<text text-anchor="start" x="852.2258" y="-495.9" font-family="Arial" font-size="14.00" fill="#666666">[int(10) unsigned]</text>
<polygon fill="none" stroke="#000000" points="755,-454.5 755,-484.5 1011,-484.5 1011,-454.5 755,-454.5"/>
<text text-anchor="start" x="762" y="-465.9" font-family="Arial" font-size="14.00" fill="#000000">created_at    </text>
<text text-anchor="start" x="862.3422" y="-465.9" font-family="Arial" font-size="14.00" fill="#666666">[datetime]</text>
<polygon fill="none" stroke="#000000" points="755,-424.5 755,-454.5 1011,-454.5 1011,-424.5 755,-424.5"/>
<text text-anchor="start" x="762" y="-435.9" font-family="Arial" font-size="14.00" fill="#000000">updated_at    </text>
<text text-anchor="start" x="866.2468" y="-435.9" font-family="Arial" font-size="14.00" fill="#666666">[datetime]</text>
</g>
<!-- monthly_costs&#45;&gt;cost_types -->
<g id="edge5" class="edge">
<title>monthly_costs:cost_type_id&#45;&gt;cost_types:id</title>
<path fill="none" stroke="#000000" d="M745.3956,-586.5539C712.2304,-563.938 732.0757,-417.7975 755,-382 818.5959,-282.6918 932.4041,-370.3082 996,-271 1018.4103,-236.0051 1037.5556,-177.5 996,-177.5"/>
<polygon fill="#000000" stroke="#000000" points="745.4397,-586.5674 753.6803,-593.8022 750.2198,-588.0337 755,-589.5 755,-589.5 755,-589.5 750.2198,-588.0337 756.3197,-585.1978 745.4397,-586.5674 745.4397,-586.5674"/>
<text text-anchor="start" x="475.598" y="-599.5" font-family="Arial" font-size="10.00" fill="#000000">FOREIGN KEY (cost_type_id) REFERENCES cost_types (id)</text>
</g>
<!-- water_fetch_settings -->
<g id="node11" class="node">
<title>water_fetch_settings</title>
<polygon fill="#efefef" stroke="transparent" points="2445,-222.5 2445,-257.5 2751,-257.5 2751,-222.5 2445,-222.5"/>
<polygon fill="none" stroke="#000000" points="2445,-222.5 2445,-257.5 2751,-257.5 2751,-222.5 2445,-222.5"/>
<text text-anchor="start" x="2451.6923" y="-235.3" font-family="Arial Bold" font-size="18.00" fill="#000000">water_fetch_settings</text>
<text text-anchor="start" x="2616.7397" y="-235.3" font-family="Arial" font-size="14.00" fill="#000000">    </text>
<text text-anchor="start" x="2650.9445" y="-235.3" font-family="Arial" font-size="14.00" fill="#666666">[BASE TABLE]</text>
<polygon fill="none" stroke="#000000" points="2445,-192.5 2445,-222.5 2751,-222.5 2751,-192.5 2445,-192.5"/>
<text text-anchor="start" x="2452" y="-203.9" font-family="Arial" font-size="14.00" fill="#000000">id    </text>
<text text-anchor="start" x="2497.094" y="-203.9" font-family="Arial" font-size="14.00" fill="#666666">[bigint(20) unsigned]</text>
<polygon fill="none" stroke="#000000" points="2445,-162.5 2445,-192.5 2751,-192.5 2751,-162.5 2445,-162.5"/>
<text text-anchor="start" x="2452" y="-173.9" font-family="Arial" font-size="14.00" fill="#000000">water_site_id    </text>
<text text-anchor="start" x="2568.662" y="-173.9" font-family="Arial" font-size="14.00" fill="#666666">[bigint(20) unsigned]</text>
<polygon fill="none" stroke="#000000" points="2445,-132.5 2445,-162.5 2751,-162.5 2751,-132.5 2445,-132.5"/>
<text text-anchor="start" x="2452" y="-143.9" font-family="Arial" font-size="14.00" fill="#000000">user_name    </text>
<text text-anchor="start" x="2556.2216" y="-143.9" font-family="Arial" font-size="14.00" fill="#666666">[varchar(255)]</text>
<polygon fill="none" stroke="#000000" points="2445,-102.5 2445,-132.5 2751,-132.5 2751,-102.5 2445,-102.5"/>
<text text-anchor="start" x="2452" y="-113.9" font-family="Arial" font-size="14.00" fill="#000000">encrypted_password    </text>
<text text-anchor="start" x="2615.3492" y="-113.9" font-family="Arial" font-size="14.00" fill="#666666">[varchar(512)]</text>
<polygon fill="none" stroke="#000000" points="2445,-72.5 2445,-102.5 2751,-102.5 2751,-72.5 2445,-72.5"/>
<text text-anchor="start" x="2452" y="-83.9" font-family="Arial" font-size="14.00" fill="#000000">created_at    </text>
<text text-anchor="start" x="2552.3422" y="-83.9" font-family="Arial" font-size="14.00" fill="#666666">[datetime]</text>
<polygon fill="none" stroke="#000000" points="2445,-42.5 2445,-72.5 2751,-72.5 2751,-42.5 2445,-42.5"/>
<text text-anchor="start" x="2452" y="-53.9" font-family="Arial" font-size="14.00" fill="#000000">updated_at    </text>
<text text-anchor="start" x="2556.2468" y="-53.9" font-family="Arial" font-size="14.00" fill="#666666">[datetime]</text>
</g>
<!-- water_monthly_usages -->
<g id="node12" class="node">
<title>water_monthly_usages</title>
<polygon fill="#efefef" stroke="transparent" points="2435,-649.5 2435,-684.5 2761,-684.5 2761,-649.5 2435,-649.5"/>
<polygon fill="none" stroke="#000000" points="2435,-649.5 2435,-684.5 2761,-684.5 2761,-649.5 2435,-649.5"/>
<text text-anchor="start" x="2441.6933" y="-662.3" font-family="Arial Bold" font-size="18.00" fill="#000000">water_monthly_usages</text>
<text text-anchor="start" x="2626.7387" y="-662.3" font-family="Arial" font-size="14.00" fill="#000000">    </text>
<text text-anchor="start" x="2660.9435" y="-662.3" font-family="Arial" font-size="14.00" fill="#666666">[BASE TABLE]</text>
<polygon fill="none" stroke="#000000" points="2435,-619.5 2435,-649.5 2761,-649.5 2761,-619.5 2435,-619.5"/>
<text text-anchor="start" x="2442" y="-630.9" font-family="Arial" font-size="14.00" fill="#000000">water_fetch_setting_id    </text>
<text text-anchor="start" x="2616.2468" y="-630.9" font-family="Arial" font-size="14.00" fill="#666666">[bigint(20) unsigned]</text>
<polygon fill="none" stroke="#000000" points="2435,-589.5 2435,-619.5 2761,-619.5 2761,-589.5 2435,-589.5"/>
<text text-anchor="start" x="2442" y="-600.9" font-family="Arial" font-size="14.00" fill="#000000">usage_year    </text>
<text text-anchor="start" x="2549.3436" y="-600.9" font-family="Arial" font-size="14.00" fill="#666666">[int(10) unsigned]</text>
<polygon fill="none" stroke="#000000" points="2435,-559.5 2435,-589.5 2761,-589.5 2761,-559.5 2435,-559.5"/>
<text text-anchor="start" x="2442" y="-570.9" font-family="Arial" font-size="14.00" fill="#000000">usage_month    </text>
<text text-anchor="start" x="2561.0168" y="-570.9" font-family="Arial" font-size="14.00" fill="#666666">[int(10) unsigned]</text>
<polygon fill="none" stroke="#000000" points="2435,-529.5 2435,-559.5 2761,-559.5 2761,-529.5 2435,-529.5"/>
<text text-anchor="start" x="2442" y="-540.9" font-family="Arial" font-size="14.00" fill="#000000">usage_begin_at    </text>
<text text-anchor="start" x="2575.8106" y="-540.9" font-family="Arial" font-size="14.00" fill="#666666">[date]</text>
<polygon fill="none" stroke="#000000" points="2435,-499.5 2435,-529.5 2761,-529.5 2761,-499.5 2435,-499.5"/>
<text text-anchor="start" x="2442" y="-510.9" font-family="Arial" font-size="14.00" fill="#000000">usage_end_at    </text>
<text text-anchor="start" x="2564.9214" y="-510.9" font-family="Arial" font-size="14.00" fill="#666666">[date]</text>
<polygon fill="none" stroke="#000000" points="2435,-469.5 2435,-499.5 2761,-499.5 2761,-469.5 2435,-469.5"/>
<text text-anchor="start" x="2442" y="-480.9" font-family="Arial" font-size="14.00" fill="#000000">usage_amount    </text>
<text text-anchor="start" x="2568.7994" y="-480.9" font-family="Arial" font-size="14.00" fill="#666666">[decimal(15,5) unsigned]</text>
<polygon fill="none" stroke="#000000" points="2435,-439.5 2435,-469.5 2761,-469.5 2761,-439.5 2435,-439.5"/>
<text text-anchor="start" x="2442" y="-450.9" font-family="Arial" font-size="14.00" fill="#000000">usage_yen    </text>
<text text-anchor="start" x="2544.683" y="-450.9" font-family="Arial" font-size="14.00" fill="#666666">[int(10) unsigned]</text>
<polygon fill="none" stroke="#000000" points="2435,-409.5 2435,-439.5 2761,-439.5 2761,-409.5 2435,-409.5"/>
<text text-anchor="start" x="2442" y="-420.9" font-family="Arial" font-size="14.00" fill="#000000">created_at    </text>
<text text-anchor="start" x="2542.3422" y="-420.9" font-family="Arial" font-size="14.00" fill="#666666">[datetime]</text>
<polygon fill="none" stroke="#000000" points="2435,-379.5 2435,-409.5 2761,-409.5 2761,-379.5 2435,-379.5"/>
<text text-anchor="start" x="2442" y="-390.9" font-family="Arial" font-size="14.00" fill="#000000">updated_at    </text>
<text text-anchor="start" x="2546.2468" y="-390.9" font-family="Arial" font-size="14.00" fill="#666666">[datetime]</text>
</g>
<!-- water_monthly_usages&#45;&gt;water_fetch_settings -->
<g id="edge6" class="edge">
<title>water_monthly_usages:water_fetch_setting_id&#45;&gt;water_fetch_settings:id</title>
<path fill="none" stroke="#000000" d="M2770.8786,-632.8678C2855.0814,-604.2001 2842.4854,-207.5 2751,-207.5"/>
<polygon fill="#000000" stroke="#000000" points="2770.8662,-632.8698 2760.2664,-630.0602 2765.9331,-633.6849 2761,-634.5 2761,-634.5 2761,-634.5 2765.9331,-633.6849 2761.7336,-638.9398 2770.8662,-632.8698 2770.8662,-632.8698"/>
<text text-anchor="start" x="2767.699" y="-644.5" font-family="Arial" font-size="10.00" fill="#000000">FOREIGN KEY (water_fetch_setting_id) REFERENCES water_fetch_settings (id)</text>
</g>
</g>
</svg>
