<?xml version="1.0" encoding="UTF-8" standalone="no"?>
<!DOCTYPE svg PUBLIC "-//W3C//DTD SVG 1.1//EN"
 "http://www.w3.org/Graphics/SVG/1.1/DTD/svg11.dtd">
<!-- Generated by graphviz version 2.40.1 (20161225.0304)
 -->
<!-- Title: my&#45;home Pages: 1 -->
<svg width="2674pt" height="736pt"
 viewBox="0.00 0.00 2674.00 736.00" xmlns="http://www.w3.org/2000/svg" xmlns:xlink="http://www.w3.org/1999/xlink">
<g id="graph0" class="graph" transform="scale(1 1) rotate(0) translate(4 732)">
<title>my&#45;home</title>
<polygon fill="#ffffff" stroke="transparent" points="-4,4 -4,-732 2670,-732 2670,4 -4,4"/>
<!-- cost_types -->
<g id="node1" class="node">
<title>cost_types</title>
<polygon fill="#efefef" stroke="transparent" points="300,-192.5 300,-227.5 527,-227.5 527,-192.5 300,-192.5"/>
<polygon fill="none" stroke="#000000" points="300,-192.5 300,-227.5 527,-227.5 527,-192.5 300,-192.5"/>
<text text-anchor="start" x="306.7014" y="-205.3" font-family="Arial Bold" font-size="18.00" fill="#000000">cost_types</text>
<text text-anchor="start" x="392.7306" y="-205.3" font-family="Arial" font-size="14.00" fill="#000000">    </text>
<text text-anchor="start" x="426.9354" y="-205.3" font-family="Arial" font-size="14.00" fill="#666666">[BASE TABLE]</text>
<polygon fill="none" stroke="#000000" points="300,-162.5 300,-192.5 527,-192.5 527,-162.5 300,-162.5"/>
<text text-anchor="start" x="307" y="-173.9" font-family="Arial" font-size="14.00" fill="#000000">id    </text>
<text text-anchor="start" x="352.094" y="-173.9" font-family="Arial" font-size="14.00" fill="#666666">[bigint(20) unsigned]</text>
<polygon fill="none" stroke="#000000" points="300,-132.5 300,-162.5 527,-162.5 527,-132.5 300,-132.5"/>
<text text-anchor="start" x="307" y="-143.9" font-family="Arial" font-size="14.00" fill="#000000">type_name    </text>
<text text-anchor="start" x="410.4516" y="-143.9" font-family="Arial" font-size="14.00" fill="#666666">[varchar(255)]</text>
<polygon fill="none" stroke="#000000" points="300,-102.5 300,-132.5 527,-132.5 527,-102.5 300,-102.5"/>
<text text-anchor="start" x="307" y="-113.9" font-family="Arial" font-size="14.00" fill="#000000">created_at    </text>
<text text-anchor="start" x="407.3422" y="-113.9" font-family="Arial" font-size="14.00" fill="#666666">[datetime]</text>
<polygon fill="none" stroke="#000000" points="300,-72.5 300,-102.5 527,-102.5 527,-72.5 300,-72.5"/>
<text text-anchor="start" x="307" y="-83.9" font-family="Arial" font-size="14.00" fill="#000000">updated_at    </text>
<text text-anchor="start" x="411.2468" y="-83.9" font-family="Arial" font-size="14.00" fill="#666666">[datetime]</text>
</g>
<!-- electricity_daily_usages -->
<g id="node2" class="node">
<title>electricity_daily_usages</title>
<polygon fill="#efefef" stroke="transparent" points="647,-619.5 647,-654.5 986,-654.5 986,-619.5 647,-619.5"/>
<polygon fill="none" stroke="#000000" points="647,-619.5 647,-654.5 986,-654.5 986,-619.5 647,-619.5"/>
<text text-anchor="start" x="657.7012" y="-632.3" font-family="Arial Bold" font-size="18.00" fill="#000000">electricity_daily_usages</text>
<text text-anchor="start" x="847.7308" y="-632.3" font-family="Arial" font-size="14.00" fill="#000000">    </text>
<text text-anchor="start" x="881.9356" y="-632.3" font-family="Arial" font-size="14.00" fill="#666666">[BASE TABLE]</text>
<polygon fill="none" stroke="#000000" points="647,-589.5 647,-619.5 986,-619.5 986,-589.5 647,-589.5"/>
<text text-anchor="start" x="653.9187" y="-600.9" font-family="Arial" font-size="14.00" fill="#000000">electricity_fetch_setting_id    </text>
<text text-anchor="start" x="852.2693" y="-600.9" font-family="Arial" font-size="14.00" fill="#666666">[bigint(20) unsigned]</text>
<polygon fill="none" stroke="#000000" points="647,-559.5 647,-589.5 986,-589.5 986,-559.5 647,-559.5"/>
<text text-anchor="start" x="654" y="-570.9" font-family="Arial" font-size="14.00" fill="#000000">usage_year    </text>
<text text-anchor="start" x="761.3436" y="-570.9" font-family="Arial" font-size="14.00" fill="#666666">[int(10) unsigned]</text>
<polygon fill="none" stroke="#000000" points="647,-529.5 647,-559.5 986,-559.5 986,-529.5 647,-529.5"/>
<text text-anchor="start" x="654" y="-540.9" font-family="Arial" font-size="14.00" fill="#000000">usage_month    </text>
<text text-anchor="start" x="773.0168" y="-540.9" font-family="Arial" font-size="14.00" fill="#666666">[int(10) unsigned]</text>
<polygon fill="none" stroke="#000000" points="647,-499.5 647,-529.5 986,-529.5 986,-499.5 647,-499.5"/>
<text text-anchor="start" x="654" y="-510.9" font-family="Arial" font-size="14.00" fill="#000000">usage_date    </text>
<text text-anchor="start" x="761.3562" y="-510.9" font-family="Arial" font-size="14.00" fill="#666666">[int(10) unsigned]</text>
<polygon fill="none" stroke="#000000" points="647,-469.5 647,-499.5 986,-499.5 986,-469.5 647,-469.5"/>
<text text-anchor="start" x="654" y="-480.9" font-family="Arial" font-size="14.00" fill="#000000">usage_amount    </text>
<text text-anchor="start" x="780.7994" y="-480.9" font-family="Arial" font-size="14.00" fill="#666666">[decimal(15,5) unsigned]</text>
<polygon fill="none" stroke="#000000" points="647,-439.5 647,-469.5 986,-469.5 986,-439.5 647,-439.5"/>
<text text-anchor="start" x="654" y="-450.9" font-family="Arial" font-size="14.00" fill="#000000">created_at    </text>
<text text-anchor="start" x="754.3422" y="-450.9" font-family="Arial" font-size="14.00" fill="#666666">[datetime]</text>
<polygon fill="none" stroke="#000000" points="647,-409.5 647,-439.5 986,-439.5 986,-409.5 647,-409.5"/>
<text text-anchor="start" x="654" y="-420.9" font-family="Arial" font-size="14.00" fill="#000000">updated_at    </text>
<text text-anchor="start" x="758.2468" y="-420.9" font-family="Arial" font-size="14.00" fill="#666666">[datetime]</text>
</g>
<!-- electricity_fetch_settings -->
<g id="node3" class="node">
<title>electricity_fetch_settings</title>
<polygon fill="#efefef" stroke="transparent" points="874,-222.5 874,-257.5 1211,-257.5 1211,-222.5 874,-222.5"/>
<polygon fill="none" stroke="#000000" points="874,-222.5 874,-257.5 1211,-257.5 1211,-222.5 874,-222.5"/>
<text text-anchor="start" x="880.697" y="-235.3" font-family="Arial Bold" font-size="18.00" fill="#000000">electricity_fetch_settings</text>
<text text-anchor="start" x="1076.735" y="-235.3" font-family="Arial" font-size="14.00" fill="#000000">    </text>
<text text-anchor="start" x="1110.9398" y="-235.3" font-family="Arial" font-size="14.00" fill="#666666">[BASE TABLE]</text>
<polygon fill="none" stroke="#000000" points="874,-192.5 874,-222.5 1211,-222.5 1211,-192.5 874,-192.5"/>
<text text-anchor="start" x="881" y="-203.9" font-family="Arial" font-size="14.00" fill="#000000">id    </text>
<text text-anchor="start" x="926.094" y="-203.9" font-family="Arial" font-size="14.00" fill="#666666">[bigint(20) unsigned]</text>
<polygon fill="none" stroke="#000000" points="874,-162.5 874,-192.5 1211,-192.5 1211,-162.5 874,-162.5"/>
<text text-anchor="start" x="881" y="-173.9" font-family="Arial" font-size="14.00" fill="#000000">electricity_site_id    </text>
<text text-anchor="start" x="1021.7658" y="-173.9" font-family="Arial" font-size="14.00" fill="#666666">[bigint(20) unsigned]</text>
<polygon fill="none" stroke="#000000" points="874,-132.5 874,-162.5 1211,-162.5 1211,-132.5 874,-132.5"/>
<text text-anchor="start" x="881" y="-143.9" font-family="Arial" font-size="14.00" fill="#000000">user_name    </text>
<text text-anchor="start" x="985.2216" y="-143.9" font-family="Arial" font-size="14.00" fill="#666666">[varchar(255)]</text>
<polygon fill="none" stroke="#000000" points="874,-102.5 874,-132.5 1211,-132.5 1211,-102.5 874,-102.5"/>
<text text-anchor="start" x="881" y="-113.9" font-family="Arial" font-size="14.00" fill="#000000">encrypted_password    </text>
<text text-anchor="start" x="1044.3492" y="-113.9" font-family="Arial" font-size="14.00" fill="#666666">[varchar(512)]</text>
<polygon fill="none" stroke="#000000" points="874,-72.5 874,-102.5 1211,-102.5 1211,-72.5 874,-72.5"/>
<text text-anchor="start" x="881" y="-83.9" font-family="Arial" font-size="14.00" fill="#000000">created_at    </text>
<text text-anchor="start" x="981.3422" y="-83.9" font-family="Arial" font-size="14.00" fill="#666666">[datetime]</text>
<polygon fill="none" stroke="#000000" points="874,-42.5 874,-72.5 1211,-72.5 1211,-42.5 874,-42.5"/>
<text text-anchor="start" x="881" y="-53.9" font-family="Arial" font-size="14.00" fill="#000000">updated_at    </text>
<text text-anchor="start" x="985.2468" y="-53.9" font-family="Arial" font-size="14.00" fill="#666666">[datetime]</text>
</g>
<!-- electricity_daily_usages&#45;&gt;electricity_fetch_settings -->
<g id="edge1" class="edge">
<title>electricity_daily_usages:electricity_fetch_setting_id&#45;&gt;electricity_fetch_settings:id</title>
<path fill="none" stroke="#000000" d="M995.9834,-601.7745C1035.0402,-578.2666 1010.344,-409.6019 986,-367 957.3342,-316.8348 902.6658,-351.1652 874,-301 853.3827,-264.9197 832.4444,-207.5 874,-207.5"/>
<polygon fill="#000000" stroke="#000000" points="995.647,-601.8662 984.8148,-600.1589 990.8235,-603.1831 986,-604.5 986,-604.5 986,-604.5 990.8235,-603.1831 987.1852,-608.8411 995.647,-601.8662 995.647,-601.8662"/>
<text text-anchor="start" x="584.482" y="-614.5" font-family="Arial" font-size="10.00" fill="#000000">FOREIGN KEY (electricity_fetch_setting_id) REFERENCES electricity_fetch_settings (id)</text>
</g>
<!-- electricity_monthly_usages -->
<g id="node4" class="node">
<title>electricity_monthly_usages</title>
<polygon fill="#efefef" stroke="transparent" points="1090,-634.5 1090,-669.5 1447,-669.5 1447,-634.5 1090,-634.5"/>
<polygon fill="none" stroke="#000000" points="1090,-634.5 1090,-669.5 1447,-669.5 1447,-634.5 1090,-634.5"/>
<text text-anchor="start" x="1096.698" y="-647.3" font-family="Arial Bold" font-size="18.00" fill="#000000">electricity_monthly_usages</text>
<text text-anchor="start" x="1312.734" y="-647.3" font-family="Arial" font-size="14.00" fill="#000000">    </text>
<text text-anchor="start" x="1346.9388" y="-647.3" font-family="Arial" font-size="14.00" fill="#666666">[BASE TABLE]</text>
<polygon fill="none" stroke="#000000" points="1090,-604.5 1090,-634.5 1447,-634.5 1447,-604.5 1090,-604.5"/>
<text text-anchor="start" x="1097" y="-615.9" font-family="Arial" font-size="14.00" fill="#000000">electricity_fetch_setting_id    </text>
<text text-anchor="start" x="1295.3506" y="-615.9" font-family="Arial" font-size="14.00" fill="#666666">[bigint(20) unsigned]</text>
<polygon fill="none" stroke="#000000" points="1090,-574.5 1090,-604.5 1447,-604.5 1447,-574.5 1090,-574.5"/>
<text text-anchor="start" x="1097" y="-585.9" font-family="Arial" font-size="14.00" fill="#000000">usage_year    </text>
<text text-anchor="start" x="1204.3436" y="-585.9" font-family="Arial" font-size="14.00" fill="#666666">[int(10) unsigned]</text>
<polygon fill="none" stroke="#000000" points="1090,-544.5 1090,-574.5 1447,-574.5 1447,-544.5 1090,-544.5"/>
<text text-anchor="start" x="1097" y="-555.9" font-family="Arial" font-size="14.00" fill="#000000">usage_month    </text>
<text text-anchor="start" x="1216.0168" y="-555.9" font-family="Arial" font-size="14.00" fill="#666666">[int(10) unsigned]</text>
<polygon fill="none" stroke="#000000" points="1090,-514.5 1090,-544.5 1447,-544.5 1447,-514.5 1090,-514.5"/>
<text text-anchor="start" x="1097" y="-525.9" font-family="Arial" font-size="14.00" fill="#000000">usage_day_count    </text>
<text text-anchor="start" x="1241.704" y="-525.9" font-family="Arial" font-size="14.00" fill="#666666">[int(10) unsigned]</text>
<polygon fill="none" stroke="#000000" points="1090,-484.5 1090,-514.5 1447,-514.5 1447,-484.5 1090,-484.5"/>
<text text-anchor="start" x="1097" y="-495.9" font-family="Arial" font-size="14.00" fill="#000000">usage_kwh    </text>
<text text-anchor="start" x="1202.007" y="-495.9" font-family="Arial" font-size="14.00" fill="#666666">[int(10) unsigned]</text>
<polygon fill="none" stroke="#000000" points="1090,-454.5 1090,-484.5 1447,-484.5 1447,-454.5 1090,-454.5"/>
<text text-anchor="start" x="1097" y="-465.9" font-family="Arial" font-size="14.00" fill="#000000">usage_yen    </text>
<text text-anchor="start" x="1199.683" y="-465.9" font-family="Arial" font-size="14.00" fill="#666666">[int(10) unsigned]</text>
<polygon fill="none" stroke="#000000" points="1090,-424.5 1090,-454.5 1447,-454.5 1447,-424.5 1090,-424.5"/>
<text text-anchor="start" x="1097" y="-435.9" font-family="Arial" font-size="14.00" fill="#000000">created_at    </text>
<text text-anchor="start" x="1197.3422" y="-435.9" font-family="Arial" font-size="14.00" fill="#666666">[datetime]</text>
<polygon fill="none" stroke="#000000" points="1090,-394.5 1090,-424.5 1447,-424.5 1447,-394.5 1090,-394.5"/>
<text text-anchor="start" x="1097" y="-405.9" font-family="Arial" font-size="14.00" fill="#000000">updated_at    </text>
<text text-anchor="start" x="1201.2468" y="-405.9" font-family="Arial" font-size="14.00" fill="#666666">[datetime]</text>
</g>
<!-- electricity_monthly_usages&#45;&gt;electricity_fetch_settings -->
<g id="edge2" class="edge">
<title>electricity_monthly_usages:electricity_fetch_setting_id&#45;&gt;electricity_fetch_settings:id</title>
<path fill="none" stroke="#000000" d="M1080.1308,-617.1886C1033.7964,-593.7225 1059.118,-398.5295 1090,-352 1122.2724,-303.3757 1178.7276,-349.6243 1211,-301 1233.9799,-266.3765 1252.5556,-207.5 1211,-207.5"/>
<polygon fill="#000000" stroke="#000000" points="1080.2635,-617.2196 1088.9738,-623.8814 1085.1317,-618.3598 1090,-619.5 1090,-619.5 1090,-619.5 1085.1317,-618.3598 1091.0262,-615.1186 1080.2635,-617.2196 1080.2635,-617.2196"/>
<text text-anchor="start" x="1097.482" y="-629.5" font-family="Arial" font-size="10.00" fill="#000000">FOREIGN KEY (electricity_fetch_setting_id) REFERENCES electricity_fetch_settings (id)</text>
</g>
<!-- gas_fetch_settings -->
<g id="node5" class="node">
<title>gas_fetch_settings</title>
<polygon fill="#efefef" stroke="transparent" points="1561,-222.5 1561,-257.5 1852,-257.5 1852,-222.5 1561,-222.5"/>
<polygon fill="none" stroke="#000000" points="1561,-222.5 1561,-257.5 1852,-257.5 1852,-222.5 1561,-222.5"/>
<text text-anchor="start" x="1567.6866" y="-235.3" font-family="Arial Bold" font-size="18.00" fill="#000000">gas_fetch_settings</text>
<text text-anchor="start" x="1717.7454" y="-235.3" font-family="Arial" font-size="14.00" fill="#000000">    </text>
<text text-anchor="start" x="1751.9502" y="-235.3" font-family="Arial" font-size="14.00" fill="#666666">[BASE TABLE]</text>
<polygon fill="none" stroke="#000000" points="1561,-192.5 1561,-222.5 1852,-222.5 1852,-192.5 1561,-192.5"/>
<text text-anchor="start" x="1568" y="-203.9" font-family="Arial" font-size="14.00" fill="#000000">id    </text>
<text text-anchor="start" x="1613.094" y="-203.9" font-family="Arial" font-size="14.00" fill="#666666">[bigint(20) unsigned]</text>
<polygon fill="none" stroke="#000000" points="1561,-162.5 1561,-192.5 1852,-192.5 1852,-162.5 1561,-162.5"/>
<text text-anchor="start" x="1568" y="-173.9" font-family="Arial" font-size="14.00" fill="#000000">gas_site_id    </text>
<text text-anchor="start" x="1673.0042" y="-173.9" font-family="Arial" font-size="14.00" fill="#666666">[bigint(20) unsigned]</text>
<polygon fill="none" stroke="#000000" points="1561,-132.5 1561,-162.5 1852,-162.5 1852,-132.5 1561,-132.5"/>
<text text-anchor="start" x="1568" y="-143.9" font-family="Arial" font-size="14.00" fill="#000000">user_name    </text>
<text text-anchor="start" x="1672.2216" y="-143.9" font-family="Arial" font-size="14.00" fill="#666666">[varchar(255)]</text>
<polygon fill="none" stroke="#000000" points="1561,-102.5 1561,-132.5 1852,-132.5 1852,-102.5 1561,-102.5"/>
<text text-anchor="start" x="1568" y="-113.9" font-family="Arial" font-size="14.00" fill="#000000">encrypted_password    </text>
<text text-anchor="start" x="1731.3492" y="-113.9" font-family="Arial" font-size="14.00" fill="#666666">[varchar(512)]</text>
<polygon fill="none" stroke="#000000" points="1561,-72.5 1561,-102.5 1852,-102.5 1852,-72.5 1561,-72.5"/>
<text text-anchor="start" x="1568" y="-83.9" font-family="Arial" font-size="14.00" fill="#000000">created_at    </text>
<text text-anchor="start" x="1668.3422" y="-83.9" font-family="Arial" font-size="14.00" fill="#666666">[datetime]</text>
<polygon fill="none" stroke="#000000" points="1561,-42.5 1561,-72.5 1852,-72.5 1852,-42.5 1561,-42.5"/>
<text text-anchor="start" x="1568" y="-53.9" font-family="Arial" font-size="14.00" fill="#000000">updated_at    </text>
<text text-anchor="start" x="1672.2468" y="-53.9" font-family="Arial" font-size="14.00" fill="#666666">[datetime]</text>
</g>
<!-- gas_monthly_usages -->
<g id="node6" class="node">
<title>gas_monthly_usages</title>
<polygon fill="#efefef" stroke="transparent" points="1551,-649.5 1551,-684.5 1862,-684.5 1862,-649.5 1551,-649.5"/>
<polygon fill="none" stroke="#000000" points="1551,-649.5 1551,-684.5 1862,-684.5 1862,-649.5 1551,-649.5"/>
<text text-anchor="start" x="1557.6876" y="-662.3" font-family="Arial Bold" font-size="18.00" fill="#000000">gas_monthly_usages</text>
<text text-anchor="start" x="1727.7444" y="-662.3" font-family="Arial" font-size="14.00" fill="#000000">    </text>
<text text-anchor="start" x="1761.9492" y="-662.3" font-family="Arial" font-size="14.00" fill="#666666">[BASE TABLE]</text>
<polygon fill="none" stroke="#000000" points="1551,-619.5 1551,-649.5 1862,-649.5 1862,-619.5 1551,-619.5"/>
<text text-anchor="start" x="1558" y="-630.9" font-family="Arial" font-size="14.00" fill="#000000">gas_fetch_setting_id    </text>
<text text-anchor="start" x="1720.589" y="-630.9" font-family="Arial" font-size="14.00" fill="#666666">[bigint(20) unsigned]</text>
<polygon fill="none" stroke="#000000" points="1551,-589.5 1551,-619.5 1862,-619.5 1862,-589.5 1551,-589.5"/>
<text text-anchor="start" x="1558" y="-600.9" font-family="Arial" font-size="14.00" fill="#000000">usage_year    </text>
<text text-anchor="start" x="1665.3436" y="-600.9" font-family="Arial" font-size="14.00" fill="#666666">[int(10) unsigned]</text>
<polygon fill="none" stroke="#000000" points="1551,-559.5 1551,-589.5 1862,-589.5 1862,-559.5 1551,-559.5"/>
<text text-anchor="start" x="1558" y="-570.9" font-family="Arial" font-size="14.00" fill="#000000">usage_month    </text>
<text text-anchor="start" x="1677.0168" y="-570.9" font-family="Arial" font-size="14.00" fill="#666666">[int(10) unsigned]</text>
<polygon fill="none" stroke="#000000" points="1551,-529.5 1551,-559.5 1862,-559.5 1862,-529.5 1551,-529.5"/>
<text text-anchor="start" x="1558" y="-540.9" font-family="Arial" font-size="14.00" fill="#000000">usage_begin_at    </text>
<text text-anchor="start" x="1691.8106" y="-540.9" font-family="Arial" font-size="14.00" fill="#666666">[date]</text>
<polygon fill="none" stroke="#000000" points="1551,-499.5 1551,-529.5 1862,-529.5 1862,-499.5 1551,-499.5"/>
<text text-anchor="start" x="1558" y="-510.9" font-family="Arial" font-size="14.00" fill="#000000">usage_end_at    </text>
<text text-anchor="start" x="1680.9214" y="-510.9" font-family="Arial" font-size="14.00" fill="#666666">[date]</text>
<polygon fill="none" stroke="#000000" points="1551,-469.5 1551,-499.5 1862,-499.5 1862,-469.5 1551,-469.5"/>
<text text-anchor="start" x="1558" y="-480.9" font-family="Arial" font-size="14.00" fill="#000000">usage_amount    </text>
<text text-anchor="start" x="1684.7994" y="-480.9" font-family="Arial" font-size="14.00" fill="#666666">[decimal(15,5) unsigned]</text>
<polygon fill="none" stroke="#000000" points="1551,-439.5 1551,-469.5 1862,-469.5 1862,-439.5 1551,-439.5"/>
<text text-anchor="start" x="1558" y="-450.9" font-family="Arial" font-size="14.00" fill="#000000">usage_yen    </text>
<text text-anchor="start" x="1660.683" y="-450.9" font-family="Arial" font-size="14.00" fill="#666666">[int(10) unsigned]</text>
<polygon fill="none" stroke="#000000" points="1551,-409.5 1551,-439.5 1862,-439.5 1862,-409.5 1551,-409.5"/>
<text text-anchor="start" x="1558" y="-420.9" font-family="Arial" font-size="14.00" fill="#000000">created_at    </text>
<text text-anchor="start" x="1658.3422" y="-420.9" font-family="Arial" font-size="14.00" fill="#666666">[datetime]</text>
<polygon fill="none" stroke="#000000" points="1551,-379.5 1551,-409.5 1862,-409.5 1862,-379.5 1551,-379.5"/>
<text text-anchor="start" x="1558" y="-390.9" font-family="Arial" font-size="14.00" fill="#000000">updated_at    </text>
<text text-anchor="start" x="1662.2468" y="-390.9" font-family="Arial" font-size="14.00" fill="#666666">[datetime]</text>
</g>
<!-- gas_monthly_usages&#45;&gt;gas_fetch_settings -->
<g id="edge3" class="edge">
<title>gas_monthly_usages:gas_fetch_setting_id&#45;&gt;gas_fetch_settings:id</title>
<path fill="none" stroke="#000000" d="M1542.2999,-629.1011C1505.0359,-579.672 1516.694,-207.5 1561,-207.5"/>
<polygon fill="#000000" stroke="#000000" points="1542.503,-629.2272 1548.6272,-638.3236 1546.7515,-631.8636 1551,-634.5 1551,-634.5 1551,-634.5 1546.7515,-631.8636 1553.3728,-630.6764 1542.503,-629.2272 1542.503,-629.2272"/>
<text text-anchor="start" x="1558.026" y="-644.5" font-family="Arial" font-size="10.00" fill="#000000">FOREIGN KEY (gas_fetch_setting_id) REFERENCES gas_fetch_settings (id)</text>
</g>
<!-- monthly_costs -->
<g id="node7" class="node">
<title>monthly_costs</title>
<polygon fill="#efefef" stroke="transparent" points="286,-604.5 286,-639.5 542,-639.5 542,-604.5 286,-604.5"/>
<polygon fill="none" stroke="#000000" points="286,-604.5 286,-639.5 542,-639.5 542,-604.5 286,-604.5"/>
<text text-anchor="start" x="292.7051" y="-617.3" font-family="Arial Bold" font-size="18.00" fill="#000000">monthly_costs</text>
<text text-anchor="start" x="407.7269" y="-617.3" font-family="Arial" font-size="14.00" fill="#000000">    </text>
<text text-anchor="start" x="441.9317" y="-617.3" font-family="Arial" font-size="14.00" fill="#666666">[BASE TABLE]</text>
<polygon fill="none" stroke="#000000" points="286,-574.5 286,-604.5 542,-604.5 542,-574.5 286,-574.5"/>
<text text-anchor="start" x="293" y="-585.9" font-family="Arial" font-size="14.00" fill="#000000">cost_type_id    </text>
<text text-anchor="start" x="405.7882" y="-585.9" font-family="Arial" font-size="14.00" fill="#666666">[bigint(20) unsigned]</text>
<polygon fill="none" stroke="#000000" points="286,-544.5 286,-574.5 542,-574.5 542,-544.5 286,-544.5"/>
<text text-anchor="start" x="293" y="-555.9" font-family="Arial" font-size="14.00" fill="#000000">cost_year    </text>
<text text-anchor="start" x="387.8864" y="-555.9" font-family="Arial" font-size="14.00" fill="#666666">[int(10) unsigned]</text>
<polygon fill="none" stroke="#000000" points="286,-514.5 286,-544.5 542,-544.5 542,-514.5 286,-514.5"/>
<text text-anchor="start" x="293" y="-525.9" font-family="Arial" font-size="14.00" fill="#000000">cost_month    </text>
<text text-anchor="start" x="399.5596" y="-525.9" font-family="Arial" font-size="14.00" fill="#666666">[int(10) unsigned]</text>
<polygon fill="none" stroke="#000000" points="286,-484.5 286,-514.5 542,-514.5 542,-484.5 286,-484.5"/>
<text text-anchor="start" x="293" y="-495.9" font-family="Arial" font-size="14.00" fill="#000000">cost_yen    </text>
<text text-anchor="start" x="383.2258" y="-495.9" font-family="Arial" font-size="14.00" fill="#666666">[int(10) unsigned]</text>
<polygon fill="none" stroke="#000000" points="286,-454.5 286,-484.5 542,-484.5 542,-454.5 286,-454.5"/>
<text text-anchor="start" x="293" y="-465.9" font-family="Arial" font-size="14.00" fill="#000000">created_at    </text>
<text text-anchor="start" x="393.3422" y="-465.9" font-family="Arial" font-size="14.00" fill="#666666">[datetime]</text>
<polygon fill="none" stroke="#000000" points="286,-424.5 286,-454.5 542,-454.5 542,-424.5 286,-424.5"/>
<text text-anchor="start" x="293" y="-435.9" font-family="Arial" font-size="14.00" fill="#000000">updated_at    </text>
<text text-anchor="start" x="397.2468" y="-435.9" font-family="Arial" font-size="14.00" fill="#666666">[datetime]</text>
</g>
<!-- monthly_costs&#45;&gt;cost_types -->
<g id="edge4" class="edge">
<title>monthly_costs:cost_type_id&#45;&gt;cost_types:id</title>
<path fill="none" stroke="#000000" d="M275.8018,-588.9165C197.1082,-579.4361 238.2086,-456.6287 286,-382 349.5959,-282.6918 463.4041,-370.3082 527,-271 549.4103,-236.0051 568.5556,-177.5 527,-177.5"/>
<polygon fill="#000000" stroke="#000000" points="276.0163,-588.9287 285.7429,-593.9927 281.0082,-589.2143 286,-589.5 286,-589.5 286,-589.5 281.0082,-589.2143 286.2571,-585.0073 276.0163,-588.9287 276.0163,-588.9287"/>
<text text-anchor="start" x="6.598" y="-599.5" font-family="Arial" font-size="10.00" fill="#000000">FOREIGN KEY (cost_type_id) REFERENCES cost_types (id)</text>
</g>
<!-- water_fetch_settings -->
<g id="node8" class="node">
<title>water_fetch_settings</title>
<polygon fill="#efefef" stroke="transparent" points="1976,-222.5 1976,-257.5 2282,-257.5 2282,-222.5 1976,-222.5"/>
<polygon fill="none" stroke="#000000" points="1976,-222.5 1976,-257.5 2282,-257.5 2282,-222.5 1976,-222.5"/>
<text text-anchor="start" x="1982.6923" y="-235.3" font-family="Arial Bold" font-size="18.00" fill="#000000">water_fetch_settings</text>
<text text-anchor="start" x="2147.7397" y="-235.3" font-family="Arial" font-size="14.00" fill="#000000">    </text>
<text text-anchor="start" x="2181.9445" y="-235.3" font-family="Arial" font-size="14.00" fill="#666666">[BASE TABLE]</text>
<polygon fill="none" stroke="#000000" points="1976,-192.5 1976,-222.5 2282,-222.5 2282,-192.5 1976,-192.5"/>
<text text-anchor="start" x="1983" y="-203.9" font-family="Arial" font-size="14.00" fill="#000000">id    </text>
<text text-anchor="start" x="2028.094" y="-203.9" font-family="Arial" font-size="14.00" fill="#666666">[bigint(20) unsigned]</text>
<polygon fill="none" stroke="#000000" points="1976,-162.5 1976,-192.5 2282,-192.5 2282,-162.5 1976,-162.5"/>
<text text-anchor="start" x="1983" y="-173.9" font-family="Arial" font-size="14.00" fill="#000000">water_site_id    </text>
<text text-anchor="start" x="2099.662" y="-173.9" font-family="Arial" font-size="14.00" fill="#666666">[bigint(20) unsigned]</text>
<polygon fill="none" stroke="#000000" points="1976,-132.5 1976,-162.5 2282,-162.5 2282,-132.5 1976,-132.5"/>
<text text-anchor="start" x="1983" y="-143.9" font-family="Arial" font-size="14.00" fill="#000000">user_name    </text>
<text text-anchor="start" x="2087.2216" y="-143.9" font-family="Arial" font-size="14.00" fill="#666666">[varchar(255)]</text>
<polygon fill="none" stroke="#000000" points="1976,-102.5 1976,-132.5 2282,-132.5 2282,-102.5 1976,-102.5"/>
<text text-anchor="start" x="1983" y="-113.9" font-family="Arial" font-size="14.00" fill="#000000">encrypted_password    </text>
<text text-anchor="start" x="2146.3492" y="-113.9" font-family="Arial" font-size="14.00" fill="#666666">[varchar(512)]</text>
<polygon fill="none" stroke="#000000" points="1976,-72.5 1976,-102.5 2282,-102.5 2282,-72.5 1976,-72.5"/>
<text text-anchor="start" x="1983" y="-83.9" font-family="Arial" font-size="14.00" fill="#000000">created_at    </text>
<text text-anchor="start" x="2083.3422" y="-83.9" font-family="Arial" font-size="14.00" fill="#666666">[datetime]</text>
<polygon fill="none" stroke="#000000" points="1976,-42.5 1976,-72.5 2282,-72.5 2282,-42.5 1976,-42.5"/>
<text text-anchor="start" x="1983" y="-53.9" font-family="Arial" font-size="14.00" fill="#000000">updated_at    </text>
<text text-anchor="start" x="2087.2468" y="-53.9" font-family="Arial" font-size="14.00" fill="#666666">[datetime]</text>
</g>
<!-- water_monthly_usages -->
<g id="node9" class="node">
<title>water_monthly_usages</title>
<polygon fill="#efefef" stroke="transparent" points="1966,-649.5 1966,-684.5 2292,-684.5 2292,-649.5 1966,-649.5"/>
<polygon fill="none" stroke="#000000" points="1966,-649.5 1966,-684.5 2292,-684.5 2292,-649.5 1966,-649.5"/>
<text text-anchor="start" x="1972.6933" y="-662.3" font-family="Arial Bold" font-size="18.00" fill="#000000">water_monthly_usages</text>
<text text-anchor="start" x="2157.7387" y="-662.3" font-family="Arial" font-size="14.00" fill="#000000">    </text>
<text text-anchor="start" x="2191.9435" y="-662.3" font-family="Arial" font-size="14.00" fill="#666666">[BASE TABLE]</text>
<polygon fill="none" stroke="#000000" points="1966,-619.5 1966,-649.5 2292,-649.5 2292,-619.5 1966,-619.5"/>
<text text-anchor="start" x="1973" y="-630.9" font-family="Arial" font-size="14.00" fill="#000000">water_fetch_setting_id    </text>
<text text-anchor="start" x="2147.2468" y="-630.9" font-family="Arial" font-size="14.00" fill="#666666">[bigint(20) unsigned]</text>
<polygon fill="none" stroke="#000000" points="1966,-589.5 1966,-619.5 2292,-619.5 2292,-589.5 1966,-589.5"/>
<text text-anchor="start" x="1973" y="-600.9" font-family="Arial" font-size="14.00" fill="#000000">usage_year    </text>
<text text-anchor="start" x="2080.3436" y="-600.9" font-family="Arial" font-size="14.00" fill="#666666">[int(10) unsigned]</text>
<polygon fill="none" stroke="#000000" points="1966,-559.5 1966,-589.5 2292,-589.5 2292,-559.5 1966,-559.5"/>
<text text-anchor="start" x="1973" y="-570.9" font-family="Arial" font-size="14.00" fill="#000000">usage_month    </text>
<text text-anchor="start" x="2092.0168" y="-570.9" font-family="Arial" font-size="14.00" fill="#666666">[int(10) unsigned]</text>
<polygon fill="none" stroke="#000000" points="1966,-529.5 1966,-559.5 2292,-559.5 2292,-529.5 1966,-529.5"/>
<text text-anchor="start" x="1973" y="-540.9" font-family="Arial" font-size="14.00" fill="#000000">usage_begin_at    </text>
<text text-anchor="start" x="2106.8106" y="-540.9" font-family="Arial" font-size="14.00" fill="#666666">[date]</text>
<polygon fill="none" stroke="#000000" points="1966,-499.5 1966,-529.5 2292,-529.5 2292,-499.5 1966,-499.5"/>
<text text-anchor="start" x="1973" y="-510.9" font-family="Arial" font-size="14.00" fill="#000000">usage_end_at    </text>
<text text-anchor="start" x="2095.9214" y="-510.9" font-family="Arial" font-size="14.00" fill="#666666">[date]</text>
<polygon fill="none" stroke="#000000" points="1966,-469.5 1966,-499.5 2292,-499.5 2292,-469.5 1966,-469.5"/>
<text text-anchor="start" x="1973" y="-480.9" font-family="Arial" font-size="14.00" fill="#000000">usage_amount    </text>
<text text-anchor="start" x="2099.7994" y="-480.9" font-family="Arial" font-size="14.00" fill="#666666">[decimal(15,5) unsigned]</text>
<polygon fill="none" stroke="#000000" points="1966,-439.5 1966,-469.5 2292,-469.5 2292,-439.5 1966,-439.5"/>
<text text-anchor="start" x="1973" y="-450.9" font-family="Arial" font-size="14.00" fill="#000000">usage_yen    </text>
<text text-anchor="start" x="2075.683" y="-450.9" font-family="Arial" font-size="14.00" fill="#666666">[int(10) unsigned]</text>
<polygon fill="none" stroke="#000000" points="1966,-409.5 1966,-439.5 2292,-439.5 2292,-409.5 1966,-409.5"/>
<text text-anchor="start" x="1973" y="-420.9" font-family="Arial" font-size="14.00" fill="#000000">created_at    </text>
<text text-anchor="start" x="2073.3422" y="-420.9" font-family="Arial" font-size="14.00" fill="#666666">[datetime]</text>
<polygon fill="none" stroke="#000000" points="1966,-379.5 1966,-409.5 2292,-409.5 2292,-379.5 1966,-379.5"/>
<text text-anchor="start" x="1973" y="-390.9" font-family="Arial" font-size="14.00" fill="#000000">updated_at    </text>
<text text-anchor="start" x="2077.2468" y="-390.9" font-family="Arial" font-size="14.00" fill="#666666">[datetime]</text>
</g>
<!-- water_monthly_usages&#45;&gt;water_fetch_settings -->
<g id="edge5" class="edge">
<title>water_monthly_usages:water_fetch_setting_id&#45;&gt;water_fetch_settings:id</title>
<path fill="none" stroke="#000000" d="M2301.8786,-632.8678C2386.0814,-604.2001 2373.4854,-207.5 2282,-207.5"/>
<polygon fill="#000000" stroke="#000000" points="2301.8662,-632.8698 2291.2664,-630.0602 2296.9331,-633.6849 2292,-634.5 2292,-634.5 2292,-634.5 2296.9331,-633.6849 2292.7336,-638.9398 2301.8662,-632.8698 2301.8662,-632.8698"/>
<text text-anchor="start" x="2298.699" y="-644.5" font-family="Arial" font-size="10.00" fill="#000000">FOREIGN KEY (water_fetch_setting_id) REFERENCES water_fetch_settings (id)</text>
</g>
</g>
</svg>
