<?xml version="1.0" encoding="UTF-8" standalone="no"?>
<!DOCTYPE svg PUBLIC "-//W3C//DTD SVG 1.1//EN"
 "http://www.w3.org/Graphics/SVG/1.1/DTD/svg11.dtd">
<!-- Generated by graphviz version 2.40.1 (20161225.0304)
 -->
<!-- Title: my&#45;home Pages: 1 -->
<svg width="2779pt" height="736pt"
 viewBox="0.00 0.00 2779.00 736.00" xmlns="http://www.w3.org/2000/svg" xmlns:xlink="http://www.w3.org/1999/xlink">
<g id="graph0" class="graph" transform="scale(1 1) rotate(0) translate(4 732)">
<title>my&#45;home</title>
<polygon fill="#ffffff" stroke="transparent" points="-4,4 -4,-732 2775,-732 2775,4 -4,4"/>
<!-- admin_users -->
<g id="node1" class="node">
<title>admin_users</title>
<polygon fill="#efefef" stroke="transparent" points="43,-589.5 43,-624.5 287,-624.5 287,-589.5 43,-589.5"/>
<polygon fill="none" stroke="#000000" points="43,-589.5 43,-624.5 287,-624.5 287,-589.5 43,-589.5"/>
<text text-anchor="start" x="49.7081" y="-602.3" font-family="Arial Bold" font-size="18.00" fill="#000000">admin_users</text>
<text text-anchor="start" x="152.7239" y="-602.3" font-family="Arial" font-size="14.00" fill="#000000">    </text>
<text text-anchor="start" x="186.9287" y="-602.3" font-family="Arial" font-size="14.00" fill="#666666">[BASE TABLE]</text>
<polygon fill="none" stroke="#000000" points="43,-559.5 43,-589.5 287,-589.5 287,-559.5 43,-559.5"/>
<text text-anchor="start" x="50" y="-570.9" font-family="Arial" font-size="14.00" fill="#000000">id    </text>
<text text-anchor="start" x="95.094" y="-570.9" font-family="Arial" font-size="14.00" fill="#666666">[bigint(20) unsigned]</text>
<polygon fill="none" stroke="#000000" points="43,-529.5 43,-559.5 287,-559.5 287,-529.5 43,-529.5"/>
<text text-anchor="start" x="50" y="-540.9" font-family="Arial" font-size="14.00" fill="#000000">user_name    </text>
<text text-anchor="start" x="154.2216" y="-540.9" font-family="Arial" font-size="14.00" fill="#666666">[varchar(255)]</text>
<polygon fill="none" stroke="#000000" points="43,-499.5 43,-529.5 287,-529.5 287,-499.5 43,-499.5"/>
<text text-anchor="start" x="50" y="-510.9" font-family="Arial" font-size="14.00" fill="#000000">password_hash    </text>
<text text-anchor="start" x="182.2328" y="-510.9" font-family="Arial" font-size="14.00" fill="#666666">[varchar(512)]</text>
<polygon fill="none" stroke="#000000" points="43,-469.5 43,-499.5 287,-499.5 287,-469.5 43,-469.5"/>
<text text-anchor="start" x="50" y="-480.9" font-family="Arial" font-size="14.00" fill="#000000">created_at    </text>
<text text-anchor="start" x="150.3422" y="-480.9" font-family="Arial" font-size="14.00" fill="#666666">[datetime]</text>
<polygon fill="none" stroke="#000000" points="43,-439.5 43,-469.5 287,-469.5 287,-439.5 43,-439.5"/>
<text text-anchor="start" x="50" y="-450.9" font-family="Arial" font-size="14.00" fill="#000000">updated_at    </text>
<text text-anchor="start" x="154.2468" y="-450.9" font-family="Arial" font-size="14.00" fill="#666666">[datetime]</text>
</g>
<!-- cost_types -->
<g id="node2" class="node">
<title>cost_types</title>
<polygon fill="#efefef" stroke="transparent" points="405,-192.5 405,-227.5 632,-227.5 632,-192.5 405,-192.5"/>
<polygon fill="none" stroke="#000000" points="405,-192.5 405,-227.5 632,-227.5 632,-192.5 405,-192.5"/>
<text text-anchor="start" x="411.7014" y="-205.3" font-family="Arial Bold" font-size="18.00" fill="#000000">cost_types</text>
<text text-anchor="start" x="497.7306" y="-205.3" font-family="Arial" font-size="14.00" fill="#000000">    </text>
<text text-anchor="start" x="531.9354" y="-205.3" font-family="Arial" font-size="14.00" fill="#666666">[BASE TABLE]</text>
<polygon fill="none" stroke="#000000" points="405,-162.5 405,-192.5 632,-192.5 632,-162.5 405,-162.5"/>
<text text-anchor="start" x="412" y="-173.9" font-family="Arial" font-size="14.00" fill="#000000">id    </text>
<text text-anchor="start" x="457.094" y="-173.9" font-family="Arial" font-size="14.00" fill="#666666">[bigint(20) unsigned]</text>
<polygon fill="none" stroke="#000000" points="405,-132.5 405,-162.5 632,-162.5 632,-132.5 405,-132.5"/>
<text text-anchor="start" x="412" y="-143.9" font-family="Arial" font-size="14.00" fill="#000000">type_name    </text>
<text text-anchor="start" x="515.4516" y="-143.9" font-family="Arial" font-size="14.00" fill="#666666">[varchar(255)]</text>
<polygon fill="none" stroke="#000000" points="405,-102.5 405,-132.5 632,-132.5 632,-102.5 405,-102.5"/>
<text text-anchor="start" x="412" y="-113.9" font-family="Arial" font-size="14.00" fill="#000000">created_at    </text>
<text text-anchor="start" x="512.3422" y="-113.9" font-family="Arial" font-size="14.00" fill="#666666">[datetime]</text>
<polygon fill="none" stroke="#000000" points="405,-72.5 405,-102.5 632,-102.5 632,-72.5 405,-72.5"/>
<text text-anchor="start" x="412" y="-83.9" font-family="Arial" font-size="14.00" fill="#000000">updated_at    </text>
<text text-anchor="start" x="516.2468" y="-83.9" font-family="Arial" font-size="14.00" fill="#666666">[datetime]</text>
</g>
<!-- electricity_daily_usages -->
<g id="node3" class="node">
<title>electricity_daily_usages</title>
<polygon fill="#efefef" stroke="transparent" points="752,-619.5 752,-654.5 1091,-654.5 1091,-619.5 752,-619.5"/>
<polygon fill="none" stroke="#000000" points="752,-619.5 752,-654.5 1091,-654.5 1091,-619.5 752,-619.5"/>
<text text-anchor="start" x="762.7012" y="-632.3" font-family="Arial Bold" font-size="18.00" fill="#000000">electricity_daily_usages</text>
<text text-anchor="start" x="952.7308" y="-632.3" font-family="Arial" font-size="14.00" fill="#000000">    </text>
<text text-anchor="start" x="986.9356" y="-632.3" font-family="Arial" font-size="14.00" fill="#666666">[BASE TABLE]</text>
<polygon fill="none" stroke="#000000" points="752,-589.5 752,-619.5 1091,-619.5 1091,-589.5 752,-589.5"/>
<text text-anchor="start" x="758.9187" y="-600.9" font-family="Arial" font-size="14.00" fill="#000000">electricity_fetch_setting_id    </text>
<text text-anchor="start" x="957.2693" y="-600.9" font-family="Arial" font-size="14.00" fill="#666666">[bigint(20) unsigned]</text>
<polygon fill="none" stroke="#000000" points="752,-559.5 752,-589.5 1091,-589.5 1091,-559.5 752,-559.5"/>
<text text-anchor="start" x="759" y="-570.9" font-family="Arial" font-size="14.00" fill="#000000">usage_year    </text>
<text text-anchor="start" x="866.3436" y="-570.9" font-family="Arial" font-size="14.00" fill="#666666">[int(10) unsigned]</text>
<polygon fill="none" stroke="#000000" points="752,-529.5 752,-559.5 1091,-559.5 1091,-529.5 752,-529.5"/>
<text text-anchor="start" x="759" y="-540.9" font-family="Arial" font-size="14.00" fill="#000000">usage_month    </text>
<text text-anchor="start" x="878.0168" y="-540.9" font-family="Arial" font-size="14.00" fill="#666666">[int(10) unsigned]</text>
<polygon fill="none" stroke="#000000" points="752,-499.5 752,-529.5 1091,-529.5 1091,-499.5 752,-499.5"/>
<text text-anchor="start" x="759" y="-510.9" font-family="Arial" font-size="14.00" fill="#000000">usage_date    </text>
<text text-anchor="start" x="866.3562" y="-510.9" font-family="Arial" font-size="14.00" fill="#666666">[int(10) unsigned]</text>
<polygon fill="none" stroke="#000000" points="752,-469.5 752,-499.5 1091,-499.5 1091,-469.5 752,-469.5"/>
<text text-anchor="start" x="759" y="-480.9" font-family="Arial" font-size="14.00" fill="#000000">usage_amount    </text>
<text text-anchor="start" x="885.7994" y="-480.9" font-family="Arial" font-size="14.00" fill="#666666">[decimal(15,5) unsigned]</text>
<polygon fill="none" stroke="#000000" points="752,-439.5 752,-469.5 1091,-469.5 1091,-439.5 752,-439.5"/>
<text text-anchor="start" x="759" y="-450.9" font-family="Arial" font-size="14.00" fill="#000000">created_at    </text>
<text text-anchor="start" x="859.3422" y="-450.9" font-family="Arial" font-size="14.00" fill="#666666">[datetime]</text>
<polygon fill="none" stroke="#000000" points="752,-409.5 752,-439.5 1091,-439.5 1091,-409.5 752,-409.5"/>
<text text-anchor="start" x="759" y="-420.9" font-family="Arial" font-size="14.00" fill="#000000">updated_at    </text>
<text text-anchor="start" x="863.2468" y="-420.9" font-family="Arial" font-size="14.00" fill="#666666">[datetime]</text>
</g>
<!-- electricity_fetch_settings -->
<g id="node4" class="node">
<title>electricity_fetch_settings</title>
<polygon fill="#efefef" stroke="transparent" points="979,-222.5 979,-257.5 1316,-257.5 1316,-222.5 979,-222.5"/>
<polygon fill="none" stroke="#000000" points="979,-222.5 979,-257.5 1316,-257.5 1316,-222.5 979,-222.5"/>
<text text-anchor="start" x="985.697" y="-235.3" font-family="Arial Bold" font-size="18.00" fill="#000000">electricity_fetch_settings</text>
<text text-anchor="start" x="1181.735" y="-235.3" font-family="Arial" font-size="14.00" fill="#000000">    </text>
<text text-anchor="start" x="1215.9398" y="-235.3" font-family="Arial" font-size="14.00" fill="#666666">[BASE TABLE]</text>
<polygon fill="none" stroke="#000000" points="979,-192.5 979,-222.5 1316,-222.5 1316,-192.5 979,-192.5"/>
<text text-anchor="start" x="986" y="-203.9" font-family="Arial" font-size="14.00" fill="#000000">id    </text>
<text text-anchor="start" x="1031.094" y="-203.9" font-family="Arial" font-size="14.00" fill="#666666">[bigint(20) unsigned]</text>
<polygon fill="none" stroke="#000000" points="979,-162.5 979,-192.5 1316,-192.5 1316,-162.5 979,-162.5"/>
<text text-anchor="start" x="986" y="-173.9" font-family="Arial" font-size="14.00" fill="#000000">electricity_site_id    </text>
<text text-anchor="start" x="1126.7658" y="-173.9" font-family="Arial" font-size="14.00" fill="#666666">[bigint(20) unsigned]</text>
<polygon fill="none" stroke="#000000" points="979,-132.5 979,-162.5 1316,-162.5 1316,-132.5 979,-132.5"/>
<text text-anchor="start" x="986" y="-143.9" font-family="Arial" font-size="14.00" fill="#000000">user_name    </text>
<text text-anchor="start" x="1090.2216" y="-143.9" font-family="Arial" font-size="14.00" fill="#666666">[varchar(255)]</text>
<polygon fill="none" stroke="#000000" points="979,-102.5 979,-132.5 1316,-132.5 1316,-102.5 979,-102.5"/>
<text text-anchor="start" x="986" y="-113.9" font-family="Arial" font-size="14.00" fill="#000000">encrypted_password    </text>
<text text-anchor="start" x="1149.3492" y="-113.9" font-family="Arial" font-size="14.00" fill="#666666">[varchar(512)]</text>
<polygon fill="none" stroke="#000000" points="979,-72.5 979,-102.5 1316,-102.5 1316,-72.5 979,-72.5"/>
<text text-anchor="start" x="986" y="-83.9" font-family="Arial" font-size="14.00" fill="#000000">created_at    </text>
<text text-anchor="start" x="1086.3422" y="-83.9" font-family="Arial" font-size="14.00" fill="#666666">[datetime]</text>
<polygon fill="none" stroke="#000000" points="979,-42.5 979,-72.5 1316,-72.5 1316,-42.5 979,-42.5"/>
<text text-anchor="start" x="986" y="-53.9" font-family="Arial" font-size="14.00" fill="#000000">updated_at    </text>
<text text-anchor="start" x="1090.2468" y="-53.9" font-family="Arial" font-size="14.00" fill="#666666">[datetime]</text>
</g>
<!-- electricity_daily_usages&#45;&gt;electricity_fetch_settings -->
<g id="edge1" class="edge">
<title>electricity_daily_usages:electricity_fetch_setting_id&#45;&gt;electricity_fetch_settings:id</title>
<path fill="none" stroke="#000000" d="M1100.9834,-601.7745C1140.0402,-578.2666 1115.344,-409.6019 1091,-367 1062.3342,-316.8348 1007.6658,-351.1652 979,-301 958.3827,-264.9197 937.4444,-207.5 979,-207.5"/>
<polygon fill="#000000" stroke="#000000" points="1100.647,-601.8662 1089.8148,-600.1589 1095.8235,-603.1831 1091,-604.5 1091,-604.5 1091,-604.5 1095.8235,-603.1831 1092.1852,-608.8411 1100.647,-601.8662 1100.647,-601.8662"/>
<text text-anchor="start" x="689.482" y="-614.5" font-family="Arial" font-size="10.00" fill="#000000">FOREIGN KEY (electricity_fetch_setting_id) REFERENCES electricity_fetch_settings (id)</text>
</g>
<!-- electricity_monthly_usages -->
<g id="node5" class="node">
<title>electricity_monthly_usages</title>
<polygon fill="#efefef" stroke="transparent" points="1195,-634.5 1195,-669.5 1552,-669.5 1552,-634.5 1195,-634.5"/>
<polygon fill="none" stroke="#000000" points="1195,-634.5 1195,-669.5 1552,-669.5 1552,-634.5 1195,-634.5"/>
<text text-anchor="start" x="1201.698" y="-647.3" font-family="Arial Bold" font-size="18.00" fill="#000000">electricity_monthly_usages</text>
<text text-anchor="start" x="1417.734" y="-647.3" font-family="Arial" font-size="14.00" fill="#000000">    </text>
<text text-anchor="start" x="1451.9388" y="-647.3" font-family="Arial" font-size="14.00" fill="#666666">[BASE TABLE]</text>
<polygon fill="none" stroke="#000000" points="1195,-604.5 1195,-634.5 1552,-634.5 1552,-604.5 1195,-604.5"/>
<text text-anchor="start" x="1202" y="-615.9" font-family="Arial" font-size="14.00" fill="#000000">electricity_fetch_setting_id    </text>
<text text-anchor="start" x="1400.3506" y="-615.9" font-family="Arial" font-size="14.00" fill="#666666">[bigint(20) unsigned]</text>
<polygon fill="none" stroke="#000000" points="1195,-574.5 1195,-604.5 1552,-604.5 1552,-574.5 1195,-574.5"/>
<text text-anchor="start" x="1202" y="-585.9" font-family="Arial" font-size="14.00" fill="#000000">usage_year    </text>
<text text-anchor="start" x="1309.3436" y="-585.9" font-family="Arial" font-size="14.00" fill="#666666">[int(10) unsigned]</text>
<polygon fill="none" stroke="#000000" points="1195,-544.5 1195,-574.5 1552,-574.5 1552,-544.5 1195,-544.5"/>
<text text-anchor="start" x="1202" y="-555.9" font-family="Arial" font-size="14.00" fill="#000000">usage_month    </text>
<text text-anchor="start" x="1321.0168" y="-555.9" font-family="Arial" font-size="14.00" fill="#666666">[int(10) unsigned]</text>
<polygon fill="none" stroke="#000000" points="1195,-514.5 1195,-544.5 1552,-544.5 1552,-514.5 1195,-514.5"/>
<text text-anchor="start" x="1202" y="-525.9" font-family="Arial" font-size="14.00" fill="#000000">usage_day_count    </text>
<text text-anchor="start" x="1346.704" y="-525.9" font-family="Arial" font-size="14.00" fill="#666666">[int(10) unsigned]</text>
<polygon fill="none" stroke="#000000" points="1195,-484.5 1195,-514.5 1552,-514.5 1552,-484.5 1195,-484.5"/>
<text text-anchor="start" x="1202" y="-495.9" font-family="Arial" font-size="14.00" fill="#000000">usage_kwh    </text>
<text text-anchor="start" x="1307.007" y="-495.9" font-family="Arial" font-size="14.00" fill="#666666">[int(10) unsigned]</text>
<polygon fill="none" stroke="#000000" points="1195,-454.5 1195,-484.5 1552,-484.5 1552,-454.5 1195,-454.5"/>
<text text-anchor="start" x="1202" y="-465.9" font-family="Arial" font-size="14.00" fill="#000000">usage_yen    </text>
<text text-anchor="start" x="1304.683" y="-465.9" font-family="Arial" font-size="14.00" fill="#666666">[int(10) unsigned]</text>
<polygon fill="none" stroke="#000000" points="1195,-424.5 1195,-454.5 1552,-454.5 1552,-424.5 1195,-424.5"/>
<text text-anchor="start" x="1202" y="-435.9" font-family="Arial" font-size="14.00" fill="#000000">created_at    </text>
<text text-anchor="start" x="1302.3422" y="-435.9" font-family="Arial" font-size="14.00" fill="#666666">[datetime]</text>
<polygon fill="none" stroke="#000000" points="1195,-394.5 1195,-424.5 1552,-424.5 1552,-394.5 1195,-394.5"/>
<text text-anchor="start" x="1202" y="-405.9" font-family="Arial" font-size="14.00" fill="#000000">updated_at    </text>
<text text-anchor="start" x="1306.2468" y="-405.9" font-family="Arial" font-size="14.00" fill="#666666">[datetime]</text>
</g>
<!-- electricity_monthly_usages&#45;&gt;electricity_fetch_settings -->
<g id="edge2" class="edge">
<title>electricity_monthly_usages:electricity_fetch_setting_id&#45;&gt;electricity_fetch_settings:id</title>
<path fill="none" stroke="#000000" d="M1185.1308,-617.1886C1138.7964,-593.7225 1164.118,-398.5295 1195,-352 1227.2724,-303.3757 1283.7276,-349.6243 1316,-301 1338.9799,-266.3765 1357.5556,-207.5 1316,-207.5"/>
<polygon fill="#000000" stroke="#000000" points="1185.2635,-617.2196 1193.9738,-623.8814 1190.1317,-618.3598 1195,-619.5 1195,-619.5 1195,-619.5 1190.1317,-618.3598 1196.0262,-615.1186 1185.2635,-617.2196 1185.2635,-617.2196"/>
<text text-anchor="start" x="1202.482" y="-629.5" font-family="Arial" font-size="10.00" fill="#000000">FOREIGN KEY (electricity_fetch_setting_id) REFERENCES electricity_fetch_settings (id)</text>
</g>
<!-- gas_fetch_settings -->
<g id="node6" class="node">
<title>gas_fetch_settings</title>
<polygon fill="#efefef" stroke="transparent" points="1666,-222.5 1666,-257.5 1957,-257.5 1957,-222.5 1666,-222.5"/>
<polygon fill="none" stroke="#000000" points="1666,-222.5 1666,-257.5 1957,-257.5 1957,-222.5 1666,-222.5"/>
<text text-anchor="start" x="1672.6866" y="-235.3" font-family="Arial Bold" font-size="18.00" fill="#000000">gas_fetch_settings</text>
<text text-anchor="start" x="1822.7454" y="-235.3" font-family="Arial" font-size="14.00" fill="#000000">    </text>
<text text-anchor="start" x="1856.9502" y="-235.3" font-family="Arial" font-size="14.00" fill="#666666">[BASE TABLE]</text>
<polygon fill="none" stroke="#000000" points="1666,-192.5 1666,-222.5 1957,-222.5 1957,-192.5 1666,-192.5"/>
<text text-anchor="start" x="1673" y="-203.9" font-family="Arial" font-size="14.00" fill="#000000">id    </text>
<text text-anchor="start" x="1718.094" y="-203.9" font-family="Arial" font-size="14.00" fill="#666666">[bigint(20) unsigned]</text>
<polygon fill="none" stroke="#000000" points="1666,-162.5 1666,-192.5 1957,-192.5 1957,-162.5 1666,-162.5"/>
<text text-anchor="start" x="1673" y="-173.9" font-family="Arial" font-size="14.00" fill="#000000">gas_site_id    </text>
<text text-anchor="start" x="1778.0042" y="-173.9" font-family="Arial" font-size="14.00" fill="#666666">[bigint(20) unsigned]</text>
<polygon fill="none" stroke="#000000" points="1666,-132.5 1666,-162.5 1957,-162.5 1957,-132.5 1666,-132.5"/>
<text text-anchor="start" x="1673" y="-143.9" font-family="Arial" font-size="14.00" fill="#000000">user_name    </text>
<text text-anchor="start" x="1777.2216" y="-143.9" font-family="Arial" font-size="14.00" fill="#666666">[varchar(255)]</text>
<polygon fill="none" stroke="#000000" points="1666,-102.5 1666,-132.5 1957,-132.5 1957,-102.5 1666,-102.5"/>
<text text-anchor="start" x="1673" y="-113.9" font-family="Arial" font-size="14.00" fill="#000000">encrypted_password    </text>
<text text-anchor="start" x="1836.3492" y="-113.9" font-family="Arial" font-size="14.00" fill="#666666">[varchar(512)]</text>
<polygon fill="none" stroke="#000000" points="1666,-72.5 1666,-102.5 1957,-102.5 1957,-72.5 1666,-72.5"/>
<text text-anchor="start" x="1673" y="-83.9" font-family="Arial" font-size="14.00" fill="#000000">created_at    </text>
<text text-anchor="start" x="1773.3422" y="-83.9" font-family="Arial" font-size="14.00" fill="#666666">[datetime]</text>
<polygon fill="none" stroke="#000000" points="1666,-42.5 1666,-72.5 1957,-72.5 1957,-42.5 1666,-42.5"/>
<text text-anchor="start" x="1673" y="-53.9" font-family="Arial" font-size="14.00" fill="#000000">updated_at    </text>
<text text-anchor="start" x="1777.2468" y="-53.9" font-family="Arial" font-size="14.00" fill="#666666">[datetime]</text>
</g>
<!-- gas_monthly_usages -->
<g id="node7" class="node">
<title>gas_monthly_usages</title>
<polygon fill="#efefef" stroke="transparent" points="1656,-649.5 1656,-684.5 1967,-684.5 1967,-649.5 1656,-649.5"/>
<polygon fill="none" stroke="#000000" points="1656,-649.5 1656,-684.5 1967,-684.5 1967,-649.5 1656,-649.5"/>
<text text-anchor="start" x="1662.6876" y="-662.3" font-family="Arial Bold" font-size="18.00" fill="#000000">gas_monthly_usages</text>
<text text-anchor="start" x="1832.7444" y="-662.3" font-family="Arial" font-size="14.00" fill="#000000">    </text>
<text text-anchor="start" x="1866.9492" y="-662.3" font-family="Arial" font-size="14.00" fill="#666666">[BASE TABLE]</text>
<polygon fill="none" stroke="#000000" points="1656,-619.5 1656,-649.5 1967,-649.5 1967,-619.5 1656,-619.5"/>
<text text-anchor="start" x="1663" y="-630.9" font-family="Arial" font-size="14.00" fill="#000000">gas_fetch_setting_id    </text>
<text text-anchor="start" x="1825.589" y="-630.9" font-family="Arial" font-size="14.00" fill="#666666">[bigint(20) unsigned]</text>
<polygon fill="none" stroke="#000000" points="1656,-589.5 1656,-619.5 1967,-619.5 1967,-589.5 1656,-589.5"/>
<text text-anchor="start" x="1663" y="-600.9" font-family="Arial" font-size="14.00" fill="#000000">usage_year    </text>
<text text-anchor="start" x="1770.3436" y="-600.9" font-family="Arial" font-size="14.00" fill="#666666">[int(10) unsigned]</text>
<polygon fill="none" stroke="#000000" points="1656,-559.5 1656,-589.5 1967,-589.5 1967,-559.5 1656,-559.5"/>
<text text-anchor="start" x="1663" y="-570.9" font-family="Arial" font-size="14.00" fill="#000000">usage_month    </text>
<text text-anchor="start" x="1782.0168" y="-570.9" font-family="Arial" font-size="14.00" fill="#666666">[int(10) unsigned]</text>
<polygon fill="none" stroke="#000000" points="1656,-529.5 1656,-559.5 1967,-559.5 1967,-529.5 1656,-529.5"/>
<text text-anchor="start" x="1663" y="-540.9" font-family="Arial" font-size="14.00" fill="#000000">usage_begin_at    </text>
<text text-anchor="start" x="1796.8106" y="-540.9" font-family="Arial" font-size="14.00" fill="#666666">[date]</text>
<polygon fill="none" stroke="#000000" points="1656,-499.5 1656,-529.5 1967,-529.5 1967,-499.5 1656,-499.5"/>
<text text-anchor="start" x="1663" y="-510.9" font-family="Arial" font-size="14.00" fill="#000000">usage_end_at    </text>
<text text-anchor="start" x="1785.9214" y="-510.9" font-family="Arial" font-size="14.00" fill="#666666">[date]</text>
<polygon fill="none" stroke="#000000" points="1656,-469.5 1656,-499.5 1967,-499.5 1967,-469.5 1656,-469.5"/>
<text text-anchor="start" x="1663" y="-480.9" font-family="Arial" font-size="14.00" fill="#000000">usage_amount    </text>
<text text-anchor="start" x="1789.7994" y="-480.9" font-family="Arial" font-size="14.00" fill="#666666">[decimal(15,5) unsigned]</text>
<polygon fill="none" stroke="#000000" points="1656,-439.5 1656,-469.5 1967,-469.5 1967,-439.5 1656,-439.5"/>
<text text-anchor="start" x="1663" y="-450.9" font-family="Arial" font-size="14.00" fill="#000000">usage_yen    </text>
<text text-anchor="start" x="1765.683" y="-450.9" font-family="Arial" font-size="14.00" fill="#666666">[int(10) unsigned]</text>
<polygon fill="none" stroke="#000000" points="1656,-409.5 1656,-439.5 1967,-439.5 1967,-409.5 1656,-409.5"/>
<text text-anchor="start" x="1663" y="-420.9" font-family="Arial" font-size="14.00" fill="#000000">created_at    </text>
<text text-anchor="start" x="1763.3422" y="-420.9" font-family="Arial" font-size="14.00" fill="#666666">[datetime]</text>
<polygon fill="none" stroke="#000000" points="1656,-379.5 1656,-409.5 1967,-409.5 1967,-379.5 1656,-379.5"/>
<text text-anchor="start" x="1663" y="-390.9" font-family="Arial" font-size="14.00" fill="#000000">updated_at    </text>
<text text-anchor="start" x="1767.2468" y="-390.9" font-family="Arial" font-size="14.00" fill="#666666">[datetime]</text>
</g>
<!-- gas_monthly_usages&#45;&gt;gas_fetch_settings -->
<g id="edge3" class="edge">
<title>gas_monthly_usages:gas_fetch_setting_id&#45;&gt;gas_fetch_settings:id</title>
<path fill="none" stroke="#000000" d="M1647.2999,-629.1011C1610.0359,-579.672 1621.694,-207.5 1666,-207.5"/>
<polygon fill="#000000" stroke="#000000" points="1647.503,-629.2272 1653.6272,-638.3236 1651.7515,-631.8636 1656,-634.5 1656,-634.5 1656,-634.5 1651.7515,-631.8636 1658.3728,-630.6764 1647.503,-629.2272 1647.503,-629.2272"/>
<text text-anchor="start" x="1663.026" y="-644.5" font-family="Arial" font-size="10.00" fill="#000000">FOREIGN KEY (gas_fetch_setting_id) REFERENCES gas_fetch_settings (id)</text>
</g>
<!-- monthly_costs -->
<g id="node8" class="node">
<title>monthly_costs</title>
<polygon fill="#efefef" stroke="transparent" points="391,-604.5 391,-639.5 647,-639.5 647,-604.5 391,-604.5"/>
<polygon fill="none" stroke="#000000" points="391,-604.5 391,-639.5 647,-639.5 647,-604.5 391,-604.5"/>
<text text-anchor="start" x="397.7051" y="-617.3" font-family="Arial Bold" font-size="18.00" fill="#000000">monthly_costs</text>
<text text-anchor="start" x="512.7269" y="-617.3" font-family="Arial" font-size="14.00" fill="#000000">    </text>
<text text-anchor="start" x="546.9317" y="-617.3" font-family="Arial" font-size="14.00" fill="#666666">[BASE TABLE]</text>
<polygon fill="none" stroke="#000000" points="391,-574.5 391,-604.5 647,-604.5 647,-574.5 391,-574.5"/>
<text text-anchor="start" x="398" y="-585.9" font-family="Arial" font-size="14.00" fill="#000000">cost_type_id    </text>
<text text-anchor="start" x="510.7882" y="-585.9" font-family="Arial" font-size="14.00" fill="#666666">[bigint(20) unsigned]</text>
<polygon fill="none" stroke="#000000" points="391,-544.5 391,-574.5 647,-574.5 647,-544.5 391,-544.5"/>
<text text-anchor="start" x="398" y="-555.9" font-family="Arial" font-size="14.00" fill="#000000">cost_year    </text>
<text text-anchor="start" x="492.8864" y="-555.9" font-family="Arial" font-size="14.00" fill="#666666">[int(10) unsigned]</text>
<polygon fill="none" stroke="#000000" points="391,-514.5 391,-544.5 647,-544.5 647,-514.5 391,-514.5"/>
<text text-anchor="start" x="398" y="-525.9" font-family="Arial" font-size="14.00" fill="#000000">cost_month    </text>
<text text-anchor="start" x="504.5596" y="-525.9" font-family="Arial" font-size="14.00" fill="#666666">[int(10) unsigned]</text>
<polygon fill="none" stroke="#000000" points="391,-484.5 391,-514.5 647,-514.5 647,-484.5 391,-484.5"/>
<text text-anchor="start" x="398" y="-495.9" font-family="Arial" font-size="14.00" fill="#000000">cost_yen    </text>
<text text-anchor="start" x="488.2258" y="-495.9" font-family="Arial" font-size="14.00" fill="#666666">[int(10) unsigned]</text>
<polygon fill="none" stroke="#000000" points="391,-454.5 391,-484.5 647,-484.5 647,-454.5 391,-454.5"/>
<text text-anchor="start" x="398" y="-465.9" font-family="Arial" font-size="14.00" fill="#000000">created_at    </text>
<text text-anchor="start" x="498.3422" y="-465.9" font-family="Arial" font-size="14.00" fill="#666666">[datetime]</text>
<polygon fill="none" stroke="#000000" points="391,-424.5 391,-454.5 647,-454.5 647,-424.5 391,-424.5"/>
<text text-anchor="start" x="398" y="-435.9" font-family="Arial" font-size="14.00" fill="#000000">updated_at    </text>
<text text-anchor="start" x="502.2468" y="-435.9" font-family="Arial" font-size="14.00" fill="#666666">[datetime]</text>
</g>
<!-- monthly_costs&#45;&gt;cost_types -->
<g id="edge4" class="edge">
<title>monthly_costs:cost_type_id&#45;&gt;cost_types:id</title>
<path fill="none" stroke="#000000" d="M381.3956,-586.5539C348.2304,-563.938 368.0757,-417.7975 391,-382 454.5959,-282.6918 568.4041,-370.3082 632,-271 654.4103,-236.0051 673.5556,-177.5 632,-177.5"/>
<polygon fill="#000000" stroke="#000000" points="381.4397,-586.5674 389.6803,-593.8022 386.2198,-588.0337 391,-589.5 391,-589.5 391,-589.5 386.2198,-588.0337 392.3197,-585.1978 381.4397,-586.5674 381.4397,-586.5674"/>
<text text-anchor="start" x="111.598" y="-599.5" font-family="Arial" font-size="10.00" fill="#000000">FOREIGN KEY (cost_type_id) REFERENCES cost_types (id)</text>
</g>
<!-- water_fetch_settings -->
<g id="node9" class="node">
<title>water_fetch_settings</title>
<polygon fill="#efefef" stroke="transparent" points="2081,-222.5 2081,-257.5 2387,-257.5 2387,-222.5 2081,-222.5"/>
<polygon fill="none" stroke="#000000" points="2081,-222.5 2081,-257.5 2387,-257.5 2387,-222.5 2081,-222.5"/>
<text text-anchor="start" x="2087.6923" y="-235.3" font-family="Arial Bold" font-size="18.00" fill="#000000">water_fetch_settings</text>
<text text-anchor="start" x="2252.7397" y="-235.3" font-family="Arial" font-size="14.00" fill="#000000">    </text>
<text text-anchor="start" x="2286.9445" y="-235.3" font-family="Arial" font-size="14.00" fill="#666666">[BASE TABLE]</text>
<polygon fill="none" stroke="#000000" points="2081,-192.5 2081,-222.5 2387,-222.5 2387,-192.5 2081,-192.5"/>
<text text-anchor="start" x="2088" y="-203.9" font-family="Arial" font-size="14.00" fill="#000000">id    </text>
<text text-anchor="start" x="2133.094" y="-203.9" font-family="Arial" font-size="14.00" fill="#666666">[bigint(20) unsigned]</text>
<polygon fill="none" stroke="#000000" points="2081,-162.5 2081,-192.5 2387,-192.5 2387,-162.5 2081,-162.5"/>
<text text-anchor="start" x="2088" y="-173.9" font-family="Arial" font-size="14.00" fill="#000000">water_site_id    </text>
<text text-anchor="start" x="2204.662" y="-173.9" font-family="Arial" font-size="14.00" fill="#666666">[bigint(20) unsigned]</text>
<polygon fill="none" stroke="#000000" points="2081,-132.5 2081,-162.5 2387,-162.5 2387,-132.5 2081,-132.5"/>
<text text-anchor="start" x="2088" y="-143.9" font-family="Arial" font-size="14.00" fill="#000000">user_name    </text>
<text text-anchor="start" x="2192.2216" y="-143.9" font-family="Arial" font-size="14.00" fill="#666666">[varchar(255)]</text>
<polygon fill="none" stroke="#000000" points="2081,-102.5 2081,-132.5 2387,-132.5 2387,-102.5 2081,-102.5"/>
<text text-anchor="start" x="2088" y="-113.9" font-family="Arial" font-size="14.00" fill="#000000">encrypted_password    </text>
<text text-anchor="start" x="2251.3492" y="-113.9" font-family="Arial" font-size="14.00" fill="#666666">[varchar(512)]</text>
<polygon fill="none" stroke="#000000" points="2081,-72.5 2081,-102.5 2387,-102.5 2387,-72.5 2081,-72.5"/>
<text text-anchor="start" x="2088" y="-83.9" font-family="Arial" font-size="14.00" fill="#000000">created_at    </text>
<text text-anchor="start" x="2188.3422" y="-83.9" font-family="Arial" font-size="14.00" fill="#666666">[datetime]</text>
<polygon fill="none" stroke="#000000" points="2081,-42.5 2081,-72.5 2387,-72.5 2387,-42.5 2081,-42.5"/>
<text text-anchor="start" x="2088" y="-53.9" font-family="Arial" font-size="14.00" fill="#000000">updated_at    </text>
<text text-anchor="start" x="2192.2468" y="-53.9" font-family="Arial" font-size="14.00" fill="#666666">[datetime]</text>
</g>
<!-- water_monthly_usages -->
<g id="node10" class="node">
<title>water_monthly_usages</title>
<polygon fill="#efefef" stroke="transparent" points="2071,-649.5 2071,-684.5 2397,-684.5 2397,-649.5 2071,-649.5"/>
<polygon fill="none" stroke="#000000" points="2071,-649.5 2071,-684.5 2397,-684.5 2397,-649.5 2071,-649.5"/>
<text text-anchor="start" x="2077.6933" y="-662.3" font-family="Arial Bold" font-size="18.00" fill="#000000">water_monthly_usages</text>
<text text-anchor="start" x="2262.7387" y="-662.3" font-family="Arial" font-size="14.00" fill="#000000">    </text>
<text text-anchor="start" x="2296.9435" y="-662.3" font-family="Arial" font-size="14.00" fill="#666666">[BASE TABLE]</text>
<polygon fill="none" stroke="#000000" points="2071,-619.5 2071,-649.5 2397,-649.5 2397,-619.5 2071,-619.5"/>
<text text-anchor="start" x="2078" y="-630.9" font-family="Arial" font-size="14.00" fill="#000000">water_fetch_setting_id    </text>
<text text-anchor="start" x="2252.2468" y="-630.9" font-family="Arial" font-size="14.00" fill="#666666">[bigint(20) unsigned]</text>
<polygon fill="none" stroke="#000000" points="2071,-589.5 2071,-619.5 2397,-619.5 2397,-589.5 2071,-589.5"/>
<text text-anchor="start" x="2078" y="-600.9" font-family="Arial" font-size="14.00" fill="#000000">usage_year    </text>
<text text-anchor="start" x="2185.3436" y="-600.9" font-family="Arial" font-size="14.00" fill="#666666">[int(10) unsigned]</text>
<polygon fill="none" stroke="#000000" points="2071,-559.5 2071,-589.5 2397,-589.5 2397,-559.5 2071,-559.5"/>
<text text-anchor="start" x="2078" y="-570.9" font-family="Arial" font-size="14.00" fill="#000000">usage_month    </text>
<text text-anchor="start" x="2197.0168" y="-570.9" font-family="Arial" font-size="14.00" fill="#666666">[int(10) unsigned]</text>
<polygon fill="none" stroke="#000000" points="2071,-529.5 2071,-559.5 2397,-559.5 2397,-529.5 2071,-529.5"/>
<text text-anchor="start" x="2078" y="-540.9" font-family="Arial" font-size="14.00" fill="#000000">usage_begin_at    </text>
<text text-anchor="start" x="2211.8106" y="-540.9" font-family="Arial" font-size="14.00" fill="#666666">[date]</text>
<polygon fill="none" stroke="#000000" points="2071,-499.5 2071,-529.5 2397,-529.5 2397,-499.5 2071,-499.5"/>
<text text-anchor="start" x="2078" y="-510.9" font-family="Arial" font-size="14.00" fill="#000000">usage_end_at    </text>
<text text-anchor="start" x="2200.9214" y="-510.9" font-family="Arial" font-size="14.00" fill="#666666">[date]</text>
<polygon fill="none" stroke="#000000" points="2071,-469.5 2071,-499.5 2397,-499.5 2397,-469.5 2071,-469.5"/>
<text text-anchor="start" x="2078" y="-480.9" font-family="Arial" font-size="14.00" fill="#000000">usage_amount    </text>
<text text-anchor="start" x="2204.7994" y="-480.9" font-family="Arial" font-size="14.00" fill="#666666">[decimal(15,5) unsigned]</text>
<polygon fill="none" stroke="#000000" points="2071,-439.5 2071,-469.5 2397,-469.5 2397,-439.5 2071,-439.5"/>
<text text-anchor="start" x="2078" y="-450.9" font-family="Arial" font-size="14.00" fill="#000000">usage_yen    </text>
<text text-anchor="start" x="2180.683" y="-450.9" font-family="Arial" font-size="14.00" fill="#666666">[int(10) unsigned]</text>
<polygon fill="none" stroke="#000000" points="2071,-409.5 2071,-439.5 2397,-439.5 2397,-409.5 2071,-409.5"/>
<text text-anchor="start" x="2078" y="-420.9" font-family="Arial" font-size="14.00" fill="#000000">created_at    </text>
<text text-anchor="start" x="2178.3422" y="-420.9" font-family="Arial" font-size="14.00" fill="#666666">[datetime]</text>
<polygon fill="none" stroke="#000000" points="2071,-379.5 2071,-409.5 2397,-409.5 2397,-379.5 2071,-379.5"/>
<text text-anchor="start" x="2078" y="-390.9" font-family="Arial" font-size="14.00" fill="#000000">updated_at    </text>
<text text-anchor="start" x="2182.2468" y="-390.9" font-family="Arial" font-size="14.00" fill="#666666">[datetime]</text>
</g>
<!-- water_monthly_usages&#45;&gt;water_fetch_settings -->
<g id="edge5" class="edge">
<title>water_monthly_usages:water_fetch_setting_id&#45;&gt;water_fetch_settings:id</title>
<path fill="none" stroke="#000000" d="M2406.8786,-632.8678C2491.0814,-604.2001 2478.4854,-207.5 2387,-207.5"/>
<polygon fill="#000000" stroke="#000000" points="2406.8662,-632.8698 2396.2664,-630.0602 2401.9331,-633.6849 2397,-634.5 2397,-634.5 2397,-634.5 2401.9331,-633.6849 2397.7336,-638.9398 2406.8662,-632.8698 2406.8662,-632.8698"/>
<text text-anchor="start" x="2403.699" y="-644.5" font-family="Arial" font-size="10.00" fill="#000000">FOREIGN KEY (water_fetch_setting_id) REFERENCES water_fetch_settings (id)</text>
</g>
</g>
</svg>
