<?xml version="1.0" encoding="UTF-8" standalone="no"?>
<!DOCTYPE svg PUBLIC "-//W3C//DTD SVG 1.1//EN"
 "http://www.w3.org/Graphics/SVG/1.1/DTD/svg11.dtd">
<!-- Generated by graphviz version 2.40.1 (20161225.0304)
 -->
<!-- Title: my&#45;home Pages: 1 -->
<svg width="3589pt" height="676pt"
 viewBox="0.00 0.00 3589.00 676.00" xmlns="http://www.w3.org/2000/svg" xmlns:xlink="http://www.w3.org/1999/xlink">
<g id="graph0" class="graph" transform="scale(1 1) rotate(0) translate(4 672)">
<title>my&#45;home</title>
<polygon fill="#ffffff" stroke="transparent" points="-4,4 -4,-672 3585,-672 3585,4 -4,4"/>
<!-- cost_types -->
<g id="node1" class="node">
<title>cost_types</title>
<polygon fill="#efefef" stroke="transparent" points="300,-162.5 300,-197.5 527,-197.5 527,-162.5 300,-162.5"/>
<polygon fill="none" stroke="#000000" points="300,-162.5 300,-197.5 527,-197.5 527,-162.5 300,-162.5"/>
<text text-anchor="start" x="306.7014" y="-175.3" font-family="Arial Bold" font-size="18.00" fill="#000000">cost_types</text>
<text text-anchor="start" x="392.7306" y="-175.3" font-family="Arial" font-size="14.00" fill="#000000">    </text>
<text text-anchor="start" x="426.9354" y="-175.3" font-family="Arial" font-size="14.00" fill="#666666">[BASE TABLE]</text>
<polygon fill="none" stroke="#000000" points="300,-132.5 300,-162.5 527,-162.5 527,-132.5 300,-132.5"/>
<text text-anchor="start" x="307" y="-143.9" font-family="Arial" font-size="14.00" fill="#000000">id    </text>
<text text-anchor="start" x="352.094" y="-143.9" font-family="Arial" font-size="14.00" fill="#666666">[bigint(20) unsigned]</text>
<polygon fill="none" stroke="#000000" points="300,-102.5 300,-132.5 527,-132.5 527,-102.5 300,-102.5"/>
<text text-anchor="start" x="307" y="-113.9" font-family="Arial" font-size="14.00" fill="#000000">type_name    </text>
<text text-anchor="start" x="410.4516" y="-113.9" font-family="Arial" font-size="14.00" fill="#666666">[varchar(255)]</text>
<polygon fill="none" stroke="#000000" points="300,-72.5 300,-102.5 527,-102.5 527,-72.5 300,-72.5"/>
<text text-anchor="start" x="307" y="-83.9" font-family="Arial" font-size="14.00" fill="#000000">created_at    </text>
<text text-anchor="start" x="407.3422" y="-83.9" font-family="Arial" font-size="14.00" fill="#666666">[datetime]</text>
<polygon fill="none" stroke="#000000" points="300,-42.5 300,-72.5 527,-72.5 527,-42.5 300,-42.5"/>
<text text-anchor="start" x="307" y="-53.9" font-family="Arial" font-size="14.00" fill="#000000">updated_at    </text>
<text text-anchor="start" x="411.2468" y="-53.9" font-family="Arial" font-size="14.00" fill="#666666">[datetime]</text>
</g>
<!-- electricity_daily_usages -->
<g id="node2" class="node">
<title>electricity_daily_usages</title>
<polygon fill="#efefef" stroke="transparent" points="647,-559.5 647,-594.5 986,-594.5 986,-559.5 647,-559.5"/>
<polygon fill="none" stroke="#000000" points="647,-559.5 647,-594.5 986,-594.5 986,-559.5 647,-559.5"/>
<text text-anchor="start" x="657.7012" y="-572.3" font-family="Arial Bold" font-size="18.00" fill="#000000">electricity_daily_usages</text>
<text text-anchor="start" x="847.7308" y="-572.3" font-family="Arial" font-size="14.00" fill="#000000">    </text>
<text text-anchor="start" x="881.9356" y="-572.3" font-family="Arial" font-size="14.00" fill="#666666">[BASE TABLE]</text>
<polygon fill="none" stroke="#000000" points="647,-529.5 647,-559.5 986,-559.5 986,-529.5 647,-529.5"/>
<text text-anchor="start" x="653.9187" y="-540.9" font-family="Arial" font-size="14.00" fill="#000000">electricity_fetch_setting_id    </text>
<text text-anchor="start" x="852.2693" y="-540.9" font-family="Arial" font-size="14.00" fill="#666666">[bigint(20) unsigned]</text>
<polygon fill="none" stroke="#000000" points="647,-499.5 647,-529.5 986,-529.5 986,-499.5 647,-499.5"/>
<text text-anchor="start" x="654" y="-510.9" font-family="Arial" font-size="14.00" fill="#000000">usage_year    </text>
<text text-anchor="start" x="761.3436" y="-510.9" font-family="Arial" font-size="14.00" fill="#666666">[int(10) unsigned]</text>
<polygon fill="none" stroke="#000000" points="647,-469.5 647,-499.5 986,-499.5 986,-469.5 647,-469.5"/>
<text text-anchor="start" x="654" y="-480.9" font-family="Arial" font-size="14.00" fill="#000000">usage_month    </text>
<text text-anchor="start" x="773.0168" y="-480.9" font-family="Arial" font-size="14.00" fill="#666666">[int(10) unsigned]</text>
<polygon fill="none" stroke="#000000" points="647,-439.5 647,-469.5 986,-469.5 986,-439.5 647,-439.5"/>
<text text-anchor="start" x="654" y="-450.9" font-family="Arial" font-size="14.00" fill="#000000">usage_date    </text>
<text text-anchor="start" x="761.3562" y="-450.9" font-family="Arial" font-size="14.00" fill="#666666">[int(10) unsigned]</text>
<polygon fill="none" stroke="#000000" points="647,-409.5 647,-439.5 986,-439.5 986,-409.5 647,-409.5"/>
<text text-anchor="start" x="654" y="-420.9" font-family="Arial" font-size="14.00" fill="#000000">usage_amount    </text>
<text text-anchor="start" x="780.7994" y="-420.9" font-family="Arial" font-size="14.00" fill="#666666">[decimal(15,5) unsigned]</text>
<polygon fill="none" stroke="#000000" points="647,-379.5 647,-409.5 986,-409.5 986,-379.5 647,-379.5"/>
<text text-anchor="start" x="654" y="-390.9" font-family="Arial" font-size="14.00" fill="#000000">created_at    </text>
<text text-anchor="start" x="754.3422" y="-390.9" font-family="Arial" font-size="14.00" fill="#666666">[datetime]</text>
<polygon fill="none" stroke="#000000" points="647,-349.5 647,-379.5 986,-379.5 986,-349.5 647,-349.5"/>
<text text-anchor="start" x="654" y="-360.9" font-family="Arial" font-size="14.00" fill="#000000">updated_at    </text>
<text text-anchor="start" x="758.2468" y="-360.9" font-family="Arial" font-size="14.00" fill="#666666">[datetime]</text>
</g>
<!-- electricity_fetch_settings -->
<g id="node3" class="node">
<title>electricity_fetch_settings</title>
<polygon fill="#efefef" stroke="transparent" points="1090,-544.5 1090,-579.5 1427,-579.5 1427,-544.5 1090,-544.5"/>
<polygon fill="none" stroke="#000000" points="1090,-544.5 1090,-579.5 1427,-579.5 1427,-544.5 1090,-544.5"/>
<text text-anchor="start" x="1096.697" y="-557.3" font-family="Arial Bold" font-size="18.00" fill="#000000">electricity_fetch_settings</text>
<text text-anchor="start" x="1292.735" y="-557.3" font-family="Arial" font-size="14.00" fill="#000000">    </text>
<text text-anchor="start" x="1326.9398" y="-557.3" font-family="Arial" font-size="14.00" fill="#666666">[BASE TABLE]</text>
<polygon fill="none" stroke="#000000" points="1090,-514.5 1090,-544.5 1427,-544.5 1427,-514.5 1090,-514.5"/>
<text text-anchor="start" x="1097" y="-525.9" font-family="Arial" font-size="14.00" fill="#000000">id    </text>
<text text-anchor="start" x="1142.094" y="-525.9" font-family="Arial" font-size="14.00" fill="#666666">[bigint(20) unsigned]</text>
<polygon fill="none" stroke="#000000" points="1090,-484.5 1090,-514.5 1427,-514.5 1427,-484.5 1090,-484.5"/>
<text text-anchor="start" x="1097" y="-495.9" font-family="Arial" font-size="14.00" fill="#000000">electricity_site_id    </text>
<text text-anchor="start" x="1237.7658" y="-495.9" font-family="Arial" font-size="14.00" fill="#666666">[bigint(20) unsigned]</text>
<polygon fill="none" stroke="#000000" points="1090,-454.5 1090,-484.5 1427,-484.5 1427,-454.5 1090,-454.5"/>
<text text-anchor="start" x="1097" y="-465.9" font-family="Arial" font-size="14.00" fill="#000000">user_name    </text>
<text text-anchor="start" x="1201.2216" y="-465.9" font-family="Arial" font-size="14.00" fill="#666666">[varchar(255)]</text>
<polygon fill="none" stroke="#000000" points="1090,-424.5 1090,-454.5 1427,-454.5 1427,-424.5 1090,-424.5"/>
<text text-anchor="start" x="1097" y="-435.9" font-family="Arial" font-size="14.00" fill="#000000">encrypted_password    </text>
<text text-anchor="start" x="1260.3492" y="-435.9" font-family="Arial" font-size="14.00" fill="#666666">[varchar(512)]</text>
<polygon fill="none" stroke="#000000" points="1090,-394.5 1090,-424.5 1427,-424.5 1427,-394.5 1090,-394.5"/>
<text text-anchor="start" x="1097" y="-405.9" font-family="Arial" font-size="14.00" fill="#000000">created_at    </text>
<text text-anchor="start" x="1197.3422" y="-405.9" font-family="Arial" font-size="14.00" fill="#666666">[datetime]</text>
<polygon fill="none" stroke="#000000" points="1090,-364.5 1090,-394.5 1427,-394.5 1427,-364.5 1090,-364.5"/>
<text text-anchor="start" x="1097" y="-375.9" font-family="Arial" font-size="14.00" fill="#000000">updated_at    </text>
<text text-anchor="start" x="1201.2468" y="-375.9" font-family="Arial" font-size="14.00" fill="#666666">[datetime]</text>
</g>
<!-- electricity_monthly_usages -->
<g id="node4" class="node">
<title>electricity_monthly_usages</title>
<polygon fill="#efefef" stroke="transparent" points="1531,-574.5 1531,-609.5 1888,-609.5 1888,-574.5 1531,-574.5"/>
<polygon fill="none" stroke="#000000" points="1531,-574.5 1531,-609.5 1888,-609.5 1888,-574.5 1531,-574.5"/>
<text text-anchor="start" x="1537.698" y="-587.3" font-family="Arial Bold" font-size="18.00" fill="#000000">electricity_monthly_usages</text>
<text text-anchor="start" x="1753.734" y="-587.3" font-family="Arial" font-size="14.00" fill="#000000">    </text>
<text text-anchor="start" x="1787.9388" y="-587.3" font-family="Arial" font-size="14.00" fill="#666666">[BASE TABLE]</text>
<polygon fill="none" stroke="#000000" points="1531,-544.5 1531,-574.5 1888,-574.5 1888,-544.5 1531,-544.5"/>
<text text-anchor="start" x="1538" y="-555.9" font-family="Arial" font-size="14.00" fill="#000000">electricity_fetch_setting_id    </text>
<text text-anchor="start" x="1736.3506" y="-555.9" font-family="Arial" font-size="14.00" fill="#666666">[bigint(20) unsigned]</text>
<polygon fill="none" stroke="#000000" points="1531,-514.5 1531,-544.5 1888,-544.5 1888,-514.5 1531,-514.5"/>
<text text-anchor="start" x="1538" y="-525.9" font-family="Arial" font-size="14.00" fill="#000000">usage_year    </text>
<text text-anchor="start" x="1645.3436" y="-525.9" font-family="Arial" font-size="14.00" fill="#666666">[int(10) unsigned]</text>
<polygon fill="none" stroke="#000000" points="1531,-484.5 1531,-514.5 1888,-514.5 1888,-484.5 1531,-484.5"/>
<text text-anchor="start" x="1538" y="-495.9" font-family="Arial" font-size="14.00" fill="#000000">usage_month    </text>
<text text-anchor="start" x="1657.0168" y="-495.9" font-family="Arial" font-size="14.00" fill="#666666">[int(10) unsigned]</text>
<polygon fill="none" stroke="#000000" points="1531,-454.5 1531,-484.5 1888,-484.5 1888,-454.5 1531,-454.5"/>
<text text-anchor="start" x="1538" y="-465.9" font-family="Arial" font-size="14.00" fill="#000000">usage_day_count    </text>
<text text-anchor="start" x="1682.704" y="-465.9" font-family="Arial" font-size="14.00" fill="#666666">[int(10) unsigned]</text>
<polygon fill="none" stroke="#000000" points="1531,-424.5 1531,-454.5 1888,-454.5 1888,-424.5 1531,-424.5"/>
<text text-anchor="start" x="1538" y="-435.9" font-family="Arial" font-size="14.00" fill="#000000">usage_kwh    </text>
<text text-anchor="start" x="1643.007" y="-435.9" font-family="Arial" font-size="14.00" fill="#666666">[int(10) unsigned]</text>
<polygon fill="none" stroke="#000000" points="1531,-394.5 1531,-424.5 1888,-424.5 1888,-394.5 1531,-394.5"/>
<text text-anchor="start" x="1538" y="-405.9" font-family="Arial" font-size="14.00" fill="#000000">usage_yen    </text>
<text text-anchor="start" x="1640.683" y="-405.9" font-family="Arial" font-size="14.00" fill="#666666">[int(10) unsigned]</text>
<polygon fill="none" stroke="#000000" points="1531,-364.5 1531,-394.5 1888,-394.5 1888,-364.5 1531,-364.5"/>
<text text-anchor="start" x="1538" y="-375.9" font-family="Arial" font-size="14.00" fill="#000000">created_at    </text>
<text text-anchor="start" x="1638.3422" y="-375.9" font-family="Arial" font-size="14.00" fill="#666666">[datetime]</text>
<polygon fill="none" stroke="#000000" points="1531,-334.5 1531,-364.5 1888,-364.5 1888,-334.5 1531,-334.5"/>
<text text-anchor="start" x="1538" y="-345.9" font-family="Arial" font-size="14.00" fill="#000000">updated_at    </text>
<text text-anchor="start" x="1642.2468" y="-345.9" font-family="Arial" font-size="14.00" fill="#666666">[datetime]</text>
</g>
<!-- gas_fetch_settings -->
<g id="node5" class="node">
<title>gas_fetch_settings</title>
<polygon fill="#efefef" stroke="transparent" points="1992,-544.5 1992,-579.5 2283,-579.5 2283,-544.5 1992,-544.5"/>
<polygon fill="none" stroke="#000000" points="1992,-544.5 1992,-579.5 2283,-579.5 2283,-544.5 1992,-544.5"/>
<text text-anchor="start" x="1998.6866" y="-557.3" font-family="Arial Bold" font-size="18.00" fill="#000000">gas_fetch_settings</text>
<text text-anchor="start" x="2148.7454" y="-557.3" font-family="Arial" font-size="14.00" fill="#000000">    </text>
<text text-anchor="start" x="2182.9502" y="-557.3" font-family="Arial" font-size="14.00" fill="#666666">[BASE TABLE]</text>
<polygon fill="none" stroke="#000000" points="1992,-514.5 1992,-544.5 2283,-544.5 2283,-514.5 1992,-514.5"/>
<text text-anchor="start" x="1999" y="-525.9" font-family="Arial" font-size="14.00" fill="#000000">id    </text>
<text text-anchor="start" x="2044.094" y="-525.9" font-family="Arial" font-size="14.00" fill="#666666">[bigint(20) unsigned]</text>
<polygon fill="none" stroke="#000000" points="1992,-484.5 1992,-514.5 2283,-514.5 2283,-484.5 1992,-484.5"/>
<text text-anchor="start" x="1999" y="-495.9" font-family="Arial" font-size="14.00" fill="#000000">gas_site_id    </text>
<text text-anchor="start" x="2104.0042" y="-495.9" font-family="Arial" font-size="14.00" fill="#666666">[bigint(20) unsigned]</text>
<polygon fill="none" stroke="#000000" points="1992,-454.5 1992,-484.5 2283,-484.5 2283,-454.5 1992,-454.5"/>
<text text-anchor="start" x="1999" y="-465.9" font-family="Arial" font-size="14.00" fill="#000000">user_name    </text>
<text text-anchor="start" x="2103.2216" y="-465.9" font-family="Arial" font-size="14.00" fill="#666666">[varchar(255)]</text>
<polygon fill="none" stroke="#000000" points="1992,-424.5 1992,-454.5 2283,-454.5 2283,-424.5 1992,-424.5"/>
<text text-anchor="start" x="1999" y="-435.9" font-family="Arial" font-size="14.00" fill="#000000">encrypted_password    </text>
<text text-anchor="start" x="2162.3492" y="-435.9" font-family="Arial" font-size="14.00" fill="#666666">[varchar(512)]</text>
<polygon fill="none" stroke="#000000" points="1992,-394.5 1992,-424.5 2283,-424.5 2283,-394.5 1992,-394.5"/>
<text text-anchor="start" x="1999" y="-405.9" font-family="Arial" font-size="14.00" fill="#000000">created_at    </text>
<text text-anchor="start" x="2099.3422" y="-405.9" font-family="Arial" font-size="14.00" fill="#666666">[datetime]</text>
<polygon fill="none" stroke="#000000" points="1992,-364.5 1992,-394.5 2283,-394.5 2283,-364.5 1992,-364.5"/>
<text text-anchor="start" x="1999" y="-375.9" font-family="Arial" font-size="14.00" fill="#000000">updated_at    </text>
<text text-anchor="start" x="2103.2468" y="-375.9" font-family="Arial" font-size="14.00" fill="#666666">[datetime]</text>
</g>
<!-- gas_monthly_usages -->
<g id="node6" class="node">
<title>gas_monthly_usages</title>
<polygon fill="#efefef" stroke="transparent" points="2387,-589.5 2387,-624.5 2698,-624.5 2698,-589.5 2387,-589.5"/>
<polygon fill="none" stroke="#000000" points="2387,-589.5 2387,-624.5 2698,-624.5 2698,-589.5 2387,-589.5"/>
<text text-anchor="start" x="2393.6876" y="-602.3" font-family="Arial Bold" font-size="18.00" fill="#000000">gas_monthly_usages</text>
<text text-anchor="start" x="2563.7444" y="-602.3" font-family="Arial" font-size="14.00" fill="#000000">    </text>
<text text-anchor="start" x="2597.9492" y="-602.3" font-family="Arial" font-size="14.00" fill="#666666">[BASE TABLE]</text>
<polygon fill="none" stroke="#000000" points="2387,-559.5 2387,-589.5 2698,-589.5 2698,-559.5 2387,-559.5"/>
<text text-anchor="start" x="2394" y="-570.9" font-family="Arial" font-size="14.00" fill="#000000">gas_fetch_setting_id    </text>
<text text-anchor="start" x="2556.589" y="-570.9" font-family="Arial" font-size="14.00" fill="#666666">[bigint(20) unsigned]</text>
<polygon fill="none" stroke="#000000" points="2387,-529.5 2387,-559.5 2698,-559.5 2698,-529.5 2387,-529.5"/>
<text text-anchor="start" x="2394" y="-540.9" font-family="Arial" font-size="14.00" fill="#000000">usage_year    </text>
<text text-anchor="start" x="2501.3436" y="-540.9" font-family="Arial" font-size="14.00" fill="#666666">[int(10) unsigned]</text>
<polygon fill="none" stroke="#000000" points="2387,-499.5 2387,-529.5 2698,-529.5 2698,-499.5 2387,-499.5"/>
<text text-anchor="start" x="2394" y="-510.9" font-family="Arial" font-size="14.00" fill="#000000">usage_month    </text>
<text text-anchor="start" x="2513.0168" y="-510.9" font-family="Arial" font-size="14.00" fill="#666666">[int(10) unsigned]</text>
<polygon fill="none" stroke="#000000" points="2387,-469.5 2387,-499.5 2698,-499.5 2698,-469.5 2387,-469.5"/>
<text text-anchor="start" x="2394" y="-480.9" font-family="Arial" font-size="14.00" fill="#000000">usage_begin_at    </text>
<text text-anchor="start" x="2527.8106" y="-480.9" font-family="Arial" font-size="14.00" fill="#666666">[date]</text>
<polygon fill="none" stroke="#000000" points="2387,-439.5 2387,-469.5 2698,-469.5 2698,-439.5 2387,-439.5"/>
<text text-anchor="start" x="2394" y="-450.9" font-family="Arial" font-size="14.00" fill="#000000">usage_end_at    </text>
<text text-anchor="start" x="2516.9214" y="-450.9" font-family="Arial" font-size="14.00" fill="#666666">[date]</text>
<polygon fill="none" stroke="#000000" points="2387,-409.5 2387,-439.5 2698,-439.5 2698,-409.5 2387,-409.5"/>
<text text-anchor="start" x="2394" y="-420.9" font-family="Arial" font-size="14.00" fill="#000000">usage_amount    </text>
<text text-anchor="start" x="2520.7994" y="-420.9" font-family="Arial" font-size="14.00" fill="#666666">[decimal(15,5) unsigned]</text>
<polygon fill="none" stroke="#000000" points="2387,-379.5 2387,-409.5 2698,-409.5 2698,-379.5 2387,-379.5"/>
<text text-anchor="start" x="2394" y="-390.9" font-family="Arial" font-size="14.00" fill="#000000">usage_yen    </text>
<text text-anchor="start" x="2496.683" y="-390.9" font-family="Arial" font-size="14.00" fill="#666666">[int(10) unsigned]</text>
<polygon fill="none" stroke="#000000" points="2387,-349.5 2387,-379.5 2698,-379.5 2698,-349.5 2387,-349.5"/>
<text text-anchor="start" x="2394" y="-360.9" font-family="Arial" font-size="14.00" fill="#000000">created_at    </text>
<text text-anchor="start" x="2494.3422" y="-360.9" font-family="Arial" font-size="14.00" fill="#666666">[datetime]</text>
<polygon fill="none" stroke="#000000" points="2387,-319.5 2387,-349.5 2698,-349.5 2698,-319.5 2387,-319.5"/>
<text text-anchor="start" x="2394" y="-330.9" font-family="Arial" font-size="14.00" fill="#000000">updated_at    </text>
<text text-anchor="start" x="2498.2468" y="-330.9" font-family="Arial" font-size="14.00" fill="#666666">[datetime]</text>
</g>
<!-- monthly_costs -->
<g id="node7" class="node">
<title>monthly_costs</title>
<polygon fill="#efefef" stroke="transparent" points="286,-544.5 286,-579.5 542,-579.5 542,-544.5 286,-544.5"/>
<polygon fill="none" stroke="#000000" points="286,-544.5 286,-579.5 542,-579.5 542,-544.5 286,-544.5"/>
<text text-anchor="start" x="292.7051" y="-557.3" font-family="Arial Bold" font-size="18.00" fill="#000000">monthly_costs</text>
<text text-anchor="start" x="407.7269" y="-557.3" font-family="Arial" font-size="14.00" fill="#000000">    </text>
<text text-anchor="start" x="441.9317" y="-557.3" font-family="Arial" font-size="14.00" fill="#666666">[BASE TABLE]</text>
<polygon fill="none" stroke="#000000" points="286,-514.5 286,-544.5 542,-544.5 542,-514.5 286,-514.5"/>
<text text-anchor="start" x="293" y="-525.9" font-family="Arial" font-size="14.00" fill="#000000">cost_type_id    </text>
<text text-anchor="start" x="405.7882" y="-525.9" font-family="Arial" font-size="14.00" fill="#666666">[bigint(20) unsigned]</text>
<polygon fill="none" stroke="#000000" points="286,-484.5 286,-514.5 542,-514.5 542,-484.5 286,-484.5"/>
<text text-anchor="start" x="293" y="-495.9" font-family="Arial" font-size="14.00" fill="#000000">cost_year    </text>
<text text-anchor="start" x="387.8864" y="-495.9" font-family="Arial" font-size="14.00" fill="#666666">[int(10) unsigned]</text>
<polygon fill="none" stroke="#000000" points="286,-454.5 286,-484.5 542,-484.5 542,-454.5 286,-454.5"/>
<text text-anchor="start" x="293" y="-465.9" font-family="Arial" font-size="14.00" fill="#000000">cost_month    </text>
<text text-anchor="start" x="399.5596" y="-465.9" font-family="Arial" font-size="14.00" fill="#666666">[int(10) unsigned]</text>
<polygon fill="none" stroke="#000000" points="286,-424.5 286,-454.5 542,-454.5 542,-424.5 286,-424.5"/>
<text text-anchor="start" x="293" y="-435.9" font-family="Arial" font-size="14.00" fill="#000000">cost_yen    </text>
<text text-anchor="start" x="383.2258" y="-435.9" font-family="Arial" font-size="14.00" fill="#666666">[int(10) unsigned]</text>
<polygon fill="none" stroke="#000000" points="286,-394.5 286,-424.5 542,-424.5 542,-394.5 286,-394.5"/>
<text text-anchor="start" x="293" y="-405.9" font-family="Arial" font-size="14.00" fill="#000000">created_at    </text>
<text text-anchor="start" x="393.3422" y="-405.9" font-family="Arial" font-size="14.00" fill="#666666">[datetime]</text>
<polygon fill="none" stroke="#000000" points="286,-364.5 286,-394.5 542,-394.5 542,-364.5 286,-364.5"/>
<text text-anchor="start" x="293" y="-375.9" font-family="Arial" font-size="14.00" fill="#000000">updated_at    </text>
<text text-anchor="start" x="397.2468" y="-375.9" font-family="Arial" font-size="14.00" fill="#666666">[datetime]</text>
</g>
<!-- monthly_costs&#45;&gt;cost_types -->
<g id="edge1" class="edge">
<title>monthly_costs:cost_type_id&#45;&gt;cost_types:id</title>
<path fill="none" stroke="#000000" d="M275.7837,-528.9043C196.8007,-519.2273 234.2726,-393.9565 286,-322 351.9577,-230.2483 461.0423,-332.7517 527,-241 551.256,-207.2582 568.5556,-147.5 527,-147.5"/>
<polygon fill="#000000" stroke="#000000" points="276.017,-528.9178 285.738,-533.9924 281.0085,-529.2089 286,-529.5 286,-529.5 286,-529.5 281.0085,-529.2089 286.262,-525.0076 276.017,-528.9178 276.017,-528.9178"/>
<text text-anchor="start" x="6.598" y="-539.5" font-family="Arial" font-size="10.00" fill="#000000">FOREIGN KEY (cost_type_id) REFERENCES cost_types (id)</text>
</g>
<!-- water_fetch_settings -->
<g id="node8" class="node">
<title>water_fetch_settings</title>
<polygon fill="#efefef" stroke="transparent" points="2802,-544.5 2802,-579.5 3108,-579.5 3108,-544.5 2802,-544.5"/>
<polygon fill="none" stroke="#000000" points="2802,-544.5 2802,-579.5 3108,-579.5 3108,-544.5 2802,-544.5"/>
<text text-anchor="start" x="2808.6923" y="-557.3" font-family="Arial Bold" font-size="18.00" fill="#000000">water_fetch_settings</text>
<text text-anchor="start" x="2973.7397" y="-557.3" font-family="Arial" font-size="14.00" fill="#000000">    </text>
<text text-anchor="start" x="3007.9445" y="-557.3" font-family="Arial" font-size="14.00" fill="#666666">[BASE TABLE]</text>
<polygon fill="none" stroke="#000000" points="2802,-514.5 2802,-544.5 3108,-544.5 3108,-514.5 2802,-514.5"/>
<text text-anchor="start" x="2809" y="-525.9" font-family="Arial" font-size="14.00" fill="#000000">id    </text>
<text text-anchor="start" x="2854.094" y="-525.9" font-family="Arial" font-size="14.00" fill="#666666">[bigint(20) unsigned]</text>
<polygon fill="none" stroke="#000000" points="2802,-484.5 2802,-514.5 3108,-514.5 3108,-484.5 2802,-484.5"/>
<text text-anchor="start" x="2809" y="-495.9" font-family="Arial" font-size="14.00" fill="#000000">water_site_id    </text>
<text text-anchor="start" x="2925.662" y="-495.9" font-family="Arial" font-size="14.00" fill="#666666">[bigint(20) unsigned]</text>
<polygon fill="none" stroke="#000000" points="2802,-454.5 2802,-484.5 3108,-484.5 3108,-454.5 2802,-454.5"/>
<text text-anchor="start" x="2809" y="-465.9" font-family="Arial" font-size="14.00" fill="#000000">user_name    </text>
<text text-anchor="start" x="2913.2216" y="-465.9" font-family="Arial" font-size="14.00" fill="#666666">[varchar(255)]</text>
<polygon fill="none" stroke="#000000" points="2802,-424.5 2802,-454.5 3108,-454.5 3108,-424.5 2802,-424.5"/>
<text text-anchor="start" x="2809" y="-435.9" font-family="Arial" font-size="14.00" fill="#000000">encrypted_password    </text>
<text text-anchor="start" x="2972.3492" y="-435.9" font-family="Arial" font-size="14.00" fill="#666666">[varchar(512)]</text>
<polygon fill="none" stroke="#000000" points="2802,-394.5 2802,-424.5 3108,-424.5 3108,-394.5 2802,-394.5"/>
<text text-anchor="start" x="2809" y="-405.9" font-family="Arial" font-size="14.00" fill="#000000">created_at    </text>
<text text-anchor="start" x="2909.3422" y="-405.9" font-family="Arial" font-size="14.00" fill="#666666">[datetime]</text>
<polygon fill="none" stroke="#000000" points="2802,-364.5 2802,-394.5 3108,-394.5 3108,-364.5 2802,-364.5"/>
<text text-anchor="start" x="2809" y="-375.9" font-family="Arial" font-size="14.00" fill="#000000">updated_at    </text>
<text text-anchor="start" x="2913.2468" y="-375.9" font-family="Arial" font-size="14.00" fill="#666666">[datetime]</text>
</g>
<!-- water_monthly_usages -->
<g id="node9" class="node">
<title>water_monthly_usages</title>
<polygon fill="#efefef" stroke="transparent" points="3212,-589.5 3212,-624.5 3538,-624.5 3538,-589.5 3212,-589.5"/>
<polygon fill="none" stroke="#000000" points="3212,-589.5 3212,-624.5 3538,-624.5 3538,-589.5 3212,-589.5"/>
<text text-anchor="start" x="3218.6933" y="-602.3" font-family="Arial Bold" font-size="18.00" fill="#000000">water_monthly_usages</text>
<text text-anchor="start" x="3403.7387" y="-602.3" font-family="Arial" font-size="14.00" fill="#000000">    </text>
<text text-anchor="start" x="3437.9435" y="-602.3" font-family="Arial" font-size="14.00" fill="#666666">[BASE TABLE]</text>
<polygon fill="none" stroke="#000000" points="3212,-559.5 3212,-589.5 3538,-589.5 3538,-559.5 3212,-559.5"/>
<text text-anchor="start" x="3219" y="-570.9" font-family="Arial" font-size="14.00" fill="#000000">water_fetch_setting_id    </text>
<text text-anchor="start" x="3393.2468" y="-570.9" font-family="Arial" font-size="14.00" fill="#666666">[bigint(20) unsigned]</text>
<polygon fill="none" stroke="#000000" points="3212,-529.5 3212,-559.5 3538,-559.5 3538,-529.5 3212,-529.5"/>
<text text-anchor="start" x="3219" y="-540.9" font-family="Arial" font-size="14.00" fill="#000000">usage_year    </text>
<text text-anchor="start" x="3326.3436" y="-540.9" font-family="Arial" font-size="14.00" fill="#666666">[int(10) unsigned]</text>
<polygon fill="none" stroke="#000000" points="3212,-499.5 3212,-529.5 3538,-529.5 3538,-499.5 3212,-499.5"/>
<text text-anchor="start" x="3219" y="-510.9" font-family="Arial" font-size="14.00" fill="#000000">usage_month    </text>
<text text-anchor="start" x="3338.0168" y="-510.9" font-family="Arial" font-size="14.00" fill="#666666">[int(10) unsigned]</text>
<polygon fill="none" stroke="#000000" points="3212,-469.5 3212,-499.5 3538,-499.5 3538,-469.5 3212,-469.5"/>
<text text-anchor="start" x="3219" y="-480.9" font-family="Arial" font-size="14.00" fill="#000000">usage_begin_at    </text>
<text text-anchor="start" x="3352.8106" y="-480.9" font-family="Arial" font-size="14.00" fill="#666666">[date]</text>
<polygon fill="none" stroke="#000000" points="3212,-439.5 3212,-469.5 3538,-469.5 3538,-439.5 3212,-439.5"/>
<text text-anchor="start" x="3219" y="-450.9" font-family="Arial" font-size="14.00" fill="#000000">usage_end_at    </text>
<text text-anchor="start" x="3341.9214" y="-450.9" font-family="Arial" font-size="14.00" fill="#666666">[date]</text>
<polygon fill="none" stroke="#000000" points="3212,-409.5 3212,-439.5 3538,-439.5 3538,-409.5 3212,-409.5"/>
<text text-anchor="start" x="3219" y="-420.9" font-family="Arial" font-size="14.00" fill="#000000">usage_amount    </text>
<text text-anchor="start" x="3345.7994" y="-420.9" font-family="Arial" font-size="14.00" fill="#666666">[decimal(15,5) unsigned]</text>
<polygon fill="none" stroke="#000000" points="3212,-379.5 3212,-409.5 3538,-409.5 3538,-379.5 3212,-379.5"/>
<text text-anchor="start" x="3219" y="-390.9" font-family="Arial" font-size="14.00" fill="#000000">usage_yen    </text>
<text text-anchor="start" x="3321.683" y="-390.9" font-family="Arial" font-size="14.00" fill="#666666">[int(10) unsigned]</text>
<polygon fill="none" stroke="#000000" points="3212,-349.5 3212,-379.5 3538,-379.5 3538,-349.5 3212,-349.5"/>
<text text-anchor="start" x="3219" y="-360.9" font-family="Arial" font-size="14.00" fill="#000000">created_at    </text>
<text text-anchor="start" x="3319.3422" y="-360.9" font-family="Arial" font-size="14.00" fill="#666666">[datetime]</text>
<polygon fill="none" stroke="#000000" points="3212,-319.5 3212,-349.5 3538,-349.5 3538,-319.5 3212,-319.5"/>
<text text-anchor="start" x="3219" y="-330.9" font-family="Arial" font-size="14.00" fill="#000000">updated_at    </text>
<text text-anchor="start" x="3323.2468" y="-330.9" font-family="Arial" font-size="14.00" fill="#666666">[datetime]</text>
</g>
</g>
</svg>
