<?xml version="1.0" encoding="UTF-8" standalone="no"?>
<!DOCTYPE svg PUBLIC "-//W3C//DTD SVG 1.1//EN"
 "http://www.w3.org/Graphics/SVG/1.1/DTD/svg11.dtd">
<!-- Generated by graphviz version 2.40.1 (20161225.0304)
 -->
<!-- Title: my&#45;home Pages: 1 -->
<svg width="2335pt" height="646pt"
 viewBox="0.00 0.00 2335.00 646.00" xmlns="http://www.w3.org/2000/svg" xmlns:xlink="http://www.w3.org/1999/xlink">
<g id="graph0" class="graph" transform="scale(1 1) rotate(0) translate(4 642)">
<title>my&#45;home</title>
<polygon fill="#ffffff" stroke="transparent" points="-4,4 -4,-642 2331,-642 2331,4 -4,4"/>
<!-- cost_types -->
<g id="node1" class="node">
<title>cost_types</title>
<polygon fill="#efefef" stroke="transparent" points="300,-162.5 300,-197.5 527,-197.5 527,-162.5 300,-162.5"/>
<polygon fill="none" stroke="#000000" points="300,-162.5 300,-197.5 527,-197.5 527,-162.5 300,-162.5"/>
<text text-anchor="start" x="306.7014" y="-175.3" font-family="Arial Bold" font-size="18.00" fill="#000000">cost_types</text>
<text text-anchor="start" x="392.7306" y="-175.3" font-family="Arial" font-size="14.00" fill="#000000">    </text>
<text text-anchor="start" x="426.9354" y="-175.3" font-family="Arial" font-size="14.00" fill="#666666">[BASE TABLE]</text>
<polygon fill="none" stroke="#000000" points="300,-132.5 300,-162.5 527,-162.5 527,-132.5 300,-132.5"/>
<text text-anchor="start" x="307" y="-143.9" font-family="Arial" font-size="14.00" fill="#000000">id    </text>
<text text-anchor="start" x="352.094" y="-143.9" font-family="Arial" font-size="14.00" fill="#666666">[bigint(20) unsigned]</text>
<polygon fill="none" stroke="#000000" points="300,-102.5 300,-132.5 527,-132.5 527,-102.5 300,-102.5"/>
<text text-anchor="start" x="307" y="-113.9" font-family="Arial" font-size="14.00" fill="#000000">type_name    </text>
<text text-anchor="start" x="410.4516" y="-113.9" font-family="Arial" font-size="14.00" fill="#666666">[varchar(255)]</text>
<polygon fill="none" stroke="#000000" points="300,-72.5 300,-102.5 527,-102.5 527,-72.5 300,-72.5"/>
<text text-anchor="start" x="307" y="-83.9" font-family="Arial" font-size="14.00" fill="#000000">created_at    </text>
<text text-anchor="start" x="407.3422" y="-83.9" font-family="Arial" font-size="14.00" fill="#666666">[datetime]</text>
<polygon fill="none" stroke="#000000" points="300,-42.5 300,-72.5 527,-72.5 527,-42.5 300,-42.5"/>
<text text-anchor="start" x="307" y="-53.9" font-family="Arial" font-size="14.00" fill="#000000">updated_at    </text>
<text text-anchor="start" x="411.2468" y="-53.9" font-family="Arial" font-size="14.00" fill="#666666">[datetime]</text>
</g>
<!-- electricity_daily_usages -->
<g id="node2" class="node">
<title>electricity_daily_usages</title>
<polygon fill="#efefef" stroke="transparent" points="647,-529.5 647,-564.5 978,-564.5 978,-529.5 647,-529.5"/>
<polygon fill="none" stroke="#000000" points="647,-529.5 647,-564.5 978,-564.5 978,-529.5 647,-529.5"/>
<text text-anchor="start" x="653.7012" y="-542.3" font-family="Arial Bold" font-size="18.00" fill="#000000">electricity_daily_usages</text>
<text text-anchor="start" x="843.7308" y="-542.3" font-family="Arial" font-size="14.00" fill="#000000">    </text>
<text text-anchor="start" x="877.9356" y="-542.3" font-family="Arial" font-size="14.00" fill="#666666">[BASE TABLE]</text>
<polygon fill="none" stroke="#000000" points="647,-499.5 647,-529.5 978,-529.5 978,-499.5 647,-499.5"/>
<text text-anchor="start" x="654" y="-510.9" font-family="Arial" font-size="14.00" fill="#000000">usage_year    </text>
<text text-anchor="start" x="761.3436" y="-510.9" font-family="Arial" font-size="14.00" fill="#666666">[int(10) unsigned]</text>
<polygon fill="none" stroke="#000000" points="647,-469.5 647,-499.5 978,-499.5 978,-469.5 647,-469.5"/>
<text text-anchor="start" x="654" y="-480.9" font-family="Arial" font-size="14.00" fill="#000000">usage_month    </text>
<text text-anchor="start" x="773.0168" y="-480.9" font-family="Arial" font-size="14.00" fill="#666666">[int(10) unsigned]</text>
<polygon fill="none" stroke="#000000" points="647,-439.5 647,-469.5 978,-469.5 978,-439.5 647,-439.5"/>
<text text-anchor="start" x="654" y="-450.9" font-family="Arial" font-size="14.00" fill="#000000">usage_date    </text>
<text text-anchor="start" x="761.3562" y="-450.9" font-family="Arial" font-size="14.00" fill="#666666">[int(10) unsigned]</text>
<polygon fill="none" stroke="#000000" points="647,-409.5 647,-439.5 978,-439.5 978,-409.5 647,-409.5"/>
<text text-anchor="start" x="654" y="-420.9" font-family="Arial" font-size="14.00" fill="#000000">usage_amount    </text>
<text text-anchor="start" x="780.7994" y="-420.9" font-family="Arial" font-size="14.00" fill="#666666">[decimal(15,5) unsigned]</text>
<polygon fill="none" stroke="#000000" points="647,-379.5 647,-409.5 978,-409.5 978,-379.5 647,-379.5"/>
<text text-anchor="start" x="654" y="-390.9" font-family="Arial" font-size="14.00" fill="#000000">created_at    </text>
<text text-anchor="start" x="754.3422" y="-390.9" font-family="Arial" font-size="14.00" fill="#666666">[datetime]</text>
<polygon fill="none" stroke="#000000" points="647,-349.5 647,-379.5 978,-379.5 978,-349.5 647,-349.5"/>
<text text-anchor="start" x="654" y="-360.9" font-family="Arial" font-size="14.00" fill="#000000">updated_at    </text>
<text text-anchor="start" x="758.2468" y="-360.9" font-family="Arial" font-size="14.00" fill="#666666">[datetime]</text>
</g>
<!-- electricity_monthly_usages -->
<g id="node3" class="node">
<title>electricity_monthly_usages</title>
<polygon fill="#efefef" stroke="transparent" points="1082,-544.5 1082,-579.5 1439,-579.5 1439,-544.5 1082,-544.5"/>
<polygon fill="none" stroke="#000000" points="1082,-544.5 1082,-579.5 1439,-579.5 1439,-544.5 1082,-544.5"/>
<text text-anchor="start" x="1088.698" y="-557.3" font-family="Arial Bold" font-size="18.00" fill="#000000">electricity_monthly_usages</text>
<text text-anchor="start" x="1304.734" y="-557.3" font-family="Arial" font-size="14.00" fill="#000000">    </text>
<text text-anchor="start" x="1338.9388" y="-557.3" font-family="Arial" font-size="14.00" fill="#666666">[BASE TABLE]</text>
<polygon fill="none" stroke="#000000" points="1082,-514.5 1082,-544.5 1439,-544.5 1439,-514.5 1082,-514.5"/>
<text text-anchor="start" x="1089" y="-525.9" font-family="Arial" font-size="14.00" fill="#000000">usage_year    </text>
<text text-anchor="start" x="1196.3436" y="-525.9" font-family="Arial" font-size="14.00" fill="#666666">[int(10) unsigned]</text>
<polygon fill="none" stroke="#000000" points="1082,-484.5 1082,-514.5 1439,-514.5 1439,-484.5 1082,-484.5"/>
<text text-anchor="start" x="1089" y="-495.9" font-family="Arial" font-size="14.00" fill="#000000">usage_month    </text>
<text text-anchor="start" x="1208.0168" y="-495.9" font-family="Arial" font-size="14.00" fill="#666666">[int(10) unsigned]</text>
<polygon fill="none" stroke="#000000" points="1082,-454.5 1082,-484.5 1439,-484.5 1439,-454.5 1082,-454.5"/>
<text text-anchor="start" x="1089" y="-465.9" font-family="Arial" font-size="14.00" fill="#000000">usage_day_count    </text>
<text text-anchor="start" x="1233.704" y="-465.9" font-family="Arial" font-size="14.00" fill="#666666">[int(10) unsigned]</text>
<polygon fill="none" stroke="#000000" points="1082,-424.5 1082,-454.5 1439,-454.5 1439,-424.5 1082,-424.5"/>
<text text-anchor="start" x="1089" y="-435.9" font-family="Arial" font-size="14.00" fill="#000000">usage_kwh    </text>
<text text-anchor="start" x="1194.007" y="-435.9" font-family="Arial" font-size="14.00" fill="#666666">[int(10) unsigned]</text>
<polygon fill="none" stroke="#000000" points="1082,-394.5 1082,-424.5 1439,-424.5 1439,-394.5 1082,-394.5"/>
<text text-anchor="start" x="1089" y="-405.9" font-family="Arial" font-size="14.00" fill="#000000">usage_yen    </text>
<text text-anchor="start" x="1191.683" y="-405.9" font-family="Arial" font-size="14.00" fill="#666666">[int(10) unsigned]</text>
<polygon fill="none" stroke="#000000" points="1082,-364.5 1082,-394.5 1439,-394.5 1439,-364.5 1082,-364.5"/>
<text text-anchor="start" x="1089" y="-375.9" font-family="Arial" font-size="14.00" fill="#000000">created_at    </text>
<text text-anchor="start" x="1189.3422" y="-375.9" font-family="Arial" font-size="14.00" fill="#666666">[datetime]</text>
<polygon fill="none" stroke="#000000" points="1082,-334.5 1082,-364.5 1439,-364.5 1439,-334.5 1082,-334.5"/>
<text text-anchor="start" x="1089" y="-345.9" font-family="Arial" font-size="14.00" fill="#000000">updated_at    </text>
<text text-anchor="start" x="1193.2468" y="-345.9" font-family="Arial" font-size="14.00" fill="#666666">[datetime]</text>
</g>
<!-- gas_monthly_usages -->
<g id="node4" class="node">
<title>gas_monthly_usages</title>
<polygon fill="#efefef" stroke="transparent" points="1543,-559.5 1543,-594.5 1854,-594.5 1854,-559.5 1543,-559.5"/>
<polygon fill="none" stroke="#000000" points="1543,-559.5 1543,-594.5 1854,-594.5 1854,-559.5 1543,-559.5"/>
<text text-anchor="start" x="1549.6876" y="-572.3" font-family="Arial Bold" font-size="18.00" fill="#000000">gas_monthly_usages</text>
<text text-anchor="start" x="1719.7444" y="-572.3" font-family="Arial" font-size="14.00" fill="#000000">    </text>
<text text-anchor="start" x="1753.9492" y="-572.3" font-family="Arial" font-size="14.00" fill="#666666">[BASE TABLE]</text>
<polygon fill="none" stroke="#000000" points="1543,-529.5 1543,-559.5 1854,-559.5 1854,-529.5 1543,-529.5"/>
<text text-anchor="start" x="1550" y="-540.9" font-family="Arial" font-size="14.00" fill="#000000">usage_year    </text>
<text text-anchor="start" x="1657.3436" y="-540.9" font-family="Arial" font-size="14.00" fill="#666666">[int(10) unsigned]</text>
<polygon fill="none" stroke="#000000" points="1543,-499.5 1543,-529.5 1854,-529.5 1854,-499.5 1543,-499.5"/>
<text text-anchor="start" x="1550" y="-510.9" font-family="Arial" font-size="14.00" fill="#000000">usage_month    </text>
<text text-anchor="start" x="1669.0168" y="-510.9" font-family="Arial" font-size="14.00" fill="#666666">[int(10) unsigned]</text>
<polygon fill="none" stroke="#000000" points="1543,-469.5 1543,-499.5 1854,-499.5 1854,-469.5 1543,-469.5"/>
<text text-anchor="start" x="1550" y="-480.9" font-family="Arial" font-size="14.00" fill="#000000">usage_begin_at    </text>
<text text-anchor="start" x="1683.8106" y="-480.9" font-family="Arial" font-size="14.00" fill="#666666">[date]</text>
<polygon fill="none" stroke="#000000" points="1543,-439.5 1543,-469.5 1854,-469.5 1854,-439.5 1543,-439.5"/>
<text text-anchor="start" x="1550" y="-450.9" font-family="Arial" font-size="14.00" fill="#000000">usage_end_at    </text>
<text text-anchor="start" x="1672.9214" y="-450.9" font-family="Arial" font-size="14.00" fill="#666666">[date]</text>
<polygon fill="none" stroke="#000000" points="1543,-409.5 1543,-439.5 1854,-439.5 1854,-409.5 1543,-409.5"/>
<text text-anchor="start" x="1550" y="-420.9" font-family="Arial" font-size="14.00" fill="#000000">usage_amount    </text>
<text text-anchor="start" x="1676.7994" y="-420.9" font-family="Arial" font-size="14.00" fill="#666666">[decimal(15,5) unsigned]</text>
<polygon fill="none" stroke="#000000" points="1543,-379.5 1543,-409.5 1854,-409.5 1854,-379.5 1543,-379.5"/>
<text text-anchor="start" x="1550" y="-390.9" font-family="Arial" font-size="14.00" fill="#000000">usage_yen    </text>
<text text-anchor="start" x="1652.683" y="-390.9" font-family="Arial" font-size="14.00" fill="#666666">[int(10) unsigned]</text>
<polygon fill="none" stroke="#000000" points="1543,-349.5 1543,-379.5 1854,-379.5 1854,-349.5 1543,-349.5"/>
<text text-anchor="start" x="1550" y="-360.9" font-family="Arial" font-size="14.00" fill="#000000">created_at    </text>
<text text-anchor="start" x="1650.3422" y="-360.9" font-family="Arial" font-size="14.00" fill="#666666">[datetime]</text>
<polygon fill="none" stroke="#000000" points="1543,-319.5 1543,-349.5 1854,-349.5 1854,-319.5 1543,-319.5"/>
<text text-anchor="start" x="1550" y="-330.9" font-family="Arial" font-size="14.00" fill="#000000">updated_at    </text>
<text text-anchor="start" x="1654.2468" y="-330.9" font-family="Arial" font-size="14.00" fill="#666666">[datetime]</text>
</g>
<!-- monthly_costs -->
<g id="node5" class="node">
<title>monthly_costs</title>
<polygon fill="#efefef" stroke="transparent" points="286,-529.5 286,-564.5 542,-564.5 542,-529.5 286,-529.5"/>
<polygon fill="none" stroke="#000000" points="286,-529.5 286,-564.5 542,-564.5 542,-529.5 286,-529.5"/>
<text text-anchor="start" x="292.7051" y="-542.3" font-family="Arial Bold" font-size="18.00" fill="#000000">monthly_costs</text>
<text text-anchor="start" x="407.7269" y="-542.3" font-family="Arial" font-size="14.00" fill="#000000">    </text>
<text text-anchor="start" x="441.9317" y="-542.3" font-family="Arial" font-size="14.00" fill="#666666">[BASE TABLE]</text>
<polygon fill="none" stroke="#000000" points="286,-499.5 286,-529.5 542,-529.5 542,-499.5 286,-499.5"/>
<text text-anchor="start" x="293" y="-510.9" font-family="Arial" font-size="14.00" fill="#000000">cost_type_id    </text>
<text text-anchor="start" x="405.7882" y="-510.9" font-family="Arial" font-size="14.00" fill="#666666">[bigint(20) unsigned]</text>
<polygon fill="none" stroke="#000000" points="286,-469.5 286,-499.5 542,-499.5 542,-469.5 286,-469.5"/>
<text text-anchor="start" x="293" y="-480.9" font-family="Arial" font-size="14.00" fill="#000000">cost_year    </text>
<text text-anchor="start" x="387.8864" y="-480.9" font-family="Arial" font-size="14.00" fill="#666666">[int(10) unsigned]</text>
<polygon fill="none" stroke="#000000" points="286,-439.5 286,-469.5 542,-469.5 542,-439.5 286,-439.5"/>
<text text-anchor="start" x="293" y="-450.9" font-family="Arial" font-size="14.00" fill="#000000">cost_month    </text>
<text text-anchor="start" x="399.5596" y="-450.9" font-family="Arial" font-size="14.00" fill="#666666">[int(10) unsigned]</text>
<polygon fill="none" stroke="#000000" points="286,-409.5 286,-439.5 542,-439.5 542,-409.5 286,-409.5"/>
<text text-anchor="start" x="293" y="-420.9" font-family="Arial" font-size="14.00" fill="#000000">cost_yen    </text>
<text text-anchor="start" x="383.2258" y="-420.9" font-family="Arial" font-size="14.00" fill="#666666">[int(10) unsigned]</text>
<polygon fill="none" stroke="#000000" points="286,-379.5 286,-409.5 542,-409.5 542,-379.5 286,-379.5"/>
<text text-anchor="start" x="293" y="-390.9" font-family="Arial" font-size="14.00" fill="#000000">created_at    </text>
<text text-anchor="start" x="393.3422" y="-390.9" font-family="Arial" font-size="14.00" fill="#666666">[datetime]</text>
<polygon fill="none" stroke="#000000" points="286,-349.5 286,-379.5 542,-379.5 542,-349.5 286,-349.5"/>
<text text-anchor="start" x="293" y="-360.9" font-family="Arial" font-size="14.00" fill="#000000">updated_at    </text>
<text text-anchor="start" x="397.2468" y="-360.9" font-family="Arial" font-size="14.00" fill="#666666">[datetime]</text>
</g>
<!-- monthly_costs&#45;&gt;cost_types -->
<g id="edge1" class="edge">
<title>monthly_costs:cost_type_id&#45;&gt;cost_types:id</title>
<path fill="none" stroke="#000000" d="M275.7745,-513.8974C196.6423,-504.11 232.2454,-377.4551 286,-307 353.3633,-218.7083 459.6367,-329.2917 527,-241 552.2066,-207.9622 568.5556,-147.5 527,-147.5"/>
<polygon fill="#000000" stroke="#000000" points="276.0173,-513.9116 285.7352,-518.9922 281.0087,-514.2058 286,-514.5 286,-514.5 286,-514.5 281.0087,-514.2058 286.2648,-510.0078 276.0173,-513.9116 276.0173,-513.9116"/>
<text text-anchor="start" x="6.598" y="-524.5" font-family="Arial" font-size="10.00" fill="#000000">FOREIGN KEY (cost_type_id) REFERENCES cost_types (id)</text>
</g>
<!-- water_monthly_usages -->
<g id="node6" class="node">
<title>water_monthly_usages</title>
<polygon fill="#efefef" stroke="transparent" points="1958,-559.5 1958,-594.5 2284,-594.5 2284,-559.5 1958,-559.5"/>
<polygon fill="none" stroke="#000000" points="1958,-559.5 1958,-594.5 2284,-594.5 2284,-559.5 1958,-559.5"/>
<text text-anchor="start" x="1964.6933" y="-572.3" font-family="Arial Bold" font-size="18.00" fill="#000000">water_monthly_usages</text>
<text text-anchor="start" x="2149.7387" y="-572.3" font-family="Arial" font-size="14.00" fill="#000000">    </text>
<text text-anchor="start" x="2183.9435" y="-572.3" font-family="Arial" font-size="14.00" fill="#666666">[BASE TABLE]</text>
<polygon fill="none" stroke="#000000" points="1958,-529.5 1958,-559.5 2284,-559.5 2284,-529.5 1958,-529.5"/>
<text text-anchor="start" x="1965" y="-540.9" font-family="Arial" font-size="14.00" fill="#000000">usage_year    </text>
<text text-anchor="start" x="2072.3436" y="-540.9" font-family="Arial" font-size="14.00" fill="#666666">[int(10) unsigned]</text>
<polygon fill="none" stroke="#000000" points="1958,-499.5 1958,-529.5 2284,-529.5 2284,-499.5 1958,-499.5"/>
<text text-anchor="start" x="1965" y="-510.9" font-family="Arial" font-size="14.00" fill="#000000">usage_month    </text>
<text text-anchor="start" x="2084.0168" y="-510.9" font-family="Arial" font-size="14.00" fill="#666666">[int(10) unsigned]</text>
<polygon fill="none" stroke="#000000" points="1958,-469.5 1958,-499.5 2284,-499.5 2284,-469.5 1958,-469.5"/>
<text text-anchor="start" x="1965" y="-480.9" font-family="Arial" font-size="14.00" fill="#000000">usage_begin_at    </text>
<text text-anchor="start" x="2098.8106" y="-480.9" font-family="Arial" font-size="14.00" fill="#666666">[date]</text>
<polygon fill="none" stroke="#000000" points="1958,-439.5 1958,-469.5 2284,-469.5 2284,-439.5 1958,-439.5"/>
<text text-anchor="start" x="1965" y="-450.9" font-family="Arial" font-size="14.00" fill="#000000">usage_end_at    </text>
<text text-anchor="start" x="2087.9214" y="-450.9" font-family="Arial" font-size="14.00" fill="#666666">[date]</text>
<polygon fill="none" stroke="#000000" points="1958,-409.5 1958,-439.5 2284,-439.5 2284,-409.5 1958,-409.5"/>
<text text-anchor="start" x="1965" y="-420.9" font-family="Arial" font-size="14.00" fill="#000000">usage_amount    </text>
<text text-anchor="start" x="2091.7994" y="-420.9" font-family="Arial" font-size="14.00" fill="#666666">[decimal(15,5) unsigned]</text>
<polygon fill="none" stroke="#000000" points="1958,-379.5 1958,-409.5 2284,-409.5 2284,-379.5 1958,-379.5"/>
<text text-anchor="start" x="1965" y="-390.9" font-family="Arial" font-size="14.00" fill="#000000">usage_yen    </text>
<text text-anchor="start" x="2067.683" y="-390.9" font-family="Arial" font-size="14.00" fill="#666666">[int(10) unsigned]</text>
<polygon fill="none" stroke="#000000" points="1958,-349.5 1958,-379.5 2284,-379.5 2284,-349.5 1958,-349.5"/>
<text text-anchor="start" x="1965" y="-360.9" font-family="Arial" font-size="14.00" fill="#000000">created_at    </text>
<text text-anchor="start" x="2065.3422" y="-360.9" font-family="Arial" font-size="14.00" fill="#666666">[datetime]</text>
<polygon fill="none" stroke="#000000" points="1958,-319.5 1958,-349.5 2284,-349.5 2284,-319.5 1958,-319.5"/>
<text text-anchor="start" x="1965" y="-330.9" font-family="Arial" font-size="14.00" fill="#000000">updated_at    </text>
<text text-anchor="start" x="2069.2468" y="-330.9" font-family="Arial" font-size="14.00" fill="#666666">[datetime]</text>
</g>
</g>
</svg>
