<?xml version="1.0" encoding="UTF-8" standalone="no"?>
<!DOCTYPE svg PUBLIC "-//W3C//DTD SVG 1.1//EN"
 "http://www.w3.org/Graphics/SVG/1.1/DTD/svg11.dtd">
<!-- Generated by graphviz version 2.40.1 (20161225.0304)
 -->
<!-- Title: my&#45;home Pages: 1 -->
<svg width="3581pt" height="646pt"
 viewBox="0.00 0.00 3581.00 646.00" xmlns="http://www.w3.org/2000/svg" xmlns:xlink="http://www.w3.org/1999/xlink">
<g id="graph0" class="graph" transform="scale(1 1) rotate(0) translate(4 642)">
<title>my&#45;home</title>
<polygon fill="#ffffff" stroke="transparent" points="-4,4 -4,-642 3577,-642 3577,4 -4,4"/>
<!-- cost_types -->
<g id="node1" class="node">
<title>cost_types</title>
<polygon fill="#efefef" stroke="transparent" points="300,-162.5 300,-197.5 527,-197.5 527,-162.5 300,-162.5"/>
<polygon fill="none" stroke="#000000" points="300,-162.5 300,-197.5 527,-197.5 527,-162.5 300,-162.5"/>
<text text-anchor="start" x="306.7014" y="-175.3" font-family="Arial Bold" font-size="18.00" fill="#000000">cost_types</text>
<text text-anchor="start" x="392.7306" y="-175.3" font-family="Arial" font-size="14.00" fill="#000000">    </text>
<text text-anchor="start" x="426.9354" y="-175.3" font-family="Arial" font-size="14.00" fill="#666666">[BASE TABLE]</text>
<polygon fill="none" stroke="#000000" points="300,-132.5 300,-162.5 527,-162.5 527,-132.5 300,-132.5"/>
<text text-anchor="start" x="307" y="-143.9" font-family="Arial" font-size="14.00" fill="#000000">id    </text>
<text text-anchor="start" x="352.094" y="-143.9" font-family="Arial" font-size="14.00" fill="#666666">[bigint(20) unsigned]</text>
<polygon fill="none" stroke="#000000" points="300,-102.5 300,-132.5 527,-132.5 527,-102.5 300,-102.5"/>
<text text-anchor="start" x="307" y="-113.9" font-family="Arial" font-size="14.00" fill="#000000">type_name    </text>
<text text-anchor="start" x="410.4516" y="-113.9" font-family="Arial" font-size="14.00" fill="#666666">[varchar(255)]</text>
<polygon fill="none" stroke="#000000" points="300,-72.5 300,-102.5 527,-102.5 527,-72.5 300,-72.5"/>
<text text-anchor="start" x="307" y="-83.9" font-family="Arial" font-size="14.00" fill="#000000">created_at    </text>
<text text-anchor="start" x="407.3422" y="-83.9" font-family="Arial" font-size="14.00" fill="#666666">[datetime]</text>
<polygon fill="none" stroke="#000000" points="300,-42.5 300,-72.5 527,-72.5 527,-42.5 300,-42.5"/>
<text text-anchor="start" x="307" y="-53.9" font-family="Arial" font-size="14.00" fill="#000000">updated_at    </text>
<text text-anchor="start" x="411.2468" y="-53.9" font-family="Arial" font-size="14.00" fill="#666666">[datetime]</text>
</g>
<!-- electricity_daily_usages -->
<g id="node2" class="node">
<title>electricity_daily_usages</title>
<polygon fill="#efefef" stroke="transparent" points="647,-529.5 647,-564.5 978,-564.5 978,-529.5 647,-529.5"/>
<polygon fill="none" stroke="#000000" points="647,-529.5 647,-564.5 978,-564.5 978,-529.5 647,-529.5"/>
<text text-anchor="start" x="653.7012" y="-542.3" font-family="Arial Bold" font-size="18.00" fill="#000000">electricity_daily_usages</text>
<text text-anchor="start" x="843.7308" y="-542.3" font-family="Arial" font-size="14.00" fill="#000000">    </text>
<text text-anchor="start" x="877.9356" y="-542.3" font-family="Arial" font-size="14.00" fill="#666666">[BASE TABLE]</text>
<polygon fill="none" stroke="#000000" points="647,-499.5 647,-529.5 978,-529.5 978,-499.5 647,-499.5"/>
<text text-anchor="start" x="654" y="-510.9" font-family="Arial" font-size="14.00" fill="#000000">usage_year    </text>
<text text-anchor="start" x="761.3436" y="-510.9" font-family="Arial" font-size="14.00" fill="#666666">[int(10) unsigned]</text>
<polygon fill="none" stroke="#000000" points="647,-469.5 647,-499.5 978,-499.5 978,-469.5 647,-469.5"/>
<text text-anchor="start" x="654" y="-480.9" font-family="Arial" font-size="14.00" fill="#000000">usage_month    </text>
<text text-anchor="start" x="773.0168" y="-480.9" font-family="Arial" font-size="14.00" fill="#666666">[int(10) unsigned]</text>
<polygon fill="none" stroke="#000000" points="647,-439.5 647,-469.5 978,-469.5 978,-439.5 647,-439.5"/>
<text text-anchor="start" x="654" y="-450.9" font-family="Arial" font-size="14.00" fill="#000000">usage_date    </text>
<text text-anchor="start" x="761.3562" y="-450.9" font-family="Arial" font-size="14.00" fill="#666666">[int(10) unsigned]</text>
<polygon fill="none" stroke="#000000" points="647,-409.5 647,-439.5 978,-439.5 978,-409.5 647,-409.5"/>
<text text-anchor="start" x="654" y="-420.9" font-family="Arial" font-size="14.00" fill="#000000">usage_amount    </text>
<text text-anchor="start" x="780.7994" y="-420.9" font-family="Arial" font-size="14.00" fill="#666666">[decimal(15,5) unsigned]</text>
<polygon fill="none" stroke="#000000" points="647,-379.5 647,-409.5 978,-409.5 978,-379.5 647,-379.5"/>
<text text-anchor="start" x="654" y="-390.9" font-family="Arial" font-size="14.00" fill="#000000">created_at    </text>
<text text-anchor="start" x="754.3422" y="-390.9" font-family="Arial" font-size="14.00" fill="#666666">[datetime]</text>
<polygon fill="none" stroke="#000000" points="647,-349.5 647,-379.5 978,-379.5 978,-349.5 647,-349.5"/>
<text text-anchor="start" x="654" y="-360.9" font-family="Arial" font-size="14.00" fill="#000000">updated_at    </text>
<text text-anchor="start" x="758.2468" y="-360.9" font-family="Arial" font-size="14.00" fill="#666666">[datetime]</text>
</g>
<!-- electricity_fetch_settings -->
<g id="node3" class="node">
<title>electricity_fetch_settings</title>
<polygon fill="#efefef" stroke="transparent" points="1082,-514.5 1082,-549.5 1419,-549.5 1419,-514.5 1082,-514.5"/>
<polygon fill="none" stroke="#000000" points="1082,-514.5 1082,-549.5 1419,-549.5 1419,-514.5 1082,-514.5"/>
<text text-anchor="start" x="1088.697" y="-527.3" font-family="Arial Bold" font-size="18.00" fill="#000000">electricity_fetch_settings</text>
<text text-anchor="start" x="1284.735" y="-527.3" font-family="Arial" font-size="14.00" fill="#000000">    </text>
<text text-anchor="start" x="1318.9398" y="-527.3" font-family="Arial" font-size="14.00" fill="#666666">[BASE TABLE]</text>
<polygon fill="none" stroke="#000000" points="1082,-484.5 1082,-514.5 1419,-514.5 1419,-484.5 1082,-484.5"/>
<text text-anchor="start" x="1089" y="-495.9" font-family="Arial" font-size="14.00" fill="#000000">electricity_site_id    </text>
<text text-anchor="start" x="1229.7658" y="-495.9" font-family="Arial" font-size="14.00" fill="#666666">[bigint(20) unsigned]</text>
<polygon fill="none" stroke="#000000" points="1082,-454.5 1082,-484.5 1419,-484.5 1419,-454.5 1082,-454.5"/>
<text text-anchor="start" x="1089" y="-465.9" font-family="Arial" font-size="14.00" fill="#000000">user_name    </text>
<text text-anchor="start" x="1193.2216" y="-465.9" font-family="Arial" font-size="14.00" fill="#666666">[varchar(255)]</text>
<polygon fill="none" stroke="#000000" points="1082,-424.5 1082,-454.5 1419,-454.5 1419,-424.5 1082,-424.5"/>
<text text-anchor="start" x="1089" y="-435.9" font-family="Arial" font-size="14.00" fill="#000000">encrypted_password    </text>
<text text-anchor="start" x="1252.3492" y="-435.9" font-family="Arial" font-size="14.00" fill="#666666">[varchar(512)]</text>
<polygon fill="none" stroke="#000000" points="1082,-394.5 1082,-424.5 1419,-424.5 1419,-394.5 1082,-394.5"/>
<text text-anchor="start" x="1089" y="-405.9" font-family="Arial" font-size="14.00" fill="#000000">created_at    </text>
<text text-anchor="start" x="1189.3422" y="-405.9" font-family="Arial" font-size="14.00" fill="#666666">[datetime]</text>
<polygon fill="none" stroke="#000000" points="1082,-364.5 1082,-394.5 1419,-394.5 1419,-364.5 1082,-364.5"/>
<text text-anchor="start" x="1089" y="-375.9" font-family="Arial" font-size="14.00" fill="#000000">updated_at    </text>
<text text-anchor="start" x="1193.2468" y="-375.9" font-family="Arial" font-size="14.00" fill="#666666">[datetime]</text>
</g>
<!-- electricity_monthly_usages -->
<g id="node4" class="node">
<title>electricity_monthly_usages</title>
<polygon fill="#efefef" stroke="transparent" points="1523,-544.5 1523,-579.5 1880,-579.5 1880,-544.5 1523,-544.5"/>
<polygon fill="none" stroke="#000000" points="1523,-544.5 1523,-579.5 1880,-579.5 1880,-544.5 1523,-544.5"/>
<text text-anchor="start" x="1529.698" y="-557.3" font-family="Arial Bold" font-size="18.00" fill="#000000">electricity_monthly_usages</text>
<text text-anchor="start" x="1745.734" y="-557.3" font-family="Arial" font-size="14.00" fill="#000000">    </text>
<text text-anchor="start" x="1779.9388" y="-557.3" font-family="Arial" font-size="14.00" fill="#666666">[BASE TABLE]</text>
<polygon fill="none" stroke="#000000" points="1523,-514.5 1523,-544.5 1880,-544.5 1880,-514.5 1523,-514.5"/>
<text text-anchor="start" x="1530" y="-525.9" font-family="Arial" font-size="14.00" fill="#000000">usage_year    </text>
<text text-anchor="start" x="1637.3436" y="-525.9" font-family="Arial" font-size="14.00" fill="#666666">[int(10) unsigned]</text>
<polygon fill="none" stroke="#000000" points="1523,-484.5 1523,-514.5 1880,-514.5 1880,-484.5 1523,-484.5"/>
<text text-anchor="start" x="1530" y="-495.9" font-family="Arial" font-size="14.00" fill="#000000">usage_month    </text>
<text text-anchor="start" x="1649.0168" y="-495.9" font-family="Arial" font-size="14.00" fill="#666666">[int(10) unsigned]</text>
<polygon fill="none" stroke="#000000" points="1523,-454.5 1523,-484.5 1880,-484.5 1880,-454.5 1523,-454.5"/>
<text text-anchor="start" x="1530" y="-465.9" font-family="Arial" font-size="14.00" fill="#000000">usage_day_count    </text>
<text text-anchor="start" x="1674.704" y="-465.9" font-family="Arial" font-size="14.00" fill="#666666">[int(10) unsigned]</text>
<polygon fill="none" stroke="#000000" points="1523,-424.5 1523,-454.5 1880,-454.5 1880,-424.5 1523,-424.5"/>
<text text-anchor="start" x="1530" y="-435.9" font-family="Arial" font-size="14.00" fill="#000000">usage_kwh    </text>
<text text-anchor="start" x="1635.007" y="-435.9" font-family="Arial" font-size="14.00" fill="#666666">[int(10) unsigned]</text>
<polygon fill="none" stroke="#000000" points="1523,-394.5 1523,-424.5 1880,-424.5 1880,-394.5 1523,-394.5"/>
<text text-anchor="start" x="1530" y="-405.9" font-family="Arial" font-size="14.00" fill="#000000">usage_yen    </text>
<text text-anchor="start" x="1632.683" y="-405.9" font-family="Arial" font-size="14.00" fill="#666666">[int(10) unsigned]</text>
<polygon fill="none" stroke="#000000" points="1523,-364.5 1523,-394.5 1880,-394.5 1880,-364.5 1523,-364.5"/>
<text text-anchor="start" x="1530" y="-375.9" font-family="Arial" font-size="14.00" fill="#000000">created_at    </text>
<text text-anchor="start" x="1630.3422" y="-375.9" font-family="Arial" font-size="14.00" fill="#666666">[datetime]</text>
<polygon fill="none" stroke="#000000" points="1523,-334.5 1523,-364.5 1880,-364.5 1880,-334.5 1523,-334.5"/>
<text text-anchor="start" x="1530" y="-345.9" font-family="Arial" font-size="14.00" fill="#000000">updated_at    </text>
<text text-anchor="start" x="1634.2468" y="-345.9" font-family="Arial" font-size="14.00" fill="#666666">[datetime]</text>
</g>
<!-- gas_fetch_settings -->
<g id="node5" class="node">
<title>gas_fetch_settings</title>
<polygon fill="#efefef" stroke="transparent" points="1984,-514.5 1984,-549.5 2275,-549.5 2275,-514.5 1984,-514.5"/>
<polygon fill="none" stroke="#000000" points="1984,-514.5 1984,-549.5 2275,-549.5 2275,-514.5 1984,-514.5"/>
<text text-anchor="start" x="1990.6866" y="-527.3" font-family="Arial Bold" font-size="18.00" fill="#000000">gas_fetch_settings</text>
<text text-anchor="start" x="2140.7454" y="-527.3" font-family="Arial" font-size="14.00" fill="#000000">    </text>
<text text-anchor="start" x="2174.9502" y="-527.3" font-family="Arial" font-size="14.00" fill="#666666">[BASE TABLE]</text>
<polygon fill="none" stroke="#000000" points="1984,-484.5 1984,-514.5 2275,-514.5 2275,-484.5 1984,-484.5"/>
<text text-anchor="start" x="1991" y="-495.9" font-family="Arial" font-size="14.00" fill="#000000">gas_site_id    </text>
<text text-anchor="start" x="2096.0042" y="-495.9" font-family="Arial" font-size="14.00" fill="#666666">[bigint(20) unsigned]</text>
<polygon fill="none" stroke="#000000" points="1984,-454.5 1984,-484.5 2275,-484.5 2275,-454.5 1984,-454.5"/>
<text text-anchor="start" x="1991" y="-465.9" font-family="Arial" font-size="14.00" fill="#000000">user_name    </text>
<text text-anchor="start" x="2095.2216" y="-465.9" font-family="Arial" font-size="14.00" fill="#666666">[varchar(255)]</text>
<polygon fill="none" stroke="#000000" points="1984,-424.5 1984,-454.5 2275,-454.5 2275,-424.5 1984,-424.5"/>
<text text-anchor="start" x="1991" y="-435.9" font-family="Arial" font-size="14.00" fill="#000000">encrypted_password    </text>
<text text-anchor="start" x="2154.3492" y="-435.9" font-family="Arial" font-size="14.00" fill="#666666">[varchar(512)]</text>
<polygon fill="none" stroke="#000000" points="1984,-394.5 1984,-424.5 2275,-424.5 2275,-394.5 1984,-394.5"/>
<text text-anchor="start" x="1991" y="-405.9" font-family="Arial" font-size="14.00" fill="#000000">created_at    </text>
<text text-anchor="start" x="2091.3422" y="-405.9" font-family="Arial" font-size="14.00" fill="#666666">[datetime]</text>
<polygon fill="none" stroke="#000000" points="1984,-364.5 1984,-394.5 2275,-394.5 2275,-364.5 1984,-364.5"/>
<text text-anchor="start" x="1991" y="-375.9" font-family="Arial" font-size="14.00" fill="#000000">updated_at    </text>
<text text-anchor="start" x="2095.2468" y="-375.9" font-family="Arial" font-size="14.00" fill="#666666">[datetime]</text>
</g>
<!-- gas_monthly_usages -->
<g id="node6" class="node">
<title>gas_monthly_usages</title>
<polygon fill="#efefef" stroke="transparent" points="2379,-559.5 2379,-594.5 2690,-594.5 2690,-559.5 2379,-559.5"/>
<polygon fill="none" stroke="#000000" points="2379,-559.5 2379,-594.5 2690,-594.5 2690,-559.5 2379,-559.5"/>
<text text-anchor="start" x="2385.6876" y="-572.3" font-family="Arial Bold" font-size="18.00" fill="#000000">gas_monthly_usages</text>
<text text-anchor="start" x="2555.7444" y="-572.3" font-family="Arial" font-size="14.00" fill="#000000">    </text>
<text text-anchor="start" x="2589.9492" y="-572.3" font-family="Arial" font-size="14.00" fill="#666666">[BASE TABLE]</text>
<polygon fill="none" stroke="#000000" points="2379,-529.5 2379,-559.5 2690,-559.5 2690,-529.5 2379,-529.5"/>
<text text-anchor="start" x="2386" y="-540.9" font-family="Arial" font-size="14.00" fill="#000000">usage_year    </text>
<text text-anchor="start" x="2493.3436" y="-540.9" font-family="Arial" font-size="14.00" fill="#666666">[int(10) unsigned]</text>
<polygon fill="none" stroke="#000000" points="2379,-499.5 2379,-529.5 2690,-529.5 2690,-499.5 2379,-499.5"/>
<text text-anchor="start" x="2386" y="-510.9" font-family="Arial" font-size="14.00" fill="#000000">usage_month    </text>
<text text-anchor="start" x="2505.0168" y="-510.9" font-family="Arial" font-size="14.00" fill="#666666">[int(10) unsigned]</text>
<polygon fill="none" stroke="#000000" points="2379,-469.5 2379,-499.5 2690,-499.5 2690,-469.5 2379,-469.5"/>
<text text-anchor="start" x="2386" y="-480.9" font-family="Arial" font-size="14.00" fill="#000000">usage_begin_at    </text>
<text text-anchor="start" x="2519.8106" y="-480.9" font-family="Arial" font-size="14.00" fill="#666666">[date]</text>
<polygon fill="none" stroke="#000000" points="2379,-439.5 2379,-469.5 2690,-469.5 2690,-439.5 2379,-439.5"/>
<text text-anchor="start" x="2386" y="-450.9" font-family="Arial" font-size="14.00" fill="#000000">usage_end_at    </text>
<text text-anchor="start" x="2508.9214" y="-450.9" font-family="Arial" font-size="14.00" fill="#666666">[date]</text>
<polygon fill="none" stroke="#000000" points="2379,-409.5 2379,-439.5 2690,-439.5 2690,-409.5 2379,-409.5"/>
<text text-anchor="start" x="2386" y="-420.9" font-family="Arial" font-size="14.00" fill="#000000">usage_amount    </text>
<text text-anchor="start" x="2512.7994" y="-420.9" font-family="Arial" font-size="14.00" fill="#666666">[decimal(15,5) unsigned]</text>
<polygon fill="none" stroke="#000000" points="2379,-379.5 2379,-409.5 2690,-409.5 2690,-379.5 2379,-379.5"/>
<text text-anchor="start" x="2386" y="-390.9" font-family="Arial" font-size="14.00" fill="#000000">usage_yen    </text>
<text text-anchor="start" x="2488.683" y="-390.9" font-family="Arial" font-size="14.00" fill="#666666">[int(10) unsigned]</text>
<polygon fill="none" stroke="#000000" points="2379,-349.5 2379,-379.5 2690,-379.5 2690,-349.5 2379,-349.5"/>
<text text-anchor="start" x="2386" y="-360.9" font-family="Arial" font-size="14.00" fill="#000000">created_at    </text>
<text text-anchor="start" x="2486.3422" y="-360.9" font-family="Arial" font-size="14.00" fill="#666666">[datetime]</text>
<polygon fill="none" stroke="#000000" points="2379,-319.5 2379,-349.5 2690,-349.5 2690,-319.5 2379,-319.5"/>
<text text-anchor="start" x="2386" y="-330.9" font-family="Arial" font-size="14.00" fill="#000000">updated_at    </text>
<text text-anchor="start" x="2490.2468" y="-330.9" font-family="Arial" font-size="14.00" fill="#666666">[datetime]</text>
</g>
<!-- monthly_costs -->
<g id="node7" class="node">
<title>monthly_costs</title>
<polygon fill="#efefef" stroke="transparent" points="286,-529.5 286,-564.5 542,-564.5 542,-529.5 286,-529.5"/>
<polygon fill="none" stroke="#000000" points="286,-529.5 286,-564.5 542,-564.5 542,-529.5 286,-529.5"/>
<text text-anchor="start" x="292.7051" y="-542.3" font-family="Arial Bold" font-size="18.00" fill="#000000">monthly_costs</text>
<text text-anchor="start" x="407.7269" y="-542.3" font-family="Arial" font-size="14.00" fill="#000000">    </text>
<text text-anchor="start" x="441.9317" y="-542.3" font-family="Arial" font-size="14.00" fill="#666666">[BASE TABLE]</text>
<polygon fill="none" stroke="#000000" points="286,-499.5 286,-529.5 542,-529.5 542,-499.5 286,-499.5"/>
<text text-anchor="start" x="293" y="-510.9" font-family="Arial" font-size="14.00" fill="#000000">cost_type_id    </text>
<text text-anchor="start" x="405.7882" y="-510.9" font-family="Arial" font-size="14.00" fill="#666666">[bigint(20) unsigned]</text>
<polygon fill="none" stroke="#000000" points="286,-469.5 286,-499.5 542,-499.5 542,-469.5 286,-469.5"/>
<text text-anchor="start" x="293" y="-480.9" font-family="Arial" font-size="14.00" fill="#000000">cost_year    </text>
<text text-anchor="start" x="387.8864" y="-480.9" font-family="Arial" font-size="14.00" fill="#666666">[int(10) unsigned]</text>
<polygon fill="none" stroke="#000000" points="286,-439.5 286,-469.5 542,-469.5 542,-439.5 286,-439.5"/>
<text text-anchor="start" x="293" y="-450.9" font-family="Arial" font-size="14.00" fill="#000000">cost_month    </text>
<text text-anchor="start" x="399.5596" y="-450.9" font-family="Arial" font-size="14.00" fill="#666666">[int(10) unsigned]</text>
<polygon fill="none" stroke="#000000" points="286,-409.5 286,-439.5 542,-439.5 542,-409.5 286,-409.5"/>
<text text-anchor="start" x="293" y="-420.9" font-family="Arial" font-size="14.00" fill="#000000">cost_yen    </text>
<text text-anchor="start" x="383.2258" y="-420.9" font-family="Arial" font-size="14.00" fill="#666666">[int(10) unsigned]</text>
<polygon fill="none" stroke="#000000" points="286,-379.5 286,-409.5 542,-409.5 542,-379.5 286,-379.5"/>
<text text-anchor="start" x="293" y="-390.9" font-family="Arial" font-size="14.00" fill="#000000">created_at    </text>
<text text-anchor="start" x="393.3422" y="-390.9" font-family="Arial" font-size="14.00" fill="#666666">[datetime]</text>
<polygon fill="none" stroke="#000000" points="286,-349.5 286,-379.5 542,-379.5 542,-349.5 286,-349.5"/>
<text text-anchor="start" x="293" y="-360.9" font-family="Arial" font-size="14.00" fill="#000000">updated_at    </text>
<text text-anchor="start" x="397.2468" y="-360.9" font-family="Arial" font-size="14.00" fill="#666666">[datetime]</text>
</g>
<!-- monthly_costs&#45;&gt;cost_types -->
<g id="edge1" class="edge">
<title>monthly_costs:cost_type_id&#45;&gt;cost_types:id</title>
<path fill="none" stroke="#000000" d="M275.7745,-513.8974C196.6423,-504.11 232.2454,-377.4551 286,-307 353.3633,-218.7083 459.6367,-329.2917 527,-241 552.2066,-207.9622 568.5556,-147.5 527,-147.5"/>
<polygon fill="#000000" stroke="#000000" points="276.0173,-513.9116 285.7352,-518.9922 281.0087,-514.2058 286,-514.5 286,-514.5 286,-514.5 281.0087,-514.2058 286.2648,-510.0078 276.0173,-513.9116 276.0173,-513.9116"/>
<text text-anchor="start" x="6.598" y="-524.5" font-family="Arial" font-size="10.00" fill="#000000">FOREIGN KEY (cost_type_id) REFERENCES cost_types (id)</text>
</g>
<!-- water_fetch_settings -->
<g id="node8" class="node">
<title>water_fetch_settings</title>
<polygon fill="#efefef" stroke="transparent" points="2794,-514.5 2794,-549.5 3100,-549.5 3100,-514.5 2794,-514.5"/>
<polygon fill="none" stroke="#000000" points="2794,-514.5 2794,-549.5 3100,-549.5 3100,-514.5 2794,-514.5"/>
<text text-anchor="start" x="2800.6923" y="-527.3" font-family="Arial Bold" font-size="18.00" fill="#000000">water_fetch_settings</text>
<text text-anchor="start" x="2965.7397" y="-527.3" font-family="Arial" font-size="14.00" fill="#000000">    </text>
<text text-anchor="start" x="2999.9445" y="-527.3" font-family="Arial" font-size="14.00" fill="#666666">[BASE TABLE]</text>
<polygon fill="none" stroke="#000000" points="2794,-484.5 2794,-514.5 3100,-514.5 3100,-484.5 2794,-484.5"/>
<text text-anchor="start" x="2801" y="-495.9" font-family="Arial" font-size="14.00" fill="#000000">water_site_id    </text>
<text text-anchor="start" x="2917.662" y="-495.9" font-family="Arial" font-size="14.00" fill="#666666">[bigint(20) unsigned]</text>
<polygon fill="none" stroke="#000000" points="2794,-454.5 2794,-484.5 3100,-484.5 3100,-454.5 2794,-454.5"/>
<text text-anchor="start" x="2801" y="-465.9" font-family="Arial" font-size="14.00" fill="#000000">user_name    </text>
<text text-anchor="start" x="2905.2216" y="-465.9" font-family="Arial" font-size="14.00" fill="#666666">[varchar(255)]</text>
<polygon fill="none" stroke="#000000" points="2794,-424.5 2794,-454.5 3100,-454.5 3100,-424.5 2794,-424.5"/>
<text text-anchor="start" x="2801" y="-435.9" font-family="Arial" font-size="14.00" fill="#000000">encrypted_password    </text>
<text text-anchor="start" x="2964.3492" y="-435.9" font-family="Arial" font-size="14.00" fill="#666666">[varchar(512)]</text>
<polygon fill="none" stroke="#000000" points="2794,-394.5 2794,-424.5 3100,-424.5 3100,-394.5 2794,-394.5"/>
<text text-anchor="start" x="2801" y="-405.9" font-family="Arial" font-size="14.00" fill="#000000">created_at    </text>
<text text-anchor="start" x="2901.3422" y="-405.9" font-family="Arial" font-size="14.00" fill="#666666">[datetime]</text>
<polygon fill="none" stroke="#000000" points="2794,-364.5 2794,-394.5 3100,-394.5 3100,-364.5 2794,-364.5"/>
<text text-anchor="start" x="2801" y="-375.9" font-family="Arial" font-size="14.00" fill="#000000">updated_at    </text>
<text text-anchor="start" x="2905.2468" y="-375.9" font-family="Arial" font-size="14.00" fill="#666666">[datetime]</text>
</g>
<!-- water_monthly_usages -->
<g id="node9" class="node">
<title>water_monthly_usages</title>
<polygon fill="#efefef" stroke="transparent" points="3204,-559.5 3204,-594.5 3530,-594.5 3530,-559.5 3204,-559.5"/>
<polygon fill="none" stroke="#000000" points="3204,-559.5 3204,-594.5 3530,-594.5 3530,-559.5 3204,-559.5"/>
<text text-anchor="start" x="3210.6933" y="-572.3" font-family="Arial Bold" font-size="18.00" fill="#000000">water_monthly_usages</text>
<text text-anchor="start" x="3395.7387" y="-572.3" font-family="Arial" font-size="14.00" fill="#000000">    </text>
<text text-anchor="start" x="3429.9435" y="-572.3" font-family="Arial" font-size="14.00" fill="#666666">[BASE TABLE]</text>
<polygon fill="none" stroke="#000000" points="3204,-529.5 3204,-559.5 3530,-559.5 3530,-529.5 3204,-529.5"/>
<text text-anchor="start" x="3211" y="-540.9" font-family="Arial" font-size="14.00" fill="#000000">usage_year    </text>
<text text-anchor="start" x="3318.3436" y="-540.9" font-family="Arial" font-size="14.00" fill="#666666">[int(10) unsigned]</text>
<polygon fill="none" stroke="#000000" points="3204,-499.5 3204,-529.5 3530,-529.5 3530,-499.5 3204,-499.5"/>
<text text-anchor="start" x="3211" y="-510.9" font-family="Arial" font-size="14.00" fill="#000000">usage_month    </text>
<text text-anchor="start" x="3330.0168" y="-510.9" font-family="Arial" font-size="14.00" fill="#666666">[int(10) unsigned]</text>
<polygon fill="none" stroke="#000000" points="3204,-469.5 3204,-499.5 3530,-499.5 3530,-469.5 3204,-469.5"/>
<text text-anchor="start" x="3211" y="-480.9" font-family="Arial" font-size="14.00" fill="#000000">usage_begin_at    </text>
<text text-anchor="start" x="3344.8106" y="-480.9" font-family="Arial" font-size="14.00" fill="#666666">[date]</text>
<polygon fill="none" stroke="#000000" points="3204,-439.5 3204,-469.5 3530,-469.5 3530,-439.5 3204,-439.5"/>
<text text-anchor="start" x="3211" y="-450.9" font-family="Arial" font-size="14.00" fill="#000000">usage_end_at    </text>
<text text-anchor="start" x="3333.9214" y="-450.9" font-family="Arial" font-size="14.00" fill="#666666">[date]</text>
<polygon fill="none" stroke="#000000" points="3204,-409.5 3204,-439.5 3530,-439.5 3530,-409.5 3204,-409.5"/>
<text text-anchor="start" x="3211" y="-420.9" font-family="Arial" font-size="14.00" fill="#000000">usage_amount    </text>
<text text-anchor="start" x="3337.7994" y="-420.9" font-family="Arial" font-size="14.00" fill="#666666">[decimal(15,5) unsigned]</text>
<polygon fill="none" stroke="#000000" points="3204,-379.5 3204,-409.5 3530,-409.5 3530,-379.5 3204,-379.5"/>
<text text-anchor="start" x="3211" y="-390.9" font-family="Arial" font-size="14.00" fill="#000000">usage_yen    </text>
<text text-anchor="start" x="3313.683" y="-390.9" font-family="Arial" font-size="14.00" fill="#666666">[int(10) unsigned]</text>
<polygon fill="none" stroke="#000000" points="3204,-349.5 3204,-379.5 3530,-379.5 3530,-349.5 3204,-349.5"/>
<text text-anchor="start" x="3211" y="-360.9" font-family="Arial" font-size="14.00" fill="#000000">created_at    </text>
<text text-anchor="start" x="3311.3422" y="-360.9" font-family="Arial" font-size="14.00" fill="#666666">[datetime]</text>
<polygon fill="none" stroke="#000000" points="3204,-319.5 3204,-349.5 3530,-349.5 3530,-319.5 3204,-319.5"/>
<text text-anchor="start" x="3211" y="-330.9" font-family="Arial" font-size="14.00" fill="#000000">updated_at    </text>
<text text-anchor="start" x="3315.2468" y="-330.9" font-family="Arial" font-size="14.00" fill="#666666">[datetime]</text>
</g>
</g>
</svg>
