<?xml version="1.0" encoding="UTF-8" standalone="no"?>
<!DOCTYPE svg PUBLIC "-//W3C//DTD SVG 1.1//EN"
 "http://www.w3.org/Graphics/SVG/1.1/DTD/svg11.dtd">
<!-- Generated by graphviz version 2.40.1 (20161225.0304)
 -->
<!-- Title: water_fetch_settings Pages: 1 -->
<svg width="845pt" height="772pt"
 viewBox="0.00 0.00 844.50 772.00" xmlns="http://www.w3.org/2000/svg" xmlns:xlink="http://www.w3.org/1999/xlink">
<g id="graph0" class="graph" transform="scale(1 1) rotate(0) translate(4 768)">
<title>water_fetch_settings</title>
<polygon fill="#ffffff" stroke="transparent" points="-4,4 -4,-768 840.5,-768 840.5,4 -4,4"/>
<!-- water_fetch_settings -->
<g id="node1" class="node">
<title>water_fetch_settings</title>
<polygon fill="#efefef" stroke="transparent" points="260.5,-255.5 260.5,-290.5 566.5,-290.5 566.5,-255.5 260.5,-255.5"/>
<polygon fill="none" stroke="#000000" points="260.5,-255.5 260.5,-290.5 566.5,-290.5 566.5,-255.5 260.5,-255.5"/>
<text text-anchor="start" x="267.1923" y="-268.3" font-family="Arial Bold" font-size="18.00" fill="#000000">water_fetch_settings</text>
<text text-anchor="start" x="432.2397" y="-268.3" font-family="Arial" font-size="14.00" fill="#000000">    </text>
<text text-anchor="start" x="466.4445" y="-268.3" font-family="Arial" font-size="14.00" fill="#666666">[BASE TABLE]</text>
<polygon fill="none" stroke="#000000" points="260.5,-225.5 260.5,-255.5 566.5,-255.5 566.5,-225.5 260.5,-225.5"/>
<text text-anchor="start" x="267.5" y="-236.9" font-family="Arial" font-size="14.00" fill="#000000">id </text>
<text text-anchor="start" x="282.2798" y="-236.9" font-family="Arial" font-size="14.00" fill="#666666">[bigint(20) unsigned]</text>
<polygon fill="none" stroke="#000000" points="260.5,-195.5 260.5,-225.5 566.5,-225.5 566.5,-195.5 260.5,-195.5"/>
<text text-anchor="start" x="267.5" y="-206.9" font-family="Arial" font-size="14.00" fill="#000000">water_site_id </text>
<text text-anchor="start" x="353.8478" y="-206.9" font-family="Arial" font-size="14.00" fill="#666666">[bigint(20) unsigned]</text>
<polygon fill="none" stroke="#000000" points="260.5,-165.5 260.5,-195.5 566.5,-195.5 566.5,-165.5 260.5,-165.5"/>
<text text-anchor="start" x="267.5" y="-176.9" font-family="Arial" font-size="14.00" fill="#000000">user_name </text>
<text text-anchor="start" x="341.4074" y="-176.9" font-family="Arial" font-size="14.00" fill="#666666">[varchar(255)]</text>
<polygon fill="none" stroke="#000000" points="260.5,-135.5 260.5,-165.5 566.5,-165.5 566.5,-135.5 260.5,-135.5"/>
<text text-anchor="start" x="267.5" y="-146.9" font-family="Arial" font-size="14.00" fill="#000000">encrypted_password </text>
<text text-anchor="start" x="400.535" y="-146.9" font-family="Arial" font-size="14.00" fill="#666666">[varchar(512)]</text>
<polygon fill="none" stroke="#000000" points="260.5,-105.5 260.5,-135.5 566.5,-135.5 566.5,-105.5 260.5,-105.5"/>
<text text-anchor="start" x="267.5" y="-116.9" font-family="Arial" font-size="14.00" fill="#000000">fetch_enable </text>
<text text-anchor="start" x="351.5392" y="-116.9" font-family="Arial" font-size="14.00" fill="#666666">[tinyint(1)]</text>
<polygon fill="none" stroke="#000000" points="260.5,-75.5 260.5,-105.5 566.5,-105.5 566.5,-75.5 260.5,-75.5"/>
<text text-anchor="start" x="267.5" y="-86.9" font-family="Arial" font-size="14.00" fill="#000000">created_at </text>
<text text-anchor="start" x="337.528" y="-86.9" font-family="Arial" font-size="14.00" fill="#666666">[datetime]</text>
<polygon fill="none" stroke="#000000" points="260.5,-45.5 260.5,-75.5 566.5,-75.5 566.5,-45.5 260.5,-45.5"/>
<text text-anchor="start" x="267.5" y="-56.9" font-family="Arial" font-size="14.00" fill="#000000">updated_at </text>
<text text-anchor="start" x="341.4326" y="-56.9" font-family="Arial" font-size="14.00" fill="#666666">[datetime]</text>
<polygon fill="none" stroke="#000000" stroke-width="3" points="259,-44.5 259,-292.5 568,-292.5 568,-44.5 259,-44.5"/>
</g>
<!-- water_fetch_statuses -->
<g id="node2" class="node">
<title>water_fetch_statuses</title>
<polygon fill="#efefef" stroke="transparent" points="43.5,-655.5 43.5,-690.5 358.5,-690.5 358.5,-655.5 43.5,-655.5"/>
<polygon fill="none" stroke="#000000" points="43.5,-655.5 43.5,-690.5 358.5,-690.5 358.5,-655.5 43.5,-655.5"/>
<text text-anchor="start" x="52.1894" y="-668.3" font-family="Arial Bold" font-size="18.00" fill="#000000">water_fetch_statuses</text>
<text text-anchor="start" x="222.2426" y="-668.3" font-family="Arial" font-size="14.00" fill="#000000">    </text>
<text text-anchor="start" x="256.4474" y="-668.3" font-family="Arial" font-size="14.00" fill="#666666">[BASE TABLE]</text>
<polygon fill="none" stroke="#000000" points="43.5,-625.5 43.5,-655.5 358.5,-655.5 358.5,-625.5 43.5,-625.5"/>
<text text-anchor="start" x="50.5" y="-636.9" font-family="Arial" font-size="14.00" fill="#000000">id    </text>
<text text-anchor="start" x="95.594" y="-636.9" font-family="Arial" font-size="14.00" fill="#666666">[bigint(20) unsigned]</text>
<polygon fill="none" stroke="#000000" points="43.5,-595.5 43.5,-625.5 358.5,-625.5 358.5,-595.5 43.5,-595.5"/>
<text text-anchor="start" x="50.4706" y="-606.9" font-family="Arial" font-size="14.00" fill="#000000">water_fetch_setting_id    </text>
<text text-anchor="start" x="224.7174" y="-606.9" font-family="Arial" font-size="14.00" fill="#666666">[bigint(20) unsigned]</text>
<polygon fill="none" stroke="#000000" points="43.5,-565.5 43.5,-595.5 358.5,-595.5 358.5,-565.5 43.5,-565.5"/>
<text text-anchor="start" x="50.5" y="-576.9" font-family="Arial" font-size="14.00" fill="#000000">status_type_id    </text>
<text text-anchor="start" x="174.9614" y="-576.9" font-family="Arial" font-size="14.00" fill="#666666">[tinyint(3) unsigned]</text>
<polygon fill="none" stroke="#000000" points="43.5,-535.5 43.5,-565.5 358.5,-565.5 358.5,-535.5 43.5,-535.5"/>
<text text-anchor="start" x="50.5" y="-546.9" font-family="Arial" font-size="14.00" fill="#000000">last_successful_at    </text>
<text text-anchor="start" x="199.068" y="-546.9" font-family="Arial" font-size="14.00" fill="#666666">[datetime]</text>
<polygon fill="none" stroke="#000000" points="43.5,-505.5 43.5,-535.5 358.5,-535.5 358.5,-505.5 43.5,-505.5"/>
<text text-anchor="start" x="50.5" y="-516.9" font-family="Arial" font-size="14.00" fill="#000000">last_failure_at    </text>
<text text-anchor="start" x="171.8352" y="-516.9" font-family="Arial" font-size="14.00" fill="#666666">[datetime]</text>
<polygon fill="none" stroke="#000000" points="43.5,-475.5 43.5,-505.5 358.5,-505.5 358.5,-475.5 43.5,-475.5"/>
<text text-anchor="start" x="50.5" y="-486.9" font-family="Arial" font-size="14.00" fill="#000000">created_at    </text>
<text text-anchor="start" x="150.8422" y="-486.9" font-family="Arial" font-size="14.00" fill="#666666">[datetime]</text>
<polygon fill="none" stroke="#000000" points="43.5,-445.5 43.5,-475.5 358.5,-475.5 358.5,-445.5 43.5,-445.5"/>
<text text-anchor="start" x="50.5" y="-456.9" font-family="Arial" font-size="14.00" fill="#000000">updated_at    </text>
<text text-anchor="start" x="154.7468" y="-456.9" font-family="Arial" font-size="14.00" fill="#666666">[datetime]</text>
</g>
<!-- water_fetch_statuses&#45;&gt;water_fetch_settings -->
<g id="edge1" class="edge">
<title>water_fetch_statuses:water_fetch_setting_id&#45;&gt;water_fetch_settings:id</title>
<path fill="none" stroke="#000000" d="M368.4637,-607.2945C400.6187,-583.9838 378.3854,-440.3668 358.5,-403 333.8305,-356.6433 285.1695,-383.3567 260.5,-337 240.3514,-299.1386 217.6111,-240.5 260.5,-240.5"/>
<polygon fill="#000000" stroke="#000000" points="368.0195,-607.4374 357.1218,-606.2162 363.2598,-608.9687 358.5,-610.5 358.5,-610.5 358.5,-610.5 363.2598,-608.9687 359.8782,-614.7838 368.0195,-607.4374 368.0195,-607.4374"/>
<text text-anchor="start" x="365.199" y="-620.5" font-family="Arial" font-size="10.00" fill="#000000">FOREIGN KEY (water_fetch_setting_id) REFERENCES water_fetch_settings (id)</text>
</g>
<!-- water_monthly_usages -->
<g id="node3" class="node">
<title>water_monthly_usages</title>
<polygon fill="#efefef" stroke="transparent" points="462.5,-685.5 462.5,-720.5 788.5,-720.5 788.5,-685.5 462.5,-685.5"/>
<polygon fill="none" stroke="#000000" points="462.5,-685.5 462.5,-720.5 788.5,-720.5 788.5,-685.5 462.5,-685.5"/>
<text text-anchor="start" x="469.1933" y="-698.3" font-family="Arial Bold" font-size="18.00" fill="#000000">water_monthly_usages</text>
<text text-anchor="start" x="654.2387" y="-698.3" font-family="Arial" font-size="14.00" fill="#000000">    </text>
<text text-anchor="start" x="688.4435" y="-698.3" font-family="Arial" font-size="14.00" fill="#666666">[BASE TABLE]</text>
<polygon fill="none" stroke="#000000" points="462.5,-655.5 462.5,-685.5 788.5,-685.5 788.5,-655.5 462.5,-655.5"/>
<text text-anchor="start" x="469.5" y="-666.9" font-family="Arial" font-size="14.00" fill="#000000">water_fetch_setting_id    </text>
<text text-anchor="start" x="643.7468" y="-666.9" font-family="Arial" font-size="14.00" fill="#666666">[bigint(20) unsigned]</text>
<polygon fill="none" stroke="#000000" points="462.5,-625.5 462.5,-655.5 788.5,-655.5 788.5,-625.5 462.5,-625.5"/>
<text text-anchor="start" x="469.5" y="-636.9" font-family="Arial" font-size="14.00" fill="#000000">usage_year    </text>
<text text-anchor="start" x="576.8436" y="-636.9" font-family="Arial" font-size="14.00" fill="#666666">[int(10) unsigned]</text>
<polygon fill="none" stroke="#000000" points="462.5,-595.5 462.5,-625.5 788.5,-625.5 788.5,-595.5 462.5,-595.5"/>
<text text-anchor="start" x="469.5" y="-606.9" font-family="Arial" font-size="14.00" fill="#000000">usage_month    </text>
<text text-anchor="start" x="588.5168" y="-606.9" font-family="Arial" font-size="14.00" fill="#666666">[int(10) unsigned]</text>
<polygon fill="none" stroke="#000000" points="462.5,-565.5 462.5,-595.5 788.5,-595.5 788.5,-565.5 462.5,-565.5"/>
<text text-anchor="start" x="469.5" y="-576.9" font-family="Arial" font-size="14.00" fill="#000000">usage_begin_at    </text>
<text text-anchor="start" x="603.3106" y="-576.9" font-family="Arial" font-size="14.00" fill="#666666">[date]</text>
<polygon fill="none" stroke="#000000" points="462.5,-535.5 462.5,-565.5 788.5,-565.5 788.5,-535.5 462.5,-535.5"/>
<text text-anchor="start" x="469.5" y="-546.9" font-family="Arial" font-size="14.00" fill="#000000">usage_end_at    </text>
<text text-anchor="start" x="592.4214" y="-546.9" font-family="Arial" font-size="14.00" fill="#666666">[date]</text>
<polygon fill="none" stroke="#000000" points="462.5,-505.5 462.5,-535.5 788.5,-535.5 788.5,-505.5 462.5,-505.5"/>
<text text-anchor="start" x="469.5" y="-516.9" font-family="Arial" font-size="14.00" fill="#000000">usage_amount    </text>
<text text-anchor="start" x="596.2994" y="-516.9" font-family="Arial" font-size="14.00" fill="#666666">[decimal(15,5) unsigned]</text>
<polygon fill="none" stroke="#000000" points="462.5,-475.5 462.5,-505.5 788.5,-505.5 788.5,-475.5 462.5,-475.5"/>
<text text-anchor="start" x="469.5" y="-486.9" font-family="Arial" font-size="14.00" fill="#000000">usage_yen    </text>
<text text-anchor="start" x="572.183" y="-486.9" font-family="Arial" font-size="14.00" fill="#666666">[int(10) unsigned]</text>
<polygon fill="none" stroke="#000000" points="462.5,-445.5 462.5,-475.5 788.5,-475.5 788.5,-445.5 462.5,-445.5"/>
<text text-anchor="start" x="469.5" y="-456.9" font-family="Arial" font-size="14.00" fill="#000000">created_at    </text>
<text text-anchor="start" x="569.8422" y="-456.9" font-family="Arial" font-size="14.00" fill="#666666">[datetime]</text>
<polygon fill="none" stroke="#000000" points="462.5,-415.5 462.5,-445.5 788.5,-445.5 788.5,-415.5 462.5,-415.5"/>
<text text-anchor="start" x="469.5" y="-426.9" font-family="Arial" font-size="14.00" fill="#000000">updated_at    </text>
<text text-anchor="start" x="573.7468" y="-426.9" font-family="Arial" font-size="14.00" fill="#666666">[datetime]</text>
</g>
<!-- water_monthly_usages&#45;&gt;water_fetch_settings -->
<g id="edge2" class="edge">
<title>water_monthly_usages:water_fetch_setting_id&#45;&gt;water_fetch_settings:id</title>
<path fill="none" stroke="#000000" d="M452.4823,-668.3849C399.4572,-644.4188 426.2501,-423.9083 462.5,-373 490.8715,-333.1559 538.1285,-376.8441 566.5,-337 591.3772,-302.0632 609.3889,-240.5 566.5,-240.5"/>
<polygon fill="#000000" stroke="#000000" points="452.7157,-668.4341 461.5703,-674.9029 457.6079,-669.467 462.5,-670.5 462.5,-670.5 462.5,-670.5 457.6079,-669.467 463.4297,-666.0971 452.7157,-668.4341 452.7157,-668.4341"/>
<text text-anchor="start" x="469.199" y="-680.5" font-family="Arial" font-size="10.00" fill="#000000">FOREIGN KEY (water_fetch_setting_id) REFERENCES water_fetch_settings (id)</text>
</g>
</g>
</svg>
