<?xml version="1.0" encoding="UTF-8" standalone="no"?>
<!DOCTYPE svg PUBLIC "-//W3C//DTD SVG 1.1//EN"
 "http://www.w3.org/Graphics/SVG/1.1/DTD/svg11.dtd">
<!-- Generated by graphviz version 12.1.2 (20240928.0832)
 -->
<!-- Title: water_fetch_settings Pages: 1 -->
<svg width="860pt" height="818pt"
 viewBox="0.00 0.00 859.94 817.60" xmlns="http://www.w3.org/2000/svg" xmlns:xlink="http://www.w3.org/1999/xlink">
<g id="graph0" class="graph" transform="scale(1 1) rotate(0) translate(4 813.6)">
<title>water_fetch_settings</title>
<polygon fill="white" stroke="none" points="-4,4 -4,-813.6 855.94,-813.6 855.94,4 -4,4"/>
<!-- water_fetch_settings -->
<g id="node1" class="node">
<title>water_fetch_settings</title>
<polygon fill="#efefef" stroke="none" points="285.75,-292.6 285.75,-328.2 573.19,-328.2 573.19,-292.6 285.75,-292.6"/>
<polygon fill="none" stroke="black" points="285.75,-292.6 285.75,-328.2 573.19,-328.2 573.19,-292.6 285.75,-292.6"/>
<text text-anchor="start" x="292.75" y="-306" font-family="Arial Bold" font-size="18.00">water_fetch_settings</text>
<text text-anchor="start" x="441.7" y="-306" font-family="Arial" font-size="14.00">    </text>
<text text-anchor="start" x="472.82" y="-306" font-family="Arial" font-size="14.00" fill="#666666">[BASE TABLE]</text>
<polygon fill="none" stroke="black" points="285.75,-261.8 285.75,-292.6 573.19,-292.6 573.19,-261.8 285.75,-261.8"/>
<text text-anchor="start" x="292.75" y="-274" font-family="Arial" font-size="14.00">id </text>
<text text-anchor="start" x="307.54" y="-274" font-family="Arial" font-size="14.00" fill="#666666">[bigint(20) unsigned]</text>
<polygon fill="none" stroke="black" points="285.75,-231 285.75,-261.8 573.19,-261.8 573.19,-231 285.75,-231"/>
<text text-anchor="start" x="292.75" y="-243.2" font-family="Arial" font-size="14.00">setting_name </text>
<text text-anchor="start" x="380.7" y="-243.2" font-family="Arial" font-size="14.00" fill="#666666">[varchar(255)]</text>
<polygon fill="none" stroke="black" points="285.75,-200.2 285.75,-231 573.19,-231 573.19,-200.2 285.75,-200.2"/>
<text text-anchor="start" x="292.75" y="-212.4" font-family="Arial" font-size="14.00">water_site_id </text>
<text text-anchor="start" x="379.13" y="-212.4" font-family="Arial" font-size="14.00" fill="#666666">[bigint(20) unsigned]</text>
<polygon fill="none" stroke="black" points="285.75,-169.4 285.75,-200.2 573.19,-200.2 573.19,-169.4 285.75,-169.4"/>
<text text-anchor="start" x="292.75" y="-181.6" font-family="Arial" font-size="14.00">user_name </text>
<text text-anchor="start" x="366.69" y="-181.6" font-family="Arial" font-size="14.00" fill="#666666">[varchar(255)]</text>
<polygon fill="none" stroke="black" points="285.75,-138.6 285.75,-169.4 573.19,-169.4 573.19,-138.6 285.75,-138.6"/>
<text text-anchor="start" x="292.75" y="-150.8" font-family="Arial" font-size="14.00">encrypted_password </text>
<text text-anchor="start" x="425.83" y="-150.8" font-family="Arial" font-size="14.00" fill="#666666">[varchar(512)]</text>
<polygon fill="none" stroke="black" points="285.75,-107.8 285.75,-138.6 573.19,-138.6 573.19,-107.8 285.75,-107.8"/>
<text text-anchor="start" x="292.75" y="-120" font-family="Arial" font-size="14.00">fetch_enable </text>
<text text-anchor="start" x="376.82" y="-120" font-family="Arial" font-size="14.00" fill="#666666">[tinyint(1)]</text>
<polygon fill="none" stroke="black" points="285.75,-77 285.75,-107.8 573.19,-107.8 573.19,-77 285.75,-77"/>
<text text-anchor="start" x="292.75" y="-89.2" font-family="Arial" font-size="14.00">created_at </text>
<text text-anchor="start" x="362.8" y="-89.2" font-family="Arial" font-size="14.00" fill="#666666">[datetime]</text>
<polygon fill="none" stroke="black" points="285.75,-46.2 285.75,-77 573.19,-77 573.19,-46.2 285.75,-46.2"/>
<text text-anchor="start" x="292.75" y="-58.4" font-family="Arial" font-size="14.00">updated_at </text>
<text text-anchor="start" x="366.71" y="-58.4" font-family="Arial" font-size="14.00" fill="#666666">[datetime]</text>
<polygon fill="none" stroke="black" stroke-width="3" points="284.25,-44.7 284.25,-329.7 574.69,-329.7 574.69,-44.7 284.25,-44.7"/>
</g>
<!-- water_fetch_statuses -->
<g id="node2" class="node">
<title>water_fetch_statuses</title>
<polygon fill="#efefef" stroke="none" points="85.26,-700 85.26,-735.6 373.69,-735.6 373.69,-700 85.26,-700"/>
<polygon fill="none" stroke="black" points="85.26,-700 85.26,-735.6 373.69,-735.6 373.69,-700 85.26,-700"/>
<text text-anchor="start" x="92.26" y="-713.4" font-family="Arial Bold" font-size="18.00">water_fetch_statuses</text>
<text text-anchor="start" x="242.2" y="-713.4" font-family="Arial" font-size="14.00">    </text>
<text text-anchor="start" x="273.32" y="-713.4" font-family="Arial" font-size="14.00" fill="#666666">[BASE TABLE]</text>
<polygon fill="none" stroke="black" points="85.26,-669.2 85.26,-700 373.69,-700 373.69,-669.2 85.26,-669.2"/>
<text text-anchor="start" x="92.26" y="-681.4" font-family="Arial" font-size="14.00">id </text>
<text text-anchor="start" x="107.04" y="-681.4" font-family="Arial" font-size="14.00" fill="#666666">[bigint(20) unsigned]</text>
<polygon fill="none" stroke="black" points="85.26,-638.4 85.26,-669.2 373.69,-669.2 373.69,-638.4 85.26,-638.4"/>
<text text-anchor="start" x="92.26" y="-650.6" font-family="Arial" font-size="14.00">water_fetch_setting_id </text>
<text text-anchor="start" x="236.24" y="-650.6" font-family="Arial" font-size="14.00" fill="#666666">[bigint(20) unsigned]</text>
<polygon fill="none" stroke="black" points="85.26,-607.6 85.26,-638.4 373.69,-638.4 373.69,-607.6 85.26,-607.6"/>
<text text-anchor="start" x="92.26" y="-619.8" font-family="Arial" font-size="14.00">status_type_id </text>
<text text-anchor="start" x="186.43" y="-619.8" font-family="Arial" font-size="14.00" fill="#666666">[tinyint(3) unsigned]</text>
<polygon fill="none" stroke="black" points="85.26,-576.8 85.26,-607.6 373.69,-607.6 373.69,-576.8 85.26,-576.8"/>
<text text-anchor="start" x="92.26" y="-589" font-family="Arial" font-size="14.00">last_successful_at </text>
<text text-anchor="start" x="210.54" y="-589" font-family="Arial" font-size="14.00" fill="#666666">[datetime]</text>
<polygon fill="none" stroke="black" points="85.26,-546 85.26,-576.8 373.69,-576.8 373.69,-546 85.26,-546"/>
<text text-anchor="start" x="92.26" y="-558.2" font-family="Arial" font-size="14.00">last_failure_at </text>
<text text-anchor="start" x="183.31" y="-558.2" font-family="Arial" font-size="14.00" fill="#666666">[datetime]</text>
<polygon fill="none" stroke="black" points="85.26,-515.2 85.26,-546 373.69,-546 373.69,-515.2 85.26,-515.2"/>
<text text-anchor="start" x="92.26" y="-527.4" font-family="Arial" font-size="14.00">created_at </text>
<text text-anchor="start" x="162.31" y="-527.4" font-family="Arial" font-size="14.00" fill="#666666">[datetime]</text>
<polygon fill="none" stroke="black" points="85.26,-484.4 85.26,-515.2 373.69,-515.2 373.69,-484.4 85.26,-484.4"/>
<text text-anchor="start" x="92.26" y="-496.6" font-family="Arial" font-size="14.00">updated_at </text>
<text text-anchor="start" x="166.22" y="-496.6" font-family="Arial" font-size="14.00" fill="#666666">[datetime]</text>
</g>
<!-- water_fetch_statuses&#45;&gt;water_fetch_settings -->
<g id="edge1" class="edge">
<title>water_fetch_statuses:water_fetch_setting_id&#45;&gt;water_fetch_settings:id</title>
<path fill="none" stroke="black" d="M384.44,-650.82C417.73,-627.97 393.14,-480.17 373.69,-441.2 351.77,-397.29 307.79,-418.25 285.75,-374.4 266.35,-335.8 241.55,-277.2 284.75,-277.2"/>
<polygon fill="black" stroke="black" points="384.57,-650.78 373.69,-649.4 379.47,-652.34 375.33,-653.6 375.33,-653.6 375.33,-653.6 379.47,-652.34 376.32,-658.01 384.57,-650.78"/>
<text text-anchor="start" x="7" y="-663.8" font-family="Arial" font-size="10.00">FOREIGN KEY (water_fetch_setting_id) REFERENCES water_fetch_settings (id)</text>
</g>
<!-- water_monthly_usages -->
<g id="node3" class="node">
<title>water_monthly_usages</title>
<polygon fill="#efefef" stroke="none" points="478.25,-730.8 478.25,-766.4 782.7,-766.4 782.7,-730.8 478.25,-730.8"/>
<polygon fill="none" stroke="black" points="478.25,-730.8 478.25,-766.4 782.7,-766.4 782.7,-730.8 478.25,-730.8"/>
<text text-anchor="start" x="485.25" y="-744.2" font-family="Arial Bold" font-size="18.00">water_monthly_usages</text>
<text text-anchor="start" x="651.21" y="-744.2" font-family="Arial" font-size="14.00">    </text>
<text text-anchor="start" x="682.33" y="-744.2" font-family="Arial" font-size="14.00" fill="#666666">[BASE TABLE]</text>
<polygon fill="none" stroke="black" points="478.25,-700 478.25,-730.8 782.7,-730.8 782.7,-700 478.25,-700"/>
<text text-anchor="start" x="485.25" y="-712.2" font-family="Arial" font-size="14.00">water_fetch_setting_id </text>
<text text-anchor="start" x="629.23" y="-712.2" font-family="Arial" font-size="14.00" fill="#666666">[bigint(20) unsigned]</text>
<polygon fill="none" stroke="black" points="478.25,-669.2 478.25,-700 782.7,-700 782.7,-669.2 478.25,-669.2"/>
<text text-anchor="start" x="485.25" y="-681.4" font-family="Arial" font-size="14.00">usage_year </text>
<text text-anchor="start" x="562.3" y="-681.4" font-family="Arial" font-size="14.00" fill="#666666">[int(10) unsigned]</text>
<polygon fill="none" stroke="black" points="478.25,-638.4 478.25,-669.2 782.7,-669.2 782.7,-638.4 478.25,-638.4"/>
<text text-anchor="start" x="485.25" y="-650.6" font-family="Arial" font-size="14.00">usage_month </text>
<text text-anchor="start" x="573.98" y="-650.6" font-family="Arial" font-size="14.00" fill="#666666">[int(10) unsigned]</text>
<polygon fill="none" stroke="black" points="478.25,-607.6 478.25,-638.4 782.7,-638.4 782.7,-607.6 478.25,-607.6"/>
<text text-anchor="start" x="485.25" y="-619.8" font-family="Arial" font-size="14.00">usage_begin_at </text>
<text text-anchor="start" x="588.78" y="-619.8" font-family="Arial" font-size="14.00" fill="#666666">[date]</text>
<polygon fill="none" stroke="black" points="478.25,-576.8 478.25,-607.6 782.7,-607.6 782.7,-576.8 478.25,-576.8"/>
<text text-anchor="start" x="485.25" y="-589" font-family="Arial" font-size="14.00">usage_end_at </text>
<text text-anchor="start" x="577.89" y="-589" font-family="Arial" font-size="14.00" fill="#666666">[date]</text>
<polygon fill="none" stroke="black" points="478.25,-546 478.25,-576.8 782.7,-576.8 782.7,-546 478.25,-546"/>
<text text-anchor="start" x="485.25" y="-558.2" font-family="Arial" font-size="14.00">usage_amount </text>
<text text-anchor="start" x="581.76" y="-558.2" font-family="Arial" font-size="14.00" fill="#666666">[decimal(15,5) unsigned]</text>
<polygon fill="none" stroke="black" points="478.25,-515.2 478.25,-546 782.7,-546 782.7,-515.2 478.25,-515.2"/>
<text text-anchor="start" x="485.25" y="-527.4" font-family="Arial" font-size="14.00">usage_yen </text>
<text text-anchor="start" x="557.64" y="-527.4" font-family="Arial" font-size="14.00" fill="#666666">[int(10) unsigned]</text>
<polygon fill="none" stroke="black" points="478.25,-484.4 478.25,-515.2 782.7,-515.2 782.7,-484.4 478.25,-484.4"/>
<text text-anchor="start" x="485.25" y="-496.6" font-family="Arial" font-size="14.00">created_at </text>
<text text-anchor="start" x="555.29" y="-496.6" font-family="Arial" font-size="14.00" fill="#666666">[datetime]</text>
<polygon fill="none" stroke="black" points="478.25,-453.6 478.25,-484.4 782.7,-484.4 782.7,-453.6 478.25,-453.6"/>
<text text-anchor="start" x="485.25" y="-465.8" font-family="Arial" font-size="14.00">updated_at </text>
<text text-anchor="start" x="559.2" y="-465.8" font-family="Arial" font-size="14.00" fill="#666666">[datetime]</text>
</g>
<!-- water_monthly_usages&#45;&gt;water_fetch_settings -->
<g id="edge2" class="edge">
<title>water_monthly_usages:water_fetch_setting_id&#45;&gt;water_fetch_settings:id</title>
<path fill="none" stroke="black" d="M467.33,-713.39C412.68,-689.65 441.69,-463.18 478.25,-410.4 503.95,-373.3 547.36,-411.41 573.19,-374.4 597.92,-338.97 617.39,-277.2 574.19,-277.2"/>
<polygon fill="black" stroke="black" points="467.12,-713.34 476.02,-719.74 472.35,-714.4 476.59,-715.27 476.59,-715.27 476.59,-715.27 472.35,-714.4 477.81,-710.92 467.12,-713.34"/>
<text text-anchor="start" x="484.25" y="-725.4" font-family="Arial" font-size="10.00">FOREIGN KEY (water_fetch_setting_id) REFERENCES water_fetch_settings (id)</text>
</g>
</g>
</svg>
