<?xml version="1.0" encoding="UTF-8" standalone="no"?>
<!DOCTYPE svg PUBLIC "-//W3C//DTD SVG 1.1//EN"
 "http://www.w3.org/Graphics/SVG/1.1/DTD/svg11.dtd">
<!-- Generated by graphviz version 2.40.1 (20161225.0304)
 -->
<!-- Title: water_fetch_settings Pages: 1 -->
<svg width="751pt" height="742pt"
 viewBox="0.00 0.00 751.00 742.00" xmlns="http://www.w3.org/2000/svg" xmlns:xlink="http://www.w3.org/1999/xlink">
<g id="graph0" class="graph" transform="scale(1 1) rotate(0) translate(4 738)">
<title>water_fetch_settings</title>
<polygon fill="#ffffff" stroke="transparent" points="-4,4 -4,-738 747,-738 747,4 -4,4"/>
<!-- water_fetch_settings -->
<g id="node1" class="node">
<title>water_fetch_settings</title>
<polygon fill="#efefef" stroke="transparent" points="53,-225.5 53,-260.5 359,-260.5 359,-225.5 53,-225.5"/>
<polygon fill="none" stroke="#000000" points="53,-225.5 53,-260.5 359,-260.5 359,-225.5 53,-225.5"/>
<text text-anchor="start" x="59.6923" y="-238.3" font-family="Arial Bold" font-size="18.00" fill="#000000">water_fetch_settings</text>
<text text-anchor="start" x="224.7397" y="-238.3" font-family="Arial" font-size="14.00" fill="#000000">    </text>
<text text-anchor="start" x="258.9445" y="-238.3" font-family="Arial" font-size="14.00" fill="#666666">[BASE TABLE]</text>
<polygon fill="none" stroke="#000000" points="53,-195.5 53,-225.5 359,-225.5 359,-195.5 53,-195.5"/>
<text text-anchor="start" x="60" y="-206.9" font-family="Arial" font-size="14.00" fill="#000000">id </text>
<text text-anchor="start" x="74.7798" y="-206.9" font-family="Arial" font-size="14.00" fill="#666666">[bigint(20) unsigned]</text>
<polygon fill="none" stroke="#000000" points="53,-165.5 53,-195.5 359,-195.5 359,-165.5 53,-165.5"/>
<text text-anchor="start" x="60" y="-176.9" font-family="Arial" font-size="14.00" fill="#000000">water_site_id </text>
<text text-anchor="start" x="146.3478" y="-176.9" font-family="Arial" font-size="14.00" fill="#666666">[bigint(20) unsigned]</text>
<polygon fill="none" stroke="#000000" points="53,-135.5 53,-165.5 359,-165.5 359,-135.5 53,-135.5"/>
<text text-anchor="start" x="60" y="-146.9" font-family="Arial" font-size="14.00" fill="#000000">user_name </text>
<text text-anchor="start" x="133.9074" y="-146.9" font-family="Arial" font-size="14.00" fill="#666666">[varchar(255)]</text>
<polygon fill="none" stroke="#000000" points="53,-105.5 53,-135.5 359,-135.5 359,-105.5 53,-105.5"/>
<text text-anchor="start" x="60" y="-116.9" font-family="Arial" font-size="14.00" fill="#000000">encrypted_password </text>
<text text-anchor="start" x="193.035" y="-116.9" font-family="Arial" font-size="14.00" fill="#666666">[varchar(512)]</text>
<polygon fill="none" stroke="#000000" points="53,-75.5 53,-105.5 359,-105.5 359,-75.5 53,-75.5"/>
<text text-anchor="start" x="60" y="-86.9" font-family="Arial" font-size="14.00" fill="#000000">created_at </text>
<text text-anchor="start" x="130.028" y="-86.9" font-family="Arial" font-size="14.00" fill="#666666">[datetime]</text>
<polygon fill="none" stroke="#000000" points="53,-45.5 53,-75.5 359,-75.5 359,-45.5 53,-45.5"/>
<text text-anchor="start" x="60" y="-56.9" font-family="Arial" font-size="14.00" fill="#000000">updated_at </text>
<text text-anchor="start" x="133.9326" y="-56.9" font-family="Arial" font-size="14.00" fill="#666666">[datetime]</text>
<polygon fill="none" stroke="#000000" stroke-width="3" points="51.5,-44.5 51.5,-262.5 360.5,-262.5 360.5,-44.5 51.5,-44.5"/>
</g>
<!-- water_monthly_usages -->
<g id="node2" class="node">
<title>water_monthly_usages</title>
<polygon fill="#efefef" stroke="transparent" points="43,-655.5 43,-690.5 369,-690.5 369,-655.5 43,-655.5"/>
<polygon fill="none" stroke="#000000" points="43,-655.5 43,-690.5 369,-690.5 369,-655.5 43,-655.5"/>
<text text-anchor="start" x="49.6933" y="-668.3" font-family="Arial Bold" font-size="18.00" fill="#000000">water_monthly_usages</text>
<text text-anchor="start" x="234.7387" y="-668.3" font-family="Arial" font-size="14.00" fill="#000000">    </text>
<text text-anchor="start" x="268.9435" y="-668.3" font-family="Arial" font-size="14.00" fill="#666666">[BASE TABLE]</text>
<polygon fill="none" stroke="#000000" points="43,-625.5 43,-655.5 369,-655.5 369,-625.5 43,-625.5"/>
<text text-anchor="start" x="50" y="-636.9" font-family="Arial" font-size="14.00" fill="#000000">water_fetch_setting_id    </text>
<text text-anchor="start" x="224.2468" y="-636.9" font-family="Arial" font-size="14.00" fill="#666666">[bigint(20) unsigned]</text>
<polygon fill="none" stroke="#000000" points="43,-595.5 43,-625.5 369,-625.5 369,-595.5 43,-595.5"/>
<text text-anchor="start" x="50" y="-606.9" font-family="Arial" font-size="14.00" fill="#000000">usage_year    </text>
<text text-anchor="start" x="157.3436" y="-606.9" font-family="Arial" font-size="14.00" fill="#666666">[int(10) unsigned]</text>
<polygon fill="none" stroke="#000000" points="43,-565.5 43,-595.5 369,-595.5 369,-565.5 43,-565.5"/>
<text text-anchor="start" x="50" y="-576.9" font-family="Arial" font-size="14.00" fill="#000000">usage_month    </text>
<text text-anchor="start" x="169.0168" y="-576.9" font-family="Arial" font-size="14.00" fill="#666666">[int(10) unsigned]</text>
<polygon fill="none" stroke="#000000" points="43,-535.5 43,-565.5 369,-565.5 369,-535.5 43,-535.5"/>
<text text-anchor="start" x="50" y="-546.9" font-family="Arial" font-size="14.00" fill="#000000">usage_begin_at    </text>
<text text-anchor="start" x="183.8106" y="-546.9" font-family="Arial" font-size="14.00" fill="#666666">[date]</text>
<polygon fill="none" stroke="#000000" points="43,-505.5 43,-535.5 369,-535.5 369,-505.5 43,-505.5"/>
<text text-anchor="start" x="50" y="-516.9" font-family="Arial" font-size="14.00" fill="#000000">usage_end_at    </text>
<text text-anchor="start" x="172.9214" y="-516.9" font-family="Arial" font-size="14.00" fill="#666666">[date]</text>
<polygon fill="none" stroke="#000000" points="43,-475.5 43,-505.5 369,-505.5 369,-475.5 43,-475.5"/>
<text text-anchor="start" x="50" y="-486.9" font-family="Arial" font-size="14.00" fill="#000000">usage_amount    </text>
<text text-anchor="start" x="176.7994" y="-486.9" font-family="Arial" font-size="14.00" fill="#666666">[decimal(15,5) unsigned]</text>
<polygon fill="none" stroke="#000000" points="43,-445.5 43,-475.5 369,-475.5 369,-445.5 43,-445.5"/>
<text text-anchor="start" x="50" y="-456.9" font-family="Arial" font-size="14.00" fill="#000000">usage_yen    </text>
<text text-anchor="start" x="152.683" y="-456.9" font-family="Arial" font-size="14.00" fill="#666666">[int(10) unsigned]</text>
<polygon fill="none" stroke="#000000" points="43,-415.5 43,-445.5 369,-445.5 369,-415.5 43,-415.5"/>
<text text-anchor="start" x="50" y="-426.9" font-family="Arial" font-size="14.00" fill="#000000">created_at    </text>
<text text-anchor="start" x="150.3422" y="-426.9" font-family="Arial" font-size="14.00" fill="#666666">[datetime]</text>
<polygon fill="none" stroke="#000000" points="43,-385.5 43,-415.5 369,-415.5 369,-385.5 43,-385.5"/>
<text text-anchor="start" x="50" y="-396.9" font-family="Arial" font-size="14.00" fill="#000000">updated_at    </text>
<text text-anchor="start" x="154.2468" y="-396.9" font-family="Arial" font-size="14.00" fill="#666666">[datetime]</text>
</g>
<!-- water_monthly_usages&#45;&gt;water_fetch_settings -->
<g id="edge1" class="edge">
<title>water_monthly_usages:water_fetch_setting_id&#45;&gt;water_fetch_settings:id</title>
<path fill="none" stroke="#000000" d="M378.9483,-638.8564C463.747,-609.9872 451.1278,-210.5 359,-210.5"/>
<polygon fill="#000000" stroke="#000000" points="378.8662,-638.8698 368.2664,-636.0602 373.9331,-639.6849 369,-640.5 369,-640.5 369,-640.5 373.9331,-639.6849 369.7336,-644.9398 378.8662,-638.8698 378.8662,-638.8698"/>
<text text-anchor="start" x="375.699" y="-650.5" font-family="Arial" font-size="10.00" fill="#000000">FOREIGN KEY (water_fetch_setting_id) REFERENCES water_fetch_settings (id)</text>
</g>
</g>
</svg>
