<?xml version="1.0" encoding="UTF-8" standalone="no"?>
<!DOCTYPE svg PUBLIC "-//W3C//DTD SVG 1.1//EN"
 "http://www.w3.org/Graphics/SVG/1.1/DTD/svg11.dtd">
<!-- Generated by graphviz version 2.40.1 (20161225.0304)
 -->
<!-- Title: water_fetch_statuses Pages: 1 -->
<svg width="1023pt" height="712pt"
 viewBox="0.00 0.00 1023.00 712.00" xmlns="http://www.w3.org/2000/svg" xmlns:xlink="http://www.w3.org/1999/xlink">
<g id="graph0" class="graph" transform="scale(1 1) rotate(0) translate(4 708)">
<title>water_fetch_statuses</title>
<polygon fill="#ffffff" stroke="transparent" points="-4,4 -4,-708 1019,-708 1019,4 -4,4"/>
<!-- water_fetch_statuses -->
<g id="node1" class="node">
<title>water_fetch_statuses</title>
<polygon fill="#efefef" stroke="transparent" points="374,-622.5 374,-657.5 685,-657.5 685,-622.5 374,-622.5"/>
<polygon fill="none" stroke="#000000" points="374,-622.5 374,-657.5 685,-657.5 685,-622.5 374,-622.5"/>
<text text-anchor="start" x="380.6894" y="-635.3" font-family="Arial Bold" font-size="18.00" fill="#000000">water_fetch_statuses</text>
<text text-anchor="start" x="550.7426" y="-635.3" font-family="Arial" font-size="14.00" fill="#000000">    </text>
<text text-anchor="start" x="584.9474" y="-635.3" font-family="Arial" font-size="14.00" fill="#666666">[BASE TABLE]</text>
<polygon fill="none" stroke="#000000" points="374,-592.5 374,-622.5 685,-622.5 685,-592.5 374,-592.5"/>
<text text-anchor="start" x="381" y="-603.9" font-family="Arial" font-size="14.00" fill="#000000">id </text>
<text text-anchor="start" x="395.7798" y="-603.9" font-family="Arial" font-size="14.00" fill="#666666">[bigint(20) unsigned]</text>
<polygon fill="none" stroke="#000000" points="374,-562.5 374,-592.5 685,-592.5 685,-562.5 374,-562.5"/>
<text text-anchor="start" x="381" y="-573.9" font-family="Arial" font-size="14.00" fill="#000000">water_fetch_setting_id </text>
<text text-anchor="start" x="524.9326" y="-573.9" font-family="Arial" font-size="14.00" fill="#666666">[bigint(20) unsigned]</text>
<polygon fill="none" stroke="#000000" points="374,-532.5 374,-562.5 685,-562.5 685,-532.5 374,-532.5"/>
<text text-anchor="start" x="381" y="-543.9" font-family="Arial" font-size="14.00" fill="#000000">status_type_id </text>
<text text-anchor="start" x="475.1472" y="-543.9" font-family="Arial" font-size="14.00" fill="#666666">[tinyint(3) unsigned]</text>
<polygon fill="none" stroke="#000000" points="374,-502.5 374,-532.5 685,-532.5 685,-502.5 374,-502.5"/>
<text text-anchor="start" x="381" y="-513.9" font-family="Arial" font-size="14.00" fill="#000000">last_successful_at </text>
<text text-anchor="start" x="499.2538" y="-513.9" font-family="Arial" font-size="14.00" fill="#666666">[datetime]</text>
<polygon fill="none" stroke="#000000" points="374,-472.5 374,-502.5 685,-502.5 685,-472.5 374,-472.5"/>
<text text-anchor="start" x="381" y="-483.9" font-family="Arial" font-size="14.00" fill="#000000">last_failure_at </text>
<text text-anchor="start" x="472.021" y="-483.9" font-family="Arial" font-size="14.00" fill="#666666">[datetime]</text>
<polygon fill="none" stroke="#000000" points="374,-442.5 374,-472.5 685,-472.5 685,-442.5 374,-442.5"/>
<text text-anchor="start" x="381" y="-453.9" font-family="Arial" font-size="14.00" fill="#000000">created_at </text>
<text text-anchor="start" x="451.028" y="-453.9" font-family="Arial" font-size="14.00" fill="#666666">[datetime]</text>
<polygon fill="none" stroke="#000000" points="374,-412.5 374,-442.5 685,-442.5 685,-412.5 374,-412.5"/>
<text text-anchor="start" x="381" y="-423.9" font-family="Arial" font-size="14.00" fill="#000000">updated_at </text>
<text text-anchor="start" x="454.9326" y="-423.9" font-family="Arial" font-size="14.00" fill="#666666">[datetime]</text>
<polygon fill="none" stroke="#000000" stroke-width="3" points="372,-411.5 372,-659.5 686,-659.5 686,-411.5 372,-411.5"/>
</g>
<!-- water_fetch_settings -->
<g id="node2" class="node">
<title>water_fetch_settings</title>
<polygon fill="#efefef" stroke="transparent" points="175,-252.5 175,-287.5 481,-287.5 481,-252.5 175,-252.5"/>
<polygon fill="none" stroke="#000000" points="175,-252.5 175,-287.5 481,-287.5 481,-252.5 175,-252.5"/>
<text text-anchor="start" x="181.6923" y="-265.3" font-family="Arial Bold" font-size="18.00" fill="#000000">water_fetch_settings</text>
<text text-anchor="start" x="346.7397" y="-265.3" font-family="Arial" font-size="14.00" fill="#000000">    </text>
<text text-anchor="start" x="380.9445" y="-265.3" font-family="Arial" font-size="14.00" fill="#666666">[BASE TABLE]</text>
<polygon fill="none" stroke="#000000" points="175,-222.5 175,-252.5 481,-252.5 481,-222.5 175,-222.5"/>
<text text-anchor="start" x="182" y="-233.9" font-family="Arial" font-size="14.00" fill="#000000">id    </text>
<text text-anchor="start" x="227.094" y="-233.9" font-family="Arial" font-size="14.00" fill="#666666">[bigint(20) unsigned]</text>
<polygon fill="none" stroke="#000000" points="175,-192.5 175,-222.5 481,-222.5 481,-192.5 175,-192.5"/>
<text text-anchor="start" x="182" y="-203.9" font-family="Arial" font-size="14.00" fill="#000000">water_site_id    </text>
<text text-anchor="start" x="298.662" y="-203.9" font-family="Arial" font-size="14.00" fill="#666666">[bigint(20) unsigned]</text>
<polygon fill="none" stroke="#000000" points="175,-162.5 175,-192.5 481,-192.5 481,-162.5 175,-162.5"/>
<text text-anchor="start" x="182" y="-173.9" font-family="Arial" font-size="14.00" fill="#000000">user_name    </text>
<text text-anchor="start" x="286.2216" y="-173.9" font-family="Arial" font-size="14.00" fill="#666666">[varchar(255)]</text>
<polygon fill="none" stroke="#000000" points="175,-132.5 175,-162.5 481,-162.5 481,-132.5 175,-132.5"/>
<text text-anchor="start" x="182" y="-143.9" font-family="Arial" font-size="14.00" fill="#000000">encrypted_password    </text>
<text text-anchor="start" x="345.3492" y="-143.9" font-family="Arial" font-size="14.00" fill="#666666">[varchar(512)]</text>
<polygon fill="none" stroke="#000000" points="175,-102.5 175,-132.5 481,-132.5 481,-102.5 175,-102.5"/>
<text text-anchor="start" x="182" y="-113.9" font-family="Arial" font-size="14.00" fill="#000000">fetch_enable    </text>
<text text-anchor="start" x="296.3534" y="-113.9" font-family="Arial" font-size="14.00" fill="#666666">[tinyint(1)]</text>
<polygon fill="none" stroke="#000000" points="175,-72.5 175,-102.5 481,-102.5 481,-72.5 175,-72.5"/>
<text text-anchor="start" x="182" y="-83.9" font-family="Arial" font-size="14.00" fill="#000000">created_at    </text>
<text text-anchor="start" x="282.3422" y="-83.9" font-family="Arial" font-size="14.00" fill="#666666">[datetime]</text>
<polygon fill="none" stroke="#000000" points="175,-42.5 175,-72.5 481,-72.5 481,-42.5 175,-42.5"/>
<text text-anchor="start" x="182" y="-53.9" font-family="Arial" font-size="14.00" fill="#000000">updated_at    </text>
<text text-anchor="start" x="286.2468" y="-53.9" font-family="Arial" font-size="14.00" fill="#666666">[datetime]</text>
</g>
<!-- water_fetch_statuses&#45;&gt;water_fetch_settings -->
<g id="edge1" class="edge">
<title>water_fetch_statuses:water_fetch_setting_id&#45;&gt;water_fetch_settings:id</title>
<path fill="none" stroke="#000000" d="M363.6361,-576.8957C283.512,-567.0794 321.5361,-440.0051 374,-367 403.2808,-326.2549 451.7192,-371.7451 481,-331 505.2507,-297.2544 522.5556,-237.5 481,-237.5"/>
<polygon fill="#000000" stroke="#000000" points="364.017,-576.9178 373.738,-581.9924 369.0085,-577.2089 374,-577.5 374,-577.5 374,-577.5 369.0085,-577.2089 374.262,-573.0076 364.017,-576.9178 364.017,-576.9178"/>
<text text-anchor="start" x="6.699" y="-587.5" font-family="Arial" font-size="10.00" fill="#000000">FOREIGN KEY (water_fetch_setting_id) REFERENCES water_fetch_settings (id)</text>
</g>
<!-- fetch_status_types -->
<g id="node3" class="node">
<title>fetch_status_types</title>
<polygon fill="#efefef" stroke="transparent" points="586,-207.5 586,-242.5 877,-242.5 877,-207.5 586,-207.5"/>
<polygon fill="none" stroke="#000000" points="586,-207.5 586,-242.5 877,-242.5 877,-207.5 586,-207.5"/>
<text text-anchor="start" x="592.6857" y="-220.3" font-family="Arial Bold" font-size="18.00" fill="#000000">fetch_status_types</text>
<text text-anchor="start" x="742.7463" y="-220.3" font-family="Arial" font-size="14.00" fill="#000000">    </text>
<text text-anchor="start" x="776.9511" y="-220.3" font-family="Arial" font-size="14.00" fill="#666666">[BASE TABLE]</text>
<polygon fill="none" stroke="#000000" points="586,-177.5 586,-207.5 877,-207.5 877,-177.5 586,-177.5"/>
<text text-anchor="start" x="593" y="-188.9" font-family="Arial" font-size="14.00" fill="#000000">id    </text>
<text text-anchor="start" x="638.094" y="-188.9" font-family="Arial" font-size="14.00" fill="#666666">[tinyint(3) unsigned]</text>
<polygon fill="none" stroke="#000000" points="586,-147.5 586,-177.5 877,-177.5 877,-147.5 586,-147.5"/>
<text text-anchor="start" x="593" y="-158.9" font-family="Arial" font-size="14.00" fill="#000000">type_name    </text>
<text text-anchor="start" x="696.4516" y="-158.9" font-family="Arial" font-size="14.00" fill="#666666">[varchar(255)]</text>
<polygon fill="none" stroke="#000000" points="586,-117.5 586,-147.5 877,-147.5 877,-117.5 586,-117.5"/>
<text text-anchor="start" x="593" y="-128.9" font-family="Arial" font-size="14.00" fill="#000000">created_at    </text>
<text text-anchor="start" x="693.3422" y="-128.9" font-family="Arial" font-size="14.00" fill="#666666">[datetime]</text>
<polygon fill="none" stroke="#000000" points="586,-87.5 586,-117.5 877,-117.5 877,-87.5 586,-87.5"/>
<text text-anchor="start" x="593" y="-98.9" font-family="Arial" font-size="14.00" fill="#000000">updated_at    </text>
<text text-anchor="start" x="697.2468" y="-98.9" font-family="Arial" font-size="14.00" fill="#666666">[datetime]</text>
</g>
<!-- water_fetch_statuses&#45;&gt;fetch_status_types -->
<g id="edge2" class="edge">
<title>water_fetch_statuses:status_type_id&#45;&gt;fetch_status_types:id</title>
<path fill="none" stroke="#000000" d="M695.0603,-546.8592C761.1244,-537.868 717.8104,-436.2378 685,-367 660.6548,-315.6258 610.3452,-337.3742 586,-286 568.2047,-248.4475 544.4444,-192.5 586,-192.5"/>
<polygon fill="#000000" stroke="#000000" points="694.9798,-546.8642 684.7139,-543.0091 689.9899,-547.1821 685,-547.5 685,-547.5 685,-547.5 689.9899,-547.1821 685.2861,-551.9909 694.9798,-546.8642 694.9798,-546.8642"/>
<text text-anchor="start" x="691.6425" y="-557.5" font-family="Arial" font-size="10.00" fill="#000000">FOREIGN KEY (status_type_id) REFERENCES fetch_status_types (id)</text>
</g>
</g>
</svg>
