<?xml version="1.0" encoding="UTF-8" standalone="no"?>
<!DOCTYPE svg PUBLIC "-//W3C//DTD SVG 1.1//EN"
 "http://www.w3.org/Graphics/SVG/1.1/DTD/svg11.dtd">
<!-- Generated by graphviz version 2.40.1 (20161225.0304)
 -->
<!-- Title: water_monthly_usages Pages: 1 -->
<svg width="754pt" height="772pt"
 viewBox="0.00 0.00 754.00 772.00" xmlns="http://www.w3.org/2000/svg" xmlns:xlink="http://www.w3.org/1999/xlink">
<g id="graph0" class="graph" transform="scale(1 1) rotate(0) translate(4 768)">
<title>water_monthly_usages</title>
<polygon fill="#ffffff" stroke="transparent" points="-4,4 -4,-768 750,-768 750,4 -4,4"/>
<!-- water_monthly_usages -->
<g id="node1" class="node">
<title>water_monthly_usages</title>
<polygon fill="#efefef" stroke="transparent" points="46,-682.5 46,-717.5 372,-717.5 372,-682.5 46,-682.5"/>
<polygon fill="none" stroke="#000000" points="46,-682.5 46,-717.5 372,-717.5 372,-682.5 46,-682.5"/>
<text text-anchor="start" x="52.6933" y="-695.3" font-family="Arial Bold" font-size="18.00" fill="#000000">water_monthly_usages</text>
<text text-anchor="start" x="237.7387" y="-695.3" font-family="Arial" font-size="14.00" fill="#000000">    </text>
<text text-anchor="start" x="271.9435" y="-695.3" font-family="Arial" font-size="14.00" fill="#666666">[BASE TABLE]</text>
<polygon fill="none" stroke="#000000" points="46,-652.5 46,-682.5 372,-682.5 372,-652.5 46,-652.5"/>
<text text-anchor="start" x="53" y="-663.9" font-family="Arial" font-size="14.00" fill="#000000">water_fetch_setting_id </text>
<text text-anchor="start" x="196.9326" y="-663.9" font-family="Arial" font-size="14.00" fill="#666666">[bigint(20) unsigned]</text>
<polygon fill="none" stroke="#000000" points="46,-622.5 46,-652.5 372,-652.5 372,-622.5 46,-622.5"/>
<text text-anchor="start" x="53" y="-633.9" font-family="Arial" font-size="14.00" fill="#000000">usage_year </text>
<text text-anchor="start" x="130.0294" y="-633.9" font-family="Arial" font-size="14.00" fill="#666666">[int(10) unsigned]</text>
<polygon fill="none" stroke="#000000" points="46,-592.5 46,-622.5 372,-622.5 372,-592.5 46,-592.5"/>
<text text-anchor="start" x="53" y="-603.9" font-family="Arial" font-size="14.00" fill="#000000">usage_month </text>
<text text-anchor="start" x="141.7026" y="-603.9" font-family="Arial" font-size="14.00" fill="#666666">[int(10) unsigned]</text>
<polygon fill="none" stroke="#000000" points="46,-562.5 46,-592.5 372,-592.5 372,-562.5 46,-562.5"/>
<text text-anchor="start" x="53" y="-573.9" font-family="Arial" font-size="14.00" fill="#000000">usage_begin_at </text>
<text text-anchor="start" x="156.4964" y="-573.9" font-family="Arial" font-size="14.00" fill="#666666">[date]</text>
<polygon fill="none" stroke="#000000" points="46,-532.5 46,-562.5 372,-562.5 372,-532.5 46,-532.5"/>
<text text-anchor="start" x="53" y="-543.9" font-family="Arial" font-size="14.00" fill="#000000">usage_end_at </text>
<text text-anchor="start" x="145.6072" y="-543.9" font-family="Arial" font-size="14.00" fill="#666666">[date]</text>
<polygon fill="none" stroke="#000000" points="46,-502.5 46,-532.5 372,-532.5 372,-502.5 46,-502.5"/>
<text text-anchor="start" x="53" y="-513.9" font-family="Arial" font-size="14.00" fill="#000000">usage_amount </text>
<text text-anchor="start" x="149.4852" y="-513.9" font-family="Arial" font-size="14.00" fill="#666666">[decimal(15,5) unsigned]</text>
<polygon fill="none" stroke="#000000" points="46,-472.5 46,-502.5 372,-502.5 372,-472.5 46,-472.5"/>
<text text-anchor="start" x="53" y="-483.9" font-family="Arial" font-size="14.00" fill="#000000">usage_yen </text>
<text text-anchor="start" x="125.3688" y="-483.9" font-family="Arial" font-size="14.00" fill="#666666">[int(10) unsigned]</text>
<polygon fill="none" stroke="#000000" points="46,-442.5 46,-472.5 372,-472.5 372,-442.5 46,-442.5"/>
<text text-anchor="start" x="53" y="-453.9" font-family="Arial" font-size="14.00" fill="#000000">created_at </text>
<text text-anchor="start" x="123.028" y="-453.9" font-family="Arial" font-size="14.00" fill="#666666">[datetime]</text>
<polygon fill="none" stroke="#000000" points="46,-412.5 46,-442.5 372,-442.5 372,-412.5 46,-412.5"/>
<text text-anchor="start" x="53" y="-423.9" font-family="Arial" font-size="14.00" fill="#000000">updated_at </text>
<text text-anchor="start" x="126.9326" y="-423.9" font-family="Arial" font-size="14.00" fill="#666666">[datetime]</text>
<polygon fill="none" stroke="#000000" stroke-width="3" points="44.5,-411.5 44.5,-719.5 373.5,-719.5 373.5,-411.5 44.5,-411.5"/>
</g>
<!-- water_fetch_settings -->
<g id="node2" class="node">
<title>water_fetch_settings</title>
<polygon fill="#efefef" stroke="transparent" points="56,-252.5 56,-287.5 362,-287.5 362,-252.5 56,-252.5"/>
<polygon fill="none" stroke="#000000" points="56,-252.5 56,-287.5 362,-287.5 362,-252.5 56,-252.5"/>
<text text-anchor="start" x="62.6923" y="-265.3" font-family="Arial Bold" font-size="18.00" fill="#000000">water_fetch_settings</text>
<text text-anchor="start" x="227.7397" y="-265.3" font-family="Arial" font-size="14.00" fill="#000000">    </text>
<text text-anchor="start" x="261.9445" y="-265.3" font-family="Arial" font-size="14.00" fill="#666666">[BASE TABLE]</text>
<polygon fill="none" stroke="#000000" points="56,-222.5 56,-252.5 362,-252.5 362,-222.5 56,-222.5"/>
<text text-anchor="start" x="63" y="-233.9" font-family="Arial" font-size="14.00" fill="#000000">id    </text>
<text text-anchor="start" x="108.094" y="-233.9" font-family="Arial" font-size="14.00" fill="#666666">[bigint(20) unsigned]</text>
<polygon fill="none" stroke="#000000" points="56,-192.5 56,-222.5 362,-222.5 362,-192.5 56,-192.5"/>
<text text-anchor="start" x="63" y="-203.9" font-family="Arial" font-size="14.00" fill="#000000">water_site_id    </text>
<text text-anchor="start" x="179.662" y="-203.9" font-family="Arial" font-size="14.00" fill="#666666">[bigint(20) unsigned]</text>
<polygon fill="none" stroke="#000000" points="56,-162.5 56,-192.5 362,-192.5 362,-162.5 56,-162.5"/>
<text text-anchor="start" x="63" y="-173.9" font-family="Arial" font-size="14.00" fill="#000000">user_name    </text>
<text text-anchor="start" x="167.2216" y="-173.9" font-family="Arial" font-size="14.00" fill="#666666">[varchar(255)]</text>
<polygon fill="none" stroke="#000000" points="56,-132.5 56,-162.5 362,-162.5 362,-132.5 56,-132.5"/>
<text text-anchor="start" x="63" y="-143.9" font-family="Arial" font-size="14.00" fill="#000000">encrypted_password    </text>
<text text-anchor="start" x="226.3492" y="-143.9" font-family="Arial" font-size="14.00" fill="#666666">[varchar(512)]</text>
<polygon fill="none" stroke="#000000" points="56,-102.5 56,-132.5 362,-132.5 362,-102.5 56,-102.5"/>
<text text-anchor="start" x="63" y="-113.9" font-family="Arial" font-size="14.00" fill="#000000">fetch_enable    </text>
<text text-anchor="start" x="177.3534" y="-113.9" font-family="Arial" font-size="14.00" fill="#666666">[tinyint(1)]</text>
<polygon fill="none" stroke="#000000" points="56,-72.5 56,-102.5 362,-102.5 362,-72.5 56,-72.5"/>
<text text-anchor="start" x="63" y="-83.9" font-family="Arial" font-size="14.00" fill="#000000">created_at    </text>
<text text-anchor="start" x="163.3422" y="-83.9" font-family="Arial" font-size="14.00" fill="#666666">[datetime]</text>
<polygon fill="none" stroke="#000000" points="56,-42.5 56,-72.5 362,-72.5 362,-42.5 56,-42.5"/>
<text text-anchor="start" x="63" y="-53.9" font-family="Arial" font-size="14.00" fill="#000000">updated_at    </text>
<text text-anchor="start" x="167.2468" y="-53.9" font-family="Arial" font-size="14.00" fill="#666666">[datetime]</text>
</g>
<!-- water_monthly_usages&#45;&gt;water_fetch_settings -->
<g id="edge1" class="edge">
<title>water_monthly_usages:water_fetch_setting_id&#45;&gt;water_fetch_settings:id</title>
<path fill="none" stroke="#000000" d="M381.9483,-665.8564C466.747,-636.9872 454.1278,-237.5 362,-237.5"/>
<polygon fill="#000000" stroke="#000000" points="381.8662,-665.8698 371.2664,-663.0602 376.9331,-666.6849 372,-667.5 372,-667.5 372,-667.5 376.9331,-666.6849 372.7336,-671.9398 381.8662,-665.8698 381.8662,-665.8698"/>
<text text-anchor="start" x="378.699" y="-677.5" font-family="Arial" font-size="10.00" fill="#000000">FOREIGN KEY (water_fetch_setting_id) REFERENCES water_fetch_settings (id)</text>
</g>
</g>
</svg>
