<?xml version="1.0" encoding="UTF-8" standalone="no"?>
<!DOCTYPE svg PUBLIC "-//W3C//DTD SVG 1.1//EN"
 "http://www.w3.org/Graphics/SVG/1.1/DTD/svg11.dtd">
<!-- Generated by graphviz version 12.1.2 (20240928.0832)
 -->
<!-- Title: water_fetch_statuses Pages: 1 -->
<svg width="1004pt" height="756pt"
 viewBox="0.00 0.00 1003.90 756.00" xmlns="http://www.w3.org/2000/svg" xmlns:xlink="http://www.w3.org/1999/xlink">
<g id="graph0" class="graph" transform="scale(1 1) rotate(0) translate(4 752)">
<title>water_fetch_statuses</title>
<polygon fill="white" stroke="none" points="-4,4 -4,-752 999.9,-752 999.9,4 -4,4"/>
<!-- water_fetch_statuses -->
<g id="node1" class="node">
<title>water_fetch_statuses</title>
<polygon fill="#efefef" stroke="none" points="375.69,-666.2 375.69,-701.8 664.12,-701.8 664.12,-666.2 375.69,-666.2"/>
<polygon fill="none" stroke="black" points="375.69,-666.2 375.69,-701.8 664.12,-701.8 664.12,-666.2 375.69,-666.2"/>
<text text-anchor="start" x="382.69" y="-679.6" font-family="Arial Bold" font-size="18.00">water_fetch_statuses</text>
<text text-anchor="start" x="532.63" y="-679.6" font-family="Arial" font-size="14.00">    </text>
<text text-anchor="start" x="563.75" y="-679.6" font-family="Arial" font-size="14.00" fill="#666666">[BASE TABLE]</text>
<polygon fill="none" stroke="black" points="375.69,-635.4 375.69,-666.2 664.12,-666.2 664.12,-635.4 375.69,-635.4"/>
<text text-anchor="start" x="382.69" y="-647.6" font-family="Arial" font-size="14.00">id </text>
<text text-anchor="start" x="397.47" y="-647.6" font-family="Arial" font-size="14.00" fill="#666666">[bigint(20) unsigned]</text>
<polygon fill="none" stroke="black" points="375.69,-604.6 375.69,-635.4 664.12,-635.4 664.12,-604.6 375.69,-604.6"/>
<text text-anchor="start" x="382.69" y="-616.8" font-family="Arial" font-size="14.00">water_fetch_setting_id </text>
<text text-anchor="start" x="526.67" y="-616.8" font-family="Arial" font-size="14.00" fill="#666666">[bigint(20) unsigned]</text>
<polygon fill="none" stroke="black" points="375.69,-573.8 375.69,-604.6 664.12,-604.6 664.12,-573.8 375.69,-573.8"/>
<text text-anchor="start" x="382.69" y="-586" font-family="Arial" font-size="14.00">status_type_id </text>
<text text-anchor="start" x="476.86" y="-586" font-family="Arial" font-size="14.00" fill="#666666">[tinyint(3) unsigned]</text>
<polygon fill="none" stroke="black" points="375.69,-543 375.69,-573.8 664.12,-573.8 664.12,-543 375.69,-543"/>
<text text-anchor="start" x="382.69" y="-555.2" font-family="Arial" font-size="14.00">last_successful_at </text>
<text text-anchor="start" x="500.97" y="-555.2" font-family="Arial" font-size="14.00" fill="#666666">[datetime]</text>
<polygon fill="none" stroke="black" points="375.69,-512.2 375.69,-543 664.12,-543 664.12,-512.2 375.69,-512.2"/>
<text text-anchor="start" x="382.69" y="-524.4" font-family="Arial" font-size="14.00">last_failure_at </text>
<text text-anchor="start" x="473.74" y="-524.4" font-family="Arial" font-size="14.00" fill="#666666">[datetime]</text>
<polygon fill="none" stroke="black" points="375.69,-481.4 375.69,-512.2 664.12,-512.2 664.12,-481.4 375.69,-481.4"/>
<text text-anchor="start" x="382.69" y="-493.6" font-family="Arial" font-size="14.00">created_at </text>
<text text-anchor="start" x="452.74" y="-493.6" font-family="Arial" font-size="14.00" fill="#666666">[datetime]</text>
<polygon fill="none" stroke="black" points="375.69,-450.6 375.69,-481.4 664.12,-481.4 664.12,-450.6 375.69,-450.6"/>
<text text-anchor="start" x="382.69" y="-462.8" font-family="Arial" font-size="14.00">updated_at </text>
<text text-anchor="start" x="456.65" y="-462.8" font-family="Arial" font-size="14.00" fill="#666666">[datetime]</text>
<polygon fill="none" stroke="black" stroke-width="3" points="374.19,-449.1 374.19,-703.3 665.62,-703.3 665.62,-449.1 374.19,-449.1"/>
</g>
<!-- water_fetch_settings -->
<g id="node2" class="node">
<title>water_fetch_settings</title>
<polygon fill="#efefef" stroke="none" points="184.19,-289.6 184.19,-325.2 471.62,-325.2 471.62,-289.6 184.19,-289.6"/>
<polygon fill="none" stroke="black" points="184.19,-289.6 184.19,-325.2 471.62,-325.2 471.62,-289.6 184.19,-289.6"/>
<text text-anchor="start" x="191.19" y="-303" font-family="Arial Bold" font-size="18.00">water_fetch_settings</text>
<text text-anchor="start" x="340.13" y="-303" font-family="Arial" font-size="14.00">    </text>
<text text-anchor="start" x="371.25" y="-303" font-family="Arial" font-size="14.00" fill="#666666">[BASE TABLE]</text>
<polygon fill="none" stroke="black" points="184.19,-258.8 184.19,-289.6 471.62,-289.6 471.62,-258.8 184.19,-258.8"/>
<text text-anchor="start" x="191.19" y="-271" font-family="Arial" font-size="14.00">id </text>
<text text-anchor="start" x="205.97" y="-271" font-family="Arial" font-size="14.00" fill="#666666">[bigint(20) unsigned]</text>
<polygon fill="none" stroke="black" points="184.19,-228 184.19,-258.8 471.62,-258.8 471.62,-228 184.19,-228"/>
<text text-anchor="start" x="191.19" y="-240.2" font-family="Arial" font-size="14.00">setting_name </text>
<text text-anchor="start" x="279.13" y="-240.2" font-family="Arial" font-size="14.00" fill="#666666">[varchar(255)]</text>
<polygon fill="none" stroke="black" points="184.19,-197.2 184.19,-228 471.62,-228 471.62,-197.2 184.19,-197.2"/>
<text text-anchor="start" x="191.19" y="-209.4" font-family="Arial" font-size="14.00">water_site_id </text>
<text text-anchor="start" x="277.56" y="-209.4" font-family="Arial" font-size="14.00" fill="#666666">[bigint(20) unsigned]</text>
<polygon fill="none" stroke="black" points="184.19,-166.4 184.19,-197.2 471.62,-197.2 471.62,-166.4 184.19,-166.4"/>
<text text-anchor="start" x="191.19" y="-178.6" font-family="Arial" font-size="14.00">user_name </text>
<text text-anchor="start" x="265.12" y="-178.6" font-family="Arial" font-size="14.00" fill="#666666">[varchar(255)]</text>
<polygon fill="none" stroke="black" points="184.19,-135.6 184.19,-166.4 471.62,-166.4 471.62,-135.6 184.19,-135.6"/>
<text text-anchor="start" x="191.19" y="-147.8" font-family="Arial" font-size="14.00">encrypted_password </text>
<text text-anchor="start" x="324.26" y="-147.8" font-family="Arial" font-size="14.00" fill="#666666">[varchar(512)]</text>
<polygon fill="none" stroke="black" points="184.19,-104.8 184.19,-135.6 471.62,-135.6 471.62,-104.8 184.19,-104.8"/>
<text text-anchor="start" x="191.19" y="-117" font-family="Arial" font-size="14.00">fetch_enable </text>
<text text-anchor="start" x="275.25" y="-117" font-family="Arial" font-size="14.00" fill="#666666">[tinyint(1)]</text>
<polygon fill="none" stroke="black" points="184.19,-74 184.19,-104.8 471.62,-104.8 471.62,-74 184.19,-74"/>
<text text-anchor="start" x="191.19" y="-86.2" font-family="Arial" font-size="14.00">created_at </text>
<text text-anchor="start" x="261.23" y="-86.2" font-family="Arial" font-size="14.00" fill="#666666">[datetime]</text>
<polygon fill="none" stroke="black" points="184.19,-43.2 184.19,-74 471.62,-74 471.62,-43.2 184.19,-43.2"/>
<text text-anchor="start" x="191.19" y="-55.4" font-family="Arial" font-size="14.00">updated_at </text>
<text text-anchor="start" x="265.14" y="-55.4" font-family="Arial" font-size="14.00" fill="#666666">[datetime]</text>
</g>
<!-- water_fetch_statuses&#45;&gt;water_fetch_settings -->
<g id="edge1" class="edge">
<title>water_fetch_statuses:water_fetch_setting_id&#45;&gt;water_fetch_settings:id</title>
<path fill="none" stroke="black" d="M364.33,-619.41C282.09,-609.65 323.02,-480.04 375.69,-404.4 401.71,-367.03 445.49,-405.7 471.62,-368.4 495.65,-334.11 514.49,-274.2 472.62,-274.2"/>
<polygon fill="black" stroke="black" points="364.37,-619.42 374.1,-624.47 369.7,-619.72 374.02,-619.96 374.02,-619.96 374.02,-619.96 369.7,-619.72 374.61,-615.49 364.37,-619.42"/>
<text text-anchor="start" x="7" y="-630" font-family="Arial" font-size="10.00">FOREIGN KEY (water_fetch_setting_id) REFERENCES water_fetch_settings (id)</text>
</g>
<!-- fetch_status_types -->
<g id="node3" class="node">
<title>fetch_status_types</title>
<polygon fill="#efefef" stroke="none" points="576.17,-228 576.17,-263.6 847.63,-263.6 847.63,-228 576.17,-228"/>
<polygon fill="none" stroke="black" points="576.17,-228 576.17,-263.6 847.63,-263.6 847.63,-228 576.17,-228"/>
<text text-anchor="start" x="583.17" y="-241.4" font-family="Arial Bold" font-size="18.00">fetch_status_types</text>
<text text-anchor="start" x="716.14" y="-241.4" font-family="Arial" font-size="14.00">    </text>
<text text-anchor="start" x="747.26" y="-241.4" font-family="Arial" font-size="14.00" fill="#666666">[BASE TABLE]</text>
<polygon fill="none" stroke="black" points="576.17,-197.2 576.17,-228 847.63,-228 847.63,-197.2 576.17,-197.2"/>
<text text-anchor="start" x="583.17" y="-209.4" font-family="Arial" font-size="14.00">id </text>
<text text-anchor="start" x="597.96" y="-209.4" font-family="Arial" font-size="14.00" fill="#666666">[tinyint(3) unsigned]</text>
<polygon fill="none" stroke="black" points="576.17,-166.4 576.17,-197.2 847.63,-197.2 847.63,-166.4 576.17,-166.4"/>
<text text-anchor="start" x="583.17" y="-178.6" font-family="Arial" font-size="14.00">type_name </text>
<text text-anchor="start" x="656.33" y="-178.6" font-family="Arial" font-size="14.00" fill="#666666">[varchar(255)]</text>
<polygon fill="none" stroke="black" points="576.17,-135.6 576.17,-166.4 847.63,-166.4 847.63,-135.6 576.17,-135.6"/>
<text text-anchor="start" x="583.17" y="-147.8" font-family="Arial" font-size="14.00">created_at </text>
<text text-anchor="start" x="653.22" y="-147.8" font-family="Arial" font-size="14.00" fill="#666666">[datetime]</text>
<polygon fill="none" stroke="black" points="576.17,-104.8 576.17,-135.6 847.63,-135.6 847.63,-104.8 576.17,-104.8"/>
<text text-anchor="start" x="583.17" y="-117" font-family="Arial" font-size="14.00">updated_at </text>
<text text-anchor="start" x="657.13" y="-117" font-family="Arial" font-size="14.00" fill="#666666">[datetime]</text>
</g>
<!-- water_fetch_statuses&#45;&gt;fetch_status_types -->
<g id="edge2" class="edge">
<title>water_fetch_statuses:status_type_id&#45;&gt;fetch_status_types:id</title>
<path fill="none" stroke="black" d="M675.24,-589.06C910.7,-582.22 586,-331.98 576.17,-306.8 560.96,-267.79 533.31,-212.6 575.17,-212.6"/>
<polygon fill="black" stroke="black" points="675.45,-589.05 665.39,-584.7 670.12,-589.13 665.79,-589.19 665.79,-589.19 665.79,-589.19 670.12,-589.13 665.52,-593.69 675.45,-589.05"/>
<text text-anchor="start" x="672.12" y="-599.2" font-family="Arial" font-size="10.00">FOREIGN KEY (status_type_id) REFERENCES fetch_status_types (id)</text>
</g>
</g>
</svg>
