<?xml version="1.0" encoding="UTF-8" standalone="no"?>
<!DOCTYPE svg PUBLIC "-//W3C//DTD SVG 1.1//EN"
 "http://www.w3.org/Graphics/SVG/1.1/DTD/svg11.dtd">
<!-- Generated by graphviz version 2.40.1 (20161225.0304)
 -->
<!-- Title: water_fetch_statuses Pages: 1 -->
<svg width="1023pt" height="742pt"
 viewBox="0.00 0.00 1023.00 742.00" xmlns="http://www.w3.org/2000/svg" xmlns:xlink="http://www.w3.org/1999/xlink">
<g id="graph0" class="graph" transform="scale(1 1) rotate(0) translate(4 738)">
<title>water_fetch_statuses</title>
<polygon fill="#ffffff" stroke="transparent" points="-4,4 -4,-738 1019,-738 1019,4 -4,4"/>
<!-- water_fetch_statuses -->
<g id="node1" class="node">
<title>water_fetch_statuses</title>
<polygon fill="#efefef" stroke="transparent" points="374,-652.5 374,-687.5 685,-687.5 685,-652.5 374,-652.5"/>
<polygon fill="none" stroke="#000000" points="374,-652.5 374,-687.5 685,-687.5 685,-652.5 374,-652.5"/>
<text text-anchor="start" x="380.6894" y="-665.3" font-family="Arial Bold" font-size="18.00" fill="#000000">water_fetch_statuses</text>
<text text-anchor="start" x="550.7426" y="-665.3" font-family="Arial" font-size="14.00" fill="#000000">    </text>
<text text-anchor="start" x="584.9474" y="-665.3" font-family="Arial" font-size="14.00" fill="#666666">[BASE TABLE]</text>
<polygon fill="none" stroke="#000000" points="374,-622.5 374,-652.5 685,-652.5 685,-622.5 374,-622.5"/>
<text text-anchor="start" x="381" y="-633.9" font-family="Arial" font-size="14.00" fill="#000000">id </text>
<text text-anchor="start" x="395.7798" y="-633.9" font-family="Arial" font-size="14.00" fill="#666666">[bigint(20) unsigned]</text>
<polygon fill="none" stroke="#000000" points="374,-592.5 374,-622.5 685,-622.5 685,-592.5 374,-592.5"/>
<text text-anchor="start" x="381" y="-603.9" font-family="Arial" font-size="14.00" fill="#000000">water_fetch_setting_id </text>
<text text-anchor="start" x="524.9326" y="-603.9" font-family="Arial" font-size="14.00" fill="#666666">[bigint(20) unsigned]</text>
<polygon fill="none" stroke="#000000" points="374,-562.5 374,-592.5 685,-592.5 685,-562.5 374,-562.5"/>
<text text-anchor="start" x="381" y="-573.9" font-family="Arial" font-size="14.00" fill="#000000">status_type_id </text>
<text text-anchor="start" x="475.1472" y="-573.9" font-family="Arial" font-size="14.00" fill="#666666">[tinyint(3) unsigned]</text>
<polygon fill="none" stroke="#000000" points="374,-532.5 374,-562.5 685,-562.5 685,-532.5 374,-532.5"/>
<text text-anchor="start" x="381" y="-543.9" font-family="Arial" font-size="14.00" fill="#000000">last_successful_at </text>
<text text-anchor="start" x="499.2538" y="-543.9" font-family="Arial" font-size="14.00" fill="#666666">[datetime]</text>
<polygon fill="none" stroke="#000000" points="374,-502.5 374,-532.5 685,-532.5 685,-502.5 374,-502.5"/>
<text text-anchor="start" x="381" y="-513.9" font-family="Arial" font-size="14.00" fill="#000000">last_failure_at </text>
<text text-anchor="start" x="472.021" y="-513.9" font-family="Arial" font-size="14.00" fill="#666666">[datetime]</text>
<polygon fill="none" stroke="#000000" points="374,-472.5 374,-502.5 685,-502.5 685,-472.5 374,-472.5"/>
<text text-anchor="start" x="381" y="-483.9" font-family="Arial" font-size="14.00" fill="#000000">created_at </text>
<text text-anchor="start" x="451.028" y="-483.9" font-family="Arial" font-size="14.00" fill="#666666">[datetime]</text>
<polygon fill="none" stroke="#000000" points="374,-442.5 374,-472.5 685,-472.5 685,-442.5 374,-442.5"/>
<text text-anchor="start" x="381" y="-453.9" font-family="Arial" font-size="14.00" fill="#000000">updated_at </text>
<text text-anchor="start" x="454.9326" y="-453.9" font-family="Arial" font-size="14.00" fill="#666666">[datetime]</text>
<polygon fill="none" stroke="#000000" stroke-width="3" points="372,-441.5 372,-689.5 686,-689.5 686,-441.5 372,-441.5"/>
</g>
<!-- water_fetch_settings -->
<g id="node2" class="node">
<title>water_fetch_settings</title>
<polygon fill="#efefef" stroke="transparent" points="175,-282.5 175,-317.5 481,-317.5 481,-282.5 175,-282.5"/>
<polygon fill="none" stroke="#000000" points="175,-282.5 175,-317.5 481,-317.5 481,-282.5 175,-282.5"/>
<text text-anchor="start" x="181.6923" y="-295.3" font-family="Arial Bold" font-size="18.00" fill="#000000">water_fetch_settings</text>
<text text-anchor="start" x="346.7397" y="-295.3" font-family="Arial" font-size="14.00" fill="#000000">    </text>
<text text-anchor="start" x="380.9445" y="-295.3" font-family="Arial" font-size="14.00" fill="#666666">[BASE TABLE]</text>
<polygon fill="none" stroke="#000000" points="175,-252.5 175,-282.5 481,-282.5 481,-252.5 175,-252.5"/>
<text text-anchor="start" x="182" y="-263.9" font-family="Arial" font-size="14.00" fill="#000000">id    </text>
<text text-anchor="start" x="227.094" y="-263.9" font-family="Arial" font-size="14.00" fill="#666666">[bigint(20) unsigned]</text>
<polygon fill="none" stroke="#000000" points="175,-222.5 175,-252.5 481,-252.5 481,-222.5 175,-222.5"/>
<text text-anchor="start" x="182" y="-233.9" font-family="Arial" font-size="14.00" fill="#000000">setting_name    </text>
<text text-anchor="start" x="300.2314" y="-233.9" font-family="Arial" font-size="14.00" fill="#666666">[varchar(255)]</text>
<polygon fill="none" stroke="#000000" points="175,-192.5 175,-222.5 481,-222.5 481,-192.5 175,-192.5"/>
<text text-anchor="start" x="182" y="-203.9" font-family="Arial" font-size="14.00" fill="#000000">water_site_id    </text>
<text text-anchor="start" x="298.662" y="-203.9" font-family="Arial" font-size="14.00" fill="#666666">[bigint(20) unsigned]</text>
<polygon fill="none" stroke="#000000" points="175,-162.5 175,-192.5 481,-192.5 481,-162.5 175,-162.5"/>
<text text-anchor="start" x="182" y="-173.9" font-family="Arial" font-size="14.00" fill="#000000">user_name    </text>
<text text-anchor="start" x="286.2216" y="-173.9" font-family="Arial" font-size="14.00" fill="#666666">[varchar(255)]</text>
<polygon fill="none" stroke="#000000" points="175,-132.5 175,-162.5 481,-162.5 481,-132.5 175,-132.5"/>
<text text-anchor="start" x="182" y="-143.9" font-family="Arial" font-size="14.00" fill="#000000">encrypted_password    </text>
<text text-anchor="start" x="345.3492" y="-143.9" font-family="Arial" font-size="14.00" fill="#666666">[varchar(512)]</text>
<polygon fill="none" stroke="#000000" points="175,-102.5 175,-132.5 481,-132.5 481,-102.5 175,-102.5"/>
<text text-anchor="start" x="182" y="-113.9" font-family="Arial" font-size="14.00" fill="#000000">fetch_enable    </text>
<text text-anchor="start" x="296.3534" y="-113.9" font-family="Arial" font-size="14.00" fill="#666666">[tinyint(1)]</text>
<polygon fill="none" stroke="#000000" points="175,-72.5 175,-102.5 481,-102.5 481,-72.5 175,-72.5"/>
<text text-anchor="start" x="182" y="-83.9" font-family="Arial" font-size="14.00" fill="#000000">created_at    </text>
<text text-anchor="start" x="282.3422" y="-83.9" font-family="Arial" font-size="14.00" fill="#666666">[datetime]</text>
<polygon fill="none" stroke="#000000" points="175,-42.5 175,-72.5 481,-72.5 481,-42.5 175,-42.5"/>
<text text-anchor="start" x="182" y="-53.9" font-family="Arial" font-size="14.00" fill="#000000">updated_at    </text>
<text text-anchor="start" x="286.2468" y="-53.9" font-family="Arial" font-size="14.00" fill="#666666">[datetime]</text>
</g>
<!-- water_fetch_statuses&#45;&gt;water_fetch_settings -->
<g id="edge1" class="edge">
<title>water_fetch_statuses:water_fetch_setting_id&#45;&gt;water_fetch_settings:id</title>
<path fill="none" stroke="#000000" d="M363.6361,-606.8957C283.512,-597.0794 321.5361,-470.0051 374,-397 403.2808,-356.2549 451.7192,-401.7451 481,-361 505.2507,-327.2544 522.5556,-267.5 481,-267.5"/>
<polygon fill="#000000" stroke="#000000" points="364.017,-606.9178 373.738,-611.9924 369.0085,-607.2089 374,-607.5 374,-607.5 374,-607.5 369.0085,-607.2089 374.262,-603.0076 364.017,-606.9178 364.017,-606.9178"/>
<text text-anchor="start" x="6.699" y="-617.5" font-family="Arial" font-size="10.00" fill="#000000">FOREIGN KEY (water_fetch_setting_id) REFERENCES water_fetch_settings (id)</text>
</g>
<!-- fetch_status_types -->
<g id="node3" class="node">
<title>fetch_status_types</title>
<polygon fill="#efefef" stroke="transparent" points="586,-222.5 586,-257.5 877,-257.5 877,-222.5 586,-222.5"/>
<polygon fill="none" stroke="#000000" points="586,-222.5 586,-257.5 877,-257.5 877,-222.5 586,-222.5"/>
<text text-anchor="start" x="592.6857" y="-235.3" font-family="Arial Bold" font-size="18.00" fill="#000000">fetch_status_types</text>
<text text-anchor="start" x="742.7463" y="-235.3" font-family="Arial" font-size="14.00" fill="#000000">    </text>
<text text-anchor="start" x="776.9511" y="-235.3" font-family="Arial" font-size="14.00" fill="#666666">[BASE TABLE]</text>
<polygon fill="none" stroke="#000000" points="586,-192.5 586,-222.5 877,-222.5 877,-192.5 586,-192.5"/>
<text text-anchor="start" x="593" y="-203.9" font-family="Arial" font-size="14.00" fill="#000000">id    </text>
<text text-anchor="start" x="638.094" y="-203.9" font-family="Arial" font-size="14.00" fill="#666666">[tinyint(3) unsigned]</text>
<polygon fill="none" stroke="#000000" points="586,-162.5 586,-192.5 877,-192.5 877,-162.5 586,-162.5"/>
<text text-anchor="start" x="593" y="-173.9" font-family="Arial" font-size="14.00" fill="#000000">type_name    </text>
<text text-anchor="start" x="696.4516" y="-173.9" font-family="Arial" font-size="14.00" fill="#666666">[varchar(255)]</text>
<polygon fill="none" stroke="#000000" points="586,-132.5 586,-162.5 877,-162.5 877,-132.5 586,-132.5"/>
<text text-anchor="start" x="593" y="-143.9" font-family="Arial" font-size="14.00" fill="#000000">created_at    </text>
<text text-anchor="start" x="693.3422" y="-143.9" font-family="Arial" font-size="14.00" fill="#666666">[datetime]</text>
<polygon fill="none" stroke="#000000" points="586,-102.5 586,-132.5 877,-132.5 877,-102.5 586,-102.5"/>
<text text-anchor="start" x="593" y="-113.9" font-family="Arial" font-size="14.00" fill="#000000">updated_at    </text>
<text text-anchor="start" x="697.2468" y="-113.9" font-family="Arial" font-size="14.00" fill="#666666">[datetime]</text>
</g>
<!-- water_fetch_statuses&#45;&gt;fetch_status_types -->
<g id="edge2" class="edge">
<title>water_fetch_statuses:status_type_id&#45;&gt;fetch_status_types:id</title>
<path fill="none" stroke="#000000" d="M695.0425,-576.8671C760.8598,-567.9867 714.8642,-467.5586 685,-397 661.1106,-340.5577 609.8894,-357.4423 586,-301 569.8025,-262.7311 544.4444,-207.5 586,-207.5"/>
<polygon fill="#000000" stroke="#000000" points="694.9802,-576.871 684.7169,-573.0089 689.9901,-577.1855 685,-577.5 685,-577.5 685,-577.5 689.9901,-577.1855 685.2831,-581.9911 694.9802,-576.871 694.9802,-576.871"/>
<text text-anchor="start" x="691.6425" y="-587.5" font-family="Arial" font-size="10.00" fill="#000000">FOREIGN KEY (status_type_id) REFERENCES fetch_status_types (id)</text>
</g>
</g>
</svg>
