<?xml version="1.0" encoding="UTF-8" standalone="no"?>
<!DOCTYPE svg PUBLIC "-//W3C//DTD SVG 1.1//EN"
 "http://www.w3.org/Graphics/SVG/1.1/DTD/svg11.dtd">
<!-- Generated by graphviz version 2.40.1 (20161225.0304)
 -->
<!-- Title: water_fetch_statuses Pages: 1 -->
<svg width="1023pt" height="682pt"
 viewBox="0.00 0.00 1023.00 682.00" xmlns="http://www.w3.org/2000/svg" xmlns:xlink="http://www.w3.org/1999/xlink">
<g id="graph0" class="graph" transform="scale(1 1) rotate(0) translate(4 678)">
<title>water_fetch_statuses</title>
<polygon fill="#ffffff" stroke="transparent" points="-4,4 -4,-678 1019,-678 1019,4 -4,4"/>
<!-- water_fetch_statuses -->
<g id="node1" class="node">
<title>water_fetch_statuses</title>
<polygon fill="#efefef" stroke="transparent" points="374,-592.5 374,-627.5 685,-627.5 685,-592.5 374,-592.5"/>
<polygon fill="none" stroke="#000000" points="374,-592.5 374,-627.5 685,-627.5 685,-592.5 374,-592.5"/>
<text text-anchor="start" x="380.6894" y="-605.3" font-family="Arial Bold" font-size="18.00" fill="#000000">water_fetch_statuses</text>
<text text-anchor="start" x="550.7426" y="-605.3" font-family="Arial" font-size="14.00" fill="#000000">    </text>
<text text-anchor="start" x="584.9474" y="-605.3" font-family="Arial" font-size="14.00" fill="#666666">[BASE TABLE]</text>
<polygon fill="none" stroke="#000000" points="374,-562.5 374,-592.5 685,-592.5 685,-562.5 374,-562.5"/>
<text text-anchor="start" x="381" y="-573.9" font-family="Arial" font-size="14.00" fill="#000000">id </text>
<text text-anchor="start" x="395.7798" y="-573.9" font-family="Arial" font-size="14.00" fill="#666666">[bigint(20) unsigned]</text>
<polygon fill="none" stroke="#000000" points="374,-532.5 374,-562.5 685,-562.5 685,-532.5 374,-532.5"/>
<text text-anchor="start" x="381" y="-543.9" font-family="Arial" font-size="14.00" fill="#000000">water_fetch_setting_id </text>
<text text-anchor="start" x="524.9326" y="-543.9" font-family="Arial" font-size="14.00" fill="#666666">[bigint(20) unsigned]</text>
<polygon fill="none" stroke="#000000" points="374,-502.5 374,-532.5 685,-532.5 685,-502.5 374,-502.5"/>
<text text-anchor="start" x="381" y="-513.9" font-family="Arial" font-size="14.00" fill="#000000">status_type_id </text>
<text text-anchor="start" x="475.1472" y="-513.9" font-family="Arial" font-size="14.00" fill="#666666">[tinyint(3) unsigned]</text>
<polygon fill="none" stroke="#000000" points="374,-472.5 374,-502.5 685,-502.5 685,-472.5 374,-472.5"/>
<text text-anchor="start" x="381" y="-483.9" font-family="Arial" font-size="14.00" fill="#000000">last_successful_at </text>
<text text-anchor="start" x="499.2538" y="-483.9" font-family="Arial" font-size="14.00" fill="#666666">[datetime]</text>
<polygon fill="none" stroke="#000000" points="374,-442.5 374,-472.5 685,-472.5 685,-442.5 374,-442.5"/>
<text text-anchor="start" x="381" y="-453.9" font-family="Arial" font-size="14.00" fill="#000000">last_failure_at </text>
<text text-anchor="start" x="472.021" y="-453.9" font-family="Arial" font-size="14.00" fill="#666666">[datetime]</text>
<polygon fill="none" stroke="#000000" points="374,-412.5 374,-442.5 685,-442.5 685,-412.5 374,-412.5"/>
<text text-anchor="start" x="381" y="-423.9" font-family="Arial" font-size="14.00" fill="#000000">created_at </text>
<text text-anchor="start" x="451.028" y="-423.9" font-family="Arial" font-size="14.00" fill="#666666">[datetime]</text>
<polygon fill="none" stroke="#000000" points="374,-382.5 374,-412.5 685,-412.5 685,-382.5 374,-382.5"/>
<text text-anchor="start" x="381" y="-393.9" font-family="Arial" font-size="14.00" fill="#000000">updated_at </text>
<text text-anchor="start" x="454.9326" y="-393.9" font-family="Arial" font-size="14.00" fill="#666666">[datetime]</text>
<polygon fill="none" stroke="#000000" stroke-width="3" points="372,-381.5 372,-629.5 686,-629.5 686,-381.5 372,-381.5"/>
</g>
<!-- water_fetch_settings -->
<g id="node2" class="node">
<title>water_fetch_settings</title>
<polygon fill="#efefef" stroke="transparent" points="175,-222.5 175,-257.5 481,-257.5 481,-222.5 175,-222.5"/>
<polygon fill="none" stroke="#000000" points="175,-222.5 175,-257.5 481,-257.5 481,-222.5 175,-222.5"/>
<text text-anchor="start" x="181.6923" y="-235.3" font-family="Arial Bold" font-size="18.00" fill="#000000">water_fetch_settings</text>
<text text-anchor="start" x="346.7397" y="-235.3" font-family="Arial" font-size="14.00" fill="#000000">    </text>
<text text-anchor="start" x="380.9445" y="-235.3" font-family="Arial" font-size="14.00" fill="#666666">[BASE TABLE]</text>
<polygon fill="none" stroke="#000000" points="175,-192.5 175,-222.5 481,-222.5 481,-192.5 175,-192.5"/>
<text text-anchor="start" x="182" y="-203.9" font-family="Arial" font-size="14.00" fill="#000000">id    </text>
<text text-anchor="start" x="227.094" y="-203.9" font-family="Arial" font-size="14.00" fill="#666666">[bigint(20) unsigned]</text>
<polygon fill="none" stroke="#000000" points="175,-162.5 175,-192.5 481,-192.5 481,-162.5 175,-162.5"/>
<text text-anchor="start" x="182" y="-173.9" font-family="Arial" font-size="14.00" fill="#000000">water_site_id    </text>
<text text-anchor="start" x="298.662" y="-173.9" font-family="Arial" font-size="14.00" fill="#666666">[bigint(20) unsigned]</text>
<polygon fill="none" stroke="#000000" points="175,-132.5 175,-162.5 481,-162.5 481,-132.5 175,-132.5"/>
<text text-anchor="start" x="182" y="-143.9" font-family="Arial" font-size="14.00" fill="#000000">user_name    </text>
<text text-anchor="start" x="286.2216" y="-143.9" font-family="Arial" font-size="14.00" fill="#666666">[varchar(255)]</text>
<polygon fill="none" stroke="#000000" points="175,-102.5 175,-132.5 481,-132.5 481,-102.5 175,-102.5"/>
<text text-anchor="start" x="182" y="-113.9" font-family="Arial" font-size="14.00" fill="#000000">encrypted_password    </text>
<text text-anchor="start" x="345.3492" y="-113.9" font-family="Arial" font-size="14.00" fill="#666666">[varchar(512)]</text>
<polygon fill="none" stroke="#000000" points="175,-72.5 175,-102.5 481,-102.5 481,-72.5 175,-72.5"/>
<text text-anchor="start" x="182" y="-83.9" font-family="Arial" font-size="14.00" fill="#000000">created_at    </text>
<text text-anchor="start" x="282.3422" y="-83.9" font-family="Arial" font-size="14.00" fill="#666666">[datetime]</text>
<polygon fill="none" stroke="#000000" points="175,-42.5 175,-72.5 481,-72.5 481,-42.5 175,-42.5"/>
<text text-anchor="start" x="182" y="-53.9" font-family="Arial" font-size="14.00" fill="#000000">updated_at    </text>
<text text-anchor="start" x="286.2468" y="-53.9" font-family="Arial" font-size="14.00" fill="#666666">[datetime]</text>
</g>
<!-- water_fetch_statuses&#45;&gt;water_fetch_settings -->
<g id="edge1" class="edge">
<title>water_fetch_statuses:water_fetch_setting_id&#45;&gt;water_fetch_settings:id</title>
<path fill="none" stroke="#000000" d="M363.6361,-546.8957C283.512,-537.0794 321.5361,-410.0051 374,-337 403.2808,-296.2549 451.7192,-341.7451 481,-301 505.2507,-267.2544 522.5556,-207.5 481,-207.5"/>
<polygon fill="#000000" stroke="#000000" points="364.017,-546.9178 373.738,-551.9924 369.0085,-547.2089 374,-547.5 374,-547.5 374,-547.5 369.0085,-547.2089 374.262,-543.0076 364.017,-546.9178 364.017,-546.9178"/>
<text text-anchor="start" x="6.699" y="-557.5" font-family="Arial" font-size="10.00" fill="#000000">FOREIGN KEY (water_fetch_setting_id) REFERENCES water_fetch_settings (id)</text>
</g>
<!-- fetch_status_types -->
<g id="node3" class="node">
<title>fetch_status_types</title>
<polygon fill="#efefef" stroke="transparent" points="586,-192.5 586,-227.5 877,-227.5 877,-192.5 586,-192.5"/>
<polygon fill="none" stroke="#000000" points="586,-192.5 586,-227.5 877,-227.5 877,-192.5 586,-192.5"/>
<text text-anchor="start" x="592.6857" y="-205.3" font-family="Arial Bold" font-size="18.00" fill="#000000">fetch_status_types</text>
<text text-anchor="start" x="742.7463" y="-205.3" font-family="Arial" font-size="14.00" fill="#000000">    </text>
<text text-anchor="start" x="776.9511" y="-205.3" font-family="Arial" font-size="14.00" fill="#666666">[BASE TABLE]</text>
<polygon fill="none" stroke="#000000" points="586,-162.5 586,-192.5 877,-192.5 877,-162.5 586,-162.5"/>
<text text-anchor="start" x="593" y="-173.9" font-family="Arial" font-size="14.00" fill="#000000">id    </text>
<text text-anchor="start" x="638.094" y="-173.9" font-family="Arial" font-size="14.00" fill="#666666">[tinyint(3) unsigned]</text>
<polygon fill="none" stroke="#000000" points="586,-132.5 586,-162.5 877,-162.5 877,-132.5 586,-132.5"/>
<text text-anchor="start" x="593" y="-143.9" font-family="Arial" font-size="14.00" fill="#000000">type_name    </text>
<text text-anchor="start" x="696.4516" y="-143.9" font-family="Arial" font-size="14.00" fill="#666666">[varchar(255)]</text>
<polygon fill="none" stroke="#000000" points="586,-102.5 586,-132.5 877,-132.5 877,-102.5 586,-102.5"/>
<text text-anchor="start" x="593" y="-113.9" font-family="Arial" font-size="14.00" fill="#000000">created_at    </text>
<text text-anchor="start" x="693.3422" y="-113.9" font-family="Arial" font-size="14.00" fill="#666666">[datetime]</text>
<polygon fill="none" stroke="#000000" points="586,-72.5 586,-102.5 877,-102.5 877,-72.5 586,-72.5"/>
<text text-anchor="start" x="593" y="-83.9" font-family="Arial" font-size="14.00" fill="#000000">updated_at    </text>
<text text-anchor="start" x="697.2468" y="-83.9" font-family="Arial" font-size="14.00" fill="#666666">[datetime]</text>
</g>
<!-- water_fetch_statuses&#45;&gt;fetch_status_types -->
<g id="edge2" class="edge">
<title>water_fetch_statuses:status_type_id&#45;&gt;fetch_status_types:id</title>
<path fill="none" stroke="#000000" d="M695.0806,-516.8489C761.4248,-507.7166 721.153,-404.5526 685,-337 660.0475,-290.3758 610.9525,-317.6242 586,-271 566.3917,-234.3615 544.4444,-177.5 586,-177.5"/>
<polygon fill="#000000" stroke="#000000" points="694.9792,-516.8554 684.7099,-513.0094 689.9896,-517.1777 685,-517.5 685,-517.5 685,-517.5 689.9896,-517.1777 685.2901,-521.9906 694.9792,-516.8554 694.9792,-516.8554"/>
<text text-anchor="start" x="691.6425" y="-527.5" font-family="Arial" font-size="10.00" fill="#000000">FOREIGN KEY (status_type_id) REFERENCES fetch_status_types (id)</text>
</g>
</g>
</svg>
